<svg xmlns="http://www.w3.org/2000/svg" viewBox="0 0 750 250"><title>hehun_banner</title><g id="图层_2" data-name="图层 2"><g id="图层_1-2" data-name="图层 1"><rect width="750" height="250" style="fill:#f4f0eb"/><polygon points="225.1 93.4 375.6 137.9 225.3 78.3 225.1 93.4" style="fill:#c35056"/><polygon points="225.3 78.3 375.6 137.9 239.6 72.9 225.3 78.3" style="fill:#e05b63"/><polygon points="239.6 72.9 375.6 137.9 242.7 58 239.6 72.9" style="fill:#c35056"/><polygon points="285.7 26.7 375.6 137.9 300.8 28.4 285.7 26.7" style="fill:#e05b63"/><polygon points="263 40.7 375.6 137.9 278.2 40 263 40.7" style="fill:#e05b63"/><polygon points="300.8 28.4 375.6 137.9 310.2 16.3 300.8 28.4" style="fill:#c35056"/><polygon points="278.2 40 375.6 137.9 285.7 26.7 278.2 40" style="fill:#c35056"/><polygon points="350 15.5 375.6 137.9 362.3 6.4 350 15.5" style="fill:#c35056"/><polygon points="362.3 6.4 375.6 137.9 375.6 14 362.3 6.4" style="fill:#e05b63"/><polygon points="375.6 14 375.6 137.9 388.9 6.4 375.6 14" style="fill:#c35056"/><polygon points="388.9 6.4 375.6 137.9 401.1 15.5 388.9 6.4" style="fill:#e05b63"/><polygon points="525.8 78.2 375.6 137.9 526 93.4 525.8 78.2" style="fill:#e05b63"/><polygon points="472.9 40 375.6 137.9 488.2 40.7 472.9 40" style="fill:#c35056"/><polygon points="488.2 40.7 375.6 137.9 493.5 55 488.2 40.7" style="fill:#e05b63"/><polygon points="493.5 55 375.6 137.9 508.5 58 493.5 55" style="fill:#c35056"/><polygon points="511.5 72.9 375.6 137.9 525.8 78.2 511.5 72.9" style="fill:#c35056"/><polygon points="508.5 58 375.6 137.9 511.5 72.9 508.5 58" style="fill:#e05b63"/><polygon points="441 16.3 375.6 137.9 450.3 28.4 441 16.3" style="fill:#e05b63"/><polygon points="426.2 20.2 375.6 137.9 441 16.3 426.2 20.2" style="fill:#c35056"/><polygon points="415.2 9.6 375.6 137.9 426.2 20.2 415.2 9.6" style="fill:#e05b63"/><polygon points="465.5 26.7 375.6 137.9 472.9 40 465.5 26.7" style="fill:#e05b63"/><polygon points="450.3 28.4 375.6 137.9 465.5 26.7 450.3 28.4" style="fill:#c35056"/><polygon points="401.1 15.5 375.6 137.9 415.2 9.6 401.1 15.5" style="fill:#c35056"/><polygon points="335.9 9.6 375.6 137.9 350 15.5 335.9 9.6" style="fill:#e05b63"/><polygon points="310.2 16.3 375.6 137.9 325 20.2 310.2 16.3" style="fill:#e05b63"/><polygon points="325 20.2 375.6 137.9 335.9 9.6 325 20.2" style="fill:#c35056"/><polygon points="257.6 55 375.6 137.9 263 40.7 257.6 55" style="fill:#c35056"/><polygon points="242.7 58 375.6 137.9 257.6 55 242.7 58" style="fill:#e05b63"/><polygon points="413.4 151.4 216.7 95.2 219.4 85.7 414.7 146.7 413.4 151.4" style="fill:#d6c386"/><polygon points="216.7 95.2 413.4 151.4 411.6 153.1 218.9 99.6 216.7 95.2" style="fill:#baab75"/><polygon points="337.8 151.4 534.5 95.2 532.1 85.5 336.8 146.6 337.8 151.4" style="fill:#edd798"/><polygon points="534.5 95.2 337.8 151.4 339.6 153.1 532.3 99.6 534.5 95.2" style="fill:#c4b37b"/><path d="M375.6,136.5a1.2,1.2,0,0,0-1.2,1.2,1.1,1.1,0,0,0,1.2,1.1,1.1,1.1,0,0,0,1.1-1.1A1.1,1.1,0,0,0,375.6,136.5Z" style="fill:#baab75"/><polygon points="36.5 38.4 20 38.4 20 0 36.5 0 36.5 18 24.7 18 24.7 5.9 31.8 5.9 31.8 13.4 29.1 13.4 29.1 8.6 27.4 8.6 27.4 15.2 33.7 15.2 33.7 2.8 22.8 2.8 22.8 35.7 33.7 35.7 33.7 23.2 27.4 23.2 27.4 29.8 29.1 29.8 29.1 25 31.8 25 31.8 32.5 24.7 32.5 24.7 20.5 36.5 20.5 36.5 38.4" style="fill:#e05b63"/><polygon points="36.5 80.7 20 80.7 20 42.3 36.5 42.3 36.5 60.3 24.7 60.3 24.7 48.2 31.8 48.2 31.8 55.7 29.1 55.7 29.1 50.9 27.4 50.9 27.4 57.5 33.7 57.5 33.7 45.1 22.8 45.1 22.8 78 33.7 78 33.7 65.5 27.4 65.5 27.4 72.1 29.1 72.1 29.1 67.3 31.8 67.3 31.8 74.9 24.7 74.9 24.7 62.8 36.5 62.8 36.5 80.7" style="fill:#e05b63"/><polygon points="36.5 123 20 123 20 84.6 36.5 84.6 36.5 102.6 24.7 102.6 24.7 90.5 31.8 90.5 31.8 98.1 29.1 98.1 29.1 93.3 27.4 93.3 27.4 99.8 33.7 99.8 33.7 87.4 22.8 87.4 22.8 120.3 33.7 120.3 33.7 107.8 27.4 107.8 27.4 114.4 29.1 114.4 29.1 109.6 31.8 109.6 31.8 117.2 24.7 117.2 24.7 105.1 36.5 105.1 36.5 123" style="fill:#e05b63"/><polygon points="36.5 165.4 20 165.4 20 127 36.5 127 36.5 144.9 24.7 144.9 24.7 132.8 31.8 132.8 31.8 140.4 29.1 140.4 29.1 135.6 27.4 135.6 27.4 142.2 33.7 142.2 33.7 129.7 22.8 129.7 22.8 162.6 33.7 162.6 33.7 150.2 27.4 150.2 27.4 156.7 29.1 156.7 29.1 151.9 31.8 151.9 31.8 159.5 24.7 159.5 24.7 147.4 36.5 147.4 36.5 165.4" style="fill:#e05b63"/><polygon points="36.5 207.7 20 207.7 20 169.3 36.5 169.3 36.5 187.2 24.7 187.2 24.7 175.1 31.8 175.1 31.8 182.7 29.1 182.7 29.1 177.9 27.4 177.9 27.4 184.5 33.7 184.5 33.7 172 22.8 172 22.8 204.9 33.7 204.9 33.7 192.5 27.4 192.5 27.4 199.1 29.1 199.1 29.1 194.3 31.8 194.3 31.8 201.8 24.7 201.8 24.7 189.7 36.5 189.7 36.5 207.7" style="fill:#e05b63"/><polygon points="36.5 250 20 250 20 211.6 36.5 211.6 36.5 229.5 24.7 229.5 24.7 217.5 31.8 217.5 31.8 225 29.1 225 29.1 220.2 27.4 220.2 27.4 226.8 33.7 226.8 33.7 214.3 22.8 214.3 22.8 247.2 33.7 247.2 33.7 234.8 27.4 234.8 27.4 241.4 29.1 241.4 29.1 236.6 31.8 236.6 31.8 244.1 24.7 244.1 24.7 232 36.5 232 36.5 250" style="fill:#e05b63"/><polygon points="713.5 38.4 730 38.4 730 0 713.5 0 713.5 18 725.3 18 725.3 5.9 718.2 5.9 718.2 13.4 720.9 13.4 720.9 8.6 722.6 8.6 722.6 15.2 716.3 15.2 716.3 2.8 727.2 2.8 727.2 35.7 716.3 35.7 716.3 23.2 722.6 23.2 722.6 29.8 720.9 29.8 720.9 25 718.2 25 718.2 32.5 725.3 32.5 725.3 20.5 713.5 20.5 713.5 38.4" style="fill:#e05b63"/><polygon points="713.5 80.7 730 80.7 730 42.3 713.5 42.3 713.5 60.3 725.3 60.3 725.3 48.2 718.2 48.2 718.2 55.7 720.9 55.7 720.9 50.9 722.6 50.9 722.6 57.5 716.3 57.5 716.3 45.1 727.2 45.1 727.2 78 716.3 78 716.3 65.5 722.6 65.5 722.6 72.1 720.9 72.1 720.9 67.3 718.2 67.3 718.2 74.9 725.3 74.9 725.3 62.8 713.5 62.8 713.5 80.7" style="fill:#e05b63"/><polygon points="713.5 123 730 123 730 84.6 713.5 84.6 713.5 102.6 725.3 102.6 725.3 90.5 718.2 90.5 718.2 98.1 720.9 98.1 720.9 93.3 722.6 93.3 722.6 99.8 716.3 99.8 716.3 87.4 727.2 87.4 727.2 120.3 716.3 120.3 716.3 107.8 722.6 107.8 722.6 114.4 720.9 114.4 720.9 109.6 718.2 109.6 718.2 117.2 725.3 117.2 725.3 105.1 713.5 105.1 713.5 123" style="fill:#e05b63"/><polygon points="713.5 165.4 730 165.4 730 127 713.5 127 713.5 144.9 725.3 144.9 725.3 132.8 718.2 132.8 718.2 140.4 720.9 140.4 720.9 135.6 722.6 135.6 722.6 142.2 716.3 142.2 716.3 129.7 727.2 129.7 727.2 162.6 716.3 162.6 716.3 150.2 722.6 150.2 722.6 156.7 720.9 156.7 720.9 151.9 718.2 151.9 718.2 159.5 725.3 159.5 725.3 147.4 713.5 147.4 713.5 165.4" style="fill:#e05b63"/><polygon points="713.5 207.7 730 207.7 730 169.3 713.5 169.3 713.5 187.2 725.3 187.2 725.3 175.1 718.2 175.1 718.2 182.7 720.9 182.7 720.9 177.9 722.6 177.9 722.6 184.5 716.3 184.5 716.3 172 727.2 172 727.2 204.9 716.3 204.9 716.3 192.5 722.6 192.5 722.6 199.1 720.9 199.1 720.9 194.3 718.2 194.3 718.2 201.8 725.3 201.8 725.3 189.7 713.5 189.7 713.5 207.7" style="fill:#e05b63"/><polygon points="713.5 250 730 250 730 211.6 713.5 211.6 713.5 229.5 725.3 229.5 725.3 217.5 718.2 217.5 718.2 225 720.9 225 720.9 220.2 722.6 220.2 722.6 226.8 716.3 226.8 716.3 214.3 727.2 214.3 727.2 247.2 716.3 247.2 716.3 234.8 722.6 234.8 722.6 241.4 720.9 241.4 720.9 236.6 718.2 236.6 718.2 244.1 725.3 244.1 725.3 232 713.5 232 713.5 250" style="fill:#e05b63"/><path d="M411.6,178.7H398.4V171h13.2a2.4,2.4,0,0,0,2.4-2.4,2.4,2.4,0,0,0-2.4-2.4H398.4v-8.6a2.4,2.4,0,1,0-4.8,0v8.6H357.2v-8.6a2.4,2.4,0,1,0-4.7,0v8.6H339.2a2.4,2.4,0,0,0-2.4,2.4,2.4,2.4,0,0,0,2.4,2.4h13.3v7.7H339.2a2.4,2.4,0,1,0,0,4.7h72.4a2.4,2.4,0,1,0,0-4.7ZM357.2,171h36.4v7.7H357.2Z" style="fill:#e05b63"/><path d="M411.6,215.9H339.2a2.4,2.4,0,0,0,0,4.8h72.4a2.4,2.4,0,0,0,0-4.8Z" style="fill:#e05b63"/><path d="M344,206.2h21.7a7.3,7.3,0,0,0,7.2-7.2v-5.7a7.2,7.2,0,0,0-7.2-7.2H344a7.2,7.2,0,0,0-7.2,7.2V199A7.3,7.3,0,0,0,344,206.2Zm-2.4-12.9a2.4,2.4,0,0,1,2.4-2.4h21.7a2.4,2.4,0,0,1,2.4,2.4V199a2.4,2.4,0,0,1-2.4,2.4H344a2.4,2.4,0,0,1-2.4-2.4Z" style="fill:#e05b63"/><path d="M406.8,186.1H385.2a7.2,7.2,0,0,0-7.2,7.2V199a7.2,7.2,0,0,0,7.2,7.2h21.6A7.2,7.2,0,0,0,414,199v-5.7A7.2,7.2,0,0,0,406.8,186.1Zm2.4,12.9a2.4,2.4,0,0,1-2.4,2.4H385.2a2.4,2.4,0,0,1-2.4-2.4v-5.7a2.4,2.4,0,0,1,2.4-2.4h21.6a2.4,2.4,0,0,1,2.4,2.4Z" style="fill:#e05b63"/><path d="M365.7,222.9H344a7.3,7.3,0,0,0-7.2,7.2v5.7A7.2,7.2,0,0,0,344,243h21.7a7.2,7.2,0,0,0,7.2-7.2v-5.7A7.3,7.3,0,0,0,365.7,222.9Zm2.4,12.9a2.4,2.4,0,0,1-2.4,2.4H344a2.4,2.4,0,0,1-2.4-2.4v-5.7a2.4,2.4,0,0,1,2.4-2.4h21.7a2.4,2.4,0,0,1,2.4,2.4Z" style="fill:#e05b63"/><path d="M406.8,222.9H385.2a7.2,7.2,0,0,0-7.2,7.2v5.7a7.2,7.2,0,0,0,7.2,7.2h21.6a7.2,7.2,0,0,0,7.2-7.2v-5.7A7.2,7.2,0,0,0,406.8,222.9Zm2.4,12.9a2.4,2.4,0,0,1-2.4,2.4H385.2a2.4,2.4,0,0,1-2.4-2.4v-5.7a2.4,2.4,0,0,1,2.4-2.4h21.6a2.4,2.4,0,0,1,2.4,2.4Z" style="fill:#e05b63"/><path d="M339.3,208.1a2.4,2.4,0,0,0-.1,3.4l2.6,2.8a2.5,2.5,0,0,0,1.8.8,2,2,0,0,0,1.6-.7,2.4,2.4,0,0,0,.1-3.4l-2.6-2.8A2.5,2.5,0,0,0,339.3,208.1Z" style="fill:#e05b63"/><path d="M367,208.2l-2.6,2.8a2.4,2.4,0,0,0,.1,3.4,2,2,0,0,0,1.6.7,2.5,2.5,0,0,0,1.8-.8l2.6-2.8a2.4,2.4,0,0,0-.1-3.4A2.5,2.5,0,0,0,367,208.2Z" style="fill:#e05b63"/><path d="M384.7,215.1a2.3,2.3,0,0,0,1.7-.7,2.5,2.5,0,0,0,.1-3.4l-2.7-2.8a2.4,2.4,0,0,0-3.5,3.3l2.7,2.8A2.5,2.5,0,0,0,384.7,215.1Z" style="fill:#e05b63"/><path d="M409,214.3l2.7-2.8a2.4,2.4,0,1,0-3.5-3.3l-2.7,2.8a2.5,2.5,0,0,0,.1,3.4,2.3,2.3,0,0,0,1.7.7A2.5,2.5,0,0,0,409,214.3Z" style="fill:#e05b63"/><path d="M193.7,124.6h0c-2.7-1.5-.8-3.5-.8-3.5h0a2.8,2.8,0,0,0,.8-2,2.9,2.9,0,0,0-5.7,0,2.5,2.5,0,0,0,.9,2h0s1.9,2-.9,3.5h.1c-4.9,1-5.9,4.5-5.9,4.5h17.4S198.5,125.6,193.7,124.6Z" style="fill:#ad464c"/><rect x="177.7" y="240" width="26.5" height="2.57" rx="1" ry="1" style="fill:#ad464c"/><path d="M154.6,210.6h-1.3a8.4,8.4,0,0,1-5.6-2.5c-1.6-1.7-2.3-4.1-2.1-7.1a8.7,8.7,0,0,1,3.1-6.6,9.3,9.3,0,0,1,6.3-1.8,1.9,1.9,0,0,1-.4,3.7,5.5,5.5,0,0,0-3.6,1,5.2,5.2,0,0,0-1.7,4,6.1,6.1,0,0,0,1.1,4.3,5.3,5.3,0,0,0,3.1,1.3h.4a4.1,4.1,0,0,0,3.1-.6,6,6,0,0,0,1.9-3.9c.5-4-.3-5.9-2.6-11.6-1.7-4-3.9-9.4-6.8-18.2-4-12.2-1.4-19.8,1.5-23.9a18.2,18.2,0,0,1,14.3-7.7c6.1-.2,11.9,2.1,15.5,6.4a15.6,15.6,0,0,1,3.5,13.4c-1.8,9.7-10.6,12.1-15,12.1a1.9,1.9,0,0,1-1.8-1.9,1.9,1.9,0,0,1,1.9-1.8h0c.7,0,9.6-.2,11.3-9.1a11.8,11.8,0,0,0-2.7-10.3,15.7,15.7,0,0,0-12.6-5.1,14.9,14.9,0,0,0-11.4,6.1c-2.4,3.5-4.5,9.9-1,20.6,2.9,8.7,5.1,14.1,6.7,18,2.4,5.8,3.5,8.5,2.8,13.4a8.9,8.9,0,0,1-3.3,6.5A8.5,8.5,0,0,1,154.6,210.6Z" style="fill:#e05b63"/><path d="M239.7,139.5c-3.8,0-11.9,12.4-15.9,28.9s-7.4,16.7-9.3,17.7-6.3-2.7-6.3-2.7a62.3,62.3,0,0,1-8.4-19.7c-3.4-13.6-2.2-24.9,2.4-31.9a1.7,1.7,0,0,0-1.5-2.7H181.2a1.7,1.7,0,0,0-1.5,2.7c4.5,7,6.3,18.4,2.4,31.9-8.2,28.1-22.6,27.6-22.6,49.1S179.6,240,179.6,240h22.7s20.1-5.7,20.1-27.2a31.5,31.5,0,0,0-.9-8c2.8-.6,6.2-2.4,9.7-7,8.9-11.8.8-38.4,4.9-46.7s8.8-7.4,10.2-9.4S243.5,139.5,239.7,139.5Z" style="fill:#e05b63"/><path d="M202.8,203.9h-4.3v-2.5h4.3a.8.8,0,0,0,.8-.8.7.7,0,0,0-.8-.8h-4.3v-2.9a.8.8,0,0,0-1.6,0v2.9H185v-2.9a.8.8,0,0,0-.8-.7.7.7,0,0,0-.8.7v2.9H179a.7.7,0,0,0-.7.8.8.8,0,0,0,.7.8h4.4v2.5H179a.7.7,0,0,0-.7.8.8.8,0,0,0,.7.8h23.8a.8.8,0,0,0,.8-.8A.7.7,0,0,0,202.8,203.9ZM185,201.4h11.9v2.5H185Z" style="fill:#d6c386"/><path d="M202.8,216.1H179a.8.8,0,0,0,0,1.6h23.8a.8.8,0,1,0,0-1.6Z" style="fill:#d6c386"/><path d="M180.6,212.9h7.1a2.3,2.3,0,0,0,2.4-2.3v-1.9a2.4,2.4,0,0,0-2.4-2.4h-7.1a2.3,2.3,0,0,0-2.3,2.4v1.9A2.3,2.3,0,0,0,180.6,212.9Zm-.8-4.2a.9.9,0,0,1,.8-.8h7.1a.8.8,0,0,1,.8.8v1.9a.7.7,0,0,1-.8.7h-7.1a.8.8,0,0,1-.8-.7Z" style="fill:#d6c386"/><path d="M201.3,206.3h-7.2a2.3,2.3,0,0,0-2.3,2.4v1.9a2.3,2.3,0,0,0,2.3,2.3h7.2a2.3,2.3,0,0,0,2.3-2.3v-1.9A2.3,2.3,0,0,0,201.3,206.3Zm.7,4.3a.7.7,0,0,1-.7.7h-7.2a.7.7,0,0,1-.7-.7v-1.9a.8.8,0,0,1,.7-.8h7.2a.8.8,0,0,1,.7.8Z" style="fill:#d6c386"/><path d="M187.7,218.4h-7.1a2.3,2.3,0,0,0-2.3,2.4v1.9a2.3,2.3,0,0,0,2.3,2.3h7.1a2.3,2.3,0,0,0,2.4-2.3v-1.9A2.4,2.4,0,0,0,187.7,218.4Zm.8,4.3a.8.8,0,0,1-.8.8h-7.1a.9.9,0,0,1-.8-.8v-1.9a.9.9,0,0,1,.8-.8h7.1a.8.8,0,0,1,.8.8Z" style="fill:#d6c386"/><path d="M201.3,218.4h-7.2a2.3,2.3,0,0,0-2.3,2.4v1.9a2.3,2.3,0,0,0,2.3,2.3h7.2a2.3,2.3,0,0,0,2.3-2.3v-1.9A2.3,2.3,0,0,0,201.3,218.4Zm.7,4.3a.8.8,0,0,1-.7.8h-7.2a.8.8,0,0,1-.7-.8v-1.9a.8.8,0,0,1,.7-.8h7.2a.8.8,0,0,1,.7.8Z" style="fill:#d6c386"/><path d="M179.1,213.6a.7.7,0,0,0-.1,1.1l.9.9a.7.7,0,0,0,.6.3.5.5,0,0,0,.5-.3.8.8,0,0,0,0-1.1l-.8-.9A.8.8,0,0,0,179.1,213.6Z" style="fill:#d6c386"/><path d="M188.2,213.6l-.9.9a.8.8,0,0,0,0,1.1.7.7,0,0,0,1.2,0l.8-.9a.8.8,0,1,0-1.1-1.1Z" style="fill:#d6c386"/><path d="M194,215.9a.5.5,0,0,0,.5-.3.7.7,0,0,0,.1-1.1l-.9-.9a.8.8,0,1,0-1.1,1.1l.8.9A.9.9,0,0,0,194,215.9Z" style="fill:#d6c386"/><path d="M202,215.6l.9-.9a.8.8,0,0,0-1.2-1.1l-.9.9a.8.8,0,0,0,.1,1.1.5.5,0,0,0,.5.3A.9.9,0,0,0,202,215.6Z" style="fill:#d6c386"/><path d="M274.9,204.9H256.1s0,.8-.1,2.1h19A18.7,18.7,0,0,0,274.9,204.9Z" style="fill:#d6c386"/><path d="M274.3,239.8c-2.9,0-6.9-.8-6.9-7.4s3.8-5.2,6-8.7,1.7-12.4,1.6-16.7H256c-.1,4.3-.1,14,1.6,16.7s6,2,6,8.7-4,7.4-6.8,7.4a3,3,0,0,0-3.1,2.7h23.7A3.1,3.1,0,0,0,274.3,239.8Z" style="fill:#e05b63"/><path d="M270.3,214.1h-1.8v-1h1.8a.3.3,0,1,0,0-.6h-1.8v-1.2a.3.3,0,0,0-.6,0v1.2h-4.8v-1.2a.3.3,0,0,0-.6,0v1.2h-1.7a.3.3,0,1,0,0,.6h1.7v1h-1.7a.3.3,0,0,0-.3.3.3.3,0,0,0,.3.3h9.5a.3.3,0,0,0,.3-.3Zm-7.2-1h4.8v1h-4.8Z" style="fill:#d6c386"/><path d="M270.3,219h-9.5a.3.3,0,1,0,0,.6h9.5a.3.3,0,1,0,0-.6Z" style="fill:#d6c386"/><path d="M261.4,217.7h2.8a.9.9,0,0,0,1-.9V216a.9.9,0,0,0-1-.9h-2.8a.9.9,0,0,0-.9.9v.8A.9.9,0,0,0,261.4,217.7Zm-.3-1.7a.3.3,0,0,1,.3-.3h2.8a.3.3,0,0,1,.3.3v.8a.3.3,0,0,1-.3.3h-2.8a.3.3,0,0,1-.3-.3Z" style="fill:#d6c386"/><path d="M269.6,215.1h-2.8a1,1,0,0,0-1,.9v.8a1,1,0,0,0,1,.9h2.8a.9.9,0,0,0,1-.9V216A.9.9,0,0,0,269.6,215.1Zm.3,1.7a.3.3,0,0,1-.3.3h-2.8a.3.3,0,0,1-.3-.3V216a.3.3,0,0,1,.3-.3h2.8a.3.3,0,0,1,.3.3Z" style="fill:#d6c386"/><path d="M264.2,219.9h-2.8a.9.9,0,0,0-.9,1v.7a1,1,0,0,0,.9,1h2.8a1,1,0,0,0,1-1v-.7A.9.9,0,0,0,264.2,219.9Zm.3,1.7a.3.3,0,0,1-.3.3h-2.8a.3.3,0,0,1-.3-.3v-.7a.3.3,0,0,1,.3-.3h2.8a.3.3,0,0,1,.3.3Z" style="fill:#d6c386"/><path d="M269.6,219.9h-2.8a1,1,0,0,0-1,1v.7a1.1,1.1,0,0,0,1,1h2.8a1,1,0,0,0,1-1v-.7A.9.9,0,0,0,269.6,219.9Zm.3,1.7a.3.3,0,0,1-.3.3h-2.8a.3.3,0,0,1-.3-.3v-.7a.3.3,0,0,1,.3-.3h2.8a.3.3,0,0,1,.3.3Z" style="fill:#d6c386"/><path d="M260.8,218a.2.2,0,0,0,0,.4l.3.4h.5a.3.3,0,0,0,0-.4l-.4-.4Z" style="fill:#d6c386"/><path d="M264.4,218l-.3.4c-.2.1-.1.3,0,.4h.4l.4-.4a.3.3,0,0,0,0-.4Z" style="fill:#d6c386"/><path d="M266.7,218.9h.2a.2.2,0,0,0,.1-.4l-.4-.4h-.4a.2.2,0,0,0,0,.4l.3.4Z" style="fill:#d6c386"/><path d="M269.9,218.8l.4-.4a.3.3,0,0,0,0-.4h-.5l-.3.4a.2.2,0,0,0,0,.4h.4Z" style="fill:#d6c386"/><path d="M302.6,204.9H283.8s0,.8-.1,2.1h19A18.7,18.7,0,0,0,302.6,204.9Z" style="fill:#d6c386"/><path d="M302,239.8c-2.9,0-6.9-.8-6.9-7.4s3.8-5.2,6-8.7,1.7-12.4,1.6-16.7h-19c-.1,4.3-.1,14,1.6,16.7s6,2,6,8.7-4,7.4-6.8,7.4a3,3,0,0,0-3.1,2.7H305A2.9,2.9,0,0,0,302,239.8Z" style="fill:#e05b63"/><path d="M298,214.1h-1.8v-1H298a.3.3,0,0,0,0-.6h-1.8v-1.2a.3.3,0,0,0-.6,0v1.2h-4.8v-1.2a.3.3,0,1,0-.6,0v1.2h-1.7c-.2,0-.4.1-.4.3s.2.3.4.3h1.7v1h-1.7a.4.4,0,0,0-.4.3c0,.2.2.3.4.3H298a.3.3,0,0,0,.3-.3A.5.5,0,0,0,298,214.1Zm-7.2-1h4.8v1h-4.8Z" style="fill:#d6c386"/><path d="M298,219h-9.5c-.2,0-.4.1-.4.3s.2.3.4.3H298a.3.3,0,0,0,0-.6Z" style="fill:#d6c386"/><path d="M289.1,217.7h2.8a1,1,0,0,0,1-.9V216a1,1,0,0,0-1-.9h-2.8a1,1,0,0,0-1,.9v.8A1,1,0,0,0,289.1,217.7Zm-.3-1.7a.3.3,0,0,1,.3-.3h2.8a.3.3,0,0,1,.3.3v.8a.3.3,0,0,1-.3.3h-2.8a.3.3,0,0,1-.3-.3Z" style="fill:#d6c386"/><path d="M297.3,215.1h-2.8a1,1,0,0,0-1,.9v.8a1,1,0,0,0,1,.9h2.8a1,1,0,0,0,1-.9V216A1,1,0,0,0,297.3,215.1Zm.3,1.7a.3.3,0,0,1-.3.3h-2.8a.3.3,0,0,1-.3-.3V216a.3.3,0,0,1,.3-.3h2.8a.3.3,0,0,1,.3.3Z" style="fill:#d6c386"/><path d="M291.9,219.9h-2.8a1,1,0,0,0-1,1v.7a1.1,1.1,0,0,0,1,1h2.8a1.1,1.1,0,0,0,1-1v-.7A1,1,0,0,0,291.9,219.9Zm.3,1.7a.3.3,0,0,1-.3.3h-2.8a.3.3,0,0,1-.3-.3v-.7a.3.3,0,0,1,.3-.3h2.8a.3.3,0,0,1,.3.3Z" style="fill:#d6c386"/><path d="M297.3,219.9h-2.8a1,1,0,0,0-1,1v.7a1.1,1.1,0,0,0,1,1h2.8a1.1,1.1,0,0,0,1-1v-.7A1,1,0,0,0,297.3,219.9Zm.3,1.7a.3.3,0,0,1-.3.3h-2.8a.3.3,0,0,1-.3-.3v-.7a.3.3,0,0,1,.3-.3h2.8a.3.3,0,0,1,.3.3Z" style="fill:#d6c386"/><path d="M288.5,218a.2.2,0,0,0-.1.4l.4.4h.4a.2.2,0,0,0,.1-.4l-.4-.4Z" style="fill:#d6c386"/><path d="M292.1,218l-.3.4a.2.2,0,0,0,0,.4h.4l.4-.4a.2.2,0,0,0-.1-.4Z" style="fill:#d6c386"/><path d="M294.4,218.9h.2a.2.2,0,0,0,.1-.4l-.4-.4h-.4a.2.2,0,0,0-.1.4l.4.4Z" style="fill:#d6c386"/><path d="M297.6,218.8l.4-.4a.2.2,0,0,0-.1-.4h-.4l-.3.4a.2.2,0,0,0,0,.4h.4Z" style="fill:#d6c386"/><rect x="525.8" y="240.7" width="71.9" height="2.29" rx="1" ry="1" style="fill:#ad464c"/><rect x="521.5" y="202.3" width="80.6" height="1.87" style="fill:#e6d18f"/><rect x="521.5" y="204.2" width="80.6" height="15.84" style="fill:#e05b63"/><path d="M521.5,235.8a4.9,4.9,0,0,0,4.9,4.9h70.7a4.9,4.9,0,0,0,5-4.9V225.5H521.5Z" style="fill:#e05b63"/><rect x="521.5" y="223.6" width="80.6" height="1.9" style="fill:#e6d18f"/><rect x="521.5" y="182.9" width="80.6" height="15.87" style="fill:#e05b63"/><rect x="521.5" y="181" width="80.6" height="1.84" style="fill:#e6d18f"/><rect x="521.5" y="220" width="80.6" height="3.58" style="fill:#424143"/><rect x="521.5" y="198.7" width="80.6" height="3.58" style="fill:#424143"/><rect x="521.5" y="159.7" width="80.6" height="1.81" style="fill:#e6d18f"/><rect x="521.5" y="161.5" width="80.6" height="15.9" style="fill:#e05b63"/><rect x="521.5" y="177.4" width="80.6" height="3.58" style="fill:#424143"/><path d="M601.8,156.2H521.7a20,20,0,0,0-.2,3.5h80.6A19.8,19.8,0,0,0,601.8,156.2Z" style="fill:#424143"/><path d="M574.5,138.5H549c-13.9,0-25.5,5.1-27.3,17.7h80.1C600,143.6,588.5,138.5,574.5,138.5Z" style="fill:#e05b63"/><path d="M565.3,167.5H564v-.8h1.3c.2,0,.3-.1.3-.2s-.1-.2-.3-.2H564v-.9a.2.2,0,0,0-.2-.2l-.2.2v.9H560v-.9c0-.1-.1-.2-.3-.2a.2.2,0,0,0-.2.2v.9h-1.3l-.2.2.2.2h1.3v.8h-1.3l-.2.2c0,.2.1.3.2.3h7.1a.3.3,0,0,0,.3-.3C565.6,167.6,565.5,167.5,565.3,167.5Zm-5.3-.8h3.6v.8H560Z" style="fill:#edd798"/><path d="M565.3,171.2h-7.1a.2.2,0,0,0-.2.2l.2.2h7.1c.2,0,.3-.1.3-.2S565.5,171.2,565.3,171.2Z" style="fill:#edd798"/><path d="M558.7,170.2h2.1a.7.7,0,0,0,.7-.7v-.6a.7.7,0,0,0-.7-.7h-2.1a.7.7,0,0,0-.7.7v.6A.7.7,0,0,0,558.7,170.2Zm-.3-1.3c0-.1.1-.2.3-.2h2.1a.2.2,0,0,1,.2.2v.6l-.2.2h-2.1c-.2,0-.3-.1-.3-.2Z" style="fill:#edd798"/><path d="M564.9,168.2h-2.2a.7.7,0,0,0-.7.7v.6a.7.7,0,0,0,.7.7h2.2a.8.8,0,0,0,.7-.7v-.6A.8.8,0,0,0,564.9,168.2Zm.2,1.3-.2.2h-2.2l-.2-.2v-.6a.2.2,0,0,1,.2-.2h2.2a.2.2,0,0,1,.2.2Z" style="fill:#edd798"/><path d="M560.8,171.8h-2.1a.8.8,0,0,0-.7.8v.5a.7.7,0,0,0,.7.7h2.1a.7.7,0,0,0,.7-.7v-.5A.8.8,0,0,0,560.8,171.8Zm.2,1.3a.2.2,0,0,1-.2.2h-2.1c-.2,0-.3-.1-.3-.2v-.5a.3.3,0,0,1,.3-.3h2.1c.1,0,.2.1.2.3Z" style="fill:#edd798"/><path d="M564.9,171.8h-2.2a.8.8,0,0,0-.7.8v.5a.7.7,0,0,0,.7.7h2.2a.8.8,0,0,0,.7-.7v-.5A.9.9,0,0,0,564.9,171.8Zm.2,1.3a.2.2,0,0,1-.2.2h-2.2a.2.2,0,0,1-.2-.2v-.5c0-.2.1-.3.2-.3h2.2c.1,0,.2.1.2.3Z" style="fill:#edd798"/><path d="M558.2,170.4a.2.2,0,0,0,0,.3l.3.3h.3a.2.2,0,0,0,0-.3l-.3-.3Z" style="fill:#edd798"/><path d="M560.9,170.4l-.2.3a.2.2,0,0,0,0,.3h.3l.3-.3a.2.2,0,0,0,0-.3Z" style="fill:#edd798"/><path d="M562.7,171.1h.1a.2.2,0,0,0,0-.3l-.2-.3h-.3a.4.4,0,0,0-.1.3l.3.3Z" style="fill:#edd798"/><path d="M565.1,171l.2-.3a.2.2,0,0,0,0-.3H565l-.3.3a.2.2,0,0,0,0,.3h.4Z" style="fill:#edd798"/><path d="M604.3,173.2a2.1,2.1,0,0,1-2.2-2.1v-26a22.6,22.6,0,0,0-22.6-22.6H544a22.7,22.7,0,0,0-22.6,22.6v26a2.1,2.1,0,0,1-2.1,2.1,2.1,2.1,0,0,1-2.2-2.1v-26A27,27,0,0,1,544,118.2h35.5a26.9,26.9,0,0,1,26.9,26.9v26A2.1,2.1,0,0,1,604.3,173.2Z" style="fill:#ad464c"/><path d="M516.1,170.7h0a.9.9,0,0,1-.9-1v-4.9a.9.9,0,0,1,.9-.9h0a.9.9,0,0,1,1,.9v4.9A.9.9,0,0,1,516.1,170.7Z" style="fill:#e05b63"/><path d="M607.4,170.7h0a1,1,0,0,1-1-1v-4.9a1,1,0,0,1,1-.9h0a.9.9,0,0,1,.9.9v4.9A.9.9,0,0,1,607.4,170.7Z" style="fill:#e05b63"/><path d="M492.6,187.8H446.5a10.9,10.9,0,0,0,.1,1.8h46Z" style="fill:#e6d18f"/><path d="M446.6,189.6c.7,13.8,13.8,20.2,13.8,20.2h18.3s13.1-6.4,13.9-20.2Z" style="fill:#e05b63"/><rect x="459.5" y="209.8" width="20.2" height="1.56" rx="0.7" ry="0.7" style="fill:#ad464c"/><path d="M474.9,196.7h-2v-1.1h2a.3.3,0,0,0,.3-.3c0-.2-.1-.4-.3-.4h-2v-1.3a.3.3,0,0,0-.3-.3.4.4,0,0,0-.4.3v1.3h-5.3v-1.3a.3.3,0,0,0-.3-.3.4.4,0,0,0-.4.3v1.3h-1.9a.4.4,0,0,0-.4.4c0,.2.2.3.4.3h1.9v1.1h-1.9a.4.4,0,0,0-.4.4c0,.2.2.3.4.3h10.6a.3.3,0,0,0,.3-.3C475.2,196.9,475.1,196.7,474.9,196.7Zm-8-1.1h5.3v1.1h-5.3Z" style="fill:#e6d18f"/><path d="M474.9,202.2H464.3a.4.4,0,0,0-.4.4.4.4,0,0,0,.4.3h10.6a.3.3,0,0,0,.3-.3C475.2,202.4,475.1,202.2,474.9,202.2Z" style="fill:#e6d18f"/><path d="M465,200.8h3.1a1.1,1.1,0,0,0,1.1-1.1v-.8a1.1,1.1,0,0,0-1.1-1.1H465a1.1,1.1,0,0,0-1.1,1.1v.8A1.1,1.1,0,0,0,465,200.8Zm-.4-1.9a.4.4,0,0,1,.4-.4h3.1a.4.4,0,0,1,.4.4v.8a.4.4,0,0,1-.4.4H465a.4.4,0,0,1-.4-.4Z" style="fill:#e6d18f"/><path d="M474.2,197.8H471a1.1,1.1,0,0,0-1.1,1.1v.8a1.1,1.1,0,0,0,1.1,1.1h3.2a1,1,0,0,0,1-1.1v-.8A1,1,0,0,0,474.2,197.8Zm.3,1.9c0,.2-.1.4-.3.4H471c-.2,0-.3-.2-.3-.4v-.8c0-.2.1-.4.3-.4h3.2c.2,0,.3.2.3.4Z" style="fill:#e6d18f"/><path d="M468.1,203.2H465a1.1,1.1,0,0,0-1.1,1.1v.8a1.1,1.1,0,0,0,1.1,1.1h3.1a1.1,1.1,0,0,0,1.1-1.1v-.8A1.1,1.1,0,0,0,468.1,203.2Zm.4,1.9a.4.4,0,0,1-.4.4H465a.4.4,0,0,1-.4-.4v-.8a.4.4,0,0,1,.4-.4h3.1a.4.4,0,0,1,.4.4Z" style="fill:#e6d18f"/><path d="M474.2,203.2H471a1.1,1.1,0,0,0-1.1,1.1v.8a1.1,1.1,0,0,0,1.1,1.1h3.2a1,1,0,0,0,1-1.1v-.8A1,1,0,0,0,474.2,203.2Zm.3,1.9c0,.2-.1.4-.3.4H471c-.2,0-.3-.2-.3-.4v-.8c0-.2.1-.4.3-.4h3.2c.2,0,.3.2.3.4Z" style="fill:#e6d18f"/><path d="M464.3,201.1c-.2.1-.2.3,0,.5l.3.4h.5a.3.3,0,0,0,.1-.5l-.4-.4C464.6,200.9,464.4,200.9,464.3,201.1Z" style="fill:#e6d18f"/><path d="M468.3,201.1l-.3.4a.3.3,0,0,0,0,.5h.5l.4-.4c.1-.2.1-.4-.1-.5S468.5,200.9,468.3,201.1Z" style="fill:#e6d18f"/><path d="M470.9,202.1h.3a.5.5,0,0,0,0-.5l-.4-.4c-.1-.2-.3-.2-.5,0a.4.4,0,0,0,0,.5l.4.4Z" style="fill:#e6d18f"/><path d="M474.5,202l.4-.4a.4.4,0,0,0,0-.5c-.2-.2-.4-.2-.5,0l-.4.4a.5.5,0,0,0,0,.5h.5Z" style="fill:#e6d18f"/><path d="M492.6,219.4H446.5a12.8,12.8,0,0,0,.1,1.9h46Z" style="fill:#e6d18f"/><path d="M446.6,221.3c.7,13.7,13.8,20.1,13.8,20.1h18.3s13.1-6.4,13.9-20.1Z" style="fill:#e05b63"/><rect x="459.5" y="241.4" width="20.2" height="1.56" rx="0.7" ry="0.7" style="fill:#ad464c"/><path d="M474.9,228.4h-2v-1.2h2a.3.3,0,0,0,.3-.3c0-.2-.1-.4-.3-.4h-2v-1.2c0-.2-.1-.4-.3-.4a.4.4,0,0,0-.4.4v1.2h-5.3v-1.2c0-.2-.1-.4-.3-.4a.4.4,0,0,0-.4.4v1.2h-1.9a.4.4,0,0,0-.4.4c0,.2.2.3.4.3h1.9v1.2h-1.9c-.2,0-.4.1-.4.3a.4.4,0,0,0,.4.4h10.6c.2,0,.3-.2.3-.4A.3.3,0,0,0,474.9,228.4Zm-8-1.2h5.3v1.2h-5.3Z" style="fill:#e6d18f"/><path d="M474.9,233.8H464.3a.4.4,0,0,0-.4.4c0,.2.2.3.4.3h10.6a.3.3,0,0,0,.3-.3C475.2,234,475.1,233.8,474.9,233.8Z" style="fill:#e6d18f"/><path d="M465,232.4h3.1a1.1,1.1,0,0,0,1.1-1.1v-.8a1.1,1.1,0,0,0-1.1-1.1H465a1.1,1.1,0,0,0-1.1,1.1v.8A1.1,1.1,0,0,0,465,232.4Zm-.4-1.9a.4.4,0,0,1,.4-.4h3.1a.4.4,0,0,1,.4.4v.8a.4.4,0,0,1-.4.4H465a.4.4,0,0,1-.4-.4Z" style="fill:#e6d18f"/><path d="M474.2,229.4H471a1.1,1.1,0,0,0-1.1,1.1v.8a1.1,1.1,0,0,0,1.1,1.1h3.2a1,1,0,0,0,1-1.1v-.8A1,1,0,0,0,474.2,229.4Zm.3,1.9c0,.2-.1.4-.3.4H471c-.2,0-.3-.2-.3-.4v-.8c0-.2.1-.4.3-.4h3.2c.2,0,.3.2.3.4Z" style="fill:#e6d18f"/><path d="M468.1,234.8H465a1.1,1.1,0,0,0-1.1,1.1v.8a1.1,1.1,0,0,0,1.1,1.1h3.1a1.1,1.1,0,0,0,1.1-1.1v-.8A1.1,1.1,0,0,0,468.1,234.8Zm.4,1.9a.4.4,0,0,1-.4.4H465a.4.4,0,0,1-.4-.4v-.8c0-.2.2-.3.4-.3h3.1c.2,0,.4.1.4.3Z" style="fill:#e6d18f"/><path d="M474.2,234.8H471a1.1,1.1,0,0,0-1.1,1.1v.8a1.1,1.1,0,0,0,1.1,1.1h3.2a1,1,0,0,0,1-1.1v-.8A1,1,0,0,0,474.2,234.8Zm.3,1.9c0,.2-.1.4-.3.4H471c-.2,0-.3-.2-.3-.4v-.8a.3.3,0,0,1,.3-.3h3.2a.3.3,0,0,1,.3.3Z" style="fill:#e6d18f"/><path d="M464.3,232.7c-.2.1-.2.3,0,.5l.3.4h.5a.3.3,0,0,0,.1-.5l-.4-.4C464.6,232.5,464.4,232.5,464.3,232.7Z" style="fill:#e6d18f"/><path d="M468.3,232.7l-.3.4a.3.3,0,0,0,0,.5h.5l.4-.4c.1-.2.1-.4-.1-.5S468.5,232.5,468.3,232.7Z" style="fill:#e6d18f"/><path d="M470.9,233.7h.3a.5.5,0,0,0,0-.5l-.4-.4c-.1-.2-.3-.2-.5,0a.4.4,0,0,0,0,.5l.4.4Z" style="fill:#e6d18f"/><path d="M474.5,233.6l.4-.4a.4.4,0,0,0,0-.5c-.2-.2-.4-.2-.5,0l-.4.4a.5.5,0,0,0,0,.5h.5Z" style="fill:#e6d18f"/><path d="M216.6,67.4a15.5,15.5,0,0,1,5,4.4,9,9,0,0,1,1.7,5.2c.1,1.8-1.4,4.4-4.4,7.8s-3.6,3.8-5.5,5.6l-3.6,3.2L205.6,96a37.6,37.6,0,0,1-3.9,2.2l-4.1,1.4c-2.4.9-3.7,1-4,.5a2,2,0,0,1-.1-1.7,4.1,4.1,0,0,1,1.3-1.6,42.4,42.4,0,0,0,3.9-4.1L202,89c.3-.4,1.6-2.1,3.7-5.1l4.2-6.1a19.6,19.6,0,0,0,1.5-3.3A19.7,19.7,0,0,0,212,71c.1-1.3.1-2.1.2-2.5a4,4,0,0,1,1.1-1.5C214,66.4,215.1,66.5,216.6,67.4Zm12-3.1a9,9,0,0,1,1.9-2.2,6,6,0,0,1,2.8-.7,8.9,8.9,0,0,1,4.5.9,27.2,27.2,0,0,1,4.5,5,48.6,48.6,0,0,0,8.5,8.6c3.8,3.1,9.2,5.8,16.3,8.1l5.7,1.9,3.1,1c.9.5,1.4,1,1.3,1.4a2.3,2.3,0,0,1-.7.7,12.2,12.2,0,0,1-2.9.6,5.3,5.3,0,0,0-3.1,1.4,22.4,22.4,0,0,0-2.8,4.3,7.4,7.4,0,0,1-6.4,3.6c-3.2.2-6.7-1.3-10.5-4.4a88.5,88.5,0,0,1-8.5-8,56.9,56.9,0,0,1-6.6-9.4,81.6,81.6,0,0,0-5.2-7.9,8.1,8.1,0,0,1-1.7-2.5A7.6,7.6,0,0,1,228.6,64.3Z" style="fill:#fff;stroke:#ff715b;stroke-miterlimit:10;stroke-width:2px"/><path d="M323,83.9a22,22,0,0,0-1.2-3.2,7.3,7.3,0,0,0-1.8-2.2L318.1,77l-.5-.6c-1.1,2.2-2.2,3.3-3.4,3.4a4.5,4.5,0,0,1-3.3-1.7,6.4,6.4,0,0,1-1.8-3.8,10.3,10.3,0,0,1,.3-4.3,8.6,8.6,0,0,1,1.6-3.6,4.6,4.6,0,0,1,2.1-1.5,2,2,0,0,1,2.1.3l1.4,1.2a3.5,3.5,0,0,0,2.4.2l3.3-.8,4.3-1.1,3-.8,1.2-.7,2.1-2.3a2.8,2.8,0,0,1,1.6-.5,3.7,3.7,0,0,1,2.1.9l1.3.8a3.1,3.1,0,0,0,1.3-1.2l1.7-1.8,1.8-2.9h-2.1l-9.9.9a13.7,13.7,0,0,1-.9,2.5,6.4,6.4,0,0,1-1.9,1.6,6.7,6.7,0,0,1-3.1.7c-1.1-.1-2.7-1.2-5.1-3.4h-2.8l-3,.5c-3.7.5-5.8,1-6.3,1.6s-1,2.4-1.5,5.5a21.5,21.5,0,0,1-2.9,8.3c-1.5,2.4-2.8,3.6-3.9,3.5s-2.2-.9-3.2-2.4a10.6,10.6,0,0,1-1.4-5.8,31.9,31.9,0,0,1,1.1-6.9l1.4-5.8c.2-1.1.5-2.2.7-3.5a3.7,3.7,0,0,1,1.2-2.6c.6-.5,1.7-.3,3.2.6l3.2,2.4a3.6,3.6,0,0,0,1.9.4c1.5.1,5.2-.4,11.1-1.3a32.5,32.5,0,0,0-1.8-4.8,18.8,18.8,0,0,1-1.3-3.8,2.6,2.6,0,0,1,1-2.3c.7-.7,1.9-.9,3.6-.8a11.4,11.4,0,0,1,5.3,2.2,8.8,8.8,0,0,1,3.4,3.7l2,4.9c7.9-.2,12.2-.6,13.1-1l2.4-1.7a4,4,0,0,1,3.2.7l2.6,2.4a12.8,12.8,0,0,1,2.9,4.1,11.2,11.2,0,0,1,1.1,3.8,3.7,3.7,0,0,1-1.3,2.8,3.6,3.6,0,0,1-2.8,1.2,4.6,4.6,0,0,1-2-.5l-1.7-1a3.4,3.4,0,0,0-1.8-.4c-1.5-.1-3.2.7-5.1,2.2a5.7,5.7,0,0,1,.8,2.8,2.6,2.6,0,0,1-.9,1.8,34.4,34.4,0,0,1-3.4,3.4,59.3,59.3,0,0,0-6.2,6.6,8.1,8.1,0,0,1,.5,1.4l.4,1.9,5.2-.7,4.1-.4,3.8-.5,2.4-.3a8.9,8.9,0,0,1,5.8,2.5c1.7,1.5,2.6,3.1,2.6,4.7a2.7,2.7,0,0,1-2.5,2.9l-3.3-.3a39.7,39.7,0,0,0-6.9,0l-5.1.2-4.9.2c.1.9.1,2,.2,3.4s0,3.3-.2,5.7a68.8,68.8,0,0,1-.7,7.5,42.3,42.3,0,0,1-1.2,5.6,11.3,11.3,0,0,1-2.5,4.7,22.8,22.8,0,0,1-4.8,4.3c-1.9,1.4-3.6,2-5,1.7a3.7,3.7,0,0,1-2.6-1.9l-.6-3.7a5.5,5.5,0,0,0-2.3-2.8l-4.4-2.5c-.6-.6-.9-1-.8-1.2s.5-.3,1.3-.3l3.5.8,3,.6a4.9,4.9,0,0,0,2.1.3,3.1,3.1,0,0,0,1.6-.7c.7-.5,1.2-1.7,1.6-3.6s.7-3.6.9-5.1.2-3.6.3-6.1V92.3l-4.8.8-7,1.6a68.6,68.6,0,0,0-7.1,2l-2.5,1a4.8,4.8,0,0,1-2.3-.2c-1-.2-2.4-1.3-4.3-3.3s-2.8-3.4-2.5-4.1a1.9,1.9,0,0,1,1.2-1.3,8.3,8.3,0,0,1,2.6-.6l3.4-.6,5.1-.8,8.2-1.4Zm1.6-9.4,2.7.8a17.1,17.1,0,0,0,1.6-3.2l1.6-4.1c-6,1.9-9.1,3.1-9.3,3.5l-2.3,3.2Z" style="fill:#fff;stroke:#ff715b;stroke-miterlimit:10;stroke-width:2px"/><path d="M403.3,75l3.7-.4,7.1-1c7-1,10.8-1.4,11.4-1.3a3.6,3.6,0,0,1,2.2,1.1,8.4,8.4,0,0,1,2.4,4.7,2.7,2.7,0,0,1-2.5,2.9l-3,.2a54,54,0,0,0-5.9.9c-2.7.6-4.6.9-6,1.1a19.7,19.7,0,0,0-4.5,1.3c-1.7.6-2.7.9-3.1.7a4.4,4.4,0,0,1-2-1.3,13,13,0,0,1-1.7-1.9l-1.6-3.4c-1.6,1.2-3.5,2.5-5.6,3.8a42.9,42.9,0,0,1-9,4.1c-3.9,1.4-5.6,1.3-5.3-.2a3.2,3.2,0,0,1,1.5-1.7c.9-.7,2.6-2.1,5.1-4.4s4.3-4,5.6-5.3a89.6,89.6,0,0,0,5.7-7.6c2.5-3.8,4.5-6.9,5.8-9.4a62.4,62.4,0,0,0,3.3-7.6,30.5,30.5,0,0,1,2.2-5.5,3.2,3.2,0,0,1,3.1-1.6,3.9,3.9,0,0,1,2.9,1,11.7,11.7,0,0,1,1.4,2.5,18.2,18.2,0,0,0,1.5,2.7c.6.9,4.5,3.7,11.8,8.3a117.1,117.1,0,0,0,17.9,9.8l5.2,2.3,5,1.8c1.2.7,1.3,1.3.3,2l-1.6.3a5.9,5.9,0,0,0-2.4.9,6.4,6.4,0,0,0-2,2l-1.4,2.4c-1.5,2.1-3.7,2.8-6.6,2a20.4,20.4,0,0,1-6.2-3.1c-2.7-1.8-5.7-4-9.2-6.6s-8.1-6.7-14.1-12.3c-1,2-2.2,4-3.5,6.1S407.3,70.6,403.3,75Zm16.2,39.5a26.7,26.7,0,0,0-4.7.3l-3.1.7a9.3,9.3,0,0,0-2.7.9l-1.2,2c-.5,1.1-1.1,1.6-1.9,1.7s-1.8-.6-3.3-2.3a17,17,0,0,1-2.2-2.8c-.4-.8-.7-2.7-1-5.9a35.6,35.6,0,0,0-1.6-8.6,14.5,14.5,0,0,1-.8-7c.3-2.2,1.3-3.3,3-3.1a9,9,0,0,1,2.7,1.3l2.7,1.3c.9.2,2.5,0,5-.7a40.4,40.4,0,0,1,7.1-1.4,9.1,9.1,0,0,0,4.6-1.2l1.8-1.4,1-.2a5.4,5.4,0,0,1,2.2.4l3.3,1.9a10.8,10.8,0,0,1,3.3,2.8,4.7,4.7,0,0,1,.7,3.4,17.4,17.4,0,0,1-.5,2.6l-.9,4.3a26.6,26.6,0,0,1-1.3,4.3,20.7,20.7,0,0,1-2.1,4.7,8.7,8.7,0,0,1-3.2,3.1l-2.7,1.3a4.9,4.9,0,0,1-2.4.7c-1.1-.2-1.7-.8-1.6-1.7S419.6,114.5,419.5,114.5Zm-3.7-7.3c2.6-.2,4.1-.6,4.7-1.4a8.6,8.6,0,0,0,1-3.3l.2-3.1.2-3.4a43.7,43.7,0,0,0-8.8,1.8l-4.7,1.6a2.2,2.2,0,0,0-1.3.8,6.7,6.7,0,0,0,.1,2.8l.2,2.2.6,3A52,52,0,0,1,415.8,107.2Z" style="fill:#fff;stroke:#ff715b;stroke-miterlimit:10;stroke-width:2px"/><path d="M488.4,66.7a17.2,17.2,0,0,1,3.6-2.8,1.8,1.8,0,0,1,1.6.2,2.2,2.2,0,0,1,.8,1.4l.3,1.2c2.2,0,3.3.7,3.4,2.1s-.9,2.8-2.8,4.1l-1,3.2L492.9,80c-.9,2.8-1.4,4.4-1.5,4.6l-1.3,2.6c3.4,3.7,5.6,6.3,6.7,7.7a8.7,8.7,0,0,1,1.9,3.9,12.3,12.3,0,0,1-.2,4.2c-.4,1.6-.9,2.5-1.5,2.6a2.7,2.7,0,0,1-2.2-.5,14.9,14.9,0,0,1-2.9-3.1l-3.1-3.9-2.6-3.5a62,62,0,0,1-5.5,4.2l-4,2.7a12.1,12.1,0,0,0-2.8,2.1c-.8.8-1.4,1.1-1.7,1a1.7,1.7,0,0,1-.6-.8q-.2-.6.9-1.8a26.5,26.5,0,0,0,2.9-4.1l2.9-4.4,2.5-4.3a3.7,3.7,0,0,0-1.5-.6l-1.3.7c-.8.4-1.4.5-1.8.2s-.5-1-.4-2.2a10.3,10.3,0,0,1,.7-2.7l1.5-3-2,1-2.3,1.6a5.6,5.6,0,0,1-1.9.7,4,4,0,0,1-2.4-.5,7.9,7.9,0,0,1-2.6-2.8c-1-1.5-1.4-2.6-1.3-3.2a2.7,2.7,0,0,1,1.5-1.5,48.8,48.8,0,0,1,4.9-2c2.5-1,5.1-2.1,7.9-3.5,1.8-5.9,2.9-9.5,3.2-11a29.5,29.5,0,0,0,.4-5.8,12.8,12.8,0,0,1,.7-5,4.1,4.1,0,0,1,2-2.1c1-.4,2.1,0,3.4,1.5a8.5,8.5,0,0,1,2.2,4.6,15.5,15.5,0,0,1-.7,5.7C490.3,61.6,489.4,64.1,488.4,66.7Zm-5.9,11.8-1.2,4.1a6.6,6.6,0,0,1,2,.6,9.7,9.7,0,0,0,.9-1.7,17.4,17.4,0,0,0,.7-2.3l.8-2.6Zm42.7-20.9a10.8,10.8,0,0,0,2.6-.5l4.1-1.4a2.7,2.7,0,0,1,2.3.3,4.4,4.4,0,0,1,1.1,2.5c.4,1.3.2,2.3-.5,2.8a5.6,5.6,0,0,1-2.7,1.2,41.9,41.9,0,0,0-5.1,1.4c.8,2.4,1.7,4.5,2.5,6.4a32.1,32.1,0,0,0,3.3,5.9,49.5,49.5,0,0,0,4.5,5.4,22.4,22.4,0,0,0,5.1,4.1,17.9,17.9,0,0,0,3-3.6c.9-1.4,1.5-1.9,1.9-1.7a1.2,1.2,0,0,1,.5,1.3,11,11,0,0,1-1.1,2.9,6.3,6.3,0,0,0-.6,3.5,10.7,10.7,0,0,0,.9,1.6,11.6,11.6,0,0,1,1.3,4.6c.3,2.2-1,3.3-4,3.4a8.7,8.7,0,0,1-3.9-1c-1.5-.6-3.4-2.1-5.8-4.5l-4.1-4c.4,2.6.8,4.6.9,6.1s.4,4.4.5,8.7a84.4,84.4,0,0,1-.2,9.5c-.3,2.6-.8,4.3-1.5,5.2a14,14,0,0,1-3.7,3.2c-1.8,1.2-3,1.8-3.7,1.8a2.3,2.3,0,0,1-2-1.1,6,6,0,0,1-.5-2.6,18.4,18.4,0,0,0-.4-2.9,3.1,3.1,0,0,0-1.2-1.5c-.5-.3-1.8-.2-3.8.3l-3.7,1.1a10.2,10.2,0,0,0-1.7,1.8,5.2,5.2,0,0,1-1.9,1.6c-.3.1-.9-.7-1.7-2.3s-1.2-4.2-1.1-7.7V89.5a3.8,3.8,0,0,1-1.8.6,2.3,2.3,0,0,1-2-1,9.8,9.8,0,0,1-1.8-3,11.3,11.3,0,0,1-.8-3.5,3.2,3.2,0,0,1,.7-2.2l2-1.5c.6-.6.8-2.3.7-4.9l.2-6.4a50.8,50.8,0,0,0-.4-5.9c-.2-2.6-.5-4.8-.8-6.6s-.3-2.9,0-3.3,2.7-.4,5.8.9l1.9-.8a25.9,25.9,0,0,0,2.8-2.2l4-3.4a11.2,11.2,0,0,0,3.1-3.5,12.4,12.4,0,0,1,1.5-2.2,4.8,4.8,0,0,1,2.1-.4,3.8,3.8,0,0,1,3.3,1.8,7.9,7.9,0,0,1,1.6,4.3,7.7,7.7,0,0,1-.3,2.9,15.4,15.4,0,0,1-2.2,2.1l-1.5,1.3Zm-.1,22.6c-.6-.9-2-3.3-4.2-7.3l-1.8,2-3.7,2.9a49.5,49.5,0,0,0-7,6.9c1,1.8,1.9,2.8,2.5,3s1.7-.3,3.4-1.2l3.5-1.3a11.5,11.5,0,0,0,3.1-1.8c1.1-1,1.8-1.4,2.1-1.3l4.6,1.2A37.8,37.8,0,0,1,525.1,80.2ZM509.9,56.7a3.5,3.5,0,0,1,.4,2l-.2,2a23.4,23.4,0,0,0,6.9-1.5,11.4,11.4,0,0,1-.5-2.6l-.3-2.7-.3-2.2-3.3,1.4-1.9.8-1.9,1.5A3.3,3.3,0,0,1,509.9,56.7Zm-.6,16.7c2.8-1.2,6.1-2.8,9.8-4.8l-.8-3.1a18.7,18.7,0,0,1-5.3,1.6l-3,.4C509.7,69.5,509.5,71.5,509.3,73.4Zm1.2,34.7h1.6l4.7-.4c1.5-.1,2.4.1,2.7.4l1.4,1.3c.3-1.1.6-1.9.7-2.4v-6.4a12.1,12.1,0,0,1-2.5,1.6,18.5,18.5,0,0,1-3.2,1.2,26.8,26.8,0,0,1-5.2.9Zm.4-11.5a61.5,61.5,0,0,0,7.3-1l3.3-.8-.2-5.7-5,2.4-5.4,2.9Z" style="fill:#fff;stroke:#ff715b;stroke-miterlimit:10;stroke-width:2px"/><path d="M626.9,73.2a6.9,6.9,0,0,0-2.2-9.6,7.1,7.1,0,0,0-7.2-.2,7.2,7.2,0,0,0-3.3-6.3,7.1,7.1,0,0,0-9.7,2.3l-.3.6h0s-3.1,4.8,2,21a.6.6,0,0,0,.6.4c11.1-1.7,16.1-4.5,18.2-6.2A6.1,6.1,0,0,0,626.9,73.2Z" style="fill:#ff715b"/><path d="M167.7,85.1a4.8,4.8,0,0,0-2.1-6.5,4.7,4.7,0,0,0-5,.3,5.1,5.1,0,0,0-2.7-4.2,4.9,4.9,0,0,0-6.6,2.2c-.1.1-.1.3-.2.4h0s-1.9,3.6,2.7,14.5a.3.3,0,0,0,.4.2c7.6-1.8,10.9-4,12.3-5.3A4.8,4.8,0,0,0,167.7,85.1Z" style="fill:#ff715b"/><path d="M287.5,176.6a4.3,4.3,0,0,0-1.8-5.7,4.6,4.6,0,0,0-4.4.3,4.1,4.1,0,0,0-2.3-3.6,4.2,4.2,0,0,0-5.7,1.8l-.2.4h0s-1.6,3.1,2.4,12.6a.2.2,0,0,0,.3.2c6.6-1.6,9.5-3.5,10.7-4.7A3.2,3.2,0,0,0,287.5,176.6Z" style="fill:#ff715b"/><path d="M652.1,207.2a5.3,5.3,0,0,0-7.4-1,5.1,5.1,0,0,0-2,4.9,5.5,5.5,0,0,0-5.4.6,5.3,5.3,0,0,0-1,7.4l.3.4h0s2.5,3.5,15.2,4.3c0,0,.4.1.4-.3,1.9-8.2,1.4-12.4.8-14.4A8.2,8.2,0,0,0,652.1,207.2Z" style="fill:#ff715b"/><path d="M77,205.3a7,7,0,0,1,10.2-8.9,7.2,7.2,0,0,1,3.8-6.1,7.1,7.1,0,0,1,9.4,3.1,1.1,1.1,0,0,1,.3.7h0s2.7,5-3.8,20.7a.4.4,0,0,1-.6.3c-10.9-2.6-15.6-5.8-17.6-7.6A7.2,7.2,0,0,1,77,205.3Z" style="fill:#ff715b"/></g></g></svg>