<svg xmlns="http://www.w3.org/2000/svg" viewBox="0 0 750 250"><title>xingming_banner</title><g id="图层_2" data-name="图层 2"><g id="图层_1-2" data-name="图层 1"><rect width="750" height="250" style="fill:#2c5074"/><path d="M81.1,12.4s1.6-1.8,4.3-.1a4.5,4.5,0,0,0,1.5.6,5.9,5.9,0,0,0,1.5-.4s2.8-.2,1,1.5a5.2,5.2,0,0,1-5.2,1.3s-1.4-.9-2.9,2.3a8.7,8.7,0,0,1-4.7,2.5,7.3,7.3,0,0,1-6.2,3.6s-1.5,1.6-4-.1a5.6,5.6,0,0,1-3.1-.2s-2.1,6.3-9.6,4.4c0,0-4.6-3.1-2.4-7.4a2.7,2.7,0,0,1,3.3-1.1s1.4.3.6,1.8-1.1,3.1,2.1,1.9c0,0,2.8-3.2-.8-5.3s-6.2-.1-7,1.6l-2.9,3.9-1.9-5.4s1.4-6.4,10.2-5.9c0,0,2.7-3.9,6-.6,0,0,5.8-.5,4.1,4.9,0,0,2,2.6,3.9,3.2s4.8-1.1,2.9-3.5c0,0-2-1.3-2.3.8A1.9,1.9,0,0,1,66.6,15c-.3-3,4.4-6.4,8.8-2.7A3.9,3.9,0,0,1,81.1,12.4Z" style="fill:#e2dccc"/><path d="M49.6,20s.4-9.2-6.3-7.2a3.4,3.4,0,0,0-4.4-.3s-7.2-3.4-10.8,4.7c0,0-.6-3.4-2.1-4.2,0,0,1.2-1.6,1.6-2v-.6H10.1V26.9a18.4,18.4,0,0,0,3.4-1.5A12.1,12.1,0,0,0,17,27.1l.8-.7,1.3,2.1S24.9,39,37.5,37a3.5,3.5,0,0,0,2.8.3s4.1,1.3,4.2-2.7c0,0,3.6-.9,1.9-5.1C46.4,29.5,50.3,23.5,49.6,20ZM22,22.5l1.2.4.4-.9c4.3,1.8,4.8,8,4.8,8C24.4,28.4,22,22.5,22,22.5Zm18.5,2s-1.2,4.7-4.5,5.8l-.7-3s5-2.5,3.2-5.8c0,0-.5-2-3.2-1.5,0,0-.1,2.1-1.5,1.7s-1.8-2.8,1.3-3.3C35.1,18.4,40.9,16.6,40.5,24.5Z" style="fill:#e2dccc"/><path d="M20.8,34.9s-3.4-.2-2.1,2.4,5.4,1.8,6.9-.4,1.6-10.7-8.2-9.1c0,0-7.8,1.5-5.3,11.6,0,0-2.2,2.1-.3,5.5,0,0-.7,2.9.5,4.4S9.9,55,11,57.1c0,0-3.2,3.6,1.8,5.6,0,0-.2,3.2,3.6,2.3,0,0,6.2,2.9,3.5,6.2,0,0-2,2.7-4.1,0,0,0,.3-1.7,1.6-.6s3.2-2.5-.6-4.6c0,0-8.5-.2-3.5,10.3,0,0-2.6,2.3,0,5.3,0,0-2.6,1.2-.1,4.8,0,0-1.4,3.6.6,4.9,0,0,.3-1.6.9-1.8s2.8-1.8,1.7-5.4A4.5,4.5,0,0,1,18,81.7a6.3,6.3,0,0,0,2.8-4.8,5.9,5.9,0,0,1,1.3-1.5c1-.9,1.5-4.3,1.5-4.3s2-2,1.1-3.4,0-2,0-3-1.2-1.8-1.2-1.8,6-2.4,4.3-7.4c0,0-.8-3.3-3.1-4.3,0,0-4.4-2.1-5.4,2.8,0,0-.1,2,1.8,2,0,0,1.7-1.2,1.4,1,0,0-3.1,4.4-5.6-1.3,0,0-1-4.2,2.7-5.7s3.7-1.1,3.7-1.1,3.2.8,3.3-.6,3-.2,3.5-1.6,5.4-.1,4.2-3.9c0,0,.6-2.6,0-3l1-3.1s-5.4.4-6.4-.9-3.4,6.9-8.5,5.2-4.1-5.5-3.5-6.5,2.5-2.3,3.9-1.4S22.2,34.7,20.8,34.9Z" style="fill:#e2dccc"/><path d="M10.3,19.7h-.1v-.2a10.6,10.6,0,0,0,8-4.9,12.1,12.1,0,0,0,1.5-3.9H20c0,.1-.9,7.7-9.6,9Z" style="fill:#e2dccc"/><path d="M13.5,25.5h0c-.1,0-.1-.1,0-.1,1.7-1.1,1.3-3.5.9-5s-.5-1.4-.6-1.4.1-.1.1-.2.1,0,.1.1a7.4,7.4,0,0,1,.6,1.4A4.5,4.5,0,0,0,19.1,23a3,3,0,0,0,1.3-.2h2.7c.1-1.6.4-5.6,0-6.1H23c-.5-.7-1.2-1.7-3.9-2.5,0,0-.1,0,0-.1h.1s5.3.9,7-1.2h.1v.2c-1.3,1.6-4.5,1.6-6.2,1.5a5.5,5.5,0,0,1,3,2.2h.1c.5.7,0,5.8,0,6.4H19.1A4.7,4.7,0,0,1,14.8,21c.3,1.5.4,3.5-1.2,4.4C13.6,25.5,13.6,25.5,13.5,25.5Z" style="fill:#e2dccc"/><path d="M17.8,26.5a.1.1,0,0,1-.1-.1c-.1,0,0-.1,0-.1S19,23.2,19,23.1a.1.1,0,0,1,.1-.1h.1c0,.1.1,2.4-1.4,3.3Z" style="fill:#e2dccc"/><path d="M23.6,18.1h-.1c0-.1,0-.2.1-.2a21.8,21.8,0,0,0,4.4-.8h.2c0,.1,0,.1-.1.1a22.4,22.4,0,0,1-4.5.8Z" style="fill:#e2dccc"/><path d="M77.5,13.7s1.2-.5,1.2.4,0,2.1-2,1.5a2.6,2.6,0,0,1-1.1-3" style="fill:#e2dccc"/><path d="M76.6,20.1s.1-3.4.1-4.5" style="fill:#e2dccc"/><path d="M34.9,27.2a5.4,5.4,0,0,1-3.7-1.3,10.5,10.5,0,0,1-2.8-5.4,16.2,16.2,0,0,1-.4-3.3h.2c0,.1.1,5.9,3.1,8.5A5.8,5.8,0,0,0,35.8,27c0-.1.1,0,.1,0s0,.2-.1.2Z" style="fill:#e2dccc"/><path d="M40.1,17.1h0a2.2,2.2,0,0,1-1.7-1.3c-.6-1.4.4-3.2.4-3.3h.1v.2s-1,1.8-.4,3.1a1.9,1.9,0,0,0,1.5,1.2,2.2,2.2,0,0,0,1.7-1,1.6,1.6,0,0,0,.1-1.5,1.6,1.6,0,0,0-1.1-.5,1.4,1.4,0,0,0-1,.7,1.1,1.1,0,0,0,.3,1h0a.1.1,0,0,1-.2,0c-.4-.6-.4-1-.2-1.2s.7-.7,1.1-.8a1.4,1.4,0,0,1,1.3.6h0A2,2,0,0,1,42,16a2.7,2.7,0,0,1-1.9,1.1Z" style="fill:#e2dccc"/><path d="M12.2,48.1h-.1l2.6-3.5a3.8,3.8,0,0,1-1.1-1.3c-.4-.6-.5-1.1-.3-1.4s.5-.6,1-.8a.1.1,0,0,1,.1.1h0s-.8.7-.6,1.2.3.6.8.7h.1a2,2,0,0,0,1.4-.5c.4-.3.5-.9.5-1.7s-1.7-2.9-4.3-1.7h-.2c0-.1,0-.2.1-.2,2.9-1.3,4.6,1.8,4.6,1.9h0a2,2,0,0,1-.6,1.9,2.2,2.2,0,0,1-1.6.5c-.6-.2-1-.4-1-.8a1.4,1.4,0,0,1,.3-1.1c-.2.1-.3.3-.4.4a1.3,1.3,0,0,0,.3,1.3,5.8,5.8,0,0,0,1.1,1.3v.2l-2.6,3.5Z" style="fill:#e2dccc"/><path d="M17.7,77.8a7.7,7.7,0,0,1-4.4-1.4v-.2h.2a7.4,7.4,0,0,0,6.3,1.1c2.5-1.8,3.7-3.6,3.5-5.3s-3.6-4.6-3.6-4.6v-.2c.1,0,.1-.1.2,0s3.5,1.9,3.7,4.8-1.1,3.7-3.6,5.5h0A8.3,8.3,0,0,1,17.7,77.8Zm2-.4Z" style="fill:#e2dccc"/><path d="M65.2,16.5a9.3,9.3,0,0,1-1.5,6.9" style="fill:#e2dccc"/><path d="M19.6,63.5A9.8,9.8,0,0,1,15,62.4a9.6,9.6,0,0,1-4.1-5.2c0-.1,0-.1.1-.2h.1a9,9,0,0,0,4,5.1c2.2,1.3,5.1,1.5,8.4.6h.1c.1.1,0,.1,0,.2A19,19,0,0,1,19.6,63.5Z" style="fill:#e2dccc"/><path d="M23,47.3a14.7,14.7,0,0,1-8.2-2.7.1.1,0,0,1-.1-.1h.2A14,14,0,0,0,24.8,47c3.6-.6,6.9-2.9,9.6-6.9h.2v.2c-2.8,4.1-6.1,6.4-9.8,7Z" style="fill:#e2dccc"/><path d="M668.9,237.6s-1.6,1.8-4.3.1a4.5,4.5,0,0,0-1.5-.6,5.9,5.9,0,0,0-1.5.4s-2.8.2-1-1.5a5.4,5.4,0,0,1,5.2-1.2s1.4.9,2.9-2.3a8.7,8.7,0,0,1,4.7-2.5,7.3,7.3,0,0,1,6.2-3.4s1.5-1.6,4,.1a5.6,5.6,0,0,1,3.1.2s2.1-6.2,9.6-4.3c0,0,4.6,3,2.4,7.2a2.7,2.7,0,0,1-3.3,1s-1.4-.3-.6-1.7,1.1-3-2.1-1.8c0,0-2.8,3,.8,5.1s6.2.1,7-1.6l2.9-3.7,1.9,5.2s-1.4,6.3-10.2,5.8c0,0-2.7,3.8-6,.6,0,0-5.8.5-4.1-4.8,0,0-2-2.6-3.9-3.2s-4.8,1.1-2.9,3.5c0,0,2,1.3,2.3-.8a1.9,1.9,0,0,1,2.9,1.7c.3,2.9-4.4,6.2-8.8,2.6A3.9,3.9,0,0,1,668.9,237.6Z" style="fill:#e2dccc"/><path d="M736.5,224.9a13,13,0,0,0-3.5-1.6l-.8.7-1.3-2.1a18.3,18.3,0,0,0-18.4-8.4,4,4,0,0,0-2.8-.3s-4.1-1.2-4.2,2.7c0,0-3.6.9-1.9,5,0,0-3.9,5.9-3.2,9.2,0,0-.4,9.1,6.3,7.1a3.4,3.4,0,0,0,4.4.3s7.2,3.4,10.8-4.6c0,0,.6,3.3,2.1,4.1l-1.6,2v.6h17.4V223.5A24.5,24.5,0,0,0,736.5,224.9Zm-21.6,6.8s-5.8,1.8-5.4-5.9c0,0,1.2-4.6,4.5-5.7l.7,3s-5,2.4-3.2,5.6c0,0,.5,1.9,3.2,1.4,0,0,.1-2,1.5-1.6S718,231.2,714.9,231.7Zm11.9-4.3-.4.8c-4.3-1.7-4.8-7.8-4.8-7.8,4,1.6,6.4,7.3,6.4,7.3Z" style="fill:#e2dccc"/><path d="M729.2,215.6s3.4.2,2.1-2.4-5.4-1.8-6.9.4-1.6,10.5,8.2,8.9c0,0,7.8-1.4,5.3-11.4,0,0,2.2-2,.3-5.4,0,0,.7-2.8-.5-4.3,0,0,2.4-5.6,1.3-7.6,0,0,3.2-3.5-1.8-5.5,0,0,.2-3.1-3.6-2.2,0,0-6.2-2.9-3.5-6.1,0,0,2-2.7,4.1,0,0,0-.3,1.7-1.6.6s-3.2,2.4.6,4.5c0,0,8.5.2,3.5-10.1a3.5,3.5,0,0,0,0-5.2s2.6-1.2.1-4.7c0,0,1.4-3.6-.6-4.9,0,0-.3,1.6-.9,1.8s-2.8,1.8-1.7,5.3a4.5,4.5,0,0,1-1.6,2.4,6.1,6.1,0,0,0-2.8,4.7,5.9,5.9,0,0,1-1.3,1.5c-1,.9-1.5,4.2-1.5,4.2s-2,2-1.1,3.3,0,2,0,3,1.2,1.8,1.2,1.8-6,2.3-4.3,7.1c0,0,.8,3.3,3.1,4.3,0,0,4.4,2,5.4-2.8,0,0,.1-2-1.8-2,0,0-1.7,1.2-1.4-.9,0,0,3.1-4.3,5.6,1.2,0,0,1,4.2-2.7,5.6s-3.7,1.1-3.7,1.1-3.2-.8-3.3.6-3,.2-3.5,1.6-5.4.1-4.2,3.8c0,0-.6,2.6,0,3l-1,3s5.4-.4,6.4.9,3.4-6.8,8.5-5.1,4.1,5.4,3.5,6.4-2.5,2.2-3.9,1.3S727.8,215.8,729.2,215.6Z" style="fill:#e2dccc"/><path d="M730.1,239.3s.8-7.5,9.6-8.8" style="fill:#e2dccc"/><path d="M736.5,224.9c-2.8,1.7-.5,6.4-.5,6.4s-.9-4.3-5.1-4.2l-1.4.2h-2.7s-.5,5.5,0,6.2,1.2,1.8,4,2.5c0,0-5.4-.8-7.1,1.3" style="fill:#e2dccc"/><path d="M730.9,227.1s-.1-2.3,1.3-3.1" style="fill:#e2dccc"/><path d="M726.4,232.1a23.7,23.7,0,0,0-4.5.8" style="fill:#e2dccc"/><path d="M672.5,236.3s-1.2.5-1.2-.4a1.4,1.4,0,0,1,2-1.4,2.5,2.5,0,0,1,1.1,2.9" style="fill:#e2dccc"/><path d="M673.4,230s-.1,3.4-.1,4.5" style="fill:#e2dccc"/><path d="M721.9,232.9s-.2-10.5-7.7-9.6" style="fill:#e2dccc"/><path d="M711.1,237.5s2-3.5-1.2-4.4c0,0-2.7.4-1.9,2.6a1.5,1.5,0,0,0,1.2.5c.7-.1,1.6-.6.8-1.7" style="fill:#e2dccc"/><path d="M737.8,202.7l-2.6,3.4a8,8,0,0,1,1.1,1.4c.5.8.7,1.6-.6,2s1.7-1.5-.3-2.1a1.9,1.9,0,0,0-2.1,2.3s1.6,3,4.5,1.7" style="fill:#e2dccc"/><path d="M730.4,183.8s-8.3-4.2-.1-9.9a7.6,7.6,0,0,1,6.4,1.1" style="fill:#e2dccc"/><path d="M684.8,233.6a8.9,8.9,0,0,1,1.5-6.7" style="fill:#e2dccc"/><path d="M739,193.8s-2.2-8.4-12.5-5.6" style="fill:#e2dccc"/><path d="M735.2,206.1s-10.9-8.2-19.7,4.4" style="fill:#e2dccc"/><path d="M557.4,132.8a28.6,28.6,0,0,1,.7-2.8c1.1-2.8,5.4-3.4,7.3-1.1-2.5-3.1,2.3-8.9,4.4-10.5s7-1.5,9.3,1.8a11.4,11.4,0,0,1,3.2-12.1c3.4-2.9,8.8-3.2,12.2-.4s4.6,9.5,3.6,14.7c.3-2,3.2-2.7,4.7-1.5s2,3.5,1.6,5.4c1.2-2,4.4-1.4,6.1.1s3.8,7.1,8.5,6.6c1.8-.1,6.3-1.3,5.8,2.1s-3.9,3.7-5.7,3.7c-.1-1.1.7-2.4-.6-3.2a3.1,3.1,0,0,0-1.9-.1c-4.4.6-8.1,2.9-12.9,2.5s-6.9-1.4-10.3-.9-6.2,2.3-9.4,3c-6.4,1.3-12.9-1.8-19.5-1.9-4.2-.1-10.3,1.3-13.9-1.8a5.5,5.5,0,0,1-1.8-3.1A4,4,0,0,1,550,130C547.5,132.1,554.8,140.7,557.4,132.8Z" style="fill:#e2dccc"/><path d="M271,220.1c-.2-.7-.3-1.4-.5-2a3.3,3.3,0,0,0-5.3-.8c1.8-2.2-1.7-6.5-3.2-7.6s-5-1.1-6.7,1.3a8.4,8.4,0,0,0-2.3-8.8,7.4,7.4,0,0,0-8.9-.3c-3,2.4-3.3,6.9-2.6,10.7-.2-1.4-2.3-2-3.4-1.1s-1.4,2.5-1.1,3.9c-.9-1.4-3.2-1-4.5.1s-2.7,5.2-6.1,4.8c-1.3-.1-4.5-1-4.2,1.5s2.9,2.7,4.1,2.7-.5-1.8.5-2.3a2,2,0,0,1,1.3-.2c3.2.5,5.9,2.2,9.3,1.9s5.1-1,7.6-.7,4.4,1.7,6.8,2.2c4.6,1,9.3-1.3,14-1.4,3.1-.1,7.5,1,10.1-1.3a3.2,3.2,0,0,0,1.3-2.2,2.6,2.6,0,0,0-.9-2.4C278.2,219.6,272.8,225.9,271,220.1Z" style="fill:#e2dccc"/><path d="M160.4,88.1l1.9.4c4.7.6,8.8-2.9,13.4-2.3s8.3,2.4,12.9,2.6c.8-.9,0-2.3-1-2.9a16.9,16.9,0,0,0-3.4-.8c-4-1.2-5.9-6.5-10-7.4-2.6-.5-5.1.8-7.4,2,.9-2.9.6-6.5-1.6-8.6s-6.6-1.6-7.7,1.3c.7-3,.7-8.1-1.8-10.1s-8.2-1.4-9.1,1.3c1.9-6.2-2.4-13.3-8.5-15.2s-13.3.8-17.3,5.9-4.9,12.1-3.4,18.4a5.9,5.9,0,0,0-6.3,2,5.7,5.7,0,0,0-.1,6.6c-1.6-1.3-4-1-5.9-.1s-3.3,2.5-5,3.6-4.1,1.6-5.9.5-1.9-4.3,0-4.9c-3.1.9-4.4,5.1-3,8S96,92.9,99.3,93s6.4-1.1,9.3-2.5a15.8,15.8,0,0,0,15.6.9c4.5-2.3,8.8-7,13.8-5.7,1.9.5,3.6,2,5.7,2.1s4.6-2,7-2.5S157.2,87,160.4,88.1Z" style="fill:#e2dccc"/><path d="M116.3,175.5c6.5,0,12.1,1.6,14.9,4v-.4c0-4.1-5.8-7.4-13.3-7.8V149.2h-2.3v22.1c-7.8.2-14.1,3.6-14.1,7.8v.4C104.3,177.1,109.9,175.5,116.3,175.5Z" style="fill:#e2dccc"/><path d="M116.4,176c-8.2,0-14.8,3.5-14.8,7.8v.4c2.7-2.4,8.3-4,14.8-4s12.1,1.6,14.8,4v-.4C131.3,179.5,124.6,176,116.4,176Z" style="fill:#e2dccc"/><path d="M116.4,181.1c-8.2,0-14.8,3.5-14.8,7.7v.5c2.7-2.4,8.3-4,14.8-4s12.1,1.6,14.8,4c0-.2.1-.3.1-.5C131.3,184.6,124.6,181.1,116.4,181.1Z" style="fill:#e2dccc"/><path d="M116.4,186.2c-8.2,0-14.8,3.4-14.8,7.7v.4c2.7-2.4,8.3-4,14.8-4s12.1,1.6,14.8,4c0-.1.1-.2.1-.4C131.3,189.6,124.6,186.2,116.4,186.2Z" style="fill:#e2dccc"/><path d="M116.4,191.2c-8.2,0-14.8,3.5-14.8,7.8v.4c2.7-2.4,8.3-4,14.8-4s12.1,1.6,14.8,4V199C131.3,194.7,124.6,191.2,116.4,191.2Z" style="fill:#e2dccc"/><path d="M116.4,196.3c-8.2,0-14.8,3.5-14.8,7.7v.5c2.7-2.4,8.3-4.1,14.8-4.1s12.1,1.7,14.8,4.1c0-.2.1-.3.1-.5C131.3,199.8,124.6,196.3,116.4,196.3Z" style="fill:#e2dccc"/><path d="M116.4,201.4c-8.2,0-14.8,3.4-14.8,7.7v.4c2.7-2.4,8.3-4,14.8-4s12.1,1.6,14.8,4v-.4C131.3,204.8,124.6,201.4,116.4,201.4Z" style="fill:#e2dccc"/><path d="M116.3,206.8c-8.2,0-14.8,2.8-14.8,6.3s6.6,6.2,14.8,6.2,14.9-2.8,14.9-6.2S124.5,206.8,116.3,206.8Zm7.2,8.1a18.9,18.9,0,0,1-7.2,1.3,19.3,19.3,0,0,1-7.2-1.3c-1.5-.6-2.2-1.4-2.2-1.8s.7-1.2,2.2-1.8a19.3,19.3,0,0,1,7.2-1.3,18.9,18.9,0,0,1,7.2,1.3c1.6.6,2.3,1.4,2.3,1.8S125.1,214.3,123.5,214.9Z" style="fill:#e2dccc"/><path d="M174.8,145l1.7-1a.5.5,0,0,1-.4-.5,1.4,1.4,0,0,1,.2-.6c.2-.5.5-.9.7-1.4l-1.2.4h-.6a.4.4,0,0,1-.2-.5l-.7.5a1.1,1.1,0,0,1-.8.2.5.5,0,0,1-.5-.6c-.5.6-1.8,1.9-2.6,1.4s-.3-.7-.1-1.1a13.4,13.4,0,0,1,1.3-2.7,1.3,1.3,0,0,1-1.2.1,1,1,0,0,1-.4-1,2.1,2.1,0,0,1,.4-1c-.2.2-.5.1-.7,0a1.6,1.6,0,0,1-.4-.7,2.2,2.2,0,0,1-.1-1.4,4,4,0,0,0-1,1.5.5.5,0,0,1-.2.4c-.1.1-.4,0-.5-.2s-.1-.3-.2-.5-.1,1.1-.1,1.7a4.3,4.3,0,0,1-.1.5.4.4,0,0,1-.5.2l-.3-.2a3.7,3.7,0,0,1-.5-1.1,6.5,6.5,0,0,0-.2,2.4c0,.4.1,1.7-.6,1.5s-.4-.3-.4-.6l-.6-2.2c-.1.2-.1.4-.2.5s-.3.2-.4.1-.2-.2-.3-.4l-.3-1.5a.8.8,0,0,1-1.2.3,3.2,3.2,0,0,1-1-1,6.2,6.2,0,0,1-.1,1.3,1.7,1.7,0,0,1-.1.7.7.7,0,0,1-.7.2,3.4,3.4,0,0,1,.6,1.2,1.6,1.6,0,0,1-.2,1.2.8.8,0,0,1-1.1.3l1.5,1.5h-.2l.6.6a.4.4,0,0,1-.1.7c-.1.1-.2,0-.4-.1a3.8,3.8,0,0,1-.9-.9.5.5,0,0,1-.2.7,1.1,1.1,0,0,1-.8-.1h-.2l-.6-.2a4,4,0,0,1,1.3,1.8h-.3l.4.2.8.4.5.3a.7.7,0,0,1-.4.8,21,21,0,0,1,2.4.6,1,1,0,0,1,.5.4c.1.2,0,.4-.2.6l-.5.2.6.5h1.3c0,.1-.1.2-.2.3l-1,1.1a24.8,24.8,0,0,0-6.8-2.7,21.4,21.4,0,0,0-6.2-.6,51.2,51.2,0,0,0,3.4-4.4c3.1-4.1,6.8-7.1,10.4-10.5.2-.2.1-.7-.2-.5a23.6,23.6,0,0,0-6,4.5v-.5c-.1-2,0-4-.1-5.9v-.4a5.8,5.8,0,0,0,3.3,1l3.1-.2h.2l-1.5-.6-1.5-1.1a9.1,9.1,0,0,1,3.1-1.2c-.1-.1-.3-.1-.4-.3s-.2-.3-.1-.5h.1l1.3-.9-.8-.2a8.4,8.4,0,0,1,1.3-2.9l-1,.5c-.5.2-1.3.2-1.5-.4a5,5,0,0,1-1.5,1.4c-.2.1-.4.2-.6,0s1.6-2.7,2.3-4.1h-1.5v-.3l.6-2a.4.4,0,0,1-.6,0c-.2-.2-.2-.4-.3-.7l-.3-1.5-.6,1.1a1,1,0,0,1-.4.5c-.2,0-.5-.1-.5-.3a2.9,2.9,0,0,0-.2.9,1.4,1.4,0,0,1-.5.8c-.2.1-.6.1-.7-.2s-.1,2.7-.9,2.9-.7-.3-.9-.7-.6-2-.8-3a1.2,1.2,0,0,1-.8.9c-.3.1-.7-.2-.9-.5a1.9,1.9,0,0,1-.3-1,.7.7,0,0,1-.6.4.7.7,0,0,1-.7-.2,3.2,3.2,0,0,1-1-1,6.3,6.3,0,0,0,.3,1.9c.1.1.2.2.1.4s-.2.3-.4.2a.5.5,0,0,1-.5-.3,7.1,7.1,0,0,0,1,1.4c.1.2.2.3.2.5a.4.4,0,0,1-.2.5h-.3a1.8,1.8,0,0,1-1-.4,8.6,8.6,0,0,0,1.3,2c.3.2,1.1,1.2.5,1.6s-.4-.1-.6-.2l-1.9-1.3c.1.2.2.3.2.5s-.1.4-.2.4h-.5l-1.2-1a.8.8,0,0,1-.6,1.1c-.4.2-.9,0-1.4-.1l.8,1a4.3,4.3,0,0,0,.4.7c0,.3-.2.6-.4.6a3.9,3.9,0,0,1,1.1.6,1.2,1.2,0,0,1,.7,1,.8.8,0,0,1-.5,1h2a.4.4,0,0,1-.1.3h.8c.3,0,.5.3.4.5s-.2.2-.3.2a2.9,2.9,0,0,1-1.3,0,.5.5,0,0,1,.3.7c-.1.3-.4.4-.6.5l-.7.4a3.4,3.4,0,0,1,2,.4.4.4,0,0,1-.1.3l1.3-.4h.5a.6.6,0,0,1,.3.8,8.2,8.2,0,0,1,2-1.2.9.9,0,0,1,.7-.1,1.1,1.1,0,0,1,.2.6,1.4,1.4,0,0,1-.2.6c0-.1.6-.1.7-.1a1.8,1.8,0,0,0,.7-.5c.2-.1.3-.2.3-.4v.4c0,1.6-.1,3.2-.1,4.9v.6l-1.9,1.9c-2.8,2.8-5,7-8.5,9-3.3.4-6.7.4-10.1.5h-1.9a1.3,1.3,0,0,0-.1-.6c0-2,.1-4,0-5.9v-.4a6.7,6.7,0,0,0,3.3,1l3.1-.2h.2l-1.6-.7-1.4-1.1a8.2,8.2,0,0,1,3.1-1.1l-.4-.3c-.2-.1-.2-.3-.2-.5l.2-.2,1.3-.8-.9-.2a9.7,9.7,0,0,1,1.4-2.9l-1,.5c-.5.2-1.3.1-1.5-.4a4.7,4.7,0,0,1-1.5,1.3.5.5,0,0,1-.6.1c.8-1.4,1.6-2.7,2.3-4.1h-1.5c-.1-.1,0-.2,0-.3l.6-2a.4.4,0,0,1-.6-.1c-.2-.1-.2-.4-.3-.6l-.3-1.6-.6,1.2c-.1.2-.2.4-.4.4s-.5,0-.5-.2-.2.6-.3.8a.9.9,0,0,1-.4.8.4.4,0,0,1-.7-.1c0,.8-.1,2.6-.9,2.9s-.7-.4-.9-.8a21.7,21.7,0,0,1-.8-3c-.2.4-.4.9-.8,1a1.2,1.2,0,0,1-.9-.5,4.2,4.2,0,0,1-.4-1,.5.5,0,0,1-.5.4l-.7-.2a4.7,4.7,0,0,1-1-1,5.2,5.2,0,0,0,.3,1.8.8.8,0,0,1,.1.4c0,.2-.2.3-.4.3a.9.9,0,0,1-.5-.3l.9,1.4c.2.2.3.3.3.5s0,.4-.2.5h-.4a2.4,2.4,0,0,1-1-.5,7.2,7.2,0,0,0,1.4,2c.3.3,1.1,1.3.5,1.6s-.4,0-.6-.1l-1.9-1.3a.8.8,0,0,1,.2.5l-.2.4-.5-.2-1.2-.9c.2.4-.2.9-.6,1.1a3.2,3.2,0,0,1-1.4-.1l.8,1a1.5,1.5,0,0,1,.3.7c.1.3-.1.6-.3.6l1.1.5a1.5,1.5,0,0,1,.7,1.1.9.9,0,0,1-.6,1h2.1c0,.2,0,.3-.1.3h.8c.3.1.5.4.4.6l-.3.2h-1.3c.3,0,.4.4.3.7a1.5,1.5,0,0,1-.6.5l-.8.3a4.6,4.6,0,0,1,2.1.5.4.4,0,0,1-.1.3l1.3-.4h.5a.5.5,0,0,1,.2.8l2.1-1.1a.7.7,0,0,1,.6-.1.5.5,0,0,1,.3.5,1.1,1.1,0,0,1-.2.6h.7l.7-.4.3-.4v.4c.1,1.6,0,3.2,0,4.8v.5a143.9,143.9,0,0,1-18.6-.6c-6.4-.8-11.9-3.5-17.9-5.7l1.4-1,.6.5h.2a3.5,3.5,0,0,0-.5-.8l2-1.5.4.2c0-.1-.1-.2-.2-.3l.9-.6,1.1.2-.4-.5,2.7-1.5h0l5.2-2.6c3.6-1.9,7.5-4.3,9-8.5,0-.1-.1-.2-.2-.1-3.9,5.4-10.1,7.6-15.8,10.4a1.1,1.1,0,0,1-.3-.8h-2c-.2,0-.5-.1-.5-.3l4.3-1.6-1-.8c-.1,0-.1-.1-.1-.2v-.2l1.7-1.1a.4.4,0,0,1-.4-.4.8.8,0,0,1,.1-.7,9.1,9.1,0,0,0,.7-1.4l-1.2.5H105c-.1-.1-.3-.3-.2-.5a1.8,1.8,0,0,0-.7.5,1.1,1.1,0,0,1-.8.3.5.5,0,0,1-.5-.6c-.4.6-1.7,1.9-2.5,1.6a.8.8,0,0,1-.2-1.1,9.2,9.2,0,0,1,.9-2.3c4.1-.8,7.2-3.4,9.8-6.6l.4.2h.2l-.5-.4a27.1,27.1,0,0,0,2.4-3.5h.6l-.4-.2a15.1,15.1,0,0,0,1.2-2l.7-.5H115c.4-.7-.8-1.5-1.2-.8a4.3,4.3,0,0,0-.4.7,1,1,0,0,1-.4-.7,4.9,4.9,0,0,1-1.9.7c-.2.1-.5.1-.6-.1l3.5-3-1.2-.4a.2.2,0,0,1-.2-.2.4.4,0,0,1,.1-.3l1.2-1.6a.5.5,0,0,1-.6-.2.8.8,0,0,1,0-.7c0-.6.1-1.1.1-1.6l-.9.9-.5.2c-.2,0-.5-.2-.4-.4l-.5.7a1.3,1.3,0,0,1-.7.6.5.5,0,0,1-.7-.3c-.1.7-.8,2.4-1.7,2.3s-.6-.6-.6-1a16.7,16.7,0,0,1,.2-3.1c-.3.4-.7.7-1.1.6s-.6-.4-.7-.7a4,4,0,0,1,0-1.1.6.6,0,0,1-.7.2c-.2,0-.4-.2-.6-.4a3.8,3.8,0,0,1-.6-1.3,5.2,5.2,0,0,0-.3,1.8v.3c-.2-.5-.9-.8-1.2-.3a35.1,35.1,0,0,1-2.7,4l-.8-1.3c.1.5-.5.9-.9.9a5.9,5.9,0,0,1-1.4-.6l.5,1.2a1.1,1.1,0,0,1,.1.8c0,.2-.3.5-.5.4a3.8,3.8,0,0,1,.9.9c0,.1.1.1.1.2a62.5,62.5,0,0,1-16.9,13.4,18.8,18.8,0,0,1,1.6-2.3c1.5-2,3.4-3.7,4.9-5.8,2.8-3.9,1.8-8.4,2.2-13a.5.5,0,1,0-1-.2c-.6,2.5-.3,5-.7,7.6s-2.5,5.2-4.9,7.4a24.6,24.6,0,0,0-6.3,8.6c-3.8,1.9-7.8,3.7-11.8,5.3a23.4,23.4,0,0,0,.5-3,17.6,17.6,0,0,0,2.4-3,35.9,35.9,0,0,1,3.9-3.9c.7-.6-.1-1.9-.8-1.3a30.4,30.4,0,0,0-4.1,3.9l-.8,1a21.9,21.9,0,0,1,1.4-5c.8-2,2.2-3.5,2.9-5.4.2-.3-.2-.6-.4-.4a6.2,6.2,0,0,0-2,1.6,1.4,1.4,0,0,1-.2-.6,14.6,14.6,0,0,0-.5-2,.4.4,0,0,0-.8,0,5.4,5.4,0,0,0-.1,2.2,3.8,3.8,0,0,0,.5,1.9,26.6,26.6,0,0,0-2.6,5.8c-.9,3.1-1.5,6.3-2.3,9.5l-1.4.5a26.5,26.5,0,0,1-11.8,2.3c-3.9-.1-7.7-.8-11.5-1.1a34.4,34.4,0,0,0-9.6.3c-3,.7-5.5,2.2-8.6,2.4A22.4,22.4,0,0,1,9,136.3a52.8,52.8,0,0,1-9-5v9.6l1.5.7c5.9,2.3,11.6,2,17.7,1.5a30.9,30.9,0,0,1,9.1.3c3.7.9,5.8,3,8.3,5.8,4,4.4,8.4,5.4,13.8,4.1a41.3,41.3,0,0,0,5-1.5c1.4-.1,2.7-.3,4.1-.3a26.1,26.1,0,0,1,9.4,2.1c5.8,2.6,10.3,7.4,13.9,12.8l2.3,3.7h0c-1,1.7-2,3.3-2.9,5l-.2.3a6.7,6.7,0,0,0-2.4-2.6c-.9-.5-1.9-.9-2.8-1.5h-.2a13.4,13.4,0,0,1,1.1,1.4c.1.1.6,1.7.7,1.7a9.3,9.3,0,0,1-3.3-.7l.3.5c0,.1,0,.4-.2.4H73.5a1.7,1.7,0,0,1,.6.6,9,9,0,0,1-2.6,1.7,2.1,2.1,0,0,1,1.1.1c.6.1,1.2.5,1.1,1.1l2-.3c.2,0,.5.1.5.3l-4,2.2a3.4,3.4,0,0,1,1.2.6v.2c.1.1,0,.2-.1.3l-1.5,1.3c.2-.1.5.1.5.4s0,.4,0,.6a8.8,8.8,0,0,0-.5,1.5l1.1-.6.5-.2a.7.7,0,0,1,.4.5l.6-.6a1,1,0,0,1,.7-.4.6.6,0,0,1,.6.5c.3-.7,1.4-2.2,2.3-2s.4.7.3,1.1a16.3,16.3,0,0,1-.7,3,1.2,1.2,0,0,1,1.1-.4,1,1,0,0,1,.6.9,4.3,4.3,0,0,1-.2,1.1c.1-.2.4-.2.7-.1l.5.5a2.4,2.4,0,0,1,.3,1.4,2.8,2.8,0,0,0,.7-1.7c0-.2,0-.3.1-.4H82a.9.9,0,0,1,.3.5c0-.5-.1-1.1-.1-1.7a.4.4,0,0,1,0-.5c0-.2.2-.3.4-.3l.3.2a2.2,2.2,0,0,1,.7.9,9.9,9.9,0,0,0-.3-2.4c-.1-.4-.3-1.6.4-1.6s.4.2.5.5.6,1.3,1,2V185l.4-.2c.2,0,.3.2.4.3a8.8,8.8,0,0,1,.5,1.5,1,1,0,0,1,1.2-.6,2.8,2.8,0,0,1,1.1.8,5,5,0,0,0-.2-1.2,1.9,1.9,0,0,1,.1-.8.4.4,0,0,1,.6-.3,4.4,4.4,0,0,1-.8-1.1,2,2,0,0,1-.1-1.3.9.9,0,0,1,1-.5l-1.7-1.1.2-.2-.7-.4a.6.6,0,0,1-.1-.8h.4a1.9,1.9,0,0,1,1.1.7.6.6,0,0,1,.1-.8H90c.7,1.4,1.5,2.7,2.2,4l.8,1.4a45,45,0,0,0-2,5.1l-.2.3a6.4,6.4,0,0,0-2.7-2.2l-2.9-1.1h-.3l1.2,1.2c.2.2.9,1.6,1,1.6a7.8,7.8,0,0,1-3.4-.2c.2.1.3.3.4.4a.7.7,0,0,1-.1.5h-.3l-1.4.3.7.5a12.1,12.1,0,0,1-2.4,2.1h1.1c.6.1,1.3.4,1.3,1a7,7,0,0,1,1.9-.6c.2,0,.5,0,.5.2l-3.6,2.8,1.2.4.2.2v.3l-1.3,1.5a.4.4,0,0,1,.5.3,1.7,1.7,0,0,1,.1.7l-.3,1.6,1-.9.5-.2a.5.5,0,0,1,.4.5l.5-.7a1.3,1.3,0,0,1,.7-.6.7.7,0,0,1,.7.4c.2-.7,1-2.3,1.9-2.2s.5.6.5,1a16.3,16.3,0,0,1-.3,3.1c.3-.3.6-.6,1-.5s.6.4.7.8a3.4,3.4,0,0,1,0,1c.1-.2.4-.2.6-.2a1,1,0,0,1,.6.5,2.4,2.4,0,0,1,.5,1.4,4.1,4.1,0,0,0,.5-1.9v-.4h.5a1,1,0,0,1,.4.5c-.1-.6-.3-1.1-.4-1.7s-.1-.4,0-.6a.3.3,0,0,1,.3-.3h.4a2.7,2.7,0,0,1,.7.8,5.9,5.9,0,0,0-.5-2.3c-.2-.4-.6-1.6.1-1.7s.4.2.6.4l1.2,2V199c.1-.1.2-.3.4-.2a.3.3,0,0,1,.3.3l.8,1.3a.8.8,0,0,1,1-.7,2.2,2.2,0,0,1,1.3.6,5.6,5.6,0,0,0-.4-1.2,2.2,2.2,0,0,1,0-.8c0-.2.3-.5.5-.4l-.9-.9a2,2,0,0,1-.2-1.3,1,1,0,0,1,.9-.7l-1.9-.8.2-.2-.7-.4a.4.4,0,0,1-.2-.7h.4l1.1.5c-.2-.1-.2-.5,0-.7a1.1,1.1,0,0,1,.8-.2h.2a36.7,36.7,0,0,0,5.2,4.4.1.1,0,1,0,.1-.2c-4.1-3.8-7.3-8.9-10.1-13.9-.1-.2-.1-.4-.2-.5l-1.4-2.5c-1.9-3.6-3.7-7.3-5.7-10.9l.7-.4,2.2-1.5.3-.2a6.5,6.5,0,0,0,1.1,3.4l1.9,2.7v.2c-.1-.6-.3-1.2-.4-1.7a13.4,13.4,0,0,0,.1-1.9,9.7,9.7,0,0,1,2.7,2.2v-.6a.3.3,0,0,1,.3-.3H96l1.4.6a2,2,0,0,1-.4-.8,8.7,8.7,0,0,1,3.2-.3,3.3,3.3,0,0,1-1-.6,1.2,1.2,0,0,1-.5-1.5,4.8,4.8,0,0,1-2-.7c-.2-.1-.4-.3-.3-.4h4.5l-.7-1.1v-.2c0-.1.2-.2.3-.2l1.9-.5a.4.4,0,0,1-.3-.5c0-.3.2-.4.3-.6l1.1-1.1h-1.3c-.2,0-.4,0-.5-.2s-.3-.4-.1-.5l-.9.2a.8.8,0,0,1-.8,0,.6.6,0,0,1-.4-.7c-.5.4-2.1,1.3-2.8.7s-.1-.8.1-1.2a20.9,20.9,0,0,1,2-2.2,1.3,1.3,0,0,1-1.2-.2.9.9,0,0,1-.1-1.1,2.4,2.4,0,0,1,.6-.8.7.7,0,0,1-.7-.2,2.4,2.4,0,0,1-.2-.8,3.2,3.2,0,0,1,.3-1.4,3.3,3.3,0,0,0-1.4,1.2c-.1.2-.1.3-.3.3s-.3-.1-.4-.2a1.3,1.3,0,0,1-.1-.6,8.8,8.8,0,0,1-.5,1.5l-.3.5a.4.4,0,0,1-.5.1l-.2-.3a2.3,2.3,0,0,1-.2-1.1,5.3,5.3,0,0,0-.8,2.2c-.1.4-.4,1.6-1,1.2a.7.7,0,0,1-.3-.6v-2.3c-.1.1-.1.3-.3.4h-.4c-.2-.1-.2-.3-.2-.5a7.6,7.6,0,0,1,.1-1.5c-.2.4-.9.3-1.2,0a2.9,2.9,0,0,1-.8-1.3l-.3,1.2a1.6,1.6,0,0,1-.4.7.5.5,0,0,1-.7,0,5,5,0,0,1,.3,1.3,2.2,2.2,0,0,1-.5,1.1.9.9,0,0,1-1.2,0l1.2,1.8h-.3a4.3,4.3,0,0,1,.4.7c.2.2.1.7-.2.7l-.3-.2a2.6,2.6,0,0,1-.7-1.1c0,.2-.2.5-.4.5a1.1,1.1,0,0,1-.8-.2V160l-.6-.3a4.9,4.9,0,0,1,.8,2.1h-.3l.4.3.7.6a.9.9,0,0,1,.3.5.5.5,0,0,1-.5.6l2.1,1.2a.7.7,0,0,1,.4.5c.1.2-.1.4-.3.5H87l.5.6.8.4h.5l-.3.2-1.3.8-.6.4c-1.2-2.2-2.5-4.3-3.9-6.4a32.5,32.5,0,0,0-14.4-11.9,21.4,21.4,0,0,0-4.7-1.5c7.6-3,15.1-6.1,23.5-5.9l3.2.3h0c5.5.9,10.6,3.6,15.9,5.4s12.4,2.4,18.6,2.4l9.1-.2h.1c-.4,1.3-.8,2.6-1.1,3.9l-.2.4a6.1,6.1,0,0,0-2.8-2l-3.1-.8h-.2a6.9,6.9,0,0,1,1.3,1.1,11.2,11.2,0,0,1,1.1,1.5,9.2,9.2,0,0,1-3.3.1c.1.1.3.2.3.4a.5.5,0,0,1,0,.5h-.2l-1.5.4.8.5a15.1,15.1,0,0,1-2.1,2.3l1.1-.2a1.3,1.3,0,0,1,1.3.9,6.6,6.6,0,0,1,1.9-.9c.2,0,.4,0,.5.2l-3.4,3.1,1.3.4h.2a.4.4,0,0,1-.1.3l-1.1,1.7c.2-.1.4,0,.6.2s0,.5,0,.7a8.6,8.6,0,0,1-.1,1.6l.9-.9c.2-.2.3-.3.5-.3s.5.2.4.4a2.2,2.2,0,0,0,.5-.8c.2-.2.3-.5.6-.6s.7.1.7.4.8-2.5,1.7-2.5.6.6.6,1a16.1,16.1,0,0,1,0,3.1c.2-.3.6-.7,1-.6s.6.3.7.7a3.7,3.7,0,0,1,.1,1.1.7.7,0,0,1,.6-.3l.7.4a3.1,3.1,0,0,1,.6,1.3,5.8,5.8,0,0,0,.3-1.9c-.1-.1-.1-.2,0-.4a.4.4,0,0,1,.5-.1,1,1,0,0,1,.4.5l-.6-1.7a4.3,4.3,0,0,1-.1-.5c0-.2.1-.4.3-.4h.4a2,2,0,0,1,.8.8,6.7,6.7,0,0,0-.7-2.4c-.2-.3-.8-1.5-.1-1.6a.5.5,0,0,1,.6.3l1.4,1.8v-.5c.1-.2.2-.3.4-.3l.3.2a5.5,5.5,0,0,1,.9,1.4,1,1,0,0,1,1-.9,2.4,2.4,0,0,1,1.3.5l-.5-1.2a1.1,1.1,0,0,1-.1-.8.4.4,0,0,1,.5-.4,4.3,4.3,0,0,1-1-.9,1.7,1.7,0,0,1-.4-1.2,1.1,1.1,0,0,1,.9-.8l-2-.7.2-.2-.8-.2c-.2-.1-.4-.5-.2-.7h.4a2.8,2.8,0,0,1,1.2.4.4.4,0,0,1-.1-.7,1.1,1.1,0,0,1,.7-.3h.8a4.9,4.9,0,0,1-1.8-1.1l.2-.3h-1.4c-.2,0-.4,0-.5-.2a.5.5,0,0,1,0-.8l-2.4.5H135a1.3,1.3,0,0,1-.1-.6l.4-.5-.7-.2a1.1,1.1,0,0,0-.8.3l-.4.2a.4.4,0,0,1,.1-.3,24.5,24.5,0,0,1,.8-2.9c4.8-.2,9.5-.4,14.2-.2h.5c2,2.4,4.6,4.4,5.8,7.4.6,1.2.9,2.5,1.4,3.6a1.4,1.4,0,0,1-.2.6c-.4,1.3-.8,2.6-1.1,3.9v.4a5.1,5.1,0,0,0-2.9-1.9c-1-.4-2-.5-3-.8h-.2l1.3,1.1c.1.1,1,1.5,1.1,1.5a9.7,9.7,0,0,1-3.4.1.8.8,0,0,1,.4.4.4.4,0,0,1,0,.5h-.3l-1.4.5a1,1,0,0,1,.7.4,7.7,7.7,0,0,1-2.1,2.3l1.1-.2c.6,0,1.3.3,1.3.9a4.6,4.6,0,0,1,1.9-.8c.2-.1.5-.1.5.1l-3.3,3.2,1.2.3h.2c.1.1,0,.2-.1.3a9.9,9.9,0,0,1-1.1,1.7.5.5,0,0,1,.6.2,1.7,1.7,0,0,1,.1.7,9.2,9.2,0,0,0-.1,1.6l.9-.9a.9.9,0,0,1,.5-.3.4.4,0,0,1,.4.4l.5-.7a.9.9,0,0,1,.6-.6.5.5,0,0,1,.7.3c.1-.7.8-2.5,1.7-2.4s.5.5.6.9,0,2.1-.1,3.1.6-.7,1-.6a1,1,0,0,1,.8.7,2.1,2.1,0,0,1,0,1.1.8.8,0,0,1,.7-.3l.6.5a2.7,2.7,0,0,1,.6,1.2,2.8,2.8,0,0,0,.3-1.8v-.4a.3.3,0,0,1,.5-.1l.4.4c-.2-.5-.3-1.1-.5-1.6a1.3,1.3,0,0,1-.1-.6c0-.2.1-.4.3-.4h.3a2.4,2.4,0,0,1,.9.8,6.3,6.3,0,0,0-.8-2.3c-.2-.4-.7-1.5,0-1.7s.4.2.6.4l1.4,1.7c0-.1-.1-.3,0-.5l.2-.3v0c.2,0,.3.2.4.3l.9,1.3v-.3a8.3,8.3,0,0,1,.4,1.5,5.3,5.3,0,0,1,.3-1.2,1.4,1.4,0,0,1,.7-.8l.8.4-.3-.8v-1.6h.1c0-.2.1-.4.3-.4.5,1.5.9,3,1.4,4.6a3.9,3.9,0,0,1,.8-1l.2-.2.2.2,1.1,1.9a.4.4,0,0,1,.4-.5.9.9,0,0,1,.6.3l1.3.8c-.1-.4-.3-.8-.4-1.3a.6.6,0,0,1,0-.6.3.3,0,0,1,.4-.2c-.1-.3-.3-.5-.4-.8a1.1,1.1,0,0,1-.3-.8.6.6,0,0,1,.6-.6c-.6-.4-1.9-1.8-1.5-2.7s.7-.3,1.1-.1l2.6,1.4a1.3,1.3,0,0,1-.1-1.2,1,1,0,0,1,.9-.4l1,.5a.6.6,0,0,1,0-.8.9.9,0,0,1,.6-.4h1.3a3.3,3.3,0,0,0-1.5-1.1l-.3-.2c-.1-.2-.1-.4.1-.5s.3-.2.5-.2l-1.6-.2-.5-.2a.5.5,0,0,1-.3-.4l.3-.4,1-.4a4.7,4.7,0,0,0-2.3-.3c-.4,0-1.6,0-1.5-.7s.3-.4.5-.5l2.1-.5-.4-.2c-.2-.1-.2-.3-.2-.5l.4-.2,1.5-.3c-.5-.1-.6-.8-.4-1.2s.6-.8.9-1.1h-1.2a1,1,0,0,1-.7-.2.5.5,0,0,1-.2-.6l-1.1.5a1.6,1.6,0,0,1-1.2-.2,1,1,0,0,1-.4-1.2l-1.3,1.6c-.1-.1-.2-.2-.1-.3s-.4.4-.6.6-.6.2-.6-.1,0-.2,0-.4a2.6,2.6,0,0,1,.9-.9c-.2.2-.6,0-.7-.3a1.1,1.1,0,0,1,0-.8,2.4,2.4,0,0,0,.2-.8,5.1,5.1,0,0,1-1.6,1.3l-.2-.3a6.1,6.1,0,0,1-.5,1.2.5.5,0,0,1-.3.5.5.5,0,0,1-.7-.4c-.2.8-.3,1.7-.5,2.5a1,1,0,0,1-.4.5c-.1.1-.4,0-.5-.2s-.2-.4-.3-.6l-.4.7a1.9,1.9,0,0,0-.1.8.7.7,0,0,0,.1.5l-.3-.2-3.5-3.4-.5-.5c-.1-.4-.3-.7-.4-1.1h0a20.1,20.1,0,0,0-2.2-4.4c-1.2-1.6-2.3-3.4-3.6-5,3.3.1,6.5.3,9.7,1.7l.6.3h.3a74.4,74.4,0,0,1,8.5,5.2c.5.3,1-.5.5-.9a43.9,43.9,0,0,0-7.7-5.7l1.8-2c.1-.1.1-.2.3-.3a5.8,5.8,0,0,0,1.8,3l2.4,2.1h.2l-.7-1.5c-.1-.2-.4-1.8-.4-1.8a9.3,9.3,0,0,1,3.1,1.3.8.8,0,0,1-.2-.5.5.5,0,0,1,.3-.4h.2l1.5.3-.5-.7a8.1,8.1,0,0,1,2.9-1.2,4.5,4.5,0,0,1-1.1-.3,1.4,1.4,0,0,1-.9-1.4,4.6,4.6,0,0,1-2-.1c-.2,0-.4-.1-.4-.3l4.3-1.3a8.1,8.1,0,0,1-1-.9.3.3,0,0,1-.1-.2A.2.2,0,0,1,174.8,145ZM97.4,190.9h-.9c-.2,0-.4,0-.5-.2a.5.5,0,0,1,.1-.8l-2.4.2h-.6a.5.5,0,0,1,0-.6,1,1,0,0,1,.4-.5l-.7-.2h-.9l-.4.2v-.3c.5-1.3,1.1-2.5,1.6-3.8A65.8,65.8,0,0,0,97.4,190.9Zm-7.5-12a4.9,4.9,0,0,1-1.2-1.3l.2-.2-1.3-.3a.5.5,0,0,1-.5-.3.4.4,0,0,1,.2-.7l-2.4-.2c-.2,0-.5,0-.6-.2s-.1-.5.1-.6a1,1,0,0,1,.5-.4l-.7-.3H82.8c.1-.1.2-.2.2-.3s1.5-2.5,2.3-3.8C86.9,173.2,88.4,176,89.9,178.9Zm9-39.5-.2-.8,1,.3ZM110.7,118l-.9,1.1c-.3-.4-.6-1-.7-1Zm-5.4.1c0-.1.1-.2.1-.3a6.1,6.1,0,0,0,2.8,2l.8.3a17.2,17.2,0,0,1-5.8,4.3,1.9,1.9,0,0,0,.2-.8C104,121.8,104.8,120,105.3,118.1Zm-2.2-11.5h.1c0,.2.1.4,0,.6a.3.3,0,0,1-.3.3h-.3A4.1,4.1,0,0,0,103.1,106.6Zm-1,1.7.3.7c.2.3.7,1.5,0,1.6s-.4-.1-.6-.3a1.8,1.8,0,0,0-.5-.7Zm-3.8,5.4.7.2-.2.2c.2.2.5.2.7.3s.5.5.3.7h-.4a2.6,2.6,0,0,1-1.2-.5c.2.1.2.5,0,.7s-.4.3-.7.3h-.8a4.2,4.2,0,0,1,1.8,1.1l-.2.3h1.3a.7.7,0,0,1,.6.2.5.5,0,0,1-.1.8l2.4-.4c.2,0,.5,0,.6.2s.2.4.1.6l-.4.5h.7l.8-.2.5-.2c-.1.1-.1.2-.1.4l-1.6,4.5-.3.9a10.7,10.7,0,0,1-3,.6l.2-.3a.6.6,0,0,1-.7-.1,1,1,0,0,1-.5-.6,3.2,3.2,0,0,1-.1-1.4,3.2,3.2,0,0,0-.9,1.6c-.1.1-.1.3-.2.3s-.4.1-.5-.1a.8.8,0,0,1-.2-.5,2.8,2.8,0,0,1-.1.9H96c-2.8-.8-5.3-1.8-8.2-1.5A57.1,57.1,0,0,0,98.3,113.7Zm-3.5,15.6c-.3-.1-.4-.4-.5-.6l-.6-2.2-.2.5c-.1.1-.3.2-.4.1s-.3-.2-.3-.4a1.9,1.9,0,0,1-.2-.8l2.7.7v1.1C95.4,128.1,95.5,129.4,94.8,129.3ZM61.6,145.8c-9.4,3.1-16.4,6.7-24.7-1.8a15.9,15.9,0,0,0-6.6-3.9,18,18,0,0,0-2.2-.6,29,29,0,0,1,8.4-.6c5,.5,10.1,1.2,15,.9s9.7-2.1,14.2-4c2.3-1,4.5-2.1,6.7-3.3s3.9-1.2,5.6-2.3,2.6-2.6,4.3-3.1,5.1-1.7,7.9-1.5v.3a1.9,1.9,0,0,1-.1.8.7.7,0,0,1-.7.2A3.9,3.9,0,0,1,90,128a1.9,1.9,0,0,1-.1,1.3.8.8,0,0,1-1.1.4,10.7,10.7,0,0,1,1.6,1.4h-.3l.7.5c.2.2.2.7,0,.8h-.4a2.8,2.8,0,0,1-1-.9.4.4,0,0,1-.2.7,1.1,1.1,0,0,1-.8,0h-.8a3.9,3.9,0,0,1,1.4,1.7l-.3.2h.5l.8.4c.2,0,.3.1.5.3s-.1.7-.4.7a21,21,0,0,1,2.4.6.5.5,0,0,1,.5.3c.1.2.1.5-.1.6l-.5.3.6.4h1.3c0,.1-.1.2-.2.3l-2.2,2.6C81.5,138.7,71.5,142.5,61.6,145.8Zm34.6-4.1a18.6,18.6,0,0,0-3.9-1c.9-1.2,1.9-2.3,2.7-3.5l.3-.3a6.6,6.6,0,0,0,2,3l.5.4ZM156.4,162a6.8,6.8,0,0,0,2.2,2.6.2.2,0,0,0,.3-.3c-.5-.8-.8-1.6-1.2-2.4h.1c1.5,1.4,2.8,2.9,4.3,4.1l.2.3-.9.4H160a.8.8,0,0,1,0-.9l-2.3.5h-.6a.5.5,0,0,1-.1-.6,1,1,0,0,1,.4-.5c-.1,0-.7-.2-.8-.1l-.8.2-.4.2v-.3l.9-2.9Z" style="fill:#e2dccc"/><path d="M701.8,117.8c5.5,0,10.3,1.4,12.7,3.5v-.4c0-3.4-5-6.2-11.4-6.6V95.4h-1.9v18.9c-6.7.2-12.1,3-12.1,6.6v.4C691.5,119.2,696.3,117.8,701.8,117.8Z" style="fill:#e2dccc"/><path d="M701.9,118.3c-7,0-12.7,3-12.7,6.6v.4c2.3-2,7.1-3.4,12.7-3.4s10.3,1.4,12.6,3.4c.1-.1.1-.2.1-.4C714.6,121.3,708.9,118.3,701.9,118.3Z" style="fill:#e2dccc"/><path d="M701.9,122.6c-7,0-12.7,3-12.7,6.7v.3c2.3-2,7.1-3.4,12.7-3.4s10.3,1.4,12.6,3.4a.4.4,0,0,0,.1-.3C714.6,125.6,708.9,122.6,701.9,122.6Z" style="fill:#e2dccc"/><path d="M701.9,127c-7,0-12.7,2.9-12.7,6.6v.4c2.3-2.1,7.1-3.5,12.7-3.5s10.3,1.4,12.6,3.5a.8.8,0,0,0,.1-.4C714.6,129.9,708.9,127,701.9,127Z" style="fill:#e2dccc"/><path d="M701.9,131.3c-7,0-12.7,3-12.7,6.6v.4c2.3-2,7.1-3.4,12.7-3.4s10.3,1.4,12.6,3.4c.1-.1.1-.2.1-.4C714.6,134.3,708.9,131.3,701.9,131.3Z" style="fill:#e2dccc"/><path d="M701.9,135.6c-7,0-12.7,3-12.7,6.7v.3c2.3-2,7.1-3.4,12.7-3.4s10.3,1.4,12.6,3.4a.4.4,0,0,0,.1-.3C714.6,138.6,708.9,135.6,701.9,135.6Z" style="fill:#e2dccc"/><path d="M701.9,140c-7,0-12.7,2.9-12.7,6.6v.3c2.3-2,7.1-3.4,12.7-3.4s10.3,1.4,12.6,3.4a.4.4,0,0,0,.1-.3C714.6,142.9,708.9,140,701.9,140Z" style="fill:#e2dccc"/><path d="M701.8,144.7c-7,0-12.7,2.3-12.7,5.3s5.7,5.3,12.7,5.3,12.7-2.4,12.7-5.3S708.8,144.7,701.8,144.7Zm6.2,6.9a18.7,18.7,0,0,1-6.2,1,18.1,18.1,0,0,1-6.1-1c-1.4-.6-2-1.2-2-1.6s.6-1,2-1.6a18.1,18.1,0,0,1,6.1-1,18.7,18.7,0,0,1,6.2,1c1.3.6,1.9,1.2,1.9,1.6S709.3,151,708,151.6Z" style="fill:#e2dccc"/><path d="M733.6,0c-.8,1.2-1.8,2.4-2.7,3.5a55.7,55.7,0,0,1-4.6,5.1l-1.1,1.2a69.9,69.9,0,0,0-12.9,12c-3.5.2-7.1,1.4-10.6,1.5-.5-1.1-1.2-2.3-1.7-3.5a17.5,17.5,0,0,1-1-8.2c.5-4.5.7-3.3-.8-7.7-.3-.8-1.5-.3-1.2.5,1.6,5.4-.1,5.4-.4,10.8a23.1,23.1,0,0,0,.7,7.6c-3.9-.9-7.5-1.8-11.6-1.4a37,37,0,0,0-5.8,1c-3.4-1.8-5.6-5.9-8.8-8.2l-.6-.9a14.2,14.2,0,0,1-.7-2.2,11.3,11.3,0,0,1-.1-2.6,5.5,5.5,0,0,0,.2-1.8.4.4,0,0,0-.7-.2c-1.1,1.3-1.1,4.2-.4,6.5a57.7,57.7,0,0,0-5.8-2.2,28,28,0,0,1-6.5-3.7c-.3-.2-.8.1-.6.5,2.5,4.5,8.5,5.3,12.7,7.4s4.9,4.2,7.3,6.7a6.7,6.7,0,0,0,1.5,1.4l-10.3,3.2c-1-4.7-5.2-7.9-9-10.2s-7.5-3.9-10.8-6.5c-.1-.4-.3-.7-.4-1.1a7.8,7.8,0,0,1-.1-3.4c.1-.5-.7-.6-.8-.1a7.4,7.4,0,0,0-.1,3.3l-.6-.6a2.9,2.9,0,0,0,.2-.9,1.2,1.2,0,0,1-.5.5A13.7,13.7,0,0,1,643.3,5c-.3-.6-1.4.1-1,.7a15.9,15.9,0,0,0,1.3,2.2c-.1.1-.3.2-.4.1s-.4-.3-.5-.6a14.6,14.6,0,0,1-.7,1.9c-.1.2-.3.5-.6.4s-.5-1.4-.4-1.9a.4.4,0,0,1-.5,0,.8.8,0,0,1-.2-.5,1.3,1.3,0,0,0-.1-.6c0,.2-.2.2-.3.2s-.2-.2-.2-.3a1.6,1.6,0,0,1-.3-.8,10.4,10.4,0,0,0-.4,1,.4.4,0,0,1-.2.4c-.1.1-.3.1-.3-.1a5.1,5.1,0,0,0,.2,1.3v.2h-1c.4.9.8,1.8,1.3,2.7s-.3,0-.4-.1a7.6,7.6,0,0,1-.9-.9c-.2.3-.6.3-1,.1l-.6-.3a4.4,4.4,0,0,1,.7,1.9h-.5l.7.6a.1.1,0,0,1,.1.1.2.2,0,0,1-.1.3l-.3.2a5.2,5.2,0,0,1,2,.9l-1,.6-1,.3h.1l1.9.2a3.4,3.4,0,0,0,2.2-.4v.3a33.1,33.1,0,0,0-.4,3.3,7.7,7.7,0,0,0-1.8-1.8,29.5,29.5,0,0,0-5.8-2.4,3,3,0,0,0-3.4.5.4.4,0,0,0,.3.6c2.3-.3,4,.7,6.1,1.6a7.8,7.8,0,0,1,3.7,3.2c-2.8-.4-6.6,1-8.7.8-.3-.1-.3.3-.1.4,3.3,1.6,7.4-1.2,10.2,1.1a17,17,0,0,0,3.5,5.2h-1c-3,.1-6.7.2-9.5,1.9-1.6-.1-3.1.1-4.7-.1a49.9,49.9,0,0,1-5.1-1.6c-1.9-.5-3.9-.6-5.5,1s0,.9.4.6a4.9,4.9,0,0,1,4.4-.2,7.8,7.8,0,0,0-2.8,2.9c-.5.7.4,1.4.9.7a7.7,7.7,0,0,1,2.2-2.2,3.3,3.3,0,0,1,1.4-.4h1l1.5.5a16.8,16.8,0,0,0,4,.5,36.9,36.9,0,0,0-5.7,8.8h-4.4l.3-.3.5-.6c0-.1.1-.7.1-.7l-.5.2-.5-.2c0-.2.1-.4.1-.6l1.2-1.9a.4.4,0,0,1-.7-.2.7.7,0,0,1,.1-.5,11.7,11.7,0,0,1,.5-1.1h-.3a3.9,3.9,0,0,1-.2-1.9,2.5,2.5,0,0,0-.4.7c-.1.2-.2.5-.5.6a.4.4,0,0,1-.5-.3,2,2,0,0,1-.1,1.1.5.5,0,0,1-.2.4c-.2.1-.4-.2-.4-.4a2.2,2.2,0,0,0,0-.8c0,.1-.1.2-.2.1s.1-1.2.1-1.8a.9.9,0,0,1-.9.5,1.6,1.6,0,0,1-.8-.6,4.9,4.9,0,0,1-.4-1.1.4.4,0,0,1-.5.3l-.6-.3a2.7,2.7,0,0,0-.8-.7,1.7,1.7,0,0,1,0,1.2.7.7,0,0,1-1,.6,4.4,4.4,0,0,1,.8,1.1c0,.1.1.3,0,.4s-.2.2-.3.2h-.4l.9,1.6a.9.9,0,0,1,.1.7c-.3.5-1.1-.3-1.3-.5a6.1,6.1,0,0,0-1.5-1.3l.3.9c0,.2,0,.3-.1.4s-.2.2-.4.1l-.4-.2-1.1-.9a.6.6,0,0,1,0,.9h-.3a2.3,2.3,0,0,0-1.6-.3,2.4,2.4,0,0,1,.8.9.7.7,0,0,1,.1.6.5.5,0,0,1-.4.5l.8.4a.7.7,0,0,1,.4.8,1.3,1.3,0,0,1-.9.7,10.4,10.4,0,0,1,2.5.8c.3.1.7.4.6.7s-1.9.9-2.5.8a.5.5,0,0,1,0,.7.8.8,0,0,1-.7.4l-.7.2c.2.1.2.3.2.5l-.4.3-1,.6,1.2.3.6.2c.1.2.1.5-.1.6l1.8-.5a.1.1,0,0,1,.2,0c.1,0,.1.1.1.2a5,5,0,0,1-.2,1.2l3.6-2.1c.1.1,0,.3-.1.5a5.3,5.3,0,0,1-1.2,1.4c.4.2.4.9.2,1.3a3.1,3.1,0,0,1-.5,1,8.5,8.5,0,0,1,2.5-1.3,2.2,2.2,0,0,1,.1.8l.8-1.1.2-.2c.1-.1.3,0,.4.1s.1.3.2.4a7.7,7.7,0,0,1,1.2-2.8,14.8,14.8,0,0,1,.8,1.3c.2.5.3,1,.5,1.4v-.2c0-.9.3-1.8.3-2.8a5.2,5.2,0,0,0-.6-3h5.3l-.2.5a18.1,18.1,0,0,0-1.9,11.2h0v.3c.1.2.2.3.4.3s-.1.7-.1,1a6.8,6.8,0,0,1-.2,1.4v.3c-.1-.1-.1-.2-.3-.3a1.2,1.2,0,0,0-.5-.5l-.6-.2c0,.2.1.3.1.5a.5.5,0,0,1-.3.5c-.2.1-.3,0-.5-.1L620,54.4c.2.2,0,.6-.3.7h-.4l-.7-.4-.4-.2a.4.4,0,0,1,.1.3,4,4,0,0,1-1.9.2l.5.3h.1c.3.1.5.2.5.5a.4.4,0,0,1-.3.5,2,2,0,0,1,1.1.2l.3.2a.5.5,0,0,1-.5.4h-.7a.4.4,0,0,1,.1.3l-1.8-.2a.7.7,0,0,1,.4.9,1.6,1.6,0,0,1-.7.9,3.5,3.5,0,0,1-1.1.3.4.4,0,0,1,.3.6,1,1,0,0,1-.4.5,6,6,0,0,1-.8.8c.4,0,.9-.1,1.2.1a.9.9,0,0,1,.5,1.1,4.1,4.1,0,0,1,1.1-.7c.1-.1.3-.2.4-.1a.5.5,0,0,1,.2.4l-.3.4,1.8-.9a.7.7,0,0,1,.6-.1c.4.4-.4,1.1-.7,1.3a10.7,10.7,0,0,0-1.4,1.6,1.7,1.7,0,0,1,1-.3h.3a.6.6,0,0,1,.1.4l-.3.4-1,1.1.5-.2a.3.3,0,0,1,.3.3.4.4,0,0,1-.1.3,3.2,3.2,0,0,0-.4,1.6,1.6,1.6,0,0,1,.9-.7.7.7,0,0,1,.6-.1c.3,0,.4.2.5.4a2,2,0,0,1,.4-.8.7.7,0,0,1,.8-.4,1.8,1.8,0,0,1,.6.9,26,26,0,0,1,1-2.5c.2-.3.5-.7.8-.5s.6,2,.5,2.6a.5.5,0,0,1,.7,0,.8.8,0,0,1,.2.7,2.2,2.2,0,0,1,.1.8.4.4,0,0,1,.5-.2c.2.1.2.3.3.4a7.6,7.6,0,0,1,.4,1.1,6.9,6.9,0,0,1,.5-1.3.5.5,0,0,1,.3-.5.3.3,0,0,1,.5,0l-.3-1.8v-.2h.3l1,.2-1.5-3.8c.1-.1.4,0,.5.1a5.3,5.3,0,0,1,1.1,1.4,1,1,0,0,1,1.4-.2l.8.5a10.7,10.7,0,0,1-.9-2.7h.8l-1-.9c-.1-.1-.1-.1-.1-.2s0-.3.1-.4l.4-.2a6.2,6.2,0,0,1-2.5-1.4c0,.1.5-.3.9-.5a.5.5,0,0,1,.5.3c0-.2.1-.4.1-.6l1.2-.3h-1.1v-.2a.5.5,0,0,1,.2-.4c.2-.1.3,0,.4.1s.1.3.2.4.3-1.3.4-1.9.1-.5.3-.6.7,1,.6,1.3a7.6,7.6,0,0,0,.3,2.1,2.5,2.5,0,0,1,.4-.9l.3-.3.4.2a.7.7,0,0,1,.1.5c.1.5.1.9.2,1.4a1.1,1.1,0,0,1,.1-.5.4.4,0,0,1,.5-.1l.2.3a2.4,2.4,0,0,0,.9,1.3,2.4,2.4,0,0,1,0-1.2l.3-.6a.5.5,0,0,1,.6-.1c-.1-.3-.3-.5-.3-.8a.8.8,0,0,1,.3-.9,1.2,1.2,0,0,1,1,0,10.1,10.1,0,0,1-1.2-2.3.8.8,0,0,1,.1-1c.7-.4,1.9.7,2.3,1.2a.4.4,0,0,1,.4-.6c.2-.1.5.1.7.2l.7.4a.4.4,0,0,1,.1-.5h.6l1,.3-.7-1.2a.8.8,0,0,1-.2-.5.4.4,0,0,1,.4-.4l-1.6-.8c0-.1-.1-.1-.1-.2s0-.2.1-.2l.8-.8-3.9-.9c0-.2.2-.3.4-.4l1.8-.2c-.2-.4.3-.9.7-1.2a2.9,2.9,0,0,1,1-.3,5.8,5.8,0,0,1-2.6-.9,2.1,2.1,0,0,1,.4-.6l-1.3.3h-.2c-.2,0-.3-.2-.3-.4s.1-.3.2-.4a9.6,9.6,0,0,1-2.7,1.3,14.3,14.3,0,0,1,.3-1.6,8.4,8.4,0,0,1,.6-1.4l-.2.2-2,1.8a6.3,6.3,0,0,0-1.6,2.7l-.2-.2c-1-1.2-2.2-2.2-3.3-3.4l-.4-.4c.4-.9.8-1.8,1.3-2.7s.1-.2.1-.3l1.1-1.9a38.1,38.1,0,0,1,3.7-5,48.6,48.6,0,0,0,1,5.5c.1.4.7.4.6-.1-.3-2.1-.4-4.3-.6-6.5a9.4,9.4,0,0,1,5.6-2.6,36.4,36.4,0,0,1,8.1.2l.6,1.2.2.3-.4-.2h-.7l-.7.2.5.4a.5.5,0,0,1,0,.5c-.1.2-.3.2-.5.2h-2.1a.5.5,0,0,1,.1.7l-.5.2-1.1.2.2.2a3.9,3.9,0,0,1-1.4,1.2c.2.1.4,0,.7,0a.9.9,0,0,1,.7.1c.1.1.2.5,0,.6l1-.5a.2.2,0,0,1,.3,0c.2.1.1.4-.1.6l-.6.3a.2.2,0,0,1,.2.2l-1.6.9a.8.8,0,0,1,.9.5,2,2,0,0,1-.1,1.1,8.6,8.6,0,0,1-.7,1,.4.4,0,0,1,.5.2c.1.2,0,.5,0,.7a5.2,5.2,0,0,0-.2,1.1,2.3,2.3,0,0,1,1-.7c.5-.1,1,.2,1,.6a6.9,6.9,0,0,1,.5-1.3l.3-.3a.5.5,0,0,1,.4.2v.5a16.2,16.2,0,0,1,1-1.8c.1-.2.2-.4.4-.4s.3,1.1.2,1.4a7.5,7.5,0,0,0-.2,2.1,1.6,1.6,0,0,1,.6-.8h.3a.3.3,0,0,1,.3.3c.1.1,0,.3,0,.4s-.1,1-.2,1.5.1-.3.3-.4h.4a.4.4,0,0,1,.1.3,3.1,3.1,0,0,0,.6,1.6,2.1,2.1,0,0,1,.3-1.2l.5-.5a.5.5,0,0,1,.6.1,2.9,2.9,0,0,1-.2-.9c.1-.4.2-.7.5-.8a1.1,1.1,0,0,1,1,.3,20,20,0,0,1-.5-2.6c-.1-.3,0-.8.3-.9s1.7,1.2,1.9,1.8a.6.6,0,0,1,.6-.5l.6.4c.2.2.3.5.5.6s.1-.4.3-.4h.5l.9.6-.3-1.3a1.3,1.3,0,0,1-.1-.6c.1-.2.3-.4.5-.3l-1.3-1.2c0-.1-.1-.1-.1-.2a.2.2,0,0,1,.2-.2l1-.5-3.4-2.1c0-.1.2-.2.4-.2a4.7,4.7,0,0,1,1.7.4c0-.5.6-.9,1-1h1a6.6,6.6,0,0,1-2.2-1.5l.6-.5h-1.6a.6.6,0,0,1-.1-.4l.3-.4a9.3,9.3,0,0,1-2.9.5l.5-1.1h.5a56.8,56.8,0,0,0,11.6-1c8.1-1.5,16.3-5.1,24.5-4.7h1.4l-.4.3a.7.7,0,0,1-.6-.3,1.7,1.7,0,0,1,0,1,1.1,1.1,0,0,1-.6.7,1.3,1.3,0,0,1-.9-.5,21.1,21.1,0,0,1,.2,2.6c-.1.4-.2.9-.5.9s-1.5-1.4-1.6-2-.4.4-.6.3-.4-.3-.6-.5-.2-.5-.4-.6a.4.4,0,0,1-.4.3l-.4-.2-.8-.8c0,.5.1,1,.1,1.4s.1.4,0,.6a.4.4,0,0,1-.5.2l1,1.5c.1,0,.1.1.1.2s-.1.1-.2.1l-1,.4,3,2.6c0,.2-.3.2-.5.1a5.2,5.2,0,0,1-1.6-.6,1.1,1.1,0,0,1-1.1.8h-1a8.6,8.6,0,0,1,1.9,1.9l-.6.4,1.3.3c0,.1.1.1.2.1a.4.4,0,0,1,0,.5c0,.1-.2.2-.3.3a7.6,7.6,0,0,1,3,0c-.1,0-.8,1.2-1,1.3a5.2,5.2,0,0,1-1.1,1h.2l2.6-.8a5.3,5.3,0,0,0,2.5-1.9c0,.2.1.3.1.4s.7,2.1,1.1,3.1c-3.9.2-7.8-.1-11.6,1.1a19.6,19.6,0,0,0-8.2,5.8c-2.9,3.2-5,7.3-6.9,11.5h-.3l-1.3-.2h-.3l.3-.2.6-.6.2-.6h-.5c-.2,0-.4-.1-.4-.3a1.4,1.4,0,0,1,.2-.6l1.4-1.6c-.2.1-.5-.1-.6-.4a1.7,1.7,0,0,1,.2-.5l.4-.6a.8.8,0,0,0,.2-.4h-.2a3.4,3.4,0,0,1,.1-2l-.4.5h-.1a1,1,0,0,1-.6.5.5.5,0,0,1-.5-.3,3.6,3.6,0,0,1-.2,1c-.1.2-.1.3-.3.3s-.4-.2-.3-.5a2.5,2.5,0,0,1,.2-.7h-.3c.1-.6.3-1.2.4-1.8s-.6.4-.9.3a1,1,0,0,1-.7-.8,2,2,0,0,1-.2-1.1.5.5,0,0,1-.6.2c-.2,0-.3-.2-.5-.4l-.6-.9a2.7,2.7,0,0,1-.2,1.3c-.3.4-.8.6-1.1.4a6.1,6.1,0,0,1,.5,1.2.3.3,0,0,1,0,.4l-.4.2-.3-.3.6,1.9a.6.6,0,0,1,0,.6c-.5.5-1-.5-1.2-.7a5.1,5.1,0,0,0-1.3-1.6,1.7,1.7,0,0,1,.1,1,.4.4,0,0,1-.1.3.2.2,0,0,1-.4.1l-.3-.3-1-1.1c.1.2.2.3.2.5a.3.3,0,0,1-.3.3c-.2,0-.3,0-.3-.1a4.7,4.7,0,0,0-1.5-.6,2.4,2.4,0,0,1,.6,1.1.6.6,0,0,1,0,.6.5.5,0,0,1-.5.4l.8.5a1,1,0,0,1,.2.9,1.3,1.3,0,0,1-1,.6,10.1,10.1,0,0,1,2.3,1.2c.3.2.6.5.4.8s-2,.6-2.5.4a.6.6,0,0,1-.1.7,1.1,1.1,0,0,1-.8.2h-.7a.4.4,0,0,1,.1.5l-.5.3-1.1.3,1.2.6a.5.5,0,0,1,.5.3c.1.2.1.4-.1.5H652c0-.1.1-.1.2,0v.2l-.3,1.1,3.8-1.3c.1.1,0,.3-.1.5l-1.5,1.1c.4.3.3,1,0,1.4l-.6.8a7.7,7.7,0,0,1,2.6-.7.9.9,0,0,1,0,.7l1-.9c0-.1.1-.1.2-.2s.3.1.3.2a.7.7,0,0,1,.1.5,9.8,9.8,0,0,1,1.7-2.6l.6,1.4c.1.5.1,1,.2,1.5v-.2l.9-2.7a6.1,6.1,0,0,0-.1-3h.3l2.2.5h.4C661.4,64,659.3,70,656.2,75h-5l.3-.3c.2-.2.4-.3.5-.6s.1-.6.1-.7l-.5.2a.4.4,0,0,1-.5-.2,1.4,1.4,0,0,1,.2-.6l1.1-1.9a.4.4,0,0,1-.7-.2,4.3,4.3,0,0,0,.1-.5l.5-1.1H652a4.1,4.1,0,0,1-.2-1.9,1.6,1.6,0,0,0-.4.7,1,1,0,0,1-.4.5c-.3.1-.6,0-.6-.3a2.5,2.5,0,0,1-.1,1.2c0,.1-.1.2-.2.3s-.4-.1-.4-.4.1-.5,0-.7h-.2c0-.6.1-1.3.1-1.9a.7.7,0,0,1-.9.5c-.3,0-.6-.3-.8-.6a3.6,3.6,0,0,1-.4-1.1c0,.3-.3.4-.5.4a1,1,0,0,1-.5-.4l-.8-.7a2.9,2.9,0,0,1-.1,1.3.7.7,0,0,1-1,.5,8.3,8.3,0,0,1,.8,1.2c0,.1.1.2.1.4l-.4.2-.4-.2.9,1.7c.1.2.3.4.1.6s-1.1-.2-1.3-.5a4.4,4.4,0,0,0-1.5-1.2,4.6,4.6,0,0,1,.3.9.4.4,0,0,1-.1.3c0,.2-.2.2-.4.2l-.4-.3-1.1-.9c.1.2.2.3.2.5s0,.4-.2.4h-.3a4.5,4.5,0,0,0-1.6-.3,3.4,3.4,0,0,1,.8.9.9.9,0,0,1,.1.7.7.7,0,0,1-.4.5,1.1,1.1,0,0,1,.8.3.7.7,0,0,1,.4.8,1.1,1.1,0,0,1-.9.7l2.5.8c.3.1.7.4.6.8s-1.9.9-2.5.8.2.5,0,.7-.4.3-.7.4a1,1,0,0,0-.7.2c.2,0,.2.2.2.4l-.4.4-1,.5,1.3.3.5.3a.5.5,0,0,1,0,.5l1.7-.5h.2a.3.3,0,0,1,.1.2,5,5,0,0,1-.2,1.2l3.6-2.1a.4.4,0,0,1-.1.5,4.1,4.1,0,0,1-1.2,1.4c.4.2.4.9.2,1.4a4.1,4.1,0,0,1-.5.9,8.2,8.2,0,0,1,2.5-1.2.9.9,0,0,1,.1.7,4.4,4.4,0,0,0,.8-1.1l.2-.2a.4.4,0,0,1,.4.2.5.5,0,0,1,.2.4,8.1,8.1,0,0,1,1.2-2.9c0,.1.8,1.2.8,1.4s.3.9.5,1.4V81c.1-1,.3-1.9.3-2.8a5.1,5.1,0,0,0-.6-3H656c-2.6,4.1-5.9,7.6-10.6,9.6-.7.3-.5,1.7.3,1.6l-.3.8-.6,1.2-.2.3a.8.8,0,0,0-.1-.4l-.3-.6-.6-.4V88c-.1.2-.2.3-.4.3a.5.5,0,0,1-.5-.3l-1.2-1.7c.1.2-.2.6-.4.5l-.5-.2-.5-.6-.3-.3V86a3,3,0,0,1-1.8-.4l.4.5h.1c.1.2.3.4.3.6a.5.5,0,0,1-.5.5l1,.4.2.3c0,.3-.3.4-.6.3l-.6-.3a.2.2,0,0,1,0,.3l-1.6-.8a.9.9,0,0,1,.1,1.1,1.8,1.8,0,0,1-.9.6h-1.1a.6.6,0,0,1,.1.7l-.6.4-1,.5a2.2,2.2,0,0,1,1.2.5.8.8,0,0,1,.1,1.1l1.2-.3h.4a.7.7,0,0,1,.1.5l-.3.3,1.8-.3c.3-.1.5-.1.6.1s-.6.9-.9,1.1a4.2,4.2,0,0,0-1.8,1.1h.9c.1,0,.3,0,.3.1a.5.5,0,0,1,0,.5l-.4.3-1.3.7c.2,0,.4-.1.5,0s.3.2.3.4a.2.2,0,0,1-.2.2,3.8,3.8,0,0,0-.9,1.5A1.6,1.6,0,0,1,636,98h.6a.5.5,0,0,1,.3.6,2.2,2.2,0,0,1,.6-.7,1,1,0,0,1,.9-.1,1.4,1.4,0,0,1,.3,1.1,12,12,0,0,1,1.7-2.1c.3-.3.7-.5.9-.3s0,2.1-.3,2.7.5,0,.6.2.1.5.1.8a1.1,1.1,0,0,0-.1.8.2.2,0,0,1,.4-.1l.2.5a4.8,4.8,0,0,1,0,1.2l.9-1.1c.1-.2.2-.4.4-.4a.4.4,0,0,1,.5.2c.1-.6.1-1.2.2-1.8l.2-.3h.2l.9.6-.3-4.2c.2-.1.3.1.4.2a6.1,6.1,0,0,1,.7,1.7,1,1,0,0,1,1.3.3,2.4,2.4,0,0,1,.6.8,14.1,14.1,0,0,1,0-2.9l.7.2-.6-1.2c-.1-.1-.1-.1-.1-.2a.5.5,0,0,1,.2-.4h.5a8,8,0,0,1-2-2.1l1.5-.4h1.3l-2.4-1.3a4.7,4.7,0,0,0-2.9-.5l.2-.3c.3-.7.7-1.4,1-2.2l.4-.9a20.7,20.7,0,0,0,9.3-6.6h.1l1.9,3.6.2.3h-1.2l-.6.3.4.3c.1.2.2.4.1.5a.7.7,0,0,1-.6.2h-2.1a.4.4,0,0,1,.2.7l-.5.2-1.1.2.2.2a4.7,4.7,0,0,1-1.5,1.3h1.4a.5.5,0,0,1,.1.7,2.1,2.1,0,0,1,1-.6h.3c.2.1.1.5-.1.6l-.6.4c.1,0,.2,0,.2.1l-1.6,1a.8.8,0,0,1,.9.5,1.5,1.5,0,0,1-.2,1.1,2.8,2.8,0,0,1-.7.9.4.4,0,0,1,.6.3v.6a5.2,5.2,0,0,0-.2,1.1,2.3,2.3,0,0,1,1-.7,1,1,0,0,1,1,.6,6.1,6.1,0,0,1,.5-1.2l.3-.3c.1-.1.3,0,.3.2a.6.6,0,0,1,.1.4l.9-1.8a.7.7,0,0,1,.5-.4c.6,0,.3,1.1.2,1.4a5,5,0,0,0-.2,2.1,3.5,3.5,0,0,1,.5-.8h.4l.3.3v.5a7.8,7.8,0,0,0-.2,1.4.5.5,0,0,1,.3-.4h.4a.4.4,0,0,1,.1.3,3,3,0,0,0,.5,1.6,2.5,2.5,0,0,1,.4-1.2,1,1,0,0,1,.4-.5c.2-.1.5-.1.6.1s-.1-.6-.1-.9a.9.9,0,0,1,.5-.8,1,1,0,0,1,1,.4c-.3-.9-.4-1.8-.6-2.6s.1-.9.4-1,1.6,1.2,1.9,1.8.3-.5.5-.4a1,1,0,0,1,.7.4,1.2,1.2,0,0,0,.5.5c-.1-.2.1-.4.3-.4h.5l.9.7a7.4,7.4,0,0,0-.4-1.4c0-.2-.1-.4,0-.6a.3.3,0,0,1,.4-.2l-1.2-1.3c-.1,0-.1-.1-.1-.2s.1-.1.1-.2l1-.5a37.9,37.9,0,0,0-3.4-2,.5.5,0,0,1,.5-.3l1.7.4a1.2,1.2,0,0,1,1-1,3.4,3.4,0,0,1,1,0,8.9,8.9,0,0,1-2.2-1.6,1,1,0,0,1,.6-.5h-1.6c-.1,0-.1-.2-.1-.4l.3-.4a7.9,7.9,0,0,1-3,.5,10.7,10.7,0,0,0,.7-1.5h.1c0,.3.1.5.1.8a2.7,2.7,0,0,1,.8-1c.4-.2,1-.1,1.1.3a6.8,6.8,0,0,1,.2-1.4c0-.1.1-.3.2-.3s.3,0,.4.1.1.2.2.4a14.2,14.2,0,0,1,.4-2c0-.2.1-.5.3-.5s.6.9.6,1.3a6.4,6.4,0,0,0,.3,2,3.6,3.6,0,0,1,.4-.9l.3-.2c.1-.1.3,0,.4.2s.1.3.1.4a7.7,7.7,0,0,0,.2,1.5.7.7,0,0,1,.1-.5c.1-.2.3-.2.5-.2a.4.4,0,0,1,.1.3,2.8,2.8,0,0,0,1,1.4,2.9,2.9,0,0,1,0-1.3.9.9,0,0,1,.3-.6c.2-.1.4-.2.6,0l-.4-.9a1.4,1.4,0,0,1,.3-.9,1.1,1.1,0,0,1,1.1.1,12.7,12.7,0,0,1-1.2-2.3c-.2-.4-.3-.9,0-1s1.9.6,2.3,1.1a.6.6,0,0,1,.5-.6l.7.2.6.4c-.1-.1,0-.4.2-.5h.6a37.9,37.9,0,0,1-3.1,3.7c-.1.2.1.4.2.3,2-.8,4.2-3.2,5.3-5.7.7,2.7,1.6,5.1,2.3,7.2.2.5,1,.2.8-.3a39.1,39.1,0,0,1-2.3-10.6,22.4,22.4,0,0,1,.2-5.2,23.6,23.6,0,0,0,2.2,3.8h.1l.5.7h0l-.3.8-.2.3h.3a6.3,6.3,0,0,1,.3,1.9l.3-.5h0c.1-.3.2-.5.5-.6s.5,0,.5.2v-.4l.9.8a4.5,4.5,0,0,1-.1,1.1.8.8,0,0,1,.8-.6h.1l.9.5h0a3.6,3.6,0,0,1,.4,1.1c0-.3.3-.4.5-.4l.3.2-.3.2c.2,0,.3.2.3.4a.5.5,0,0,1-.3.4l-.8.8H687a.6.6,0,0,1,.6,0c.2.1.3.4.1.5l1.4-.9c.1.1.1.3.2.4a.5.5,0,0,0,.4.3.7.7,0,0,1,.1.5l.3-.3.2.3.2.3H690a.8.8,0,0,0-.7,0l-.6.3.5.3a.4.4,0,0,1,0,.5c-.1.2-.3.2-.5.3l-2.1.2c.3.1.4.4.2.6a.5.5,0,0,1-.4.3l-1.1.3.2.2a4.7,4.7,0,0,1-1.4,1.4l.7-.2h.7c.2.1.3.5.1.6a2.1,2.1,0,0,1,1-.6h.3c.2.1.1.4,0,.6l-.7.4h.3l-1.6,1.1a.7.7,0,0,1,.9.4,1.1,1.1,0,0,1,0,1.1,3.3,3.3,0,0,1-.6,1,.4.4,0,0,1,.5.2,1.7,1.7,0,0,1,.1.7,4.1,4.1,0,0,0-.1,1.1,2,2,0,0,1,1-.8.8.8,0,0,1,1,.5,6.5,6.5,0,0,1,.4-1.3c.1-.1.1-.3.3-.3s.3,0,.3.2a.6.6,0,0,1,.1.4,14.2,14.2,0,0,0,.8-1.8c.1-.2.2-.5.4-.5s.5,1.1.4,1.4a5,5,0,0,0-.1,2.1,2.2,2.2,0,0,1,.5-.8l.3-.2c.2,0,.3.1.4.3v.4c0,.5-.1,1-.1,1.5s.1-.3.2-.4.4-.2.5-.1.1.2.1.4a2.7,2.7,0,0,0,.7,1.4,1.7,1.7,0,0,1,.2-1.2,1.2,1.2,0,0,1,.5-.5.5.5,0,0,1,.6.1,1.6,1.6,0,0,1-.3-.9c.1-.4.2-.7.5-.8s.7,0,1,.2a11.7,11.7,0,0,1-.7-2.5c-.1-.4-.1-.9.2-1s1.8,1,2,1.6a.6.6,0,0,1,.6-.5c.2.1.5.2.6.4l.6.5c-.1-.2.1-.4.3-.4s.3,0,.5.1l.9.5-.4-1.3a.7.7,0,0,1-.1-.6c0-.2.2-.4.4-.3L699,84.4c-.1-.1-.2-.2-.2-.3h.2a2.1,2.1,0,0,1,1-.6l-3.6-1.8c0-.2.2-.2.4-.2a3.7,3.7,0,0,1,1.8.2c-.1-.5.4-.9.9-1.1h1a7.2,7.2,0,0,1-2.4-1.4l.6-.5h-1.6c-.1,0-.2-.2-.1-.4l.2-.4a6.7,6.7,0,0,1-2.4.7,10.4,10.4,0,0,0,.4-1v-.2h.4l.3.4a10.6,10.6,0,0,1,.4-3.1l1.2,1,.8,1.2v-.2c-.2-.9-.2-1.8-.4-2.7a5.4,5.4,0,0,0-1.4-2.7h.3c1.4-.3,2.7-.8,4.1-1.2l-.8.5c-.8.4-.3,1.8.6,1.3a27.9,27.9,0,0,0,4.6-3.3l.9,1.5.2.3H706c-.3,0-.5-.1-.7,0l-.6.3.4.3c.1.2.2.4.1.5a.5.5,0,0,1-.5.3l-2.1.2a.6.6,0,0,1,.2.7l-.5.2a2,2,0,0,1-1.1.3c.1.1.1.2.2.2a3.5,3.5,0,0,1-1.3,1.4h.7a.9.9,0,0,1,.7,0,.5.5,0,0,1,.1.7,3.1,3.1,0,0,1,.9-.7c.1,0,.3-.1.4,0s.1.4-.1.6l-.6.4a.2.2,0,0,1,.2.2l-1.5,1a.9.9,0,0,1,.9.4,1.7,1.7,0,0,1,0,1.2l-.7.9a.5.5,0,0,1,.6.2.9.9,0,0,1,0,.7c0,.4-.1.8-.1,1.1a2.3,2.3,0,0,1,1-.7.7.7,0,0,1,1,.5,5,5,0,0,1,.5-1.3.5.5,0,0,1,.2-.4l.4.2a.6.6,0,0,1,.1.4,14.2,14.2,0,0,1,.8-1.8c.1-.2.2-.4.4-.4s.4,1,.3,1.4a14.1,14.1,0,0,0-.1,2.1,1.8,1.8,0,0,1,.6-.9l.3-.2a.6.6,0,0,1,.3.8v1.5a.8.8,0,0,1,.2-.5.3.3,0,0,1,.5,0,.5.5,0,0,0,.1.3v.3a46,46,0,0,1-1.9,5.2c-3.2,7-8.9,11.7-15.2,15.4a1,1,0,0,0-.4.5h-.1l-.2.5-.5.2-.3-.5c-.2-.7-.3-1.4-.5-2.1a.5.5,0,0,1-.6.4l-.3-.4-.3-.7a.8.8,0,0,1-.1-.4c-.1.1-.1.2-.2.2a4,4,0,0,1-1.5-1c0,.2.1.3.2.5v.2a.9.9,0,0,1,.1.7c-.1.2-.4.4-.6.2a3,3,0,0,1,.8.8c0,.1.1.3,0,.4s-.4.2-.6.1l-.4-.6v.3l-1.2-1.3a1,1,0,0,1-.3,1,1.4,1.4,0,0,1-1.1.2l-1-.4a.4.4,0,0,1-.1.6l-.6.2h-1.1a2.6,2.6,0,0,1,.9.9.9.9,0,0,1-.4,1.1l1.3.2a.5.5,0,0,1,.4.2.6.6,0,0,1-.1.4l-.4.2,1.8.4c.2,0,.5.1.5.3s-.9.7-1.3.7a6.9,6.9,0,0,0-2,.3l.9.4.2.3a.8.8,0,0,1-.2.4h-.4l-1.5.3h.5a.4.4,0,0,1,.1.5h-.3a4.1,4.1,0,0,0-1.3,1H680l.6.4a.6.6,0,0,1,0,.6,1.2,1.2,0,0,1,.8-.4.6.6,0,0,1,.8.3,1.1,1.1,0,0,1-.1,1.1l2.3-1.4c.3-.1.8-.2,1,.1s-.8,2-1.3,2.4a.6.6,0,0,1,.6.5,1.1,1.1,0,0,1-.3.7l-.4.7a.4.4,0,0,1,.5.2v.5c-.1.4-.3.8-.4,1.1l1.1-.7.6-.2c.2,0,.4.1.3.3l.9-1.6c.1-.1.1-.2.2-.2h.2l.7.9c.4-1.4.8-2.7,1.1-4.1s.3.2.3.4a4,4,0,0,1,.1,1.9c.5-.2.9.2,1.1.7a2.9,2.9,0,0,1,.3,1,7.9,7.9,0,0,1,1-2.7,1,1,0,0,1,.5.4c0-.5-.1-.9-.1-1.4s-.1-.1,0-.2.2-.2.3-.2h.4a8.6,8.6,0,0,1-1.1-2.8c0,.1,1.4.2,1.5.3a5.2,5.2,0,0,1,1.3.6c0-.1,0-.1-.1-.2l-1.7-2.1a4.4,4.4,0,0,0-2.5-1.5c.1-.1.2-.2.2-.3l2-1.9c5.2-3,9.8-6.4,13.2-11.4a1,1,0,0,1,.5.6,2.3,2.3,0,0,1-.3,1.1l-.7.8c.2-.1.4.1.4.3a1.6,1.6,0,0,1,0,.7l-.3,1.1a3.9,3.9,0,0,1,1.1-.6c.4,0,.9.3.9.7a6.7,6.7,0,0,1,.6-1.2l.3-.3c.2,0,.3.1.4.3v.4l1.1-1.6c.1-.2.3-.5.5-.4s.2,1.1.1,1.4a5.4,5.4,0,0,0-.5,2.1,2.3,2.3,0,0,1,.7-.7l.3-.2.3.4a.6.6,0,0,1-.1.4l-.3,1.5.3-.4a.3.3,0,0,1,.4,0,.6.6,0,0,1,.1.4,3.2,3.2,0,0,0,.4,1.6,2.5,2.5,0,0,1,.4-1.2,1.3,1.3,0,0,1,.6-.4.4.4,0,0,1,.5.2c0-.3-.1-.6,0-.8a.8.8,0,0,0,.2-.5.3.3,0,0,0,.1-.2l.3-.2c.3-.1.7.2.9.5a12.4,12.4,0,0,1-.3-2.7c0-.4.1-.9.5-.9s1.4,1.3,1.6,2,.4-.5.6-.4a.6.6,0,0,1,.6.5l.5.6c-.1-.2.1-.4.3-.4l.5.2a2.7,2.7,0,0,1,.8.7,6.8,6.8,0,0,0-.2-1.4c0-.2-.1-.4,0-.6a.4.4,0,0,1,.5-.2l-1.1-1.4v-.2c0-.1.1-.1.2-.2l1-.4-3.2-2.4c.1-.2.3-.2.5-.2a5.8,5.8,0,0,1,1.7.6c0-.5.6-.9,1.1-.9h.9a8.9,8.9,0,0,1-2-1.9l.6-.4-1.3-.2h-.2a.6.6,0,0,1-.1-.4l.3-.4a9.3,9.3,0,0,1-2.9.2l.8-1.4a11.4,11.4,0,0,1,1.1-1.1h-.2l-2.6,1h-.3c-.1-1.4-.2-2.8-.2-4.2l-.3-3.4.5.3a.3.3,0,0,1,.2-.4h.5l1,.5c-.2-.4-.3-.8-.5-1.3a3.5,3.5,0,0,1-.1-.6.5.5,0,0,1,.5-.3l-1.4-1.1v-.2a.3.3,0,0,1,.1-.2l1-.6-2.1-1a1.3,1.3,0,0,0-.1-.6v-.4l.8.2a1.2,1.2,0,0,1,1-1h.3a1.3,1.3,0,0,1-.1.6c.2-.2.2-.4.3-.6h.1a1,1,0,0,1,.4-.5.5.5,0,0,1,.6.2,2,2,0,0,1,0-1.1l.2-.3c.2-.1.5.1.5.4s-.1.5-.1.7h.3c0,.6-.1,1.2-.1,1.9a.9.9,0,0,1,.9-.6,1.5,1.5,0,0,1,.9.6,4.9,4.9,0,0,1,.4,1.1.5.5,0,0,1,.5-.4,1,1,0,0,1,.5.4,2.7,2.7,0,0,1,.8.7,5.6,5.6,0,0,1,0-1.3c.2-.4.6-.8,1-.6a10.5,10.5,0,0,1-.8-1.1c0-.1-.1-.3-.1-.4l.4-.2h.4l-1-1.6a.7.7,0,0,1-.1-.6c.4-.6,1.1.2,1.3.4a6.1,6.1,0,0,0,1.6,1.2,1.2,1.2,0,0,1-.3-.9v-.3a.4.4,0,0,1,.4-.2l.4.2,1.1.9c-.1-.1-.1-.3-.2-.5a.5.5,0,0,1,.3-.4h.3a2.9,2.9,0,0,0,1.6.2,2.4,2.4,0,0,1-.9-.8,1.7,1.7,0,0,1-.1-.7.7.7,0,0,1,.4-.5,1.1,1.1,0,0,1-.8-.3.7.7,0,0,1-.4-.8,1.1,1.1,0,0,1,.8-.7l-2.5-.7c-.3-.1-.7-.4-.6-.8s1.9-.9,2.5-.9-.2-.4,0-.7a.7.7,0,0,1,.6-.3l.8-.3c-.2,0-.3-.2-.2-.4s.2-.3.4-.4l1-.6-1.3-.2-.6-.3a.5.5,0,0,1,0-.5l-1.7.5c0,.1-.1.1-.2,0s-.1-.1-.1-.2.1-.7.1-1.1l-3.5,2.1c-.1-.1,0-.3.1-.5a5.3,5.3,0,0,1,1.2-1.4c-.5-.2-.5-.9-.3-1.3l.5-1a8.5,8.5,0,0,1-2.5,1.3,1.7,1.7,0,0,1-.1-.7l-.8,1.1a.2.2,0,0,1-.2.2c-.1.1-.3,0-.4-.1a.6.6,0,0,1-.1-.4,14.8,14.8,0,0,1-1.2,2.9c0-.1-.8-1.2-.8-1.3a3.6,3.6,0,0,1-.4-.9,106.2,106.2,0,0,1,6-12.8c3.4-6.7,7.1-13.4,9.1-20.7a100.9,100.9,0,0,0,1.8-11,55.9,55.9,0,0,1,1.1-5.9,6.4,6.4,0,0,0,.2-.7A42.5,42.5,0,0,0,739.7,2L741,0ZM626.4,52.4l-.5.6a.1.1,0,0,1,.2,0l-1.3,1.4a.8.8,0,0,1,1,.2,1.4,1.4,0,0,1,.2,1.1l-.3.7a4.1,4.1,0,0,0-1.8.5v-.3a20,20,0,0,0,.4-2.4c0-.4.1-.7.1-1.1a.5.5,0,0,0,.3-.5c0-.2-.1-.3-.1-.5h.4c.2,0,.3.3.2.5a3,3,0,0,1,.8-.8h.3C626.6,51.9,626.5,52.2,626.4,52.4Zm-1.8-1.6c0,.1,0,.1.1.1a.3.3,0,0,0-.1.2Zm1.7-6.5a29.5,29.5,0,0,1,2.5,2.5.2.2,0,0,1,.2.2h-.4a1,1,0,0,0-.7.2l-.6.4.5.2a.4.4,0,0,1,.2.5.5.5,0,0,1-.4.3l-2.1.7a.4.4,0,0,1,.4.6.5.5,0,0,1-.4.3l-.7.4h-.2a21,21,0,0,1,1.3-6.9Zm20.7-31,.8-.3c-.2,0-.2-.2-.2-.4l.3-.4h0l1.4,1a13.4,13.4,0,0,0-2.7.7A.7.7,0,0,1,647,13.3Zm-1.9-3.6h-.2a.4.4,0,0,1-.1-.3Zm-.3,1a1.3,1.3,0,0,0,.6-.7l1.3,1.2-.3.2h-.3c-.1-.1-.2-.2-.1-.3a.4.4,0,0,1,.1-.3l-1.2.7h-.5C644.1,11.4,644.7,10.8,644.8,10.7Zm3.6,21.7-.2-.3a12.4,12.4,0,0,0-1-2l3.1.2A5.5,5.5,0,0,0,648.4,32.4ZM658.7,28a97.3,97.3,0,0,1-10.8-.1,57.5,57.5,0,0,1-5.4-6.6,30.4,30.4,0,0,0-1.8-2.5h0a24.5,24.5,0,0,0,.2-2.7c.1,0,.1-.1.1-.2l.2.3.4.3h.4c0-.1-.1-.2-.1-.4s.1-.3.2-.3.3,0,.4.1l1.3.8c-.1-.1,0-.4.1-.5h.4l.5.2.3.2a.3.3,0,0,1-.1-.2,2.3,2.3,0,0,1,1.4-.2l-.4-.2c0-.1,0-.1-.1-.1s-.3-.2-.3-.4a.3.3,0,0,1,.2-.4c-.2,0-.3.1-.4,0a20.2,20.2,0,0,1,3.2-1.1h2.1l2.9,1.6c5.1,2.7,9.4,5.7,12.1,11A41.1,41.1,0,0,1,658.7,28Zm32.6,76.7-.2.2v-.6a.4.4,0,0,0,.5,0c.1-.1.2-.1.2-.2Zm16.4-13.6c-.2.1-.5.1-.7.3h.2l-1.1.5.9-1.4.5-.2h.3C708,90.6,707.9,90.9,707.7,91.1ZM690.2,37.5a.4.4,0,0,1-.1-.3l.3.2.8.2s.6-.2.6-.1l-.4-.5c0-.1,0-.4.1-.5h.5a15.2,15.2,0,0,1,2.1.3c-.2-.1-.2-.5,0-.7l.5-.2h1.1l-.2-.2a3.9,3.9,0,0,1,1.6-1h-.7c-.2,0-.5,0-.6-.2a.5.5,0,0,1,0-.7,1.4,1.4,0,0,1-1,.4.3.3,0,0,1-.4,0,.5.5,0,0,1,.2-.6c.2-.1.5-.1.7-.3a.2.2,0,0,1-.2-.2l1.7-.6a.9.9,0,0,1-.8-.7,1.9,1.9,0,0,1,.3-1,2,2,0,0,1,.8-.8.4.4,0,0,1-.4-.4c-.1-.2,0-.4.1-.7l.3-1a2.2,2.2,0,0,1-1.1.5c-.4,0-.9-.3-.8-.7a4.4,4.4,0,0,1-.8,1.1c-.1.1-.2.3-.3.3l-.3-.3v-.4l-1.2,1.6c-.1.2-.3.4-.5.3s-.1-1.1,0-1.4a8.3,8.3,0,0,0,.6-2.1l-.7.7h-.4c-.1,0-.2-.2-.2-.3s0-.4,0-.5.3-1,.5-1.4-.2.3-.4.3a.3.3,0,0,1-.4,0c-.1-.1-.1-.2-.1-.4a.1.1,0,0,0,.1-.1c2.7.5,5.3,1.4,8.1,1.3s8.3,1.4,9.3.2c-4.8,6-9.6,12.8-17.5,13.3A15.5,15.5,0,0,1,690.2,37.5Zm11.3,7h-.3L697.9,43a20.9,20.9,0,0,0,4.7-3l-.7,1.4A5.5,5.5,0,0,0,701.5,44.5ZM664.4,71.3l-.7.2-.6.4.5.2a.4.4,0,0,1,.2.5c-.1.2-.3.3-.4.4l-2.1.6c.3,0,.5.4.3.6s-.2.3-.4.4l-.6.3-.4.2h.3a5,5,0,0,1-1.1,1.7l.5-.2h.2a.8.8,0,0,1,.7-.1.5.5,0,0,1,.2.6l.8-.8c.1-.1.2-.2.3-.1s.2.4.1.6l-.6.5h.3l-1.3,1.3a.8.8,0,0,1,1,.3,2,2,0,0,1,.2,1.1,4.7,4.7,0,0,1-.5,1c.2-.1.5-.1.6.1s.1.3.2.5l-1.8.8a5,5,0,0,0-2.1,2.2l-.2-.3c-.7-1.5-1.6-3-2.3-4.5l-.2-.2a39.1,39.1,0,0,0,3-4.1.5.5,0,0,1,.2-.4q1.6-2.9,3-5.7a3.6,3.6,0,0,0,.4-.9h0c.8.9,1.7,1.7,2.5,2.5l.2.3Zm12.7,1.6a20.7,20.7,0,0,1-1.3,4h-.1a1.4,1.4,0,0,1-.2-.6.4.4,0,0,1,.3-.4l-1.5-.8a.2.2,0,0,1-.2-.2.3.3,0,0,0,.1-.2l.9-.7-3.9-1c0-.2.2-.3.4-.3a3.7,3.7,0,0,1,1.8-.2,1,1,0,0,1,.7-1.2l.9-.4a7.3,7.3,0,0,1-2.5-.8,1,1,0,0,1,.4-.7l-1.3.3c-.1,0-.2.1-.3,0s-.2-.2-.2-.3.1-.3.2-.5a9.9,9.9,0,0,1-2.7,1.4c0-.1.2-1.5.2-1.7a8.3,8.3,0,0,1,.7-1.3h-.2c-.6.7-1.4,1.2-2.1,1.9a6.5,6.5,0,0,0-1.5,2.7c-.1-.1-.1-.2-.2-.2s-2.2-2.2-3.3-3.3c1.8-3.9,3.4-7.9,5.5-11.6v.4c.1,1.2.2,2.5.4,3.7s.4.1.4-.1a21.7,21.7,0,0,1,.1-3.6,9.7,9.7,0,0,0,.2-2.4,29.5,29.5,0,0,1,5.1-6.1,16.2,16.2,0,0,1,10.8-4.1c3.6,0,7.1.3,10.6-.6-.1,3.8-1.2,7.4-4.4,10.2s-7,3.2-10.1,5.6S676.4,68,677.1,72.9ZM682,69c0,.2-.2.4-.3.6l-1.5-2.8h1.9l-.4.3-.4.6v.7l.5-.2c.2,0,.4,0,.4.2A.7.7,0,0,1,682,69Zm.8-2.5h-2.7a11.1,11.1,0,0,1-.7-1.6,8.3,8.3,0,0,1,3.3-4l-.3,2.6a6,6,0,0,0,.7,3Zm5.5,7.7c-.1-.1-.1-.3-.2-.4s-.2-.3-.1-.4.2-.2.3-.2h.4a3.1,3.1,0,0,1-.5-1h.7c.4,0,.8.2.8.5S689,73.9,688.3,74.2Zm4.5,1.8a5.1,5.1,0,0,1-.9,1.6l.4.3a6.4,6.4,0,0,0-1.1,1.6l-.2-.3-.7-1.2,2.4-2.5C692.8,75.5,692.8,75.8,692.8,76Zm1.5,2.4.2-.3v.2Zm17.3,8.4a.8.8,0,0,0-.7-.1h-.6l.4.4a.5.5,0,0,1-.1.6h-2.1c.7-1.6,1.3-3.2,1.9-4.9l1.5,3.8a.4.4,0,0,1,.1.3Zm1.1,1-.2-.3c-.5-1.6-1.3-3.1-1.9-4.7v-.3a21.7,21.7,0,0,0,.7-2.4l.2.2a.6.6,0,0,1-.1-.4c.2-.9.5-1.8.7-2.7s.3.3.4.4.2,2.3.2,3.5.3,4.2.4,6.3Zm-.1-23.9a.3.3,0,0,0-.3.3,2.8,2.8,0,0,0-.1.9,2.9,2.9,0,0,1-.2.9c-.3,1.2-.5,2.3-.8,3.5h-.9a15.6,15.6,0,0,1,.6-1.5,5.7,5.7,0,0,1,.8-1.3.1.1,0,0,1-.1.1c-.8.6-1.6.9-2.4,1.5a5.6,5.6,0,0,0-2,2.3l-.2-.3L705.5,68a64.6,64.6,0,0,0,7.3-8.4c.7-.9,1.4-1.7,2-2.6A69.6,69.6,0,0,0,712.6,63.9Zm3.5,2.8a11.8,11.8,0,0,1-1.1,1.9.4.4,0,0,1,.7.2.7.7,0,0,1-.1.5l-.3.8c0,.1-.1.2-.1.4h.3a2.9,2.9,0,0,1,.2.9,5.7,5.7,0,0,1-1.6-1.1,1.2,1.2,0,0,1,.5-.5h-.9l.6-2.4a22.9,22.9,0,0,1,.7-2.8h1.1l-.3.3a1.6,1.6,0,0,0-.4.7c-.1,0-.1.6-.2.6l.6-.2.4.2A.7.7,0,0,1,716.1,66.7Zm1.1-2.5h-2.1c.5-1.6,1-3.1,1.6-4.7a11,11,0,0,0-.2,1.8A4.2,4.2,0,0,0,717.2,64.2Zm13.6-50.9c-.5,4.1-.8,8.2-2,12.2-2,7.2-5.6,13.8-9,20.4,0,.1-.1.2-.1.3s-1.6,2.8-2.4,3.9-3.3,4.9-5.1,7.3a84.4,84.4,0,0,1-7.6,9.2l-.2.2a27.6,27.6,0,0,1-2.7,2.3l-.6.2-3.4,1.1h-.3l.3-.3a2.4,2.4,0,0,0,.2-.8v-.6l-.5.3c-.2.1-.4.1-.5-.1a.4.4,0,0,1,0-.5,14.2,14.2,0,0,1,.5-2.2.3.3,0,0,1-.6,0,.7.7,0,0,1-.1-.5,2.2,2.2,0,0,1,.1-.8v-.4l-.2.2a3.7,3.7,0,0,1-.8-1.8,1.3,1.3,0,0,0-.1.6v.2c-.1.2-.1.5-.3.7s-.6.1-.6-.1a3.6,3.6,0,0,1,.2,1.1.4.4,0,0,1-.1.3.3.3,0,0,1-.5-.2c-.1-.2-.1-.5-.2-.7a.2.2,0,0,1-.2.2c0-.2-.1-.5-.1-.7h0l-.2-.5.4-.3,1-.6-1.3-.3-.5-.2a.3.3,0,0,1,0-.5l-1.7.5c-.1,0-.2.1-.3,0v-.2a3.7,3.7,0,0,1,.1-1.1l-3.5,2.1c-.2-.1-.1-.3,0-.5a8.1,8.1,0,0,1,1.2-1.4c-.4-.2-.4-.9-.2-1.4a3.6,3.6,0,0,1,.4-.9,7.5,7.5,0,0,1-2.5,1.3,1.9,1.9,0,0,1-.1-.8l-.8,1.2c0,.1-.1.1-.1.2h-.4a.8.8,0,0,1-.2-.4,9.6,9.6,0,0,1-1.1,2.8l-.9-1.3a3.6,3.6,0,0,1-.4-1.1,52.7,52.7,0,0,1,6.3-3.1c4.9-2.6,9-8.6,8.8-14.4l2.2.9h.3l-.4.2-.6.4a3.3,3.3,0,0,0-.3.6h.5c.2.1.3.2.3.4a.5.5,0,0,1-.3.5L698,47.8c.2-.1.5.1.5.4a.5.5,0,0,1-.3.5l-.7.9h.2a3.1,3.1,0,0,1-.4,1.9l.6-.5a.7.7,0,0,1,.6-.4.4.4,0,0,1,.4.5,2.2,2.2,0,0,1,.5-1.1.2.2,0,0,1,.2-.2.3.3,0,0,1,.3.5,1.5,1.5,0,0,1-.3.7c.1,0,.2-.1.3,0s-.5,1.2-.8,1.7a.8.8,0,0,1,1-.1.9.9,0,0,1,.6.9,4,4,0,0,1,0,1.1c.1-.2.4-.2.6-.1a1,1,0,0,1,.4.5c.2.3.3.7.5,1s.1-.9.4-1.2a.7.7,0,0,1,1.1-.2l-.3-1.3c0-.2,0-.3.1-.4a.2.2,0,0,1,.4-.1l.3.3-.3-1.9a.6.6,0,0,1,.1-.7c.5-.4.9.7,1,1a6.2,6.2,0,0,0,1.1,1.7,1.7,1.7,0,0,1,0-1c0-.1.1-.2.1-.3a.4.4,0,0,1,.5,0l.3.4.7,1.3a1.3,1.3,0,0,1-.1-.6c.1-.1.2-.3.4-.3l.3.2a3,3,0,0,0,1.3.9,2.8,2.8,0,0,1-.4-1.2,1.3,1.3,0,0,1,.1-.6c.1-.2.3-.4.5-.3s-.5-.4-.6-.7a.9.9,0,0,1-.1-.9c.2-.3.7-.3,1-.4a10,10,0,0,1-2-1.6c-.2-.2-.5-.6-.2-.9s2-.2,2.5.1a.7.7,0,0,1,.2-.7h1.5a.4.4,0,0,1,0-.5l.5-.2h1.1l-1.1-.8c-.1-.1-.3-.2-.4-.4s0-.5.2-.5l-1.7-.2c-.1,0-.2,0-.2-.1s0-.1,0-.2a3.1,3.1,0,0,1,.5-1l-4,.6c-.1-.1.1-.3.2-.4a5.6,5.6,0,0,1,1.7-.9,1,1,0,0,1,.2-1.4l.8-.7a6.7,6.7,0,0,1-2.8.3,2.4,2.4,0,0,1,.2-.8l-1.1.8H706a.5.5,0,0,1-.4-.2v-.5a11.5,11.5,0,0,1-2.1,2.3,11,11,0,0,0-.3-1.6v-.7c3.8-3.3,6.8-7.6,9.9-11.4,5.3-6.7,11.6-11.6,18-16.8Z" style="fill:#e2dccc"/><circle cx="214.4" cy="88" r="48.1" transform="translate(79.5 276.5) rotate(-76.7)" style="fill:#e2dccc"/><path d="M214.4,41.5A46.6,46.6,0,1,1,167.9,88a46.6,46.6,0,0,1,46.5-46.5m0-3A49.6,49.6,0,1,0,264,88a49.5,49.5,0,0,0-49.6-49.5Z" style="fill:#2f2f2f"/><circle cx="214.4" cy="88" r="40.3" style="fill:#ff715b"/><path d="M214.4,49.3A38.8,38.8,0,1,1,175.6,88a38.8,38.8,0,0,1,38.8-38.7m0-3A41.8,41.8,0,1,0,256.2,88a41.8,41.8,0,0,0-41.8-41.7Z" style="fill:#2f2f2f"/><path d="M247,101.7a11.4,11.4,0,0,1-2.1,3,8.7,8.7,0,0,1-2.7,1.7,6.5,6.5,0,0,1-3.1.4,8.2,8.2,0,0,1-3.1-.7,29.4,29.4,0,0,0-5-1.6,26.6,26.6,0,0,0-5-.9h-4.6l-5,.3-4.7.5-3.6.7a3.2,3.2,0,0,1-1.9.1,1.5,1.5,0,0,1-1.2-.8,1.4,1.4,0,0,1,.1-1.4,4.4,4.4,0,0,1,1.4-1.8c.4-.3.5-.5.5-.6l-.9-.3a22.2,22.2,0,0,1-3.1-1,1.9,1.9,0,0,0-1.2-.2l-1.2.8a20,20,0,0,1-8.8,5.1,11.9,11.9,0,0,1-2.6.5h-2.3a5.3,5.3,0,0,1-1.9-.6,4.3,4.3,0,0,1-1.2-1.1c-.5-.9-.3-1.5.7-1.8A47.2,47.2,0,0,0,196.4,97a2.8,2.8,0,0,0,.8-.9c0-.2-.2-.6-.8-1.1a23.2,23.2,0,0,1-3.8-4.4,5.6,5.6,0,0,1-.8-2.2,13.1,13.1,0,0,1,0-2.8c0-.6,0-.9-.2-1.1h-.9a32.9,32.9,0,0,0-4.6.8c-2,.4-3.3.2-3.9-.5s-.4-1.6.5-2.8a5.8,5.8,0,0,1,2.3-2.2,3.4,3.4,0,0,1,1.9-.3l1.8.2h3.1a3.5,3.5,0,0,0,1.6-.3,2.6,2.6,0,0,0,.8-1.1,31.9,31.9,0,0,1,2.6-4.7,49,49,0,0,1,3.6-5.2,5,5,0,0,1,2.7-1.9,3.7,3.7,0,0,1,2.9,1.1,3.4,3.4,0,0,1,1.2,3,5.7,5.7,0,0,1-2.1,3.4l-2.2,2.1c-.6.8-1.2,1.5-1.7,2.3s-.4.7-.3.8.6.2,1.3.2h1.2l1-.3a4.1,4.1,0,0,1,2-.2,2.1,2.1,0,0,1,1.7,1.1,5.1,5.1,0,0,1,.8,1.9,2.5,2.5,0,0,1-.4,1.6,13.4,13.4,0,0,0-.7,1.8,9,9,0,0,0-.4,1.9,22.5,22.5,0,0,1-2.1,6.7,1.9,1.9,0,0,0-.5,1.1c0,.2.2.4.5.6l1.4.7,1.4.8a2.9,2.9,0,0,1,1.5,1.4c.1.3.4.6,1.1.8a6.8,6.8,0,0,0,2.6.4h7.3c.9,0,1.4-.2,1.6-.5a8.2,8.2,0,0,0,.4-2.7c.1-1.3-.1-2.1-.6-2.5a4.2,4.2,0,0,0-2.5-.4l-3.2.2L214,94a3,3,0,0,1-1.8.2,1.9,1.9,0,0,1-1.2-.7,1.5,1.5,0,0,1-.4-1.1,3.1,3.1,0,0,1,.7-1.4,4.8,4.8,0,0,1,2.2-1.5,3.8,3.8,0,0,1,2.3-.2,6.8,6.8,0,0,0,2.3.2H221a2,2,0,0,0,1.4-.6,3.1,3.1,0,0,0,.4-2,4.9,4.9,0,0,0-.3-2,1.1,1.1,0,0,0-1.1-.6h-5.3a3.5,3.5,0,0,0-1.3.3l-.9.7a4.4,4.4,0,0,1-1.1.9,4.1,4.1,0,0,1-1.1.7,2.6,2.6,0,0,1-1.4.4,2.4,2.4,0,0,1-1.5-.2c-.4-.2-.6-.4-.6-.8a1.9,1.9,0,0,1,.7-1.2,15.5,15.5,0,0,0,3.1-4.6,14.6,14.6,0,0,0,1.3-5.8,3.2,3.2,0,0,1,1.1-2.3,2.8,2.8,0,0,1,2.4-.3c1.9.4,2.7,1.8,2.3,4.2a10.5,10.5,0,0,1-.6,2.4q-.5,1.1,0,1.5a2.4,2.4,0,0,0,1.7.2,4.8,4.8,0,0,0,2.2-.3c.3-.2.5-.7.5-1.5,0-3.1-.1-6-.2-8.7s.2-3.1.7-3.6,1.6-.6,3,.1a9.2,9.2,0,0,1,2.3,1.4,3.9,3.9,0,0,1,1.2,1.4,5.4,5.4,0,0,1,.3,1.9c0,.8-.1,1.7-.1,2.9a15,15,0,0,0-.2,2.2,26.5,26.5,0,0,1-.2,2.7,1.4,1.4,0,0,0,.2,1.2c.1.2.6.3,1.2.4l4.4.3,4.5.3c1.4.2,2,.8,1.8,1.7a1.9,1.9,0,0,1-.7,1.2,3,3,0,0,1-1.5.2h-8.3c-.8,0-1.3.2-1.5.5a5.1,5.1,0,0,0-.5,2q-.2,1.8.3,2.1a3.1,3.1,0,0,0,2,.4h3.5l3.4.2a10.3,10.3,0,0,1,2.2.5,1.1,1.1,0,0,1,.6,1.2,2.4,2.4,0,0,1-.7,1.6c-.4.4-1.3.5-2.6.5h-7.1a2.4,2.4,0,0,0-1.6.4A5.6,5.6,0,0,0,229,96a5.3,5.3,0,0,0,0,1.8,1.3,1.3,0,0,0,.3,1,1.4,1.4,0,0,0,.8.5h1.5q6-.2,14.4,0C247.3,99.4,247.6,100.2,247,101.7ZM202.8,84.8c.1-1.1-.4-1.6-1.6-1.6l-1.7.2-1,.3a1.7,1.7,0,0,0-.6.6l-.3.8a8.6,8.6,0,0,0-.1,3.2,6.8,6.8,0,0,0,2.3,3.5c.3.4.6.5.8.4a1.2,1.2,0,0,0,.7-.7,10.1,10.1,0,0,0,1.1-3.2A20.9,20.9,0,0,0,202.8,84.8Z" style="fill:#2f2f2f"/><circle cx="321.5" cy="88" r="48.1" style="fill:#e2dccc"/><path d="M321.5,41.5A46.6,46.6,0,1,1,274.9,88a46.6,46.6,0,0,1,46.6-46.5m0-3A49.6,49.6,0,1,0,371,88a49.6,49.6,0,0,0-49.5-49.5Z" style="fill:#2f2f2f"/><circle cx="321.5" cy="88" r="40.3" style="fill:#ff715b"/><path d="M321.5,49.3A38.8,38.8,0,1,1,282.7,88a38.8,38.8,0,0,1,38.8-38.7m0-3A41.8,41.8,0,1,0,363.2,88a41.8,41.8,0,0,0-41.7-41.7Z" style="fill:#2f2f2f"/><path d="M348.9,93.1c-.1.8-.2,1.7-.3,2.8s-.3,2.6-.4,4.8a11.3,11.3,0,0,1-.6,3.1,2.9,2.9,0,0,1-1.2,1.6,3.8,3.8,0,0,1-1.9.4,8.8,8.8,0,0,1-2.6-.6l-1.7-.5-1.8-.2a30.9,30.9,0,0,0-4.5-.3h-15a3.4,3.4,0,0,0-1.8.8,1.9,1.9,0,0,1-.9.5l-1.3.3a2.9,2.9,0,0,1-2.6-1.1,7.4,7.4,0,0,1-1.1-4,28.1,28.1,0,0,0-.1-3c0-.8-.1-1.6-.1-2.3a11.5,11.5,0,0,0-.1-1.9V91.8a1.3,1.3,0,0,0-.3-1c-.1-.1-.7,0-1.8.4l-4.4,1.5-4.1,1.1-3.3.8-2.3.2a5.6,5.6,0,0,1-4.2-1.2,5.3,5.3,0,0,1-2.1-2.7c-.2-.6-.3-1.1-.1-1.4a1.1,1.1,0,0,1,.9-.4l4.8-.5,5.4-.9,6.3-1.5,7.6-2.1a50.5,50.5,0,0,0,5.5-1.8c1.8-.6,3.4-1.3,5-2s3-1.4,4.2-2.1a16.7,16.7,0,0,0,3.1-2,1.5,1.5,0,0,0,.7-1c0-.4-.3-.7-.8-.9l-1.1-.2h-5c-1-.1-2.1,0-3.3,0a5.2,5.2,0,0,0-2.1.4c-.3.1-.5.3-.8.3l-.8.3c-.1.1-.1.1-.1.3a.5.5,0,0,0,.3.4c.1.3.6.5,1.2.7a10.3,10.3,0,0,0,2.1.7l2.1.6,1.4.3c.6.1,1,.2,1,.4s-.3.5-1,1a11.3,11.3,0,0,1-2.2,1.1,12.8,12.8,0,0,1-2.7.5,12.2,12.2,0,0,1-2.7-.1,11,11,0,0,1-2.6-.6c-.7-.3-1.2-.6-1.3-1.1a2.5,2.5,0,0,1,.1-1.7c.4-.9.2-1.2-.5-1L306.4,78l-3.7.7a9.9,9.9,0,0,1-3.3-.4,3.8,3.8,0,0,1-2-2.3,1.4,1.4,0,0,1,.1-1.1.8.8,0,0,1,1-.5h2.4l3.4-.4,3.6-.5,3.1-.7a22,22,0,0,0,5.9-2.3,29.5,29.5,0,0,0,5.1-3.6,5.3,5.3,0,0,1,2.7-1.5,2.9,2.9,0,0,1,2.3.7,2.2,2.2,0,0,1,1,1.5,4.5,4.5,0,0,1-.3,1.6c-.3.5,0,.8.7.9l2.8.4a23,23,0,0,1,2.8.6l2,.2,2.9-.2a5.9,5.9,0,0,1,3,.3,4.2,4.2,0,0,1,1.9,1.5,2.9,2.9,0,0,1,.1,3.1c-.5,1-1.7,1.8-3.6,2.5l-2.8,1.1-5.3,2.1-6.5,2.7-6.2,2.5-1.2.6a.3.3,0,0,0,0,.5,2,2,0,0,0,.9.5h1.3l6.4-.7,4.2-.2,3.2.2,3.2.5a12.7,12.7,0,0,0,3.5.5,8.8,8.8,0,0,0,2.9-.6l1.6-.3a4.1,4.1,0,0,1,1.6.5,4.3,4.3,0,0,1,1.6,1.7A6.4,6.4,0,0,1,348.9,93.1Zm-6.7.4a1.2,1.2,0,0,0-.3-.9,2.8,2.8,0,0,0-1.6-.4l-4.8-.2H330l-5.8.2-5.5.5-1,.3a.9.9,0,0,0-.4.8,15,15,0,0,0-.2,2.2,19.3,19.3,0,0,0,.1,2.4,1.9,1.9,0,0,0,.4,1.1c.1.2.5.3,1.1.3h16.7l4.3-.2c1.3,0,2-.5,2.2-1.2s.1-1.1.2-2.1A24.4,24.4,0,0,0,342.2,93.5Z" style="fill:#2f2f2f"/><circle cx="428.5" cy="88" r="48.1" style="fill:#e2dccc"/><path d="M428.5,41.5A46.6,46.6,0,1,1,382,88a46.6,46.6,0,0,1,46.5-46.5m0-3A49.6,49.6,0,1,0,478.1,88a49.5,49.5,0,0,0-49.6-49.5Z" style="fill:#2f2f2f"/><circle cx="428.5" cy="88" r="40.3" style="fill:#ff715b"/><path d="M428.5,49.3A38.8,38.8,0,1,1,389.8,88a38.8,38.8,0,0,1,38.7-38.7m0-3A41.8,41.8,0,1,0,470.3,88a41.7,41.7,0,0,0-41.8-41.7Z" style="fill:#2f2f2f"/><path d="M413.5,87.4l-1.7.4a12,12,0,0,1-2,.3h-2.6l-3.3-.3a9.7,9.7,0,0,1-5.3-1.7,2.6,2.6,0,0,1-1-3.1,3,3,0,0,1,1.5-1.9,6.7,6.7,0,0,1,3.1-.2l1.2.3,1.8.9a53.1,53.1,0,0,0,5,2.4,13.5,13.5,0,0,0,3.2,1q1.2.3,1.2.9C414.7,86.8,414.3,87.1,413.5,87.4Zm2.2,7a3.4,3.4,0,0,1-.6,1.2,5.7,5.7,0,0,1-1,1.3l-1.9,1.6a20.4,20.4,0,0,1-2.9,2,8.5,8.5,0,0,1-1.8,1l-1.3.6h-1.1l-1.2-.2a3.4,3.4,0,0,1-1.9-1,2.4,2.4,0,0,1-.7-1.7,2.9,2.9,0,0,1,1-2.3,5,5,0,0,1,2.7-1.8l4.7-1.3,4.7-1.3q1.2-.3,1.5,0C416.1,92.8,416,93.4,415.7,94.4Zm-1.5-18.9c1.2.8,1.6,1.4,1.4,1.8a2.3,2.3,0,0,1-1.9.9h-2.6l-3-.5a13.1,13.1,0,0,1-2.8-.9,6.2,6.2,0,0,1-2-1.1,3.3,3.3,0,0,1-1.2-1.5,2.4,2.4,0,0,1-.2-1.4,4.7,4.7,0,0,1,1-2,2.1,2.1,0,0,1,1.9-.7l1.3.2,1.2.4,1.5.9,2.1,1.5,1.8,1.3A9.5,9.5,0,0,0,414.2,75.5Zm15.7,4.3a42.6,42.6,0,0,1-.6,9.8,25.6,25.6,0,0,1-2.9,7.6c-.6,1-1.2,1.8-1.7,2.5a15.7,15.7,0,0,1-1.9,1.8l-2.2,1.6-2.8,1.6a10.4,10.4,0,0,1-4.4,1c-1.4,0-2.4-.2-2.9-.8a1.5,1.5,0,0,1-.6-1.3,1.5,1.5,0,0,1,1.3-.9l2.5-.9a20,20,0,0,0,2.9-1.5,12.6,12.6,0,0,0,2.8-1.9,12.1,12.1,0,0,0,2.3-2.2,15.1,15.1,0,0,0,3.4-7.2,26.6,26.6,0,0,0,0-8.9,3.5,3.5,0,0,1,.3-2.5,1.6,1.6,0,0,1,1.5-.9,3.9,3.9,0,0,1,2.1.8A3,3,0,0,1,429.9,79.8Zm8.3-4.6a6.7,6.7,0,0,0-.3,1.8,14.7,14.7,0,0,0-.2,2.5V90.8a8.3,8.3,0,0,1-.6,3.4,2.7,2.7,0,0,1-2.2,1.4,2.2,2.2,0,0,1-1.8-.3,2.1,2.1,0,0,1-.5-1.5V87.3c.1-3,.1-6.4.1-10.3a3.2,3.2,0,0,0-.6-2.2,2.8,2.8,0,0,0-1.9-.7h-2.6l-3.5.2-1.1.3a1,1,0,0,0-.4.9c-.2,3-.4,5.6-.4,7.7s0,4.3.1,6.4a6.9,6.9,0,0,1-.5,3.7,3.1,3.1,0,0,1-2,1.4,1.4,1.4,0,0,1-.9,0,.9.9,0,0,1-.6-.6,2.6,2.6,0,0,1-.3-1.4,22.7,22.7,0,0,1,.1-2.4c.1-1.1.1-2.4.2-3.8s0-3-.1-4.5-.1-2.9-.2-4.3-.3-2.6-.5-3.6a9.4,9.4,0,0,1-.1-3.3,2.8,2.8,0,0,1,1.2-2,2.4,2.4,0,0,1,2-.3,2.7,2.7,0,0,1,1.6.8,4.7,4.7,0,0,0,1.1,1,1.6,1.6,0,0,0,1,.2h6.1a4.4,4.4,0,0,0,2.5-.6,3.5,3.5,0,0,1,2.5-1,2.6,2.6,0,0,1,2,1,5,5,0,0,1,1,2.4A11.4,11.4,0,0,1,438.2,75.2Zm-.1,29.1a2,2,0,0,1-2,.1,6.5,6.5,0,0,1-2.3-1.3c-.7-.8-1.4-1.4-1.8-1.8l-1.3-.9a4.6,4.6,0,0,1-1.6-1.3,2.5,2.5,0,0,1-.1-3.5,2,2,0,0,1,2.2-.7,4.1,4.1,0,0,1,2.4,1.9l.9,1.4.9,1.1.9,1,1.2,1.2a4,4,0,0,1,.9,1.7A1,1,0,0,1,438.1,104.3Zm18-6.7a10,10,0,0,1-1.3,6.4,7.6,7.6,0,0,1-4.3,3.3,8,8,0,0,1-3.1.3,9.6,9.6,0,0,1-2.9-.8A8.8,8.8,0,0,1,442,105a8.8,8.8,0,0,1-1.7-2.8c-.2-.6-.3-1-.1-1.2s.4-.1.8.2a9.1,9.1,0,0,0,3.1,1.2,5.1,5.1,0,0,0,3-.6,5,5,0,0,0,2.3-2,6.9,6.9,0,0,0,.9-3.6v-12c0-3-.1-5.3-.1-7.1s-.1-3-.2-3.8-.3-1.6-.4-2.3-.2-3.4.5-4,1.6-.8,3-.4a3.9,3.9,0,0,1,1.7.9,2.4,2.4,0,0,1,1.1,1.3,6,6,0,0,1,.4,2.1c0,.8-.1,1.9-.2,3.1a23.1,23.1,0,0,0-.3,4.3c-.1,1.9-.1,4-.2,6.2s0,4.5.1,6.9S455.9,95.8,456.1,97.6ZM446.3,78a28.9,28.9,0,0,0-.4,4.5,61,61,0,0,0,.2,7,7.3,7.3,0,0,1-.5,3.7,2.6,2.6,0,0,1-2.1,1.3c-1.1.1-1.8,0-2-.3a4.4,4.4,0,0,1-.2-2.3,59.9,59.9,0,0,0,.2-7.3,65,65,0,0,0-.4-6.6,9.8,9.8,0,0,1-.1-2.9,4.4,4.4,0,0,1,.7-1.9l.7-.4h2a.9.9,0,0,1,.6.4,5.7,5.7,0,0,1,1.3,2.4A9.6,9.6,0,0,1,446.3,78Z" style="fill:#2f2f2f"/><circle cx="535.6" cy="88" r="48.1" transform="translate(326.8 589.1) rotate(-76.7)" style="fill:#e2dccc"/><path d="M535.6,41.5A46.6,46.6,0,1,1,489,88a46.5,46.5,0,0,1,46.6-46.5m0-3A49.6,49.6,0,1,0,585.1,88a49.6,49.6,0,0,0-49.5-49.5Z" style="fill:#2f2f2f"/><path d="M535.6,128.3A40.3,40.3,0,1,1,575.9,88,40.4,40.4,0,0,1,535.6,128.3Z" style="fill:#ff715b"/><path d="M535.6,49.3A38.8,38.8,0,1,1,496.8,88a38.8,38.8,0,0,1,38.8-38.7m0-3A41.8,41.8,0,1,0,577.4,88a41.8,41.8,0,0,0-41.8-41.7Z" style="fill:#2f2f2f"/><path d="M567.5,94.3a14.5,14.5,0,0,1-2.1,2.9,13.9,13.9,0,0,1-2.7,1.7,4.7,4.7,0,0,1-1.7.7,3.2,3.2,0,0,1-1.7.1,9,9,0,0,1-2.4-.7L553,97.4l-1.2-.4-1.8-.5-2.2-.7-2.2-.6c-.6-.1-.9.1-.8.8a30.8,30.8,0,0,1,.2,3.3c.1,1.2.1,2.5.2,4a6,6,0,0,1,0,1.9,2.5,2.5,0,0,1-.4,1.3,2.4,2.4,0,0,1-1.1.8l-2,.4h-2a1.9,1.9,0,0,1-1.1-.5,2.6,2.6,0,0,1-.5-1.4,10.3,10.3,0,0,1,0-2.5c0-1.6.1-3,.1-4.2s.1-2.5.2-4a.6.6,0,0,0-.7-.7h-5.5a.5.5,0,0,0-.6.6,10.8,10.8,0,0,1-1.1,2.8,12,12,0,0,1-1.6,2.7,11.4,11.4,0,0,1-2,2.3,10.6,10.6,0,0,1-2.3,1.6,15.3,15.3,0,0,1-3.8,1.2,16.1,16.1,0,0,1-3.7.4,15.8,15.8,0,0,1-3.2-.3,4.2,4.2,0,0,1-2-1c-.9-.8-1.2-1.6-.9-2.3s.9-1,1.9-.9a14,14,0,0,0,5.5-.2,12,12,0,0,0,4.4-2.4l1.4-1.4a21.7,21.7,0,0,0,1-2.1q.1-.9-.6-.9A86.7,86.7,0,0,0,513,95.8a28.6,28.6,0,0,0-6.7,2,2.2,2.2,0,0,1-2.4.1,1.8,1.8,0,0,1-.8-.9,2.4,2.4,0,0,1-.1-1.5,4,4,0,0,1,.8-2,6.3,6.3,0,0,1,1.7-1.3,4.1,4.1,0,0,1,1.8-.7,5,5,0,0,1,1.7.1l4,.2a16.2,16.2,0,0,0,3.3-.2l3.3-.4,5.6-.3a.5.5,0,0,0,.5-.3,2.8,2.8,0,0,0,.1-1.1,1.4,1.4,0,0,0-.2-.6h-1.5L523,89a4.5,4.5,0,0,0-1.1.3l-1.6.6h-1a1.5,1.5,0,0,1-.5-.9c-.1-.4-.2-1-.3-1.7s-.1-1.2-.2-1.9-.1-1.4-.2-2.2l-.3-2c0-.7-.1-1.2-.1-1.5a5.6,5.6,0,0,1,.3-2.9,2.3,2.3,0,0,1,1.5-1.4,2.8,2.8,0,0,1,1.8,0,5.2,5.2,0,0,0,2.1.2,34.8,34.8,0,0,1,4.9-.3h5.5l5.1.2,3.8.4,2.3.3a2.8,2.8,0,0,0,1.3-.3,3.3,3.3,0,0,1,3.9,0,4.2,4.2,0,0,1,1.1,1.3,5.4,5.4,0,0,1,.2,2.4c-.1,1-.1,2.3-.1,3.8s-.1,2.6-.1,3.6a1.9,1.9,0,0,1-.5,1.3,3.1,3.1,0,0,1-1.1.9,4.1,4.1,0,0,1-1.6.3,5.5,5.5,0,0,1-1.8-.1c-1-.3-1.5-.2-1.5.4a3.1,3.1,0,0,0,.1,1.1l.4.2,7.6.6,6.5.5,4.7.4h2.3c.8.1,1.2.2,1.4.4A1.9,1.9,0,0,1,567.5,94.3Zm-7.6-19.9c-.3.8-1.2,1.1-2.6.8l-4.8-1.3a18.4,18.4,0,0,1-4.3-1.5,1.1,1.1,0,0,0-.8,0,2.2,2.2,0,0,0-.3.9c-.2,1.2-.5,1.9-1.1,2.2a3.8,3.8,0,0,1-2.3.3,1,1,0,0,1-.9-.6,2.8,2.8,0,0,1-.2-1.4c.1-.9.1-1.4-.1-1.6s-.4-.1-.8.1L539,73.6l-2.8,1.2a6.3,6.3,0,0,1-3,.2,2.3,2.3,0,0,1-1.8-1l-.2-.2v-.2c.3-.5.3-.7-.1-.8l-1.3-.5-1.4-.5c-.3-.2-.6-.2-.7-.1a1.7,1.7,0,0,0-.1,1.2,2.3,2.3,0,0,1-.8,1.6,5.3,5.3,0,0,1-2.5.8q-1,.2-1.2-.3a3.5,3.5,0,0,1,0-1.5c.3-1.3,0-1.7-.9-1.3a22.5,22.5,0,0,1-3.1,1.6l-3.7,1.4-2.7.7h-1.8a2.6,2.6,0,0,1-1.3-.8,14.2,14.2,0,0,1-1.1-1.6c-.4-.8-.5-1.3-.4-1.5s.8-.5,1.9-.6l3.4-.6a33.1,33.1,0,0,0,4.2-1.2l4-1.5,2.8-1.4A5.9,5.9,0,0,1,526,66a2.6,2.6,0,0,1,1.6.2c.7.4,1,.9.8,1.5a.8.8,0,0,0,.3.9l1.4.7,1,.5.9.4,1.1.4c.4.1.7.2.7.4a.4.4,0,0,1,0,.5.7.7,0,0,0,.1.5h.7l3.7-1.8a26.5,26.5,0,0,0,3.9-2.6c1.4-1.1,2.7-1.4,3.7-.8a1.9,1.9,0,0,1,1.1,1.3c0,.3.1.4.4.5l3.3,1.2,2.5.9,2.4.7,2.6.8a3.6,3.6,0,0,1,1.9.9A1.7,1.7,0,0,1,559.9,74.4Zm-14.5,4.9a1,1,0,0,0-.3-.8l-1.2-.3-3.1-.2-4.8-.2H524.7c-.5,0-.8.3-.7.8a.7.7,0,0,0,.7.6h10l5.3.2,4.7.2h.6A.7.7,0,0,0,545.4,79.3Zm0,2.9c0-.4-.2-.7-.6-.7H525a.5.5,0,0,0-.6.6c0,.6.2.8.6.8h19.7c.3,0,.4,0,.5-.2A.6.6,0,0,0,545.4,82.2Zm-.2,3.1c.1-.5-.2-.7-.7-.7h-8.8c-3.1.1-6.4.2-9.9.5h-1c-.2.1-.3.2-.3.4s.2.7.7.7c3.8-.2,7.1-.4,10-.4s5.4.1,7.8.3,1.5.1,1.7-.1S545.1,85.7,545.2,85.3Zm-6.7,3.9c0-.4-.2-.7-.6-.7h-5.5c-.4,0-.6.2-.6.7a3.5,3.5,0,0,0,.1,1.2.6.6,0,0,0,.6.3h5.3a.8.8,0,0,0,.6-.2A3.8,3.8,0,0,0,538.5,89.2Z" style="fill:#2f2f2f"/><polyline points="297.7 155.1 297.7 155.1 297.7 155.1" style="fill:#424342"/><g id="椭圆_1_拷贝_4" data-name="椭圆 1 拷贝 4"><path d="M457.2,226.3H292.8a9.1,9.1,0,0,0-9.1-9.1h0V160.6a9.2,9.2,0,0,0,9.1-9.2H457.2a9.2,9.2,0,0,0,9.1,9.2v56.6a9.1,9.1,0,0,0-9.1,9.1Z" style="fill:#ff715b"/><path d="M457.2,227.3H292.8a1,1,0,0,1-1-1,8.1,8.1,0,0,0-8.1-8.1,1,1,0,0,1-1-1V160.6a.9.9,0,0,1,1-1,8.2,8.2,0,0,0,8.1-8.2,1.1,1.1,0,0,1,1-1H457.2a1.1,1.1,0,0,1,1,1,8.2,8.2,0,0,0,8.1,8.2.9.9,0,0,1,1,1v56.6a1,1,0,0,1-1,1,8.1,8.1,0,0,0-8.1,8.1A1,1,0,0,1,457.2,227.3Zm-163.4-2H456.2a10.2,10.2,0,0,1,9.1-9.1V161.5a10.2,10.2,0,0,1-9.1-9.1H293.8a10.2,10.2,0,0,1-9.1,9.1v54.7A10.2,10.2,0,0,1,293.8,225.3Z" style="fill:#2f2f2f"/></g><path d="M453.5,155.1h-157a9.2,9.2,0,0,1-9.2,9.1v49.3a9.2,9.2,0,0,1,9.2,9.2h157a9.2,9.2,0,0,1,9.2-9.2V164.2a9.2,9.2,0,0,1-9.2-9.1Z" style="fill:#3f7392"/><path d="M453.5,223.7h-157a1,1,0,0,1-1-1,8.2,8.2,0,0,0-8.2-8.2,1,1,0,0,1-1-1V164.2a1.1,1.1,0,0,1,1-1,8.2,8.2,0,0,0,8.2-8.1.9.9,0,0,1,1-1h157a.9.9,0,0,1,1,1,8.2,8.2,0,0,0,8.2,8.1,1.1,1.1,0,0,1,1,1v49.3a1,1,0,0,1-1,1,8.2,8.2,0,0,0-8.2,8.2A1,1,0,0,1,453.5,223.7Zm-156.1-2H452.6a10,10,0,0,1,9.1-9.1V165.2a10.1,10.1,0,0,1-9.1-9.1H297.4a10.1,10.1,0,0,1-9.1,9.1v47.4A10,10,0,0,1,297.4,221.7Z" style="fill:#2f2f2f"/><path d="M318.5,177.4c0,.3-.1.6-.1.9s-.1.9-.1,1.6a2.5,2.5,0,0,1-.2,1,.7.7,0,0,1-.4.5l-.6.2-.9-.2-.5-.2h-7l-.6.2c0,.1-.1.2-.3.2h-.4a.9.9,0,0,1-.8-.4,1.7,1.7,0,0,1-.4-1.2v-1c0-.3-.1-.6-.1-.8V177c0-.2,0-.3-.1-.3h-.6l-1.4.5-1.3.4-1.1.2h-.8a2.1,2.1,0,0,1-1.4-.4,2.4,2.4,0,0,1-.6-.9.8.8,0,0,1-.1-.4l.3-.2h1.6l1.7-.3,2.1-.5,2.5-.7,1.8-.6,1.6-.7,1.4-.6,1-.7.2-.3-.2-.3h-4.3l.4.3.7.2.7.2h.8l-.3.3-.8.4h-1.7l-.8-.2-.5-.3a1.3,1.3,0,0,1,.1-.6c.1-.3,0-.4-.2-.3l-2.2.5-1.2.2h-1.1a1.3,1.3,0,0,1-.6-.8v-.3l.3-.2h1.9l1.2-.2,1.1-.2,1.9-.8a8.3,8.3,0,0,0,1.6-1.2l.9-.5a1.3,1.3,0,0,1,.8.3.5.5,0,0,1,.3.5,1.1,1.1,0,0,1-.1.5c-.1.2,0,.2.2.3h.9l.9.2h2.6a1,1,0,0,1,.6.5.9.9,0,0,1,.1,1,2.3,2.3,0,0,1-1.2.8l-.9.4-1.8.7-2.1.8-2,.9-.4.2h0l.3.2h.4l2.1-.3h2.4l1.1.2a2.2,2.2,0,0,0,1.1.1h2a1.3,1.3,0,0,1,.5.6A1.1,1.1,0,0,1,318.5,177.4Zm-2.2.2c0-.2,0-.3-.1-.3a.6.6,0,0,0-.5-.2h-5.3l-1.8.2h-.3v.2a2.2,2.2,0,0,0-.1.8,1.7,1.7,0,0,0,.1.7c0,.2,0,.4.1.4h7.2a.7.7,0,0,0,.7-.4c0-.2.1-.4.1-.7Z" style="fill:#e2dccc"/><path d="M339.1,170.6a.5.5,0,0,1-.2.4c0,.1-.2.2-.5.2h-4.9v.3a1.4,1.4,0,0,1-.2.7l-.3.8-.2.5v6.7c0,.3-.1.6-.1.8a.8.8,0,0,1-.2.5l-.4.2-.8.3a.9.9,0,0,1-.8-.4,1.1,1.1,0,0,1-.2-1v-2.1a15.5,15.5,0,0,0,.1-2.2c0-.4-.1-.4-.5-.1l-1.9,1.5-1.4.8-2.2.9-1.4.3c-.5-.1-.9-.1-1.1-.3a.9.9,0,0,1-.6-.6c-.2-.3-.1-.5.3-.5l1.4-.4,1.5-.6,1.4-.6,1.1-.6,1.9-1.4,1.2-1.2.7-1.1a2.9,2.9,0,0,0,.2-.9c0-.2,0-.3-.1-.3h-1.9l-1.5.2-1.5.2a1,1,0,0,1-.9.1l-.6-.4a.7.7,0,0,1-.1-.6,1,1,0,0,1,.5-.8,2,2,0,0,1,2-.2h11.7l.5.2C339.1,170.2,339.1,170.3,339.1,170.6Zm2.5,8.2a2.2,2.2,0,0,1-.6.7l-.6.5a2.1,2.1,0,0,1-1.2.3,1.7,1.7,0,0,1-1.2-.6l-.7-.8-.7-.9-1.3-1.6-.9-1.1-.7-.5a1,1,0,0,0-.5-.4c-.2-.1-.2-.2-.2-.4l.2-.4a.6.6,0,0,1,.5-.2c.1,0,.3.1.6.4l2.2,1.6,2,1.3,1.7.9a2.8,2.8,0,0,0,1.2.5A.4.4,0,0,1,341.6,178.8Z" style="fill:#e2dccc"/><path d="M347.3,172.4c-.1,1.3-.2,2.4-.2,3.2a19.1,19.1,0,0,0-.2,2,5.3,5.3,0,0,1-.3,1.1l-.4.8a3.3,3.3,0,0,1-1.3,1.1,1.7,1.7,0,0,1-1.4.2l-.6-.4a1.6,1.6,0,0,1-.3-.6c0-.2.1-.3.3-.4a2.8,2.8,0,0,0,1.5-.8,4.5,4.5,0,0,0,1.1-1.7,6.3,6.3,0,0,0,.3-1.3,13.3,13.3,0,0,0,0-2,12.1,12.1,0,0,0-.1-1.9,2.5,2.5,0,0,0-.3-1.2.6.6,0,0,1-.1-.4c0-.2,0-.3.1-.4l.2-.4h.4c.8,0,1.2.7,1.3,2Zm1.9-1c0,.5-.1,1-.1,1.5s-.1,1.2-.1,1.8-.1,1.3-.1,2a13.4,13.4,0,0,1-.1,2,2.9,2.9,0,0,1-.2,1.2.5.5,0,0,1-.6.4l-.3-.2c-.1,0-.2-.1-.2-.3a1.5,1.5,0,0,1-.1-.7,5.7,5.7,0,0,1,.1-1.2c.1-.9.1-1.7.2-2.5s.1-1.3.1-1.9v-1.4a6.2,6.2,0,0,1-.1-1.3.8.8,0,0,1,.1-.7.4.4,0,0,1,.5-.2C349,169.9,349.3,170.5,349.2,171.4Zm2.3-.2c-.1.4-.1,1-.2,1.7s-.1,1.6-.1,2.4v2.5a10.3,10.3,0,0,0,.1,1.9,1.9,1.9,0,0,1-.1.8,1.5,1.5,0,0,1-.8.4c-.3.1-.6.1-.7-.1a1.1,1.1,0,0,1-.1-.9,5.7,5.7,0,0,1,.1-1.2V177c0-.6.1-1.3.1-1.9v-4.7a2.2,2.2,0,0,1,.2-1c.1-.1.3-.2.7-.1a1.2,1.2,0,0,1,.8.6A2.8,2.8,0,0,1,351.5,171.2Zm5.9,3.3a4.1,4.1,0,0,1,.1,1.1,5.3,5.3,0,0,1-.1,1.2,11.2,11.2,0,0,1-.5,1.3l-.8,1.7a3.3,3.3,0,0,1-1,1.1,3.5,3.5,0,0,1-1.6.8,3.2,3.2,0,0,1-1.6.2.7.7,0,0,1-.7-.5c-.1-.3-.2-.4-.1-.5h.3a4.3,4.3,0,0,0,1.3-.5,2.5,2.5,0,0,0,1.2-.8,5.5,5.5,0,0,0,1.5-2,4.7,4.7,0,0,0,.3-2.3,3.7,3.7,0,0,1,.1-1.1.7.7,0,0,1,.6-.4h.6A1.6,1.6,0,0,1,357.4,174.5Zm5.9-4.3a2.8,2.8,0,0,1-.9,1l-.4.2h-1l-.8-.3h-.8l-1.4-.2c-.3,0-.5.1-.5.5a.4.4,0,0,0,0,.5l.3.2h.6a1.2,1.2,0,0,0,.8-.1.7.7,0,0,1,.6-.2l.6.2.5.5a2,2,0,0,1-.1.7,3.5,3.5,0,0,0-.1.6v2.4a5.7,5.7,0,0,0,.1,1.3,1.9,1.9,0,0,1-.2.8,1,1,0,0,1-.5.4h-.9a.5.5,0,0,1-.3-.5v-2.2a5.3,5.3,0,0,1,.1-1.3V174a2,2,0,0,0-.1-.5l-.5-.2h-4.2a.8.8,0,0,1-.1.4v4.1a1.1,1.1,0,0,1-.2.6c-.1.2-.4.3-.7.4s-.5,0-.6-.2a.6.6,0,0,1-.1-.6c.1-1.1.1-2,.1-2.8a6.2,6.2,0,0,0-.1-1.6,3.4,3.4,0,0,1-.1-.9.5.5,0,0,1,.3-.5,2.3,2.3,0,0,1,.5-.5,1.3,1.3,0,0,1,.8.2h1.3c.1,0,.1-.1.1-.2a.6.6,0,0,0,.1-.4.4.4,0,0,1,.1-.3c0-.2-.1-.3-.4-.3l-1.2.2-1.3.3h-.5l-.4-.3a.6.6,0,0,1-.1-.4.6.6,0,0,1,.2-.5c.5-.4.8-.6,1.1-.6h.7l.6.2h8.6C363.3,169.7,363.4,169.9,363.3,170.2Zm-.8,11.8h-.3l-.7-.2-1.8-.9-1.8-1.2c-.4-.3-.7-.5-.7-.7a.6.6,0,0,1,.1-.7,1,1,0,0,1,1.4,0l1.4,1.2,2.1,1.7.5.4C362.7,181.8,362.7,181.9,362.5,182Z" style="fill:#e2dccc"/><path d="M372.5,173a9.7,9.7,0,0,1-.2,3,8.5,8.5,0,0,1-.9,2.4,13.6,13.6,0,0,1-1.6,1.7,3.5,3.5,0,0,1-1.6.8l-1.5.3-1.2-.4-.5-.6c0-.2-.1-.3,0-.5l.3-.3a.8.8,0,0,1,.7-.1h.9l1-.2.9-.4.7-.6a4.1,4.1,0,0,0,1.1-2.3,14,14,0,0,0,0-2.9,1,1,0,0,1,.1-.8l.7-.2c.2,0,.4.2.7.4A1.2,1.2,0,0,1,372.5,173Zm3.4-1.9a2.4,2.4,0,0,0-.1.7v4.9c0,.2,0,.3-.1.4s-.2.3-.4.3l-.6.3a.6.6,0,0,1-.6-.1c-.2-.1-.2-.3-.2-.7v-5.1a.5.5,0,0,0-.4-.5l-.7-.2h-3.1c-.1,0-.2.1-.2.3a15.5,15.5,0,0,0-.1,2.1,18.5,18.5,0,0,0,.1,2.3v.7a1.1,1.1,0,0,1-.2.6l-.3.3-.6.2a.8.8,0,0,1-.7-.4,3.4,3.4,0,0,1-.1-1.5c0-.4.1-.9.1-1.3v-1.2a3.7,3.7,0,0,0-.1-1.1v-.8a2,2,0,0,1-.1-.7v-.8l.2-.3.4-.2h.9l.4.3c0,.2.1.2.2.2l1.5-.2h1.6a1.4,1.4,0,0,0,.9,0h1.7l.3.3a3.3,3.3,0,0,0,.3.6A1.3,1.3,0,0,1,375.9,171.1Zm.4,9.3-.4.2-.6-.2-1.1-.7-.7-.4-.5-.2-.5-.3c-.1-.1-.3-.2-.3-.4s-.1-.2-.1-.4a.8.8,0,0,1,.1-.4l.3-.3.7-.2a2.5,2.5,0,0,1,.8.5l.4.4.6.5.7.5.4.5c.3.3.4.5.4.6S376.5,180.4,376.3,180.4Zm7.5-2.6a4.6,4.6,0,0,1-.3,2.5,2.9,2.9,0,0,1-1.8,1.2,3.9,3.9,0,0,1-1.4.2h-1.1a2.4,2.4,0,0,1-.9-.6,5,5,0,0,1-1.1-1c-.2-.1-.2-.2-.2-.4s-.1-.2,0-.2l.2-.2h.4a3.5,3.5,0,0,0,1.3.5,2.2,2.2,0,0,0,1.2-.2,1.4,1.4,0,0,0,.9-.8,3.3,3.3,0,0,0,.4-1.5c0-1,.1-1.8.1-2.5v-1.9c0-.5-.1-1.1-.1-1.6s-.1-1-.2-1.6,0-.8.2-1,.6-.3,1.2-.1,1.1.5,1.2.9a3.2,3.2,0,0,1,0,1.7,5.9,5.9,0,0,0-.2,1.3,8.6,8.6,0,0,0-.1,1.6c0,.6.1,1.2.1,1.8A13.7,13.7,0,0,0,383.8,177.8Zm-3.8-5.5a.7.7,0,0,0-.1.5v.7a3.1,3.1,0,0,0-.1,1c0,.3.1.7.1,1a2.9,2.9,0,0,1-.2,1.2,1.3,1.3,0,0,1-.9.4h-.5c-.2,0-.3-.2-.4-.3a1.4,1.4,0,0,1-.2-.7v-1.2a3.2,3.2,0,0,0,0-1.6v-.8a4.3,4.3,0,0,0-.1-.5,1.7,1.7,0,0,1-.1-.7.9.9,0,0,1,.4-.6,1,1,0,0,1,.7-.2,1.2,1.2,0,0,1,.9.6l.5.6Z" style="fill:#e2dccc"/><path d="M407.2,171.8a1.9,1.9,0,0,1-.5.9l-.9.7H405a4.1,4.1,0,0,1-1.5-.4l-.8-.2-1.1-.2-1.2-.2h-10l-1,.2-.9.2-.9.3a1.1,1.1,0,0,1-1.1,0l-.2-.4.2-.6c0-.2.2-.4.4-.7l.9-.5.9-.3h.5l.4.2h17.6C407.3,171.5,407.3,171.6,407.2,171.8Zm-4.1,7.2v.7a.6.6,0,0,0-.1.4v.3a2.3,2.3,0,0,1-.3,1.3,1,1,0,0,1-1.1.3h-.8l-1-.2-1.7-.2h-4.5l-.3.2a1,1,0,0,1-1.1.1.8.8,0,0,1-.4-.4c-.1-.1-.1-.3-.1-.7s-.1-.5-.1-.9-.1-.8-.2-1.2a1.1,1.1,0,0,1,.6-1.5l.7-.2.6.3h.4l3.5-.2h5.1l.5.2a2.3,2.3,0,0,1,.5.7A2.2,2.2,0,0,1,403.1,179Zm-1.3-5.2a.4.4,0,0,1-.1.3h-.3l-2.1.2h-3.2a10.7,10.7,0,0,0-3.3.2h-.3a.2.2,0,0,1-.2-.2v-.4q0-.2.3-.3a.7.7,0,0,1,.7-.2h7.3l1,.2C401.7,173.6,401.8,173.7,401.8,173.8Zm.3,1.7c0,.2,0,.3-.1.4l-.6.2h-7.3l-1,.2h-.5l-.3-.2v-.4c0-.1.1-.2.3-.4H402Zm-1.1,4v-.7l-.3-.2h-6.8a.3.3,0,0,0-.3.3V180c0,.2.1.2.3.2h6.3a.8.8,0,0,0,.7-.1C400.9,180,400.9,179.8,401,179.5Zm-2-9.6.2.3c0,.1-.2.2-.5.3h-2.6l-.9-.3a.9.9,0,0,1-.7-.6.8.8,0,0,1,.2-.8l.5-.4h1l.6.3,1.2.8Z" style="fill:#e2dccc"/><path d="M426.4,170.6a.5.5,0,0,1-.2.4l-.5.2h-5v.3a6.4,6.4,0,0,1-.2.7l-.3.8a.6.6,0,0,0-.2.5c-.1.1-.1.3-.1.7v6.8c-.1.2-.1.4-.2.5l-.5.2-.8.3a.8.8,0,0,1-.7-.4,1.5,1.5,0,0,1-.3-1,16.2,16.2,0,0,0,.1-2.1c0-.7.1-1.4.1-2.2s-.2-.4-.5-.1l-1.9,1.5-1.4.8-2.2.9-1.4.3c-.5-.1-.9-.1-1.1-.3a1.3,1.3,0,0,1-.7-.6c-.1-.3,0-.5.3-.5l1.5-.4,1.5-.6,1.3-.6,1.1-.6,1.9-1.4,1.3-1.2a4.1,4.1,0,0,0,.6-1.1,1.6,1.6,0,0,0,.3-.9.4.4,0,0,0-.1-.3h-1.9l-1.6.2-1.4.2a1.2,1.2,0,0,1-1,.1l-.6-.4a1.3,1.3,0,0,1-.1-.6,1.6,1.6,0,0,1,.6-.8,2,2,0,0,1,2-.2h11.7l.5.2C426.4,170.2,426.4,170.3,426.4,170.6Zm2.5,8.2a2.2,2.2,0,0,1-.6.7l-.6.5a2.1,2.1,0,0,1-1.2.3,2.2,2.2,0,0,1-1.3-.6l-.6-.8a7.1,7.1,0,0,1-.7-.9l-1.4-1.6a5.3,5.3,0,0,0-.9-1.1l-.6-.5-.6-.4a.5.5,0,0,1-.2-.4.5.5,0,0,1,.3-.4.4.4,0,0,1,.4-.2c.2,0,.4.1.7.4l2.2,1.6,2,1.3,1.6.9a2.8,2.8,0,0,0,1.2.5C429,178.2,429.1,178.5,428.9,178.8Z" style="fill:#e2dccc"/><path d="M434.5,172.4a25.8,25.8,0,0,1-.2,3.2,10.3,10.3,0,0,1-.2,2,1.6,1.6,0,0,1-.3,1.1,3,3,0,0,1-.4.8,2.5,2.5,0,0,1-1.2,1.1,1.8,1.8,0,0,1-1.4.2.9.9,0,0,1-.6-.4l-.3-.6c0-.2,0-.3.3-.4a2.8,2.8,0,0,0,1.5-.8,4.5,4.5,0,0,0,1.1-1.7,3.5,3.5,0,0,0,.2-1.3,12.7,12.7,0,0,0,.1-2,12.1,12.1,0,0,0-.1-1.9,5,5,0,0,0-.3-1.2.6.6,0,0,1-.1-.4c0-.2,0-.3.1-.4a.5.5,0,0,1,.2-.4h.4c.7,0,1.1.7,1.2,2Zm2-1a7.6,7.6,0,0,0-.1,1.5,10.9,10.9,0,0,0-.1,1.8,13.4,13.4,0,0,0-.1,2,13.4,13.4,0,0,0-.1,2,2.9,2.9,0,0,1-.2,1.2.7.7,0,0,1-.7.4l-.3-.2c-.1,0-.1-.1-.2-.3v-1.9a22.9,22.9,0,0,0,.2-2.5,12.8,12.8,0,0,0,.1-1.9v-1.4a5.3,5.3,0,0,0-.1-1.3,1.5,1.5,0,0,1,.1-.7c.2-.2.3-.3.6-.2S436.5,170.5,436.5,171.4Zm2.3-.2a7.2,7.2,0,0,0-.2,1.7,19.3,19.3,0,0,0-.1,2.4,10.5,10.5,0,0,0,0,2.5v1.9a1.1,1.1,0,0,1-.1.8c-.1.2-.3.3-.7.4s-.6.1-.7-.1-.2-.4-.2-.9a4.1,4.1,0,0,0,.1-1.2c0-.5.1-1,.1-1.7v-1.9a14.1,14.1,0,0,0,.1-2v-2.7a2.5,2.5,0,0,1,.1-1,.8.8,0,0,1,.7-.1,1,1,0,0,1,.8.6A1.9,1.9,0,0,1,438.8,171.2Zm5.8,3.3a4.3,4.3,0,0,1,.2,1.1,6,6,0,0,1-.2,1.2,3.8,3.8,0,0,1-.4,1.3l-.8,1.7a5,5,0,0,1-1,1.1,3.5,3.5,0,0,1-1.6.8,3.3,3.3,0,0,1-1.6.2.8.8,0,0,1-.8-.5,1.3,1.3,0,0,1-.1-.5h.4a4.3,4.3,0,0,0,1.3-.5,4.2,4.2,0,0,0,1.2-.8,5.5,5.5,0,0,0,1.5-2,9.7,9.7,0,0,0,.3-2.3,2,2,0,0,1,.1-1.1.7.7,0,0,1,.6-.4h.5A1.6,1.6,0,0,1,444.6,174.5Zm5.9-4.3a1.9,1.9,0,0,1-.8,1l-.4.2h-1l-.8-.3h-.9l-1.3-.2c-.3,0-.5.1-.6.5v.5l.3.2h.7c.2.1.4,0,.7-.1a1.1,1.1,0,0,1,.7-.2l.6.2.4.5c.1.2,0,.4,0,.7s-.1.3-.1.6a3.4,3.4,0,0,0-.1,1.1,6.2,6.2,0,0,0,.1,1.3v1.3a1.9,1.9,0,0,1-.1.8.9.9,0,0,1-.6.4h-.9a.4.4,0,0,1-.2-.5V174c0-.3,0-.4-.1-.5l-.4-.2h-4.2c0,.1-.1.2-.1.4v4.1a1.1,1.1,0,0,1-.2.6l-.7.4c-.3,0-.5,0-.6-.2s-.2-.4-.2-.6.2-2,.2-2.8a6.2,6.2,0,0,0-.1-1.6,3.4,3.4,0,0,1-.1-.9.8.8,0,0,1,.2-.5,1.3,1.3,0,0,1,.6-.5l.8.2h1.3v-.2a.6.6,0,0,1,.1-.4v-.3a.3.3,0,0,0-.3-.3l-1.2.2-1.4.3h-.4l-.4-.3-.2-.4c0-.2.1-.3.3-.5a1.7,1.7,0,0,1,1.1-.6h.6l.6.2h8.7C450.6,169.7,450.7,169.9,450.5,170.2Zm-.7,11.8h-.4l-.6-.2L447,181l-1.9-1.2-.7-.7a.8.8,0,0,1,.2-.7.9.9,0,0,1,.7-.3,1.1,1.1,0,0,1,.7.3,8.7,8.7,0,0,0,1.4,1.2l2.1,1.7c.3.2.4.3.4.4S449.9,181.9,449.8,182Z" style="fill:#e2dccc"/><path d="M320,198c-.2.3-.3.7-.6.9a2.2,2.2,0,0,1-.9.7h-.8l-1.4-.4-.8-.2-1.2-.2-1.2-.2h-9.9l-1,.2-.9.2-1,.3a.8.8,0,0,1-1-.1c-.2-.1-.2-.2-.2-.3s0-.3.1-.6a1.5,1.5,0,0,1,.5-.7l.8-.6.9-.2h.5l.4.2H320Zm-4.1,7.2a.4.4,0,0,1-.1.3v1.1a1.4,1.4,0,0,1-.3,1.3,1.1,1.1,0,0,1-1,.3h-.6l-.3-.2-1-.2h-6.1a.5.5,0,0,0-.4.2.9.9,0,0,1-1,0,.6.6,0,0,1-.5-.3,5.6,5.6,0,0,1-.1-.7,2.8,2.8,0,0,0-.1-.9,5,5,0,0,0-.2-1.2,1.4,1.4,0,0,1,.6-1.5l.7-.2a.6.6,0,0,1,.6.3h.5l3.4-.2h5.2l.5.2a1.3,1.3,0,0,1,.4.7A4.1,4.1,0,0,1,315.9,205.2Zm-1.4-5.2v.3h-.3l-2.2.2h-3.2l-3.3.2a.2.2,0,0,1-.3,0l-.2-.2v-.4l.3-.3a.7.7,0,0,1,.8-.2h.6l1.2-.2h5.4l1,.2C314.5,199.7,314.5,199.8,314.5,200Zm.4,1.7c0,.2-.1.3-.1.4h-.6l-1.2.2h-6.1l-1,.2h-.5l-.3-.2a.6.6,0,0,1-.1-.4l.3-.4h9.4Zm-1.2,3.9v-.4c0-.1,0-.2-.1-.2l-.2-.2h-6.9c-.2,0-.2.1-.2.3a1.3,1.3,0,0,0-.1.6v.6c0,.1.1.2.3.2h7A1,1,0,0,0,313.7,205.6Zm-2-9.5c.2,0,.2.1.2.3l-.4.3h-1.7l-.9-.2-.9-.2a1.8,1.8,0,0,1-.8-.6,1.2,1.2,0,0,1,.2-.8l.5-.4H309l.6.3,1.1.7Z" style="fill:#e2dccc"/><path d="M339.1,196.8l-.2.4c0,.1-.2.2-.5.2h-4.9v.2a1.9,1.9,0,0,1-.2.8l-.3.8c-.1.2-.2.3-.2.5v6.6c0,.4-.1.7-.1.9s-.1.3-.2.5l-.4.2-.8.2a.7.7,0,0,1-.8-.3,1.3,1.3,0,0,1-.2-1.1v-2.1a14.1,14.1,0,0,0,.1-2.1c0-.4-.1-.4-.5-.1l-1.9,1.4-1.4.9-2.2.9-1.4.3-1.1-.3a.9.9,0,0,1-.6-.6c-.2-.3-.1-.5.3-.5l1.4-.5a5.3,5.3,0,0,0,1.5-.5l1.4-.6,1.1-.6,1.9-1.4,1.2-1.3a6.1,6.1,0,0,0,.7-1,4.4,4.4,0,0,0,.2-1,.4.4,0,0,0-.1-.3h-1.9l-1.5.2-1.5.2H325l-.6-.5a.6.6,0,0,1-.1-.6,1,1,0,0,1,.5-.7,2.3,2.3,0,0,1,2-.3l.9.2h10.8a.6.6,0,0,1,.5.2C339.1,196.3,339.1,196.5,339.1,196.8Zm2.5,8.2-.6.7-.6.5a2.1,2.1,0,0,1-1.2.3,1.9,1.9,0,0,1-1.2-.7l-.7-.7-.7-.9c-.5-.7-1-1.2-1.3-1.7l-.9-1-.7-.6-.5-.3c-.2-.1-.2-.2-.2-.4l.2-.4c.2-.2.3-.3.5-.2s.3.1.6.4l2.2,1.6,2,1.3,1.7.9,1.2.5C341.7,204.4,341.8,204.6,341.6,205Z" style="fill:#e2dccc"/><path d="M347.3,198.6c-.1,1.3-.2,2.4-.2,3.2a19.1,19.1,0,0,0-.2,2,8.1,8.1,0,0,1-.3,1.1l-.4.8a3.3,3.3,0,0,1-1.3,1.1,2.2,2.2,0,0,1-1.4.2l-.6-.4-.3-.6c0-.2.1-.4.3-.4a3.6,3.6,0,0,0,1.5-.8,4.5,4.5,0,0,0,1.1-1.7,8.6,8.6,0,0,0,.3-1.3,13.3,13.3,0,0,0,0-2,11.5,11.5,0,0,0-.1-1.9,2.5,2.5,0,0,0-.3-1.2.9.9,0,0,1-.1-.5.8.8,0,0,1,.1-.4l.2-.3h.4c.8,0,1.2.6,1.3,2Zm1.9-1c0,.4-.1.9-.1,1.5s-.1,1.2-.1,1.8-.1,1.3-.1,2a11.5,11.5,0,0,1-.1,1.9,3.1,3.1,0,0,1-.2,1.3.5.5,0,0,1-.6.3h-.3c-.1,0-.2-.2-.2-.3a1.9,1.9,0,0,1-.1-.8,4.5,4.5,0,0,1,.1-1.1c.1-1,.1-1.8.2-2.5s.1-1.3.1-1.9v-1.5a4.9,4.9,0,0,1-.1-1.2.8.8,0,0,1,.1-.7.4.4,0,0,1,.5-.2Q349.4,196.1,349.2,197.6Zm2.3-.2c-.1.4-.1,1-.2,1.7s-.1,1.5-.1,2.4v2.4a9.8,9.8,0,0,0,.1,1.9,2.2,2.2,0,0,1-.1.9,2.9,2.9,0,0,1-.8.4.8.8,0,0,1-.7-.1,1.2,1.2,0,0,1-.1-.9,5.7,5.7,0,0,1,.1-1.2v-1.7c0-.6.1-1.3.1-2v-4.6a1.9,1.9,0,0,1,.2-1c.1-.2.3-.2.7-.1s.6.3.8.6A2.8,2.8,0,0,1,351.5,197.4Zm5.9,3.3a4.1,4.1,0,0,1,.1,1.1,4.5,4.5,0,0,1-.1,1.1,12.1,12.1,0,0,1-.5,1.4l-.8,1.7a3.3,3.3,0,0,1-1,1.1,4.8,4.8,0,0,1-1.6.8,3.2,3.2,0,0,1-1.6.2c-.4-.1-.6-.2-.7-.6s-.2-.4-.1-.4l.3-.2a3.8,3.8,0,0,0,1.3-.4,3.6,3.6,0,0,0,1.2-.8,5.1,5.1,0,0,0,1.5-2.1,4.2,4.2,0,0,0,.3-2.2,3.4,3.4,0,0,1,.1-1.1.7.7,0,0,1,.6-.4.7.7,0,0,1,.6.1A1.6,1.6,0,0,1,357.4,200.7Zm5.9-4.4a2.4,2.4,0,0,1-.9,1.1l-.4.2h-1l-.8-.2h-.8l-1.4-.2c-.3-.1-.5.1-.5.5a.4.4,0,0,0,0,.5l.3.2h.6a1.3,1.3,0,0,0,.8-.2.7.7,0,0,1,.6-.1l.6.2a1.2,1.2,0,0,1,.5.5,2,2,0,0,1-.1.7,3.5,3.5,0,0,0-.1.6v2.3a6.6,6.6,0,0,0,.1,1.4,2.4,2.4,0,0,1-.2.8,1,1,0,0,1-.5.4h-.9c-.2-.1-.3-.2-.3-.4v-2.2a6.1,6.1,0,0,1,.1-1.4v-.7a1.2,1.2,0,0,0-.1-.5.6.6,0,0,0-.5-.2h-4.2a.8.8,0,0,1-.1.4v4.1a1.4,1.4,0,0,1-.2.6c-.1.2-.4.3-.7.4s-.5,0-.6-.2a.7.7,0,0,1-.1-.6c.1-1.1.1-2.1.1-2.8a7.6,7.6,0,0,0-.1-1.7,2.5,2.5,0,0,1-.1-.8.9.9,0,0,1,.3-.6l.5-.4h.8l.8.2c.3,0,.5,0,.5-.1s.1-.1.1-.2a.8.8,0,0,0,.1-.4.4.4,0,0,1,.1-.3c0-.2-.1-.3-.4-.3H354l-1.3.4h-.5l-.4-.2a.8.8,0,0,1-.1-.4c0-.2,0-.4.2-.5l1.1-.7h.7l.6.2h8.6C363.3,195.9,363.4,196,363.3,196.3Zm-.8,11.8-.3.2-.7-.2-1.8-.9-1.8-1.2c-.4-.3-.7-.5-.7-.8a.5.5,0,0,1,.1-.6c.2-.2.4-.4.7-.3a.9.9,0,0,1,.7.3l1.4,1.2,2.1,1.7.5.4Z" style="fill:#e2dccc"/><path d="M372.5,199.1a10.6,10.6,0,0,1-.2,3.1,6.9,6.9,0,0,1-.9,2.3,10,10,0,0,1-1.6,1.8,3.5,3.5,0,0,1-1.6.8,3.9,3.9,0,0,1-1.5.2,2.1,2.1,0,0,1-1.2-.3l-.5-.6c0-.2-.1-.4,0-.5s.2-.3.3-.4h1.6l1-.2.9-.5a1.8,1.8,0,0,0,.7-.5,4.4,4.4,0,0,0,1.1-2.4,14,14,0,0,0,0-2.9.8.8,0,0,1,.1-.7c.1-.2.4-.2.7-.2s.4.1.7.4A1.3,1.3,0,0,1,372.5,199.1Zm3.4-1.9a3.5,3.5,0,0,0-.1.7v4.9a.7.7,0,0,1-.1.5l-.4.3-.6.3h-.6c-.2-.1-.2-.4-.2-.8v-5a.5.5,0,0,0-.4-.5l-.7-.2h-3.1c-.1,0-.2.1-.2.3a14.8,14.8,0,0,0-.1,2.1,17,17,0,0,0,.1,2.2v.8a.8.8,0,0,1-.2.5l-.3.4h-.6c-.3.1-.5,0-.7-.4a2.9,2.9,0,0,1-.1-1.4c0-.5.1-.9.1-1.3v-1.3a4.1,4.1,0,0,0-.1-1.1v-.8a1.3,1.3,0,0,1-.1-.6v-.8l.2-.3.4-.3h.9l.4.3.2.2,1.5-.2h4.2l.3.2.3.7A.7.7,0,0,1,375.9,197.2Zm.4,9.4-.4.2-.6-.2-1.1-.7-.7-.4-.5-.3-.5-.2c-.1-.1-.3-.2-.3-.4s-.1-.2-.1-.4a.6.6,0,0,1,.1-.4l.3-.3a1.1,1.1,0,0,1,.7-.2,2.5,2.5,0,0,1,.8.5l.4.3.6.6.7.5.4.5c.3.3.4.5.4.6S376.5,206.5,376.3,206.6Zm7.5-2.7a4.9,4.9,0,0,1-.3,2.6,2.9,2.9,0,0,1-1.8,1.2l-1.4.2a2.2,2.2,0,0,1-1.1-.2l-.9-.5-1.1-1a.4.4,0,0,1-.2-.4.2.2,0,0,1,0-.3h.6l1.3.5a2.2,2.2,0,0,0,1.2-.2,1.8,1.8,0,0,0,.9-.8,3.4,3.4,0,0,0,.4-1.6c0-.9.1-1.7.1-2.4v-1.9c0-.5-.1-1.1-.1-1.6s-.1-1-.2-1.6,0-.9.2-1.1.6-.2,1.2-.1,1.1.6,1.2,1a3.2,3.2,0,0,1,0,1.7,5.1,5.1,0,0,0-.2,1.3,8.1,8.1,0,0,0-.1,1.6c0,.6.1,1.2.1,1.8A11,11,0,0,0,383.8,203.9Zm-3.8-5.4a.7.7,0,0,0-.1.5v.7a3.1,3.1,0,0,0-.1,1c0,.3.1.7.1,1a3.7,3.7,0,0,1-.2,1.2,1.3,1.3,0,0,1-.9.4h-.5l-.4-.3a1.5,1.5,0,0,1-.2-.8v-1.1a2.2,2.2,0,0,0,.1-.8,2.8,2.8,0,0,0-.1-.9v-.7a4.3,4.3,0,0,0-.1-.5,1.9,1.9,0,0,1-.1-.8,1,1,0,0,1,.4-.5.7.7,0,0,1,.7-.2,1.2,1.2,0,0,1,.9.6l.5.6Z" style="fill:#e2dccc"/><path d="M407.2,196.9a2.5,2.5,0,0,1-.4.9l-.8.5-.8.2-.9-.2-1.1-.3-.9-.2h-.9l-1-.2h-2.1c-.1,0-.1.2-.2.3s0,.4.1.5h3.3a1.2,1.2,0,0,1,.8-.1,1.8,1.8,0,0,1,.7.7v.6a1.3,1.3,0,0,1-.1.6.9.9,0,0,1-.1.5c0,.2,0,.3-.1.3a.6.6,0,0,1-.7.2h-3.9v.5h2.8c.2.1.3.1.4,0h1.4l.4.3c.1.1.1.4.1.7s.1.4.4.4h1.7v.2c0,.2-.1.3-.3.4h-1.9a.4.4,0,0,0-.1.3v.6a1.5,1.5,0,0,1-.2.8c-.2.2-.4.2-.8.2l-1.9-.2-1.7-.2h-.3c-.1,0-.1.2-.1.5a2.4,2.4,0,0,1-.2.8,3,3,0,0,1-.4.8,1.9,1.9,0,0,1-.9.5,2.5,2.5,0,0,1-1.3.3h-1.2l-1-.2-.8-.5-1-.7a.2.2,0,0,1,0-.3c0-.2.2-.2.3-.1l1.8.4h1.2a1.6,1.6,0,0,0,.8-.5.9.9,0,0,0,.3-.7c0-.2,0-.3-.1-.4H392l-1,.2h-.7c-.2-.2-.2-.3-.1-.5s.8-.7,1.7-.6h1l2.5-.2h.3v-.2c0-.1,0-.2-.1-.2h-5.3l-1,.3H389c-.1,0-.3,0-.3-.1l-.2-.2a.6.6,0,0,1,.1-.4l.3-.3c0-.1.1-.1.2-.2h6.7a.3.3,0,0,0,.1-.2.4.4,0,0,0-.1-.3h-3.5l-.9.2h-.8c-.2-.1-.2-.3-.1-.5s.2-.3.3-.3h5c0-.1.1-.2.1-.3v-.3H393l-.7.3h-.7l-.3-.2a.8.8,0,0,1-.2-.4c-.1-.3-.1-.6-.2-.9s-.1-.6-.1-.9a1.2,1.2,0,0,1,.5-1.1h.6c.2.1.3.1.4.3h.6a10.4,10.4,0,0,1,2.5,0h.4v-.4c0-.2,0-.3-.1-.3h-5l-1.9.2-1.3.4h-.8l-.4-.3a.6.6,0,0,1,0-.6c0-.2.2-.3.3-.5l1.3-.7a.8.8,0,0,1,.8.1,1.9,1.9,0,0,0,1.2.2h5.4c.2,0,.4,0,.4-.1a.7.7,0,0,0,0-.5c0-.4.1-.7.3-.8a1.3,1.3,0,0,1,.9-.2,1.9,1.9,0,0,1,1.1.4,2.4,2.4,0,0,1,.2.9c0,.1,0,.2.1.2s.1.1.2.1h8.4l.4.2A.5.5,0,0,1,407.2,196.9Zm-11.3,2.7c0-.2-.1-.4-.2-.4h-2.9v.4c0,.2.1.3.1.4h2.9A.4.4,0,0,0,395.9,199.6Zm5.5,3.2c0-.2,0-.3-.1-.3h-3.2v.5h3.3Zm0,1.3c0-.1,0-.2-.1-.2h-3.2v.4h3.1C401.3,204.4,401.3,204.3,401.4,204.1Zm0-4.5c0-.3-.2-.4-.6-.4h-2.6c-.1,0-.1.2-.1.4s0,.3.1.4h3.1C401.3,199.9,401.4,199.8,401.4,199.6Z" style="fill:#e2dccc"/><path d="M426.4,196.8a.8.8,0,0,1-.2.4l-.5.2h-5v.2c-.1.3-.1.6-.2.8l-.3.8a.6.6,0,0,0-.2.5c-.1.1-.1.3-.1.6v6.9l-.2.5-.5.2a1.5,1.5,0,0,1-.8.2c-.3.1-.5,0-.7-.3a1.8,1.8,0,0,1-.3-1.1,14.8,14.8,0,0,0,.1-2.1c0-.6.1-1.4.1-2.1s-.2-.4-.5-.1l-1.9,1.4-1.4.9-2.2.9-1.4.3-1.1-.3a1.3,1.3,0,0,1-.7-.6c-.1-.3,0-.5.3-.5l1.5-.5,1.5-.5,1.3-.6,1.1-.6,1.9-1.4,1.3-1.3a2.7,2.7,0,0,0,.6-1,2.2,2.2,0,0,0,.3-1c0-.1-.1-.2-.1-.3h-1.9l-1.6.2-1.4.2h-1l-.6-.5c-.1-.1-.1-.3-.1-.6a1.9,1.9,0,0,1,.6-.7,2.2,2.2,0,0,1,2-.3l.9.2h10.8l.5.2C426.4,196.3,426.4,196.5,426.4,196.8Zm2.5,8.2-.6.7-.6.5a2.1,2.1,0,0,1-1.2.3,2.4,2.4,0,0,1-1.3-.7l-.6-.7-.7-.9-1.4-1.7-.9-1-.6-.6-.6-.3a.5.5,0,0,1-.2-.4.5.5,0,0,1,.3-.4c.1-.2.3-.3.4-.2s.4.1.7.4l2.2,1.6,2,1.3,1.6.9,1.2.5C429,204.4,429.1,204.6,428.9,205Z" style="fill:#e2dccc"/><path d="M450.7,205.8a5.9,5.9,0,0,1-.4.8c-.2.3-.3.5-.5.6l-.7.5-.9.4a3.9,3.9,0,0,1-1.5.2l-1.4-.6-1.1-.8-.8-.7c-.2-.2-.3-.3-.5-.3l-.5.2-1.6.7-1.7.4h-.6l-.4-.3v-.3l.5-.3a4.7,4.7,0,0,0,1.5-.6,6.7,6.7,0,0,0,1.4-.9l.3-.4c.1-.2,0-.3-.1-.5l-.6-1.9a11.9,11.9,0,0,1-.4-2.4c-.1-.2-.1-.4-.2-.5H436l-.4.2v1.1h3.5a.9.9,0,0,1,.7.6,1.3,1.3,0,0,1,.1.6,1.9,1.9,0,0,1,.1.8c0,.3-.1.6-.1.9a2.9,2.9,0,0,1-.2.9,3.5,3.5,0,0,1-.9,1.6,2.5,2.5,0,0,1-1.7.5l-.9-.3a2.3,2.3,0,0,1-.7-.7.8.8,0,0,1-.1-.4h.4a1.5,1.5,0,0,0,2.2-1.5,2.8,2.8,0,0,0,0-1.3c-.1-.3-.3-.4-.7-.4H436l-.4.2c-.1,0-.2.2-.2.4s-.1.6-.1,1-.1.7-.2,1a3.9,3.9,0,0,1-1.1,2,3.2,3.2,0,0,1-1.8,1l-.8.2h-.6l-.4-.3a1.8,1.8,0,0,1-.5-.7.2.2,0,0,1,0-.3c0-.1.2-.2.4-.2a4.1,4.1,0,0,0,2.3-1.3,5,5,0,0,0,1-2.9,3.8,3.8,0,0,0,0-1.5,2.7,2.7,0,0,0-.2-1.1c-.1-.2-.2-.3-.2-.5v-.5l.2-.5.4-.3a1.1,1.1,0,0,1,.8-.1.9.9,0,0,1,.7.3.7.7,0,0,0,.3.3h4.7c.1,0,.1-.2.1-.4v-.5a3.9,3.9,0,0,1,0-1.1c0-.3,0-.5.1-.6a.6.6,0,0,1,.6-.3,1,1,0,0,1,.9.1c.5.2.7.6.6,1.3a.7.7,0,0,0-.1.5v.6a.8.8,0,0,0,0,.5h5.2c.1.1.1.3.1.6l-.2.3h-4.5c-.3,0-.5.1-.5.2s-.1.3,0,.7a5,5,0,0,0,.2,1.2l.3,1.1c.1.3.2.5.3.5l.3-.3a3.8,3.8,0,0,0,.6-1.9c.1-.3.2-.6.4-.7a.6.6,0,0,1,.7-.1,1.2,1.2,0,0,1,.5.5,2.6,2.6,0,0,1,0,.9,6.1,6.1,0,0,1-.8,2.6,1.5,1.5,0,0,0-.3.6l.4.4a10.2,10.2,0,0,0,2.5.8,6.5,6.5,0,0,0,2.4.1h.7C450.9,205.4,450.8,205.6,450.7,205.8Zm-4.1-9.5-1.4.5h-1.1a.5.5,0,0,1-.4-.2l.3-.4.5-.5a4.6,4.6,0,0,0,.7-.7c.3-.5.8-.5,1.3-.2a.8.8,0,0,1,.4.4c.1.1.1.2.1.4a.8.8,0,0,1-.1.4Z" style="fill:#e2dccc"/></g></g></svg>