<svg id="图层_1" data-name="图层 1" xmlns="http://www.w3.org/2000/svg" viewBox="0 0 40 40"><title>alipay</title><path d="M40,6.2V27L26.6,22.5c.4-.7.9-1.6,1.4-2.7a25.9,25.9,0,0,0,2-5.3H22.3V11.6h9.5V10.4H22.3V5.8H18.1v4.5H8.6v1.3H18v2.8H9.9v1.5H25.1l-.2,1.5a11.9,11.9,0,0,1-2,4.1,82.1,82.1,0,0,0-9.3-2.1,17.1,17.1,0,0,0-4.7.1,9.4,9.4,0,0,0-3,1.2l-.8.8a3.8,3.8,0,0,0-1.2,1.7l-.3,1.1a6.2,6.2,0,0,0,0,2.7l.5,1.7a6.4,6.4,0,0,0,2.6,2.8l1.4.7a8.5,8.5,0,0,0,3.5.5l1.7-.2a12,12,0,0,0,3.5-.8l1.5-.7a8.6,8.6,0,0,0,2.8-1.9,16.8,16.8,0,0,0,3.3-3.3L40,32.3v1.6A6.1,6.1,0,0,1,33.9,40H6.2a6,6,0,0,1-4.4-1.8A5.8,5.8,0,0,1,0,33.9V6.2A6,6,0,0,1,1.8,1.8,6,6,0,0,1,6.2,0H33.9a5.8,5.8,0,0,1,4.3,1.8A6,6,0,0,1,40,6.2ZM10.8,21h1.3a18.4,18.4,0,0,1,4,.9l4.8,2.2A10.5,10.5,0,0,1,18.3,27a11.7,11.7,0,0,1-2.7,1.9l-1.4.6a10.2,10.2,0,0,1-3.4.6l-1.2-.2a6,6,0,0,1-2.4-.5l-.8-.6A3.8,3.8,0,0,1,5.1,27l-.2-.9a3.6,3.6,0,0,1,.2-1.7l.5-.9a4.1,4.1,0,0,1,1.6-1.6l1-.4A9.2,9.2,0,0,1,10.8,21Z" style="fill:#3c98e3"/></svg>