<svg xmlns="http://www.w3.org/2000/svg" viewBox="0 0 66.4 49"><title>bazi01</title><g id="图层_2" data-name="图层 2"><g id="图层_1-2" data-name="图层 1"><path d="M13.2,7.4a8.9,8.9,0,0,1-1.3,2.3,14.5,14.5,0,0,1-2.1,2.2l-2.6,2a20.2,20.2,0,0,1-3,1.4,4.4,4.4,0,0,1-2.7.3A2,2,0,0,1,.1,13.9a1.4,1.4,0,0,1,0-.9,1,1,0,0,1,.7-.5l3.4-1.4L7.1,9.6,9.4,7.8a13.9,13.9,0,0,0,2.1-2.1c.4-.5.7-.8,1-.8a.6.6,0,0,1,.7.1,1.2,1.2,0,0,1,.4.9A4.1,4.1,0,0,1,13.2,7.4ZM32,14.5a5.5,5.5,0,0,1-.9,1.4,10,10,0,0,1-1.5,1.3,2.8,2.8,0,0,1-2.9.6,7.4,7.4,0,0,1-2.5-2.7A6.9,6.9,0,0,0,23,13.3L21.2,11l-2-2.2L17.6,7.3a2.8,2.8,0,0,1-.9-1,3,3,0,0,1-.4-1,.8.8,0,0,1,0-.7.5.5,0,0,1,.3-.5,2.1,2.1,0,0,1,1.7.1,5.7,5.7,0,0,1,2,1.9A18.8,18.8,0,0,0,24.7,10a32.1,32.1,0,0,0,6.7,3.2,1.4,1.4,0,0,1,.7.4C32.2,13.8,32.1,14.1,32,14.5Z" style="fill:#fcc03c"/><path d="M66.1,12.1a6,6,0,0,1-.9,1.5,4.4,4.4,0,0,1-1.5,1.2l-.6.2h-.6l-.8-.2-1.2-.3-3.4-1-3.6-.7h-.6c-.1.1-.1.3-.1.7a8.6,8.6,0,0,1-.2,3.7,5.3,5.3,0,0,1-1.7,2.4,6.7,6.7,0,0,1-2.4.9,10.1,10.1,0,0,1-3,.1,7.5,7.5,0,0,1-2.9-.9,4.6,4.6,0,0,1-2.2-1.9c-.2-.4-.3-.6-.2-.7s.4,0,.9.3a5.5,5.5,0,0,0,2.8.6,7,7,0,0,0,3.4-.6A2.9,2.9,0,0,0,48.9,16a11,11,0,0,0,.6-2.6,1,1,0,0,0-.2-.7,1,1,0,0,0-.7-.2,45.2,45.2,0,0,0-5.3.2,32,32,0,0,0-4.6.6l-1.9.4-1.8.7c-1,.4-1.5,0-1.5-1.1a2.4,2.4,0,0,1,.2-.9l1-.9a3.9,3.9,0,0,1,1.5-.6h1.2a2.3,2.3,0,0,0,1.1.3h.9l3-.3,5.9-.2a.8.8,0,0,0,.6-.2.8.8,0,0,0-.3-.6c0-.2-.2-.3-.3-.5L48,9.1a.8.8,0,0,1-.4-.4V8.3l.3-.2H49l.4.2h.8c.1.1.3,0,.6-.1l.6-.2.5-.3c.6-.4.5-.7-.2-.9l-.9-.2H49.5l-1.9.4L45,8.2a4.9,4.9,0,0,1-1.7.4.7.7,0,0,1-.7-.6.8.8,0,0,1-.1-.8c0-.2.2-.4.4-.7l.8-.7h1.2l.6-.2a12,12,0,0,1,3.7-.4,8.7,8.7,0,0,1,3,.4h1.1a4.8,4.8,0,0,0,1.2,0,1.7,1.7,0,0,1,1.9,1.1,2.9,2.9,0,0,1,.2.9.9.9,0,0,1-.3.6,1.9,1.9,0,0,1-.9.5,5.7,5.7,0,0,1-1.6.3l-1.4.2-.6.3.2.5.5.6.7.2H65.5c.4,0,.6.1.6.2S66.2,11.7,66.1,12.1ZM61.8,3.7a3.7,3.7,0,0,1,.1,1.1,2.9,2.9,0,0,1,0,1.3c0,.4-.1.9-.1,1.3l-.3,1.1a1.5,1.5,0,0,1-.4.6l-.7.2h-.7c-.1-.1-.1-.4-.1-.8s-.1-.5-.1-.7V6.9a2.2,2.2,0,0,1-.1-.8,1.1,1.1,0,0,1-.1-.5c-.1-.3-.1-.5-.2-.6l-.7-.2-2-.2H43.2l-1.8.2a2.3,2.3,0,0,0-1.4.6,1.7,1.7,0,0,0-.5,1.4,5.8,5.8,0,0,1-.1,1.5c0,.3,0,.6-.1.7a.9.9,0,0,1-.7.6.6.6,0,0,1-.7-.5,10.8,10.8,0,0,1-.7-2.7A6.4,6.4,0,0,1,37.3,4,1.9,1.9,0,0,1,38,2.7a1.6,1.6,0,0,1,1.5-.1l.7.2.6.2H47c.4,0,.7-.1.8-.3s.1-.4,0-.8a.9.9,0,0,1,0-.7.6.6,0,0,1,.3-.6,1.1,1.1,0,0,1,.8-.3,3.9,3.9,0,0,1,1.4.2,3.3,3.3,0,0,1,1.2.5,2.3,2.3,0,0,1,.6,1.2,1,1,0,0,0,.2.7l.6.2h2.9l1.8.3h1c.2,0,.4-.2.7-.4l.6-.3h.7l.7.4A1.1,1.1,0,0,1,61.8,3.7Z" style="fill:#fcc03c"/><path d="M8.4,38.7l-.9.2h-1a2.8,2.8,0,0,1-1.3,0H3.5a5.1,5.1,0,0,1-2.7-.8c-.6-.5-.8-1-.5-1.6s.4-.9.7-1a3.6,3.6,0,0,1,1.6-.1l.6.2.9.4,2.6,1.2,1.6.6c.4,0,.6.2.6.4S8.8,38.6,8.4,38.7Zm1.1,3.5-.3.7a1.7,1.7,0,0,1-.6.6,2.4,2.4,0,0,1-.9.8L6.2,45.4l-.9.5-.6.3H3.5a1.9,1.9,0,0,1-1-.5,2,2,0,0,1-.4-.8,2.1,2.1,0,0,1,.5-1.2A2.4,2.4,0,0,1,4,42.7L6.4,42l2.4-.6c.4-.2.7-.2.8,0S9.7,41.8,9.5,42.2Zm-.8-9.5c.6.3.8.6.7.9a1,1,0,0,1-.9.4H7.1l-1.5-.3-1.4-.4a2.9,2.9,0,0,1-1-.6,1.9,1.9,0,0,1-.6-.7,1.2,1.2,0,0,1-.1-.8,1.4,1.4,0,0,1,.5-1,1.2,1.2,0,0,1,.9-.4h.7l.6.3.8.4,1,.8a2.8,2.8,0,0,1,.9.7A2.8,2.8,0,0,1,8.7,32.7Zm8,2.1a19.5,19.5,0,0,1-.3,5,12.2,12.2,0,0,1-1.5,3.9,6.2,6.2,0,0,1-.9,1.2l-.9,1-1.1.8-1.4.8a6.8,6.8,0,0,1-2.3.5,2.1,2.1,0,0,1-1.5-.4.6.6,0,0,1-.2-.7c0-.2.2-.4.6-.4L8.5,46l1.5-.7,1.4-1a5.7,5.7,0,0,0,1.1-1.1,6.7,6.7,0,0,0,1.7-3.7,13.5,13.5,0,0,0,.1-4.5,1.9,1.9,0,0,1,.1-1.3c.2-.3.4-.5.8-.4a1.5,1.5,0,0,1,1.5,1.5Zm4.2-2.3c-.1.3-.1.6-.2.9v7a4,4,0,0,1-.3,1.7,1.4,1.4,0,0,1-1.2.8c-.4,0-.7,0-.9-.2a1.2,1.2,0,0,1-.2-.7V33.4a1.6,1.6,0,0,0-.3-1.1c-.1-.2-.5-.3-.9-.4H13.2a.8.8,0,0,0-.2.5c-.1,1.5-.2,2.8-.2,3.9v3.3a3.4,3.4,0,0,1-.2,1.9,1.4,1.4,0,0,1-1,.6h-.5l-.3-.3a1.5,1.5,0,0,1-.1-.7,5.6,5.6,0,0,1,0-1.3c0-.5.1-1.2.1-1.9V35.9c-.1-.8-.1-1.5-.2-2.2a9,9,0,0,0-.2-1.8,10.9,10.9,0,0,1-.1-1.7,1.7,1.7,0,0,1,.6-1A1.5,1.5,0,0,1,12,29l.8.5.5.4.6.2a3.8,3.8,0,0,1,1.5,0H17a1.6,1.6,0,0,0,1.2-.4,1.6,1.6,0,0,1,1.3-.4c.5,0,.8.1,1,.5A2.1,2.1,0,0,1,21,31,4.1,4.1,0,0,1,20.9,32.5Zm0,14.8a1.1,1.1,0,0,1-1,.1,3.5,3.5,0,0,1-1.2-.7l-.9-.9-.7-.5a3.2,3.2,0,0,1-.8-.6,1.4,1.4,0,0,1-.1-1.8,1.1,1.1,0,0,1,1.2-.4,2.3,2.3,0,0,1,1.2,1l.5.7a2.1,2.1,0,0,0,.4.6l.5.5a1.7,1.7,0,0,0,.6.6,2,2,0,0,1,.4.8A.6.6,0,0,1,20.9,47.3ZM30,43.9a5.3,5.3,0,0,1-.6,3.2,4.1,4.1,0,0,1-2.2,1.7,4.4,4.4,0,0,1-1.6.2l-1.5-.4a5.8,5.8,0,0,1-1.2-1,3.4,3.4,0,0,1-.9-1.4,1.8,1.8,0,0,1-.1-.6c.1-.1.2-.1.5.1a4.7,4.7,0,0,0,1.5.6,2.2,2.2,0,0,0,1.6-.3,2.6,2.6,0,0,0,1.1-1,3.5,3.5,0,0,0,.5-1.8V37.1c0-1.5-.1-2.7-.1-3.6a10.4,10.4,0,0,0-.1-2c-.1-.4-.1-.8-.2-1.1s-.1-1.8.3-2.1a1.5,1.5,0,0,1,1.5-.2,2.6,2.6,0,0,1,.9.5,1.5,1.5,0,0,1,.5.6,2,2,0,0,1,.2,1.1,9.7,9.7,0,0,1-.1,1.6,12.8,12.8,0,0,0-.1,2.2,30.1,30.1,0,0,0-.1,3.1v3.5C29.9,41.9,29.9,43,30,43.9Zm-4.9-10a16,16,0,0,0-.3,2.3c0,.9,0,2.1.1,3.6a2.9,2.9,0,0,1-.2,1.8,1.4,1.4,0,0,1-1.1.7,1.3,1.3,0,0,1-1-.1,3.5,3.5,0,0,1-.1-1.2,23.2,23.2,0,0,0,.1-3.7c0-1.2-.1-2.4-.2-3.4a8.6,8.6,0,0,1-.1-1.5,3.6,3.6,0,0,1,.4-.9l.3-.2h1.1l.3.2a2.3,2.3,0,0,1,.6,1.2A5.7,5.7,0,0,1,25.1,33.9Z" style="fill:#fcc03c"/><path d="M66.2,42.2a9.7,9.7,0,0,1-1,1.5l-1.4.9a3.2,3.2,0,0,1-.9.3h-.8l-1.3-.4-1.9-.8-.6-.2-1-.3L56.2,43l-1.1-.3c-.3-.1-.4,0-.4.4s.1,1,.1,1.6.1,1.3.1,2.1v1a1.4,1.4,0,0,1-.2.6.9.9,0,0,1-.6.4l-1,.2a1.7,1.7,0,0,1-1,0l-.6-.2a1.4,1.4,0,0,1-.2-.7,2.8,2.8,0,0,1,0-1.3V44.7a14.1,14.1,0,0,0,.1-2.1.3.3,0,0,0-.3-.3H48.3a.3.3,0,0,0-.3.3,4.7,4.7,0,0,1-.6,1.5l-.8,1.3a6.3,6.3,0,0,1-1,1.2l-1.2.8a6,6,0,0,1-1.9.6,6.5,6.5,0,0,1-1.9.2H39a2.9,2.9,0,0,1-1.1-.6,1.1,1.1,0,0,1-.4-1.1c.1-.4.4-.5.9-.5a6.8,6.8,0,0,0,2.9-.1,6,6,0,0,0,2.2-1.2l.7-.7a3.8,3.8,0,0,0,.5-1.1c.1-.3,0-.4-.3-.4a38.5,38.5,0,0,0-5.9.6,15.6,15.6,0,0,0-3.4,1l-.6.2a.8.8,0,0,1-.6-.2l-.4-.4a1.9,1.9,0,0,1-.1-.8,3,3,0,0,1,.4-1,3.5,3.5,0,0,1,.9-.7l.9-.3h4.6l1.7-.2h2.8l.3-.2v-.5c0-.2,0-.2-.1-.3H43.6l-.5.2-.9.3h-.5a.6.6,0,0,1-.2-.5,2,2,0,0,1-.2-.9,3.1,3.1,0,0,0-.1-.9c0-.4-.1-.7-.1-1.1s-.1-.7-.1-1.1a2.3,2.3,0,0,1-.1-.7,2.5,2.5,0,0,1,.2-1.5,1.2,1.2,0,0,1,.7-.7,1.7,1.7,0,0,1,1,0h1l2.5-.2h5.4l1.9.2a2.6,2.6,0,0,0,1.2.1h.6a1.8,1.8,0,0,1,2,0,1.3,1.3,0,0,1,.6.7,3.5,3.5,0,0,1,.1,1.2c0,.5-.1,1.1-.1,1.9v1.8a1.4,1.4,0,0,1-.2.7l-.6.5H55.4c-.5-.2-.7-.1-.7.2v.5H55l3.8.3,3.3.3,2.4.2h1.2c.4,0,.6,0,.7.2S66.4,41.9,66.2,42.2ZM62.4,32.1c-.2.4-.6.5-1.3.4l-2.5-.6-2.2-.8c-.2-.1-.3-.1-.4,0a1,1,0,0,0-.1.4,1.7,1.7,0,0,1-.6,1.2,1.8,1.8,0,0,1-1.1.1.5.5,0,0,1-.5-.3,1.5,1.5,0,0,1-.1-.7c0-.5,0-.8-.1-.8s-.2-.1-.4,0l-1.4.7-1.4.6a2.6,2.6,0,0,1-1.5.1c-.5-.1-.8-.2-.9-.5h-.1c.1-.3.1-.4-.1-.4L47,31a.9.9,0,0,1-.6-.3H46c-.1.1-.1.3-.1.6a.9.9,0,0,1-.4.8,1.6,1.6,0,0,1-1.2.4c-.4.1-.6,0-.7-.1v-.8c.2-.6,0-.8-.4-.6l-1.6.8-1.9.7-1.3.4h-.9a1.2,1.2,0,0,1-.7-.5,2.8,2.8,0,0,1-.6-.8,1.5,1.5,0,0,1-.2-.8,1.6,1.6,0,0,1,1-.2l1.7-.3,2.2-.7,2-.7,1.4-.7.8-.4H46a.7.7,0,0,1,.4.8c-.1.2-.1.3.1.4l.7.4.5.2.5.2.5.2c.3.1.4.2.4.3s.1.1,0,.2v.3h.4l1.9-.9a8.6,8.6,0,0,0,2-1.3c.7-.5,1.3-.7,1.8-.4a1,1,0,0,1,.6.7.2.2,0,0,0,.2.2l1.7.6,1.3.5,1.2.4,1.3.4a1.9,1.9,0,0,1,1,.4A2,2,0,0,1,62.4,32.1ZM55,34.6c0-.2,0-.4-.1-.4l-.6-.2H44.5a.4.4,0,0,0-.4.4c0,.2.2.3.4.3H54.6c.2.1.3,0,.4,0Zm0,1.5c0-.3-.1-.4-.3-.4H44.6a.3.3,0,0,0-.3.3c0,.3.1.4.3.4H54.7c.1,0,.2,0,.2-.1A.3.3,0,0,0,55,36.1Zm-.1,1.5a.3.3,0,0,0-.3-.3H50l-5,.2h-.5c-.1,0-.1.1-.1.2a.3.3,0,0,0,.3.3h10C54.8,38,54.9,37.8,54.9,37.6Zm-3.4,2a.3.3,0,0,0-.3-.3H48.4c-.2,0-.3.1-.3.4v.6h3.3C51.5,40.2,51.5,40,51.5,39.6Z" style="fill:#fcc03c"/></g></g></svg>