<svg xmlns="http://www.w3.org/2000/svg" viewBox="0 0 610 88"><title>button</title><g id="图层_2" data-name="图层 2"><g id="图层_1-2" data-name="图层 1"><rect id="矩形_7_拷贝_3" data-name="矩形 7 拷贝 3" width="610" height="88" style="fill:#fcc03c"/><path id="形状_1_拷贝" data-name="形状 1 拷贝" d="M604,6H6V82H604V54.9h0V33.1h0V6Zm-9.2,9.3v-2h2v2Zm2,1.5v2h-2v-2ZM578.7,7.7h5.5v5.4h-5.5V7.7Zm7,9.1h4.1v3.5h3.5v4.2h-7.6V16.8Zm5.7,2v-2h1.9v2Zm0-3.5v-2h1.9v2Zm-1.6-3.6v3.6h-4.1V7.7h7.6v4ZM7.7,56.5H13V62H7.7Zm0-30.4H13v5.4H7.7Zm0-1.6V16.8h4v3.5h3.5v4.2Zm5.5-5.7v-2h2v2Zm0-3.5v-2h2v2Zm-1.5-3.6v3.6h-4V7.7h7.5v4Zm5,3.6v-2h1.9v2Zm1.9,1.5v2H16.7v-2Zm-1.9,3.5h3.5V16.8h4.1v7.7H16.7V20.3Zm3.5-5V11.7H16.7v-4h7.6v7.6Zm5.6-7.6h5.5v5.4H25.8V7.7ZM15.2,80.3H7.7V72.8h4v3.5h3.5v4Zm0-5.6h-2V72.8h2v1.9Zm0-3.5h-2v-2h2v2Zm0-3.5H11.7v3.5h-4V63.5h7.5v4.2Zm9.1,5.7v6.9H16.7v-4h3.5V72.8h4.1v.6Zm-5.7-.6v1.9H16.7V72.8Zm-1.9-1.6v-2h1.9v2Zm7.6,0H20.2V67.7H16.7V63.5h7.6v7.7Zm7,9.1H25.8V74.9h5.5v5.4Zm552.9,0h-5.5V74.9h5.5v5.4Zm9.1,0h-7.6V72.8h4.1v3.5h3.5v4Zm0-5.6h-1.9V72.8h1.9Zm0-3.5h-1.9v-2h1.9Zm0-3.5h-3.5v3.5h-4.1V63.5h7.6v4.2Zm9,12.6h-7.5v-4h3.6V72.8h3.9v7.5Zm-5.5-7.5v1.9h-2V72.8Zm-2-1.6v-2h2v2Zm7.5,0h-4V67.7h-3.5V63.5h7.5v7.7Zm0-9.2H597V56.5h5.3Zm0-7.1h-6.8V62H584.2V73.4h-7v6.9H32.8V73.4h-7V62H14.5V54.9H7.7V33.1h6.8v-7H25.8V14.6h7V7.7H577.2v6.9h7V26.1h11.3v7h6.8V54.9Zm0-23.4H597V26.1h5.3Zm0-7h-7.5V20.3h3.5V16.8h4v7.7Zm-4-9.2V11.7h-3.5v-4h7.5v7.6Z" style="fill:#fff"/></g></g></svg>