<svg id="图层_1" data-name="图层 1" xmlns="http://www.w3.org/2000/svg" viewBox="0 0 100 100"><title>female</title><circle cx="50" cy="50" r="50" style="fill:#2ec4b6"/><rect x="34.1" y="54.8" width="29" height="18.86" style="fill:#381814"/><path d="M55.5,71.3l-.6-6.8H45.1l-.6,6.8c-2.1.9-5.2,1.2-5.2,2.8s5.8,7.5,10.7,7.5,10.7-4.8,10.7-7.5S57.6,72.2,55.5,71.3Z" style="fill:#efca9e"/><path d="M60.2,62l1.6-2.2C63,53,63.6,46.7,63.6,46.7c-12,0-21.1-9.4-21.1-9.4a29.7,29.7,0,0,0-6.1,19.3l.4,1.1a33.5,33.5,0,0,0,3,4.3,25.5,25.5,0,0,0,8.5,5.9,4.8,4.8,0,0,0,1.7.5,4.8,4.8,0,0,0,1.7-.5A25.5,25.5,0,0,0,60.2,62Z" style="fill:#ffddb0"/><path d="M43.4,81.8s-15.1-25.5-.9-44.5c0,0,9.1,9.4,21.1,9.4,0,0-2.8,32.5-7.3,35.1,0,0,10.3,1,11-4.4s1.9-28.7,1.5-33.7S64.5,18,47.7,20.2c0,0-14.9.4-16.5,24.7,0,0-.5,30,1,32.4S36,83.2,43.4,81.8Z" style="fill:#523219"/><path d="M68.1,74.6,57.4,72a2.6,2.6,0,0,1,1.1,2.4c0,2.6-3.8,4-8.5,4s-8.5-1.4-8.5-4a2.5,2.5,0,0,1,1-2.4L31.9,74.6A11.2,11.2,0,0,0,23.4,83l-1.8,8.1a49.8,49.8,0,0,0,56.8,0L76.6,83A11.2,11.2,0,0,0,68.1,74.6Z" style="fill:#ff715b"/></svg>