<svg xmlns="http://www.w3.org/2000/svg" viewBox="0 0 690 245"><title>frame03</title><g id="图层_2" data-name="图层 2"><g id="图层_1-2" data-name="图层 1"><path id="椭圆_1_拷贝_4" data-name="椭圆 1 拷贝 4" d="M675,245H15A15,15,0,0,0,0,230V15A15,15,0,0,0,15,0H675a15,15,0,0,0,15,15V230A15,15,0,0,0,675,245Z" style="fill:#fff"/><path id="椭圆_1_拷贝_5" data-name="椭圆 1 拷贝 5" d="M23,6h0M667.1,8A17,17,0,0,0,682,22.9V222.1A17,17,0,0,0,667.1,237H22.9A17,17,0,0,0,8,222.1V22.9A17,17,0,0,0,22.9,8H667.1M669,6H21A15,15,0,0,1,6,21V224a15,15,0,0,1,15,15H669a15,15,0,0,1,15-15V21A15,15,0,0,1,669,6Z" style="fill:#ff715b"/></g></g></svg>