<svg xmlns="http://www.w3.org/2000/svg" viewBox="0 0 690 87"><title>frame07</title><g id="图层_2" data-name="图层 2"><g id="图层_1-2" data-name="图层 1"><g id="形状_4" data-name="形状 4"><path d="M34.2,85.5C21.4,82.6,22.1,70,22.1,69.5a1.3,1.3,0,0,0-.4-1.2,1.5,1.5,0,0,0-1.1-.4h-.5c-2,0-6.8-.9-8.3-9.1A24,24,0,0,0,2.7,43.5a24,24,0,0,0,9.1-15.3c1.5-8.2,6.3-9.1,8.3-9.1h.5a1.5,1.5,0,0,0,1.1-.4,1.4,1.4,0,0,0,.4-1.2c0-.5-.7-13.1,12.1-16H655.8c12.8,2.9,12.1,15.5,12.1,16a1.3,1.3,0,0,0,.4,1.2,1.5,1.5,0,0,0,1.1.4h.5c2,0,6.8.9,8.3,9.1a24,24,0,0,0,9.1,15.3,24,24,0,0,0-9.1,15.3c-1.5,8.2-6.3,9.1-8.3,9.1h-.5a1.5,1.5,0,0,0-1.1.4,1.4,1.4,0,0,0-.4,1.2c0,.5.7,13.1-12.1,16Z" style="fill:#666"/><path d="M655.6,3c11.4,2.6,10.8,13.9,10.8,14.4a2.9,2.9,0,0,0,2.8,3.2h.7c1.6,0,5.5.8,6.8,7.9a26.3,26.3,0,0,0,8.2,15,26.3,26.3,0,0,0-8.2,15c-1.3,7.1-5.2,7.9-6.8,7.9h-.6a3,3,0,0,0-2,.8,2.7,2.7,0,0,0-.9,2.4c0,.5.6,11.8-10.8,14.4H34.4C23,81.4,23.6,70.1,23.6,69.6a2.9,2.9,0,0,0-2.8-3.2h-.7c-1.6,0-5.5-.8-6.8-7.9a26.3,26.3,0,0,0-8.2-15,26.3,26.3,0,0,0,8.2-15c1.3-7.1,5.2-7.9,6.8-7.9h.6a3,3,0,0,0,2-.8,2.7,2.7,0,0,0,.9-2.4c0-.5-.6-11.8,10.8-14.4H655.6m.3-3H34.1C19.6,3.1,20.6,17.6,20.6,17.6h-.5c-1.9,0-8,.7-9.8,10.4C8.3,39.4,0,43.5,0,43.5S8.3,47.6,10.3,59c1.8,9.7,7.9,10.4,9.8,10.4h.5S19.6,83.9,34.1,87H655.9c14.5-3.1,13.5-17.6,13.5-17.6h.5c1.9,0,8-.7,9.8-10.4,2-11.3,10.3-15.5,10.3-15.5s-8.3-4.1-10.3-15.5c-1.8-9.7-7.9-10.4-9.8-10.4h-.5s1-14.5-13.5-17.6Z" style="fill:#fcc03c"/></g><path id="形状_5" data-name="形状 5" d="M42.3,76.7a9.8,9.8,0,0,1-4.4-1c-5.2-2.6-7.1-9.4-7.7-12.7-2.8-.5-6.3-2.8-7.3-8.7a13.5,13.5,0,0,0-6.6-9.1,2.1,2.1,0,0,1-1-2.9,1.6,1.6,0,0,1,1.3-1.1l.8-.3a12.7,12.7,0,0,0,5.5-8.8c1-5.9,4.5-8.1,7.3-8.7.6-3.2,2.5-10,7.7-12.7,3.5-1.7,7.8-1.2,12.6,1.6,2.2-.1,8.2-.1,12.4,3.8s4.4,7.2,4.1,12.7c-.5,8.2-4.8,11.4-7.3,12.6a11.6,11.6,0,0,1-11.5-1,7.9,7.9,0,0,1-3.4-7.6c.6-5,3.7-7,6.4-6.8a3.9,3.9,0,0,1,4.1,3.8,2,2,0,0,1-2,2.1,2.1,2.1,0,0,1-2.1-1.6,1.1,1.1,0,0,0-.8,0,4.2,4.2,0,0,0,.2,6.6,7.4,7.4,0,0,0,7.3.6c2.9-1.4,4.6-4.4,4.9-8.9s-.7-7.3-2.8-9.3-9.6-2.7-9.7-2.7a1.7,1.7,0,0,1-1.4-.3c-3.7-2.3-6.8-2.9-9.1-1.7-4,2-5.5,8.6-5.7,11a2.2,2.2,0,0,1-2.3,2c-.6-.1-3.9,0-4.8,5.3a17.3,17.3,0,0,1-5.8,10.5A17.6,17.6,0,0,1,27,53.5c.9,5.3,4.2,5.4,4.8,5.4a2.1,2.1,0,0,1,2.3,1.9c.3,2.4,1.8,9.1,5.7,11.1,2.3,1.1,5.4.5,9.1-1.8a3.2,3.2,0,0,1,1.4-.3c.1,0,6.1.8,9.7-2.6s3-5.1,2.8-9.3-2-7.6-4.9-9a7.4,7.4,0,0,0-7.3.6,4.2,4.2,0,0,0-1.7,3.6c.2,1.6.8,2.7,1.5,3h.8a2.1,2.1,0,0,1,4.1.4,4.1,4.1,0,0,1-4.1,3.9c-2.7.2-5.8-1.9-6.4-6.9a7.7,7.7,0,0,1,3.4-7.5,11.3,11.3,0,0,1,11.5-1c2.5,1.1,6.8,4.3,7.3,12.5.3,5.5-1,9.8-4.1,12.7s-10.2,4-12.4,3.8A15.9,15.9,0,0,1,42.3,76.7Z" style="fill:#fcc03c"/><path id="形状_5_拷贝" data-name="形状 5 拷贝" d="M647.7,77a9.9,9.9,0,0,0,4.5-1c5.2-2.6,7.1-9.4,7.7-12.7,2.7-.6,6.2-2.8,7.3-8.7a13.1,13.1,0,0,1,6.6-9.2,2.1,2.1,0,0,0,1-2.8,1.8,1.8,0,0,0-1.3-1.1l-.8-.3a12.7,12.7,0,0,1-5.5-8.8c-1-5.9-4.6-8.1-7.3-8.7-.6-3.3-2.5-10.1-7.7-12.7-3.6-1.8-7.8-1.2-12.7,1.6-2.1-.2-8.1-.2-12.3,3.8s-4.5,7.2-4.1,12.7c.5,8.2,4.7,11.4,7.2,12.6a12,12,0,0,0,11.6-1,8.1,8.1,0,0,0,3.4-7.6c-.6-5-3.7-7-6.5-6.9a4.2,4.2,0,0,0-4.1,3.9,2.1,2.1,0,0,0,2.1,2.1,2.1,2.1,0,0,0,2.1-1.7h.7c.8.3,1.3,1.4,1.5,3a3.8,3.8,0,0,1-1.7,3.6,7.3,7.3,0,0,1-7.3.6c-2.8-1.4-4.5-4.5-4.8-9s.6-7.3,2.7-9.2c3.6-3.5,9.7-2.7,9.8-2.7a1.6,1.6,0,0,0,1.3-.3c3.8-2.3,6.9-2.9,9.2-1.7,3.9,1.9,5.4,8.6,5.7,11a2.1,2.1,0,0,0,2.3,1.9c.6,0,3.8.1,4.8,5.4a17.3,17.3,0,0,0,5.8,10.5,17.1,17.1,0,0,0-5.8,10.1c-1,5.3-4.2,5.4-4.9,5.4a2,2,0,0,0-2.2,1.9c-.3,2.4-1.8,9.1-5.7,11-2.3,1.2-5.4.6-9.2-1.7a1.6,1.6,0,0,0-1.3-.3c-.1,0-6.2.8-9.8-2.7-2.1-1.9-3-5.1-2.7-9.2s2-7.6,4.8-9a7.3,7.3,0,0,1,7.3.6,3.8,3.8,0,0,1,1.7,3.6c-.2,1.6-.7,2.7-1.5,3h-.7a2.1,2.1,0,0,0-4.2.4,4.2,4.2,0,0,0,4.1,3.9c2.8.1,5.9-1.9,6.5-6.9a8.1,8.1,0,0,0-3.4-7.6,11.7,11.7,0,0,0-11.6-1c-2.5,1.2-6.7,4.4-7.2,12.6-.4,5.5,1,9.8,4.1,12.7s10.2,4,12.3,3.8A16.2,16.2,0,0,0,647.7,77Z" style="fill:#fcc03c"/></g></g></svg>