<svg xmlns="http://www.w3.org/2000/svg" viewBox="0 0 690 86"><title>frame01</title><g id="图层_2" data-name="图层 2"><g id="图层_1-2" data-name="图层 1"><path id="椭圆_1_拷贝_2" data-name="椭圆 1 拷贝 2" d="M675,86H15A15,15,0,0,0,0,71H0V15A15,15,0,0,0,15,0H675a15,15,0,0,0,15,15V71a15,15,0,0,0-15,15Z" style="fill:#424342"/><path id="椭圆_1_拷贝_3" data-name="椭圆 1 拷贝 3" d="M23,6h0M667.1,8A17,17,0,0,0,682,22.9V63.1A17,17,0,0,0,667.1,78H22.9A17,17,0,0,0,8,63.1V22.9A17,17,0,0,0,22.9,8H667.1M669,6H21A15,15,0,0,1,6,21V65A15,15,0,0,1,21,80H669a15,15,0,0,1,15-15V21A15,15,0,0,1,669,6Z" style="fill:#fcc03c"/></g></g></svg>