<svg xmlns="http://www.w3.org/2000/svg" viewBox="0 0 550 390"><title>frame04</title><g id="图层_2" data-name="图层 2"><g id="图层_1-2" data-name="图层 1"><path id="椭圆_1_拷贝_4" data-name="椭圆 1 拷贝 4" d="M535,390H15A15,15,0,0,0,0,375H0V15A15,15,0,0,0,15,0H535a15,15,0,0,0,15,15V375a15,15,0,0,0-15,15Z" style="fill:#fff"/><path id="椭圆_1_拷贝_5" data-name="椭圆 1 拷贝 5" d="M23,6h0M527.1,8A17,17,0,0,0,542,22.9V367.1A17,17,0,0,0,527.1,382H22.9A17,17,0,0,0,8,367.1V22.9A17,17,0,0,0,22.9,8H527.1M529,6H21A15,15,0,0,1,6,21V369a15,15,0,0,1,15,15H529a15,15,0,0,1,15-15V21A15,15,0,0,1,529,6Z" style="fill:#424342"/></g></g></svg>