<svg xmlns="http://www.w3.org/2000/svg" viewBox="0 0 450 64"><title>frame05</title><g id="图层_2" data-name="图层 2"><g id="图层_1-2" data-name="图层 1"><g id="形状_1_拷贝_3" data-name="形状 1 拷贝 3"><path d="M25.2,62.5c-9.1-2.1-8.5-11-8.5-11.3a1.3,1.3,0,0,0-.5-1.2,1.2,1.2,0,0,0-1-.5h-.4c-1.4,0-4.7-.7-5.7-6.4A18.4,18.4,0,0,0,2.7,32,18.4,18.4,0,0,0,9.1,20.8c1-5.7,4.3-6.4,5.7-6.4h.4a1.2,1.2,0,0,0,1-.4,1.3,1.3,0,0,0,.5-1.2c0-.3-.5-9.3,8.6-11.3H424.8c9.1,2.1,8.5,11,8.5,11.3a1.3,1.3,0,0,0,.5,1.2,1.2,1.2,0,0,0,1,.5h.4c1.4,0,4.7.7,5.7,6.4A18.4,18.4,0,0,0,447.3,32a18.4,18.4,0,0,0-6.4,11.2c-1,5.7-4.3,6.4-5.7,6.4h-.4a1.2,1.2,0,0,0-1,.4,1.3,1.3,0,0,0-.5,1.2c0,.3.5,9.3-8.6,11.3Z" style="fill:#ff715b"/><path d="M424.6,3c7.4,1.8,7.3,8.9,7.2,9.7a2.8,2.8,0,0,0,.9,2.5,3,3,0,0,0,2,.8h.5c1.2,0,3.4.7,4.2,5.2A19.9,19.9,0,0,0,445.1,32a19.9,19.9,0,0,0-5.7,10.9c-.8,4.5-3,5.2-4.2,5.2h-.5a3,3,0,0,0-2,.8,2.8,2.8,0,0,0-.9,2.5c0,.3.5,7.9-7.2,9.7H25.4c-7.4-1.8-7.3-8.9-7.2-9.7a2.8,2.8,0,0,0-.9-2.5,3,3,0,0,0-2-.8h-.5c-1.2,0-3.4-.7-4.2-5.2A19.9,19.9,0,0,0,4.9,32a19.9,19.9,0,0,0,5.7-10.9c.8-4.5,3-5.2,4.2-5.2h.5a3,3,0,0,0,2-.8,2.8,2.8,0,0,0,.9-2.5c0-.3-.5-7.9,7.2-9.7H424.6m10.6,12.9h0M424.9,0H25.1c-10.7,2.3-9.9,12.9-9.9,12.9h-.4c-1.4,0-5.9.6-7.2,7.7A16.2,16.2,0,0,1,0,32,16.2,16.2,0,0,1,7.6,43.4c1.3,7.1,5.8,7.7,7.2,7.7h.4S14.4,61.7,25.1,64H424.9c10.7-2.3,9.9-12.9,9.9-12.9h.4c1.4,0,5.9-.6,7.2-7.7A16.2,16.2,0,0,1,450,32a16.2,16.2,0,0,1-7.6-11.4c-1.3-7.1-5.8-7.7-7.2-7.7h-.4s.8-10.6-9.9-12.9Z" style="fill:#666"/></g><path id="形状_3_拷贝_6" data-name="形状 3 拷贝 6" d="M32.9,54.3a5.9,5.9,0,0,1-2.9-.7c-3.4-1.7-4.7-6.2-5.1-8.3-1.8-.4-4.1-1.8-4.8-5.7a8.1,8.1,0,0,0-4.3-6,1.6,1.6,0,0,1-.8-1.4A1.4,1.4,0,0,1,16,31l.6-.2A8.3,8.3,0,0,0,20.1,25c.7-3.9,3-5.3,4.8-5.7.4-2.1,1.7-6.6,5.1-8.3s5.1-.8,8.2,1c1.4-.1,5.4-.1,8.1,2.5s2.9,4.7,2.7,8.4c-.3,5.3-3.1,7.4-4.7,8.2a7.6,7.6,0,0,1-7.6-.6,5.3,5.3,0,0,1-2.2-5c.4-3.3,2.4-4.6,4.2-4.5a2.7,2.7,0,0,1,2.7,2.5A1.4,1.4,0,0,1,40,24.9a1.3,1.3,0,0,1-1.3-1.1h-.5a2.3,2.3,0,0,0-1,1.9,2.5,2.5,0,0,0,1.1,2.4,5.1,5.1,0,0,0,4.8.4c1.9-.9,3-3,3.2-5.9s-.5-4.8-1.8-6.1-6.4-1.7-6.4-1.7l-.9-.2c-2.5-1.6-4.5-1.9-6-1.2s-3.5,5.7-3.7,7.3A1.4,1.4,0,0,1,26,22c-.4,0-2.5.1-3.1,3.5A11.5,11.5,0,0,1,19,32.4a11.8,11.8,0,0,1,3.9,6.7c.6,3.5,2.7,3.5,3.1,3.5a1.4,1.4,0,0,1,1.5,1.3c.2,1.5,1.2,5.9,3.7,7.2s3.5.4,6-1.1a1,1,0,0,1,.9-.2s4,.5,6.4-1.8,1.9-3.3,1.8-6.1S45,37,43.1,36.1a4.6,4.6,0,0,0-4.8.4,2.4,2.4,0,0,0-1.1,2.3,2.6,2.6,0,0,0,1,2c.1,0,.3.1.5,0a1.3,1.3,0,0,1,1.6-1,1.4,1.4,0,0,1,1.1,1.3,2.8,2.8,0,0,1-2.7,2.6c-1.8.1-3.8-1.3-4.2-4.5a5.1,5.1,0,0,1,2.2-5,7.7,7.7,0,0,1,7.6-.7c1.6.8,4.4,2.9,4.7,8.3.2,3.6-.7,6.4-2.7,8.3s-6.7,2.6-8.1,2.5A11.1,11.1,0,0,1,32.9,54.3Z" style="fill:#666"/><path id="形状_3_拷贝_7" data-name="形状 3 拷贝 7" d="M417.2,54a5.9,5.9,0,0,0,2.9-.7c3.4-1.7,4.6-6.2,5-8.3,1.8-.4,4.1-1.8,4.8-5.7a8.7,8.7,0,0,1,4.3-6,1.4,1.4,0,0,0,.8-1.4,1.2,1.2,0,0,0-1-1.2l-.5-.2a8.1,8.1,0,0,1-3.6-5.8c-.7-3.9-3-5.3-4.8-5.7-.4-2.1-1.6-6.6-5-8.3s-5.1-.8-8.3,1c-1.4-.1-5.4-.1-8.1,2.5s-2.9,4.7-2.7,8.4c.4,5.3,3.1,7.4,4.8,8.2a7.5,7.5,0,0,0,7.5-.6,5.6,5.6,0,0,0,2.3-5c-.4-3.3-2.5-4.6-4.3-4.5a2.7,2.7,0,0,0-2.7,2.5,1.4,1.4,0,0,0,1.4,1.4,1.5,1.5,0,0,0,1.4-1.1h.4a2.3,2.3,0,0,1,1,2,2.5,2.5,0,0,1-1.1,2.4,5.1,5.1,0,0,1-4.8.4c-1.8-.9-2.9-3-3.1-5.9s.4-4.8,1.8-6.1,6.3-1.8,6.3-1.8a1,1,0,0,0,.9-.2c2.5-1.5,4.5-1.9,6-1.1s3.6,5.7,3.7,7.3a1.4,1.4,0,0,0,1.5,1.2h0c.4,0,2.6.1,3.2,3.5a11.3,11.3,0,0,0,3.8,6.9,11.1,11.1,0,0,0-3.8,6.7c-.6,3.5-2.8,3.5-3.2,3.5a1.4,1.4,0,0,0-1.5,1.2c-.1,1.6-1.1,6-3.7,7.3s-3.5.4-6-1.1a1,1,0,0,0-.9-.2s-4,.5-6.3-1.8-2-3.3-1.8-6.1,1.3-4.9,3.1-5.8a4.8,4.8,0,0,1,4.8.3,2.5,2.5,0,0,1,1.1,2.4,2.5,2.5,0,0,1-.9,2h-.5a1.5,1.5,0,0,0-1.6-1.1,1.4,1.4,0,0,0-1.1,1.4,2.6,2.6,0,0,0,2.6,2.5c1.8.2,3.9-1.2,4.3-4.5a5.3,5.3,0,0,0-2.3-4.9,7.5,7.5,0,0,0-7.5-.7c-1.7.8-4.4,2.9-4.8,8.2q-.3,5.6,2.7,8.4c2.7,2.6,6.7,2.6,8.1,2.5A11.4,11.4,0,0,0,417.2,54Z" style="fill:#666"/></g></g></svg>