<svg xmlns="http://www.w3.org/2000/svg" viewBox="0 0 140 110"><title>hehun_bg01</title><g id="图层_2" data-name="图层 2"><g id="图层_1-2" data-name="图层 1"><path d="M86,86.4a8.7,8.7,0,0,1-4.8-2.3l-.5-.6a3.6,3.6,0,0,1-.7-3.9c0-.1.1-.2,0-.3h-.4l-.4.2a3.3,3.3,0,0,1-2.4-.3l-.5-.4h-.6l-1,.8a1.9,1.9,0,0,1-1.3.3,1.6,1.6,0,0,1-1-1.1,1.7,1.7,0,0,0-1-1.3,21.5,21.5,0,0,1-1.8-2.4c-.2-.7-.7-1.2-.8-1.9v-.5a1.6,1.6,0,0,1,.3-.9l.3-.3c1.4-.2,1.9-1.4,2.5-2.4s.7-1.2,1.5-1.3l1-.3h-.1c-1.5.5-1.7-.5-1.9-1.6a5.7,5.7,0,0,1-.1-1.3c-.1-.3-.3-.5-.3-.7.5-3,1.1-3.5,3.7-3.2.7.6.5,1.2.3,1.9s-.4.8.1,1.2a1.9,1.9,0,0,0,1.6.6,2.2,2.2,0,0,1,1.9.5,7.6,7.6,0,0,0,1.8,2.2,1.7,1.7,0,0,0,1.2.8,4.9,4.9,0,0,1,1.8,1.4.8.8,0,0,1,.1.7c-.2.7-.8.8-1.5.8H80.8c1,0,2.3-.5,3.3.5s.5,2.5,1.6,3.4-.2,1.2-.7,1.7,2.8-.1,3.9,1,.5,2.2-.1,3.3a2.4,2.4,0,0,1-.7,1.6c-1,.9-1.9,1.9-1,3.5s-.1.7-.6.6h0C86.3,86.4,86.2,86.3,86,86.4Z" style="fill:#d9bcd8;fill-rule:evenodd"/><path d="M70.9,85.5a3,3,0,0,1-1.5,1.2,8.1,8.1,0,0,1-3.3,1.4,2.9,2.9,0,0,1-1.3.1,3.3,3.3,0,0,1-3.1-1.6l-.4-.5a.1.1,0,0,0-.1.1.9.9,0,0,0-.3.5,3.4,3.4,0,0,1-2.8,2.1H56.6A9.8,9.8,0,0,1,51.7,87a5,5,0,0,1-1.9-2.4.9.9,0,0,1,.7-.6c1.3.1,2-.9,3-1.4h.3c2.6-.2,5.2-.4,6.1-3.5l.6-.4a5.5,5.5,0,0,1,3.1,0,2,2,0,0,0,1.9-.6,3.4,3.4,0,0,1,1.5-.9c2.4,1,3.3,2.3,3.1,4.9,0,.2-.1.4.1.5S70.9,84.5,70.9,85.5Z" style="fill:#c28ebd;fill-rule:evenodd"/><path d="M41.5,52.6a8.7,8.7,0,0,0,3.2-.6l2.1-.7H47A3.6,3.6,0,0,1,48.7,55a8.1,8.1,0,0,1-1.4,1.2c-.5.3-1.1.5-1.5-.2l.8-2a.5.5,0,0,0-.3-.3h-.2a30.3,30.3,0,0,0-3.2,1.2,35.6,35.6,0,0,1-4.1,1.7c-.9.2-1.9.6-1.6,1.9a2,2,0,0,1-.8,1.3c-1.9,1.3-1.5,3.3-1.9,5.1a2,2,0,0,1-.7,1.5c-1.3.5-1.7,1.7-2.4,2.7s-1,1.3-1.7.3a4.9,4.9,0,0,1-.1-1.2,2.5,2.5,0,0,1,.3-1.5,40.8,40.8,0,0,0,3.5-7.3c.2-.6-.2-.7-.7-.6l-2.9,1c-1,.4-1,1.2-.4,1.9a4.1,4.1,0,0,1,1.1,2.8c0,.5.1,1-.5,1.3s-1.9-1.4-2.6-2.3-.5-1.2-1.1-1.5l-.3-.4c0-.2-.1-.3-.1-.5a1.6,1.6,0,0,1,.3-.9c.7-.7.2-1.2-.4-1.7s-2-.8-1.2-2.1a1.4,1.4,0,0,1,1.9-.3l1.2.5a1.1,1.1,0,0,0,1.4-.5c.2-.5-.4-.7-.6-1s-1.5-1.6-2.3,0a1.1,1.1,0,0,1-1.3.4c-.3-1.1-.4-2.2-.6-3.3s.1-.3.3-.5h.3c-.1,0,.1-.1.1-.1V51c0-.3-.2-.6-.1-1s.1-.3.3-.4,1.9.3,2.8.8A16.9,16.9,0,0,1,32.4,54a1.6,1.6,0,0,0,2,.6A57.5,57.5,0,0,1,41.5,52.6Z" style="fill:#b6caa5;fill-rule:evenodd"/><path d="M100.8,12.9a13.2,13.2,0,0,1,2.8-2.5A29.2,29.2,0,0,1,107.3,8l.9-.5c.8-.4,1,.2,1.1.8a12.3,12.3,0,0,1-.2,2.7c-.4,3.2-.4,6.2,1.1,9.2a2.1,2.1,0,0,1-.2,2.5,2.8,2.8,0,0,0-.8,1.5c-.5.8-1.4.8-2.2,1.1s-1.3,1.9-2.8,1.2a3.6,3.6,0,0,1-1.1-2.4,50.6,50.6,0,0,1-1.2-7.8A8.5,8.5,0,0,0,100.8,12.9Z" style="fill:#a2be8e;fill-rule:evenodd"/><path d="M19.7,96.3c0-.2-.1-.3-.1-.5a46.1,46.1,0,0,1,.1-9.1c0-.3.1-.5.1-.8,2.1-1.5,3.7-3.5,6.2-4.5a3.7,3.7,0,0,1,2.2-1l1-.2h.5c1.2-.1,2.5-1.2,3.7,0a1,1,0,0,1,.2.7,3.3,3.3,0,0,1-1.2,1.6A38.8,38.8,0,0,0,29.3,85c-.8.8-1,1.7,0,2.5s.2.3.2.5-.9,2-1.8,2.8-5.1,2.7-6.8,5.1A1.1,1.1,0,0,1,19.7,96.3Z" style="fill:#c5d7ba;fill-rule:evenodd"/><path d="M45.2,92a1.9,1.9,0,0,1-.5,1,28.1,28.1,0,0,1-4,4.5,11.2,11.2,0,0,1-2.1,1.7c-1-.4-1-1.3-1-2.1a25.4,25.4,0,0,0-1.3-7.2c-.5-1.5-1.7-2.5-2.2-4a4.2,4.2,0,0,1,1.7-3.7,15.5,15.5,0,0,1,4.8,0c1.3,1.3,1.7,3.2,2.4,4.9A18,18,0,0,0,45.2,92Z" style="fill:#a7c194;fill-rule:evenodd"/><path d="M95.7,56.9c0-.1.1-.1.2-.2a1.3,1.3,0,0,1,1.9.3c0-.6-.2-1.3.8-1.4a5.2,5.2,0,0,1,3.1,1.2,10.6,10.6,0,0,1,3.6,4.5,4,4,0,0,1,.2,1.9,1.6,1.6,0,0,1-.3.9,3.1,3.1,0,0,1-.9,1.1.7.7,0,0,0-.4.6l-.3.3c-1.5.4-2.9-.6-4.4-.6s-.9,0-1.2.5-.1.3-.3.4-2.2.3-3.3.3a.9.9,0,0,1-.4-.8A10.5,10.5,0,0,1,96.6,63c-1,.6-1.6,2.1-3.1,2.5a.9.9,0,0,1-.8-.4c-.1-1.4-.7-2.9.5-4.3s.1.1,0-.1C92.9,58.7,94.3,57.8,95.7,56.9Z" style="fill:#a4559b;fill-rule:evenodd"/><path d="M110.2,6.6a23.2,23.2,0,0,1,5.3-2.5l8.1-2.9L125,.8c.5.5.3,1,0,1.5-1.7,2.2-3.1,4.7-5.1,6.6s-3.5,1.6-4,3.7a.7.7,0,0,1-1.1.4c-1.1-.8-2.3-.3-3.4,0h-1a1.6,1.6,0,0,1-.6-1.7A35.7,35.7,0,0,0,110.2,6.6Z" style="fill:#9fbc8b;fill-rule:evenodd"/><path d="M43.3,73.5a4.2,4.2,0,0,1,.4-1.5,2.6,2.6,0,0,1,1.2-1.5l.8-.6s.1-.2,0-.2a1,1,0,0,0-.4-.5,2.8,2.8,0,0,1-.8-1.5,19.3,19.3,0,0,0,1.1-5.3,5.2,5.2,0,0,1,.6-1.3l.6-.7c1.9-1.8,4.1-2.6,6.6-1.2.8.4,1,1.2,1.7,1.8a1.1,1.1,0,0,1,.2,1.4c-.9,1-.8,2.1-.7,3.3a1.5,1.5,0,0,1-.4,1.1,1.1,1.1,0,0,1-1.2-.7l-.3-.4c-.2.3,0,.7-.2.9-2-.1-3.1,1.1-3.8,2.8l-.3.3c-1.1.6-.2,2.1-1.2,2.9s.6.2.9.2.9,1.1.4,1.7a1.5,1.5,0,0,1-1.5.6,1.1,1.1,0,0,0-.8.3C44.5,75.9,44.2,75.7,43.3,73.5Z" style="fill:#a95fa1;fill-rule:evenodd"/><path d="M121.6,30.6a8.8,8.8,0,0,1-2.3,2.4,5.3,5.3,0,0,1-2.4.8,7.5,7.5,0,0,1-2.6.1h-2.7a14.8,14.8,0,0,0-4.2.2,14.5,14.5,0,0,0-3.5,1.2l-.6.3c-.7-.8,0-1.3.5-1.8s.9-.5,1.1-1a5.8,5.8,0,0,1,.6-2.6c1-1.8,2.4-2.1,4.4-1.6s4,.2,6,.2,2.6-1,3.9-1.3,1.2-.6,1.8-.4.8,1,.6,1.7A6,6,0,0,0,121.6,30.6Z" style="fill:#afc79e;fill-rule:evenodd"/><path d="M41.5,52.6a1.3,1.3,0,0,1-.5.6l-.6.2c-1.9.5-3.7,1.2-5.6,1.8l-1.2.4a1.3,1.3,0,0,1-1.2-.4l-.2-.2a15.2,15.2,0,0,0-4-3.6,11.4,11.4,0,0,0-3.1-1.6c-1.3-.4-1.4-1.8-2.4-2.5a1.1,1.1,0,0,1-.1-1.2,5.9,5.9,0,0,1,5.2-.3,8.6,8.6,0,0,1,1.9,1.1l2,1.6L33.8,50a13.7,13.7,0,0,0,6.8,2.5Z" style="fill:#c5d7ba;fill-rule:evenodd"/><path d="M33.1,80.2h-.8a2.5,2.5,0,0,0-1.7.5c-.3.3-.6.2-.9.1s.4-.9.5-1.6a15.8,15.8,0,0,0-5.7,2.2c-.4.2-.8.1-.9-.3s-1.3-.9-1.9-1.3l-.4-.6a6.1,6.1,0,0,1,4.4-4.4,23,23,0,0,1,2.8-.6l2.4-.3a13.5,13.5,0,0,0,5.7-2.3,6,6,0,0,0,1.3-.9l1-.8c.7.2.8.3.7.9a6.1,6.1,0,0,1-.9,1.8l-.3.4A4.1,4.1,0,0,0,37,74.1a18.3,18.3,0,0,1-3.5,4.3c-.1.2-.2.3-.2.5S33.5,79.8,33.1,80.2Z" style="fill:#aec79d;fill-rule:evenodd"/><path d="M94.7,36.1c-.1.8.1,1.7,0,2.6a4,4,0,0,1-3.5,5.4c-1.2.1-1.4-.7-1.4-1.6a12.4,12.4,0,0,0-.4-4.3,2.7,2.7,0,0,0-1.9-2c-1.5-.3-1.9-1.1-1.3-2.5a7.4,7.4,0,0,0,.5-3.6,1.7,1.7,0,0,1,.3-1l.4-.3c1.8-.8,3.2,0,4.6.9A7,7,0,0,1,94.7,36.1Z" style="fill:#e4d1e4;fill-rule:evenodd"/><path d="M51.2,27.2l1.6-1.8c1.2-2.6,4.5-3,6.6-.8.3.9-.4,1.5-.9,2a10.4,10.4,0,0,0-2.1,2.6,3.3,3.3,0,0,0-.2,3.2c.7,1.6.5,2-1.1,2.4a3.7,3.7,0,0,0-2.3,1.9c-.4.7-.8,1.2-1.8,1a3.6,3.6,0,0,1-2.5-2.6C47.8,32,48.3,29.2,51.2,27.2Z" style="fill:#d4b6d4;fill-rule:evenodd"/><path d="M66.3,17.3h2.9a3.9,3.9,0,0,1,5.2,3.7c-.2,1-.9,1.1-1.7,1.1a14.1,14.1,0,0,0-2.9.1c-1.7.4-3.2,1.1-3.6,3.1a1,1,0,0,1-.5.8.9.9,0,0,1-1-.1,4.3,4.3,0,0,0-3.6-.8A1.9,1.9,0,0,1,58.9,24c-.9-2.5.5-4.1,2.2-5.4S64.3,16.7,66.3,17.3Z" style="fill:#d2b1d1;fill-rule:evenodd"/><path d="M8.4,56.9a38.2,38.2,0,0,1,4.5-4.5l2.7-2.2,1.1-.7a4.9,4.9,0,0,0,2.9.6c.8,0,1.8-.1,2.3.9s.5,2.8.6,4.2-.3,3.1-2.3,3.5c-.3.1-.4.3-.6.4s-2-.3-2.9-.7-4.6-1.7-7.1-1.1C9.2,57.3,8.7,57.4,8.4,56.9Z" style="fill:#a1bd8d;fill-rule:evenodd"/><path d="M88.3,80.6l.5-1.2a.8.8,0,0,0-.1-1,.3.3,0,0,1,0-.4c0-.2-.1-.4-.3-.3a2.1,2.1,0,0,1-1.7-.6l-.4-.5a.8.8,0,0,0-1-.1c-.4.3-.7.8-1.1.9H84v-.2l.9-1.1a1.6,1.6,0,0,0,.5-1.1.5.5,0,0,1,.2-.4c1.2-.4,2,.3,2.9.8a2.6,2.6,0,0,0,2.6,1c.7-.1,1.3-.6,2,0s.8,1.5,2,1.1.9.3,1.2.6,1.2,1.7,2.4,1.5a.6.6,0,0,1,.6.5c.2.4-.2,3.1-.6,3.2s-2.8,2.2-4.7,2.5a2.6,2.6,0,0,1-1.8-1.2l-.5-.6c-.1-.2-.2-.2-.5,0v.2a7.6,7.6,0,0,0-2.2-1.1c-.9-.1-1.2-.9-.4-1.4S88.2,81,88.3,80.6Z" style="fill:#cda4cb;fill-rule:evenodd"/><path d="M126.6,14.2a24.7,24.7,0,0,1-.5,3.8c0,.1-.1.2-.1.3a35.7,35.7,0,0,1-3.7,4,15.7,15.7,0,0,1-6.9,2.9A2.4,2.4,0,0,1,114,25c-.7-.5-1.3-1-2.3-.6s-.9.4-1.3-.1.2-.8.4-1.1l.5-.7a5,5,0,0,1,.7-.8l.4-.3c1-.3,1.5-1.2,2.3-1.8a2.7,2.7,0,0,1,.8-.7l.5-.3a10.3,10.3,0,0,1,3-1.4,18.6,18.6,0,0,0,6.4-2.9C125.8,14.1,126.2,13.9,126.6,14.2Z" style="fill:#c5d7ba;fill-rule:evenodd"/><path d="M11.6,70.8h-1l-8-2.3L2,68.1c.1-.7.7-1,1.3-1.2,2.1-.8,4.2-1.3,6.4-1.9l.5-.2,1.1-.5c3.1-.8,5.9-2.2,9.1-2.8l.7.3c.6.8.2,1.4-.5,1.7a4.5,4.5,0,0,0-2.2,3c-.1.4-.2.9-.6,1-2.2.4-3.6,2.2-5.5,3.1A1,1,0,0,1,11.6,70.8Z" style="fill:#a0bc8c;fill-rule:evenodd"/><path d="M47.3,45.3a16.2,16.2,0,0,0-.1-2.2c0-.2-.1-.5-.1-.7s.1-2.7,1.2-3.8l.4-.3,1.5-.8c.4-.2.8,0,1.2.1s.8,1.1.7,1.8a15.4,15.4,0,0,0,.3,3.7,2.4,2.4,0,0,0,1.7,2c2,.8,2,.9,1.3,2.8a11.6,11.6,0,0,0-.4,1.8c-.2.8.7,1.5.1,2.2a3.8,3.8,0,0,1-2.9-1,2.1,2.1,0,0,0-2.5-.5h-.5c-.2,0-.3-.2-.4-.3s-.8-.9-1.1-1.4A4.7,4.7,0,0,1,47.3,45.3Z" style="fill:#d5b6d4;fill-rule:evenodd"/><path d="M1.1,66.1a1.6,1.6,0,0,1,.4-.7,74.6,74.6,0,0,1,5.6-7l.4-.4a17.1,17.1,0,0,0,3.2-.1c2.3-.4,4.4.5,6.4,1.4s1,.7.9,1.3a1.6,1.6,0,0,1-1.2,1.2l-5.6,1.8a3.2,3.2,0,0,0-1.4.3,14.6,14.6,0,0,1-1.9.7L3.5,66.2A2.3,2.3,0,0,1,1.1,66.1Z" style="fill:#a0bc8c;fill-rule:evenodd"/><path d="M119.5,8.6a16.6,16.6,0,0,1,1.6-2.1l.5-.7c.9-1.3,1.8-2.5,2.8-3.7A2.2,2.2,0,0,0,125,.8a16.7,16.7,0,0,1,2-.8c.2,0,.4.1.4.3a9.6,9.6,0,0,1,0,1.7c-.9,2.7-2.9,4.6-4.5,6.8a69.4,69.4,0,0,1-5.1,6.7.6.6,0,0,0,0,.6v.5c-.3,1-1.4,1.1-1.8,2a5.5,5.5,0,0,0-2.1,1.9,1.6,1.6,0,0,1-1.4.7l-.4-.2a.4.4,0,0,1,.1-.3l-.4.2a.9.9,0,0,1-1.3-.4c-.3-.8-.4-1.5.3-2s2.1-2.3,3.1-3.4S117.3,10.5,119.5,8.6Z" style="fill:#90af78;fill-rule:evenodd"/><path d="M21.6,108.1a2.1,2.1,0,0,1-.3-.7c-.6-2.8-1-5.7-1.4-8.6a.6.6,0,0,1,.1-.4c1.7-1.8,2.7-4.3,5.2-5.3a3.1,3.1,0,0,1,2.3-.3,2.3,2.3,0,0,1,.9,2.4,1.4,1.4,0,0,1-.2.7,5.9,5.9,0,0,0-1.4,3l-.2.5-.3.3c-1,2.5-2.1,4.9-3.3,7.3C22.8,107.6,22.7,108.6,21.6,108.1Z" style="fill:#c5d7ba;fill-rule:evenodd"/><path d="M10.9,63.1l1-.5,4.9-1.5.7-.4c0-.1.1-.3,0-.3l-.3-.4c-1.3-.4-2.6-1-4-1.3a5.3,5.3,0,0,0-2.8-.1l-1.1.3a1.2,1.2,0,0,1-1.6-.7c0-.1-.1-.1-.2-.2a3.3,3.3,0,0,1,.9-1.1l1-.2a8.1,8.1,0,0,1,4.1-.1,17.6,17.6,0,0,1,3,1c1.1.3,2,.9,3.1,1.2s1.6.4,2.4.1l.5.2a.5.5,0,0,1,.2.4c-.4,1.1-.7,2.1-2.1,2.4l-2.2.8c-2.2.8-4.4,1.6-6.7,2.2h-.4c-.4-.1-.6.4-1,.3h0C9.9,64.4,9.3,63.4,10.9,63.1Z" style="fill:#84a76b;fill-rule:evenodd"/><path d="M108.5,61.7a5,5,0,0,1-2-1.5l-1.4-1.7a18.6,18.6,0,0,0-2.7-2.9l-.4-.5c-.2-.1-.2-.4-.5-.4a.9.9,0,0,1-.6-.4c.6-1,.1-2.1.4-3.1s1.1-.7,1.8-.6a2.9,2.9,0,0,1,2.4.2c1.3,1.1,1.9,2.8,3.1,4a1.8,1.8,0,0,0,.5.7l.4.3a10,10,0,0,1,2,2.1c0,.2.1.3,0,.5a2.9,2.9,0,0,1-1.3,2.2C109.4,60.7,109.3,61.8,108.5,61.7Z" style="fill:#74a05d;fill-rule:evenodd"/><path d="M11.6,70.8l.8-.9a1.8,1.8,0,0,1,1.3-.9,1.8,1.8,0,0,0,1.4-1.4c.1-.4.5-.5.9-.5h1.4a.3.3,0,0,0,.3-.3c-.1-.3-.2-.5-.1-.7a10.4,10.4,0,0,0,1.1-2.4c.1-.3.3-.4.6-.5a3.8,3.8,0,0,0,1.5-.5.8.8,0,0,0,.3-.8,1.3,1.3,0,0,1,.6-.7,2,2,0,0,1,2.4-.5c1,.6.8,1.6.4,2.4a18,18,0,0,1-3.2,4.9,34.2,34.2,0,0,0-3.6,4A20.7,20.7,0,0,1,11.6,70.8Z" style="fill:#aac498;fill-rule:evenodd"/><path d="M114,24.7a1.2,1.2,0,0,1,1.3-.2c.4.2.8,0,1.2-.1a4.4,4.4,0,0,0,1.5-.8l.7-.5a1.6,1.6,0,0,1,1.5-.3h.3l.9-.3c.5-.7,1.1-1.3,1.5-2a5.5,5.5,0,0,1,2.5-2l.6-.2c-.1.1,0,.3-.1.4a35.9,35.9,0,0,1-1.2,4.7l-.3.5c-3.1,1.7-5.9,4-9.6,4a12.1,12.1,0,0,1-3.8,0c-2.4-.3-2.7-1.1-1.5-3.1C111,24.3,112.5,23.7,114,24.7Z" style="fill:#b2caa3;fill-rule:evenodd"/><path d="M116.9,15.7l3.5-4.8,2.1-2.8L125,4.8l1.8-2.3a1.5,1.5,0,0,1,.6-.5V3.7c-.1,2.6-.3,5.2-.4,7.8a1.9,1.9,0,0,1-.2.7,1.9,1.9,0,0,1-1.9-.2l-1.5-.9a3.5,3.5,0,0,1-1.3,3.2c-.6.4-1.7.1-1.8,1.2s-1.1.9-1.8,1a4.2,4.2,0,0,1-1.2-.3h0A.5.5,0,0,1,116.9,15.7Z" style="fill:#abc49a;fill-rule:evenodd"/><path d="M43.3,73.5c.4.5,1,.7,1.3,1.2s.6.7,1.3.3a.5.5,0,0,0,.4-.2c.1-.2.1-.2.3-.1a1.5,1.5,0,0,0,1.3-.3l.5-.7c.2-.2.1-.4-.3-.5a.1.1,0,0,0-.1-.1c-.4-.9-.2-1,1.3-.8a4,4,0,0,0,2.8.7c.6,0,1.2-.1,1.7.5s.1.2.2.4,1.1,2,1.5,3.2a1.4,1.4,0,0,1-.5,1.3,6.1,6.1,0,0,1-3.2.6c-.7-.2-1.1.3-1.6.6s-1.6.7-1.8-.6-.4-.1-.5-.1a3.1,3.1,0,0,1-1.9-.4c-.1.6.5,1.5-.6,1.7s-.6-.4-.8-.8A11.4,11.4,0,0,1,43.2,74,.9.9,0,0,0,43.3,73.5Z" style="fill:#a4569c;fill-rule:evenodd"/><path d="M129.4,54.9a4.8,4.8,0,0,1-1.6,1.2c-2,1.3-4.1,2.5-6.2,3.6a3.9,3.9,0,0,1-1.7.6c-.9-.8-2.3-.7-3.3-1.6s-.8-.8-.6-1.4l.3-.4a1,1,0,0,1,.9-.1c.9.3,1.3,0,1.5-.8s1-1.6.7-2.5a4.9,4.9,0,0,1-.4-2.4l.3-.3a1.4,1.4,0,0,1,1.4.3c2.3,1.6,4.7,3.1,7.7,3.2C128.8,54.3,129.3,54.3,129.4,54.9Z" style="fill:#a2be8f;fill-rule:evenodd"/><path d="M66.3,17.3a25.5,25.5,0,0,0-3.9,1.3l-.8.5-.7.6a4.1,4.1,0,0,0-1.5,4.2c-.2.3.4.7-.2.9l-1.1-.6a3.9,3.9,0,0,0-3-.1l-.6.2a3.5,3.5,0,0,0-1.3.8l-.4.3a5.2,5.2,0,0,1,1-3.8,9.7,9.7,0,0,1,2.9-2.8l2.6-1.4a7.9,7.9,0,0,1,4.5-1A4.5,4.5,0,0,1,66.3,17.3Z" style="fill:#ae78ad;fill-rule:evenodd"/><path d="M114,24.7a5.5,5.5,0,0,0-1.8.2c-.2.1-.3,0-.5-.1s-.3-.4-.6-.3a3.9,3.9,0,0,1-1.4.5c-1,1.9-3,3.3-3.8,5.4a1.7,1.7,0,0,1-.1.7,3.8,3.8,0,0,0-.3,1.8c-1,0-1.5.7-2,1.4a13,13,0,0,1-1.9,2.2l-1,1.2-.8.9-1.2.7c-.6.2-1.2.3-1.3-.6l1.4-1.9a10.5,10.5,0,0,0,1.3-2.3c.8-1.3,1.5-2.7,2.4-4s-.4-1.8,0-2.8l.3-.4a2.4,2.4,0,0,1,1.5-.8c1.5.4,2,.1,2.5-1.7l.6-.2a2.5,2.5,0,0,1,1.7-.4c.5-1,1.1-1.8,2.4-1.7l.4.2a8.7,8.7,0,0,1-.9,1.1c0,.1-.1.2,0,.3h.2l.5-.3a1.8,1.8,0,0,1,2.3.6C113.9,24.5,114,24.6,114,24.7Z" style="fill:#b6caa5;fill-rule:evenodd"/><path d="M36.2,59.3c.1-.1.2-.3.3-.3a1,1,0,0,0,.4-.5c.3-1.2,2.7-2.8,4-2.6s.3.2.2.5a9.4,9.4,0,0,1-1,1,8.9,8.9,0,0,0-1.9,3.1c-.2.6-.3,1.2-.5,1.8s-.3,1.4-.5,2.2a18.7,18.7,0,0,1-.7,2.2,7.4,7.4,0,0,1-4.8,4.9,4.1,4.1,0,0,1-1.8.5,1.1,1.1,0,0,1,.2-1.2c1.3-1.5,2-3.4,3.3-4.9a1,1,0,0,0,.4-1.3C34.9,63.1,34.9,60.9,36.2,59.3Z" style="fill:#aec69d;fill-rule:evenodd"/><path d="M84.3,20.8l.9.9v.2a23.8,23.8,0,0,1,2.3,6.8.8.8,0,0,1-.5.5c-.8.5-1.2-.1-1.7-.6a10.3,10.3,0,0,0-3.5-2.7c-1.1-.5-2.3.1-3.4-.2s-.6-.5-.5-.8c.6-2,0-4.5,2.2-6l.9-.2A3.8,3.8,0,0,1,84.3,20.8Z" style="fill:#d9bdd9;fill-rule:evenodd"/><path d="M74,21.1c0-.2-.1-.4-.1-.7a4,4,0,0,0-2-2.4,6.1,6.1,0,0,0-2.7-.8l.3-.4A6.4,6.4,0,0,1,73,15.1a12.4,12.4,0,0,1,8,1.6l.3.2a2.8,2.8,0,0,1-1.4,2.3,9.3,9.3,0,0,0-5.3,2.2C74.3,21.4,74.1,21.4,74,21.1Z" style="fill:#ae77ad;fill-rule:evenodd"/><path d="M37.2,100.3c-.1.1-.1.3-.2.3l-3,2.3-4.4,2.7-.7.3a1.5,1.5,0,0,1-.1-1.9,2.4,2.4,0,0,0-.2-2.2,6.9,6.9,0,0,1-.5-2.8,2,2,0,0,1,.2-1.1c.3-.6.3-1.4,1-1.8s.8.3,1.9.3.9,1.5,1.6,1.7a8.9,8.9,0,0,0,2.8.7,1.1,1.1,0,0,1,.9.4l.4.3C37,99.8,37,100.1,37.2,100.3Z" style="fill:#b0c7a0;fill-rule:evenodd"/><path d="M95.7,56.9a2,2,0,0,1,0,1.1l-.4.4h-.7a1.1,1.1,0,0,0-.7,1.4l.2.3a.6.6,0,0,1,0,.6A3.6,3.6,0,0,1,93,62.3a.1.1,0,0,0-.1.1c-.2.2-.2.5,0,.6l.4.2a.6.6,0,0,1,.1,1.1c-.2.2-.5.2-.6.5s-1.4.4-2.1.6-1.5-.4-1.6-1.5a5.5,5.5,0,0,1,.1-2.2,3.8,3.8,0,0,0,0-3.3c0-.4.1-.8.3-.9,2-.7,3-2.8,4.9-3.6a2.3,2.3,0,0,1,1,1.6A7,7,0,0,0,95.7,56.9Z" style="fill:#9f4c97;fill-rule:evenodd"/><path d="M111.5,22.8l-.6.2c-.3.1-.5.2-.6.5a1.1,1.1,0,0,1-1,.6H109l-.3-.3c-.1-.2-.2-.3-.1-.5l1.2-1.5a1.1,1.1,0,0,0,0-1.2,4.1,4.1,0,0,0-.5-.9,6.9,6.9,0,0,1-.9-3,22.1,22.1,0,0,1,.1-6.8,15,15,0,0,0,.2-2c.1-.2,0-.3-.4-.4h-.1l1.1-.7a1,1,0,0,1,.9-.2l.4.3a.8.8,0,0,1,.3.8,8.8,8.8,0,0,1-.2,1.7l-.3,2.4v1a8.6,8.6,0,0,1,.5,5.9c0,.1-.1.2-.1.3a3.9,3.9,0,0,0,.2,1.5h1.1v.2c1.1.2.5.6.2,1h0C112.3,22.4,111.6,22.3,111.5,22.8Z" style="fill:#8aab71;fill-rule:evenodd"/><path d="M102.8,27.7l-.2.2c-.3.9-.7,1.7-1.8,1.4h-.1a17.2,17.2,0,0,0-1.6-4.5,35.9,35.9,0,0,1-1.2-3.5,6.4,6.4,0,0,1,.3-4.3,15.1,15.1,0,0,1,1.5-2.8l.3-.2c1.2.5.9,1.7,1,2.6.5,3.1,1,6.2,1.7,9.2A4.6,4.6,0,0,1,102.8,27.7Z" style="fill:#a2be8f;fill-rule:evenodd"/><path d="M30.2,68.2a1,1,0,0,1-.2.9c-.8.9-.6,2-.4,3.1h-.1a17.7,17.7,0,0,1-5.6.4c-1.1-.6-1.2-1.6-1.1-2.8s.6-1.7.7-2.6.2-.5.5-.6.6-.2.3-.5a1.5,1.5,0,0,1,.8-1.6C27.1,65.5,29,66.4,30.2,68.2Z" style="fill:#a7c194;fill-rule:evenodd"/><path d="M70.9,85.5l-1.1-.4v-.2c0-.1.1-.1.1-.2h.5a.8.8,0,0,0,.2-1l-.2-.2h-.8c-.5,0-.7-.7-.4-1.1l.6-.7a.6.6,0,0,0,.1-.6h-.1a5,5,0,0,0-.5-1.3,5.2,5.2,0,0,0-1.1-1A4.7,4.7,0,0,1,67,77.2c-.7-.3-.7-.8-.6-1.4s.3-1,.8-1.1,1-1,1.2-1.6h.5c.5.5.5,1.3,1.2,1.7s.5.3.6.5.8,1.2,1.1,1.9.6,1.6-.1,2.4a.8.8,0,0,0,.2.5,3.6,3.6,0,0,1,.7,2.2,3.1,3.1,0,0,1-1,2.4c-.2.2-.5.4-.6.6A.3.3,0,0,1,70.9,85.5Z" style="fill:#c696c2;fill-rule:evenodd"/><path d="M107.5,68.9a1.4,1.4,0,0,1,.2.6,10.2,10.2,0,0,1-.4,4.9,11.8,11.8,0,0,1-1.1,1.9,3.5,3.5,0,0,1-3.2,1.4h-.5l-.2.2a5.6,5.6,0,0,1,.4,1.2c-.9,1-1.3-.2-1.9-.3l-.4-.2c-.7-1.5.6-2,1.5-2.6h0a.1.1,0,0,1-.1-.1c-.7-.5-.4-1.1.1-1.5s1.6-.7,2.1-1.5a3.8,3.8,0,0,1,1.5-1.8c-.4-.7-1.1-.7-1.7-.8s-1.3-.1-1.1-1a9.2,9.2,0,0,1,2.4-1.3C106.8,67.2,106.8,67.2,107.5,68.9Z" style="fill:#c291bf;fill-rule:evenodd"/><path d="M139.3,46.8c-1.1,1.2-2.4,2.2-3.6,3.3l-3.1,2.5-1.2.8c-.8.1-1.1-.5-1.5-1.1s-2-2.1-2-3.7a.5.5,0,0,1,.3-.4,7.8,7.8,0,0,1,3.1-.6c2-.1,3.9-.7,5.9-.9s1.1-1,1.9-1.1l.3.2.4.2h0v.2a.7.7,0,0,1-.5.4Z" style="fill:#c5d7ba;fill-rule:evenodd"/><path d="M36.5,99.9l-.2-.2a5.5,5.5,0,0,1-.7-2.8c.1-2.5-.8-4.7-1.5-6.9s-1.1-.3-1.7-.4-1.3-1.2-.5-2,1.3-1.9,2.5-1.9l.7.8a8.6,8.6,0,0,1,2,3.6,6.5,6.5,0,0,0,.4,1.3,11.6,11.6,0,0,1,.7,3.1c0,1.1.1,2.1.2,3.2a7.7,7.7,0,0,0,.2,1.5,2.3,2.3,0,0,1-1.2,1Z" style="fill:#8dad75;fill-rule:evenodd"/><path d="M101.7,44.3a35.8,35.8,0,0,1,2.4-4.8,7.6,7.6,0,0,1,4.8-3.6,5.3,5.3,0,0,1,2.2-.3c.6,1-.2,1.6-.7,2.2s-3.4,3.9-5,5.9a1.8,1.8,0,0,1-.8.9C103.6,44.8,102.5,45.9,101.7,44.3Z" style="fill:#adc69c;fill-rule:evenodd"/><path d="M130.9,41.4h.5c1.2.7,2.5,1.3,3.6,2.1a1.2,1.2,0,0,1-.9,1.4,2,2,0,0,0-.9.9c-.8.8-1.8.6-2.8.7h-1.2a9.7,9.7,0,0,1-3.4.5c-.7,0-1.3,0-1.6-.7a2.2,2.2,0,0,1-.1-.8,1.9,1.9,0,0,1,1.5-2,8.5,8.5,0,0,0,3.8-1.9A1.7,1.7,0,0,1,130.9,41.4Z" style="fill:#b2c9a2;fill-rule:evenodd"/><path d="M38.3,72.4a18,18,0,0,1,.8-2.1.4.4,0,0,0-.2-.5H39a7.6,7.6,0,0,0,1.6-2.6l2.7-5.9L44,60c1-.7,1.7-.5,2.1.7s-.7,1.7-.9,2.6a2.7,2.7,0,0,1-1.3,1.8c-.8,1.4-1.4,2.9-2.1,4.4a2.8,2.8,0,0,0-.1.9c-.1.5-.1.9-.2,1.3a1.3,1.3,0,0,1-1.1.8C39.7,72.7,38.9,73,38.3,72.4Z" style="fill:#99b583;fill-rule:evenodd"/><path d="M43.7,79.3A15.6,15.6,0,0,1,46,82.7l.9,2c.1.3.1.6.2.9a9.6,9.6,0,0,1-1.3,5.5A1.3,1.3,0,0,1,44.7,90c-.8-2.6-2-5.1-2.8-7.7,0-.3-.1-.6,0-.8S42.2,79.3,43.7,79.3Z" style="fill:#a4bf92;fill-rule:evenodd"/><path d="M125.4,38.7a10.8,10.8,0,0,1,2.9,1.3c.4,1.9.3,2.1-1.2,2.3l-.4-.3c-.4-.2-.5-.9-1.1-.7a1,1,0,0,0-.9,1c0,1.3-.2,2.3-1.5,2.8s-.1.6-.2.9-.9.6-1.5.4-2.7-.4-3.8,1.2a2,2,0,0,1-1.3.6c-1,.1-1.8.1-1.9-1.2s.1-.3.2-.4a11.1,11.1,0,0,1,5.9-3.6c.8-.2.8-1,1.1-1.5a9.5,9.5,0,0,0,.6-1.8,1.3,1.3,0,0,1,.6-.4A7.1,7.1,0,0,1,125.4,38.7Z" style="fill:#81a96b;fill-rule:evenodd"/><path d="M129.4,54.9h-.5a5.3,5.3,0,0,1-2.5-.1,12.5,12.5,0,0,1-6-3.2c-.3-2.1,1.3-3,2.5-4.3a2.6,2.6,0,0,1,2.1.2,1,1,0,0,1,.6,1.6c-.6.6-1.7.3-2.5,1,1.7,1.4,3.4,2.3,5.6,2a1.7,1.7,0,0,1,1.8,1,.8.8,0,0,1-.3,1.3Z" style="fill:#8dad75;fill-rule:evenodd"/><path d="M45.4,80.2a.4.4,0,0,1,.1-.3c.3-.6.2-.9-.5-1.1s-.5-.2-.5-.5a.6.6,0,0,1,.5-.6h.4l.5.2,1,.4a1.4,1.4,0,0,0,1.4.1l.7-.2c.1-.1.2,0,.2.1s0,.1,0,.1l-.4.4a.6.6,0,0,0,.1.7.5.5,0,0,0,.6-.1L51,78.2a.5.5,0,0,1,.7-.1,2,2,0,0,0,2,.2,1.4,1.4,0,0,1,.9-.1c.3,1-.5,1.4-1.1,1.9l-.6.6-.3.4c-.4.3-.5.7-1,1s-1.4.3-1.5-.7l-.8.2a3.1,3.1,0,0,1-3.8-1.1Z" style="fill:#a75b9f;fill-rule:evenodd"/><path d="M87.2,29c0-.2.1-.3.1-.4a12.9,12.9,0,0,0-.5-4.8l.3-.4c1.9.4,3,1.3,3.1,2.8s1.5,1.8,2.5,2.1,2,.7,2.3,1.8a8.2,8.2,0,0,1,.5,3.8,4.2,4.2,0,0,1-.8,2.2,1.4,1.4,0,0,1-.2-.6,10.7,10.7,0,0,0-1.9-4.2,5.2,5.2,0,0,0-3.8-2.2l-1.4.2C87.1,29.3,87.1,29.2,87.2,29Z" style="fill:#ceaecf;fill-rule:evenodd"/><path d="M123.1,39.7l-.5.3c-1,1.8-2.9,2.7-4.4,3.8a22.7,22.7,0,0,0-3.1,3.1h-.2l-.9,1.1c-.5.5-1.1.6-1.5-.2s-.1-.3-.1-.4a.8.8,0,0,1,0-.7,2.2,2.2,0,0,1,.9-1.7c1.7-1.1,3.2-2.4,3.7-4.5s3-2.9,5.3-3a1,1,0,0,1,1.1.4C124.3,38.7,123.7,39.2,123.1,39.7Z" style="fill:#588a3f;fill-rule:evenodd"/><path d="M127,41.9h.6a.3.3,0,0,0,.3-.3V41a1,1,0,0,1,.4-1,13,13,0,0,1,2.6,1.4l-.4.2a9,9,0,0,1-3.1,2.3,2.7,2.7,0,0,1-1.8.4.8.8,0,0,0-.8.7l-.3.9c-.6.5-1.2,1.1-1.8,0a1.7,1.7,0,0,1-.5-1.5c0-.1.2-.3.3-.2a1.9,1.9,0,0,0,1.3,0,.4.4,0,0,0,.3-.6,1.2,1.2,0,0,1-.2-1l.3-1.3c0-.1.1-.3.2-.3l1.5-.9a.7.7,0,0,1,.7.3.6.6,0,0,1,.1.4A2,2,0,0,0,127,41.9Z" style="fill:#7da567;fill-rule:evenodd"/><path d="M130.2,54.3a1.4,1.4,0,0,0,.2-.6,1.1,1.1,0,0,0-1.1-1.1H129a6.5,6.5,0,0,1-3.9-.6,15.3,15.3,0,0,1-3-1.9c-.2-.1-.2-.5,0-.7l.5-.3a4.4,4.4,0,0,1,2.5-.3,2.4,2.4,0,0,0,.9-.3,1.8,1.8,0,0,1,1.6,0,30.7,30.7,0,0,0,2.8,3.5,4.1,4.1,0,0,0,1,1.3A2.7,2.7,0,0,1,130.2,54.3Z" style="fill:#a7c194;fill-rule:evenodd"/><path d="M121.9,13.9l.8-1.3a1.7,1.7,0,0,0,.1-1.4c-.2-.3,0-.6.2-.8l.6-.4h.4c0,.1.1.2.1.3s-.1.7.3.8.5.4.7.6v.2a3.4,3.4,0,0,0,.1,1c.2.7,1.1.3,1.5.9a.6.6,0,0,1-.1.4l-1,.7a10.2,10.2,0,0,1-4.2,2.3l-2.5.7a6,6,0,0,0-2.1.8l-1.1.6c-.5-.3-.4-.6,0-.9s2.1-1.1,2.7-2.1l.2-.4c.2-.3.2-.3.6-.2s.4.1.6-.2S121.5,14.9,121.9,13.9Z" style="fill:#b5caa5;fill-rule:evenodd"/><path d="M94,85.8a6.3,6.3,0,0,0,1.2-1.1,1.8,1.8,0,0,1,1.1-.8l.6-.2a2.7,2.7,0,0,1,1.4-.7l.3-.2c.1-.1.1-.2,0-.4a.6.6,0,0,1-.2-.7l.6-1.3a.5.5,0,0,0-.3-.3h-.6c-.4,0-.7,0-.9-.3l-.7-.6-.4-.2a.5.5,0,0,1-.4-.6c0-.4-.4-.6-.8-.5l-.6.2a1,1,0,0,1-.9-.4l-.6-.9c1.2-.9,2.7-.5,3.9-1.1a3.2,3.2,0,0,1,2.2,1.3c.6.5.9,1.2,1.8,1.2h0c.9.4.7,1.1.3,1.7a3.7,3.7,0,0,0-1,2.5c-.3,1.8-2,2.3-3.2,3.2A3.9,3.9,0,0,1,94,85.8Z" style="fill:#c99dc6;fill-rule:evenodd"/><path d="M21.6,108.1h.2a2,2,0,0,0,.4-.8c1-2.2,2-4.3,2.9-6.5a4.5,4.5,0,0,1,1-1.4,1.1,1.1,0,0,1,.7.3c.2.4.5.8.7,1.3-.1,2.7-1.5,4.9-2.8,7.1a8.7,8.7,0,0,0-.8,1l-1.3.9c-.5.2-.8.1-.9-.4S21.4,108.6,21.6,108.1Z" style="fill:#b6caa6;fill-rule:evenodd"/><path d="M42.3,81.9a6.6,6.6,0,0,1,.9,1.9.6.6,0,0,0,.1.4,32.4,32.4,0,0,1,1.3,3.3,22.9,22.9,0,0,1,.9,2.8c0,.3.2.5.3.8s-.1.3-.2.3-.1.3-.2.3l-.2.3c-1.2-.1-1.4-.2-1.8-1.3s-.8-2.3-1.1-3.5a.8.8,0,0,0-.2-.4c-.4-1-.8-2-1.3-3s-.3-.9-.4-1.4-.1-.2,0-.4A1.7,1.7,0,0,1,42.3,81.9Z" style="fill:#8dad75;fill-rule:evenodd"/><path d="M88.3,80.6h.8a2.3,2.3,0,0,1,1.4.1.1.1,0,0,1,.1.1h0A6.2,6.2,0,0,1,88.7,82c-.1,0-.1.1-.2.2a.5.5,0,0,0,.3.4,1.4,1.4,0,0,0,1.1,0l.7-.2c.2-.1.5.2.5.3v.4a.6.6,0,0,0-.1.4c0,.2.1.4.1.7a2.6,2.6,0,0,1-1.8,2.1,4.5,4.5,0,0,1-2.8.1c.2-.1.3-.3.1-.5a2.1,2.1,0,0,1-.7-1.5,1,1,0,0,1,.2-.9,8.6,8.6,0,0,1,1.3-1.4,1.6,1.6,0,0,0,.8-1.2C88.2,80.8,88.3,80.7,88.3,80.6Z" style="fill:#d2adcf;fill-rule:evenodd"/><path d="M23.9,109a3.3,3.3,0,0,1,.4-1.4c1.1-2,1.8-4.1,2.8-6.1v-.3q0-.2.3-.3c.7-.1.9.7,1.4.8s.6-.1.7.2,0,.5.1.6a.9.9,0,0,1,.1,1.1,5,5,0,0,0-.9,2.3l-.4.3h-.1l-.3.3Z" style="fill:#c5d7ba;fill-rule:evenodd"/><path d="M27.3,93.1h-.8a10.8,10.8,0,0,0-3.7,2.6,4.1,4.1,0,0,0-.7,1.1l-.3.9a.7.7,0,0,1-.6.4,5,5,0,0,0-1.2.2,5.1,5.1,0,0,1-.3-2.1l.6-.6a6.9,6.9,0,0,1,2.5-2.6l.4-.5a4,4,0,0,1,1.8-1,3.8,3.8,0,0,0,1.3-.6l1.3-.6c.4.2.2.6.1.9S27.7,92.6,27.3,93.1Z" style="fill:#b6caa6;fill-rule:evenodd"/><path d="M114.5,27.4l.9-.2,1.1-.2a8.3,8.3,0,0,0,3.4-1.3,10.7,10.7,0,0,0,2.5-1.6,1.1,1.1,0,0,1,.8-.2h1.2a3.6,3.6,0,0,1-.8,2.3c-.5.6-.8,1.4-1.8,1a21.8,21.8,0,0,1-4.8,1.9h-1.1C115.5,28.5,114.3,28.4,114.5,27.4Z" style="fill:#9fb989;fill-rule:evenodd"/><path d="M105,43.5a5.4,5.4,0,0,1,1-1.6c1.4-1.7,2.7-3.4,4.2-5a2.8,2.8,0,0,0,.9-1.3,1.1,1.1,0,0,1,1.1,0,1.1,1.1,0,0,1,.9.9,1.1,1.1,0,0,1-.5,1.3c-.9.5-1.1,1.4-1.4,2.3a5.5,5.5,0,0,1-2.6,3h-1a1.2,1.2,0,0,0-1.1.4A1.1,1.1,0,0,1,105,43.5Z" style="fill:#99b582;fill-rule:evenodd"/><path d="M10.9,63.1h-.2c-.2.2-.4.3-.3.6a2.6,2.6,0,0,1-.1,1.5,25,25,0,0,1-2.5.9L3,67.7l-1,.4a1,1,0,0,1-.9-.2c-.6-.2-.5-.8-.4-1.3h0c.1-.3.4-.4.4-.7h0a35,35,0,0,0,4.6-1.4,6.5,6.5,0,0,1,2.1-.6c.8.3,1.5.4,1.8-.7A1.9,1.9,0,0,1,10.9,63.1Z" style="fill:#89aa70;fill-rule:evenodd"/><path d="M50.1,81.4c.3.2.6.4.9.3h.8c.4-.6,1.1-.4,1.7-.7s1.6-.5,2.1-1.5,1.8-.5,2.7-.8H59a1,1,0,0,1,.5.8c-.4,1.6-1.8,2.1-3.1,2.6s-1.9.3-2.7,1-.7.7-1.1,1.1a.9.9,0,0,1-.9.4,4.1,4.1,0,0,0-1.9,0A2.9,2.9,0,0,1,50.1,81.4Z" style="fill:#ad66a5;fill-rule:evenodd"/><path d="M97,42.5a22.6,22.6,0,0,1-.1,2.6A6.4,6.4,0,0,1,94.4,48h-.5c-1.1-.3-1.4-1.4-2-2.2a1.1,1.1,0,0,1-.1-.8,1.5,1.5,0,0,1,.7-1.2,5,5,0,0,0,2.1-2.2,1.8,1.8,0,0,1,1.7-1C97.3,41,96.9,41.8,97,42.5Z" style="fill:#b888b7;fill-rule:evenodd"/><path d="M96.8,85.7a3.1,3.1,0,0,0,.9-1.1,1.7,1.7,0,0,1,1-1l.3-.2c.3-.6.6-1.1.3-1.7a1.6,1.6,0,0,1,.2-1,2,2,0,0,1,.8-1c.7-.4.7-.5.4-1.4l.9-.3h.3c.2.1.2.2.1.4h-.1c-.1.4,0,.4.3.4h.5a2,2,0,0,1,.2,1.1,3,3,0,0,1-.5,1.6l-.8,1.2a11.1,11.1,0,0,1-4.5,2.8Z" style="fill:#c696c1;fill-rule:evenodd"/><path d="M48.8,38.8l-.3.2c-.1.3-.4.5-.6.3s-1.2-1.3-1.7-2-.8-.8-1.1-.8a6.2,6.2,0,0,1,.7-3.3,7,7,0,0,1,.8-1,1,1,0,0,1,1.4-.3.8.8,0,0,1,.2,1.3c-.7.9.2,1.1.7,1.5a1.6,1.6,0,0,1,.4.7,4.3,4.3,0,0,0,2,2c.1,0,.2,0,.2.1s0,.2-.1.2l-1,.2A2.6,2.6,0,0,0,48.8,38.8Z" style="fill:#b888b7;fill-rule:evenodd"/><path d="M103.1,51.2a2,2,0,0,0-1.7.2.8.8,0,0,1-.7.1c-1.2-.8-2,.3-2.9.7a10.5,10.5,0,0,1-3.1-.3l-.3.2c-.7-1.3.2-1.9,1.1-2.5a27.4,27.4,0,0,1,5.7-1.1h.8c.6-.4,1.2-.8,1.8-.1s.1,1.3-.1,2S103.3,50.8,103.1,51.2Z" style="fill:#5a8a4b;fill-rule:evenodd"/><path d="M21.8,79.3l1.2.3c.3.1.6,0,.7.3s.1.4.1.6.2.5.6.6h.4a2.1,2.1,0,0,1,1.1.1c.3.2.5.4.4.7l-.9.6a9.3,9.3,0,0,0-2.9,2.2l-.6.7a1.9,1.9,0,0,1-1.7.7h-.4a2.3,2.3,0,0,1,.2-1.6c.1-.3.1-.5.2-.8s.3-.4.5-.6S22.4,80.8,21.8,79.3Z" style="fill:#b6caa6;fill-rule:evenodd"/><path d="M48.9,34.7c-.5.2-1,0-1.5.1s-.3-.1-.4-.2a.9.9,0,0,0-.1-.5.7.7,0,0,1,.2-.6l.8-.9c.1,0,0-.2-.1-.3h-.6c-.3.6-.9.7-1.4.9A7.4,7.4,0,0,1,48.2,29a5.3,5.3,0,0,1,1.5-1.1l1.5-.7c-.1.2-.1.3-.2.4a9.8,9.8,0,0,0-1.8,3.3,7.2,7.2,0,0,0-.3,2.5Z" style="fill:#b280b3;fill-rule:evenodd"/><path d="M110.6,39.9a.4.4,0,0,1,.1-.3,5.3,5.3,0,0,1,1.3-2l.9-.9c1.1-1,2.5-.5,3.7-.7a10,10,0,0,1,3.5.9c.1,1.5-.6,2.1-2.6,2.1a9.6,9.6,0,0,0-5.8.8A1.1,1.1,0,0,1,110.6,39.9Z" style="fill:#a0bc8d;fill-rule:evenodd"/><path d="M95,30.1a1.8,1.8,0,0,0-1.6-.9l-1-.2a1.2,1.2,0,0,1-1-.3,9.1,9.1,0,0,0-1.7-.9c-.3-.1-.4-.5-.4-.8l.3-.9c.8-.4.3-1.6,1.1-2l.5.3A9.6,9.6,0,0,1,93.5,27l1.2,2.2A1.6,1.6,0,0,1,95,30.1Z" style="fill:#b98cba;fill-rule:evenodd"/><path d="M45.1,36.5l2.2-.8h.2l.2.2h0c-.3.4-.8.4-1.1.6a.2.2,0,0,0-.1.4,1.4,1.4,0,0,0,1.1.6c.1,0,.2-.1.3,0s.5.2.4.5-.2.5-.2.8.2.1.4.1a8,8,0,0,0-1.1,2.5,3.2,3.2,0,0,1-.3.9,1,1,0,0,1-.6-.5A6.1,6.1,0,0,1,45.1,39,5.3,5.3,0,0,1,45.1,36.5Z" style="fill:#bb8fbc;fill-rule:evenodd"/><path d="M43.7,79.3a1.4,1.4,0,0,0-.5.8,4.1,4.1,0,0,1-.8,1.3c-.8,0-1.1-.6-1.5-1.1l-2-3.3a1.4,1.4,0,0,1,.2-2c.8-.3,1.7-1.3,2.5,0a19.6,19.6,0,0,0,1.9,3.9C43.6,79,43.6,79.2,43.7,79.3Z" style="fill:#6e9c59;fill-rule:evenodd"/><path d="M94.4,53.9a1.2,1.2,0,0,1-.4,1,2.7,2.7,0,0,0-1.3,1.3l-.4.4-.7.5a1.6,1.6,0,0,1-1.6.7c-.2,0-.3.2-.4.4v.3c0,.1,0,.2.1.2v.5a2.6,2.6,0,0,1-.3.8c-.4.5-.9,1.1-1.6.3s.6-1.6.4-2.4,1.3-1.8,1.6-2.9.1-.2.2-.4l.3-.3.4-.3,1.7-.9a.9.9,0,0,1,1.1.2Z" style="fill:#a85c9f;fill-rule:evenodd"/><path d="M21.7,51a5.8,5.8,0,0,0-2.3-.3H17.5a.8.8,0,0,1-.7-.7.9.9,0,0,1-.1-.5,6,6,0,0,1,2.1-1.4,7.5,7.5,0,0,1,3.9.4c0,.1.1.1.2.1l.3.3a1.4,1.4,0,0,1-.2,2.5A1,1,0,0,1,21.7,51Z" style="fill:#8bab74;fill-rule:evenodd"/><path d="M139.1,45.6a4.9,4.9,0,0,1-.4,1.1,1,1,0,0,1-.8.6h-.5l-4.6.5h-.6a15.4,15.4,0,0,0-3,.4h-.6c-.3-1.2.7-1.4,1.5-1.6s2.2-.3,3.3-.5a2,2,0,0,0,1.5-.8c.8-1,1.9-.4,2.8-.5A3,3,0,0,1,139.1,45.6Z" style="fill:#b6caa6;fill-rule:evenodd"/><path d="M23.8,67.4c.2.2.4.4.3.6s-.4.9-.7,1.4a.7.7,0,0,0,.1.6c.2.4.1.6-.2.9a.4.4,0,0,0-.1.3c0,.2.2.2.4.2h.1c.3,0,.4.1.3.4a.9.9,0,0,0-.1,1,18.8,18.8,0,0,1-4.1-.2l-.6-.2c-.5-1.1.5-1.5,1-2s1-.7,1.2-1.2l.3-.4.5-.6C22.7,67.7,23.1,67.2,23.8,67.4Z" style="fill:#acc59b;fill-rule:evenodd"/><path d="M109.9,60.2a1.2,1.2,0,0,0,.6-.8,1.9,1.9,0,0,1,.8-1.1l.2-.2h.5a9.6,9.6,0,0,1,2.7,1.3,1,1,0,0,1,.5.8,1.9,1.9,0,0,1-2.2,1.9l-3.5.2-.4-.2C109,61.3,109.6,60.8,109.9,60.2Z" style="fill:#8db178;fill-rule:evenodd"/><path d="M100.8,29.3c.2-.2.5-.3.7-.6l1.1-.8.7,1.4a1.1,1.1,0,0,1,0,1.1l-1.4,2.1-1.3,1.7a.9.9,0,0,1-.6.3,1.7,1.7,0,0,1,.1-.7A22.2,22.2,0,0,0,100.8,29.3Z" style="fill:#c3d5ba;fill-rule:evenodd"/><path d="M94.7,51.9l.9-.2a5.5,5.5,0,0,0,2.2-.1c1-.1,2-.8,3.1-.3h.5a2.2,2.2,0,0,0,.9,1.4.4.4,0,0,1-.2.7,3.6,3.6,0,0,0-1.2.8h-.3a16.5,16.5,0,0,0-5.2-2Z" style="fill:#6c9a58;fill-rule:evenodd"/><path d="M45.7,60.9a.8.8,0,0,1-.2-.4c-.1-.4-.3-.5-.7-.5H44a20.4,20.4,0,0,1,1.8-4,.8.8,0,0,0,.7-.1l1.2-.7.7-.4q.3.2.3.3c0,2-1.2,3.5-2,5.2A1.1,1.1,0,0,1,45.7,60.9Z" style="fill:#9eb78b;fill-rule:evenodd"/><path d="M93.5,53.3l-1,.2a.5.5,0,0,1-.3-.5c0-.5-.1-1-.1-1.5s.1-2.5,1-3.5a1.6,1.6,0,0,1,1-.2h.2A1.7,1.7,0,0,1,96,49a.4.4,0,0,0,.1.3c0,.3-.3.4-.4.6l-1.3,2v.2C93.9,52.4,93.5,52.7,93.5,53.3Z" style="fill:#904d92;fill-rule:evenodd"/><path d="M109.5,62.3a2.1,2.1,0,0,1,1.3-.5.2.2,0,0,0,.3,0,3.1,3.1,0,0,1,2.1-.2,1.1,1.1,0,0,0,1-.5l.8-.9c.1-.3.3-.3.5-.4h.7c.8.2,1.8.1,2.3,1.1a22.8,22.8,0,0,1-4.4,1.5,8.6,8.6,0,0,1-3.9.1Z" style="fill:#9bb889;fill-rule:evenodd"/><path d="M95.7,49.9c0-.3.2-.4.4-.6l2-1.1,1.6-1c1-.6,1.9-.8,2.7.4a1.5,1.5,0,0,1-1.1,1.7l-2.7.2Z" style="fill:#74a060;fill-rule:evenodd"/><path d="M29.6,72.2l-.8-.4a.7.7,0,0,1-.3-.8l.9-1.7a.5.5,0,0,1,.6-.2c.1,0,0,.1.1.1s.3.4.4.2l.5-.6a5.7,5.7,0,0,0,.8-1.3A3.9,3.9,0,0,1,33.4,66c-.3.7-.5,1.3-.8,1.9a37.9,37.9,0,0,1-2,3.4l-.7.8h-.3Z" style="fill:#95b27f;fill-rule:evenodd"/><path d="M96.2,40.7l-1.4,1.7A6.5,6.5,0,0,1,93.1,44l-1,1c-.8.4-1.1-.1-1.4-.7a.4.4,0,0,1,.3-.6h.3a3.6,3.6,0,0,0,2.9-2.8,16,16,0,0,0,.5-2.1l1.4,1.5C96.3,40.3,96.3,40.5,96.2,40.7Z" style="fill:#ceaecf;fill-rule:evenodd"/><path d="M22.2,69.1l-.3.5-2.2,2.1-.5.6a2.5,2.5,0,0,1-1.5-.2,1.2,1.2,0,0,1,.3-1.6l2.7-2.7C21.3,68.1,21.5,68.8,22.2,69.1Z" style="fill:#9cb785;fill-rule:evenodd"/><path d="M49.3,50c0,.1.1.1.1.2s-.9,1.7-2.4.9v-.2a6.2,6.2,0,0,1,.4-5.6l.3,1a4.8,4.8,0,0,0,.7,2A3,3,0,0,0,49.3,50Z" style="fill:#b88bba;fill-rule:evenodd"/><path d="M22.7,48.9l-3.5-.4a.4.4,0,0,1-.4-.4A11.3,11.3,0,0,1,22,46.2h.6l.6,1.1C23.7,48,23.5,48.5,22.7,48.9Z" style="fill:#a3bf95;fill-rule:evenodd"/><path d="M21.8,79.3a4.7,4.7,0,0,0,1,1l.5.4a.5.5,0,0,1-.1.6,25.2,25.2,0,0,0-2.5,2.1h-.5a14.3,14.3,0,0,1,.9-4.1c0-.1.1-.2.2-.3Z" style="fill:#c2d4b9;fill-rule:evenodd"/><path d="M118.5,61a19.8,19.8,0,0,1-2.6-.6,1.8,1.8,0,0,1,.2-2.1.6.6,0,0,1,.8.1,1.5,1.5,0,0,0,.7.3h1.1a1.4,1.4,0,0,1,1.2,1.4h0A1.3,1.3,0,0,1,118.5,61Z" style="fill:#86a871;fill-rule:evenodd"/><path d="M117.3,38.6l1.1-.3a2.8,2.8,0,0,0,1.5-.8c.1-.2.1-.4.2-.6a8.1,8.1,0,0,1,2.2.7l-1.4.8a15.5,15.5,0,0,0-3.3,2.4l-.3.4c0,.3-.3.3-.5.4A2,2,0,0,1,117.3,38.6Z" style="fill:#78a260;fill-rule:evenodd"/><path d="M102.2,47.7l-.6-.2a3.1,3.1,0,0,0-1.3-.3h-.6c0-.1.1-.2.2-.3a1,1,0,0,0,.5-.4c.4-.8.9-1.5,1.3-2.2l.9.3a.8.8,0,0,0,.8-.1c.3-.2.5-.4.9-.3A3.4,3.4,0,0,1,102.2,47.7Z" style="fill:#80a86c;fill-rule:evenodd"/><path d="M107.5,68.9l-.6-.9c-.1-.2-.4-.2-.6-.1l-.3.4a.9.9,0,0,1-.7.3,2.8,2.8,0,0,0-1.2.4l-1.5.5h-.2a.8.8,0,0,1-.7.1l-.4-.2a.9.9,0,0,1-.1-.5v-.3c1.5-.9,2.8-2.3,4.8-2.3A2.9,2.9,0,0,1,107.5,68.9Z" style="fill:#b67cb2;fill-rule:evenodd"/><path d="M96.2,40.7a4.3,4.3,0,0,0-.1-.5l1.2-1.5a1,1,0,0,0,.9.2,2.2,2.2,0,0,1,1.6-.3A34.8,34.8,0,0,1,97,42.5a2,2,0,0,0-.4-.8A3,3,0,0,0,96.2,40.7Z" style="fill:#93af81;fill-rule:evenodd"/><path d="M100.5,16.6a1.4,1.4,0,0,1-.2-.6,7.6,7.6,0,0,0-.3-2.1c.1-.5.5-.7.8-1h.5a1.6,1.6,0,0,1,.9,1.2,3.7,3.7,0,0,1,.1,1.8C101.7,17.5,101.6,17.6,100.5,16.6Z" style="fill:#8cac74;fill-rule:evenodd"/><path d="M90.7,24.1a1.5,1.5,0,0,1-.7,1.8l-.4.2h0c0-.2.1-.5,0-.6s-.4-.4-.5-.5a1.5,1.5,0,0,1-1.3-.8,1.6,1.6,0,0,0-.8-.5c-.4-.2-.5-.4-.4-.8A4.9,4.9,0,0,1,90.7,24.1Z" style="fill:#c5a2c8;fill-rule:evenodd"/><path d="M137.7,45c0,.2-.2.3-.4.4h-.9l-1.2.2H135l-.4.2a1.2,1.2,0,0,1-1.6-.2c0-.1-.1-.3-.1-.4a.5.5,0,0,1,.2-.6h.1a3.1,3.1,0,0,0,1.8-1.1A8.7,8.7,0,0,1,137.7,45Z" style="fill:#bcd0b2;fill-rule:evenodd"/><path d="M106,66.4l-2.4,1.5a6.7,6.7,0,0,1-1.5.6c-.5.1-.6.4-.6.9a.6.6,0,0,1-.8.3c-.8-1.1-.8-1.9.4-2.3a20.1,20.1,0,0,0,2.5-1.4l.3-.2A2.3,2.3,0,0,1,106,66.4Z" style="fill:#ae6aa7;fill-rule:evenodd"/><path d="M41.1,56.4a.6.6,0,0,0-.7-.2l-3,1.7-.5.6c-.1,0-.2,0-.2-.1v-.2c.1-1.1,0-1.5,1.3-1.8l3.3-1.1,1.7-.4A13,13,0,0,1,41.1,56.4Z" style="fill:#c2d3b7;fill-rule:evenodd"/><path d="M46.1,62.2a5.6,5.6,0,0,1-.4,3.1.6.6,0,0,0-.1.6,1.4,1.4,0,0,1-1,1.7.1.1,0,0,1-.1.1,1.7,1.7,0,0,1-.2-1.2,5.9,5.9,0,0,1,.2-1.3c-.2-.8.4-1.4.6-2.1S45.5,62.1,46.1,62.2Z" style="fill:#c59bc5;fill-rule:evenodd"/><path d="M126.7,13.8a5.5,5.5,0,0,1-2.2.2c-.2-.1-.4-.4-.3-.5l.3-.7c0-.5.4-.7.6-1.1h0a2.2,2.2,0,0,1,1.7.5A2.9,2.9,0,0,1,126.7,13.8Z" style="fill:#9bb686;fill-rule:evenodd"/><path d="M96,49a4.3,4.3,0,0,1-1.7-1.3,2.1,2.1,0,0,1,.4-.6l.7-.7a3.7,3.7,0,0,1,1.5-1.3A8.6,8.6,0,0,1,96,49Z" style="fill:#8a4490;fill-rule:evenodd"/><path d="M41.6,75a1.5,1.5,0,0,0-1.3,0,1.4,1.4,0,0,1-.9.1v-.2a.9.9,0,0,1-.1-.5A4.1,4.1,0,0,1,40.3,72l1.2-.3A18.2,18.2,0,0,1,41.6,75Z" style="fill:#76a062;fill-rule:evenodd"/><path d="M84.3,20.8l-2.2-1.2-1-.4c-.2-.9-.6-1.8,1-1.7h0c.2.1.3.4.5.5h.2a3.4,3.4,0,0,0,.6.6,4.1,4.1,0,0,1,.8,1.3A1.1,1.1,0,0,1,84.3,20.8Z" style="fill:#b68dbb;fill-rule:evenodd"/><path d="M101.6,36.5a.1.1,0,0,1,.1-.1,20.7,20.7,0,0,1,2.8-3.8c0-.1,0-.1.1-.1a.6.6,0,0,1,.6,0l.3.4a4.4,4.4,0,0,1-1.4,1.3,1.4,1.4,0,0,0-.8,1.3A5.9,5.9,0,0,1,101.6,36.5Z" style="fill:#c3d5b9;fill-rule:evenodd"/><path d="M116.6,36l-.8.4a6.5,6.5,0,0,0-2,.5,1,1,0,0,1-.9-.2,4.1,4.1,0,0,0-.7-1.1h.2A14.7,14.7,0,0,1,116.6,36Z" style="fill:#a8c29e;fill-rule:evenodd"/><path d="M98.6,55.6a.9.9,0,0,0-.2,1.4c0,.1.1.2.2.4s-.1.2-.2.2a1.1,1.1,0,0,0-.9.3l-.5.3h-.1a.3.3,0,0,1-.1-.2l.4-.5c.2-.3.1-.5-.2-.6l-1.1-.2.5-.6A2.8,2.8,0,0,1,98.6,55.6Z" style="fill:#9f4c97;fill-rule:evenodd"/><path d="M121.8,27.2l1.8-1a13.5,13.5,0,0,1-2,4.4,1,1,0,0,1-.2-.9A4.3,4.3,0,0,0,121.8,27.2Z" style="fill:#a1bb94;fill-rule:evenodd"/><path d="M71.7,79.6a1.1,1.1,0,0,1,.1-1.4.9.9,0,0,0,0-1,2,2,0,0,1,1.3,1.6,2,2,0,0,0,.3,1.1A3.2,3.2,0,0,1,71.7,79.6Z" style="fill:#cca1c9;fill-rule:evenodd"/><path d="M82.1,17.5h-.3c-.2.1-.4.2-.3.5a1.2,1.2,0,0,1-.4,1.1h-.7c-.3,0-.6.1-.6-.4l.4-.3c.2-.3.1-.7.4-.9a2.3,2.3,0,0,0,.7-.7A2.4,2.4,0,0,1,82.1,17.5Z" style="fill:#b487b7;fill-rule:evenodd"/><path d="M123.1,39.7l.2-.3a1.4,1.4,0,0,0,.1-1.4,8,8,0,0,1,2,.7l-.5.4a1.8,1.8,0,0,1-1.2.5Z" style="fill:#7aa465;fill-rule:evenodd"/><path d="M109.9,60.2a2.2,2.2,0,0,1-.8,1.9.5.5,0,0,1-.6-.4l.4-.6A1.2,1.2,0,0,1,109.9,60.2Z" style="fill:#7da469;fill-rule:evenodd"/><path d="M45.3,63.3a10.8,10.8,0,0,1-.8,1.9h-.6a6.6,6.6,0,0,1,.9-1.9C45,63.1,45.1,63.2,45.3,63.3Z" style="fill:#4f56a1;fill-rule:evenodd"/><path d="M101.5,54.7a2,2,0,0,1,.8-.4h.5a.8.8,0,0,1,.2.4l-.2.2c-.3.1-.6-.1-.8.2A.7.7,0,0,1,101.5,54.7Z" style="fill:#6c9a58;fill-rule:evenodd"/><path d="M.7,66.6c.1.5.3.9.4,1.3a1.2,1.2,0,0,1-1-.2c-.1,0-.1-.1-.1-.2A1.3,1.3,0,0,1,.7,66.6Z" style="fill:#8eab98;fill-rule:evenodd"/><path d="M85.2,21.7a1.6,1.6,0,0,1,.9.9.3.3,0,0,0-.1.2c-.7,0-.7-.5-.8-1Z" style="fill:#d9bdd9;fill-rule:evenodd"/><path d="M86.6,22.8a5.9,5.9,0,0,1,.4.8h0c-.8.2-.9-.3-.9-.9h0Z" style="fill:#d9bdd9;fill-rule:evenodd"/><path d="M36.5,99.9l.9.3h-.2A.7.7,0,0,1,36.5,99.9Z" style="fill:#aac499;fill-rule:evenodd"/><path d="M71,85.3c.1-.3.3-.4.6-.6A.9.9,0,0,1,71,85.3Z" style="fill:#c28ebd;fill-rule:evenodd"/><path d="M82.6,18a.8.8,0,0,1-.5-.5A.8.8,0,0,1,82.6,18Z" style="fill:#b487b7;fill-rule:evenodd"/><path d="M1.1,66a1,1,0,0,1-.4.7A1,1,0,0,1,1.1,66Z" style="fill:#a0bc8c;fill-rule:evenodd"/><path d="M83.4,18.7a.9.9,0,0,1-.6-.6C83.1,18.2,83.2,18.4,83.4,18.7Z" style="fill:#b487b7;fill-rule:evenodd"/><path d="M100.4,46.5c-.1.3-.2.4-.5.4Z" style="fill:#74a060;fill-rule:evenodd"/><path d="M86,86.4h0Z" style="fill:#d2adcf;fill-rule:evenodd"/><path d="M45.4,91.7l.2-.3Z" style="fill:#a7c194;fill-rule:evenodd"/><path d="M139.3,46.8c0-.1.1-.1.1-.2v.2Z" style="fill:#b6caa6;fill-rule:evenodd"/><path d="M139.9,46.2c0-.1-.1-.1-.1-.2h.1Z" style="fill:#b6caa6;fill-rule:evenodd"/><polygon points="28.4 106.2 28.4 106.2 28.5 106.2 28.4 106.2" style="fill:#b0c7a0;fill-rule:evenodd"/><path d="M139.8,46l-.4-.2A.4.4,0,0,1,139.8,46Z" style="fill:#b6caa6;fill-rule:evenodd"/><path d="M46.8,51.3a.6.6,0,0,1,.1-.4H47c0,.2,0,.3-.1.4Z" style="fill:#b88bba;fill-rule:evenodd"/><path d="M75.8,64.2h-1a.3.3,0,0,1-.3-.3v-.3l.3-.4a3.2,3.2,0,0,0,.9-2.3c-.3-.5.1-.6.4-.7s.7-.2.8-.6a.4.4,0,0,0,.1-.3c0-.2,0-.3.1-.4v-.2c0-.2.1-.3.1-.4s1.9-.7,2.6-1.4l.6-.3a5.3,5.3,0,0,1,1.2-.3h.6a2.6,2.6,0,0,1,1,3.3C82.2,62,78.8,65.1,75.8,64.2Z" style="fill:#e4d1e4;fill-rule:evenodd"/><path d="M75.8,64.2l2.3-.7a7.6,7.6,0,0,0,4.1-3.2,3.4,3.4,0,0,0,.5-1.7c-.1-.4-.1-.8-.2-1.1a.8.8,0,0,0-.7-.8c-.3-.9.3-1.1.9-1.4h.5c1.4,1.9,2.8,2,5.1.6.7-.4,1.2-1.3,2.2-.8s-.6.8-.7,1.3a3.2,3.2,0,0,1-1.1,1.2c-.1.1-.1.3-.2.4s-.8.9-1.5,1.1a3.4,3.4,0,0,0-2.6,1.1c-.1.5-.6.8-.8,1.2a10.6,10.6,0,0,1-3.5,3.5,1.1,1.1,0,0,1-.8.2H78.2a5.8,5.8,0,0,1-1.8-.4Z" style="fill:#ceaecf;fill-rule:evenodd"/><path d="M68.7,73.1h-.3l-.6-.3a2.8,2.8,0,0,1-.1-.9,1.2,1.2,0,0,0-.3-1,1.1,1.1,0,0,1-.3-.8c.1-1.3,1.2-1.8,2.3-2.3s-.2-.2-.1,0-1.6,0-1.4-1.2l.4-.3a4.4,4.4,0,0,0,1.8-.9c1-.3,1.7-1.2,2.8-1.1h.5a.2.2,0,0,1,0,.3h-.2c-.4.1-.5.4-.4.8a4.5,4.5,0,0,1-1.5,4.1c-.8.6-1,1.7-1.8,2.3h-.3c-.1.3.1.5.1.7h0A.5.5,0,0,1,68.7,73.1Z" style="fill:#cda3ca;fill-rule:evenodd"/><path d="M76.3,60.6a.7.7,0,0,0-.6.3c-.2.1-.4.3-.6.2a3.6,3.6,0,0,0-2.2.7.4.4,0,0,0,0,.6l.5.2c.1.1.1.2,0,.2l-.3.2a.9.9,0,0,0-.8,1c-.7,1.1-1.5.4-2.2.1a2,2,0,0,1-1-.8c-.8-1.8.8-2.5,1.8-3.4a.5.5,0,0,1,.4-.2H72l.5.2c.9.6,1.8-.2,2.7,0S76.4,59.8,76.3,60.6Z" style="fill:#d2b0d1;fill-rule:evenodd"/><path d="M69.5,71.9a1.9,1.9,0,0,0-.1-.8.8.8,0,0,1,.2-.7,5.7,5.7,0,0,0,1.2-1.5,1,1,0,0,1,.5-.4,3.6,3.6,0,0,0,1.2-1.8c.1-.2,0-.4.1-.6a1.4,1.4,0,0,1,.2-.6l.3,1.4c.1.2.4.4.6.3l.7-.3c.4.8-.5.8-.8,1.1l-.3.2a1,1,0,0,0-.6.9,1.1,1.1,0,0,1-.3.7,2,2,0,0,0-.8,1.4.5.5,0,0,1-.5.5A4.7,4.7,0,0,1,69.5,71.9Z" style="fill:#d1adcf;fill-rule:evenodd"/><path d="M70.3,63.7l.8.3a1.7,1.7,0,0,0,1.2,0l.6.4-.4.2a5.7,5.7,0,0,1-2.2,1.6c-.7.1-1.2.8-2,.5H68a.9.9,0,0,1-1.6-.1c-.8-1.1-.1-1.8.8-2.2A17.7,17.7,0,0,1,70.3,63.7Z" style="fill:#b88ab8;fill-rule:evenodd"/><path d="M79.3,65.1l.4-.6.6.3c1.1,1.1,2.2,0,3.3.2a1.7,1.7,0,0,1,1.1.9c.2,1-.5,1.8-.3,2.7a.9.9,0,0,1-.4.8,10.8,10.8,0,0,1-1.8-1.1,2,2,0,0,0-1.2-.8A4.3,4.3,0,0,1,79.3,65.1Z" style="fill:#b06da9;fill-rule:evenodd"/><path d="M84,69.4c0-.2-.1-.4-.1-.6a.9.9,0,0,1,1.1.3c.3.5.5,1.2,1.3,1.4s.8.4.9.9-.8,2.4-1.6,3.5h-.2l-.2-.3a3.7,3.7,0,0,1-1.4-3.2c-.3-.7.3-1,.5-1.5Z" style="fill:#a08b9d;fill-rule:evenodd"/><path d="M84.3,70c-.1.5-.4,1-.5,1.5l-.8-.3H81.2l-2.6-.4h-.1a.2.2,0,0,1,.2-.2,25.5,25.5,0,0,1,3.9-.2A2.5,2.5,0,0,0,84.3,70Z" style="fill:#cfafcf;fill-rule:evenodd"/><path d="M73.6,68c0-.2.1-.3.3-.5s.5-.3.5-.6l.5-.3h.3l1.1.8h.1l-.2.3-.6.2h-2Z" style="fill:#4b51a0;fill-rule:evenodd"/><path d="M81,67.5h1c.2,0,.3.2.3.5v.4C81.6,68.3,81.3,67.9,81,67.5Z" style="fill:#bd86b8;fill-rule:evenodd"/><path d="M68.7,73.1l.6-.4a3.9,3.9,0,0,0,.8,2.1,1.3,1.3,0,0,1-.7-.6Z" style="fill:#d1adcf;fill-rule:evenodd"/><path d="M69.3,72.7a.8.8,0,0,1-.1-.7A2,2,0,0,1,69.3,72.7Z" style="fill:#d1adcf;fill-rule:evenodd"/><path d="M67,75.9v1.3A3.7,3.7,0,0,1,65.3,79a2.4,2.4,0,0,1-2.3.2h-.3a1.3,1.3,0,0,0-1.6,0h-.4c-.3-.8.1-1.2.7-1.5s1-1.3,1.1-2.2,2-.6,3-.8a1.8,1.8,0,0,1,1.2.3A.9.9,0,0,1,67,75.9Z" style="fill:#6c566b;fill-rule:evenodd"/><path d="M53.7,83.1a1,1,0,0,1,.5-.6,3.5,3.5,0,0,1,1.4-.6,1.6,1.6,0,0,0,1.4-.8c.1-.1.2-.3.4-.3a4.3,4.3,0,0,0,2.1-1.4c.2-.3.4-.4.6,0a1.8,1.8,0,0,0-.4,1v.4a.8.8,0,0,1-.2.8l-.8.7a1.1,1.1,0,0,1-.7.3h-.8A21.1,21.1,0,0,0,53.7,83.1Z" style="fill:#b87db2;fill-rule:evenodd"/><path d="M60.1,79.4a.6.6,0,0,0-.6,0l-.7-.3c.3-1.7.7-2.1,2.3-2.2s.8.7.5,1.3a.7.7,0,0,0-.5.4l-.4.6Z" style="fill:#655265;fill-rule:evenodd"/><path d="M22.2,69.1a1.6,1.6,0,0,1-1.2.3.7.7,0,0,1-.4-.6c0-.3.1-.7.1-1l1-1.4A19.9,19.9,0,0,0,24,62.8a1.9,1.9,0,0,0,.2-1.3c-.1-.2-.4-.5-.6-.4a25,25,0,0,0-2.5.9h-.5l.5-.4a.9.9,0,0,0,.1-.7c-.1-.2,0-.4.1-.4L22,60c.3-.1.4-.4.5-.6a.9.9,0,0,1,.3-.7,2.1,2.1,0,0,1,2-.6c1.2.4,1.8,1.1,1.6,2.3a2,2,0,0,1,.1.7.9.9,0,0,0-.1.5h0a2.4,2.4,0,0,1-.7,3.1h-.4a10.1,10.1,0,0,1-.7,1.5.5.5,0,0,1-.4.5l-.4.6a4.4,4.4,0,0,1-1.4,1.3l-.2.4Z" style="fill:#95b37e;fill-rule:evenodd"/><path d="M29.9,65.8v-.9c0-.4-.2-.8-.2-1.1a1.2,1.2,0,0,0-.5-1.3l-.8-.7c-.2-.2-.3-.4-.2-.6s.1-.6.1-.9a.9.9,0,0,1,.5-.8,3.1,3.1,0,0,1,1-.5l4.1-1.3c.3-.1.6.1.5.4v.2c-.2.7-.4,1.5-.7,2.3s-.9,2.1-1.4,3.1l-1.6,3.1c-.1.2-.2.2-.6,0v-.2a.7.7,0,0,1-.2-.6A.3.3,0,0,0,29.9,65.8Z" style="fill:#c5d7ba;fill-rule:evenodd"/><path d="M25,55.4l.3-.2a1.5,1.5,0,0,0,.8-1.1,1.9,1.9,0,0,0,.2-.7q.1-.6.6-.3H27a13.8,13.8,0,0,1,3.4,3,.3.3,0,0,1-.1.5,9.8,9.8,0,0,1-2.9.9c-.1.1-.3,0-.4-.2a2.3,2.3,0,0,0-.7-.7,1.2,1.2,0,0,0-1.4-.1h-.2a.7.7,0,0,1-.3-.9A.4.4,0,0,1,25,55.4Z" style="fill:#c5d7ba;fill-rule:evenodd"/><path d="M26,63.6a14.2,14.2,0,0,0,.4-2A2.4,2.4,0,0,1,28,62.8s.1.2,0,.2.2.8.5.9a2,2,0,0,1,.8.8l.6,1.1h0c-.1.4.4.6.2,1h0a1.7,1.7,0,0,1,.1.7v.7a1.8,1.8,0,0,0-1.3-.9c-.4,0-.8-.2-1.1-.1a1,1,0,0,1-1-.7h-.1a2.7,2.7,0,0,0-1.4-1.6l.3-.2A.8.8,0,0,0,26,63.6Z" style="fill:#abc49a;fill-rule:evenodd"/><path d="M46.9,51.4c0-.1.1-.3.1-.4h1.1a1.3,1.3,0,0,0,1.3-.8h.1a3.5,3.5,0,0,1,2.6,2,3.6,3.6,0,0,1-2.9,3.3,1.2,1.2,0,0,1-.7-.5c0-.1-.1-.1-.1-.2s.1-.2,0-.3S47.4,52.4,46.9,51.4Z" style="fill:#cdadce;fill-rule:evenodd"/><path d="M25,55.4l-.6.3c0,.4.1.7.5.8h0c0,.2-.1.3-.1.5s.1.7.6.7.7-.2,1,.2-.9.5-1.5.5l-1,.3-.8.3c-1.1-.4-1.4-1.2-.8-2.1a3.6,3.6,0,0,0,.4-3c-.3-1.7-.3-1.8,1.5-2.2h.2a.3.3,0,0,1,.1.2l.8,1.3a1.7,1.7,0,0,1-.1,1.7A.5.5,0,0,0,25,55.4Z" style="fill:#adc69c;fill-rule:evenodd"/><path d="M36.2,59.3a5.8,5.8,0,0,1-.4,1.8c-.4,1-.8,1.9-1.3,2.9a1.6,1.6,0,0,1-.7.7,1.7,1.7,0,0,1,.1-.7,4.3,4.3,0,0,0,.5-1.6A3.4,3.4,0,0,1,36.2,59.3Z" style="fill:#9bb683;fill-rule:evenodd"/><path d="M24.9,58.4l1.5-.5a3.4,3.4,0,0,0,1.2,1.2.4.4,0,0,1,0,.6l-1.2.7-.2-.3a4.5,4.5,0,0,1-1-1.4Z" style="fill:#a1ba8b;fill-rule:evenodd"/><path d="M22.7,48.9a1.1,1.1,0,0,1,.3-.8,2.9,2.9,0,0,0,.2-.9,2.7,2.7,0,0,1,1.4,1.6,4.7,4.7,0,0,0,.5,1v.3c-.4.5-.7.1-1.1-.1s-.5-.6-.9-.8-.3-.2-.5-.3Z" style="fill:#b1c8a0;fill-rule:evenodd"/><path d="M24.2,49.6a3.1,3.1,0,0,1,1,.5,1.2,1.2,0,0,1,.3,1c-.3.3.7.8-.1,1.1h-.9l-.2-.3v-.2C24.2,50.9,23.4,50.2,24.2,49.6Z" style="fill:#a7c193;fill-rule:evenodd"/><path d="M25.4,52.2a4.1,4.1,0,0,1,.1-1.1l.5,1c0,.1-.2.3-.3.2Z" style="fill:#adc69c;fill-rule:evenodd"/><path d="M26.4,61.6a.9.9,0,0,1,.1-.5A.9.9,0,0,0,26.4,61.6Z" style="fill:#abc49a;fill-rule:evenodd"/><path d="M24.9,52.1h0Z" style="fill:#adc69c;fill-rule:evenodd"/><path d="M100.5,16.6l.7.3c.1,0,.3-.1.3-.2l.2-.5c.1-.3.3-.3.6-.2a3.1,3.1,0,0,1,.3,1.3c.4,2.4.7,4.7,1.2,7a7.6,7.6,0,0,0,.8,2.1h.1c0,.1,0,.2-.1.2h-.1l-1.7.9c-.1-.1-.3-.2-.4-.4s-.3-.9-.4-1.4a34,34,0,0,1-.7-3.4A55.9,55.9,0,0,1,100.5,16.6Z" style="fill:#85a86d;fill-rule:evenodd"/><path d="M106.7,24.8c.1.1.1.2.2.2a.5.5,0,0,1,.1.6,13.9,13.9,0,0,1-1.5,1.9.5.5,0,0,1-.5,0l-.5-.7h0a.6.6,0,0,0,.1-.4h0c.4-.1.7-.1.9-.5a.4.4,0,0,1,.4-.4C106.3,25.4,106.2,24.8,106.7,24.8Z" style="fill:#c3d5b7;fill-rule:evenodd"/><path d="M24.5,81.4c0-.1-.1-.2-.1-.3a1,1,0,0,1,.9-1.1l1.6-.7a8.8,8.8,0,0,1,2.3-.7l1.7-.4h.4c.2.1.2.4.1.6a2.8,2.8,0,0,1-1,1.4l-.7.4h-.3c-.2-.1-.5.1-.7.1l-2.4.9-.6-.3C25.3,81.4,24.9,81.7,24.5,81.4Z" style="fill:#99b583;fill-rule:evenodd"/><path d="M31.9,82a6.1,6.1,0,0,1,1.5-1.3.8.8,0,0,1,1,.6,14.3,14.3,0,0,1-3.5,7.2,1.6,1.6,0,0,1-1.8-.5l-.2-.3A3.6,3.6,0,0,1,30,84.4,6.1,6.1,0,0,0,31.9,82Z" style="fill:#a1bd8c;fill-rule:evenodd"/><path d="M31.9,82a2.1,2.1,0,0,0,.3,1.3.7.7,0,0,1-.4.8l-.9.3a1.4,1.4,0,0,0-.8.9,1.4,1.4,0,0,1-.8,1.3c-.1,0-.1.2-.1.3l.2.2h1c.1,0,.2.1.1.2h-.1c-.5.2-1,0-1.5.2a2.6,2.6,0,0,1-1-1.3.6.6,0,0,1,0-.6,2.6,2.6,0,0,1,1-1.3l2.6-2.3Z" style="fill:#a7c193;fill-rule:evenodd"/><path d="M29.1,88l1.7.2q.1,0,.3.3v.4l-.2.5a5.8,5.8,0,0,1-3.4,1.9h-.2l.3-.8,1.3-1.7A1.9,1.9,0,0,0,29.1,88Z" style="fill:#a7c193;fill-rule:evenodd"/><path d="M34.1,81.4a2.3,2.3,0,0,0-.7-.7l-.3-.5-.4-.5a1.4,1.4,0,0,1-.2-1.1c1.6.5,2.1,1.2,2,2.6S34.3,81.4,34.1,81.4Z" style="fill:#85a86c;fill-rule:evenodd"/><path d="M28.7,80.9a.9.9,0,0,1,.7-.1A.9.9,0,0,1,28.7,80.9Z" style="fill:#aec79d;fill-rule:evenodd"/><path d="M30.9,88.4v-.2a6.4,6.4,0,0,0,1-1.8c.6-1.7,1.5-3.3,2.3-5h.2a1.3,1.3,0,0,1,1.7.7c.1.1,0,.3,0,.4a19.1,19.1,0,0,0-1.6,3.2c-.1.4-.2.9-.7,1.1a.5.5,0,0,0-.4.2,3.8,3.8,0,0,1-1.1,1.1c-.4.3-.4.6,0,1l.3.2v.2c.1.2,0,.3,0,.5l-.3.3c-.4.4-.9.7-1.4.3s-.4-1.1-.2-1.7h0Z" style="fill:#85a86c;fill-rule:evenodd"/><path d="M36,82.5l-.2-.3c-.3-1.3.4-2.3,1.1-3.3a1.1,1.1,0,0,1,1.8-.3c.9,1,2,2,1.6,3.7a.1.1,0,0,0,.1.1h-1c-.5.1-.9.7-1.4.4s-1.1,0-1.6-.2Z" style="fill:#74a05d;fill-rule:evenodd"/><path d="M103.6,66a1.7,1.7,0,0,1-.1.7l-.4.5a2.1,2.1,0,0,1-1,.6h-.8c-.6.1-.8.5-.6,1.1v.5a.7.7,0,0,1-.6.7,2.5,2.5,0,0,1-1.7.1c-1-.9-1.3-2.4-2.9-2.8l-.5-.3a.7.7,0,0,1-.4-.5l.3-.2a1,1,0,0,1,1-.3,2.8,2.8,0,0,0,1.8-.2h0a.5.5,0,0,1-.2-.4c0-.1-.1-.2,0-.3a1.3,1.3,0,0,1,1.4-.5,5.8,5.8,0,0,0,1.4.3,1.5,1.5,0,0,0,1.1-.4,1.1,1.1,0,0,1,.7-.3h.2c0,.1.1.3,0,.3l-.9.8h-.1c.1,0,.1.1.2,0h.3c.3-.1.6-.5,1-.3s.4.5.6.7Z" style="fill:#a95fa1;fill-rule:evenodd"/><path d="M90.6,64.9a4.1,4.1,0,0,1,2.2-.1l.6.4a1,1,0,0,1,.6.5,3.5,3.5,0,0,0,.8,1.3c.8.9.7,1.6-.3,2.3s-1.2-.3-1.6-.8-1-.8-1.5-1.3-.9-.1-1.1.4c-1,2-3,2.4-4.4.8a.7.7,0,0,1-.1-.5,6.3,6.3,0,0,1,.7-2.2c.2-.3.4-.7.8-.8a.8.8,0,0,1,.7,0l1.3.3C89.8,65.3,90.2,64.9,90.6,64.9Z" style="fill:#382e36;fill-rule:evenodd"/><path d="M94.2,69.1l.4-.3a1.6,1.6,0,0,0,.1-1.5l-.9-1.6c.2-.2.4-.2.4.1a2.5,2.5,0,0,0,.4.9c.2.2.3.2.5.1h.5a3.5,3.5,0,0,1,2.8,3.1h.1a.6.6,0,0,1-.1.7c-.4.5-1.1.4-1.6.7a3.1,3.1,0,0,1-2.7-1.8C94.1,69.4,94.2,69.3,94.2,69.1Z" style="fill:#463a44;fill-rule:evenodd"/><path d="M94.2,65.8h-.4l-.4-.5,1.3-1a9.5,9.5,0,0,1,1.9-1.6l1.1-.9c.1-.1.2,0,.3,0v.2a.1.1,0,0,1-.1.1A22.2,22.2,0,0,1,94.2,65.8Z" style="fill:#8d3c8c;fill-rule:evenodd"/><path d="M110.9,18.7a17.6,17.6,0,0,1-.6-3.9,6.6,6.6,0,0,1,.1-2,4.5,4.5,0,0,1,1.8-.7,1.4,1.4,0,0,0,1.2-.9l.2-.2h.1c0,.9.7,1.3,1.5,1.5h.3v-.3a.8.8,0,0,0-.2-.4,1.4,1.4,0,0,1,.3-.9,3.7,3.7,0,0,1,1.4-.7,1.6,1.6,0,0,0,1.5-1.3c.1-.1.1-.2.2-.2s.2-.2.4-.2h.4c-.8,1.2-1.7,2.5-2.6,3.6a40.8,40.8,0,0,1-2.5,3.3c-.7,1-1.4,1.9-2,2.9l-.4.3a.9.9,0,0,1-.5.3C111.3,19,111.1,18.8,110.9,18.7Z" style="fill:#a6c092;fill-rule:evenodd"/><path d="M49.2,72.8h-.9c-.3-.1-.4,0-.3.4a1.1,1.1,0,0,0-.1.5.3.3,0,0,1-.4.2c-.3-.3-.8-.4-.9-1a1,1,0,0,0-.8-.7.4.4,0,0,1-.1-.3c-.1-.1.2-.2.3-.2a1.6,1.6,0,0,1,1,.2c0,.1.2,0,.2-.1s.1-.1.1-.2-.1-.1-.1-.2h-.1c-.7-.7-.3-1,.2-1.4l1-.5c.2,0,.3.2.5.3s-.3-.3-.5-.3-.1-.5.1-.6a1.4,1.4,0,0,0,.3-.9,1.1,1.1,0,0,1,.7-.9l.6-.2c.3-.1.4-.3.5-.6s.1-.3.2-.4a.4.4,0,0,1,.5-.2.3.3,0,0,1,.3.3.9.9,0,0,0,.8.8c1.3-.3,1.5.9,2.1,1.5s-.3,1.4-.3,2.1l-.2.5A8.6,8.6,0,0,1,52,72.6h-.4c-.7-.5-1.3.2-2,.2Z" style="fill:#ad64a4;fill-rule:evenodd"/><path d="M54.2,66.6a5.9,5.9,0,0,1-.4-2.3,3,3,0,0,1,.1-1.3.8.8,0,0,1,.8-.7c.2,0,.3-.3.3-.5a1.1,1.1,0,0,0-.7-.8,1.3,1.3,0,0,1-.6-.7.5.5,0,0,1-.1-.3l-.3-.6v-.2c1.2-.4,2.9.1,3.3,1.2a2.3,2.3,0,0,0,1.6,1.4,1.4,1.4,0,0,1,1,1.3c0,1.3,0,2.7.1,4.1a1.1,1.1,0,0,1-.6.9c-.9.4-1.8-.1-2.7,0h-.9l-.4-.2A.9.9,0,0,1,54.2,66.6Z" style="fill:#af6aa7;fill-rule:evenodd"/><path d="M54.2,66.6a4.3,4.3,0,0,0,.9,1c-.1.6-.3,1-1,.8a7.4,7.4,0,0,1-1.2-1.3c-.1-.3-.3-.4-.6-.5a12.7,12.7,0,0,0-.6-1.8c-.1-.2-.1-.4.1-.4l.4.2c.3.3.4.7.9.8h0l.4.7A1.8,1.8,0,0,0,54.2,66.6Z" style="fill:#934b92;fill-rule:evenodd"/><path d="M53.1,65.4c0-.1-.1-.2-.1-.3l.2-.2h.1v.4Z" style="fill:#af6aa7;fill-rule:evenodd"/><path d="M46.6,74.7h-.3a.4.4,0,0,1,.1-.3c0-.1.1-.1.1-.2v.2C46.7,74.6,46.6,74.6,46.6,74.7Z" style="fill:#ad64a4;fill-rule:evenodd"/><path d="M46.7,61.4l.5-.4C47.1,61.4,47.1,61.4,46.7,61.4Z" style="fill:#b789bb;fill-rule:evenodd"/><path d="M114.5,27.4a7.1,7.1,0,0,0,1.7,1.1c.1,0,.2.2,0,.4l-.3.2a11.6,11.6,0,0,1-3.7.3,13.1,13.1,0,0,1-3.9-.5l-.6-.2-.6.2-.8,1.1-.4.4a4,4,0,0,1,.3-1.5c.1-.2.1-.4.3-.6s.7-1.3,1.4-1.6l.3-.4a2.7,2.7,0,0,1,1.5-1.3c.1.5-.4.9-.6,1.4a.8.8,0,0,0,.2.4h.3a11,11,0,0,0,3.1.4Z" style="fill:#96b37f;fill-rule:evenodd"/><path d="M40.3,82.3l-1.8-3a1,1,0,0,0-.4-.5h-.3c-.1.1-.3.2-.3.4a5.6,5.6,0,0,0-.5.8,5.9,5.9,0,0,1-1.2,2.2l-1.5-.8v-.6c-.1-.2-.1-.4-.2-.4a2.6,2.6,0,0,1-.9-.9l-.7-.9c.1-.1.1-.3.2-.4,2.3-.4,3.3-2.3,4.2-4.1a3.6,3.6,0,0,1,1.4-1.6h0a1.7,1.7,0,0,1,1-.3h1a1.4,1.4,0,0,1,0,.9c-.3.6-.5,1.2-.7,1.7l-.2.5h0l-.3.5c-.1.2-.1.5.1.6a13.7,13.7,0,0,1,1.3,2l1.9,3.2a.9.9,0,0,0-.1.5l-.7.3Z" style="fill:#4c8236;fill-rule:evenodd"/><path d="M38.3,72.5A11.9,11.9,0,0,0,37,75l-1.3,2.7a.5.5,0,0,1-.6.4H32.7a.7.7,0,0,1,.4-.5,3.2,3.2,0,0,0,1.4-1.2,24.3,24.3,0,0,0,2-2.5,1.6,1.6,0,0,0,.4-.7c.2-.6.7-.7,1.2-.8Z" style="fill:#76a05c;fill-rule:evenodd"/><path d="M91,43.7a.9.9,0,0,0-.1.5A5.4,5.4,0,0,1,88,47.6c-.8.4-.8.8-.6,1.6a4.6,4.6,0,0,1-2.3,5.2c-1,0-1-1.1-1.7-1.4l-.4-.3-.3-.2-.4-.2c-.7-.4-1.6-.4-1.8-1.5a1.4,1.4,0,0,1,1-1c1.7-.7,2.4-2.2,3-3.8a2.8,2.8,0,0,0-.6-3.1,1.3,1.3,0,0,1,.1-2.1c1.3-1.1,1.3-2.6,1-4.1a3.7,3.7,0,0,1-.2-2.3,1.9,1.9,0,0,1,2.3-.6c-.1.5-.5.7-.7,1.1s0,.3.2.4l.9.2A3.2,3.2,0,0,1,90,37.9a11.1,11.1,0,0,1,.4,5.1c-.1.4-.1.6.4.7Z" style="fill:#d9bcd8;fill-rule:evenodd"/><path d="M87.1,33.8a3.1,3.1,0,0,1-1.3.6,1.9,1.9,0,0,0-.8.3.7.7,0,0,1-1,.4,2.5,2.5,0,0,0-2.8-2c-.7,0-1.2-.4-1-1.1s-.8-3.1-2.3-4a2.4,2.4,0,0,1-.8-.9.7.7,0,0,1,0-.9,1.9,1.9,0,0,1,1.4-.7,4.3,4.3,0,0,1,4.1-.1,9.9,9.9,0,0,1,3.5,2.9l.3.4a.7.7,0,0,0,.8.3l.2.3h-.3a1.6,1.6,0,0,0,0,.7,2.4,2.4,0,0,1,.2.8,2,2,0,0,1,0,1.5A7.8,7.8,0,0,0,87.1,33.8Z" style="fill:#c799c3;fill-rule:evenodd"/><path d="M87.1,30.1c-.2-.1-.2-.2-.1-.4s.1-.2.1-.3A.8.8,0,0,1,87.1,30.1Z" style="fill:#ceaecf;fill-rule:evenodd"/><path d="M51.4,37.7c0-.1-.1-.2-.1-.3s.5-.1.6-.4a8.3,8.3,0,0,1,.7-1.3,2.9,2.9,0,0,1,2.3-1.5l1-.3c.1,0,.2-.2.2-.2l-.7-1.3a2.9,2.9,0,0,1-.3-1.8,6.1,6.1,0,0,1,1.4-2.9l2.2-2.3.5-.6a2.9,2.9,0,0,1,.2-.9c0,.1,0,.1.1.2a1,1,0,0,0,1,.4l1.3-.2a3.4,3.4,0,0,1,3,.9c.3.2.5.5.9.6s-.3,1-.8,1.4l-.4.2a1.6,1.6,0,0,1-1.5,0c.3.3.3.7.4,1.2a9.7,9.7,0,0,1-.1,1.7,1.4,1.4,0,0,1-1.4,1.3,4.8,4.8,0,0,0-4.6,4.5,3.2,3.2,0,0,1-.3,1.7,11.6,11.6,0,0,0-1.4,2.4,1.6,1.6,0,0,0,0,1.5c.5,1.3.3,1.6-1.3,2.1a.2.2,0,0,0-.2.2,3.7,3.7,0,0,1-.2,1.8,1.8,1.8,0,0,1-1.1-.8,5.7,5.7,0,0,1-.8-1.3,9.8,9.8,0,0,1-.7-3.4,11.1,11.1,0,0,0,.2-1.9A1.7,1.7,0,0,0,51.4,37.7Z" style="fill:#c492bf;fill-rule:evenodd"/><path d="M64.5,26.9l.6-.4a1.1,1.1,0,0,0,.6-.7,3,3,0,0,1,1.4-3.4,6.8,6.8,0,0,1,4.4-1.1h1.7a.8.8,0,0,0,.8-.3h.5A4.2,4.2,0,0,1,78.1,25c0,.2-.1.3-.1.5s-.1.1-.1.2l-.3.3h-.2a1.1,1.1,0,0,0,0,.8c-.6.7-1.3.1-1.9.2a4.2,4.2,0,0,0-2.8,1,1.1,1.1,0,0,1-1.6-.2,4,4,0,0,0-5.5-.6H65C64.7,27.3,64.5,27.2,64.5,26.9Z" style="fill:#c18cbb;fill-rule:evenodd"/><path d="M24.3,51.7c-.2.5-.7.6-1.1.8s-.2.2-.2.2l.3.8a3,3,0,0,1,.3,1.6,1.2,1.2,0,0,1-.2.8,3.6,3.6,0,0,0-.7,1c-.3.5-.4,1,0,1.4s.2.5.4.7l-.6.4h-.4a1.8,1.8,0,0,1-2-.1l-.5-.4c0-.1-.1-.2-.1-.3s.3-.5.5-.5l.8.2c.2,0,.4-.1.4-.2a9.9,9.9,0,0,0,1.1-1.7,1.1,1.1,0,0,0-.2-.5l-1-.7a.2.2,0,0,1,0-.3l.6-.2a.4.4,0,0,0,.2-.4c0-.1-.1-.2-.1-.3s-.2-.6-.6-.6a.9.9,0,0,1-.6-.3c-.1,0-.1-.1-.1-.2a1.9,1.9,0,0,1,.2-.8,9.4,9.4,0,0,0,1-1h1.2c.6-.1,1.2-.3,1.4.6Z" style="fill:#a7c193;fill-rule:evenodd"/><path d="M96.7,76l-.9.7a2.8,2.8,0,0,1-2.4.3h-.6c-.2-.4-.6-.4-1-.2a1.9,1.9,0,0,1-.9.3v-.3a1.5,1.5,0,0,1,.7-1.1c.5-.2.8-.6,1.3-.8,2.5-.7,2.8-.6,3.9.8A.6.6,0,0,1,96.7,76Z" style="fill:#7c667b;fill-rule:evenodd"/><path d="M90.9,77a2.4,2.4,0,0,1-2.7-1,1.1,1.1,0,0,1-.4-1.3c.6-.9,1.3-1.8,2.7-1.1s.5,2.1.5,3.2Z" style="fill:#80697e;fill-rule:evenodd"/><path d="M88,74.9a4.3,4.3,0,0,0,.2,1.1l-.3-.2a1.3,1.3,0,0,0-1.3-.6,1.9,1.9,0,0,1-1-.3,2.9,2.9,0,0,1,.6-2.7l.8-.8c1.5.1.4,1.3.8,1.9S87.8,74.4,88,74.9Z" style="fill:#857083;fill-rule:evenodd"/><path d="M116,18.4a.8.8,0,0,0-.3.9h0c-.1.4-.6.4-.7.7l-.9.9a2.3,2.3,0,0,1-.9.8l-.8.2h0c.2-.4.2-.7-.2-.9h.5c.3-.1.6-.2.7-.5a7.3,7.3,0,0,1,1.4-1.6l1-.5h.2Z" style="fill:#a9c39a;fill-rule:evenodd"/><path d="M111.5,22.8c.1-.5.5-.7.9-.9a1.2,1.2,0,0,1-.6.8Z" style="fill:#a9c39a;fill-rule:evenodd"/><path d="M115,20a1.6,1.6,0,0,1,.7-.7A.8.8,0,0,1,115,20Z" style="fill:#b5caa5;fill-rule:evenodd"/><path d="M10.3,65.3a1.2,1.2,0,0,1,1-.3A1.2,1.2,0,0,1,10.3,65.3Z" style="fill:#89aa70;fill-rule:evenodd"/><path d="M54.9,51.9a2.2,2.2,0,0,0-.1-.8l-.4-.7a1.9,1.9,0,0,1-.1-.8,2.5,2.5,0,0,1,1.2.2,17.7,17.7,0,0,1,5.6.5c.7,1.2,1.8,2.2,2.4,3.5s-.8,1.5-1.1,2.2l.2.3.2.3a1.9,1.9,0,0,1-.2,1.5c.7-.1,1.3-.7,2.1-.6a1.4,1.4,0,0,1,1,.5c.7.8,2.2.7,2.3,2.1s-2.7,3.6-6.1,3c-1.7-.1-3-1.1-4.4-2s-2.3-1.4-2.6-2.9,1.2-.8,1.8-1.1,1.6-.9.3-1.8a20.1,20.1,0,0,1-2.3-2.8.5.5,0,0,1-.2-.4C54.6,51.9,54.7,51.9,54.9,51.9Z" style="fill:#caa2c9;fill-rule:evenodd"/><path d="M55.4,50.2c-.6.1-.8-.2-1.1-.6a4.1,4.1,0,0,1,.5-1.9,3.1,3.1,0,0,1,.5-1c.2-.3.1-.6-.3-.6l-1.1-.3a4.3,4.3,0,0,1-.4-.7c-.2-.1-.2-.3-.1-.6a2,2,0,0,0,.4-.8l1.5-.9a.6.6,0,0,0,0-.6l-.6-.3c-.1-.1-.3-.2-.2-.4a2.7,2.7,0,0,1,.6-1.7,1.6,1.6,0,0,0,.3-1.3.3.3,0,0,1,.2-.4,1.5,1.5,0,0,0,1-.4c1.8.8,2.1,1.8,1,3.2s-.9,3.4-.2,5.1,1.4,1.4,1.4,2.5l-.3.4A6.1,6.1,0,0,1,55.4,50.2Z" style="fill:#c18dbd;fill-rule:evenodd"/><path d="M54.9,51.9l-.3.2c-1.1,1.1-1.5,1.2-2.9.1a5.3,5.3,0,0,1-2.2-2l.3-.4c.3-.6.4-.6,1.1-.5a3.4,3.4,0,0,1,1.2.6,2.3,2.3,0,0,1,.7.7,3.1,3.1,0,0,0,1.4.7C54.5,51.3,54.7,51.6,54.9,51.9Z" style="fill:#dbc0db;fill-rule:evenodd"/><path d="M48.8,38.8a1.4,1.4,0,0,1,1.6-.9Z" style="fill:#bb8fbc;fill-rule:evenodd"/><path d="M49.3,50a1.9,1.9,0,0,1-1-1.7Z" style="fill:#cdadce;fill-rule:evenodd"/><path d="M9.6,63.4c.1.2.2.3.2.5a.4.4,0,0,1-.3.6,1.1,1.1,0,0,1-.7.3c-.3.1-.6.1-.7-.1s-.2-.4-.3-.6A6.7,6.7,0,0,1,9.6,63.4Z" style="fill:#84a76b;fill-rule:evenodd"/><path d="M116,18.4l-.2-.2c0-.1.1-.2.1-.3a1.1,1.1,0,0,1,.7-.9h.3c.4-.1.4-.4.4-.7s.8-.3,1.1.1v.6a1,1,0,0,1-.4.7,2.5,2.5,0,0,1-1.4.6Z" style="fill:#98b581;fill-rule:evenodd"/><path d="M116.9,15.7l.4.5C116.9,16.1,116.9,16.1,116.9,15.7Z" style="fill:#98b581;fill-rule:evenodd"/><path d="M29.6,96.5a2.2,2.2,0,0,0-.5.8l-.4.8c-.2.4-.6.9-1.1.6a1.6,1.6,0,0,1-.6-1.5c.1-.6.6-.9.7-1.4l.2-.5c.8-.5-.2-1.6.6-2.1s1.5-1,2.5-.6.2,1,.2,1.5S30,95.6,29.6,96.5Z" style="fill:#98b580;fill-rule:evenodd"/><path d="M27.7,95.8a1.3,1.3,0,0,1-.3,1c-.1.3-.1.4.3.5s.4.2.2.6-.1.2-.1.3a.4.4,0,0,0,.1.3H28l.7-.4c-.1.3-.1.6-.2.9v.3a.8.8,0,0,0-.1.4c-.1,0-.1.1-.1.2s-.1.2-.1.3a.8.8,0,0,1-.2.4l-.5.3h-.4c-.2-.3-.3-.8-.7-1l-.3-.5h0a.9.9,0,0,1,.1-.5A4.6,4.6,0,0,1,27.7,95.8Z" style="fill:#a4bc8e;fill-rule:evenodd"/><path d="M28.6,93.4a1,1,0,0,0-.2.9.8.8,0,0,1-.5,1,1.7,1.7,0,0,0-.3-1.7l-.3-.5a1.5,1.5,0,0,1,0-1.9h0l1.3.7Q30,92.7,28.6,93.4Z" style="fill:#a7c193;fill-rule:evenodd"/><path d="M26.2,98.8a.9.9,0,0,0-.1.5A.9.9,0,0,1,26.2,98.8Z" style="fill:#b0c7a0;fill-rule:evenodd"/><path d="M22.1,59.3h0Z" style="fill:#95b37e;fill-rule:evenodd"/><path d="M102.2,47.7c.6-1.2,1.4-2.3,2.1-3.5l.7-.7a2,2,0,0,0,1.4-.6c.3-.4.7-.3,1.1-.1s.2,1.4-.1,2a15.3,15.3,0,0,0-1.9,3c1.2.4,2.5-.5,3.5.5a.5.5,0,0,1,0,.5c-.6.9-1.8,1.1-2.6,1.9l-.4.2h-.8a7.5,7.5,0,0,0-2.1.2c-.2-.5,0-.9,0-1.3a1,1,0,0,1,.4-.8.4.4,0,0,0,0-.6c-.2-.1-.5-.2-.6,0s-.5.4-.7.6a1,1,0,0,1-.9.2A2.4,2.4,0,0,0,102.2,47.7Z" style="fill:#6b9556;fill-rule:evenodd"/><path d="M105.4,50.6l.3-.2a3.3,3.3,0,0,0,1.6-.7c1.2-.8,1.5-.3,1.4.8a19.9,19.9,0,0,0,.9,2.6c.9,2.2.8,2.3-.7,2.9h0c-.3-.1-.4-.4-.6-.4a37,37,0,0,1-3.1-4.6h.1A.6.6,0,0,1,105.4,50.6Z" style="fill:#53873a;fill-rule:evenodd"/><path d="M114.4,59.8H114a10.5,10.5,0,0,1-2.3-1.3h-.4l-.2-.3a3.9,3.9,0,0,1-.1-2.6c.6-.5,1,0,1.5.2l.3.3.5.4,1.2.7a1.6,1.6,0,0,1,.7.7C115.5,58.6,115.8,59.5,114.4,59.8Z" style="fill:#6d9754;fill-rule:evenodd"/><path d="M111.1,55.4l.3.5a1.1,1.1,0,0,1,.1,1.2c-.2.2-.2.6-.4.9a8.5,8.5,0,0,1-2.2-2,2.4,2.4,0,0,1,.9-1.3.5.5,0,0,0-.1-.3h-.2c-.4-.3-.4-.3-.2-.8a.9.9,0,0,1,1,.1C110.8,54.1,111.4,54.6,111.1,55.4Z" style="fill:#5a8b43;fill-rule:evenodd"/><path d="M108.3,55.6c.2,0,.4.2.6.4A.9.9,0,0,1,108.3,55.6Z" style="fill:#5a8b43;fill-rule:evenodd"/><path d="M121.9,13.9H123c0,.1,0,.3-.1.3l-1,.5a12.9,12.9,0,0,1-2.1.6.8.8,0,0,1,.2-.8A3.6,3.6,0,0,1,121.9,13.9Z" style="fill:#c0d3b4;fill-rule:evenodd"/><path d="M53.5,73.9a.4.4,0,0,0-.1-.3c-.1-.5,0-1-.1-1.5a1.2,1.2,0,0,1,.2-1.3,1.5,1.5,0,0,1,1.8-.4,3.1,3.1,0,0,0,2.5-.1L58,70c.2-.3.2-.8.4-1.1l.4-.2a.7.7,0,0,1,.7.4c.6,1.4,1.4,2.4,3.2,2s.9.8,1.1,1.4a2.1,2.1,0,0,1-.7,2.4,1.7,1.7,0,0,0-.7,1.3,1.3,1.3,0,0,1-.9.7c-1.5-.5-2.7.5-4,.7a1.4,1.4,0,0,1-1.1-1.9c.4-1.6-.2-1.6-1.4-1.2S53.7,74.8,53.5,73.9Z" style="fill:#2c262a;fill-rule:evenodd"/><path d="M53.5,73.9c.2.1.4.3.6.2l1.5-.5a2,2,0,0,1,1.1-.2c.7.1,1,.4.7,1.2a3.6,3.6,0,0,0-.4,1.1,1.4,1.4,0,0,0,.4,1.6.8.8,0,0,1-.1.4l-.3.2H55.9c-.4-.1-.5-.5-.8-.7a4.9,4.9,0,0,1-1.4-1.8A2.6,2.6,0,0,1,53.5,73.9Z" style="fill:#372d35;fill-rule:evenodd"/><path d="M54,72.3v.3l-.6,1a2,2,0,0,0-1.1-.1,13.2,13.2,0,0,1-2.8-.2c-.3-.1-.3-.3-.3-.5l.3-.2c.7,0,1.4-.6,2.2-.1h0C52.5,72.4,53.2,71.5,54,72.3Z" style="fill:#883a8a;fill-rule:evenodd"/><path d="M55.1,77.2l1.1.3c.2.3.3.6.1.8A6.1,6.1,0,0,1,53,80.9a.5.5,0,0,1-.7-.3l.3-.2c0-.2.3-.3.4-.6a6.1,6.1,0,0,0,1.6-1.6A1.1,1.1,0,0,0,55.1,77.2Z" style="fill:#8b3e8c;fill-rule:evenodd"/><path d="M47.3,76.6h.5a.6.6,0,0,1,.5.6c.1.2,0,.3-.1.4a.8.8,0,0,1-1,.1c-.1,0-.1-.1-.2-.2A1.6,1.6,0,0,1,47.3,76.6Z" style="fill:#a75b9f;fill-rule:evenodd"/><path d="M112.5,56.4l-.2-.2a3.6,3.6,0,0,1,2.3-5.4,3.7,3.7,0,0,0,2.2-1.4l.5-.2h.7l.5.2c.4.5,1.2.8.9,1.6l-.3.2a2.2,2.2,0,0,1-2.3,2c.5.1,1.1.2.9.6s-1.1,1.9-2.3,1.9-.3-.1-.3-.3a.5.5,0,0,0,.2.4c.2,1-.5,1.2-1.2,1.6a2.3,2.3,0,0,1-1.2-.8Z" style="fill:#8cb077;fill-rule:evenodd"/><path d="M114.9,55.5c.2-.1.5-.1.7-.3s1-1,1.6-1.5.1,0,0-.1-.5.1-.8.2a1,1,0,0,1-.9,0h-.1c-.1-.1,0-.2.1-.2a1.7,1.7,0,0,0,1.3-.5,1.7,1.7,0,0,1,1.2-.6q.4-.1,0-.6c-.1-.1-.1-.2-.2-.2a.3.3,0,0,1,.2-.4h1.1a2.8,2.8,0,0,1,.8,2.1c-.8,1.7-1.7,3.3-3.6,3.9h0c-.3.3-.1.7-.3,1s-.8-.3-1.3-.4l-.6-.4c0-.3-.1-.6.2-.7s.6-.6.6-1.1Z" style="fill:#93b47e;fill-rule:evenodd"/><path d="M116.3,57.2a1.3,1.3,0,0,1,.5-.6l.6-.4c.3-.2.3-.4.3-.7a.4.4,0,0,1,.2-.5c.4-.1.7-.2.7-.7a.3.3,0,0,1,.3-.3l1-.7a1.4,1.4,0,0,1,.1,1.1,4.9,4.9,0,0,0-.5,1.6,3,3,0,0,1-1,1.7.8.8,0,0,1-1.1,0l-.5-.4Z" style="fill:#99b884;fill-rule:evenodd"/><path d="M119.4,51l-.6-.6-.7-.8c.1-.1.1-.3.2-.3,1.6.1,1.8-1.2,2.4-2.2s1.5-.9,2.2,0,0,.3,0,.5a.8.8,0,0,0-.2.4,1.1,1.1,0,0,1-1.1,1.2.5.5,0,0,0-.3.5,3.1,3.1,0,0,1-.9,1.8Z" style="fill:#749c5b;fill-rule:evenodd"/><path d="M116.1,58.1c-.2-.3-.1-.6.2-.9s.4.8.6,1.2h-.7c-.1,0-.1-.1-.2-.2A.1.1,0,0,1,116.1,58.1Z" style="fill:#99b884;fill-rule:evenodd"/><path d="M77.6,25.3c0-.1.1-.2,0-.3A3.8,3.8,0,0,0,76,22.5l-1.2-.7a.7.7,0,0,1-.3-.6,4,4,0,0,1,1.3-1.6,6,6,0,0,1,2.9-.8h1.1l.6.4-.7.9a2.2,2.2,0,0,0-.5,1.6l.3,1.1s0,.2-.1.2,0,.1-.1.2a1.4,1.4,0,0,0-.8,1.8v.5l-.3.4a.8.8,0,0,1-.8.2h0a.6.6,0,0,1,.1-.4h0Z" style="fill:#d3b3d2;fill-rule:evenodd"/><path d="M86.1,22.7a1.9,1.9,0,0,0,.9.9,6,6,0,0,1,1,2.3,3.1,3.1,0,0,1-.4,2.3l-.3.4a2.5,2.5,0,0,1-.6-1.6,1.2,1.2,0,0,0-.5-1.1,2,2,0,0,1-.6-.7.6.6,0,0,1-.2-.7l.2-.5a1.1,1.1,0,0,0-.2-1.1.9.9,0,0,1-.2-1.1A2.6,2.6,0,0,0,86.1,22.7Z" style="fill:#e3cee3;fill-rule:evenodd"/><path d="M29.6,96.5A4.5,4.5,0,0,1,30.8,94c.9-.9,1.7-1.2,2.6,0s.2.5.4.4c2.2-.5,2.1,1.1,2.4,2.4s.1.6.1.9a13.4,13.4,0,0,1,0,2,.9.9,0,0,0-.5-.3H34.2c-.6-.6-1.3-.4-2.1-.2h-.2a4.2,4.2,0,0,1-.4-1c-.1-.3.3-.5.4-.7a.4.4,0,0,0-.1-.3h-.3l-.5.3a1,1,0,0,0-.4.5l-.4.5h-.3a.4.4,0,0,1-.1-.3c.1-.2.2-.5.4-.6a3.1,3.1,0,0,0,.6-1.3c.1,0,0-.1,0-.1h-.3Z" style="fill:#aac499;fill-rule:evenodd"/><path d="M28.2,99.2l.3-.2h.3c.2,0,.3.1.2.3s-.1.2-.1.3a.6.6,0,0,0-.2.7,3.2,3.2,0,0,1,.2,1.4c-.1.2-.3.2-.5.2a1.8,1.8,0,0,1-.9-.8c-.2,0-.2-.1-.2-.2h0l.3-.2v-.4l.3-.2c0-.1.1-.3.1-.4h0Z" style="fill:#b6caa6;fill-rule:evenodd"/><path d="M90.6,64.9a5.7,5.7,0,0,0-1.3.8c-1.4-1.3-1.2-3-.8-4.5a4.4,4.4,0,0,1,.6-1.6l.4-.6a.9.9,0,0,1,.1-.5h0a.7.7,0,0,1,.4.5,8.8,8.8,0,0,1,.2,1.7c0,.4.1.8-.4,1s-.1.1-.1.2a8.2,8.2,0,0,0,0,2.7c0,.1.2.2.3.2Z" style="fill:#822f85;fill-rule:evenodd"/><path d="M24.2,66.8a1,1,0,0,1,.4-.5,1.1,1.1,0,0,0,.8.1c.1,0,.3,0,.3.2s-.1.4-.2.5A1.1,1.1,0,0,1,24.2,66.8Z" style="fill:#acc59b;fill-rule:evenodd"/><path d="M67,75.9a3.6,3.6,0,0,1-.4-.9c-.5-.8.4-1.1.7-1.7s.3-.7.8-.6l.3.5a3.6,3.6,0,0,1,.4.9c.2.4-.1.8-.6.9h-.3a.9.9,0,0,0-.9.7Z" style="fill:#b885b5;fill-rule:evenodd"/><path d="M96.7,76v-.2c-.2-1.6-.9-3.3,1-4.4l2.2-1.5.8-.4h.8l.3.2c.3,0,.5-.2.8-.1h0a1.4,1.4,0,0,0,1.1.1,2.1,2.1,0,0,1,1.7.2l.8.6a1.3,1.3,0,0,1,.5.9.2.2,0,0,1-.2.2l-1.2.4a1,1,0,0,0-.5.4,9.3,9.3,0,0,0-.5,1,2.7,2.7,0,0,1-.7.8.8.8,0,0,1-.8.4h-.5a1,1,0,0,0-.5.6.8.8,0,0,0,.2.5l.3.2h0l-1,1.2a2,2,0,0,1-.7.6c-.2.1-.2.2.1.6h-.4a1.8,1.8,0,0,1-1.6-.5,11.4,11.4,0,0,0-1.1-1.1Z" style="fill:#c696c1;fill-rule:evenodd"/><path d="M102.3,75.9l.5-.6a.2.2,0,0,1,.4-.1.4.4,0,0,1,0,.5,1,1,0,0,1-.9.2Z" style="fill:#c696c1;fill-rule:evenodd"/><path d="M133,45.8a5.2,5.2,0,0,1,1.7-.2h.5l-.3.6a1.2,1.2,0,0,1-.8.6l-3.5.4a2,2,0,0,0-2,1.1h-.3a.3.3,0,0,1-.3-.3,1.3,1.3,0,0,1,1-1.4c.4-.2.9-.3,1.1-.8Z" style="fill:#acc399;fill-rule:evenodd"/><path d="M128.1,48.3l.2.2a1.1,1.1,0,0,0,.1.8,3.6,3.6,0,0,0,.7,1l1.3,1.8h-.3a12.4,12.4,0,0,1-1.8-2.2,3.6,3.6,0,0,0-1-1.1v-.2a.5.5,0,0,1,.5-.3Z" style="fill:#b6caa6;fill-rule:evenodd"/><path d="M36.2,96.8c-.3-.4-.7-.4-1.1-.6s-.2-.2,0-.4l.5-.3v-.3a.2.2,0,0,0-.2-.2H34.3a.6.6,0,0,0-.6.5l-.4.3h-.4c-.1,0-.2-.2-.2-.3a3.6,3.6,0,0,0,.2-1.1c.1-.3-.3-.7-.7-.6l-1.4.3c-.1-.5.3-.8.3-1.3s1-1.9,1.3-2.9h0c0-.2.1-.3.1-.5h0a2.3,2.3,0,0,0,.7-.7c.3-.4.6-.4,1,.1l.4.6a18,18,0,0,1,.8,2.1c.3,1.2.5,2.4.7,3.6A5.5,5.5,0,0,1,36.2,96.8Z" style="fill:#a6c092;fill-rule:evenodd"/><path d="M122.8,47.3c-.3-.3-.6-.4-.9-.2a.9.9,0,0,1-1,.1c-1.1.8-2.2,1.3-3.3.1s-.1-.4,0-.6a3.6,3.6,0,0,1,.7-1c0-.1.2-.2.4-.2l1.9-.2a1.1,1.1,0,0,1,1.3.6l.3.2c.1.1.2,0,.5-.2l.5.2a.3.3,0,0,0,.4,0c.2-.4.6-.3.9-.2v.4C124.4,47.5,123.5,47.4,122.8,47.3Z" style="fill:#87ad72;fill-rule:evenodd"/><path d="M122.8,47.3h.3a2.2,2.2,0,0,0,1.4-.9c.1.2.3.4.5.3a21.2,21.2,0,0,0,4.4-.6h.5c.1,0,.2,0,.2-.1a.6.6,0,0,1-.2.8l-.8.5a3.2,3.2,0,0,0-1,1h-.2a1,1,0,0,0-.8.2l-1.2.2h-.8c.1-.1.2-.2.2-.3s.1-.6-.2-.6a4.9,4.9,0,0,0-2.1-.4h-.1A.4.4,0,0,1,122.8,47.3Z" style="fill:#a2bb8c;fill-rule:evenodd"/><path d="M129.9,46.1h0Z" style="fill:#acc399;fill-rule:evenodd"/><path d="M108,50.6a1.4,1.4,0,0,1,.2-.6c.1-.1,0-.4-.1-.4h-.3l-1.2.7a1.4,1.4,0,0,1-.9.1l3.3-1.9a.8.8,0,0,1,.2-.4.5.5,0,0,1,.4-.2c1.1.1,2.1-.8,3.2-.5l.2.5c.1.2.3.2.3,0a1.3,1.3,0,0,1,1-.7l.6-.2c.1.6.1.7.6.7h.8c.8.6.8,1.2-.1,1.6s-1.1.8-1.7,1.1a14.3,14.3,0,0,1-3.6.6h-1.5C108.8,51.3,108.3,51.3,108,50.6Z" style="fill:#5e8d45;fill-rule:evenodd"/><path d="M115.1,46.9a5.6,5.6,0,0,1,1.6-2.4l2.9-2.7.7-.4,1.7-1.2.6-.2c0,.4-.1.9-.1,1.3a.6.6,0,0,1-.1.4,21.4,21.4,0,0,0-1,2.2c-.1.2-.3.3-.5.1l-.4-.3a.8.8,0,0,0-1.1.3l-.3.4-.7.4h-.3a2,2,0,0,0-1.9,1.1A3.5,3.5,0,0,1,115.1,46.9Z" style="fill:#7aa465;fill-rule:evenodd"/><path d="M114.3,49.9l.6-.4a1.4,1.4,0,0,1,1.2-.6.4.4,0,0,0,.3-.5c0-.2-.1-.5-.1-.7l1.3-.4a2.2,2.2,0,0,0,1.4,0,5.9,5.9,0,0,1,1.9-.1c.1.5.1.8-.3,1.1s-.3.3.2.5.2.1.1.3-.3.4-.6.4a4.1,4.1,0,0,1-2.2.1h0c-.2-.1-.4.1-.7,0h-.3C116.2,50,115.3,51.3,114.3,49.9Z" style="fill:#6a9551;fill-rule:evenodd"/><path d="M52.3,80.6a1.1,1.1,0,0,0,.8-.2L55,79a3,3,0,0,0,1.2-1.5h1c.7.3,1.4.6,1.2,1.6a2.2,2.2,0,0,1-1.4.3,1.2,1.2,0,0,0-1.1.4.3.3,0,0,0,0,.5h.3a.6.6,0,0,1,.1.4,1.3,1.3,0,0,1-.9.6h-.3a2,2,0,0,0-2.1.5.6.6,0,0,1-.6,0l-.6-.2C51.6,81.1,51.9,80.8,52.3,80.6Z" style="fill:#a65b9f;fill-rule:evenodd"/><path d="M53,79.8a.9.9,0,0,1-.4.6C52.6,80.2,52.8,80,53,79.8Z" style="fill:#a65b9f;fill-rule:evenodd"/><path d="M112.8,47.4a1.1,1.1,0,0,1-.8.7,6.9,6.9,0,0,1-2.5.1c-.1,0-.2-.2-.1-.2s.5-2.2-.9-3-.8-1.4-.3-2.2a8.3,8.3,0,0,0,2.4-2.9l.9-.7,1-.7a.9.9,0,0,1,1-.1.8.8,0,0,0,1-.1,2.1,2.1,0,0,1,2.5.1l.3.2v.3a4.6,4.6,0,0,1-.5,2.3v.3a3.2,3.2,0,0,1-1.1,1.7l-.7.8a10.6,10.6,0,0,0-1.5,1.5,2.8,2.8,0,0,0-.6,1.5c0,.1-.1.3-.1.4Z" style="fill:#7fa768;fill-rule:evenodd"/><path d="M115.4,43a3.4,3.4,0,0,1,1.4-1.5l.5-.3-.3,1a1.3,1.3,0,0,1-.7,1c-.1.1-.2.2-.2.3s-1.7,1.4-2.6,2a3,3,0,0,1,1.2-1.7A1.4,1.4,0,0,0,115.4,43Z" style="fill:#618f48;fill-rule:evenodd"/><path d="M112.8,47.4c0-.1.1-.3.1-.4S112.8,47.3,112.8,47.4Z" style="fill:#5e8d45;fill-rule:evenodd"/><path d="M127,42c0,.1-.1.1-.1.2s-.2.1-.1-.1.2-.1.2-.2Z" style="fill:#81a96b;fill-rule:evenodd"/><path d="M125.9,48.8l1.2-.4c.3,0,.3.1.2.3h0A1.7,1.7,0,0,1,125.9,48.8Z" style="fill:#b6caa6;fill-rule:evenodd"/><path d="M125.1,11.7a2.4,2.4,0,0,1-.6,1.1C124.4,12.3,124.7,12,125.1,11.7Z" style="fill:#abc49a;fill-rule:evenodd"/><path d="M97.4,78.4H98c.2,0,.4.2.3.3a.2.2,0,0,1-.2.2h-.8C97.3,78.7,97.4,78.6,97.4,78.4Z" style="fill:#cda4cb;fill-rule:evenodd"/><path d="M27.3,100.8l.2.3h-.3c-.3-.4-.5-.9-.8-1.4A1.8,1.8,0,0,1,27.3,100.8Z" style="fill:#b0c7a0;fill-rule:evenodd"/><path d="M108.2,42.8a4.2,4.2,0,0,0,.4,1.5,2,2,0,0,0,.8.8.6.6,0,0,0,.7.1l1.3-.5.3.2a.1.1,0,0,1-.1.1l-.3.3c-.1.2-.3.3-.5.5v.3h.9c.1.1,0,.2-.1.3l-1.4.9a2.3,2.3,0,0,0-.7.7H108l-2,.3h-1.3c-.3,0-.4-.3-.3-.6a.8.8,0,0,1,.2-.4l1.9-2.9,1-1.4c.1-.2,0-.4,0-.6Z" style="fill:#89ad72;fill-rule:evenodd"/><path d="M58.4,79a9.5,9.5,0,0,1-1.2-1.6h.2l1.7-1.1c.1-.2.4-.2.6-.2h.9a.4.4,0,0,1,.4.4v.2c.2.3.2.4-.1.5l-1.2,1-1,1Z" style="fill:#413640;fill-rule:evenodd"/><path d="M84.8,54.2a6.3,6.3,0,0,0,2-3.3,2.7,2.7,0,0,0-.2-2l-.5-1c-.1-.2,0-.5.2-.5l.8-.2a3.3,3.3,0,0,0,2.2-1.4,4.7,4.7,0,0,0,.5-1,1.1,1.1,0,0,1,1.1-.6c.4.2.7.7,1.2.8l.3.5c0,1,1.3,1.7.9,2.8s-.3,1.5-.3,2.3-.3.7-.4,1a2.9,2.9,0,0,0-.2.9c-.3.9-1.2,1.4-1.7,2.1h0c-.1.2-.2.3-.2.4h0l-.9.6a10.4,10.4,0,0,1-1.7,1.2,4.8,4.8,0,0,1-1.8.6,3.1,3.1,0,0,1-2.8-.5c-.3-.2-.5-.3-.5-.6s.2-.3.3-.5a.8.8,0,0,0,.2-.4C83.3,54.4,83.8,54.1,84.8,54.2Z" style="fill:#e4d1e4;fill-rule:evenodd"/><path d="M93.3,48.3a10.2,10.2,0,0,0-.9-2.2v-.6a7.6,7.6,0,0,0,1.7,2.3Z" style="fill:#ceaecf;fill-rule:evenodd"/><path d="M100.9,51.3a6.5,6.5,0,0,1-3.1.3,6.5,6.5,0,0,1,1.9-.9A1,1,0,0,1,100.9,51.3Z" style="fill:#467f35;fill-rule:evenodd"/><path d="M24.5,81.4h.9C25.1,81.8,24.8,81.7,24.5,81.4Z" style="fill:#aec79d;fill-rule:evenodd"/><path d="M84.4,66.2a2.6,2.6,0,0,0-.9-.9c-1.1-.5-2.3.3-3.5-.2l-.3-.6.3-.3a4.3,4.3,0,0,0,1.9-1.6L83.1,61c1-.5,2.1.5,2.8-.4a1.4,1.4,0,0,1-1.9-.7.7.7,0,0,1,.1-.5c.1-.1.2-.3.3-.3s.9,0,1.2-.4h1.1a2.9,2.9,0,0,0,1.8-.5h.1c.3,0,.4.1.4.3a7.2,7.2,0,0,1-1.1,1.9c.3,1.6-1.4,1.9-2,2.9s-.5,1.4-.3,2.1a1.4,1.4,0,0,1-.3.9l-.4.2Z" style="fill:#8b478e;fill-rule:evenodd"/><path d="M85.4,62.8a1.8,1.8,0,0,1,.5-.7,7.3,7.3,0,0,0,2-1.9c.6.2.6.2.8-.2l.4-.4a16.2,16.2,0,0,1-.1,2.2,8.6,8.6,0,0,0,.3,3.9c-.2.2-.4.2-.7,0l-.6-.4C87.8,63.7,86.6,63.2,85.4,62.8Z" style="fill:#9f4d98;fill-rule:evenodd"/><path d="M90.7,54.6a7.2,7.2,0,0,1,1.1-1.9l.4-.5a.9.9,0,0,1,.5.9c-.1.1-.1.3-.2.4Z" style="fill:#d1aece;fill-rule:evenodd"/><path d="M89.6,58.5a.9.9,0,0,0-.1.5A.9.9,0,0,1,89.6,58.5Z" style="fill:#9f4c97;fill-rule:evenodd"/><path d="M90.5,55l.2-.4Z" style="fill:#ceaecf;fill-rule:evenodd"/><path d="M24.3,51.7l-1.4-.6c.1-.3.3-.5.4-.8s.1-.4-.3-.8-.1-.2-.1-.3.1-.2.3-.1l1,.5a1.2,1.2,0,0,0,.4.9c.3.5.3.6-.1,1.1Z" style="fill:#96b380;fill-rule:evenodd"/><path d="M23.2,49.1h-.3l-.2-.3Z" style="fill:#a3bf95;fill-rule:evenodd"/><path d="M22.2,69.1a.6.6,0,0,0,.1-.4A.6.6,0,0,1,22.2,69.1Z" style="fill:#9cb785;fill-rule:evenodd"/><path d="M116.1,58.1c0,.1.1.2.1.3a2.8,2.8,0,0,1-.3,2H115l-.6-.4a1.3,1.3,0,0,0,.5-1.3,1.9,1.9,0,0,0-.2-.7h.6Z" style="fill:#779e5e;fill-rule:evenodd"/><path d="M111.3,58.3h0Z" style="fill:#74a05d;fill-rule:evenodd"/><path d="M92.7,53.1l-.5-.9.4-.6a2.8,2.8,0,0,1,.1.9Z" style="fill:#a85c9f;fill-rule:evenodd"/><path d="M115.5,60.3h0Z" style="fill:#86a871;fill-rule:evenodd"/><path d="M102.6,69.5a1.6,1.6,0,0,1-1,.2c.1-.2.1-.2.3-.2Z" style="fill:#c291bf;fill-rule:evenodd"/><path d="M101.9,69.5l-.3.2c0-.1-.1-.2-.1-.3Z" style="fill:#ae6aa7;fill-rule:evenodd"/><path d="M135.2,45.7h0Z" style="fill:#b6caa6;fill-rule:evenodd"/><path d="M95.4,47.8h0c-.1,0-.1.1-.2,0s0-.1.1-.2Z" style="fill:#904d92;fill-rule:evenodd"/><path d="M39.4,75.1l.2-.5Z" style="fill:#6e9c59;fill-rule:evenodd"/><path d="M61.4,56.6a3.4,3.4,0,0,1,.9-1.5l.9-1q.1-.3.3-.3a2.2,2.2,0,0,1,1.6.1,3.9,3.9,0,0,0,3.8-.2c1.1-.7,1.8,0,2.5.7s4.1.3,6-.9.9-.9,1.6-.9,1.9.9,2.7-.3a.8.8,0,0,1,1.2-.2h.3l.3.2a4.5,4.5,0,0,1-.5,3.2l-.6.4c-.2.2-.5.4-.6.7h-.3c-.3,0-.6.4-1,.3l-.5.3c-1,.4-1.9-.3-2.8-.1s-.7,1.5-1.7,1.8-.7.4-1.1.4l-4.6-1c-1.5-.4-1.5-.7-.7-2.1a5.5,5.5,0,0,1-3.7,2l-.8-.7c-.8-.3-1.2-1.4-2.2-1.3h0C62,56.3,61.8,56.8,61.4,56.6Z" style="fill:#b06da9;fill-rule:evenodd"/><path d="M74.3,59.2l.3-.2a2.6,2.6,0,0,0,1.7-2.4,1.5,1.5,0,0,1,.1-.7l.2-.2h.1a.2.2,0,0,1,.2.2,3.6,3.6,0,0,0,2.3,1.3H80c-.1.2-.2.4-.4.4H78.5c-.4,0-.6.1-.7.6v.3c-.1.1-.1.3-.2.4h0a.6.6,0,0,1-.1.4h0c-1.2.6-3.4.6-4,0A.7.7,0,0,1,74.3,59.2Z" style="fill:#c295c1;fill-rule:evenodd"/><path d="M73.5,59.6c.2,0,.3.1.5,0s1-.4,1.5,0h2a1.1,1.1,0,0,1-1.2,1.1c-.2-.1-.4-.3-.6-.3a12.4,12.4,0,0,0-2.7.3c-.5.2-.6.1-.8-.6A.8.8,0,0,1,73.5,59.6Z" style="fill:#caa3c9;fill-rule:evenodd"/><path d="M80.5,57.1a1.9,1.9,0,0,1,1-.3A.9.9,0,0,1,80.5,57.1Z" style="fill:#c295c1;fill-rule:evenodd"/><path d="M77.5,59.5a.6.6,0,0,0,.1-.4A.6.6,0,0,1,77.5,59.5Z" style="fill:#caa3c9;fill-rule:evenodd"/><path d="M77.6,59.1c.1-.1.1-.3.2-.4S77.7,59,77.6,59.1Z" style="fill:#caa3c9;fill-rule:evenodd"/><path d="M84,59.9a5.3,5.3,0,0,1,1.2.3.9.9,0,0,0,1.1-.4l.3-.2h.2a2.2,2.2,0,0,1,0,.8.8.8,0,0,1-.2.4,2.3,2.3,0,0,0-1.2,1l-.2.2c-.2.1-.6.1-.7-.1a1.7,1.7,0,0,0-1.4-1l.3-.4Z" style="fill:#853e89;fill-rule:evenodd"/><path d="M83,55.6c.1-.1,0-.2.1-.3a1.6,1.6,0,0,0-.4-1.3c-.3-.3-.2-.6.1-1s.5-.2.7-.6a1.5,1.5,0,0,1,1.2,1.1c0,.2.1.5.1.7l-.7.6a2.7,2.7,0,0,0-.8.7Z" style="fill:#b475ad;fill-rule:evenodd"/><path d="M66.7,66.5a.9.9,0,0,0,.7.3H68l.2.5a.6.6,0,0,0,1,.2c.2-.1.3-.3.4-.4h.7c.1.1.1.4,0,.4s-1.3,1.3-2.1,1.7a2.2,2.2,0,0,1-.9,1c-.4.4-.7,0-1.1-.1l-.4-.2-.4-.3a.8.8,0,0,1-.2-.4,3,3,0,0,1-.7-1.5c0-.2.1-.3.2-.5a2.8,2.8,0,0,1,1.5-.8Z" style="fill:#c89bc4;fill-rule:evenodd"/><path d="M66.3,69.6l.6.2c.1.1.3.2.4.4a2.2,2.2,0,0,1,.5.8c.6.2.5.5.3.9v.8l-.3.8a1.4,1.4,0,0,1-1.7-.7C65.9,71.7,65.2,70.6,66.3,69.6Z" style="fill:#826f80;fill-rule:evenodd"/><path d="M68.1,71.9l-.3-.9a2,2,0,0,1,1.1.2c.1.1.2.5,0,.6Z" style="fill:#be95be;fill-rule:evenodd"/><path d="M68.3,66.7l1.5-.5h.5a6,6,0,0,1-1.1.6A.8.8,0,0,1,68.3,66.7Z" style="fill:#c89bc4;fill-rule:evenodd"/><path d="M73.5,59.6l-1.3.4h0c-.2-.1-.4.1-.7.1h-.3a3.5,3.5,0,0,1-3.3.2c-.1-.1-.2-.3-.1-.4a2.4,2.4,0,0,0-.9-.6,3.1,3.1,0,0,1-1.5-1,.5.5,0,0,1,.4-.2,1.3,1.3,0,0,0,.6-1.1c-.1,0,.1-.2.1-.2h1.3c.3,0,.5-.1.5-.4a1.1,1.1,0,0,1,.4-.5,2.2,2.2,0,0,1,1.1-.2h0a1.1,1.1,0,0,1-.3.8l-.5.6c-.1.1,0,.4.1.4a8.5,8.5,0,0,1,2.2.4.6.6,0,0,0,.6.1,2,2,0,0,1,1.3.4l1.1.6Z" style="fill:#b678af;fill-rule:evenodd"/><path d="M66.7,66.5h-.3c-.8-.1-1.2.5-1.6,1h0c-.3.5.3,1.2-.3,1.8H64a1.8,1.8,0,0,1-1-1.5c-.1-.8.5-1.3.9-1.9s.8-.6,1-1.1l.2-.3a1.1,1.1,0,0,1,.2-.8,10.4,10.4,0,0,0,3.2-2.3c.8.2.4,1.2,1,1.5l.8.7c0,.5,0,.6-.4.7l-1.6.5-1.1.2C66.6,65.4,66.3,65.8,66.7,66.5Z" style="fill:#ab76ab;fill-rule:evenodd"/><path d="M69.5,63a1.3,1.3,0,0,1-.7-.6l-.5-.9c-.7-.3-.8-.7-.4-1.3l.9-.2,2.4.2-.5.6a1,1,0,0,1-.6.5,1.3,1.3,0,0,0-.7,1.3C69.4,62.7,69.5,62.9,69.5,63Z" style="fill:#cba5cb;fill-rule:evenodd"/><path d="M71.5,60.1a.6.6,0,0,1,.7-.1Z" style="fill:#caa3c9;fill-rule:evenodd"/><path d="M84.4,66.2h.3c1.5-.3,1.8-.1,1.3,1.3s.5,1,.4,1.6-.9,1.2-1.6.4l-.9-.6A3.4,3.4,0,0,1,84.4,66.2Z" style="fill:#594956;fill-rule:evenodd"/><path d="M80,65.1a10.4,10.4,0,0,1,1.6-.6c.8-.3,1.3-.3,1.8.7h.1a4.4,4.4,0,0,1-1.6.6A1.6,1.6,0,0,1,80,65.1Z" style="fill:#a75ea0;fill-rule:evenodd"/><path d="M84.8,69.4h.3c.3.2.5.1.8-.1s.3-.3.4-.4a2.8,2.8,0,0,1,2.1,2.9c-.2.7-.2,1.6-1.2,1.7a.9.9,0,0,1,0-1.1c.3-.5.3-.6-.2-1L85.8,71a1.5,1.5,0,0,1-1-1.3Z" style="fill:#7a6b78;fill-rule:evenodd"/><path d="M62.2,76a1.3,1.3,0,0,1,.1-.6l.6-.9a1.8,1.8,0,0,0,.3-2c.3-.7.3-1.2-.6-1.4a.9.9,0,0,1-.8-.4v-.5c1.4-1.1,1.8-1.1,2.6.5l.5.6a.8.8,0,0,0,.2.4,2.8,2.8,0,0,0,.9,1.9c.7.7.7,1.4-.5,1.7a3.7,3.7,0,0,1-1.8,0c-.5-.2-.7.1-.9.4A.4.4,0,0,1,62.2,76Z" style="fill:#483f46;fill-rule:evenodd"/><path d="M65.5,75.3l.5-.5a.3.3,0,0,0-.1-.5,2.7,2.7,0,0,0-.8-.7L64,72.9c-.1,0-.1-.3,0-.4l.5-.3a.7.7,0,0,0,.1-.5c1-.8,1.3.4,1.9.8a1.6,1.6,0,0,0,.8.6l.5.4a4.7,4.7,0,0,1-.6.9l-.6.6A2.3,2.3,0,0,1,65.5,75.3Z" style="fill:#564854;fill-rule:evenodd"/><path d="M62.2,76l.6-.3c.1.2.1.5.2.8a1.9,1.9,0,0,1-.5,1.4.8.8,0,0,1-.9.3L61,77.1v-.5Z" style="fill:#534850;fill-rule:evenodd"/><path d="M26,63.6a1.4,1.4,0,0,0,.9.3.3.3,0,0,1,0,.4c-.1.2-.2.3-.4.3a2.7,2.7,0,0,1-.9,0A1.8,1.8,0,0,1,26,63.6Z" style="fill:#a7c194;fill-rule:evenodd"/><path d="M30.1,66.8a1.6,1.6,0,0,1-.2-1C30.1,66.1,30.3,66.4,30.1,66.8Z" style="fill:#b6caa5;fill-rule:evenodd"/><path d="M24.9,56.5c-.5-.2-.5-.2-.5-.8Z" style="fill:#b6caa5;fill-rule:evenodd"/><path d="M51.7,52.2H52a4.6,4.6,0,0,0,2.6-.1l.2.2c.1.1.3.3.2.4-.6,1.7-.1,3.3.1,5l-.3.4c-.6.4-1.1.1-1.7-.2a4.5,4.5,0,0,0-1.6-.3h0l-.4-.2a8.6,8.6,0,0,1-1.4-1.3,4.7,4.7,0,0,1-.6-.9l.8-.6,1.4-1.5A3.6,3.6,0,0,0,51.7,52.2Z" style="fill:#bd91bd;fill-rule:evenodd"/><path d="M104.6,26.4c0,.1-.1.3-.1.4S104.6,26.5,104.6,26.4Z" style="fill:#a2be8e;fill-rule:evenodd"/><path d="M32.4,89.8a2.9,2.9,0,0,1-.2.9c-.4.6-.7,1.3-1.1,2l-1.3.8a1.3,1.3,0,0,1-1.2-.1l.3-.7a.3.3,0,0,0-.3-.3H28c-.3.1-.4,0-.4-.3a1.6,1.6,0,0,0-.3-.9l.9-.7a1.5,1.5,0,0,1,1-.6,2.7,2.7,0,0,0,1.5-1,.4.4,0,0,1,.1.3c.3.3,0,.9.5,1.2S32,89.9,32.4,89.8Z" style="fill:#8dad75;fill-rule:evenodd"/><path d="M30.9,88.4l-.2.5Z" style="fill:#8dad75;fill-rule:evenodd"/><path d="M32.5,89.3c0,.2-.1.3-.1.5A.9.9,0,0,0,32.5,89.3Z" style="fill:#8dad75;fill-rule:evenodd"/><path d="M99.9,69.9a1.3,1.3,0,0,1-.6,1.1l-1.3.7-.2-.2h-.1c.1-.4.5-.6.6-1s.1-.3.2-.4A1.7,1.7,0,0,1,99.9,69.9Z" style="fill:#ad6da8;fill-rule:evenodd"/><path d="M97.7,66l.3-.3c0-.1.2-.1.3-.1s.2.3.1.4-.2.3-.3.3l-.4-.3Z" style="fill:#a4559b;fill-rule:evenodd"/><path d="M95.5,66.8h0Z" style="fill:#a4559b;fill-rule:evenodd"/><path d="M88,71.9l-.3-.6-.2-.2c-.1-.5,0-.9-.4-1.3l-.8-.9-.6-.5-.9-.4-.2-.2h.1l.6-.3a.8.8,0,0,0,.5-.5.5.5,0,0,0-.2-.6l-.9-.2h.2c.1-.3.4-.4.7-.6H86a1.3,1.3,0,0,1,.9.7c-.3.6-.5,1.2-.8,1.9h0l.3.4c.1.3.4.4.8.4h.4c.6-.1,1.2.3,1.6-.1s.4-.8.7-1.2,2.1.1,3.1.7-.4,1.8-.2,2.8-1.5.2-2.1.5.7.9.3,1.4a2.3,2.3,0,0,1-2,.8C88,73.4,88.1,72.6,88,71.9Z" style="fill:#534951;fill-rule:evenodd"/><path d="M85.4,62.8c1.3-.8,1.3-.6,2.2.3a6.1,6.1,0,0,1,.7,1c.3.5.3.7-.3,1.2h-.5c-.6-.1-1.1.5-1.7.1h-.4l-1.2-1.1a.6.6,0,0,1,.1-.9Z" style="fill:#aa60a1;fill-rule:evenodd"/><path d="M92.9,68.1h-.3l-.8-.4H90.2l-.3-.2a3.1,3.1,0,0,1,.5-1,.6.6,0,0,1,.9-.2l.3.3a5,5,0,0,0,.7.8c.2.3.6.3.8.7S93.1,68.2,92.9,68.1Z" style="fill:#655265;fill-rule:evenodd"/><path d="M92.9,68.1l.2-.2a3.2,3.2,0,0,0,1.1,1.2.5.5,0,0,1,.2.4c-.1.4-.1,1-.6,1.3a.9.9,0,0,1-1,.1h-.2l-.3-.7a1.2,1.2,0,0,1,0-1,.8.8,0,0,1,.4-.4C93.1,68.6,93.1,68.6,92.9,68.1Z" style="fill:#4c4449;fill-rule:evenodd"/><path d="M85.8,65.4a1.7,1.7,0,0,1,1.7-.1l-.6.7A1.3,1.3,0,0,1,85.8,65.4Z" style="fill:#594956;fill-rule:evenodd"/><path d="M93.6,70.6a1.5,1.5,0,0,1,.8-1.1,6.2,6.2,0,0,0,1.8,1.4h.6c.4.1.9.1,1.1.5s.1.1.1.2l-.7.6a.9.9,0,0,0-.3.9,2.8,2.8,0,0,1,.1,2,.7.7,0,0,1-.4.6c-.3,0-.7,0-.8-.4s-.4-.6-.8-.4a3.6,3.6,0,0,1-1.4.2H93c-.9-.8-.3-1.7-.1-2.6s1.3-.5,2-.7S93.4,71.5,93.6,70.6Z" style="fill:#715c70;fill-rule:evenodd"/><path d="M97.9,71.5a1,1,0,0,1-1.1-.5l1.5-.6A1.1,1.1,0,0,1,97.9,71.5Z" style="fill:#5f4e5f;fill-rule:evenodd"/><path d="M54.1,68.4l1-.8h.6a3.4,3.4,0,0,1,2.6.5h.4c0,.1.1.3.1.4s-.2.3-.3.4h0a.5.5,0,0,1-.2.4c-1.5.9-3.1.7-4.7.9a1.8,1.8,0,0,1,.1-1Z" style="fill:#433740;fill-rule:evenodd"/><path d="M53.6,70.2a3.4,3.4,0,0,1,2.7-.9,1.3,1.3,0,0,0,1.2-.3.9.9,0,0,1,.7.1h.3v.2c-.1.4-.4.7-.2,1.1a2.5,2.5,0,0,1-.4.7c-.1.1-.3.2-.4.1a2,2,0,0,0-1.5.1c-.4,0-.7,0-.9-.3s-.9-.4-1.4-.1-.3-.3-.3-.6Z" style="fill:#362d35;fill-rule:evenodd"/><path d="M53.4,70.4l.3.6a.9.9,0,0,0,.1.7,1.4,1.4,0,0,1,.2.6l-1.1.2H51.8Z" style="fill:#a4569c;fill-rule:evenodd"/><path d="M48.3,69.3h1.6c.2,0,.3.2.4.4s0,.4-.1.4H48.9a.5.5,0,0,1-.3-.3c-.2-.2-.2-.5-.3-.7Z" style="fill:#a95fa1;fill-rule:evenodd"/><path d="M51.7,72.5a8.1,8.1,0,0,1-2.2.1l1.4-.7c.4-.2.6-.1.7.4Z" style="fill:#a4569c;fill-rule:evenodd"/><path d="M58.5,68.2l-.2-.2a1.4,1.4,0,0,0,.5-1,12.9,12.9,0,0,1-.1-3.4,1.2,1.2,0,0,0-.5-1.1l-.4-.5c0-.1-.1-.1-.1-.2a.8.8,0,0,1-.2-.6.4.4,0,0,1,.4-.4.1.1,0,0,1,.1.1,23,23,0,0,0,3.9,1.7c.3.1.4.4.7.6s1.2,1.4,0,2.6a3.6,3.6,0,0,1-2.4-.7c-1.3.8.2,1.5.1,2.3l-.4.6c-.2.2-.5.2-.7.3Z" style="fill:#9c5b9b;fill-rule:evenodd"/><path d="M57.9,60.8l-.2.5c0,.2.2.5.1.7h0a5.8,5.8,0,0,1-1.8-.4.5.5,0,0,1-.2-.6c.1-.1.2-.1.2-.2a.5.5,0,0,0-.2-.8h-.3a2.8,2.8,0,0,1-1.2-.4.9.9,0,0,0-1-.1.9.9,0,0,1-.1-.7c.2-.7,1.2-.1,1.5-.8h.2c.1,0,.2,0,.2.1s.1.1,0,.1A7.7,7.7,0,0,0,57,60.1Z" style="fill:#b374ac;fill-rule:evenodd"/><path d="M55.7,67.5a.7.7,0,0,1-.6.1A.7.7,0,0,1,55.7,67.5Z" style="fill:#934b92;fill-rule:evenodd"/><path d="M54.7,57.9c0,.2.1.3.2.5a.3.3,0,0,1-.3.3H53.2a7.1,7.1,0,0,1-1.7-1.1l.5-.3a.8.8,0,0,1,.8-.1l1,.4A1.2,1.2,0,0,0,54.7,57.9Z" style="fill:#9c5f9f;fill-rule:evenodd"/><path d="M51.1,57.4l.4.2Z" style="fill:#9c5f9f;fill-rule:evenodd"/><path d="M84,34.9a1.2,1.2,0,0,0,1-.2,9.7,9.7,0,0,1,.8,2.4,6.3,6.3,0,0,1-.4,3.3l-.5.6-.9.6c-.1.1-.1.3,0,.3l.5.6a3.1,3.1,0,0,1,.9,1.8,4,4,0,0,1-.5,2.6,10.9,10.9,0,0,0-.8,1.5,4.6,4.6,0,0,1-2.7,2.2l-.7.4c-.3.7-.9.2-1.3.2a5.7,5.7,0,0,1-2.6,0c-.9-.1-1.8-.7-2.8-.1h-.4l-.5-.2a1.2,1.2,0,0,1,.4-1.6c1.3-.4,2.8-.3,3.9-1.4a3.2,3.2,0,0,0,2.2-3.4,28.3,28.3,0,0,1,1.1-3.1c.8-1.5.4-2.6-1.1-3.8a1.1,1.1,0,0,1-.3-.7c0-.4-.1-.7.1-1A5.1,5.1,0,0,1,84,34.9Z" style="fill:#ceaece;fill-rule:evenodd"/><path d="M79.4,50.7l.8.2h.5l1.4.5.8.6a.5.5,0,0,0-.6.4c-.1.4-.2.7-.5.8a1.6,1.6,0,0,0-.9.7l-.7.9H80l-.2-.2a2.9,2.9,0,0,0-.6-1.7h0c0-.1-.1-.1-.1-.2S78.8,51.3,79.4,50.7Z" style="fill:#b475ad;fill-rule:evenodd"/><path d="M83.2,52.2h0Z" style="fill:#b475ad;fill-rule:evenodd"/><path d="M84,34.9a9,9,0,0,1-2.1.8h-.6c-.6-.2-1.1.2-1.6.5a.7.7,0,0,1-.6-.4,4.2,4.2,0,0,0-3.5-3.7,1.4,1.4,0,0,1-1-1c-1.1-1.9.2-3.3,1.1-4.8l.7.2,1,.3,1.9,1.2a4.2,4.2,0,0,1,1.6,2.5,1.7,1.7,0,0,1-.1,1.4c-.2.4-.1.6.3.4a2.7,2.7,0,0,1,2.3.5l.9.8a.7.7,0,0,1-.1,1C84.1,34.8,84,34.8,84,34.9Z" style="fill:#b685b5;fill-rule:evenodd"/><path d="M58.7,48.2a1.5,1.5,0,0,1-1.3-.9,2.1,2.1,0,0,0-.4-.6,6.3,6.3,0,0,1-1-3.2,12,12,0,0,1,.3-2,.5.5,0,0,1,.2-.4A3.2,3.2,0,0,1,57.7,40a.4.4,0,0,0,0-.5c-.6-.4-.8-1.2-1.1-1.8V37a6.6,6.6,0,0,1,2.3-5.2,4,4,0,0,1,2.6-1l.8.2c.1.1.3-.1.3-.2s.2-1.5.2-2.2a2.6,2.6,0,0,1,1.4-1.5l.3-.2h.4a1.2,1.2,0,0,0,1.6-.2.8.8,0,0,1,1.2-.2,1.2,1.2,0,0,1,.5,1.4c-.4,1-.9,1.8-2.2,1.6h0c.4.3,1.3.1,1.2.8s-.6.8-1.2.8-1.2,1-1.5,1.7a10.8,10.8,0,0,0-1.8,2.9c-.6.5-.2,1.3-.4,1.9s-1.5,3.3-.8,5.2.6.7,1.1.8h.5l.3.3a2.5,2.5,0,0,1,.2.7C62.4,46.6,60.6,47.4,58.7,48.2Z" style="fill:#af78ad;fill-rule:evenodd"/><path d="M64.2,27.1a4,4,0,0,1-1.4,1.5,1.3,1.3,0,0,0-.1-.6c-.1-.5-.3-.6-.9-.7h-.5a1.7,1.7,0,0,1,1.7-.1A2.5,2.5,0,0,0,64.2,27.1Z" style="fill:#c18cbb;fill-rule:evenodd"/><path d="M53.9,43.7l-.8.3c-.1.1-.2,0-.2-.1s0-.2,0-.3h.3Z" style="fill:#c18dbd;fill-rule:evenodd"/><path d="M54.3,42.6v.2a.1.1,0,0,0-.1.1h-.4a.3.3,0,0,1-.1-.2h.5Z" style="fill:#c18dbd;fill-rule:evenodd"/><path d="M64.1,32.6a.6.6,0,0,1,.1-.4c.2-.5.1-1.1.5-1.5h1.5c.2,0,.4.1.6-.1h.1a.1.1,0,0,0-.1-.1h-.1a1.1,1.1,0,0,1-1.2-1h.3a1.1,1.1,0,0,0,.9-.3c.3-.3.7-.5.9-1a.8.8,0,0,0-.1-1.1h-.3c-.1,0-.2.2-.2.2s.1.5-.3.6l-.5.3a.9.9,0,0,1-1.3-.6V27h.3c1.3-1,2.8-1,4.4-.9a1.8,1.8,0,0,1,1,.4c.5.4.7.9,1.2,1.3s.3.1.4,0l.2-.2a1.9,1.9,0,0,1,1.8-1h1.5a1.1,1.1,0,0,1,0,1.2l-.5.9a2.3,2.3,0,0,0-.3,2.4q0,.2-.3.3a4,4,0,0,1-2.4-.3,3.8,3.8,0,0,0-3.7.4,6,6,0,0,0-2.8,1.3A1.1,1.1,0,0,1,64.1,32.6Z" style="fill:#ac75ab;fill-rule:evenodd"/><path d="M77.5,25.7c0,.2-.1.3-.1.4S77.5,25.9,77.5,25.7Z" style="fill:#c799c3;fill-rule:evenodd"/><path d="M77.6,25.3v0Z" style="fill:#c799c3;fill-rule:evenodd"/><path d="M93,72.8a2.7,2.7,0,0,1,.1,1.8,1.7,1.7,0,0,1-.1.7l-.3.4a.7.7,0,0,1-.8.3c-1.3-.1-.7-1.6-1.5-2.1s-.7-.3-1,0a12.1,12.1,0,0,1-1.4,1,1,1,0,0,1-.8-.9v-.5l.8-1.6.8,1a.5.5,0,0,0,.8.1l1-.6c.2,0,.3-.2.2-.3h-.3c-.4,0-.5-.3-.6-.6v-.2c.8-.8,1.5-.1,2.3.2l.2.4c0,.4,0,.7.5.8S93,72.7,93,72.8Z" style="fill:#5b5058;fill-rule:evenodd"/><path d="M90.4,73.9a.8.8,0,0,1,.7.4,13,13,0,0,0,.8,1.7l-.9.8-.3-.5a1.4,1.4,0,0,1-.3-1.2A2.4,2.4,0,0,0,90.4,73.9Z" style="fill:#79667a;fill-rule:evenodd"/><path d="M63.5,53.9l-.3.2c-.2-.5-.7-.8-1.1-1.2A2.5,2.5,0,0,1,61,51.1l-.3-.7c0-.1,0-.1-.1-.2a1.5,1.5,0,0,1,.1-.7l.6-.7c.8-.8,1.7-.5,2.5-.3a9,9,0,0,1,2.2.6,1.3,1.3,0,0,0,1.2-.1.6.6,0,0,1,.6,0c.3,0,.7.1.8.4a2.8,2.8,0,0,0,3.1,1.4c.4.1.8.2.8.8s-.9.9-1.7,1C68.1,51.8,65.8,52.6,63.5,53.9Z" style="fill:#bb8ebb;fill-rule:evenodd"/><path d="M55.1,58a.2.2,0,0,0-.2-.2c-.2-.3-.3-.7-.5-1a4.8,4.8,0,0,1-.5-1.7,3.2,3.2,0,0,1,.5-1.9,3.6,3.6,0,0,1,.4-.9.8.8,0,0,1,.8.3c.1.1.2.2.2.3a9.1,9.1,0,0,0,2.4,2.4l.9.6a.5.5,0,0,1-.1.9h-.3l-.9.4a1.6,1.6,0,0,1-.9.5A2.8,2.8,0,0,1,55.1,58Z" style="fill:#dac0db;fill-rule:evenodd"/><path d="M62.5,65.6l.5-1.4s0-.2-.1-.2h-.3l-.5.3h-.3c-.1-.1-.2-.2-.2-.3s.1-.5.2-.8.1-.5.1-.7a2.7,2.7,0,0,1,.9,0,6.3,6.3,0,0,0,2.7-.4,2.1,2.1,0,0,0,1-.6,3.9,3.9,0,0,0,.8-1l.5-.6a.3.3,0,0,0,.1.2,5,5,0,0,0,.4,1.3v.8a1.2,1.2,0,0,1-1.2,1.5h-.9a.7.7,0,0,0-.7.6V65h0a.9.9,0,0,0-.3.5c-.2.5-.2.5-.7.5h-.3C63.5,66.4,62.8,66.6,62.5,65.6Z" style="fill:#a46aa3;fill-rule:evenodd"/><path d="M61.5,49.2l-.4.6c0,.3-.4.3-.4.6h0l-1.1.2a2.5,2.5,0,0,1-1.9-.2,1.4,1.4,0,0,0-1.4,0l-.7.3c-.2.1-.3,0-.3-.2s.1-.2.1-.3l3-1.8a19.3,19.3,0,0,1,2.4-.1C61.3,48.3,61.9,48.4,61.5,49.2Z" style="fill:#d8bad7;fill-rule:evenodd"/><path d="M62.4,56.4a4.7,4.7,0,0,0,.9-.6c.8-.5.8-.5,1,.4a8,8,0,0,0,.3,1.5,3.8,3.8,0,0,1-1.3.9c-.4.1-.7.5-1,.8s-.5.1-.5-.1-.1-.4-.2-.6a.8.8,0,0,1,.2-.8l.4-.3A1.2,1.2,0,0,0,62.4,56.4Z" style="fill:#c59ac3;fill-rule:evenodd"/><path d="M61.4,56.6a1.6,1.6,0,0,1,1-.2l-.6.6c-.2.1-.3.1-.4-.3Z" style="fill:#c59ac3;fill-rule:evenodd"/><path d="M61.5,49.2c-.2-.4-.3-.5-.6-.4h-.4a2,2,0,0,1-1.7-.2l-.4-.3.3-.2c.2-.6.9-.8,1.2-1.4l.4-.2c.8,0,1.3-.7,1.9-.9s.3-.4.5-.6l.6-.3h.4c.1.2.2.3.2.5s.1,2.3,0,3.5-.4.1-.6,0A1.9,1.9,0,0,0,61.5,49.2Z" style="fill:#ccabcc;fill-rule:evenodd"/><path d="M28.1,99.6c0,.1-.1.3-.1.4S28.1,99.7,28.1,99.6Z" style="fill:#b0c7a0;fill-rule:evenodd"/><path d="M27.7,100.2v0Z" style="fill:#b0c7a0;fill-rule:evenodd"/><path d="M28.2,99.2v0Z" style="fill:#b0c7a0;fill-rule:evenodd"/><path d="M108.8,48.3h.5l-.3.2Z" style="fill:#7fa768;fill-rule:evenodd"/><path d="M105.4,50.6a.6.6,0,0,0-.1.4A.6.6,0,0,1,105.4,50.6Z" style="fill:#5e8d45;fill-rule:evenodd"/><path d="M108,50.6a7.5,7.5,0,0,0,2.1-.2h.7c0,1.3.4,2.6-.9,3.5l-.6-.4-1.2-2A1.4,1.4,0,0,1,108,50.6Z" style="fill:#77a160;fill-rule:evenodd"/><path d="M109.9,53.9a9,9,0,0,0,.2-2.3.9.9,0,0,1,.3-.7l.4-.5.8-.2,2.7-.3a12.1,12.1,0,0,0,1.9-.1h.9c-.1.2-.2.3-.2.4a1,1,0,0,1-.6.9l-1.9.5-.7.3c-.4.2-.7.4-.6.8a1.3,1.3,0,0,1-.3.8l-.6.7a.8.8,0,0,0-.1.9,1.1,1.1,0,0,1,.2,1.2c-.4-.2-.7-.7-1.2-.8A8.8,8.8,0,0,1,109.9,53.9Z" style="fill:#81a96c;fill-rule:evenodd"/><path d="M112.5,56.4l.4.2Z" style="fill:#81a96c;fill-rule:evenodd"/><path d="M58.5,68.9c0-.1.1-.2.1-.4s.4-.2.6-.2a12.8,12.8,0,0,1,2.9,2.3l1,.4a.8.8,0,0,1,.3,1.3.2.2,0,0,1-.2.2v-.3c-.2-.6-.4-.7-.9-.7l-2.2.4c-.2.1-.5-.1-.5-.4a.9.9,0,0,0,.1-.5A2.4,2.4,0,0,0,58.5,68.9Z" style="fill:#352e33;fill-rule:evenodd"/><path d="M58.3,70.5c-.1.1-.2.1-.2.2s-.4.1-.4-.1-.4-1.1.7-1.2.2.6.2,1Z" style="fill:#433740;fill-rule:evenodd"/><path d="M58.6,70.4c-.1-.4-.1-.7-.2-1l-.2-.3.3-.2A1.4,1.4,0,0,1,58.6,70.4Z" style="fill:#352e33;fill-rule:evenodd"/><path d="M56.9,77.5h0Z" style="fill:#8b3e8c;fill-rule:evenodd"/><path d="M113.5,56h-.2a.1.1,0,0,1-.1-.1c0-.1.1-.2.2-.1Z" style="fill:#81a96c;fill-rule:evenodd"/><path d="M117.4,49.6a.9.9,0,0,1,.7,0A.8.8,0,0,1,117.4,49.6Z" style="fill:#749c5b;fill-rule:evenodd"/><path d="M103.8,72.2h0a.8.8,0,0,1-.9.3h-.1v-.3h1Z" style="fill:#c291bf;fill-rule:evenodd"/><path d="M127.3,48.7l-.2-.3a1.1,1.1,0,0,1,.8,0Z" style="fill:#acc399;fill-rule:evenodd"/><path d="M115.4,43v.3c-.1.4-.2.4-.7.5A1.4,1.4,0,0,1,115.4,43Z" style="fill:#588a3f;fill-rule:evenodd"/><path d="M85.4,65.4h.4l-.9.6Z" style="fill:#594956;fill-rule:evenodd"/><path d="M79.4,50.7a4.4,4.4,0,0,1-.3,2l-.9,1.1A5.4,5.4,0,0,1,76,55.1h-.6a6.3,6.3,0,0,1-3.6.1c-.3,0-.5-.2-.8-.5v-.2c.2-1.1,1-1,2.1-.8a2.1,2.1,0,0,1,.4-3l.3-.2c1-.2,2,.6,3.1.1h1.2A1.9,1.9,0,0,1,79.4,50.7Z" style="fill:#995a9a;fill-rule:evenodd"/><path d="M63.5,53.9a.9.9,0,0,1,.4-.8A5.9,5.9,0,0,1,65.8,52h.4a3.1,3.1,0,0,0,1.9-.3,1.1,1.1,0,0,1,1.2-.1l1.3.5a4.5,4.5,0,0,1,.5,2.8H71a1.3,1.3,0,0,1-.7-.6c-.4-.4-.5-.4-.9-.1a3.7,3.7,0,0,1-3.9.7A17.6,17.6,0,0,1,63.5,53.9Z" style="fill:#985498;fill-rule:evenodd"/><path d="M69.8,55.9v-.3l.2-.2h.1c0,.1,0,.1-.1.1s-.1.2-.2.3Z" style="fill:#b678af;fill-rule:evenodd"/><path d="M66.5,72.5l-1.9-.8h0c-1-.7-.4-1.6-.3-2.5h.2c.5-.5.8,0,1.2.1h.5c0,.1.1.2.1.3s-.2.6.1,1a.8.8,0,0,1,.1.8A2.1,2.1,0,0,0,66.5,72.5Z" style="fill:#766473;fill-rule:evenodd"/><path d="M65.7,69.2H64.5a1,1,0,0,1,.3-1.4Z" style="fill:#bb87b7;fill-rule:evenodd"/><path d="M64.8,67.6c0-.3.3-.5.4-.8s.8-.5,1.2-.2Z" style="fill:#bb87b7;fill-rule:evenodd"/><path d="M66.2,69.3h0Z" style="fill:#bb87b7;fill-rule:evenodd"/><path d="M64.3,69.2a2.6,2.6,0,0,1,.1,1.5,1.2,1.2,0,0,0,.2,1,1.1,1.1,0,0,1-.7-.6,3.8,3.8,0,0,0-.3-1c0-.1-.1-.2-.2-.1l-1.5.3a3.7,3.7,0,0,1-2.3-2.7l.5-.4a.5.5,0,0,1,.2-.4c1.6-.8,2.3-.6,3.1.8Z" style="fill:#5e4e5a;fill-rule:evenodd"/><path d="M63.4,67.6h-.3a3.3,3.3,0,0,0-2.7-.4c-1-1-1-1.6,0-2.5l2.1,1,.9.2.8.2a1,1,0,0,1-.1.9A4.6,4.6,0,0,0,63.4,67.6Z" style="fill:#b475ad;fill-rule:evenodd"/><path d="M65.5,65a.5.5,0,0,1,.4-.2H66c.1.1,0,.2-.1.2Z" style="fill:#a46aa3;fill-rule:evenodd"/><path d="M59.6,67.6l.7.4a2,2,0,0,1,.8,1.2,1.5,1.5,0,0,0,.8,1.1l.2.3h-.5l-1.8-1a1.4,1.4,0,0,1-.7-1,.5.5,0,0,1,0-.5Z" style="fill:#453a43;fill-rule:evenodd"/><path d="M92.1,71.8a2.2,2.2,0,0,0-2.2-.6l-.6-.5v-.5h.9a2.9,2.9,0,0,0,2.4.6h0a.5.5,0,0,1,.3.5.5.5,0,0,1-.2.4A.7.7,0,0,1,92.1,71.8Z" style="fill:#675766;fill-rule:evenodd"/><path d="M92.7,71.5a1.7,1.7,0,0,1-.1-.7l1-.2.8.5a3,3,0,0,1,1.5.5.9.9,0,0,1,.4.9,1.2,1.2,0,0,1-1,.5L94,72.7a1.1,1.1,0,0,0-1,.1h0c-.5-.1-1-.2-.9-.9h0l.6-.3h0Z" style="fill:#584d56;fill-rule:evenodd"/><path d="M59.1,68c.1.2,0,.3,0,.5h-.5v-.3Z" style="fill:#5e4e5a;fill-rule:evenodd"/><path d="M60.4,64.6a2.3,2.3,0,0,0,0,2.5h-.8l-.3-.3a.9.9,0,0,1-.1-.5c0-.6.1-1.3.1-2a.3.3,0,0,1,.5-.3Z" style="fill:#a967a5;fill-rule:evenodd"/><path d="M57.8,62a1.7,1.7,0,0,1-.1-.7A.6.6,0,0,1,57.8,62Z" style="fill:#af6aa7;fill-rule:evenodd"/><path d="M77.8,48.4l-.7.7a3.6,3.6,0,0,1-2.8.7h-.7a1,1,0,0,1-1.1-.4c0-.1-.1-.3,0-.4.7-2.9,2.9-3.8,5.5-4l.4.2A2.2,2.2,0,0,1,77.8,48.4Z" style="fill:#857681;fill-rule:evenodd"/><path d="M81.2,41.6c0,.1-.1.1-.1.2a3.6,3.6,0,0,1-1.2,2.7c-.3,1-.9,1.1-1.7.8H78l-.4-.3a.6.6,0,0,1-.1-.4c.3-1.3-.6-2.5-.1-3.7s1.3-1.8,2.5-1.9S81.5,40.4,81.2,41.6Z" style="fill:#857681;fill-rule:evenodd"/><path d="M79.7,37l.3.5c.5.5.3.9-.1,1.4H78.3s-.1-.1-.1,0H77.1l-.5.2a3.8,3.8,0,0,0-1.5.5l-.5.2h-.9a.5.5,0,0,1-.4-.2,1.3,1.3,0,0,1-.6-1.5l.3-.4a2,2,0,0,1,.8-.4h.4l.8-.5.3-.2.6-.5.3-.3h2l.6.2.3.3A1.8,1.8,0,0,0,79.7,37Z" style="fill:#857681;fill-rule:evenodd"/><path d="M71.1,54.8a10,10,0,0,1-.8-1.4,1.2,1.2,0,0,1,.3-1.4,2.9,2.9,0,0,0,1.8-.7c.2-.3.4-.5.8-.4h.3a5.2,5.2,0,0,1-.2,1.1,1.3,1.3,0,0,0-.1.6c0,.3,0,.4.4.5a.8.8,0,0,1,.4.4.8.8,0,0,1-.1.8l-.8.5a1.1,1.1,0,0,1-.8.1c-.2-.2-.1-.4-.2-.6s-.2-.2-.4-.1Z" style="fill:#924d93;fill-rule:evenodd"/><path d="M78.2,45.3l1.7-.8a1.7,1.7,0,0,1,.1,1.8,6.7,6.7,0,0,1-1.4,1.9.8.8,0,0,1-.8.2A4.2,4.2,0,0,0,78.2,45.3Z" style="fill:#e1cee3;fill-rule:evenodd"/><path d="M79.7,38.9a5.8,5.8,0,0,0,.3-1.4q.4-.3.6,0l.8,1.3a3.9,3.9,0,0,1,.2,2.6.4.4,0,0,1-.4.2l-.3-.9a2.9,2.9,0,0,0-1.1-1.6c-.1,0-.2,0-.2-.1A.1.1,0,0,1,79.7,38.9Z" style="fill:#e1cee3;fill-rule:evenodd"/><path d="M73.2,50.9l-.8.4h-.8c-.7-.4-1.8,0-1.9-1.1a.5.5,0,0,1,.2-.4l.3-.3.4-.2h.7c.4-.1.9-.3,1.3.1a1.9,1.9,0,0,1,1,.5A5.6,5.6,0,0,1,73.2,50.9Z" style="fill:#dfcbe0;fill-rule:evenodd"/><path d="M76.9,50.7c-.1.2-.2.4-.5.4s-.8.2-.8.7-.1.1-.1.2-.2.2-.4.1a.3.3,0,0,1-.3-.3c0-.2.1-.4.1-.6a.2.2,0,0,0-.2-.2l-.9-.4a1.7,1.7,0,0,1,1.5-.3Z" style="fill:#924d93;fill-rule:evenodd"/><path d="M79.7,37c-.5,0-.8-.1-.9-.6s-.1-.2-.1-.3a.5.5,0,0,1,.3-.5h.3a4.3,4.3,0,0,1,.4.7Z" style="fill:#857680;fill-rule:evenodd"/><path d="M74.6,30.9h.3l.9.9c.7.4,1.3.8,1.2,1.7a2.1,2.1,0,0,1-.3.7l-1.2.7c-2.1.3-2.7,0-3-1.3a1.6,1.6,0,0,1,1-2.1A1.7,1.7,0,0,0,74.6,30.9Z" style="fill:#61535d;fill-rule:evenodd"/><path d="M76.5,33.6a3.6,3.6,0,0,0-.2-1,5.6,5.6,0,0,0-.5-.8,3.6,3.6,0,0,1,3,1.8c.2.3.3.7.5,1a.9.9,0,0,1,0,1h0C78.2,35.2,76.8,35.1,76.5,33.6Z" style="fill:#d6bbd6;fill-rule:evenodd"/><path d="M63.1,44.2h-.2a2.1,2.1,0,0,1-.3-3.3c.8-1,.9-1.7,0-2.6s-.1-.6-.1-.9,2-.8,2.9-.2a3.2,3.2,0,0,0,1.9.5c.4.2.7.4.7.9a.8.8,0,0,1-.8.7.7.7,0,0,0-.6.7c.1-.3.2-.6.6-.6A1.9,1.9,0,0,1,69.4,41a2.3,2.3,0,0,1-2,2.2,5.4,5.4,0,0,0-2,1A1.8,1.8,0,0,1,63.1,44.2Z" style="fill:#383135;fill-rule:evenodd"/><path d="M67.1,37.9l-.4.2a.9.9,0,0,1-.7,0l-.6-.3a3.1,3.1,0,0,0-2.6-.6h-.5a1.4,1.4,0,0,1-.2-1.5,4.5,4.5,0,0,1,2-3h.8a1.4,1.4,0,0,0,.8-.5,3.7,3.7,0,0,1,2.8-1.3c.9-.3,1.6-.3,2.1.6v.5c-.9,1-2.2.9-3.4,1.2s-2,1.3-1.3,2.6a3.2,3.2,0,0,0,1,1l.3.4a.8.8,0,0,1,0,.7Z" style="fill:#544850;fill-rule:evenodd"/><path d="M62.8,37.2a2.8,2.8,0,0,0,1.8,2,.5.5,0,0,1,0,.5l-.3.2-.4.2a4.4,4.4,0,0,0-1.2,1.8,3.4,3.4,0,0,0,.2,2.2h-.2a1.3,1.3,0,0,1-1.6-1.1L60.5,42a3.1,3.1,0,0,1,.7-3.9l.9-.6c0-.3.2-.4.5-.4Z" style="fill:#554952;fill-rule:evenodd"/><path d="M63.1,44.2a3.8,3.8,0,0,0,2.1-.4A2,2,0,0,0,66,43a.9.9,0,0,1,.8-.4h.5l.4-.2A4,4,0,0,0,69,41.2h.5c.4.3.9.7,1.3-.1l.6-.7a1.1,1.1,0,0,1,1.5-.6c.7.3.6,1,.6,1.6s-.7,1.2-.6,2a.6.6,0,0,1-.1.4c-.2.4-.4.7-.8.8h-.5L70,44.3h-.1s-.1.1,0,.1a4.6,4.6,0,0,1-.5,1c-.6.7-1.2,1.2-2,1s-.7-1.1-.8-1.9-1.8,1.6-3,.6l-.3-.3A1.4,1.4,0,0,1,63.1,44.2Z" style="fill:#574b52;fill-rule:evenodd"/><path d="M61.1,43.1l1.6,1.1c-.3.3-.5.4-.8.3a2.3,2.3,0,0,1-1.2-1.2c-.1-.2,0-.2.3-.2Z" style="fill:#ccabcc;fill-rule:evenodd"/><path d="M62.6,37.1l-.5.4a2.8,2.8,0,0,1-.4-1.5c.1-.3.2-.4.4-.4A6.6,6.6,0,0,0,62.6,37.1Z" style="fill:#c6a3c4;fill-rule:evenodd"/><path d="M65.5,29.3h-1c-.2,0-.4-.2-.3-.4a.4.4,0,0,1,.5-.3l.4.2h.1Z" style="fill:#ac75ab;fill-rule:evenodd"/><path d="M74.6,30.9a.8.8,0,0,1-.4,1.1l-.9.3a.5.5,0,0,0-.4.6c.1.3.1.7.2,1a.9.9,0,0,0,1.1.6c.4-.1.8-.4,1.2-.3s-.7,1.1-1.4,1.3a1.1,1.1,0,0,1-.8-.1c-.9-.6-1-1.8-2-2.3a3.6,3.6,0,0,1-.7-1,.6.6,0,0,1-.1-.4c.1-.1.1-.1.1-.2s1.1-1,2-1h.7A2.3,2.3,0,0,1,74.6,30.9Z" style="fill:#5b4c56;fill-rule:evenodd"/><path d="M72.5,30.5l-2,1a7,7,0,0,0-2-.8l.5-.4a6.1,6.1,0,0,1,3,0Z" style="fill:#cbaaca;fill-rule:evenodd"/><path d="M92.1,71.8l.9.9a3.3,3.3,0,0,1-1.3.7c-.1,0-.2,0-.2-.1a.4.4,0,0,1-.1-.3Z" style="fill:#4c4449;fill-rule:evenodd"/><path d="M63.9,48.9l-.9-1a2.6,2.6,0,0,1-.5-1.2.9.9,0,0,1,.4-.8,1.4,1.4,0,0,0,.8-.5c3.2.2,4,.7,4.6,3.1,0,.3,0,.7-.5.8l-.5.3c-.5-.1-1,.2-1.5.1A6.4,6.4,0,0,1,63.9,48.9Z" style="fill:#e3d0e3;fill-rule:evenodd"/><path d="M67.8,49.3a1.1,1.1,0,0,0,0-.8A1.6,1.6,0,0,1,70,49.9c0,.2,0,.4.2.5l.7.3.7.5a3.1,3.1,0,0,1-2.8-.7,1.5,1.5,0,0,1-.5-.6A1.3,1.3,0,0,0,67.8,49.3Z" style="fill:#d5bad6;fill-rule:evenodd"/><path d="M65.8,49.7a1.4,1.4,0,0,1,1.5-.1A1.4,1.4,0,0,1,65.8,49.7Z" style="fill:#d5bad6;fill-rule:evenodd"/><path d="M60.7,50.4c0-.3.2-.4.4-.6A.9.9,0,0,1,60.7,50.4Z" style="fill:#caa2c9;fill-rule:evenodd"/><path d="M70,49.9a10.2,10.2,0,0,1-2.2-1.4l-.4-.9c-.2-.4-.1-.9-.5-1.1H65.8L64.6,46l-.9-.6a.4.4,0,0,1-.1-.3h.6a1.6,1.6,0,0,0,.9-.3,6.5,6.5,0,0,1,1.6-1.3H67a.7.7,0,0,1,.7.2c.2.1.2.4.1.6a4.1,4.1,0,0,0-.5.9c-.1.2-.1.5-.2.7a.4.4,0,0,0,.5.3,2.2,2.2,0,0,0,1.3-.9,3.5,3.5,0,0,0,.7-1.2c0-.2.1-.2.2-.2h.5c.9-.3,1,0,1.3.7s1.1,2.9,1,4.5v.2l-1.4.7H70Z" style="fill:#857681;fill-rule:evenodd"/><path d="M92.7,71.5l.5-.2h.3c.1.2.1.5-.1.5h-.3l-.4-.4Z" style="fill:#4c4449;fill-rule:evenodd"/><path d="M72.6,49l-.5-.6a4.3,4.3,0,0,1-.6-3.5.6.6,0,0,0,.1-.4h.2c.3-.1.6.2,1,.3s-.3-.8-.1-1.2h0c.6-1.3,1.2-2.5.8-4h.3c.3,0,.5-.2.8-.1H75c.4,1.2,1.5,1.2,2.5,1.4a.6.6,0,0,1,.1.4,3.8,3.8,0,0,1,.2,3.6,4.4,4.4,0,0,1-1.7-.8,4.4,4.4,0,0,0,1.7.8l.2.5-1.1.3a5,5,0,0,1-2.3.9c-.3.1-.5.3-.5.5s-.2.7-.4,1.1A1.4,1.4,0,0,1,72.6,49Z" style="fill:#564a51;fill-rule:evenodd"/><path d="M77.6,41.1c-.1-.1-.2-.2-.2-.3s-2.3-.2-2.3-1.7a4.4,4.4,0,0,1,1.5-.8l.6-.3h1.2l.5.2a.3.3,0,0,1,.1.2h.4l.3.3c0,.1,0,.1.1.2A7,7,0,0,1,77.6,41.1Z" style="fill:#574b52;fill-rule:evenodd"/><path d="M76.3,35.9a.2.2,0,0,1-.2.2c-.1.2-.3.3-.4.6h-.3a1.2,1.2,0,0,1-1.1.7h-.2c-.3-.1-.5.1-.7.1h-.3c-.3.1-.4.4-.7.5h-.8c-.3-.2-.5-.4-.5-.7a.5.5,0,0,1,0-.5c1.7-.5,3-2.2,5.1-1.6C76.3,35.6,76.4,35.7,76.3,35.9Z" style="fill:#554a51;fill-rule:evenodd"/><path d="M76.3,35.9a.4.4,0,0,0-.1-.3c-.4-.5-.1-1,.2-1.5a.9.9,0,0,0,.1-.5c.2.2.3.4.6.5a3.7,3.7,0,0,1,1.4.7l.8.9-.6.4h0c-.2-.1-.5.1-.7,0H76.3Z" style="fill:#70616b;fill-rule:evenodd"/><path d="M72.1,38a.6.6,0,0,1,1-.2,2.4,2.4,0,0,0,.5,1.6h0C72.4,39.8,72.1,39.6,72.1,38Z" style="fill:#d1bdd0;fill-rule:evenodd"/><path d="M76.6,38.3l-1.6,1c0,.2-.1.2-.3.1a.3.3,0,0,0-.1-.2l1.1-.7A1.5,1.5,0,0,1,76.6,38.3Z" style="fill:#857680;fill-rule:evenodd"/><path d="M74.3,37.5l1.1-.7C75.2,37.4,74.9,37.6,74.3,37.5Z" style="fill:#857680;fill-rule:evenodd"/><path d="M74.6,39.2h-.8A.8.8,0,0,1,74.6,39.2Z" style="fill:#857680;fill-rule:evenodd"/><path d="M78,36.1a.9.9,0,0,1,.7,0A.9.9,0,0,1,78,36.1Z" style="fill:#857680;fill-rule:evenodd"/><path d="M75.7,36.7a1.3,1.3,0,0,1,.4-.6A1.3,1.3,0,0,1,75.7,36.7Z" style="fill:#857680;fill-rule:evenodd"/><path d="M73.4,37.7a.8.8,0,0,1,.7-.1Z" style="fill:#857680;fill-rule:evenodd"/><path d="M77.1,35.9h0Z" style="fill:#857680;fill-rule:evenodd"/><path d="M77.5,36h0Z" style="fill:#857680;fill-rule:evenodd"/><path d="M77.7,38.1h0Z" style="fill:#857680;fill-rule:evenodd"/><path d="M78.4,38.1h0Z" style="fill:#857680;fill-rule:evenodd"/><path d="M78.9,38.3l-.5-.2Z" style="fill:#857680;fill-rule:evenodd"/><path d="M76.7,35.8h0Z" style="fill:#857680;fill-rule:evenodd"/><path d="M79.4,38.6h0Z" style="fill:#857680;fill-rule:evenodd"/><path d="M70.1,49.9h0Z" style="fill:#d5bad6;fill-rule:evenodd"/><path d="M70.9,49.9h0Z" style="fill:#d5bad6;fill-rule:evenodd"/><path d="M76.4,34.1a1.4,1.4,0,0,1-.2,1.5l-.4.2a2.1,2.1,0,0,0-1.8.7c-.2.1-.5.1-.6.3a2.1,2.1,0,0,1-1.7.4c-.2-.1-.3,0-.4.2v.2h.2c.2.1.2.3.2.5s-.7,1.3-1.6,1.1,0-1.8.4-2.6a2.7,2.7,0,0,0,.7-2.6,1.6,1.6,0,0,1,.2-1.5,1.4,1.4,0,0,1,.8.7l1.1,1.9c.1.2.3.1.4.1a9.5,9.5,0,0,0,1.7-1Z" style="fill:#3f363b;fill-rule:evenodd"/><path d="M66.8,37.3c0-.1-.1-.1-.1-.2a3.8,3.8,0,0,1-1-2A1.8,1.8,0,0,1,67,32.9c1.2-.4,1.8.1,2.2,1.2a6.6,6.6,0,0,0,1.1,2.6c.4.4-.1.8-.3,1.1s-1.1.5-1.6.8-.3,0-.5,0l-.8-.7h0A.4.4,0,0,0,66.8,37.3Z" style="fill:#261f22;fill-rule:evenodd"/><path d="M67.9,38.6h.3c.6-.1,1.3-.4,1.7.4a2,2,0,0,0,1.1-.3l.7-.5h.1c1.1,1.4-.4,1.9-1,2.7a1.9,1.9,0,0,1-1.5.6l-.3-.3a3.5,3.5,0,0,0-2-1.8h-.2v-.2Z" style="fill:#62555e;fill-rule:evenodd"/><path d="M66.9,39.2c0,.1,0,.2.1.2a3.3,3.3,0,0,1-.1,2.2c0,.1-.1.1-.2.2h-.3c-.1-.1-.1-.3-.2-.4a3.1,3.1,0,0,1-.1-1.9c0-.1.1-.3.2-.3S66.7,39.1,66.9,39.2Z" style="fill:#2a2326;fill-rule:evenodd"/><path d="M69.9,38.9c-.6,0-1.2.1-1.7-.4a1.1,1.1,0,0,1,.8-.7l.9-.4c.1-.1.1-.4,0-.4a1.8,1.8,0,0,1-.8-1.3,4.8,4.8,0,0,0-.7-2l-.3-.3a.7.7,0,0,0-1.1-.1,2.4,2.4,0,0,0-.7,1.9,12.9,12.9,0,0,0,.4,1.9,3.5,3.5,0,0,1-1.8-3.3,1.4,1.4,0,0,1,.8-1.3,1,1,0,0,1,.9-.2,1.9,1.9,0,0,0,1.5-.1l1.1-.3,1.2-.2h.3c-.6,1.7.3,3.3.3,5A13.9,13.9,0,0,0,69.9,38.9Z" style="fill:#352d32;fill-rule:evenodd"/><path d="M66.8,37.3c.4.2.4.2.3.6Z" style="fill:#383135;fill-rule:evenodd"/><path d="M69.3,41.5a2.7,2.7,0,0,1,.7-.8,9.3,9.3,0,0,0,1.5-1.3c.4-.3.4-.7.3-1.2l.3-.2.6,1.1c.2.4.3.4.9.3l.3.5a2,2,0,0,1,.3,1.1,1.3,1.3,0,0,0-.1.6c.1,1.1,0,1.1-1,1.7l-.4.2-.4-.3c-.1-.1-.2-.2-.1-.4a3.1,3.1,0,0,0,.5-1,2.7,2.7,0,0,0,.3-1.2c0-.2-.2-.5-.3-.5h-.5a3.8,3.8,0,0,0-.9,1.5c-.1.2-.1.4-.2.6a.8.8,0,0,1-.7.5c-.5,0-.7-.1-.8-.4a.4.4,0,0,0-.1-.3C69.4,41.9,69.4,41.7,69.3,41.5Z" style="fill:#857680;fill-rule:evenodd"/><path d="M72.7,43.6l.8.8a2.1,2.1,0,0,1,.4,1.1c0,.2-.1.5-.2.5a.5.5,0,0,1-.5,0,2.3,2.3,0,0,1-1-.7l-.4-.8A1.6,1.6,0,0,1,72.7,43.6Z" style="fill:#3f363a;fill-rule:evenodd"/><path d="M69.8,43.7c-.1.1-.2.1-.2.2l-.6-.2a.2.2,0,0,1-.1-.4h.4C69.5,43.2,69.7,43.5,69.8,43.7Z" style="fill:#443a3f;fill-rule:evenodd"/><path d="M71,36.8,69.9,35a2.8,2.8,0,0,1,.1-2.5,1.6,1.6,0,0,1,.7-.7,1.6,1.6,0,0,1,.7.7c.2.5.3,1,.5,1.5a2,2,0,0,1,0,1.5A3,3,0,0,1,71,36.8Z" style="fill:#292225;fill-rule:evenodd"/><path d="M73.7,35.2h-.1a.2.2,0,0,1-.2.2c-.2-.1-.1-.3-.1-.4Z" style="fill:#61535d;fill-rule:evenodd"/><path d="M77.8,44.7l-.6.3h-.6a2.4,2.4,0,0,1-1.5-1.1l-.3-.7c-.1-.2.2-.4.4-.4h.4a4.3,4.3,0,0,1,2.2,1.8Z" style="fill:#3e3539;fill-rule:evenodd"/><path d="M74.7,39.4H75a3.5,3.5,0,0,1,2.4,1.5,1.4,1.4,0,0,1-1.2.3l-1-.3c-.5-.2-.7-.4-.6-1A.6.6,0,0,0,74.7,39.4Z" style="fill:#3e3639;fill-rule:evenodd"/><path d="M71.5,37.6h-.2C71.3,37.5,71.4,37.5,71.5,37.6Z" style="fill:#352d32;fill-rule:evenodd"/></g></g></svg>