<svg id="图层_1" data-name="图层 1" xmlns="http://www.w3.org/2000/svg" viewBox="0 0 140 140"><title>hehun_score</title><path d="M128.7,17.3h0C121.5,10.1,111,6.2,99.3,6.2h-.1q-14.1,0-24.6,6.6L70,15.6l-4.6-2.8c-7-4.4-15.2-6.6-24.5-6.6h-.2C29,6.2,18.5,10.1,11.3,17.3h0C-3.3,33.4-3.8,58.8,10.1,76.4h0c16.7,19.9,40,42.4,59.6,57.4h.6c19.5-14.9,42.8-37.3,59.4-57.2l.2-.2C143.8,58.7,143.3,33.4,128.7,17.3Zm-4.9,9.8a1.7,1.7,0,0,1,2.4.5,34.3,34.3,0,0,1,4.5,10.8,1.7,1.7,0,0,1-1.3,2.1H129a1.8,1.8,0,0,1-1.7-1.4,30.8,30.8,0,0,0-4.1-9.7A1.7,1.7,0,0,1,123.8,27.1ZM104.7,16.5a1.7,1.7,0,0,1,2.1-1.4,30.2,30.2,0,0,1,11,4.1,1.8,1.8,0,0,1,.6,2.4,1.6,1.6,0,0,1-1.5.9,1.6,1.6,0,0,1-.9-.3,28.5,28.5,0,0,0-9.9-3.6A1.9,1.9,0,0,1,104.7,16.5ZM22.2,19.2a32.2,32.2,0,0,1,11-4.1,1.6,1.6,0,0,1,2,1.4,1.7,1.7,0,0,1-1.4,2.1A28.7,28.7,0,0,0,24,22.2l-.9.3a1.6,1.6,0,0,1-1.5-.9A1.7,1.7,0,0,1,22.2,19.2ZM9.2,38.4a37.1,37.1,0,0,1,4.6-10.8,1.8,1.8,0,0,1,2.4-.5,1.8,1.8,0,0,1,.6,2.4,30.8,30.8,0,0,0-4.1,9.7A1.8,1.8,0,0,1,11,40.6h-.4A1.7,1.7,0,0,1,9.2,38.4Zm4,24-.6.2a1.9,1.9,0,0,1-1.7-1.2A39.6,39.6,0,0,1,8.3,50.1,1.8,1.8,0,0,1,10,48.2a1.6,1.6,0,0,1,1.8,1.6,37.4,37.4,0,0,0,2.4,10.4A1.6,1.6,0,0,1,13.2,62.4ZM26.7,80.2a1.9,1.9,0,0,1-1.2.4,1.9,1.9,0,0,1-1.3-.5l-7.4-8.5a1.8,1.8,0,1,1,2.7-2.3l7.3,8.4A1.8,1.8,0,0,1,26.7,80.2ZM42.2,96.3a1.7,1.7,0,0,1-1.3.5,1.5,1.5,0,0,1-1.2-.5c-2.7-2.6-5.3-5.3-7.9-8a1.8,1.8,0,0,1,.1-2.5,1.7,1.7,0,0,1,2.5.1c2.5,2.6,5.1,5.3,7.8,7.9A1.8,1.8,0,0,1,42.2,96.3Zm.7-80.1a1.7,1.7,0,0,1,1.9-1.6,35.3,35.3,0,0,1,11.4,2.7,1.7,1.7,0,0,1,.9,2.3,1.7,1.7,0,0,1-1.6,1.1l-.7-.2a33.8,33.8,0,0,0-10.3-2.4A1.7,1.7,0,0,1,42.9,16.2Zm15.6,95.4a1.6,1.6,0,0,1-1.3.6,2.1,2.1,0,0,1-1.2-.5l-8.3-7.6a1.8,1.8,0,0,1,2.5-2.5c2.7,2.5,5.4,5.1,8.2,7.5A1.8,1.8,0,0,1,58.5,111.6Zm17,7.5-4.4,3.6a1.7,1.7,0,0,1-2.2,0l-4.4-3.6a1.9,1.9,0,0,1-.2-2.5,1.7,1.7,0,0,1,2.5-.2L70,119l3.2-2.6a1.7,1.7,0,0,1,2.5.2A1.9,1.9,0,0,1,75.5,119.1Zm.2-93.2-4.8,3-.9.3-.9-.3-4.8-3a1.7,1.7,0,0,1-.6-2.4,1.8,1.8,0,0,1,2.4-.6L70,25.4l3.9-2.5a1.8,1.8,0,0,1,2.4.6A1.7,1.7,0,0,1,75.7,25.9Zm16.6,78.2c-2.8,2.6-5.5,5.2-8.3,7.6a1.7,1.7,0,0,1-1.2.5,1.8,1.8,0,0,1-1.1-3.1l8.2-7.6a1.8,1.8,0,0,1,2.4,2.6Zm3.2-86a37,37,0,0,0-10.3,2.4l-.7.2a1.6,1.6,0,0,1-1.6-1.1,1.7,1.7,0,0,1,.9-2.3,41.4,41.4,0,0,1,11.4-2.7,1.8,1.8,0,0,1,.3,3.5Zm12.7,70.2-7.8,8a2.1,2.1,0,0,1-1.3.5,1.8,1.8,0,0,1-1.2-.5,1.8,1.8,0,0,1,0-2.5l7.8-8a1.8,1.8,0,0,1,2.5,2.5Zm15-16.8c-2.3,2.8-4.8,5.6-7.4,8.5a1.6,1.6,0,0,1-1.3.6,1.5,1.5,0,0,1-1.1-.4,1.8,1.8,0,0,1-.2-2.5c2.6-2.9,5.1-5.7,7.3-8.4a1.7,1.7,0,0,1,2.5-.2A1.6,1.6,0,0,1,123.2,71.5Zm5.9-10.1a1.7,1.7,0,0,1-1.6,1.1h-.7a1.8,1.8,0,0,1-1-2.3,36.8,36.8,0,0,0,2.4-10.3,1.8,1.8,0,0,1,1.8-1.7,1.9,1.9,0,0,1,1.7,1.9A40.2,40.2,0,0,1,129.1,61.4Z" style="fill:#ff715b"/></svg>