<svg xmlns="http://www.w3.org/2000/svg" viewBox="0 0 100 94"><title>hehun_bg02</title><g id="图层_2" data-name="图层 2"><g id="图层_1-2" data-name="图层 1"><path d="M67.6,13.5A13.9,13.9,0,0,1,69.9,11l6.4-5.5h.3c.6.1.5.7.4,1-1.2,4.2-2.1,8.3-3.6,12.4v.3a2.2,2.2,0,0,1-.1.8,4.2,4.2,0,0,0-.3,1.2l-.3.7a1.2,1.2,0,0,1-2.1.2,10.6,10.6,0,0,1-1.8-3.7C68.3,16.7,68,15.1,67.6,13.5Z" style="fill:#a7c397;fill-rule:evenodd"/><path d="M14.1,65.9a19.7,19.7,0,0,1-4.2.1l-4.7-.4-3.5-.3c-.1-.7.4-1,.9-1.3l13-7.3c.5-.3,1.2-.7,1.7-.2s.5,1.6.1,2.4a1.9,1.9,0,0,1-.2.7c-.1.2-.2.3-.2.5a.4.4,0,0,0-.1.3l-.3.6a.4.4,0,0,1-.1.3C15.8,62.9,14.7,64.3,14.1,65.9Z" style="fill:#a7c397;fill-rule:evenodd"/><path d="M86.3,49.9c0-.2-.1-.4-.1-.6a.5.5,0,0,0-.2-.4,1.4,1.4,0,0,1-.6-1.3,1,1,0,0,0-.4-.7A18.5,18.5,0,0,0,81.3,45a33.9,33.9,0,0,0-5.5-1.3,45.8,45.8,0,0,0-6.4-.4c-.8-.4-1-.9-.5-1.6h3.7A37.8,37.8,0,0,1,80.1,43a18.3,18.3,0,0,1,5.4,2.3h.1c.3.2.6.3.9,0a1.1,1.1,0,0,1,.8-.3c.6.2.9-.2,1.3-.5a5.5,5.5,0,0,1,4.3-1.1,1.5,1.5,0,0,1,.4,1.8,17.2,17.2,0,0,1-1.8,4.2c-.4.4-.4,1-.9,1.3l-.5.3C88.8,50.8,87.6,50.3,86.3,49.9Z" style="fill:#a7c397;fill-rule:evenodd"/><path d="M34.2,20.4a5.6,5.6,0,0,1-1,3.7l-.4.4a1.7,1.7,0,0,0-.5,1.3c.1.3-.1.5-.2.7l-.3.4a.8.8,0,0,0-.2.7,18,18,0,0,0,.6,2.2,20.2,20.2,0,0,0,2.9,5.4c0,.8-.4,1.2-1.2,1.1s-1-1.4-1.4-2.1a19,19,0,0,1-2.4-6.1c-.1-.3-.2-.5-.5-.5s-.7-.1-.9-.4-.8-.5-1.3-.6A6.1,6.1,0,0,1,24,24.9l-.3-.4c-.2-1,.5-1.5,1.2-1.8a32.5,32.5,0,0,1,4-1.5c1-.2,1.7-.7,2.6-.9a1.8,1.8,0,0,1,1-.4h.4C33.2,20.3,33.9,19.9,34.2,20.4Z" style="fill:#a7c397;fill-rule:evenodd"/><path d="M24.6,27.2a6.4,6.4,0,0,1,1.8,1A6.8,6.8,0,0,1,28.5,32v1.3a2.2,2.2,0,0,0-.1.8.6.6,0,0,0,.1.4,1.8,1.8,0,0,1,.2,1.6c0,.3,0,.5.2.6L30.7,38a7.1,7.1,0,0,0,1.4,1,1,1,0,0,1-.7,1.5,21.6,21.6,0,0,1-2.9-2.1l-.6-.4a.7.7,0,0,0-.6-.2l-.5.2h-.4a1.5,1.5,0,0,0-1.3.1,5.5,5.5,0,0,1-4.2.4h-.2a1.7,1.7,0,0,1-.1-2,14.2,14.2,0,0,1,2-2.8,9.3,9.3,0,0,0,1.5-4.8C24.2,28.2,24,27.6,24.6,27.2Z" style="fill:#a7c397;fill-rule:evenodd"/><path d="M41,14a28.4,28.4,0,0,1,0-7.7c.5-1,1.7-.5,2.4-1s1,.5,1.3.9,2.1,3.3,3,5a29,29,0,0,1,1.9,2.9v.5l.2.2.2.2c.3.6,1,1.3.4,2s-1.4.5-2.2.3a7.5,7.5,0,0,1-2.5-.9C44.2,15.8,42.7,14.7,41,14Z" style="fill:#71a05d;fill-rule:evenodd"/><path d="M19.3,84.1a4.4,4.4,0,0,1-.5-1.5,41,41,0,0,1-1-4.8,7.4,7.4,0,0,1-.1-2.1,4.9,4.9,0,0,0,1.7-1.8c.8-1.1,1.6-2.2,3.1-2.5s1,0,1.2.4,1.1,1,1.8,1h.8c.3,0,.6-.1.9.2a5.2,5.2,0,0,1-1.9,5.4,16.6,16.6,0,0,0-3.4,2.5,7.4,7.4,0,0,0-1.7,2.5C20,83.7,19.9,84.1,19.3,84.1Z" style="fill:#a7c397;fill-rule:evenodd"/><path d="M33,84.3a26.1,26.1,0,0,1-2.7,3.1l-5.5,5-.6.5c-.6-.5-.3-1.2-.2-1.8.6-2.7,1.2-5.4,1.9-8a3.3,3.3,0,0,0,.1-2.2,1.1,1.1,0,0,1,1-.9,6.7,6.7,0,0,1,4.2-.4l.3.2a4.1,4.1,0,0,1,.8,1.9A25,25,0,0,1,33,84.3Z" style="fill:#81ab6e;fill-rule:evenodd"/><path d="M62.7,20.4a1.9,1.9,0,0,1,.3-.9,19.1,19.1,0,0,1,2.8-4,2.2,2.2,0,0,1,.9-1c.8.1.8.8.9,1.4a25.8,25.8,0,0,0,1.9,5.3A7,7,0,0,0,71,23.1a1.6,1.6,0,0,1,.5,2.4l-.2.3-.9.5c-.6.4-1,.9-.5,1.7s.2,1.3-.6,1.7h-.4l-.5-.2-.3-.3c-1.7-1.9-2.8-4.3-4.1-6.5a3.6,3.6,0,0,0-1.2-1.6C62.6,20.9,62.4,20.7,62.7,20.4Z" style="fill:#a7c397;fill-rule:evenodd"/><path d="M86.6,73.7H83.9a28,28,0,0,1-5.7-.8,8.7,8.7,0,0,0-1.5-2.4,5.9,5.9,0,0,1-1.7-4c.2-1,1-1.5,1.7-2.1a1.3,1.3,0,0,1,1.7.2c.6,1.1,1.8.8,2.8,1.1a2.7,2.7,0,0,1,.9,0,2.8,2.8,0,0,1,.8,1.5c.7,2.1,1.5,4.2,3.4,5.7C86.6,73.1,86.8,73.3,86.6,73.7Z" style="fill:#a7c397;fill-rule:evenodd"/><path d="M91,49.4a4.3,4.3,0,0,1,.5-1.2l1-2.1a.3.3,0,0,0,.1-.2,3.9,3.9,0,0,0,.3-2.4,4.2,4.2,0,0,1,1.6.4l.7.3a10.4,10.4,0,0,1,4.6,6.1,2,2,0,0,1,.1,1.5,3.8,3.8,0,0,1-3.2,1H95.4a1.5,1.5,0,0,1-1.1-.2,1.2,1.2,0,0,0-1-.4A2.8,2.8,0,0,1,91,49.4Z" style="fill:#eec09b;fill-rule:evenodd"/><path d="M29.1,21.6c-.3.3-.7.3-1.1.5a19.9,19.9,0,0,0-2.6.9l-.6.3a2.2,2.2,0,0,0-1.1,1.2,5.3,5.3,0,0,1-1.3-2.3,10.2,10.2,0,0,1-.1-3.9,11.4,11.4,0,0,1,.6-2.5,6.3,6.3,0,0,1,1.3-2l.4-.3a2.3,2.3,0,0,1,1.8.6l.5.7c.2,1.6,1.6,2.3,2.7,3.2A3,3,0,0,1,29.1,21.6Z" style="fill:#eec09b;fill-rule:evenodd"/><path d="M7.4,51.8l.2-.4c.6-.7,1.2-1.5,1.9-2.2l.3-.3c1.6.5,3.1-.1,4.7,0a1.2,1.2,0,0,1,.8.4,4.6,4.6,0,0,0,1.3.8c1.4.8,2.6,1.8,2.7,3.5s-1.6,1.1-2.4,1.6a12.9,12.9,0,0,0-1.6.9c-.9.4-1.6-.2-2.4-.2l-2.6-.5-.4-.3a5,5,0,0,0-2.1-2.2c-.3-.2-.8-.3-.7-.8h0Z" style="fill:#85ad72;fill-rule:evenodd"/><path d="M90.7,60.7a11.7,11.7,0,0,1,1.9,3l3.6,7a.4.4,0,0,0,.1.3c-.4,1-1,.4-1.5.2l-5.5-3.1-3.2-1.8a1.9,1.9,0,0,1-1.2-1.1,1.4,1.4,0,0,1,.6-1.3,6.1,6.1,0,0,0,2-2.9l.5-.2C88.9,60.7,89.8,60.1,90.7,60.7Z" style="fill:#a7c397;fill-rule:evenodd"/><path d="M43.4,23.3a.8.8,0,0,1-.4-.7c.2-1.1.7-1.4,1.9-1.1l5,1.2,2.6.5c.4.1.9.2,1.2-.1s-.1-.7-.4-1.1l-1.7-2.7a1.4,1.4,0,0,1-.4-1.1,1.4,1.4,0,0,1,1.7-.4l.6.2c.4.4,1.3,0,1.5.9s-.4,1.3.7.9H56l1.1.3a.9.9,0,0,1,.3.5.4.4,0,0,1,.1.3c-.9,1.2-.5,2.2.3,3.3a19.4,19.4,0,0,1,2.2,4l.2.3a3,3,0,0,1,.2,1c-.8.6-1.4.2-1.9-.5a15.3,15.3,0,0,1-1.8-1.8A2.9,2.9,0,0,0,54.3,26a37.9,37.9,0,0,1-9.4-1.7A4,4,0,0,1,43.4,23.3Z" style="fill:#98b486;fill-rule:evenodd"/><path d="M37.8,76.7a.9.9,0,0,1-.1.5,17.2,17.2,0,0,1-2.8,4.7c-.7.5-1.3.5-1.8-.3l-.2-.3a31.7,31.7,0,0,0-1.7-3.8A7.7,7.7,0,0,0,29,74.6a1.1,1.1,0,0,1-.4-1.7.8.8,0,0,1,.4-.4,5,5,0,0,1,4.9.2c1.1.1,1.4.9,1.9,1.6A5.2,5.2,0,0,0,37.8,76.7Z" style="fill:#a7c397;fill-rule:evenodd"/><path d="M50.8,4.4h.4a41.6,41.6,0,0,1,6.2,4.1l.4.4a5.7,5.7,0,0,0,.2,2.6V12c0,.1-.1.2-.1.3l-.2.4C57,13.6,55.8,14,55,15a.6.6,0,0,1-.8.1c-.5-.9-1.3-.5-2-.4l-1.1-.2h-.3l-.2-.4a1.3,1.3,0,0,1-.1-.6,20.4,20.4,0,0,0,.8-4.3,11.2,11.2,0,0,0-.5-3.6C50.6,5.1,50.5,4.7,50.8,4.4Z" style="fill:#6b9c57;fill-rule:evenodd"/><path d="M23,33.9,22.2,35l-1,1.5a2.5,2.5,0,0,0-.5,1.9l-.7-.2a4.2,4.2,0,0,1-1.4-.9,9.7,9.7,0,0,1-3.4-6.8c0-.5.1-1,.1-1.5s.1-.2.2-.3,2.1.3,3.2.6.7.4,1.1.4.8.7,1.1,1.2a14.6,14.6,0,0,0,1.6,1.9A1.1,1.1,0,0,1,23,33.9Z" style="fill:#f7d3bb;fill-rule:evenodd"/><path d="M52.8,32l1.1-.3a14.3,14.3,0,0,1,5.4.6h.2c1.8,1.3,2.1,4.2.6,5.6l-.3.2h-1l-.6-.3-2.8-1c-1.9-.7-3.6-1.8-5.5-2.4s-1-1.4.4-1.9h0C51.1,32.3,52.1,32.6,52.8,32Z" style="fill:#f8d1be;fill-rule:evenodd"/><path d="M85.2,65.1c0,.1.1.2.2.3l3,1.6,2.8,1.6.6.3L95.5,71l.3.2a.6.6,0,0,0,.5-.2,3.1,3.1,0,0,1,.6,1.3c0,.6-.6.5-.9.8h-.5c-3.7-1.5-7-3.9-10.7-5.7.6,1.7,1.1,3.2,2.6,4.1s1.3,1.2.5,2.1H86.6l-.8-.6a4.6,4.6,0,0,1-1.2-1.2,15.3,15.3,0,0,1-2.4-5.2l-.3-.8a.8.8,0,0,1-.2-.7,3.8,3.8,0,0,1,1.1-1.4h.4C84,64,84.9,64.2,85.2,65.1Z" style="fill:#98b486;fill-rule:evenodd"/><path d="M82.6,39.8h-.1a1.7,1.7,0,0,1-1.5-.9c-.2-.3-.4-.4-.7-.3H77.5a18.7,18.7,0,0,0-2.5-.4.5.5,0,0,1-.4-.5,29.7,29.7,0,0,1,4.3-.8l1.5-.2a.3.3,0,0,0,.3-.3,1.7,1.7,0,0,1,1-1c.1-.1.2-.2.2-.3a2.6,2.6,0,0,0,.3-.8,5.7,5.7,0,0,1,2.9-3c1,.1,1.3.8,1.5,1.6a16.5,16.5,0,0,1,.4,3.2c.1.7.5,1.3.2,2s-1,1.5-2.8,1.3a.5.5,0,0,0-.4-.2c-.2.1-.4.4-.6.4S82.9,39.8,82.6,39.8Z" style="fill:#6d9d59;fill-rule:evenodd"/><path d="M86.6,36.4a4.3,4.3,0,0,0-.2-1.1,11,11,0,0,0-.2-1.8,3.8,3.8,0,0,0-.9-1.8l-.2-.2a3.6,3.6,0,0,1,2-.6,10,10,0,0,1,7.3,2.3,3,3,0,0,1,1.1,1.4c-.1.8-.7.9-1.2,1.2s-1.7.8-2.5,1.2H90.2a4.8,4.8,0,0,1-1.2,0C88.2,36.8,87.3,37.1,86.6,36.4Z" style="fill:#f3ba90;fill-rule:evenodd"/><path d="M28.9,73c-.1.2-.2.3-.2.5s0,.3.1.4h.1a6.1,6.1,0,0,1,2.7,3,21.1,21.1,0,0,1,1.7,4.4.8.8,0,0,1-1.2-.5,1.9,1.9,0,0,0-.8-1h-.2c-.9-.4-1-1.3-1.4-1.9s-.4-1.3-1-1.2-.4.8-.6,1.3-.2,1.7-1,2.3l-1,.5c0,.6-.3.9-1,.8a1.6,1.6,0,0,1-.3-1.2c-1.3,1.1-3,1.9-3.2,3.9a.7.7,0,0,1-.4.5,1.9,1.9,0,0,1-1,.5h-.5a1.7,1.7,0,0,1-.4-1.2,3.2,3.2,0,0,0,.3-.9,5.7,5.7,0,0,1,1.5-2.3A13.2,13.2,0,0,1,24.8,78l.8-.6a1.3,1.3,0,0,0,.7-.9l.3-1.1c.2-.8.3-1.6.5-2.4l.4-.3h.7C28.5,72.7,28.7,72.7,28.9,73Z" style="fill:#98b486;fill-rule:evenodd"/><path d="M37.2,67.6A5.2,5.2,0,0,1,36,65.8l-.8-1.5c-.3-.6-1-1.1-.9-1.9a2,2,0,0,1,.9-1.5c.9-.5,1.3-1.6,2.3-2s.7.5,1,.9a24.9,24.9,0,0,0,4.1,5.7,1.6,1.6,0,0,1,.6.8,4,4,0,0,1-3.3,2.5h-.1C39.1,68,38,68.2,37.2,67.6Z" style="fill:#e59b5c;fill-rule:evenodd"/><path d="M51.3,18.4a.5.5,0,0,1,.5.3l.9,1.3c.7,1,1.3,2,1.9,3l.2.5c0,.1-.1.3-.2.3a9.7,9.7,0,0,1-2.4-.1c-2.1-.3-4.1-.8-6.2-1.3L44.7,22h-.6a.7.7,0,0,0-.8.3l-.3.4a8.2,8.2,0,0,1-1-2.4,1,1,0,0,1,1.1-.4c2.1-.1,4-.8,6-.9s.6-.7,1.1-.8A.9.9,0,0,1,51.3,18.4Z" style="fill:#a7c397;fill-rule:evenodd"/><path d="M13.1,55.5a1,1,0,0,1,.9,0l.7.3c.1.1.2,0,.3,0s1.7-.5,2.6-.6.9-.1,1.3.2a2.7,2.7,0,0,1,.1,3.2c-.6.4-1.2,1-2,.4a5,5,0,0,0,.2-1.7v-.2c0-.3-.2-.5-.5-.4l-.9.4-1.5.9-2.1,1.2-.9.6L8.5,61.3,5,63.2,2.2,64.9l-.5.4H.2c-.1,0-.2-.2-.2-.3l.6-1.2a.1.1,0,0,1,.1-.1c1.9-1.7,4.4-2.7,6.7-4.1l3.5-2a.7.7,0,0,0,.6-.7c0-.1.1-.2.1-.3l.3-.3c.1-.2.3-.3.4-.4S12.8,55.7,13.1,55.5Z" style="fill:#98b486;fill-rule:evenodd"/><path d="M50.3,32.6a1.3,1.3,0,0,1-.4.6l-.3.2a.3.3,0,0,0,0,.4l.5.3c-.4.6-.9.4-1.5.4A13.5,13.5,0,0,0,38.9,37a3.8,3.8,0,0,0-1.4,2.2c-.3.3-.7.2-1.1.2l-.4-.2c0-1.4-.9-2.6-.7-4.1a3.5,3.5,0,0,1,1-.8,14.7,14.7,0,0,1,3.9-2.1h.5c2.3-.3,4.6-.2,7-.3h.8Z" style="fill:#f8cfbb;fill-rule:evenodd"/><path d="M87.9,73.7c.2-.8.4-1.1-.7-1.6a4.6,4.6,0,0,1-1.9-2A16.9,16.9,0,0,1,84,67a.4.4,0,0,1,.1-.3c0-.1.2-.1.4,0h.1l3,1.7,2.1,1.2,3.9,2.2,1.4.7c.3.2.5.4.5.7l-1.7.2-5.5.3Z" style="fill:#a7c397;fill-rule:evenodd"/><path d="M42.9.7h.4c2.1.9,4.1,1.8,6.1,2.9h.2a16.6,16.6,0,0,0,1,2.9c.6,1.6.1,3.2-.2,4.7s-.7,1-1.6.3-1.7-2.4-2.5-3.8L44.1,4a9.6,9.6,0,0,1-1.4-2.1C42.5,1.5,42,.9,42.9.7Z" style="fill:#6e9e5a;fill-rule:evenodd"/><path d="M23,33.9a3,3,0,0,0-.8-.8,2.8,2.8,0,0,1-1-.9A12.2,12.2,0,0,1,20,30.3c0-.1-.2-.2-.3-.3a3.4,3.4,0,0,1-1.3-3.8l.7-.2a11,11,0,0,1,4.4.7,2.2,2.2,0,0,1,1.1.5,11.9,11.9,0,0,1-.3,4.2,7,7,0,0,1-1.1,2.3C23.2,33.8,23,33.8,23,33.9Z" style="fill:#eec09b;fill-rule:evenodd"/><path d="M69.4,66.9l-.4.5a13.6,13.6,0,0,1-8.1,4.4,13,13,0,0,1-3.4.2c-.2-.5.1-.8.5-1.1A18,18,0,0,0,61.9,67l.6-.5.7-.2h.3c1.7.8,2.4.7,3.7-.5s.3-.3.5-.3,1.7-.2,1.9,1h0C69.5,66.7,69.4,66.8,69.4,66.9Z" style="fill:#f9ddd0;fill-rule:evenodd"/><path d="M69.3,43.7a8.6,8.6,0,0,0,.7,1,13.3,13.3,0,0,1,1.9,3.5.9.9,0,0,1,.1.5c-.5.4-1.2,0-1.8.1H67.1a1.9,1.9,0,0,1-.9-1.2,19.2,19.2,0,0,0-1.4-3.3c-.1-.1-.1-.3-.2-.5a.4.4,0,0,0-.1-.3V43a3.4,3.4,0,0,1,2.1-1.6C68.1,41.5,68.7,42.6,69.3,43.7Z" style="fill:#f7d3bb;fill-rule:evenodd"/><path d="M30.5,47a13.1,13.1,0,0,1,.1-2.8v-.5c.8-.8,1.6-1.6,3-1.1s.2.2.2.3a1.5,1.5,0,0,1-.1,1.3,13.9,13.9,0,0,0,0,7.3,5.1,5.1,0,0,1,.2,1.3.8.8,0,0,1-.2.5,3,3,0,0,1-2.4.7c-1.2,0-1.6-.4-1.5-1.8v-.6c0-.4.1-.8.1-1.2s-.2-.5-.1-.8v-.7A10.7,10.7,0,0,1,30.5,47Z" style="fill:#f3ac88;fill-rule:evenodd"/><path d="M43.4,23.3l1.4.4c1.9.6,3.8.9,5.7,1.3a5.8,5.8,0,0,0,2.2.3h.5a4.1,4.1,0,0,0,2.2,0,.6.6,0,0,1,.8.3,4.4,4.4,0,0,1,.8,1.5c-.4.7-1,.2-1.5.3H55a17.1,17.1,0,0,0-3.9-.3,19.2,19.2,0,0,1-2.4,0l-1.5-.2a2.5,2.5,0,0,1-.9-.4A6.3,6.3,0,0,1,43.4,23.3Z" style="fill:#a7c397;fill-rule:evenodd"/><path d="M59.7,38l.3-.5.5-.6a.7.7,0,0,0,.1-.6c-.2-.6-.1-1.2-.4-1.7a.6.6,0,0,1-.1-.4,1.6,1.6,0,0,0-.2-1.2l-.4-.6c.2,0,.4,0,.5.2s.2,0,.2.1h.9l.4.2h.3l.5.2c.3.3.7.5.9.9l1,.8a14.2,14.2,0,0,1,2.4,2.5l.3.5a1.1,1.1,0,0,1-1.3.9,3.8,3.8,0,0,0-3.1.5l-.7.2h-.3a3.5,3.5,0,0,1-1.4-.6l-.3-.4C59.8,38.3,59.7,38.1,59.7,38Z" style="fill:#f8d4c3;fill-rule:evenodd"/><path d="M73.1,19.1a2.8,2.8,0,0,1,.1-.9l1.5-5.3c.5-2,1.1-4,1.6-6l.3-1.1a.3.3,0,0,0,0-.4,4.6,4.6,0,0,1,1.2-1.2c.1,0,.2,0,.3.2a2.1,2.1,0,0,1,.4,1.2c.1,2.5-1.1,4.8-1.5,7.2-.2.8-.8,1.6-.5,2.5a2.9,2.9,0,0,1-.5,1.8c-.9.1-.4.8-.5,1.2l-.2.3C74.6,18.9,73.9,19.5,73.1,19.1Z" style="fill:#98b486;fill-rule:evenodd"/><path d="M23.4,65.6l.9-.4a11.4,11.4,0,0,0,5.1-4.1l.4-.5c.6.4.5,1,.4,1.6a7.9,7.9,0,0,1-.6,2.2c-.2.8-.2,1.6-.4,2.4a2.1,2.1,0,0,1-1.7,1.6c-1.4.3-2.7.8-4.1,1.2H23a.9.9,0,0,1-.1-1.5,1.6,1.6,0,0,0,.4-2C23.2,65.9,23.3,65.7,23.4,65.6Z" style="fill:#74a15f;fill-rule:evenodd"/><path d="M19.7,85.3l.3-.2c.5.3.7-.2,1-.5s.3-.1.4-.3,2.8-2.1,3.6-1.9a1.2,1.2,0,0,1,.1,1.4c-.6,2.7-1.1,5.3-1.8,7.9a1.6,1.6,0,0,1-.5,1h-.4a6.1,6.1,0,0,1-.5-1.2l-2.1-5.6C19.7,85.8,19.7,85.5,19.7,85.3Z" style="fill:#80a96d;fill-rule:evenodd"/><path d="M71.1,25.5a1.4,1.4,0,0,0,.2-.6c.2-.6.3-.7-.3-1.2a7.2,7.2,0,0,1-2.5-3.2A31.9,31.9,0,0,1,66.9,15c-.1-.2-.1-.4-.2-.5a2.2,2.2,0,0,1,.9-1l.4.2c.1.1.3.2.3.4l.3,1,.6,2.7A21.5,21.5,0,0,0,70.5,21a3.8,3.8,0,0,0,1.1,1.1c.1.2.4.1.5-.1s.1-.4.2-.6l.3-.5c.4.1.5.6.6.9a1,1,0,0,0,.8.8l.3.3a1.6,1.6,0,0,1-1,2,1.3,1.3,0,0,0-.9.5C72,25.8,71.6,26,71.1,25.5Z" style="fill:#98b486;fill-rule:evenodd"/><path d="M72.8,55.2a10.4,10.4,0,0,0,2.4-1.1l2.6-1.4,1.6-.5a3.3,3.3,0,0,1,1,0,6.2,6.2,0,0,1,3.5,1.2c.1.7-.5.9-1,1s-2.8.8-4.3,1-2.5.7-3.7,1.2-1.6,1-1.7,2.1-.3.8-.9.4-.1-1.7-.3-2.5a1.4,1.4,0,0,1,.4-1.2C72.5,55.2,72.6,55.2,72.8,55.2Z" style="fill:#448639;fill-rule:evenodd"/><path d="M49.1,11.3l.4.4a.2.2,0,0,0,.3-.1,4.5,4.5,0,0,0,.3-1.6c0-.4.1-.7.1-1a3.7,3.7,0,0,0-.6-3.2l-.3-.7a.8.8,0,0,1,0-.9l.3-.5a1.9,1.9,0,0,1,1.2.7c.1.2.1.4.3.5A5.2,5.2,0,0,1,51.8,7a4.7,4.7,0,0,1,.1,1.7,1.3,1.3,0,0,0-.1.6,11.5,11.5,0,0,1-.3,2.6.4.4,0,0,1-.1.3,2.7,2.7,0,0,0-.3,1.5l-.3.3v.2a1,1,0,0,1-1.2.8h0c-.1-.1-.2-.2-.2-.3h0l-.3-.2a9.5,9.5,0,0,0-1-1.7l-.7-1.3C47.7,10.3,48,10.2,49.1,11.3Z" style="fill:#55874d;fill-rule:evenodd"/><path d="M62.7,66.9a.8.8,0,0,0-.4.4A15.6,15.6,0,0,1,58,71.5c-.2.1-.3.3-.5.5l-1,.4A6.7,6.7,0,0,1,55,73a1.7,1.7,0,0,1-.1-.7l.2-.3c.4-1.2.8-2.5,1.1-3.7s.1-.3.2-.4a15.1,15.1,0,0,1,2.9-1.3c.2-.1.4-.4.7-.4s.9-.7,1.5-.6,1.1,0,1.6.3.5.2.6.4,0,.4-.3.3h-.2C63,66.8,62.8,66.7,62.7,66.9Z" style="fill:#eec09b;fill-rule:evenodd"/><path d="M22.7,92.7a5.9,5.9,0,0,1,.2-1.4c.3-1.7.8-3.4,1.1-5a.4.4,0,0,1,.1-.3c.3-1.2.5-2.4.8-3.6s0-.6.3-.8l.9-.7h.4a.5.5,0,0,1,.3.6l-.3,1.7a4.2,4.2,0,0,0-.4,1.5h0c-.4,1.1-.6,2.3-.9,3.4s-.6,2.5-.8,3.8a2.9,2.9,0,0,0-.2.9l-.3.3c-.1.1-.2.1-.2.2h0c-.5.3-.8.2-1-.2h0C22.6,93,22.5,92.9,22.7,92.7Z" style="fill:#6e985b;fill-rule:evenodd"/><path d="M76.3,15.2c-.1,0-.2.1-.3,0l-.2-.2a.9.9,0,0,1,.1-.5c.4-1.3.8-2.7,1.1-4.1s.9-2.9,1.3-4.4l.2-.4c.1.1.2.2.2.3A50.8,50.8,0,0,1,80.4,11c.1.1,0,.2,0,.3s-1,2.2-1.7,3.2l-.3.2h-.3C77.5,14.9,77,15.6,76.3,15.2Z" style="fill:#a7c397;fill-rule:evenodd"/><path d="M82.4,21.1a1.7,1.7,0,0,1,.1.7.6.6,0,0,1,0,.6c-1.2.7-1.5,2.4-3,2.8s-1.9-1.7-3-2.5-.5-1.4.4-1.9h-.3l-.3-.2a1.4,1.4,0,0,1-.2-.7c.1-.8.7-1,1.4-1.3l.4-.2h.3c.5-.1.9-.5,1.3,0s0,1-.1,1.6A16,16,0,0,1,82.4,21.1Z" style="fill:#7ba666;fill-rule:evenodd"/><path d="M76.8,72.5A9.6,9.6,0,0,1,72.4,71a4.8,4.8,0,0,1-2.3-3.9l.2-.2a16.5,16.5,0,0,0,3.2-.7,3,3,0,0,1,1,1.7A15.7,15.7,0,0,0,76.3,71C76.7,71.5,77.1,71.9,76.8,72.5Z" style="fill:#a7c397;fill-rule:evenodd"/><path d="M60,28.2h-.2l-1.2-1.8-2.2-3.5a.5.5,0,0,1-.2-.4c-.1-.1-.1-.3,0-.3a4.9,4.9,0,0,1,1.1-1.4,2.9,2.9,0,0,1,3.4.5l-.3.9a18.9,18.9,0,0,0-.5,2.3,10.4,10.4,0,0,0,0,2.5A4.9,4.9,0,0,1,60,28.2Z" style="fill:#a6c398;fill-rule:evenodd"/><path d="M1.4,61.9a.4.4,0,0,0,.1-.3L3.9,57l.3-.2c1.3-.1,2.6-.8,3.9-.9a12.9,12.9,0,0,1,2.9.3c.3,0,.4.2.4.5s-1.8,1.4-2.9,1.7a2.6,2.6,0,0,0-1.4.9,4.3,4.3,0,0,1-2.6,1.5,3.2,3.2,0,0,0-2.1,1A.6.6,0,0,1,1.4,61.9Z" style="fill:#9bba89;fill-rule:evenodd"/><path d="M61.7,39.1a6.4,6.4,0,0,0,1.4-.8l.3-.2a3.2,3.2,0,0,1,.9-.3c.4-.1.6.2.9.4h.9l.8-.4c.3.2.4.5.6.7s1,.9,1.2,1.6a1.3,1.3,0,0,1,.2,1.2v.4a9.8,9.8,0,0,0,.5,1.6c0,.1-.1.3-.1.4s-.3-.1-.4-.3a14.5,14.5,0,0,0-2.3-1.9,1.2,1.2,0,0,1-1-.1A21.2,21.2,0,0,0,62.5,40C62.1,39.8,61.6,39.7,61.7,39.1Z" style="fill:#f9d8c9;fill-rule:evenodd"/><path d="M1.4,61.9a1.1,1.1,0,0,0,.9-.9.7.7,0,0,1,.5-.4l.6-.2c.5-.2,1,.1,1.4-.3l1.3-.5.3-.2a1.2,1.2,0,0,0,.5-.5c0-.3.1-.6.1-.9s.2-.2.4-.2l.4.2c.2.1.3.1.4,0l1.6-.5.6-.4a1.1,1.1,0,0,1,.9-.3c.2-.2.4-.2.5,0l.4.3c.1,0,.1.2,0,.3h-.1L9.5,58.9,6.7,60.5l-.4.3a7.5,7.5,0,0,0-2,1L1,63.7H.7A3.6,3.6,0,0,1,1.4,61.9Z" style="fill:#a5c294;fill-rule:evenodd"/><path d="M22.7,64.3a4.2,4.2,0,0,1-1.9.6h-.3c-.5-.6-.3-1.4-.7-2.1s.1-.7.5-.9a.3.3,0,0,0,.1-.2l-1-1.1c-.3-.5-.8-1-.5-1.7s1-.2,1.4-.3h0a1,1,0,0,1-.5-.4v-.3a.2.2,0,0,1,.2-.2h.1v-.2l.2-.2c0-.1.1-.1.2-.2a.1.1,0,0,1,.1-.1.3.3,0,0,1,.1-.2c0-.1.1-.2.1-.3l.3-.3a.9.9,0,0,1,.5-.3c1.2.1,1.3.2.9,1.5s.9,0,1.1.4a.4.4,0,0,1,.1.3v.9a26.8,26.8,0,0,1-.7,2.7A5,5,0,0,0,22.7,64.3Z" style="fill:#8bb077;fill-rule:evenodd"/><path d="M64.7,29.7a11.3,11.3,0,0,1-2.4-2.9,3.6,3.6,0,0,1-.4-1.1,7.1,7.1,0,0,1,.3-4.1c.6-.1.8.3,1,.7l3.1,5.6a.9.9,0,0,1,.2,1.1C66.1,29.7,65.6,30.2,64.7,29.7Z" style="fill:#a7c398;fill-rule:evenodd"/><path d="M59.2,10.3A12.7,12.7,0,0,1,61.7,13l.6,1a4.7,4.7,0,0,1,.2,3.1,3.4,3.4,0,0,1-.5,1.4,1.1,1.1,0,0,1-1.2-1,1,1,0,0,0-.9-.9,1.6,1.6,0,0,1-1.2-1.4,11.1,11.1,0,0,1,.1-2.6C58.9,11.8,58.2,10.9,59.2,10.3Z" style="fill:#7ca669;fill-rule:evenodd"/><path d="M59.2,15.4v.3a.5.5,0,0,0,.6.4h.4a.8.8,0,0,1,.7.1c.2.2.4.3.3.6a2.2,2.2,0,0,0,0,.8.6.6,0,0,0,.4.6l.3.3v.2a21,21,0,0,1-1.3,2.6l-1.8-.2-.8-.2h-.8v-.2a1.8,1.8,0,0,1,.3-1.2,6.2,6.2,0,0,0,.9-3C58.5,16,58.5,15.4,59.2,15.4Z" style="fill:#76a363;fill-rule:evenodd"/><path d="M82.4,21.1h-.2c-.2-.1-.3,0-.3.2s0,.4-.2.5a.5.5,0,0,1-.6-.1c-.1-.1-.1-.1-.1-.2v-.2a.4.4,0,0,0-.2-.5H79.8a.9.9,0,0,0-1.1-.1h-.1a.3.3,0,0,1-.1-.2,1.7,1.7,0,0,0,.6-1.2c0-.2.1-.4.1-.7h-.1c-.3.1-.5.4-.9.3s1-1.5,1.5-2.2.4-1.8,1.7-1.7a10.3,10.3,0,0,1,.4,1.4c.3,1.2.4,2.4.6,3.5A7.5,7.5,0,0,1,82.4,21.1Z" style="fill:#74a260;fill-rule:evenodd"/><path d="M82,28.7a.4.4,0,0,0-.1.3c-.1.1-.2.2-.2.3a3.3,3.3,0,0,1-1.2,1.6A7.2,7.2,0,0,1,78.6,32l-2.1.6-2.3.9-1.8,1.1-.8.6c-1-.7-.5-1.3.2-1.8s1.6-.6.6-1.6-.1-.6.2-.8l.7-.5H74a.9.9,0,0,1,.7.1c.5.2,1,1.1,1.4.8s2.3-.3,2.8-1.7.1-.2.1-.3l.3-.3.3-.2a2.6,2.6,0,0,1,2.3-.2Z" style="fill:#74a161;fill-rule:evenodd"/><path d="M82.6,39.8c.2-.3.5-.2.8-.3s1,0,1.4,0a17.1,17.1,0,0,1,3.2,0l.3.2a8.3,8.3,0,0,1,1.5,1.7c.2.2.6.5.3.9a6.3,6.3,0,0,1-3.3.4,4.9,4.9,0,0,1-1.6-.5A4.7,4.7,0,0,1,82.6,39.8Z" style="fill:#a7c397;fill-rule:evenodd"/><path d="M66.4,29l-.7-1.2-1.8-3.1-1.1-2.2a4.7,4.7,0,0,0-.6-.9,1.7,1.7,0,0,1,.5-1.2c.1.1.1.2.2.2h.2a.7.7,0,0,1,.6.4l.3.4,1.8,3.3,1.8,3.1,1,1.1c-.6.6-1.3.4-2,.2A.2.2,0,0,1,66.4,29Z" style="fill:#98b486;fill-rule:evenodd"/><path d="M52.1,73.8h-.5A14.7,14.7,0,0,1,42,72l-.3-.2c-.1-.8.4-1.1,1.1-1.2a7.6,7.6,0,0,1,1.6-.3l.9.2h.3a5.9,5.9,0,0,1,2.7,1.7,2.1,2.1,0,0,0,1.1.4l.9.2C50.9,73.2,51.7,73.1,52.1,73.8Z" style="fill:#edc09c;fill-rule:evenodd"/><path d="M11.1,47.7a8.8,8.8,0,0,1,2.7-2.4,5.3,5.3,0,0,1,4.9-.5l.5.3c-.2,1-1.2.7-1.8,1.1s-.3,1-.6,1.4-.8.8-1.5.7a6.1,6.1,0,0,0-3,0A.8.8,0,0,1,11.1,47.7Z" style="fill:#a6c397;fill-rule:evenodd"/><path d="M17,45.7a.4.4,0,0,1,.5-.2,4.7,4.7,0,0,0,1.7-.4,6.6,6.6,0,0,1,1.9.9,11.7,11.7,0,0,0,3.1,1.2l.9.2.6.2A26.1,26.1,0,0,1,23,49.5a9,9,0,0,0-2.3-.8,12.2,12.2,0,0,1-3.3-1.4C16.7,47,16.6,46.4,17,45.7Z" style="fill:#487c45;fill-rule:evenodd"/><path d="M50.1,73.3a1.1,1.1,0,0,1-.8-.3v-.3a2,2,0,0,1,.8-2.1,2.4,2.4,0,0,0,.7-1.2c0-.1.1-.2.2-.3h.7c.7.7,1.2-.2,1.8-.2l.5.2c.1,1.2,1.5,2,1.4,3.3h0c-.5.5-1.2.7-1.7,1.2h-.5C52.1,73.6,51.1,73.1,50.1,73.3Z" style="fill:#e69e61;fill-rule:evenodd"/><path d="M85.2,54.3l.4.2a16.7,16.7,0,0,1,2.3,2.3c.3.7.6,1.4-.5,1.7s.2.5.1.8a1,1,0,0,1-.4.5,2,2,0,0,1-1.1,0c-.4-.2-.8-.3-1-.6a7.8,7.8,0,0,0-1.6-2,1,1,0,0,0-.8-.8.7.7,0,0,1-.8-.8A7.1,7.1,0,0,1,85.2,54.3Z" style="fill:#3f8335;fill-rule:evenodd"/><path d="M22.7,64.3l-.3-.2a.7.7,0,0,1-.4-.9.9.9,0,0,1,.1-.5,9,9,0,0,0,.8-2.8,4.5,4.5,0,0,0,.3-1.1c.2-.3,0-.6.2-.8h0c.1-.9-.5-1.9.6-2.6s1.2.7,1.8,1.1a3.1,3.1,0,0,1-.3,2.3,6.1,6.1,0,0,0-.5,1.8,11.5,11.5,0,0,1-1.1,3.1A2.7,2.7,0,0,1,22.7,64.3Z" style="fill:#749b65;fill-rule:evenodd"/><path d="M44.4,70.8a1.1,1.1,0,0,0-.8.2H43a.7.7,0,0,0-.9.4c-.1.2-.2.4-.4.4a5.7,5.7,0,0,1-1.8-1.2,3.7,3.7,0,0,1,1.9-.9,1.1,1.1,0,0,0,.9-1.2,2.5,2.5,0,0,1,.4-1.9.6.6,0,0,1,.7,0,15.1,15.1,0,0,0,2.6,1.2,1.9,1.9,0,0,1,1.2.9c-.1,1.9-.6,2.4-2.2,2.1h0A.9.9,0,0,0,44.4,70.8Z" style="fill:#e7a36b;fill-rule:evenodd"/><path d="M43.2,66.6a1.8,1.8,0,0,1-.2,1c-.1.2-.1.3.2.4l.4.3.2.3c0,.2-.1.4-.2.3a.6.6,0,0,0-.6.3c-.3.4-.2.8-.5,1.2h-.3v-.2c-.1-.2-.2-.3-.3-.1l-.3.2a.9.9,0,0,1-1.1.4h-.5a9.5,9.5,0,0,1-2-2,2.3,2.3,0,0,1-.7-1c.3.2.6-.1.9,0a1.1,1.1,0,0,0,.8-.2l.6-.2h.2l-.3.6a.6.6,0,0,0,.1.4h.3a1.6,1.6,0,0,0,1-.5.8.8,0,0,1,.7-.2c.2-.1.5-.2.6-.4a.8.8,0,0,1,.5-.5.5.5,0,0,0,.3-.5C43.2,66.3,43.2,66.4,43.2,66.6Z" style="fill:#e69f64;fill-rule:evenodd"/><path d="M29.1,21.6l.3-2a1.7,1.7,0,0,0-.3-1.4c-.7-1.2-1.9-2-2.4-3.3l-.6-.4c.6-1,1.7-.8,2.5-1.4h.3a3,3,0,0,1,1.4,3,3.8,3.8,0,0,0,.1,1.5,1.3,1.3,0,0,0,.6,1.1c.5.5,1,1,.8,1.8A7.9,7.9,0,0,1,29.1,21.6Z" style="fill:#f8d1bc;fill-rule:evenodd"/><path d="M34.8,62.2c0,.4.1.7.1,1l.3,1.1-.6-.5a9.3,9.3,0,0,1-2.1-2.3l-.7-.8c-1.1-.4-1.2-1.2-1.1-2.2a.9.9,0,0,0-.1-.5v-.2c-.1-.1-.1-.2,0-.2s2.6-.3,3.8.3.2.3.2.5a2.2,2.2,0,0,0,.1,1.4C35.1,60.6,34.5,61.4,34.8,62.2Z" style="fill:#f7cab3;fill-rule:evenodd"/><path d="M35.3,35.1a20.3,20.3,0,0,1,1.1,2.6.8.8,0,0,1-.1.9L36,39c0,.1-.1.2-.2.3s-2.9.8-3.9,2a.5.5,0,0,1-.7,0,3.1,3.1,0,0,1,.2-.8,10.1,10.1,0,0,0,.7-1.5h.1a7.7,7.7,0,0,1,1.4-2.1l.3-.6,1.2-1.1C35.1,35.1,35.2,35.1,35.3,35.1Z" style="fill:#f9ddd0;fill-rule:evenodd"/><path d="M29.8,52.2a6.4,6.4,0,0,0,.2.7.8.8,0,0,0,.8.6h.5a1.3,1.3,0,0,0,1.5-.5c.1-.1.3-.1.5.1l.3.2h.1l.4.2a3.3,3.3,0,0,1,.8,2.2v1.1c0,.5.1,1-.5,1.1a1,1,0,0,1-.6-.9.9.9,0,0,0-1.2-.5,5.8,5.8,0,0,1-1.8.4h-.3c-.2-.2-.2-.5-.4-.7l-.2-.3c-.1-1-.2-2-.2-3S29.8,52.4,29.8,52.2Z" style="fill:#f3b08e;fill-rule:evenodd"/><path d="M90.1,42.3l-.5-.4a7,7,0,0,1-1.5-2,9.7,9.7,0,0,1,3.4-1.1c1-.3,2.1-.3,3.2-.6a.5.5,0,0,1,.6.4,2.2,2.2,0,0,1-.5.8,10.7,10.7,0,0,1-4.4,2.8Z" style="fill:#edbf9b;fill-rule:evenodd"/><path d="M76.8,72.5,75.6,71a11.8,11.8,0,0,1-1.1-1.9,10.8,10.8,0,0,1-.8-1.9c-.1-.3-.1-.5-.2-.8v-.2c.8-.6,1.3-.3,1.7.4a18,18,0,0,0,.8,2.1,6.6,6.6,0,0,0,1.4,2c.2.1.4.4.6.6a1.2,1.2,0,0,1,.3,1.4l-.2.2A1.8,1.8,0,0,1,76.8,72.5Z" style="fill:#98b487;fill-rule:evenodd"/><path d="M66.4,29h.2a14.8,14.8,0,0,1,2.6,2.4c.6.6.3,1.4.3,2a2.4,2.4,0,0,1-.2.8,8.8,8.8,0,0,0-.5,1.5c-.1.5-.2,1.1-.9,1.1s-.3-1.8-.4-2.7A6.2,6.2,0,0,0,66,31.2l-1-1.1-.3-.4,1-.4A.9.9,0,0,1,66.4,29Z" style="fill:#87ad75;fill-rule:evenodd"/><path d="M30.5,47a2.8,2.8,0,0,1-.3,2.2,17,17,0,0,1-3.8,2.6c-.7.4-1.3,1-2.2.3a1.8,1.8,0,0,1-.4-1.4c.8-1.5,2.3-1.8,3.6-2.5l2.2-.8Z" style="fill:#30572e;fill-rule:evenodd"/><path d="M42.9,20.2H42a15.5,15.5,0,0,1-.8-4.7c.1-.7.6-.4,1-.3l1.5.8a2.4,2.4,0,0,0,1.2.7c.4.2.8.4.9.9s-1.1,1.3-1.5,2.1S43.4,19.8,42.9,20.2Z" style="fill:#73a15f;fill-rule:evenodd"/><path d="M34.1,66.8a24.2,24.2,0,0,1,3.1,3.3,1.5,1.5,0,0,1,.6.9c.1.4.2.9-.3,1s-.8.8-1.4,1a.5.5,0,0,1-.8-.1,13.8,13.8,0,0,0-1.4-2.7,3.4,3.4,0,0,1-.9-1.9C33.1,67.6,33.3,67,34.1,66.8Z" style="fill:#73a15f;fill-rule:evenodd"/><path d="M68.9,41.3a1.9,1.9,0,0,1-.5-1c.1-.6.5-.7,1-.7s.1-.1.2-.2a36.5,36.5,0,0,1,5-1.5l.4.2c.3.5,1.3.1,1.3,1h-.2l-.5.2a59.4,59.4,0,0,0-6,1.8Z" style="fill:#a4c097;fill-rule:evenodd"/><path d="M11.8,56.8h-.5c-.1-.2-.2-.4-.5-.3a5,5,0,0,1-1.7-.1c0-.1-.1-.1-.2-.1s-2.2.1-3.2.8l-.4.3H4.9l-.7-.5a2.4,2.4,0,0,1,.7-1.3c1.7-1.4,3.7-1.7,5.2-.7l.2.3c.4.5,1.7.3,1.5,1.4Z" style="fill:#80a56f;fill-rule:evenodd"/><path d="M31.2,41.3l.9-.9a2.1,2.1,0,0,1,1-.6l.7-.2,1.2-.4h.8c.2.4-.2.8-.2,1.2a10.7,10.7,0,0,1-1.5,2.2l-.4.2h-.1a1.6,1.6,0,0,0-1.5.4.9.9,0,0,1-.6.3l-.9.2A10.5,10.5,0,0,1,31.2,41.3Z" style="fill:#f4b595;fill-rule:evenodd"/><path d="M17.6,73.5a7.9,7.9,0,0,1,.2-3.4,4.2,4.2,0,0,1,1-2c1.2.2,1.5,1.4,2.3,2.1a.4.4,0,0,1,.1.3c.1.2,0,.3,0,.4A26.1,26.1,0,0,1,18.5,74C17.9,74.7,17.6,74.2,17.6,73.5Z" style="fill:#a5c197;fill-rule:evenodd"/><path d="M17.6,73.5l.2.4H18l.3-.4a6.3,6.3,0,0,1,1-1.2A12.2,12.2,0,0,1,21,70.8c.1-.1.2-.3.4-.3a1.1,1.1,0,0,1,1.3.6.4.4,0,0,1,.1.3c0,.2-.2.3-.4.4a7,7,0,0,0-2.9,3l-.5.7a.7.7,0,0,1-1.1.3h-.2a.8.8,0,0,0-.2-.4C17.5,74.7,17.6,74.1,17.6,73.5Z" style="fill:#98b586;fill-rule:evenodd"/><path d="M85.2,54.3a1.2,1.2,0,0,0-.5.5,1.1,1.1,0,0,1-.8.5,7,7,0,0,1-1.4.3l-.6.2c0,.1-.1.2-.2.3l-.8.4a3.3,3.3,0,0,1-2.2.3,1,1,0,0,1-.2-1.7l.9-.4c1.2-.3,2.4-.7,3.7-.9a.9.9,0,0,0,.8-.4A2.4,2.4,0,0,1,85.2,54.3Z" style="fill:#2d6e2f;fill-rule:evenodd"/><path d="M29.6,47.4l-.3.3-1.9,1.1-2.9,1.5-.4.3c-.4.5-.8.7-1.3.2s-.4-1,.1-1.4l.3-.4a2.1,2.1,0,0,1,1.9-1.3h1.4a5.9,5.9,0,0,0,1.9-.1Z" style="fill:#2b7232;fill-rule:evenodd"/><path d="M87.2,59.5c0-.1.1-.2.2-.3h.4a8,8,0,0,1,2.1.5,2.5,2.5,0,0,1,.8,1.2l-.9.2a4.7,4.7,0,0,1-1.7.3c-.3-.2-.5-.1-.7.2l-.3.2a32.6,32.6,0,0,0-5.3.9h-.3c-.4-1-.3-1.5.6-1.6a5.2,5.2,0,0,0,3.1-1.2h.6A1.2,1.2,0,0,0,87.2,59.5Z" style="fill:#85a874;fill-rule:evenodd"/><path d="M23.4,65.6a1.6,1.6,0,0,0,.6.8l.4.3v.4l-.3.4-.9.7a.5.5,0,0,0-.2.8.5.5,0,0,1-.1.3l-.3.2c-1.2.3-2-.4-2.8-1s-.5-.8,0-1.2l1.9-1.1A3.5,3.5,0,0,1,23.4,65.6Z" style="fill:#80a86b;fill-rule:evenodd"/><path d="M95.3,38.6l-.5-.3h-.6c-.9-.4-2.1-.5-2.6-1.6s.5-.4.7-.6a31.8,31.8,0,0,0,3.2-1.6.9.9,0,0,1,.4.8A3.4,3.4,0,0,1,95.3,38.6Z" style="fill:#f6cbb7;fill-rule:evenodd"/><path d="M14.1,65.9c-.1-.2-.2-.3-.2-.5a.9.9,0,0,1,0-.7l.2-.3A19.8,19.8,0,0,0,16,61.3l.3-.3c.4-.3.6,0,.9.2s.2.3.2.5a.5.5,0,0,1-.2.4h0c0-.1-.1,0-.1,0h.6c1.2-.2,1.4,0,1.1,1s-.1.7-.2,1.1l-.3.2c-.6.2-1.1.2-1.4-.5A2.6,2.6,0,0,1,15,65.8Z" style="fill:#99b587;fill-rule:evenodd"/><path d="M10.1,54.8H8.9a9.4,9.4,0,0,0-3.7.7c-.1.1-.2,0-.3,0a.8.8,0,0,1,.2-.4,23.3,23.3,0,0,1,1.7-2.6l.3-.4h.2a1.4,1.4,0,0,1,1.1.4l.5.4A2.6,2.6,0,0,1,10.1,54.8Z" style="fill:#8bb078;fill-rule:evenodd"/><path d="M18.4,26.2a8.1,8.1,0,0,0,.7,2.2l.6,1.6h-.4l-3.8-1.4a1.9,1.9,0,0,1,.8-1.5A4.1,4.1,0,0,1,18.4,26.2Z" style="fill:#f9ddd0;fill-rule:evenodd"/><path d="M79.5,25a3.9,3.9,0,0,0,.8-1l.5-.6.3-.6a1.2,1.2,0,0,1,.8-.4c.5,0,.5-.1.6-.6a6.9,6.9,0,0,1,.1,2.5,5.7,5.7,0,0,1-2,2.6l-.3.2-.3.2h-.3c-.5,0-.9-.7-1.5-.3s-.4-.3-.4-.6A1.9,1.9,0,0,1,79.5,25Z" style="fill:#66925a;fill-rule:evenodd"/><path d="M30.8,58.4c0,.4.3.7.4,1.1l.6,1.2v.5c-.3,1,0,2.1-.5,3.1s-.2.6-.6.8a1.4,1.4,0,0,1-1.6-.7l.3-1a8.6,8.6,0,0,0,.4-2.8,4.9,4.9,0,0,0,.6-1.7,1.4,1.4,0,0,1,.2-.6h.1C30.8,58.2,30.8,58.3,30.8,58.4Z" style="fill:#5d8c54;fill-rule:evenodd"/><path d="M99.8,52.5a2.5,2.5,0,0,1-1.1,1.8,3.2,3.2,0,0,1-1.7.9,4.1,4.1,0,0,1-3.8-2v-.4c.5-1,1.3-.1,1.9-.3h.7a4.1,4.1,0,0,0,2.9-.1C99.1,52.3,99.5,52.2,99.8,52.5Z" style="fill:#f4b18f;fill-rule:evenodd"/><path d="M29.8,18.2a14.8,14.8,0,0,1,.1-2.1,3.9,3.9,0,0,0-.9-2.6.4.4,0,0,1-.1-.3h.3a10.6,10.6,0,0,1,3.3,3h.1c-.1.9-.7.5-1.2.6,1.7.9,2,1.8,1.1,2.8s-.8,0-.9-.3A3.8,3.8,0,0,0,29.8,18.2Z" style="fill:#f3bf9b;fill-rule:evenodd"/><path d="M63.2,34c-.4-.1-.8-.5-1.3-.6s-.3-.1-.4-.2h-.1c-.1-.2-.3-.1-.4-.3h-.2l-.3-.2h0l-.3-.5a5.7,5.7,0,0,0-.8-1.3,4.4,4.4,0,0,0-1.2-1.5c-.2-.5-.1-.8.5-.6s.3.3.4.4a.5.5,0,0,0,.4.2l.9.2h.1c.9,1.4,1.8,2.8,2.6,4.2A.4.4,0,0,1,63.2,34Z" style="fill:#789e68;fill-rule:evenodd"/><path d="M42.9.7a.3.3,0,0,0,0,.5,4.1,4.1,0,0,0,.7,1.1,4.8,4.8,0,0,1,.8,1.6c-.2,1.1-.9.9-1.6.7a1.8,1.8,0,0,1-1-.9c-.2-.4-.4-.4-.8-.3s0-2.2.1-3.2l.3-.2A4.1,4.1,0,0,1,42.9.7Z" style="fill:#608e57;fill-rule:evenodd"/><path d="M11.1,47.7a1,1,0,0,0,.9.2,6.2,6.2,0,0,1,1.9-.2h1.9c.4.2.7,0,.7-.5h0c1,0,.5,1.1,1.1,1.5a1.1,1.1,0,0,1,.2,1.3c-.6.4-1.1.1-1.6-.1a5.3,5.3,0,0,0-1.2-.3l-.5-.4a4,4,0,0,0-1.9-.1c-.7.1-1.9.5-2.1-.9A1,1,0,0,1,11.1,47.7Z" style="fill:#98b486;fill-rule:evenodd"/><path d="M23.9,63.7a.8.8,0,0,1-.1-.9,5.6,5.6,0,0,0,.4-1.2c.2-.8.5-1.6.7-2.4s.2-.3.2-.5,1.2-.6,1.3.4.5.5.7.9a2.1,2.1,0,0,1-.4,1.1A7,7,0,0,1,23.9,63.7Z" style="fill:#84ac72;fill-rule:evenodd"/><path d="M72.8,55.2c-.1.1-.1.2-.2.2s-.6-1.3-.7-2-.2-.3-.2-.5a1.3,1.3,0,0,1-.1-.6c.1-1.4-.3-1.9-1.8-1.7S67.7,50,67.1,49v-.3a1.1,1.1,0,0,0,.8-.3,1.4,1.4,0,0,1,.9-.1h1.5c.5.7,1.6.4,2,1.3a5.4,5.4,0,0,1,.5,2.2v3.3Z" style="fill:#f0a36e;fill-rule:evenodd"/><path d="M93.3,53.1l.5.2A7,7,0,0,0,97,55.2a8.3,8.3,0,0,1-3.5.5l-.7-.2c-.6-.5-1.7-.6-1.6-1.8S92.4,52.6,93.3,53.1Z" style="fill:#ed955a;fill-rule:evenodd"/><path d="M26.1,51.4a3.3,3.3,0,0,1,1-.6l2-1.1a2.2,2.2,0,0,1,1.1-.5c0,.1-.1.2-.1.3s-.2.5-.5.6a11.8,11.8,0,0,0-1.3,1.8,6.1,6.1,0,0,0-.5,1.2,1.4,1.4,0,0,1-.2.7c-.7.4-1.2-.1-1.7-.5S25.9,52,26.1,51.4Z" style="fill:#2d7434;fill-rule:evenodd"/><path d="M86.3,49.9h.4a1.9,1.9,0,0,1,1.8.3,1.9,1.9,0,0,0,1,.3c.4,0,.5.2.6.5a1.5,1.5,0,0,1-.3,2c-1.1.2-1.9-.5-2.8-.8A3.4,3.4,0,0,1,86.3,49.9Z" style="fill:#89af76;fill-rule:evenodd"/><path d="M35.5,72.8c.2.1.4,0,.5,0h.3A4,4,0,0,1,38,76a1,1,0,0,1-.2.7c-.7.4-1.1.2-1.5-.5l-1.7-2.7c-.1-.3-.3-.3-.6-.3h-.2c-.1-.2,0-.4.2-.6A1.1,1.1,0,0,1,35.5,72.8Z" style="fill:#98b487;fill-rule:evenodd"/><path d="M43.4,16.4a4.3,4.3,0,0,1-1.6-.9.5.5,0,0,0-.6,0A2,2,0,0,1,41,14a1.4,1.4,0,0,1,1.5,0h.1a21.1,21.1,0,0,0,3.3,1.8c.3.9-.3.9-.9.9A4.7,4.7,0,0,1,43.4,16.4Z" style="fill:#5c8c52;fill-rule:evenodd"/><path d="M78.2,14.2c.4-.2.6-.4.5-.9s-.1-.7-.1-1,0-.4.2-.4a3.1,3.1,0,0,1,1.6-.6A4.9,4.9,0,0,1,81,13c-.9.6-1,1.6-1.5,2.4s-.7,1.3-1.6,1.1-1-1.1.1-2.1h0C78.1,14.4,78.2,14.3,78.2,14.2Z" style="fill:#77a262;fill-rule:evenodd"/><path d="M41,3.4c.3-.4.1-.8.3-1.1h.2a1.6,1.6,0,0,1,.4.7l1,1.5c.4.2.8.4.5,1a2.8,2.8,0,0,1,.1.9c0,.1-.1.1-.2.1h-.1a1.4,1.4,0,0,0-1.5-.2H41V5.7h0A8.1,8.1,0,0,1,41,3.4Z" style="fill:#75a262;fill-rule:evenodd"/><path d="M21.7,66.2a.5.5,0,0,1-.4.6c-.1,0-.2,0-.2.1s-.9.4-1.3.8a.3.3,0,0,0-.1.2h.5c.3.2.7.3.8.6s.6.5,1,.4a.8.8,0,0,1,.7.2v.2l-.3.5c-.2.4-.7.5-.9.8H21v-.4c0-.1,0-.1-.1-.1l-1-.6-.3-.3a3,3,0,0,0-.4-.8,1,1,0,0,0-.4-.5l.2-.3A4.7,4.7,0,0,1,21.7,66.2Z" style="fill:#85ad75;fill-rule:evenodd"/><path d="M31.3,79.9a1.1,1.1,0,0,1,1.2.7.4.4,0,0,1,.1.3,1.2,1.2,0,0,0,.7.5h0c.3.6,1.1,1.1.5,2a3.2,3.2,0,0,1-.8.9l-.3-.2c-.4-.1-.5-.4-.6-.8S31.6,81.1,31.3,79.9Z" style="fill:#789f66;fill-rule:evenodd"/><path d="M59.2,10.3v2.2c-.9.8-1.2.8-1.7-.3V12c.1,0,.1-.1.1-.2h-.1a5,5,0,0,0-.4-1.3.8.8,0,0,1,.3-1l.4-.5a2.7,2.7,0,0,1,.8.7Z" style="fill:#54874d;fill-rule:evenodd"/><path d="M34.1,66.8a3.1,3.1,0,0,1-.5,1l-.3.5a4.4,4.4,0,0,1-2.8-2.7c.9-1.4.9-1.4,2.3-.5A10.9,10.9,0,0,0,34.1,66.8Z" style="fill:#6b9c59;fill-rule:evenodd"/><path d="M27.1,60h-1c-.1.1-.3,0-.5,0s-.2-.1-.2-.2,0-.3.1-.3l.4-.3a.4.4,0,0,0,.1-.3c.1-.1-.1-.2-.2-.2h-.7c.2-.7.3-1.5.5-2.2h.8a1.7,1.7,0,0,1,1,1A6.9,6.9,0,0,1,27.1,60Z" style="fill:#7fa86b;fill-rule:evenodd"/><path d="M80.2,26.8c.1-.1.1-.2.2-.2s1.3-1.5,1.8-2.3.2-.1.4,0a13.6,13.6,0,0,1-.4,4l-.2.4h-.1C80.7,28.6,80.4,27.7,80.2,26.8Z" style="fill:#76a266;fill-rule:evenodd"/><path d="M32.6,19.6a1,1,0,0,0,0-.9,1.8,1.8,0,0,0-.8-.9l-.3-.3a1.3,1.3,0,0,1-.7-1.3h.6c.2,0,.3.1.2.4a.3.3,0,0,0,.3.3,1.1,1.1,0,0,0,.7-.3A6.1,6.1,0,0,1,34,19.3c-.2.6-.5,1-1.2.8h-.3C32.4,20,32.4,19.8,32.6,19.6Z" style="fill:#f1b990;fill-rule:evenodd"/><path d="M79.2,15.2c.2-.6.3-1.2.5-1.7a.6.6,0,0,1,.6-.5H81a4.7,4.7,0,0,1,.4,1.7,1.9,1.9,0,0,0-.7.8,2.9,2.9,0,0,1-.7,1.2C78.7,16.7,78.6,16.4,79.2,15.2Z" style="fill:#598a50;fill-rule:evenodd"/><path d="M15,65.8a8,8,0,0,0,1.5-2.1c.2-.3.2-.3.6,0l.4.2h.7c1.1.3.9.9.3,1.5h-.1A12.7,12.7,0,0,1,15,65.8Z" style="fill:#a5c197;fill-rule:evenodd"/><path d="M67.9,36.8a8.4,8.4,0,0,0,.7-2.4,1.3,1.3,0,0,1,.3-.5c.8.4.7,1.4,1.2,2.1s-.4.8-.3,1.3l-.5.8c-.3.3-.6.8-1.2.6s-.4-.6-.3-.9A3.1,3.1,0,0,0,67.9,36.8Z" style="fill:#7ba16a;fill-rule:evenodd"/><path d="M28.6,13.1a1,1,0,0,1-.6.9l-1.9.5-1.5-1a2.1,2.1,0,0,1,1.4-.7A3.4,3.4,0,0,1,28.6,13.1Z" style="fill:#f6dacd;fill-rule:evenodd"/><path d="M34.3,56.5v1.3c.1.1.1.1,0,.2s-.6-.2-.8,0a1.4,1.4,0,0,1-1.4.1l-1.3-.4h-.2a3,3,0,0,1-.5-1.5c.3-.1.4.1.5.2h0a4.5,4.5,0,0,0,2.3-.1C33.3,56.4,33.8,56.2,34.3,56.5Z" style="fill:#f5c1a7;fill-rule:evenodd"/><path d="M38,76l-.5-.7c-.3-.7-.7-1.4-1.1-2.2a.4.4,0,0,1-.1-.3,1.5,1.5,0,0,1,2-.3v.3a8,8,0,0,1-.3,3.1Z" style="fill:#a2bf98;fill-rule:evenodd"/><path d="M47.7,31.9h-.1a4.2,4.2,0,0,0-2.2.5,1.9,1.9,0,0,1-1.5.2,3.2,3.2,0,0,1-.9-.3l-1.1-.2H40.7a4.9,4.9,0,0,1,1.6-.5,13.4,13.4,0,0,1,4.9,0Z" style="fill:#f1d7ce;fill-rule:evenodd"/><path d="M69.8,37.3a.5.5,0,0,1-.1-.6,1.3,1.3,0,0,0,.1-.6c0-.1-.1-.2,0-.3a.9.9,0,0,0-.1-.5,6.1,6.1,0,0,1,.8-2.6c0-.3.2-.4.4-.6h.4a1.4,1.4,0,0,1,.8,1.6H72c-.7.6-.7.6-.4,1.5Z" style="fill:#83ab72;fill-rule:evenodd"/><path d="M32.8,65.1a2.7,2.7,0,0,1-1.3-.2c-.1-.1-.3,0-.4.1s0,.3-.1.4l-.4.2a.5.5,0,0,1,0-.7,1.4,1.4,0,0,0,.2-.6l.6-2.3.4-.8a4.3,4.3,0,0,0,.2,1.1A9.8,9.8,0,0,0,32.8,65.1Z" style="fill:#719f61;fill-rule:evenodd"/><path d="M10.5,48.2a1,1,0,0,0,.7.4l.5.2a1.5,1.5,0,0,0,1.3-.2h.3a.6.6,0,0,1,.7.1l.5.6h-.9a6.6,6.6,0,0,0-2.4.3h-.6c-.1,0-.3-.1-.3-.2l-.5-.7C10,48.5,10.1,48.2,10.5,48.2Z" style="fill:#70985d;fill-rule:evenodd"/><path d="M87,52.1l1-.3a1,1,0,0,1,.7.2l.8.8c.2.1.2.2.3.3a2,2,0,0,1-.2,1.3h-.4A4.3,4.3,0,0,1,87,52.1Z" style="fill:#418037;fill-rule:evenodd"/><path d="M26.1,53.3a3.8,3.8,0,0,1,1.5.5c0,.8-.1,1.5-.1,2.3s-1.3.4-1.4-.3-.3-.7-.5-1.1A1,1,0,0,1,26.1,53.3Z" style="fill:#3e7f42;fill-rule:evenodd"/><path d="M73.5,66.4l-.4.2-.4.5-.7.2h-.8l-1.1-.2a6.4,6.4,0,0,1-.2-.7c-.3-.5.1-.6.4-.8h2.3c.5.1,1,.2,1,.9Z" style="fill:#9bb98a;fill-rule:evenodd"/><path d="M99.8,52.5l-.9.3-.8.4a2.8,2.8,0,0,1-2.2-.2l-.4-.2-.2-.2h0c-.1-.1-.1-.1-.1-.2h.1c.1,0,.1-.1.2,0a15.1,15.1,0,0,0,4.2-.5h.2A.6.6,0,0,1,99.8,52.5Z" style="fill:#f8dacb;fill-rule:evenodd"/><path d="M87.4,59.2l-.7-.3a1,1,0,0,1-.4-.5c0-.1-.1-.2-.1-.4s.1-.2.1-.2l1.2.3.3-.2v-.2a2.8,2.8,0,0,0,.1-.9,10.8,10.8,0,0,1,1.8,2.4c-.6.6-1.2-.4-1.9,0s-.3-.1-.4,0Z" style="fill:#327e37;fill-rule:evenodd"/><path d="M70.3,65.8a2.1,2.1,0,0,0-.4.6l-.3.2-1-.6h-1a.7.7,0,0,1-.1-.6,2.8,2.8,0,0,1,3.5-.8A.9.9,0,0,1,70.3,65.8Z" style="fill:#f8d4c3;fill-rule:evenodd"/><path d="M89.2,54.5c.1-.1.1-.1.1-.2a2.3,2.3,0,0,1,1.2-.6H91l.3.2,1.2,1.1a.9.9,0,0,1,.3.6A6.3,6.3,0,0,1,89.2,54.5Z" style="fill:#e9803c;fill-rule:evenodd"/><path d="M58.7,28.7c-.3.1-.4.3-.5.6l-2.7-1.8a.8.8,0,0,1,.7-.2H57c.2,0,.3-.1.5.1a3.9,3.9,0,0,1,.8,1C58.4,28.5,58.6,28.6,58.7,28.7Z" style="fill:#8daf7c;fill-rule:evenodd"/><path d="M25.9,54.8h.2a.5.5,0,0,1,.3.6.4.4,0,0,0,.2.5,1.4,1.4,0,0,0,.9.1,2.3,2.3,0,0,1-.1,1.4.8.8,0,0,1-.8-.3,1,1,0,0,0-.5-.4l-.2-.3h0l-.5-.2c-.3-.2-.3-.4-.3-.8S25.4,54.8,25.9,54.8Z" style="fill:#4b8545;fill-rule:evenodd"/><path d="M67.8,37.8a.4.4,0,0,1,.1.3c.1.2.2.3.4.3h.3l.7-.2c-.1.4-.1.7-.2,1.1s.1.3.3.4l-.6.5-.4.2-.9-1.8C67.6,38.3,67.6,38,67.8,37.8Z" style="fill:#84a577;fill-rule:evenodd"/><path d="M18.5,65.4a.4.4,0,0,1,.1-.3,1,1,0,0,0-.4-1.2h.3c.3-.8.8-.7,1.3-.2a2.9,2.9,0,0,1,.7,1.2h.3A4.6,4.6,0,0,1,18.5,65.4Z" style="fill:#9cba8c;fill-rule:evenodd"/><path d="M38.3,72.5a6.9,6.9,0,0,1-2,.3H36l.3-.4c0-.5.3-.6.7-.7h.2c.5.1.6-.3.6-.6A2.5,2.5,0,0,1,38.3,72.5Z" style="fill:#7fa86f;fill-rule:evenodd"/><path d="M72.3,49.7a3.5,3.5,0,0,0-1.4-.3c-.3-.1-.5-.2-.5-.6a.6.6,0,0,1-.1-.4h.4a.9.9,0,0,1,1,.2l.3.2A1.7,1.7,0,0,1,72.3,49.7Z" style="fill:#f0af81;fill-rule:evenodd"/><path d="M50.1,73.3h.3c.3-.1.3-.5.6-.4h.7l.3.2c.1.1.2.3.4.2s.1-.2.2-.3.2-.1.3.1l.2.5a1.8,1.8,0,0,1-1,.2l-1.7-.4Z" style="fill:#e7a46c;fill-rule:evenodd"/><path d="M76.3,39.1l-.3-.2a1.4,1.4,0,0,1-1-.8,7.8,7.8,0,0,1,2.2.3c.2,0,.3.3.3.4A1.7,1.7,0,0,1,76.3,39.1Z" style="fill:#87ac7d;fill-rule:evenodd"/><path d="M33.8,83.4c-.1-.4-.1-.7-.2-1l-.3-1,.4.3a.7.7,0,0,0,.6.2h.6A5.3,5.3,0,0,1,33.8,83.4Z" style="fill:#8faf80;fill-rule:evenodd"/><path d="M32.8,20.1l1.2-.8a1.4,1.4,0,0,1,.2,1.1h-.3A.7.7,0,0,1,32.8,20.1Z" style="fill:#789d67;fill-rule:evenodd"/><path d="M53.6,73.5a1.4,1.4,0,0,1,.2-.6c0-.3.2-.4.5-.4l1-.2L55,73A3.4,3.4,0,0,1,53.6,73.5Z" style="fill:#e7a46c;fill-rule:evenodd"/><path d="M52.8,32c0,.1-.1.3-.1.4s-.4.5-.9.3-.3-.2-.5-.1h-1c.2-.2.5-.2.8-.3A4.7,4.7,0,0,1,52.8,32Z" style="fill:#f8cfbb;fill-rule:evenodd"/><path d="M87.6,59h.2a.6.6,0,0,1,.7-.1l.3.2a1.5,1.5,0,0,0,.9.2c.1,0,.2.1.2.3s-.3.2-.5.1L88,59.4l-.4-.2c0-.1-.1-.1,0-.1Z" style="fill:#8eb380;fill-rule:evenodd"/><path d="M96,73.1a3.2,3.2,0,0,1,.9-.8l.2.3c.2.2.1.4-.1.4Z" style="fill:#a7c397;fill-rule:evenodd"/><path d="M22.7,93.2l1,.2a.8.8,0,0,1-.5.5c-.1.1-.2.1-.3-.1S22.6,93.4,22.7,93.2Z" style="fill:#76997e;fill-rule:evenodd"/><path d="M30.6,56.5l-.5-.2V56h.4c.2,0,.2.1.2.2S30.6,56.4,30.6,56.5Z" style="fill:#f5b99a;fill-rule:evenodd"/><path d="M29.6,50.1c.1-.3.3-.4.5-.6a1.3,1.3,0,0,1-.2.9Z" style="fill:#525795;fill-rule:evenodd"/><path d="M22.7,92.7v.5a.5.5,0,0,1-.3-.5Z" style="fill:#76997e;fill-rule:evenodd"/><path d="M23.7,93.4c.1,0,.1-.1.2-.2A.2.2,0,0,1,23.7,93.4Z" style="fill:#76997e;fill-rule:evenodd"/><path d="M69.4,66.9c0-.1.1-.2.2-.3S69.5,66.8,69.4,66.9Z" style="fill:#f8d4c3;fill-rule:evenodd"/><path d="M60.2,32.7c0-.1-.1-.1-.2-.1S60.2,32.6,60.2,32.7Z" style="fill:#f8d1be;fill-rule:evenodd"/><path d="M32.2,39h0Z" style="fill:#a7c397;fill-rule:evenodd"/><path d="M76.1,39.1h0Z" style="fill:#87ac7d;fill-rule:evenodd"/><path d="M41,5.6v.2h0Z" style="fill:#71a05d;fill-rule:evenodd"/><path d="M81.7,29.3l.2-.3C81.9,29.1,81.8,29.2,81.7,29.3Z" style="fill:#80a96b;fill-rule:evenodd"/><path d="M55,27.3h.3C55.1,27.5,55,27.4,55,27.3Z" style="fill:#8daf7c;fill-rule:evenodd"/><path d="M30.8,58.4h-.2V58Z" style="fill:#f5c1a7;fill-rule:evenodd"/><path d="M7.4,51.8l-.3.3C7.2,52,7.2,51.9,7.4,51.8Z" style="fill:#8bb078;fill-rule:evenodd"/><path d="M73.8,22.8h-.4l-.4-.2a3.3,3.3,0,0,1-.4-1.4v-.4a1.9,1.9,0,0,1,.2-1.3c.2-.1.1-.3.3-.5h.1a6.5,6.5,0,0,1,2.1-.7c.1.9-.7,1.5-.5,2.4A3.2,3.2,0,0,1,73.8,22.8Z" style="fill:#7da16d;fill-rule:evenodd"/><path d="M73.1,19.1c-.1.2-.1.4-.3.5S72.9,19.3,73.1,19.1Z" style="fill:#98b486;fill-rule:evenodd"/><path d="M16.5,62.2a.7.7,0,0,0,.7-.5.2.2,0,0,0-.2-.2l-.7-.5v-.3c.1-.1.1-.3.2-.5h0c.2-.2,0-.5.3-.7s.1-.3.2-.5l1.7-.5h.2V59a3.2,3.2,0,0,1-1.4,3.2l-.3.2c0,.1-.1.2-.2.3h-.5A.5.5,0,0,1,16.5,62.2Z" style="fill:#84a774;fill-rule:evenodd"/><path d="M16.8,59.5a.9.9,0,0,1-.3.7C16.5,59.9,16.5,59.7,16.8,59.5Z" style="fill:#99b587;fill-rule:evenodd"/><path d="M16.5,60.2a.8.8,0,0,1-.2.5A.8.8,0,0,1,16.5,60.2Z" style="fill:#99b587;fill-rule:evenodd"/><path d="M91.3,53.8h-.5c-.6,0-1.1-.2-1.2-.9a.3.3,0,0,0-.1-.2l.6-1.9.3-.3c1.2.2,1.9,1.2,2.9,1.7s.1.4,0,.5v.3Z" style="fill:#f4c29e;fill-rule:evenodd"/><path d="M93.3,52.8a1.4,1.4,0,0,0-1-.8H92a2.2,2.2,0,0,1-1.3-1l-.3-.3a2.7,2.7,0,0,1,.6-1.2,6,6,0,0,1,.9,1.3,3,3,0,0,0,1.4,1.1h.3c.3,0,.5,0,.7.3s.6.2,1,.3v.2h-.6C94.2,52.5,93.8,52.8,93.3,52.8Z" style="fill:#f7d2b9;fill-rule:evenodd"/><path d="M32.6,19.6v.5c-.1.3-.4.4-.7.5a12.5,12.5,0,0,1-.8-1.2l-.2-.2a2.4,2.4,0,0,1-1-1,1.9,1.9,0,0,1,1.3.2l.4.3A1.7,1.7,0,0,0,32.6,19.6Z" style="fill:#f5c8a8;fill-rule:evenodd"/><path d="M43.4,16.4h2.1c.2,0,.3-.1.4-.4l.6.2,2,.7h1.3c.6,0,.7-.2.4-.8L49.6,15c.1-.1.2-.2.2-.3a1.1,1.1,0,0,1,1-.5h.3c1.3.7,1.8,2,2.3,3.3s.2.7-.4.7H51.9c-.3,0-.4,0-.6.2H50.1a3.4,3.4,0,0,1-4.4-.7,3.9,3.9,0,0,0-1.4-.8A2,2,0,0,1,43.4,16.4Z" style="fill:#669259;fill-rule:evenodd"/><path d="M43.4,5.4a3.1,3.1,0,0,0-.5-1h.4a.8.8,0,0,0,.9-.3c0-.1.1-.1.2-.1s.4.4.6.6l1.2,2c.7,1.4,1.7,2.7,2.5,4a1.2,1.2,0,0,1,.4.8h-.4c-.2-.1-.4-.4-.7-.3a1.2,1.2,0,0,0-.6.6,6.2,6.2,0,0,1-1.1-1.7L44.2,6.3Z" style="fill:#5a8a51;fill-rule:evenodd"/><path d="M49.1,14.5l.3.2Z" style="fill:#669259;fill-rule:evenodd"/><path d="M49.4,14.7c0,.1.1.2.2.3S49.4,14.8,49.4,14.7Z" style="fill:#669259;fill-rule:evenodd"/><path d="M22.4,71.8l.3-.3a1.1,1.1,0,0,1,1.4,0l1,.7.3.2c.2.3.4.5.3.9l-1.2-.2c-.5-.2-.9-.4-1-.8a.8.8,0,0,0-.8-.5Z" style="fill:#95b783;fill-rule:evenodd"/><path d="M27.6,73H26.1a.7.7,0,0,1,1-.5c.2.1.5.2.6.4Z" style="fill:#79a56e;fill-rule:evenodd"/><path d="M25.7,73.3l-.6-.5c.5-.4.8-.3,1,.2h.1Z" style="fill:#79a56e;fill-rule:evenodd"/><path d="M27.1,80.4c.3-1.5.7-3,1.1-4.5s.2-.2.4-.2a2.7,2.7,0,0,1,.8.7l.9,1.5a11.9,11.9,0,0,1,.8,2H29.7a1.4,1.4,0,0,0-1.4.2A2.5,2.5,0,0,1,27.1,80.4Z" style="fill:#a7c397;fill-rule:evenodd"/><path d="M71.1,25.5a1.7,1.7,0,0,0,1-.3,1.8,1.8,0,0,1,1-.7c.7.8.1,1.6-.1,2.3s0,1.1.8,1.2.9.7.6,1.3-.5.3-.8.2l-.3-.2c.1,0,.1.1,0,.2a1.8,1.8,0,0,1-.5.7,2.8,2.8,0,0,1-1.5.6,9.9,9.9,0,0,0-1.8-.2c-.6-.1-1-.4-.9-1.1s.2-.2.3,0h.2c.6-.2,1-.4.9-1.1a3.4,3.4,0,0,1,1.1-2.9Z" style="fill:#81a572;fill-rule:evenodd"/><path d="M68.6,29.5l1,.9c.7.2,1.3.6,1.1,1.4s-.3,1.8-1.6,1.6a1.9,1.9,0,0,1,.1-.8.9.9,0,0,0-.3-.7l-1.2-1.2a7.1,7.1,0,0,1-1-1.4.4.4,0,0,0-.1-.3,4.5,4.5,0,0,1,2,0v.4Z" style="fill:#769d63;fill-rule:evenodd"/><path d="M71.1,25.5c0,.2,0,.3-.1.4a26.8,26.8,0,0,0-.7,2.7c0,.1-.1.3-.1.4a1.2,1.2,0,0,1-.5.5c-.2.1-.4,0-.6,0l.5-.4a.6.6,0,0,0,0-.6c-.2-.2-.3-.4-.5-.5a.9.9,0,0,1-.1-.5c0-.1.1-.2.1-.4a1.7,1.7,0,0,1,1.3-1.3Z" style="fill:#98b984;fill-rule:evenodd"/><path d="M68.6,29.5v-.3l.3.3Z" style="fill:#98b984;fill-rule:evenodd"/><path d="M70.3,65.8l.3-.6.2-.5.3-.3a1.8,1.8,0,0,1,1.4.4,1.4,1.4,0,0,0,2.1,0,11.2,11.2,0,0,1,3.7-1.7h.4a1.5,1.5,0,0,1,.7.3c.6.2,1.2.4,1.4,1.1a.6.6,0,0,1-.1.4,2.6,2.6,0,0,1-2.7.2v-.2c-.3-.4-.6-.5-1-.2l-.3.3-1.3,1.6a.8.8,0,0,1-.7-.2.6.6,0,0,0-.7-.1h-.3a1.1,1.1,0,0,0-1.2-.4H70.8C70.6,66.1,70.5,66,70.3,65.8Z" style="fill:#8fb17e;fill-rule:evenodd"/><path d="M78,65.1a2.1,2.1,0,0,0,1.5-.3,5,5,0,0,1,1.2-.2.9.9,0,0,1,1.2.5v.8l-.6.4a.5.5,0,0,1-.7-.2l-.4-.2h-1A12.5,12.5,0,0,0,78,65.1Z" style="fill:#9ebd8d;fill-rule:evenodd"/><path d="M94.3,52.1l-.7-.3.6-.2c.2.1.4.2.3.3S94.4,52.1,94.3,52.1Z" style="fill:#eaaa76;fill-rule:evenodd"/><path d="M26.7,14.9a8.2,8.2,0,0,1,1.9,2.2,2.8,2.8,0,0,1,.5,1.1l-1.5-1.1-.3-.4-.8-1.3A.4.4,0,0,1,26.7,14.9Z" style="fill:#ebaf7d;fill-rule:evenodd"/><path d="M15,49.6a1.5,1.5,0,0,1,.9-.2l1.8.5a16,16,0,0,1,3.1,1l.5.5c0,.2.1.3.1.4a5.9,5.9,0,0,1-1.5,2h-.4a.2.2,0,0,1-.2-.2h-.1a12.4,12.4,0,0,0-1.7-2.3,1.7,1.7,0,0,0-1.3-.8l-.4-.2Z" style="fill:#a6c396;fill-rule:evenodd"/><path d="M18.7,55.6a12.5,12.5,0,0,0-1.9.3,3.7,3.7,0,0,1-1.8-.1,6.7,6.7,0,0,1,1.4-.9l2.5-1.2h.3l.3.2h0c.4.3.3.8.3,1.3A.8.8,0,0,1,18.7,55.6Z" style="fill:#739b60;fill-rule:evenodd"/><path d="M11.8,56.5c-.2-.3-.6-.4-.9-.6a1.6,1.6,0,0,1-.6-.8,8.6,8.6,0,0,1,2.8.4,3.5,3.5,0,0,0-.5.8l-.3.2Z" style="fill:#729b5f;fill-rule:evenodd"/><path d="M85.2,65.1h-.3a5.7,5.7,0,0,0-1.3-.8l-.4-.4c0-.9.9-1,1.5-1.2a7.2,7.2,0,0,0,2.7-1.5h0c.1-.1.2-.1.2,0a2.8,2.8,0,0,1-.8,2.1c-.2.2-.5.4-.6.7l-.6.5A.5.5,0,0,0,85.2,65.1Z" style="fill:#a2bf91;fill-rule:evenodd"/><path d="M87.6,61.2h-.2c.3-.3.3-.3.7,0Z" style="fill:#9cbb89;fill-rule:evenodd"/><path d="M53,18.2a.6.6,0,0,0,.1-.4,8.3,8.3,0,0,0-.7-1.3,17.1,17.1,0,0,1-1.3-2.3h1.1a1,1,0,0,0,.9-.4l.3-.2a1.9,1.9,0,0,1,1,.5c.1.2,0,.4,0,.6s0,.1.1.2h.2a.1.1,0,0,1,.1-.1A2,2,0,0,1,56,13.4a1.9,1.9,0,0,1,1-.5c.2-.2.3-.4.5-.4s.6,2.7.3,4a5.4,5.4,0,0,0-.5,1.1l-.3.2h-.4a.6.6,0,0,1-.6-.4c-.3-.9-.8-.7-1.3-.2s-.1.2-.1.4-.7.8-1.3.8Z" style="fill:#7da768;fill-rule:evenodd"/><path d="M57.2,16.7a20,20,0,0,0,.4-2.4,10.9,10.9,0,0,1-.1-1.8v-.3l.3.3h.3c.4-.1.8.1,1.1-.1v2.9c0,.2-.1.3-.2.5a5.9,5.9,0,0,0-.2,1.3,6,6,0,0,1-.6,1.9l-1,1.5-.2-.2a1.1,1.1,0,0,1-.3-1.6c.2-.4.1-.8.3-1.1h0C57.4,17.4,57,17,57.2,16.7Z" style="fill:#67935a;fill-rule:evenodd"/><path d="M53.3,18.4l.5-.4a.8.8,0,0,0,.5-.8h0c.1-.1.1-.3.2-.5a.2.2,0,0,1,.2-.2l.8-.3c.3-.3.6-.1.9.1a.2.2,0,0,1,0,.3l-.2.2V17l.6.7c.3,1-.3,1.7-.8,2.4h-.2c-.5-.2-1.2-.1-1-1s-.2-.4-.5-.4h-.6Z" style="fill:#85ad72;fill-rule:evenodd"/><path d="M56,20.1a2.8,2.8,0,0,1,.3-1.3,5.4,5.4,0,0,0,.5-1.1h.4c.3.5.3.6,0,1a.4.4,0,0,0-.2.5c0,.4-.2.7,0,1.1A1.3,1.3,0,0,1,56,20.1Z" style="fill:#6f9860;fill-rule:evenodd"/><path d="M54.8,19.1l.5.5a1.2,1.2,0,0,1,.5.5l-.4.5c-.2.1-.4.1-.5-.1l-.7-1.1v-.3h.6Z" style="fill:#a4c194;fill-rule:evenodd"/><path d="M34,72.7a.8.8,0,0,1-.2.5,3.1,3.1,0,0,0-1-.5l-.5-.2a1.4,1.4,0,0,1-1.1-.1h-.5c-.5-.1-.9.2-1.3.2h-.3a.2.2,0,0,1-.3,0c-.5-1.7.2-3.3.8-4.8s1-.8,1.6-.2a9.8,9.8,0,0,1,2.1,2.8C33.7,71.2,34.6,71.7,34,72.7Z" style="fill:#6d9d59;fill-rule:evenodd"/><path d="M28.9,72.8h.2l-.2.2h-1v-.2A.7.7,0,0,1,28.9,72.8Z" style="fill:#79a56e;fill-rule:evenodd"/><path d="M57.5,11.8h0Z" style="fill:#67935a;fill-rule:evenodd"/><path d="M50.8,14l.3-.3Z" style="fill:#669259;fill-rule:evenodd"/><path d="M37.5,39.1c0-.3-.2-.4-.4-.6s-.3-.3-.1-.5a10.3,10.3,0,0,1,3.1-2.4l.7-.4a10.9,10.9,0,0,1,2.3-.9,11.1,11.1,0,0,1,3.6-.4h3.4a20.7,20.7,0,0,1,4.6,2l.8.5c.7,1-.2.9-.7,1l-4.5.5a4.4,4.4,0,0,0-1.5.5A16,16,0,0,0,44.6,40a1.6,1.6,0,0,1-1.2.2,1.2,1.2,0,0,0-1.7-.2c-.8.5-1.7.1-2.5.4A2.5,2.5,0,0,1,37.5,39.1Z" style="fill:#f4c19e;fill-rule:evenodd"/><path d="M48.6,38.3a1,1,0,0,1,.5-.4l2.8-.6a2.2,2.2,0,0,0,.8,0,9.7,9.7,0,0,1,2.4-.2h.4v-.4a9.6,9.6,0,0,1,3,1l.5.2c.1,0,.2,0,.2.1l.3.2h0a.5.5,0,0,1,.3.6,30.7,30.7,0,0,1-2.3,3.9c-.8.2-1.3-.5-1.9-.8a20.4,20.4,0,0,0-5.2-2.4C49.8,39.1,49,39.1,48.6,38.3Z" style="fill:#e9a973;fill-rule:evenodd"/><path d="M57.5,42.5c.2-.4,0-.7,0-1.1a.6.6,0,0,1,.4-.6c.6-.1.7-.6.7-1.1v-.4l.2-.4.6-.3c.2-.1.1-.3.1-.5h.4l.3.2,1.2.8a.8.8,0,0,1,.1.7,6.4,6.4,0,0,1-3.7,3.1h-.3A.2.2,0,0,1,57.5,42.5Z" style="fill:#eaad7b;fill-rule:evenodd"/><path d="M59,37.8l-.5-.2Z" style="fill:#eaad7b;fill-rule:evenodd"/><path d="M59.5,38.1l-.3-.2Z" style="fill:#eaad7b;fill-rule:evenodd"/><path d="M87.4,61.2c-.1.2-.1.4-.2.6a1.1,1.1,0,0,1-.6.7l-.5.3a.9.9,0,0,1-.7.3.5.5,0,0,0-.6.1l-1.3.5-.3.2h-.3a1,1,0,0,1-1.5-.5c-.4-.5-.2-.9.3-1.2a13.1,13.1,0,0,1,2.8-.9h2.9Z" style="fill:#9cbb89;fill-rule:evenodd"/><path d="M81.7,62.2c-.1.1-.1.3-.2.4s0,.5.3.7l1.1.6c0,.7-.4,1-1,1.2a3.1,3.1,0,0,1-1.2-.5v-.2c-.5-.7.2-1.3.3-2s.2-.3.4-.2Z" style="fill:#8aab78;fill-rule:evenodd"/><path d="M90.4,36.6h.4c.2.2.4.1.5.3h0a.7.7,0,0,1,.3.9,1,1,0,0,1-1.1.5c-.5-.2-.8-.1-.8.5s-.4.9-1.1.8a1.2,1.2,0,0,0-.8.1c-.9-.2-.9-.7-.8-1.4a3.1,3.1,0,0,1-.2-.8c-.1-.4-.1-.8-.2-1.1h2.8C89.7,36.6,90.1,36.3,90.4,36.6Z" style="fill:#e59d60;fill-rule:evenodd"/><path d="M87,38.3l.3.6.5.7c.1,0,.2.1.1.1h0c-.2.1-.3.2-.5.1s-.4-.1-.6,0-.7.2-1-.1-.5-.3-.7-.2a2.8,2.8,0,0,1-1.3-.1c-.1-.1-.3,0-.4,0s.4-.4.8-.4h0l.7.2a7,7,0,0,0,1.4-.3l.3-.2Z" style="fill:#78a362;fill-rule:evenodd"/><path d="M87.9,39.8v-.2a.9.9,0,0,1,.7-.3c.2,0,.4.1.5,0l.4-.6a.3.3,0,0,0-.1-.2c-.2-.1-.3-.1-.4-.3s-.1-.2-.1-.3l.3-.2h.2c.4.1.7,0,.8-.3l.2-.2c.1,0,.3.1.3.2V38H91a.8.8,0,0,0,.3-1h.3l2.9,1.3.3.2h0a1,1,0,0,1-.4.5l-1.9.4a5.8,5.8,0,0,0-1.8.4l-1.6.2H87.9Z" style="fill:#e7a36a;fill-rule:evenodd"/><path d="M90.4,36.6a1.5,1.5,0,0,1-1-.2C89.7,36.4,90.1,36.3,90.4,36.6Z" style="fill:#e7a36a;fill-rule:evenodd"/><path d="M91.3,36.9l-.5-.3A.5.5,0,0,1,91.3,36.9Z" style="fill:#e7a36a;fill-rule:evenodd"/><path d="M25.2,81.6l-.3.8h-.3a1.1,1.1,0,0,0-.7.8.8.8,0,0,1-.8.5h-.3a1.8,1.8,0,0,0-1.4.4c-.3-.2-.4-.3-.3-.5a5.6,5.6,0,0,1,2.1-2.7c.5-.5,1.1-.8,1.7-1.3s.3-.3.5-.1.1.3,0,.5a1.9,1.9,0,0,1-.2.8Z" style="fill:#a7c396;fill-rule:evenodd"/><path d="M21,84.6a.4.4,0,0,0-.1.3l-.4.3a.4.4,0,0,1-.5-.1C20.4,85,20.6,84.7,21,84.6Z" style="fill:#719a5b;fill-rule:evenodd"/><path d="M27.9,73h0Z" style="fill:#79a56e;fill-rule:evenodd"/><path d="M43.2,66.6l-.3-.2a22.2,22.2,0,0,1-5-6.7l-.4-.7-.5-.2c-.2-.5-.6-.8-.6-1.3s-.7-1.1-.2-1.7.8-.1,1.2.1a19.5,19.5,0,0,0,2.3,1.7,40.9,40.9,0,0,0,6.4,3.7,1.6,1.6,0,0,0,1,.2,20,20,0,0,0,3.5.9c1,.6,2.2.1,3.3.4l.6.2c.4.5-.1.7-.5.9a7,7,0,0,0-2.3,1.5l-.2.2c-2.3.2-4.2,1.8-6.6,1.6-.5-.1-.8-.4-1.2-.3Z" style="fill:#f6c8b0;fill-rule:evenodd"/><path d="M36.3,55.8a2.4,2.4,0,0,0,.2.8,1.6,1.6,0,0,1,.3.9c-.5.5-.4,1.1-.7,1.6h0c.1-.1,0,.1.1,0s.6-.7,1.1-.4l.2.3c-.2.1-.4.2-.2.5s.1.2-.1.3a.7.7,0,0,0-.6.4c-.2.4-.7.6-.9,1l-.3.2c-.5.1-.6.4-.6.8s-.2-.2-.2-.3l-.3-2.2a1.3,1.3,0,0,1,0-1.2v-.7a.8.8,0,0,0,.2-.7v-.6c.2-.1.2-.2.3-.3s.1-.2.1-.3l.3-.2h1.1Z" style="fill:#e69b5e;fill-rule:evenodd"/><path d="M45.7,17.7l1.8.5,1.7.2h.9c-.1.2-.2.3-.2.4a1.2,1.2,0,0,1-.8.6l-1.2.2a9.3,9.3,0,0,0-2.3.4,3.4,3.4,0,0,1-1.4.1c-.5,0-.9.2-1.3.1a.7.7,0,0,1,.6-.3c.2,0,.4,0,.5-.2s.4-.6.1-1-.1-.1-.1-.2a.3.3,0,0,1,.1-.2c.3-.1.6,0,.8-.2l.6-.4Z" style="fill:#7ca768;fill-rule:evenodd"/><path d="M18.7,55.6a1.1,1.1,0,0,0,.8-.5c.1-.2.2-.4.5-.4s.6.5,1,.8.1.1.2.2a.6.6,0,0,1,0,.6c-.1.2-.4.2-.2.5h0a.4.4,0,0,1,0,.5h0l-.5.2h-.3c0,.1-.1.2-.2.3h0c-.3.3-.3.8-.8.9l-.5-.2h0c.1-.1.1-.2.1-.4a3.7,3.7,0,0,0,.1-1.8A6.4,6.4,0,0,0,18.7,55.6Z" style="fill:#a6c396;fill-rule:evenodd"/><path d="M12.3,56.5l.3-.2Z" style="fill:#80a56f;fill-rule:evenodd"/><path d="M37.5,39.1h.2a1,1,0,0,1,.9.4l.6.8c.5-.4.9-.1,1.2.2l.6.2c.2.1.3.3.4.4a1.6,1.6,0,0,1-1.6,1.8c-1.2-1.3-2.8-2.1-3.5-3.8Z" style="fill:#f2ae7c;fill-rule:evenodd"/><path d="M36.3,39.1l.3.2a.7.7,0,0,1,.7.6c0,.2.2.3.3.4l.4.3a4.3,4.3,0,0,1,1.7,2.1c.1.3,0,.3-.2.4s-1.1-.5-1.6-.6-2.1-1.2-2.6-2.5.3-.6.5-.9h.5Z" style="fill:#f0a36b;fill-rule:evenodd"/><path d="M67.6,65.4v.5c-.1.2-.2.3-.2.5a1.8,1.8,0,0,1-1.1,1,1.5,1.5,0,0,1-1.3,0,1.4,1.4,0,0,0-.9-.3,1.2,1.2,0,0,1-.7-.5l.3-.2c.1-.4.6-.4.8-.6s.4-.2.7-.3S66.8,64.9,67.6,65.4Z" style="fill:#f8d1be;fill-rule:evenodd"/><path d="M62.7,66.9a.5.5,0,0,1,.5-.3Z" style="fill:#f8d1be;fill-rule:evenodd"/><path d="M67.1,48.7v.2h0l-.3.2-.4.3a2.9,2.9,0,0,0-1.6,1.3,3.1,3.1,0,0,1-1.1.9c-.5.3-.9.4-1.1-.3a54.2,54.2,0,0,0-2.2-5.6A10.8,10.8,0,0,1,62.8,43c.7-.6,1.2.1,1.8.4h.3v.2l.3.3c0,.1.1.2.1.3A17.3,17.3,0,0,1,66.9,48,2.5,2.5,0,0,0,67.1,48.7Z" style="fill:#eec09b;fill-rule:evenodd"/><path d="M61.2,39.5c.1-.1.1-.3.2-.4h.3l.9.5a11.4,11.4,0,0,1,4,1.9c0,.1,0,.3-.1.3s-1.2,1-1.8,1.4h-.2a5.2,5.2,0,0,1-1.8-1.8A3.4,3.4,0,0,1,61.2,39.5Z" style="fill:#f6ceb2;fill-rule:evenodd"/><path d="M64.9,43.5h-.2c-.1-.1-.1-.1-.1-.2h.1Z" style="fill:#f6ceb2;fill-rule:evenodd"/><path d="M65.2,44l-.3-.3Z" style="fill:#f6ceb2;fill-rule:evenodd"/><path d="M38,42.3h.2a1.2,1.2,0,0,1,1.3.7v.5c-.9,1.6-2.2,3-2.7,4.9s-1,2.2-.7,3.5-.1.6-.1.9-.1,1.6-.5,2.4-.7-.2-.8-.6-.2-1.1-.9-1.3h0c-.2-.1-.1-.3-.3-.5a8.2,8.2,0,0,1-.7-3.1c0-.3-.1-.6-.1-.9a2,2,0,0,1-.1-1.1,13.5,13.5,0,0,1,.6-3.5c0-.1,0-.2.1-.2a3.8,3.8,0,0,1,1.5-.1c1.4.2,2.1-.6,2.7-1.7S37.9,42.1,38,42.3Z" style="fill:#ee9353;fill-rule:evenodd"/><path d="M37.5,42.3l.8.3a.7.7,0,0,1,.1.5.5.5,0,0,1-.4.2h-.7l-.7.8a.9.9,0,0,1-1,.4l-.9-.2a1.5,1.5,0,0,0-.9.2c-.3.2-.4,0-.5-.3V44l.3-1a4.5,4.5,0,0,1,2.7-1.2C36.8,41.8,37.2,41.8,37.5,42.3Z" style="fill:#ed8b48;fill-rule:evenodd"/><path d="M37.5,42.3c-.4,0-.7.2-1.1,0s-.2,0-.3.1-.3.3-.6.2a.8.8,0,0,0-.7.2,2.5,2.5,0,0,1-1.2.2v-.2h0c.1-.2,0-.4.2-.5a4.1,4.1,0,0,0,.5-.9,3.3,3.3,0,0,1,1-1.4.7.7,0,0,1,.8.3.1.1,0,0,0,.1.1.8.8,0,0,0,1,.6c.2,0,.3.2.4.4a1.5,1.5,0,0,0,.4.9Z" style="fill:#ef9b5e;fill-rule:evenodd"/><path d="M33.5,52.8c.2.2.3.3.3.5h-.2Z" style="fill:#ef995c;fill-rule:evenodd"/><path d="M61.5,33.2c.2,0,.3,0,.4.2Z" style="fill:#f8d1be;fill-rule:evenodd"/><path d="M61,32.9c.2,0,.3.1.4.3S61.1,33.1,61,32.9Z" style="fill:#f8d1be;fill-rule:evenodd"/><path d="M60.5,32.7l.3.2Z" style="fill:#f8d1be;fill-rule:evenodd"/><path d="M60.2,38.3l-.3-.2Z" style="fill:#f8d1be;fill-rule:evenodd"/><path d="M74.5,20.6l-.4-.2c-.1,0-.1-.3,0-.4h.3c.2-.2.2-.2,0-.4h0c-.2-.2-.1-.3,0-.4l.6-.3.3-.3v-.2a.5.5,0,0,1,.2-.4l.3-.2H76a1,1,0,0,1,.9-.2,1.8,1.8,0,0,1,.9,1.3c.1.1,0,.2-.1.3l-.9.5a1.2,1.2,0,0,0-.5.5c-.1,0-.1.1-.1.2l-.3.3H74.8Z" style="fill:#6d975f;fill-rule:evenodd"/><path d="M76.8,17.4l-.8.5c-.3-.2-.5-.4-.2-.7v-.5a1.4,1.4,0,0,1,.3-1.1c.1-.1.1-.3.2-.4l1.7-.8v.2a1,1,0,0,0-.4.7c-.1.4.2.7.3,1H78v.2a.4.4,0,0,1-.1.3C77.6,17.2,77.3,17.6,76.8,17.4Z" style="fill:#7fa86a;fill-rule:evenodd"/><path d="M75.8,17.2a1.9,1.9,0,0,0,.2.7h0c-.1.1-.1.2-.2.2h-.5c-.2-.1-.4-.2-.3-.4l.3-1.2h.1a.1.1,0,0,0,.1.1Z" style="fill:#a3bf91;fill-rule:evenodd"/><path d="M27.8,73h-.1l-.5-.3c-.6-.4-.3-.9-.3-1.4s.2-1.1-.9-.8a5.7,5.7,0,0,1-1.8.3c-.4-.4-1.6-.3-1-1.5a13.3,13.3,0,0,1,4.4-1.4H28l.3-.3a6.4,6.4,0,0,0,.6-1.8,5.9,5.9,0,0,1,.2-1.3l1.1.3.4.2v.7A18.8,18.8,0,0,1,33,68.1l.3.2,1,1.8c-.1.8-.5,1-1.2.7L32,69.5l-1.5-1.7c-.1-.1-.3,0-.4.1a6.9,6.9,0,0,0-.5,1.3l-.3,1.4a6.9,6.9,0,0,0-.2,1.3c0,.3-.2.6-.2.9S28.1,72.7,27.8,73Z" style="fill:#56884e;fill-rule:evenodd"/><path d="M23.2,69.3a.9.9,0,0,0,.4.8l.8.4a.3.3,0,0,1,0,.4c-.5.5-1.1.4-1.7.4l-1.2-.5a1.1,1.1,0,0,1,.7-1l.5-.5h.5Z" style="fill:#719963;fill-rule:evenodd"/><path d="M76,19.9h.3a.8.8,0,0,1,.2.5h.7a1.6,1.6,0,0,0,.9.3h.1a.3.3,0,0,1-.1.2H77l-.4.3c0,.2-.1.4-.1.6s.1.3.2.3a1.9,1.9,0,0,1,1.3,1c.3.5.8.5,1.3.5s.2.2.2.3h-.1c-.2.3,0,.6.1.8A5.3,5.3,0,0,1,78,26.5,2.7,2.7,0,0,1,75.6,28c-1.4-.6-1.4-.7-.5-1.7a1.1,1.1,0,0,0,.5-.9,1.4,1.4,0,0,1-1.4-.2c-.5-.5-.1-.9.1-1.4a1,1,0,0,0-.3-1h-.2a5.9,5.9,0,0,1,.2-1.3,2.6,2.6,0,0,1,.5-.9h.3c0-.1.1-.1.2-.1h.3l.2-.3h.3C75.8,20,75.9,20,76,19.9Z" style="fill:#83ac70;fill-rule:evenodd"/><path d="M74,22.8a2.1,2.1,0,0,0,1.3.3c.1,0,.1.1.2.2h-.1c-.5.2-.7.7-1.1,1.1a.2.2,0,0,0,.1.4l.3.2c.2.1.3.1.4-.1s.2-.4.5-.4.6-.1.9.1.1.1,0,.1-.3.3-.3.5-.1.4-.1.6a.9.9,0,0,1-.5.8l-.7.4c-.1,0-.1.1,0,.1l.6.5c-.3,1-1,.8-1.7.5l-1,.3h-.4l-.2-.3v-.5c.3-.8.5-1.6.8-2.5a1.3,1.3,0,0,1,.1-.6l.4-.2.3-.4C73.9,23.5,73.9,23.2,74,22.8Z" style="fill:#8bb076;fill-rule:evenodd"/><path d="M72.3,53.1a.8.8,0,0,1,.2.4,3.1,3.1,0,0,0,.1,1.9v1.1c-.3,1.3-.3,2.7-1.1,3.9a2.3,2.3,0,0,1-.9,1.1l-.8.4c-1.4,1.7-3.3,1-5,1.4a1,1,0,0,1-1-.4.8.8,0,0,1-.1-.4V62a12.7,12.7,0,0,1,.7-1.2c.2-.9,1-1.5,1-2.4a5.6,5.6,0,0,0,.8-2l.3-.7c.5-.6.9-1.4,1.9-1.4s.4-.4.5-.7.8-1,1.5-.8l.3.2c.1.2,0,.6.4.3l1.1-.2Z" style="fill:#f09f65;fill-rule:evenodd"/><path d="M70.4,61.2a13.8,13.8,0,0,0,1.8-3.9,3,3,0,0,1,.4-.8,7.5,7.5,0,0,1,0,1.5v1.2c.2.2.4.4.3.7a6.3,6.3,0,0,1-.7,3,7.5,7.5,0,0,1-.6,1.3,1,1,0,0,1-.5.4h-.6l-1.9.4a2.6,2.6,0,0,0-1,.4l-.4.2-1,.4h-1v-.2c0-.6.6-.6,1-.9a2.3,2.3,0,0,0,1.2-1A19.4,19.4,0,0,0,70.4,61.2Z" style="fill:#f5ba9a;fill-rule:evenodd"/><path d="M72.6,60v-.8c.1-.2.2-.3.2-.5V58a1.1,1.1,0,0,1,.8-1.2,2.6,2.6,0,0,1,1.2-.5c1.4.1,1.4.1,1.2,1.3s-1,.6-1.2,1.3v.4c.1.2,0,.3,0,.4s-1.2.7-1.9.5Z" style="fill:#306d2f;fill-rule:evenodd"/><path d="M75.8,57.5h0c0-.2.2-.5-.1-.7s-.3,0-.5,0-.2-.1-.3-.2a.3.3,0,0,0-.1-.2,9.2,9.2,0,0,1,2.3-.9,2.2,2.2,0,0,1,1.4-.3,4.3,4.3,0,0,1,.1.5,1.3,1.3,0,0,0,.1.9A2.2,2.2,0,0,1,75.8,57.5Z" style="fill:#327530;fill-rule:evenodd"/><path d="M43.7,66.9l.3-.2a1.4,1.4,0,0,0,1.5-.4h.7l.3.2h.7a3.5,3.5,0,0,0,1.4-.6l.5-.4a1.1,1.1,0,0,1,.8-.3h.9a1.3,1.3,0,0,0,.9-.4h0c.3-.6.7-1,1.3-.9h.2c.2-.1.3-.5.7-.5s.5,0,.6-.2a1.2,1.2,0,0,1,1.1-.4,1.3,1.3,0,0,1,.6,1.8c-.2,1-1,2.3.3,3.3v.4a2.1,2.1,0,0,1-2.7.8h-.5a5,5,0,0,1-1.7.2h-.8c-1.2.1-2.4.6-3.4-.5l-1.1-.5A6,6,0,0,1,43.7,66.9Z" style="fill:#f7ceb9;fill-rule:evenodd"/><path d="M61.4,65.9l-1.2.7a2.6,2.6,0,0,0-1.5-.7c-1.2-.8-1.1-2-1.1-3.3a2.9,2.9,0,0,1,2-.9c1,.2,1.8,1.3,3,1s.6.5.7.9a1.5,1.5,0,0,1-.3.7c-.4.6-.6,1.3-1.4,1.6Z" style="fill:#f6c0a4;fill-rule:evenodd"/><path d="M57.8,62.7a2.9,2.9,0,0,0,.2.9,2.4,2.4,0,0,1,.2.8,2,2,0,0,0,.8,1.2c.5.3.8.7.5,1.3a6.6,6.6,0,0,1-3,1.2h0c-.2-.2-.5-.4-.4-.6s.1-2.1.4-3.1l.3-1.5a.7.7,0,0,1,.8-.3Z" style="fill:#faddcf;fill-rule:evenodd"/><path d="M53.8,69.1l.3-.2,2.4-.6a1.4,1.4,0,0,1,.1.9,4.9,4.9,0,0,0-.6,1.7,2.7,2.7,0,0,1-.7,1.4,5,5,0,0,0-1.4-1.5l-.2-.3A3.2,3.2,0,0,1,53.8,69.1Z" style="fill:#e7a46c;fill-rule:evenodd"/><path d="M62.9,66.3l-1-.2-.5-.2h.1c.6-.4,1-1.1,1.6-1.5s.4-.2.7,0a1.4,1.4,0,0,1,.2.7,4.7,4.7,0,0,1-.6.9Z" style="fill:#e59362;fill-rule:evenodd"/><path d="M59.5,66.9c-.2-.4-.3-.9-.5-1.3h.6c.7.1.8.3.6.9Z" style="fill:#f8d0bd;fill-rule:evenodd"/><path d="M62.9,66.3l.3-.4c.5-.4,1-.5,1.4,0v.2a1.3,1.3,0,0,1-1,.3Z" style="fill:#f5ba9a;fill-rule:evenodd"/><path d="M78.2,14.2l-.2.3Z" style="fill:#7fa86a;fill-rule:evenodd"/><path d="M76.8,17.4l.9-.7.3-.3h0a1.2,1.2,0,0,0,.7-.7c.2-.2.3-.4.5-.5h.2a.2.2,0,0,1,0,.3l-.2.3c-.1,0-.1.2,0,.3l.8.5c-.2.4-.6.6-.9,1l-.9.9H78c-.1.2-.2.1-.2,0a1.8,1.8,0,0,1-.7-.8Z" style="fill:#629056;fill-rule:evenodd"/><path d="M77.8,18.6H78l-.3.3Z" style="fill:#74a260;fill-rule:evenodd"/><path d="M19.2,58.5a1.4,1.4,0,0,1,.8-.7.7.7,0,0,0,.4.5l.6.2h0c0,.1.1.2.2.3h-.1a2.3,2.3,0,0,1-1.6.2c-.1-.1-.2,0-.3,0a.6.6,0,0,0,.1.4l.4.4c.1.2,0,.3,0,.5a.2.2,0,0,0,.2.2c.2-.1.4-.4.7-.3a.1.1,0,0,1,.1.1h0l-.4.4c-.1,0-.1.2,0,.2s.6.6,1.1.7a.1.1,0,0,1,.1.1.3.3,0,0,1-.1.2h-.7l-.4.3c-.2.1-.2.2-.1.4l.6.6a.5.5,0,0,1,0,.5c-.2.2-.2.6-.3.9a2.8,2.8,0,0,1-1.2-1.2c0-.1-.2-.1-.4,0l-.4.2c-.8-.5-.7-.5-.2-1.2l.3-.3c0-.1-.1-.2-.1-.3h-.1a.8.8,0,0,1-.9.1,6.7,6.7,0,0,1,.6-1.5,4.7,4.7,0,0,0,.6-2C18.9,58.6,19.1,58.7,19.2,58.5Z" style="fill:#93b580;fill-rule:evenodd"/><path d="M24.2,55.5a7.3,7.3,0,0,0-.5,2c-.1.2-.1.4-.3.5a.3.3,0,0,0-.3-.3h-.4c-.2,0-.3,0-.4.2s-.1.3-.3.2-.6-.4-.3-.7a.5.5,0,0,0,.3-.5c0-.2.2-.3.3-.4s.1-.3-.1-.3l-.7-.2-.5-.2h-.1a8.3,8.3,0,0,1,.8-2.2c.1-.1.2-.3.4-.4s1.4-1.5,2.6-.7S25,54.6,24.2,55.5Z" style="fill:#83ab6f;fill-rule:evenodd"/><path d="M21,55.8l.5.2c-.1.2-.1.4-.3.5a.1.1,0,1,1,0-.2C21.1,56.1,21,56,21,55.8Z" style="fill:#8cb178;fill-rule:evenodd"/><path d="M23.4,58a1.2,1.2,0,0,1-.2.8A1.1,1.1,0,0,1,23.4,58Z" style="fill:#83ab6f;fill-rule:evenodd"/><path d="M21,58.5c0-.1.1-.1.2-.2s.2,0,.2.1H21Z" style="fill:#83ab6f;fill-rule:evenodd"/><path d="M21.2,56.3v.2l-.2.3C20.8,56.4,20.8,56.4,21.2,56.3Z" style="fill:#93b580;fill-rule:evenodd"/><path d="M21,57.3v-.5C21.2,57,21.2,57,21,57.3Z" style="fill:#93b580;fill-rule:evenodd"/><path d="M20.5,57.5l.5-.2Z" style="fill:#93b580;fill-rule:evenodd"/><path d="M20,57.8l.2-.3v.3H20Z" style="fill:#93b580;fill-rule:evenodd"/><path d="M74.5,30.7h-.7a.8.8,0,0,1,.1-.9,12.3,12.3,0,0,1,4.4-1.9,2,2,0,0,1,1.1.3c.6.2.6.6.1,1h0l-.3.3h0c-.2,1-.6,1.4-1.8,1.2S75.5,30.8,74.5,30.7Z" style="fill:#86ad73;fill-rule:evenodd"/><path d="M74.5,30.7l.3-.2a2,2,0,0,1,1.1-.3l1.6.2c.1-.1.2,0,.3.1s.6,0,.9-.1a.1.1,0,0,0,0-.2c0-.2-.1-.3,0-.5s.3-.2.5-.2a.6.6,0,0,1,.1.4.8.8,0,0,1-.6.8l-.8.2a3.1,3.1,0,0,0-1,.5l-.6.6a.6.6,0,0,1-.8-.1A4,4,0,0,1,74.5,30.7Z" style="fill:#80a96b;fill-rule:evenodd"/><path d="M72.1,33.7l-.4-.3a.5.5,0,0,1-.3-.5v-.3c0-.2-.1-.3-.3-.4a.9.9,0,0,1,.1-1.3l.3-.2a1.1,1.1,0,0,1,1.3.5.1.1,0,0,1-.1.1c0,.1-.2.2-.1.3h.2c.4.1.5.1.5.4a3,3,0,0,1,.2,1,.7.7,0,0,1-.5.6Z" style="fill:#7da769;fill-rule:evenodd"/><path d="M79.5,29.2c0-.1.1-.2.1-.3s0-.3-.2-.3l-1.2-.4c-.1-1.1,1.1-.7,1.5-1.2H80c0-.1.2-.1.2-.2h0a.9.9,0,0,0,1,.2h.1v.2l-.4.3c-.1.1-.2.2-.1.3l.7.4a1,1,0,0,1,.4.5,5,5,0,0,1-1.3.3Z" style="fill:#80a96b;fill-rule:evenodd"/><path d="M72.8,31.2h-.6a.9.9,0,0,1-.6-.3h-.3a.8.8,0,0,1,.5-.5l1-.2c.4-.3.8-.5,1.2,0a1.9,1.9,0,0,1-.2.7h0l-.2.2A.8.8,0,0,1,72.8,31.2Z" style="fill:#90b37d;fill-rule:evenodd"/><path d="M79.2,29.5l.3-.3Z" style="fill:#80a96b;fill-rule:evenodd"/><path d="M73.6,30.9l.2-.2Z" style="fill:#80a96b;fill-rule:evenodd"/><path d="M47.4,68.8h.3a6.8,6.8,0,0,0,2,.2,2,2,0,0,1,1.1.2h0l-.3.4c-.3.2-1.1-.1-1,.4s-1.1,1.7-.2,2.7V73a1.7,1.7,0,0,1-1.3-.5l-.9-.6a1.9,1.9,0,0,0-1.1-.7.7.7,0,0,1-.6-.4h.1l1.1-.4a4.2,4.2,0,0,0,.4-1C47,69.1,47.3,69,47.4,68.8Z" style="fill:#e9ab76;fill-rule:evenodd"/><path d="M44.4,70.8a.7.7,0,0,1,1,0Z" style="fill:#e9ab76;fill-rule:evenodd"/><path d="M17.2,48.9a1.3,1.3,0,0,1-.4-1,1.1,1.1,0,0,0-.3-.7v-.8c.1-.3.2-.6.5-.7v.5a.4.4,0,0,1,.1.3l1.1.8h.5c.2,0,.4-.1.6,0s.5,0,.4.4a1.5,1.5,0,0,0,1,.6h.1a.1.1,0,0,0,.1-.1.6.6,0,0,1,.9-.1l.4.2c.6.1.7.5.7,1v1.5a.1.1,0,0,1-.1.1h-.3c-.7,0-1.2-.5-1.8-.9A6,6,0,0,0,17.2,48.9Z" style="fill:#54844d;fill-rule:evenodd"/><path d="M49.3,72.8c-.2,0-.5,0-.6-.3v-.3a.7.7,0,0,1-.2-.6c.1-.1,0-.2,0-.3s0-.4.1-.4h.4c.3-.1.3-.4.1-.6l-.6-.5c-.1,0,0-.2.1-.3h2.3c.1.3.3.4.4.4a.2.2,0,0,1,.1.4l-.4.3-.8.9c-.1.2-.2.3-.4.3s-.3.2-.3.3l.3.3c.3.1.2.2-.1.3Z" style="fill:#e8a56d;fill-rule:evenodd"/><path d="M51.6,69.3l.6-.2h1.1l-.3.2c-.2.1-.2.2-.1.4h0a.3.3,0,0,1-.3.3.9.9,0,0,1-.8-.4C51.8,69.6,51.6,69.4,51.6,69.3Z" style="fill:#e8a56d;fill-rule:evenodd"/><path d="M75.8,57.5l2.7-.8c.1-.1.2-.1.2-.2L81,56c.2-.2.5,0,.7-.2h.2l1.2.3c.4.1.5.3.6.7V57a1.4,1.4,0,0,1-1.2.6,4.2,4.2,0,0,0-1.7,1h-.3a5.9,5.9,0,0,0-4.4,1.4,1,1,0,0,1-.9-.1c-.3-.1-.5-.5-.7-.8h0L74,59c0-.5,0-.6.3-.7Z" style="fill:#4c8b3e;fill-rule:evenodd"/><path d="M80.7,58.5l.2-.5a.8.8,0,0,1,.5-.5l.9-.2L83,57c.2-.2.4-.1.7,0a4.1,4.1,0,0,1,1.4,1.5,1.1,1.1,0,0,0,.1.5.9.9,0,0,1-.7.3A11.7,11.7,0,0,0,80.7,58.5Z" style="fill:#599249;fill-rule:evenodd"/><path d="M87.2,59.5c-.5.5-.7.6-1.3.3a.4.4,0,0,1-.1-.3h1.4Z" style="fill:#487f44;fill-rule:evenodd"/><path d="M84.4,59h.8a1.5,1.5,0,0,1,.7.5h0a1.5,1.5,0,0,1-.9.2.6.6,0,0,1-.6-.5Z" style="fill:#5e954d;fill-rule:evenodd"/><path d="M24.2,55.5a2.7,2.7,0,0,1,0-.9,8.2,8.2,0,0,0,.2-2.2h0c1.3.4.9,1.6,1.1,2.5s-.1.4-.1.6v.2a1,1,0,0,0,.2.7.1.1,0,0,1,.1.1c0,.1,0,.1-.1.1h0a.8.8,0,0,1-.8-.5A1,1,0,0,0,24.2,55.5Z" style="fill:#6b955e;fill-rule:evenodd"/><path d="M34.3,58.5v1.2A.9.9,0,0,1,34.3,58.5Z" style="fill:#f5c1a7;fill-rule:evenodd"/><path d="M34.3,56.5,32,57h-.4a1.9,1.9,0,0,1-1-.5l1.6-.3a.2.2,0,0,0,.1-.3c0-.1-.1-.1-.2-.2v-.2c0-.1.2-.1.3-.1a.1.1,0,0,1,.1.1,3.5,3.5,0,0,0,1.4.6C34.1,56.1,34.2,56.3,34.3,56.5Z" style="fill:#f5b99a;fill-rule:evenodd"/><path d="M33.8,53.3l.5-.3c.3-.1.6,0,.6.3a.9.9,0,0,1,.1.5,3.8,3.8,0,0,0,.1,1,1.7,1.7,0,0,0,.2.5l.2.3a.8.8,0,0,1-.2.4H35c-.2,0-.3-.3-.4-.4a1.1,1.1,0,0,0-.3-.8A6.6,6.6,0,0,1,33.8,53.3Z" style="fill:#ef995c;fill-rule:evenodd"/><path d="M34.6,55.6a.4.4,0,0,1,.4.4v.3a.3.3,0,0,1-.4,0Z" style="fill:#e5894a;fill-rule:evenodd"/><path d="M34.6,56.3H35l-.5.2C34.6,56.4,34.6,56.4,34.6,56.3Z" style="fill:#e59b5c;fill-rule:evenodd"/><path d="M71.3,30.9c0,.5-.2.8-.2,1.3h0c-.2.1-.1.3-.3.5a4.2,4.2,0,0,1-.4,1.5,7,7,0,0,0-.3,1.4c-.1.1-.2.2-.2.3s-.1.1-.1.2L69,34.8c-.2-.3-.1-.6-.1-.9a.8.8,0,0,1,.2-.5l.7-.5a.7.7,0,0,0,.1-.5.8.8,0,0,1,.2-.4c.1-.2.3-.3.3-.5l-.3-.4a1.2,1.2,0,0,1-.5-.7c.2-.1.3-.3.5-.5h.5l.3.4.4.4h0c.1,0,.1.1.1.2Z" style="fill:#70995e;fill-rule:evenodd"/><path d="M24.4,52.4l-1.3.7-.9.5c-.8.4-1.1,0-1.1-.8a1.5,1.5,0,0,1,.2-.9,1.4,1.4,0,0,1,1.4-.8c.1-.1.2-.1.2-.2h0a5.3,5.3,0,0,1,1.2-.3,4,4,0,0,1,.3,1.5v.2h-.1Z" style="fill:#6b955e;fill-rule:evenodd"/><path d="M24.4,52.3v-.2a3.3,3.3,0,0,0,1.7-.7v1.9a7.7,7.7,0,0,0-.2,1.5,2.2,2.2,0,0,1-.5.8h0c-.1-.1-.1-.3-.2-.4a5.7,5.7,0,0,0-.4-1.4,2.2,2.2,0,0,1-.1-.8C24.8,52.7,24.6,52.5,24.4,52.3Z" style="fill:#3c6338;fill-rule:evenodd"/><path d="M33.1,70.8a7.5,7.5,0,0,0,1.2-.7l1.2,1.6a1.1,1.1,0,0,1,0,1.1,1,1,0,0,1-.9,0H34c0-.4-.3-.6-.5-.9S33.1,71.2,33.1,70.8Z" style="fill:#5d8c52;fill-rule:evenodd"/><path d="M33.8,42.3c0,.2-.1.3-.2.5l-.3-.3c0-.1,0-.1-.1-.2h.6Z" style="fill:#f3ac88;fill-rule:evenodd"/><path d="M20.9,70.3v.2h0C21,70.5,20.9,70.4,20.9,70.3Z" style="fill:#98b586;fill-rule:evenodd"/><path d="M22.7,71.3a2.6,2.6,0,0,1,1.7-.5c1.1.6,1.1.9.5,1.9l-1.1-.8a1.5,1.5,0,0,0-1.1-.4Z" style="fill:#86ae73;fill-rule:evenodd"/><path d="M81.7,55.8a1,1,0,0,1-.7.2A.8.8,0,0,1,81.7,55.8Z" style="fill:#3f8335;fill-rule:evenodd"/><path d="M84.9,59.5h1v.3a.7.7,0,0,0-.6.2l-.3.3a1.8,1.8,0,0,1-.9.6l-1,.3a1.1,1.1,0,0,1-1.1,0c-.2-.1-.4,0-.4.2v.3c0,.2-.1.3-.2.5l-.2.2-.2.2a.3.3,0,0,1-.1.2l-.2.2-.2.2h-.3c0,.1-.1.1-.2.1h-.3a1.6,1.6,0,0,0-1-.1h-.2c-.4-.2-1.1,0-1.1-.7s1.1-.8,1.5-1.3a9.9,9.9,0,0,1,4.7-2Z" style="fill:#619051;fill-rule:evenodd"/><path d="M87.6,59v.2h-.2Z" style="fill:#3f8335;fill-rule:evenodd"/><path d="M94.8,38.3l-.3-.2Z" style="fill:#edbf9b;fill-rule:evenodd"/><path d="M16.5,62.2v.5C16.3,62.4,16.3,62.4,16.5,62.2Z" style="fill:#93b580;fill-rule:evenodd"/><path d="M17,61.5a.2.2,0,0,1,.2.2A.2.2,0,0,0,17,61.5Z" style="fill:#93b580;fill-rule:evenodd"/><path d="M17,62.7l.2-.3C17.2,62.5,17.1,62.6,17,62.7Z" style="fill:#93b580;fill-rule:evenodd"/><path d="M16.8,62.7h0Z" style="fill:#93b580;fill-rule:evenodd"/><path d="M74,30H72.8a.4.4,0,0,1,.2-.6l.3-.2H74l.2-.2a.3.3,0,0,0-.1-.2c0-.1-.2-.1-.2-.2s-.1-.3-.1-.5l.8-.2a1.6,1.6,0,0,0,.9-.3,12.4,12.4,0,0,0,2-1l.5-.2a.3.3,0,0,0,.3.3l.4-.2H79c.2.3.4.3.7.3a2,2,0,0,1-.8.8l-.7.4-.4.3-2.7,1.1Z" style="fill:#769d67;fill-rule:evenodd"/><path d="M80.2,26.8a.2.2,0,0,0-.2.2Z" style="fill:#76a266;fill-rule:evenodd"/><path d="M95.3,52.6l.2.2Z" style="fill:#f7d2b9;fill-rule:evenodd"/><path d="M22.9,51.1a2.7,2.7,0,0,1-1.4.7c-.2.1-.2-.1-.3-.2h0c-.1-.2-.4-.1-.5-.2l-.6-.3h-.7a.6.6,0,0,1-.7-.2c-.1-.3-.4-.4-.7-.6s-.2-.2-.3-.3-.3-.7-.5-1l.4-.5h.3l.7.2a12,12,0,0,1,3.1,1.8l1,.6C22.8,50.9,22.8,51,22.9,51.1Z" style="fill:#516c49;fill-rule:evenodd"/><path d="M70.6,53.1h-.4a.8.8,0,0,0-.7.4,3.3,3.3,0,0,0-.4,1.4c-.1.1-.2.2-.3.1H68a.7.7,0,0,0-.6.3,1.6,1.6,0,0,1-.5.9c-.5-.3-.4-.8-.3-1.3a19.7,19.7,0,0,0,.3-2.4,17.9,17.9,0,0,0-.2-2.3,1.2,1.2,0,0,1,.4-1.1h0c.3,0,.5.3.8.5s.3.2.6-.1.4-.1.5.1a2.1,2.1,0,0,1,.4.6.8.8,0,0,0,.4.4c.8-.1,1.8.5,1.8,1.3S71.5,53,70.6,53.1Z" style="fill:#ef9a5d;fill-rule:evenodd"/><path d="M70.6,53.1c-.1-.1-.2-.2-.2-.3a.3.3,0,0,1-.1-.2h.9a.9.9,0,0,0-.3-1.2l-.4-.2c-.2-.1-.1-.2-.1-.3s0-.3-.2-.4h-.4c.1-.2.2-.4.4-.4a2,2,0,0,1,1.1.2l.3.3a3.9,3.9,0,0,1,.8,1,.3.3,0,0,1,0,.4.1.1,0,0,1-.1.1.5.5,0,0,0-.2.8c-.1.1-.1.1-.1.2s-.9.5-1.4.1Z" style="fill:#f09f65;fill-rule:evenodd"/><path d="M72.1,52.8l.2.3h0c-.2,0-.3,0-.2-.3Z" style="fill:#f09f65;fill-rule:evenodd"/><path d="M22.7,69.3a1.2,1.2,0,0,1-.5.5c-.1-.4,0-.4.3-.5Z" style="fill:#80a86b;fill-rule:evenodd"/><path d="M25.6,56.5v-.2l.3.2Z" style="fill:#749b65;fill-rule:evenodd"/><path d="M25.9,56.5l.2.3Z" style="fill:#749b65;fill-rule:evenodd"/><path d="M70.8,32.7c.1-.2.1-.4.3-.5S71,32.5,70.8,32.7Z" style="fill:#7da769;fill-rule:evenodd"/><path d="M69.9,35.9c0-.1.1-.2.2-.3S69.9,35.8,69.9,35.9Z" style="fill:#7ba16a;fill-rule:evenodd"/><path d="M89.6,53l.7.4.5.4c.1.1.1.1.1.2a.1.1,0,0,1-.1.1,3.6,3.6,0,0,1-1.5.2A2.1,2.1,0,0,1,89.6,53Z" style="fill:#eea066;fill-rule:evenodd"/><path d="M90.8,54.1v-.3h.3Z" style="fill:#ed955a;fill-rule:evenodd"/><path d="M19.2,58.5l-.5.2v-.2Z" style="fill:#98b486;fill-rule:evenodd"/><path d="M24.9,72.7v-.4a1.6,1.6,0,0,0-.4-1.2.4.4,0,0,0-.1-.3v-.3a11.4,11.4,0,0,1,2.6-.9h.5a.5.5,0,0,1,.3.4l-.3,1.2-.3,1.5c-.4.1-.8,0-1.1.3a1.6,1.6,0,0,0-1-.2Z" style="fill:#6e9e5b;fill-rule:evenodd"/><path d="M77.5,62.7l.5.3.5.4a5.4,5.4,0,0,0-2,1l-.5.2a1.7,1.7,0,0,0-1.2.6h-.7c-.4-.8.5-1.4.3-2.2s.1-.2.1-.3.2-1.2.8-1.2S77.1,61.6,77.5,62.7Z" style="fill:#6d9c5a;fill-rule:evenodd"/><path d="M74.1,65.1h.7a2.5,2.5,0,0,1-1.1.4,4.4,4.4,0,0,1-1.5-.5l-1.1-.6a.6.6,0,0,1,.2-.5c1-1.1,1.9-1,2.5.5S73.9,65,74.1,65.1Z" style="fill:#78a364;fill-rule:evenodd"/><path d="M81,62.4h.2a2.8,2.8,0,0,1-.3,1.3c-.1.2-.1.5-.2.7a10.1,10.1,0,0,1-1.5-.7c-.1-.7.6-.2.8-.5h0l.2-.3h0c.2-.1.4,0,.5-.2h0Z" style="fill:#79a068;fill-rule:evenodd"/><path d="M80,63.2l.2.2v.2h-.6l-.4.2-.5-.3c.3-.4.3-.5.7-.4Z" style="fill:#6d9c5a;fill-rule:evenodd"/><path d="M21.2,51.6l.3.2a.7.7,0,0,0,.1.5.5.5,0,0,1-.1.7c-.2.2-.1.4.1.5h.6l-.3.2c-.6.5-.9,1.4-1.9,1l-.5.3V53.8a9.5,9.5,0,0,1,1.5-2C21.1,51.8,21.1,51.7,21.2,51.6Z" style="fill:#80a470;fill-rule:evenodd"/><path d="M20.7,51.4l.5.2C21,51.6,20.8,51.6,20.7,51.4Z" style="fill:#80a470;fill-rule:evenodd"/><path d="M19.5,53.8l-.3-.2Z" style="fill:#80a470;fill-rule:evenodd"/><path d="M57.2,16.7a.8.8,0,0,0,.4.4c.1.1.3.2.2.4l-.4.2H57A1.6,1.6,0,0,1,57.2,16.7Z" style="fill:#6f9860;fill-rule:evenodd"/><path d="M54.3,17.2c-.2,0-.3.1-.4,0h-.1a.1.1,0,0,1,.1-.1.5.5,0,0,1,.4.2Z" style="fill:#85ad72;fill-rule:evenodd"/><path d="M48.6,38.3H49a28.5,28.5,0,0,1,6.3,2.5c.2.2.4.3.4.6s-2,.5-3,.7h-.9a12,12,0,0,0-2.7-.8,3.4,3.4,0,0,0-2.4.4c-.9.4-1.8,1-2.9.4l-.6-.7c-.1-.4-.4-.8-.3-1.3s.3-.3.5-.1l1-.4a13.9,13.9,0,0,1,2.8-1.2A3.3,3.3,0,0,1,48.6,38.3Z" style="fill:#f8d1be;fill-rule:evenodd"/><path d="M43.4,40l-.5.3c0,.8-.6.9-1.2,1.1a.9.9,0,0,1-.5-.3h-.5c-.2.2-.3.2-.5,0a1.3,1.3,0,0,0-1-.7.6.6,0,0,1,.1-.4c0-.1.2-.3.3-.2h.6a1,1,0,0,0,.9-.1l1.3-.7h.3c.1,0,.3,0,.3.1A1.4,1.4,0,0,1,43.4,40Z" style="fill:#f8d3ba;fill-rule:evenodd"/><path d="M51.6,41.7h1.1a15.1,15.1,0,0,1,3-.2,1.4,1.4,0,0,1,1.1.5l.7.5v.3c.1.6-.3.8-.8.8h-.4l-.5-.2h-.3l-.3-.2a3.3,3.3,0,0,1-3.3-.3c-.3-.3-.8-.4-.9-.9S51.3,41.6,51.6,41.7Z" style="fill:#dd9665;fill-rule:evenodd"/><path d="M61.2,39.5a5.8,5.8,0,0,1,1.7,1.8A3.8,3.8,0,0,1,60,44.9a2.5,2.5,0,0,1-2.2-2.2l.7-.6a2,2,0,0,1,.8-.4h.3c0-.5.4-.6.7-.8l.6-.7A.9.9,0,0,0,61.2,39.5Z" style="fill:#ebb588;fill-rule:evenodd"/><path d="M57.8,42.7a11.4,11.4,0,0,1,1.1,1.1,3.3,3.3,0,0,0,1.1.9c0,.1.1.3,0,.4a.9.9,0,0,1-.8.4A3.7,3.7,0,0,1,56.4,44a.8.8,0,0,1-.1-.4c0-.1.1-.2.2-.3a1,1,0,0,0,1-.5Z" style="fill:#e2aa83;fill-rule:evenodd"/><path d="M50.4,63,48,62.4a2.2,2.2,0,0,1-1.1-.5,3.4,3.4,0,0,1-1.6-2.1,12.2,12.2,0,0,1-.8-5,1.4,1.4,0,0,1,.3-1.5c.2,0,.4-.1.5.1s1.5.6,2.4.3h.5a3.4,3.4,0,0,1,1.8.9,6.6,6.6,0,0,0,.3,2.4.9.9,0,0,0,.4,1,4.3,4.3,0,0,0,2.6,1.8,1.3,1.3,0,0,1,1.1.8.4.4,0,0,1,.1.3A3.8,3.8,0,0,1,50.4,63Z" style="fill:#d68049;fill-rule:evenodd"/><path d="M44.9,54.8a17.5,17.5,0,0,0,.4,3.2,17.5,17.5,0,0,0,1.2,3.2l.4.7h-.6a17.6,17.6,0,0,1-3.7-1.7l-.7-.4A10.4,10.4,0,0,1,39.5,58c-.3-.5-.6-.9-.3-1.5s.7-.3,1.1-.1a2.1,2.1,0,0,0,2.8-.8C43.9,54.3,44.1,54.3,44.9,54.8Z" style="fill:#f3b88c;fill-rule:evenodd"/><path d="M50.4,63a3.3,3.3,0,0,0,1.9-.6l2-1.5c.6-.3,1.1-1.1,2-.8s.3.9,0,1.3-1.6,1.1-2.3,1.8H51.2Z" style="fill:#f3ba91;fill-rule:evenodd"/><path d="M54,63.2v-.3a.5.5,0,0,1,.2-.6l1-.5a1.3,1.3,0,0,0,.6-.7c0-.1.2-.2.3-.3s.3-.2.2-.6h0c0-.1.1-.2.2-.3h.3a.6.6,0,0,1,.6.3c.1.1.2.2.2.3l.3.9c0,.2.1.3,0,.5s-.1.2-.1.3-1,.1-1.1.7-.1.2-.2.3a.6.6,0,0,1-.6.1H54Z" style="fill:#f5c19c;fill-rule:evenodd"/><path d="M39.5,56.3V58l-.8-.4L37,56.2a1,1,0,0,0-.7-.4h0a.3.3,0,0,1,0-.4,1.1,1.1,0,0,1,.8-.3c.9.3,1.7-.2,2.5,0a.8.8,0,0,1,.1.9C39.7,56.1,39.6,56.2,39.5,56.3Z" style="fill:#e69b5e;fill-rule:evenodd"/><path d="M37.3,58.7a1.6,1.6,0,0,0-.9.3.5.5,0,0,1-.4.2,3.6,3.6,0,0,0-.2-1,.4.4,0,0,1,.3-.6h.7A3.1,3.1,0,0,1,37.3,58.7Z" style="fill:#e59b5c;fill-rule:evenodd"/><path d="M36,59.2c0,.2,0,.3-.1.4a.5.5,0,0,1-.5.3c-.2-.1-.5-.1-.7-.3s-.1-.2,0-.2,0-.3.1-.3h.4Z" style="fill:#e59b5c;fill-rule:evenodd"/><path d="M35.3,56v-.5a.5.5,0,0,1,.7,0,.2.2,0,0,1,0,.3h0l-.5.2Z" style="fill:#e28947;fill-rule:evenodd"/><path d="M35.5,56l.5-.2Z" style="fill:#e59b5c;fill-rule:evenodd"/><path d="M36,55.8v-.2h.3v.3Z" style="fill:#e59b5c;fill-rule:evenodd"/><path d="M20,54.8l1.9-1c.2.3,0,.5-.2.6a.2.2,0,0,0,0,.3l.4.2a.1.1,0,0,0,.1.1c0,.1,0,.2-.1.2a.7.7,0,0,0-.6.2l-.6.4h-.2l-.4-.2Z" style="fill:#8cb178;fill-rule:evenodd"/><path d="M41.2,41.1l.5.2c.6-.3,1.1-.6,1.7,0a.5.5,0,0,1,.5.5c1.2,1.2.8,2.3-.9,2.9l-.8.2c-1.1-.3-2.2-.5-2.8-1.6V43h.1c0-.1.1-.2.2-.3A4.5,4.5,0,0,0,41,41.6.8.8,0,0,0,41.2,41.1Z" style="fill:#f6bfa3;fill-rule:evenodd"/><path d="M40.2,41h.5C40.4,41.2,40.4,41.2,40.2,41Z" style="fill:#f6bfa3;fill-rule:evenodd"/><path d="M65.2,65.9l-.5.2h-.1c.1-.4.3-.4.5-.2Z" style="fill:#f5ba9a;fill-rule:evenodd"/><path d="M67.1,48.9a1.3,1.3,0,0,0,.1.6,13.2,13.2,0,0,1,.2,2.8,3.6,3.6,0,0,1-1.6,1.4c-1,.4-2.2.3-2.6,1.6s-.3,0-.4-.1a.8.8,0,0,1-.2-.5,3,3,0,0,1,0-2.3c.3-.4.8-.7.9-1.3a1.4,1.4,0,0,0,1-.7l.6-.7a1.2,1.2,0,0,1,1-.6l.3-.2c.2-.2.3-.1.5,0Z" style="fill:#dd7442;fill-rule:evenodd"/><path d="M63.5,51.1a.1.1,0,0,1-.1.1.9.9,0,0,1-.5,1.1c-.1.2-.3.2-.5.1s-1.5-1.6-1.8-2.7v-.3c.3-1.3-.6-2.1-1.2-3a1.1,1.1,0,0,1-.3-1.2L60,45c.6-.2.5.4.7.7l.8,1.5a13.8,13.8,0,0,1,1.2,3.4l.3.8h.2Z" style="fill:#e5b28f;fill-rule:evenodd"/><path d="M60.7,45.7c-.3-.1-.5-.5-.7-.7v-.3l1.9-1.5H62c.3-.2.3-.2.1-.5a.1.1,0,0,0-.1-.1c-.1-.2-.1-.3,0-.4l.6-.5.3-.3c.3.1.5.4.7.6l1.1,1.3v.3a.3.3,0,0,0-.1.2c-.2.2-.4.3-.5.1l-.4-.5a.3.3,0,0,0-.5-.1,7,7,0,0,0-1.4,1.6.9.9,0,0,1-.6.6Z" style="fill:#edbb90;fill-rule:evenodd"/><path d="M66.9,48.9h-.5C66.6,48.7,66.6,48.7,66.9,48.9Z" style="fill:#f0a36e;fill-rule:evenodd"/><path d="M39.5,43.2c.3.2.5.5.9.5a3.1,3.1,0,0,1,1.4.7c.1.2.3.2.4.3s1-.2,1.6-.4,0,.8-.2,1L42,46.4l-.6.4c-.9.3-1.3,1.3-2.1,1.7s-.1.2-.2.3l-.3.4-1.9,2a1.4,1.4,0,0,1-1.1.7,1.1,1.1,0,0,1-.3-.7,29.9,29.9,0,0,1,.8-3.2,17,17,0,0,1,1.9-3.5,6.4,6.4,0,0,0,1-1.3A.2.2,0,0,1,39.5,43.2Z" style="fill:#f3b08d;fill-rule:evenodd"/><path d="M35.8,51.9a17.5,17.5,0,0,1,2.8-3.3c0-.1,0-.1.1-.1s.2-.1.2-.2,1.6,0,1.7,1a4.4,4.4,0,0,1-.6,2.5c0,.3-.5,0-.5.5a3.8,3.8,0,0,1-1.3,2.4c-.4.5-.9.1-1.3,0s-1.6-.4-1.4-2.1Z" style="fill:#db6826;fill-rule:evenodd"/><path d="M35.5,52.6c.1.5-.1.9.1,1.4a.1.1,0,0,0,.1.1h.1c0-.1,0-.1.1-.1s.1-.3.2-.2a2.8,2.8,0,0,0,1.3.4l.3.3a.2.2,0,0,0,.3,0c0-.1.1-.1.1-.2s-.2-.5.2-.6.6-.4.6-.8.2-.3.3-.4v-.2l-.3-.2h-.7a.1.1,0,0,1,.1-.1h1.4c.4.1.4.5.4.8a3.2,3.2,0,0,1-.3,1.4,3.4,3.4,0,0,1-2.6,1.4H35.3V53.4A1.1,1.1,0,0,1,35.5,52.6Z" style="fill:#dc6e2c;fill-rule:evenodd"/><path d="M39.5,43.2h-.3a.2.2,0,0,0,.2-.2A.3.3,0,0,1,39.5,43.2Z" style="fill:#f0a36b;fill-rule:evenodd"/><path d="M75.3,20.6h-.5l.5-.2v.2Z" style="fill:#7ba666;fill-rule:evenodd"/><path d="M75.8,18.1l.2-.2Z" style="fill:#7fa86a;fill-rule:evenodd"/><path d="M76,19.9l-.2.2Z" style="fill:#7ba666;fill-rule:evenodd"/><path d="M75.5,20.1l-.2.3Z" style="fill:#7ba666;fill-rule:evenodd"/><path d="M78,16.4l-.3.3Z" style="fill:#77a262;fill-rule:evenodd"/><path d="M75.3,20.6h.2v.2h-.2v-.2Z" style="fill:#7ba666;fill-rule:evenodd"/><path d="M76.4,20.5h-.1c-.1,0-.1,0,0-.1h.1Z" style="fill:#7ba666;fill-rule:evenodd"/><path d="M63,55.3a1.4,1.4,0,0,0,.2-.7v-.8c0-.1.2-.3.3-.2a3.8,3.8,0,0,0,2.7-.8l1.2-.5a14.5,14.5,0,0,1-.4,3,2,2,0,0,0-.1.7l-.3.5a3.2,3.2,0,0,1-1.8,2c-.7.3-.4,1-.7,1.4a.8.8,0,0,1-.7.4c-.4-.2-1-.1-1.3-.5s0-1.8.1-2.6.4-.8.4-1.2v-.4c.1-.1.1-.2.2-.2Z" style="fill:#dd7118;fill-rule:evenodd"/><path d="M70.4,61.2a6.4,6.4,0,0,1-1,1.3,14.5,14.5,0,0,1-1.8,1.7,6,6,0,0,0-1.1.6,2.8,2.8,0,0,1-3.4-1.1c.1-.5,0-1.1.8-1s.6.1.9.2a.7.7,0,0,0,.9-.4c.1-.2.2-.2.5,0s.5.3.9-.1h0a.4.4,0,0,1,.7,0l.5.4s.2,0,.2-.1.8-.7,1.2-1.2S70.1,61.2,70.4,61.2Z" style="fill:#f1a46d;fill-rule:evenodd"/><path d="M63.9,62.7c-.4.2-.5.6-.7,1h-.3a.9.9,0,0,0-.1-.5.5.5,0,0,0-.7-.1l-.4.2c-.1,0-.2.1-.3,0s-.9-.3-1-.7a.6.6,0,0,0-.7-.4c-.1-.5.3-.6.6-.8l1.3-.7.3-.2a1.5,1.5,0,0,1,1.4-.3c.5.3,1.3-.2,1.4.8a6.1,6.1,0,0,0-.5,1.2l-.3.2Z" style="fill:#f5b899;fill-rule:evenodd"/><path d="M63.9,59.7a2,2,0,0,1,.1-1.3c.1-.1.2-.3.4-.3s.9-.5,1.4-.6l.2-.3c.1-.4.3-.5.6-.7s-.1.5-.1.7a1.5,1.5,0,0,1-.6.9l-.3.4C65.3,59.2,65,60.1,63.9,59.7Z" style="fill:#de7622;fill-rule:evenodd"/><path d="M63.9,59.7a7.4,7.4,0,0,0,1.7-1.2.5.5,0,0,1,.2.4A8.4,8.4,0,0,1,64.7,61a.9.9,0,0,0-.7-.3,1.6,1.6,0,0,1-.9-.3c0-.2.1-.3.4-.4Z" style="fill:#f3b28e;fill-rule:evenodd"/><path d="M72.1,52.8l.2.3a.4.4,0,0,1-.4.4h-.2a.6.6,0,0,0-.6.5h-.2l-.6-.4c-.2,0-.2-.1,0-.2s.3-.3.3-.5l.8-.2Z" style="fill:#ef9a5d;fill-rule:evenodd"/><path d="M63.9,62.4l.3-.2Z" style="fill:#f1a46d;fill-rule:evenodd"/><path d="M62.9,63.7h.3c.1.1.2.3.4.4l.7.2a.6.6,0,0,0,.9.1h.3c.4.2.7.3,1,0a1.4,1.4,0,0,1,1.1-.2c-.3.5-.9.7-1.4,1l-1.1.7-.5.2a3.2,3.2,0,0,0-1.4-.2.9.9,0,0,1,.5-.8c.2-.2.1-.5,0-.7l-.5.2c-.3,0-.4-.2-.5-.4Z" style="fill:#f1ab7a;fill-rule:evenodd"/><path d="M74.1,65.1h-.4a.5.5,0,0,1-.5-.4.8.8,0,0,0-.3-.8.7.7,0,0,0-.9-.1l-.7.3a3.1,3.1,0,0,1,.5-1.2c.4,0,.6-.4,1-.4h.8c.4.2.9-.1,1.2.3v1.2c0,.4-.1.7-.5.8Z" style="fill:#528843;fill-rule:evenodd"/><path d="M73.1,62.7a1.8,1.8,0,0,0-.7.5c-.3.2-.4.1-.6-.3l.8-2.9h.2c1.1.4,1,1.2.8,2.1A.6.6,0,0,1,73.1,62.7Z" style="fill:#4b8739;fill-rule:evenodd"/><path d="M73.3,62.2v-.9a1.4,1.4,0,0,0-.4-1.1.3.3,0,0,0-.1-.2h1c.5-.1.7-.2.7-.8l.8.5A2.1,2.1,0,0,1,73.3,62.2Z" style="fill:#2d7230;fill-rule:evenodd"/><path d="M74,59l.5.2Z" style="fill:#2d7230;fill-rule:evenodd"/><path d="M57,62.9l.2.5a.8.8,0,0,1-.2.8l-.2.3c-.3.4-.2.4.1.7a.8.8,0,0,1,.2.8,2,2,0,0,1-.6,1.2c-.1.1-.1.2-.1.4s.1.3.1.5a1.5,1.5,0,0,1-.9-.6,1,1,0,0,0-.7-.7.3.3,0,0,1,0-.5l.5-.3c.2-.1.4-.4.3-.6s-.1-.4-.2-.6,0-.3.2-.4L56,64c.1,0,.1-.1.1-.2l-.3-.6h0c.2-.2.5,0,.7-.3h0A.5.5,0,0,1,57,62.9Z" style="fill:#f9d4c2;fill-rule:evenodd"/><path d="M62,61a15.1,15.1,0,0,1-1.8.9l-.5.3h-.8l-1.1.4h-.1c-.2-.3-.1-.5.1-.8v-.2a1.6,1.6,0,0,1,.2-1c.6-.7,1.2-1,2-.5a1.4,1.4,0,0,0,1.1.1C61.6,60.2,62,60.4,62,61Z" style="fill:#f1a46e;fill-rule:evenodd"/><path d="M62.7,64.2c.3,0,.4.2.5.4a4.3,4.3,0,0,1-1.7,1.3Z" style="fill:#f1a46d;fill-rule:evenodd"/><path d="M57.8,61.9c.1.3-.1.5-.1.8l-.7.2h-.5l-.4-.5a.8.8,0,0,1,.2-.4h1.5Z" style="fill:#f7d0b5;fill-rule:evenodd"/><path d="M63.7,64.4l.2.3c.1.2.1.3-.2.4Z" style="fill:#f1a46d;fill-rule:evenodd"/><path d="M77.9,17.8c-.2,0-.2-.1-.2-.2s.2-.2.2-.2a.4.4,0,0,1,.1.3A.1.1,0,0,1,77.9,17.8Z" style="fill:#6d975f;fill-rule:evenodd"/><path d="M20.7,62.2h-.2c.1-.1.1.1.2.1Z" style="fill:#8bb077;fill-rule:evenodd"/><path d="M71.3,30.9v-.2l.3.2Z" style="fill:#81a572;fill-rule:evenodd"/><path d="M22.9,51.1c-.1-.1-.1-.2-.2-.2h.2Z" style="fill:#2b7232;fill-rule:evenodd"/><path d="M76,60c.1-.3.3-.5.4-.8s.1-.4.3-.4.3,0,.5.1.4-.1.3-.4h0c0-.2.2-.4.4-.3l.6.3a1.1,1.1,0,0,0,1-.1l.2-.2a.4.4,0,0,1,.5.1l.3.3c.4.3.3.5,0,.9s-.9.4-1.5.6-.8.8-1.4,1.1a1.4,1.4,0,0,1-1.6-.9Z" style="fill:#599249;fill-rule:evenodd"/><path d="M79,59.5a1.4,1.4,0,0,0,1.1-.3c.1-.1.3-.1.3-.3a.6.6,0,0,0,.1-.4h.2c.3-.2.6-.5,1-.4a.9.9,0,0,0,.5-.3.5.5,0,0,1,.9.3.5.5,0,0,0,.6.6h.4l.3.2h0a.9.9,0,0,1-.9.5,6.8,6.8,0,0,0-2.8.7A1.1,1.1,0,0,1,79,59.5Z" style="fill:#5e954d;fill-rule:evenodd"/><path d="M73.3,62.2a2.8,2.8,0,0,0,1.5-1.5c.2-.3.3-.7.5-1l.7.3h0c.6,1,.6,1.4-.5,1.5s-.4,1-.7,1.4h0l-.7.4c-.3.3-.6.3-.7-.1a.4.4,0,0,1-.1-.3l-.2-.2h0A.8.8,0,0,1,73.3,62.2Z" style="fill:#3f7c34;fill-rule:evenodd"/><path d="M84.2,58.2H84c.1-.2.1,0,.2.1Z" style="fill:#3f8335;fill-rule:evenodd"/><polygon points="84.2 58.3 84.2 58.3 84.2 58.2 84.2 58.3" style="fill:#3f8335;fill-rule:evenodd"/><path d="M79,59.5l.5.3a1.1,1.1,0,0,0,1.1,0c.4-.3.9-.3,1.3-.6h2.5l.5.5-.4.2c-.5,0-1,.3-1.6.2h-.2a9.4,9.4,0,0,0-2.8,1.5h-.2a1,1,0,0,1-.7.2h-.7l-.4-.2c-.2-.2-.4-.4-.4-.6s.1-.3.1-.4.2-.3,0-.5a.6.6,0,0,0-.1-.4.4.4,0,0,1,.4-.4Z" style="fill:#6d9c58;fill-rule:evenodd"/><path d="M25.2,55.1a.8.8,0,0,1,.2.4A.4.4,0,0,1,25.2,55.1Z" style="fill:#4b8545;fill-rule:evenodd"/><path d="M77.5,61l.7.2.3.3h0a.2.2,0,0,1,.2.2H79a2,2,0,0,1-1.5,1l-1.2-.4-.9-.4c-.1-.1-.3,0-.3.2s-.1.6-.3.8-.1-.5-.1-.7a1,1,0,0,1,.5-.8h.3c.7-.4.7-.5.5-1.3l.4.2A2.8,2.8,0,0,0,77.5,61Z" style="fill:#528843;fill-rule:evenodd"/><path d="M80.7,62.7c-.1.3-.1.3-.5.2Z" style="fill:#6d9c5a;fill-rule:evenodd"/><path d="M80.2,62.9l-.2.3Z" style="fill:#6d9c5a;fill-rule:evenodd"/><path d="M81,62.4l-.3.3Z" style="fill:#6d9c5a;fill-rule:evenodd"/><path d="M43.9,44.5a3.2,3.2,0,0,0-1.7.2c.1-.2.2-.4.5-.4l.8-.2c.2,0,.3-.3.2-.5s-.2-.3,0-.4h.6c.2,0,.2-.2.1-.3l-.5-.6c-.1-.2-.1-.3,0-.4s.5.2.7.1a14.5,14.5,0,0,0,2.2-.9,2.8,2.8,0,0,1,2.9,0l1,.3a1,1,0,0,1,.9.4l-.5.3c-.3.7-1,.8-1.6.9a15.2,15.2,0,0,0-3.6,1.2c-.5.1-.9.5-1.5.6A.6.6,0,0,1,43.9,44.5Z" style="fill:#f5bb9d;fill-rule:evenodd"/><path d="M43.4,41.3H41.7l.4-.5.8-.5C43.5,40.5,43.6,40.6,43.4,41.3Z" style="fill:#faddce;fill-rule:evenodd"/><path d="M52.1,42.5l1.1.3a1.6,1.6,0,0,0,1.6-.2H55c.2-.1.4-.1.5.1l.3.3h0c.1.5-.3.6-.7.6a1.4,1.4,0,0,0-1,.5,1,1,0,0,0-.4.7l-.3.4c-1.2.4-2.3,1.1-3.6.3s-.8.1-1.3.1a.9.9,0,0,1-.7-.3.8.8,0,0,1,.3-1.2,20.7,20.7,0,0,1,2.2-.4,1.5,1.5,0,0,0,.9-.6C51.4,42.7,51.6,42.3,52.1,42.5Z" style="fill:#ca511a;fill-rule:evenodd"/><path d="M52.1,42.5a1.1,1.1,0,0,0-.5.9c0,.3,0,.5-.4.6l-.6.2h-.3a.8.8,0,0,0-.8.1.8.8,0,0,1-.8.1l-.3-.2c-.1-.1-.2-.2-.2-.3s.6-1.1,1.1-1.4a6.1,6.1,0,0,1,1.8-.5h.3A.6.6,0,0,1,52.1,42.5Z" style="fill:#ce6121;fill-rule:evenodd"/><path d="M53.8,44a1.4,1.4,0,0,1,1.2-.8,1.1,1.1,0,0,0,.8-.2l.5.3c.1,0,.1.1.1.2s.1.1.1.2a1.9,1.9,0,0,1-2,.7l-.6-.3Z" style="fill:#ca5324;fill-rule:evenodd"/><path d="M55.8,43l-.3-.3Z" style="fill:#ca5324;fill-rule:evenodd"/><path d="M56.4,43.5c0-.1-.1-.1-.1-.2h.2A.3.3,0,0,1,56.4,43.5Z" style="fill:#cd6046;fill-rule:evenodd"/><path d="M54.3,44h.8l1.4-.2a1,1,0,0,1,.5.4,1.5,1.5,0,0,0,.9.4l.5.3c.3.2.5.4.7.4s.5.6.6,1,.2,1.1-.4.9-1.4.2-1.9.7-1.1,0-1.3.6-.7,0-1-.2a1.5,1.5,0,0,1-1-1.7,3.9,3.9,0,0,0-.2-1.5c-.1-.1-.1-.2-.1-.4A.6.6,0,0,1,54.3,44Z" style="fill:#cd6046;fill-rule:evenodd"/><path d="M49.9,57.3l-.3-1.2a1.3,1.3,0,0,1,.3-1.2c0-.2.1-.3.1-.4a1.5,1.5,0,0,1,1.9,0c.3.6-.3.9-.5,1.4,1.6.6,3.3.5,4.6,1.5s.4.3.4.6a2.5,2.5,0,0,1-2.1,2.7l-1-.3-.9-.2a.9.9,0,0,1-.8-.4l-.4-.3a1.2,1.2,0,0,1-.5-.5,2.5,2.5,0,0,0-.4-.7C50.2,57.9,50.2,57.5,49.9,57.3Z" style="fill:#c54221;fill-rule:evenodd"/><path d="M39.5,56V55a.2.2,0,0,1-.1-.4c.3-.5.8-.6,1.3-.8s1.9-1.2,1.8-2.6.9-.7,1.3-1.2l.3-.2a1.4,1.4,0,0,1,1.5-.5.7.7,0,0,1,.4.6,4.8,4.8,0,0,1-.4,2.6c-.1.3-.1.6-.5.8a1.9,1.9,0,0,0-.2.8v.7a.6.6,0,0,0-.9.2l-.6.8A3,3,0,0,1,39.5,56Z" style="fill:#f1aa78;fill-rule:evenodd"/><path d="M54.3,60.7A5.8,5.8,0,0,0,56.2,58c-.3-1.2.5-2.3.4-3.5a1.4,1.4,0,0,1,.2-1.1c.7-.5,1.3,0,1.9.2a8,8,0,0,1,.9,2.6,1.3,1.3,0,0,1-.6,1.5c-.2.1-.5.2-.1.5l.2.2a.9.9,0,0,1-.6,1l-.3.2c-.3.1-.4.6-.8.5l-.7-.2h-.2c-.1.1-.2.1-.2.2h0l-1.4.8a.7.7,0,0,1-.6-.1Z" style="fill:#ed9150;fill-rule:evenodd"/><path d="M45.2,52.4l.3-1.6c.1-.3.1-.6.2-.9s.2-.1.3-.1a6.2,6.2,0,0,0,2.7.5,1.8,1.8,0,0,1,1.7.6,2.8,2.8,0,0,1,.1.9.8.8,0,0,1-.2.5c-1,.3-1.5,1.2-2.2,1.8h-.5A3.1,3.1,0,0,1,45.2,52.4Z" style="fill:#e18743;fill-rule:evenodd"/><path d="M48.1,54.1v-.4l.6-1.6h.2l1.2.4c.9.8.5,1.6,0,2.4h-.2l-1.3-.4A.7.7,0,0,1,48.1,54.1Z" style="fill:#e59859;fill-rule:evenodd"/><path d="M45.2,52.4h.2a9.2,9.2,0,0,1,2.2,1.7,7.5,7.5,0,0,1-1.3.6h-.2a.6.6,0,0,0-.7-.1.2.2,0,0,1-.2-.2,4.1,4.1,0,0,0-.1-1.1A2.8,2.8,0,0,0,45.2,52.4Z" style="fill:#d37342;fill-rule:evenodd"/><path d="M49.9,57.3l.5.2c.3.2.3.4.1.6s-.1.1-.2.2A.9.9,0,0,1,49.9,57.3Z" style="fill:#cb572e;fill-rule:evenodd"/><path d="M45.9,55.3l-.2.3c0,.1-.2.1-.3.1a.1.1,0,0,0-.1-.1c0-.1.1-.2.2-.3Z" style="fill:#d37342;fill-rule:evenodd"/><path d="M39.5,56l1.2.2a1.2,1.2,0,0,0,1-.1,2.5,2.5,0,0,1,1.5-.2h.2a1.9,1.9,0,0,1-1.2,1.4.5.5,0,0,1-.6-.1c-.1-.2-.3-.3-.5-.1a.6.6,0,0,1-.9-.1l-.3-.3-.4-.3Z" style="fill:#f2b283;fill-rule:evenodd"/><path d="M57.3,60c.1-.1.3-.1.2-.3s-.1-.4-.1-.6a.3.3,0,0,1,.1-.2h.1l.6.3c1.1.6.2,1.2,0,1.8a.8.8,0,0,1-.4.7l-.3-.3c-.3-.3,0-.7-.2-.9a.4.4,0,0,1-.1-.3C57.2,60.1,57.2,60,57.3,60Z" style="fill:#ef995c;fill-rule:evenodd"/><path d="M57.3,60c-.1.1-.1.1-.1.2s-.3-.1-.5-.3S57,59.8,57.3,60Z" style="fill:#f3ba91;fill-rule:evenodd"/><path d="M57.3,60.5a1.3,1.3,0,0,1,.2.9C57.2,61.2,57.3,60.8,57.3,60.5Z" style="fill:#f3ba91;fill-rule:evenodd"/><path d="M56.5,62.9a1.1,1.1,0,0,1-.7.3C56,62.9,56.2,62.9,56.5,62.9Z" style="fill:#f7d0b5;fill-rule:evenodd"/><path d="M56.3,60.2l.2-.2Z" style="fill:#f3ba91;fill-rule:evenodd"/><path d="M39.5,54.6V55l-.3.6c-.1.2-.2.3-.3.2a4.7,4.7,0,0,0-1.7-.3c.2-.2.3-.4.6-.4a2.4,2.4,0,0,0,1.1-.6c.1-.2.4-.3.6-.4v.2A.4.4,0,0,1,39.5,54.6Z" style="fill:#e18742;fill-rule:evenodd"/><path d="M58.7,58.5h-.3c-.2.1-.3,0-.3-.1a.7.7,0,0,0-.6-.7v-.2a.2.2,0,0,1,.2-.2h.6a.4.4,0,0,0,.5-.1.5.5,0,0,0,.4-.6c0-.3-.1-.7-.1-1l-.3-.5a.8.8,0,0,1-.2-.9.9.9,0,0,0,.1-.5.8.8,0,0,1,.2-.5A6.3,6.3,0,0,1,61,52.1c.5-.2,1-.3,1.4.2h.5v2.5c-.1,1-.8,1.7-1.1,2.6s-1,.8-1.6,1S59.2,58.2,58.7,58.5Z" style="fill:#ef995c;fill-rule:evenodd"/><path d="M58.7,58.5l.3-.6h.3l.3.2a1.1,1.1,0,0,0,.8-.2c.2-.3.4-.3.8-.2a.2.2,0,0,0,.3-.3c0-.1-.1-.3-.1-.4a1.3,1.3,0,0,0-.2-1.2c-.1,0,0-.2,0-.2h.2l.4.3.3.3h.2s.1,0,0-.1v-.5c-.1-.3,0-.5.4-.6h.2c0,.2.1.3.1.5h-.1a.1.1,0,0,0,0,.2h0v.3c-.2.4.1.9-.2,1.3a9.3,9.3,0,0,1-.4,2.2c0,.1-.1.3-.1.4a1.3,1.3,0,0,1-.3,1.3H62l-.3-.2h-.3l-.6.2a.6.6,0,0,1-.7-.1l-.5-.3c-.4-.3-.4-.3-.8.1l-.6.4a6.4,6.4,0,0,1,.2-.7,1.5,1.5,0,0,0-.2-1.1h0c.2-.2,1.1.1.8-.7Z" style="fill:#f09d63;fill-rule:evenodd"/><path d="M62.4,52.3h-.6l-.6.2-1.5.9-.7.2a.5.5,0,0,1-.7-.1c-.5-1.2-1.9-2-1.7-3.5a4.4,4.4,0,0,1,4.3-.3l1.2,1.5.3.4A.5.5,0,0,1,62.4,52.3Z" style="fill:#f7d3bb;fill-rule:evenodd"/><path d="M60.9,49.7a2.6,2.6,0,0,0-1.5.1l-1.7.3h-1a.5.5,0,0,1,.1.6c-.9,0-.5-.9-.8-1.3a6.4,6.4,0,0,1-.2-.7c0-.1.1-.2.2-.3s-.1-.4-.2-.6.1-.7.6-.6l.8.2a4,4,0,0,1,3.7,2Z" style="fill:#f0a26a;fill-rule:evenodd"/><path d="M60.9,49.4a1.2,1.2,0,0,1-.8-.4,26.9,26.9,0,0,0-2.9-1.6h.4a.3.3,0,0,0,0-.4l-.2-.2c-.2-.2-.2-.3-.1-.4s.2-.2.4-.2h.6l.8.5c.3.2.6.1.6-.3v-.2A6.5,6.5,0,0,1,61,47.8,1.3,1.3,0,0,1,60.9,49.4Z" style="fill:#d0664b;fill-rule:evenodd"/><path d="M45.9,49.9h-.2c-.1-.2-.1-.4-.3-.5s-.9-.7-1.6-.3-1-.1-1.6-.2h-.3c-1-.8-.7-1.7-.2-2.6a1.4,1.4,0,0,1,.8-.7l1.4-1h.5a24.6,24.6,0,0,1,2.9-.9,1.2,1.2,0,0,1,1.1.4v.2a2.1,2.1,0,0,0-.6,1c.3,1.3-.6,2.1-1,3.1S46.6,49.6,45.9,49.9Z" style="fill:#f09d63;fill-rule:evenodd"/><path d="M41.7,46.2c0,.1.1.2.1.3a.6.6,0,0,1,0,.6.5.5,0,0,0-.1.7l.5.9c0,1.4-1.1,2.4-1.4,3.8s-.5.8-1.1.3v-.9c.2-.9.3-1.7.5-2.5a4.1,4.1,0,0,1,1-3Z" style="fill:#ee995b;fill-rule:evenodd"/><path d="M41.2,46.4v.4l-.3.8a13.4,13.4,0,0,1-.7,1.8V49l-.4-.3h-.4l-.5-.3A10.6,10.6,0,0,1,41.2,46.4Z" style="fill:#de7131;fill-rule:evenodd"/><path d="M38.7,48.5a.1.1,0,0,1-.1.1A.1.1,0,0,1,38.7,48.5Z" style="fill:#de7131;fill-rule:evenodd"/><path d="M39.7,52.8H40c.5-.1.6-.2.4-.8a.4.4,0,0,1,.1-.5c.4-.3.5-.8.9-1.2a.6.6,0,0,0,.1-.8l-.3-.5c0-.1,0-.2.1-.2h.1a.8.8,0,0,0,.8-.1h0c1.6.8,1.6.8.4,2a1.9,1.9,0,0,0-.5,1,4,4,0,0,1-2.6,2.6v-.2A5.1,5.1,0,0,1,39.7,52.8Z" style="fill:#f09d63;fill-rule:evenodd"/><path d="M61.9,61a1.3,1.3,0,0,1,.1-.6.8.8,0,0,1,.2-.7,3.1,3.1,0,0,1,1.3.3c-.1.2-.3.3-.4.4Z" style="fill:#e07c44;fill-rule:evenodd"/><path d="M62.7,57.1v-.6a.8.8,0,0,1,.2-.7A2,2,0,0,1,62.7,57.1Z" style="fill:#ef995c;fill-rule:evenodd"/><path d="M62.9,55.5h0Z" style="fill:#ef995c;fill-rule:evenodd"/><path d="M73.1,62.7l.2.2Z" style="fill:#4b8739;fill-rule:evenodd"/><path d="M78.5,61.5l-.3-.3Z" style="fill:#619051;fill-rule:evenodd"/><path d="M78.7,61.7a.2.2,0,0,0-.2-.2A.2.2,0,0,1,78.7,61.7Z" style="fill:#619051;fill-rule:evenodd"/><path d="M48.4,44h-.8a.8.8,0,0,1-.7,0h-.5a3.4,3.4,0,0,1-1.8.3h-.2l.6-.4a13,13,0,0,1,3-1.3,3.1,3.1,0,0,1,1.3-.3A11.9,11.9,0,0,1,48.4,44Z" style="fill:#f1a570;fill-rule:evenodd"/><path d="M46.4,48.2a13.8,13.8,0,0,1,1.4-3h.8a5.5,5.5,0,0,1,1.8.6,1.2,1.2,0,0,0,1.3-.1,1.9,1.9,0,0,1,1.5,0c1,.7,1.1,1.9,1.4,3s-.8.1-1.2.3,1,.7,1,1.3-1,.8-1.6.6l-1.6-.5c-.5-.2-.9-.4-1-1v-.3c0-.4.4-.8,0-1.1s-.8.1-1.2.2a6.8,6.8,0,0,1-2.3.7A.5.5,0,0,1,46.4,48.2Z" style="fill:#c9502d;fill-rule:evenodd"/><path d="M53,45.9h-.5a.2.2,0,0,0-.2.2.4.4,0,0,0-.1.3.5.5,0,0,1-.5.3L50,46a2.5,2.5,0,0,1-1.4-.8l.8-.2a.9.9,0,0,1,.9.2c.2.2.4.3.6.2a1.1,1.1,0,0,1,.7-.2,4.7,4.7,0,0,0,1.7-.2c.2.2.1.4.1.6S53.2,45.9,53,45.9Z" style="fill:#ca5324;fill-rule:evenodd"/><path d="M53.1,45.5a.8.8,0,0,1,.2-.5v-.5c.1-.2.2-.4.5-.3s.1.4.2.5h0C54.3,45.7,53.8,45.8,53.1,45.5Z" style="fill:#c9502d;fill-rule:evenodd"/><path d="M53.8,44.2l-.5.3a.5.5,0,0,1,.5-.5h0c.1,0,.1.1.1.2Z" style="fill:#ca5324;fill-rule:evenodd"/><path d="M53.8,44.2V44h.5l-.3.7A.8.8,0,0,1,53.8,44.2Z" style="fill:#cb5537;fill-rule:evenodd"/><path d="M53.1,45.5h.2a.6.6,0,0,0,.7-.7c.1.1.3.1.3.2a6.5,6.5,0,0,1,.4,1.3c.1.1,0,.2,0,.3s-.1.4-.2.6a.4.4,0,0,0,.1.3l.7.5v.4a.4.4,0,0,0-.1.3h-.7c0-.2-.1-.3-.2-.5s-.2-.5-.5-.5-.3-.2-.3-.4v-.2a.8.8,0,0,0-.2-.8l-.3-.4Z" style="fill:#cb5537;fill-rule:evenodd"/><path d="M56,48.4v.2c.2.2.1.3.1.5s-.3.1-.5.1l-.3-.3a1.1,1.1,0,0,1-.1-.5c-.1-.2-.1-.3.1-.5h0Z" style="fill:#cb5537;fill-rule:evenodd"/><path d="M57,53.3v1.3c-.5.6-1.1,1.2-.8,2.2a1.1,1.1,0,0,1-.4,1c-.2,0-.5,0-.6-.2a1.3,1.3,0,0,0-1.4-.5h-.4c-.2,0-.4,0-.5-.2a.8.8,0,0,0-.9-.4,1.1,1.1,0,0,1-.8-.1,1.8,1.8,0,0,1-.9-.8h0a.1.1,0,0,1,.1-.1c.2-.1.3,0,.5,0s.3-.1.3-.2l.6-.7c.3-1.3,1.5-1,2.3-1.5h.3a.2.2,0,0,1,.2-.2h.2l.8-.2c.5.1,1.1.1,1.4.7Z" style="fill:#c1381c;fill-rule:evenodd"/><path d="M54.5,53.3a5.2,5.2,0,0,1-1.3.6l-1.4.7a5.6,5.6,0,0,1-1.3,0l-.4.2v-3a1.6,1.6,0,0,1,1.6-.8,5,5,0,0,1,1.9,1l.2.3C53.9,52.7,54.5,52.8,54.5,53.3Z" style="fill:#d88450;fill-rule:evenodd"/><path d="M55.8,57.8a3.4,3.4,0,0,0-.2-1.4,4.3,4.3,0,0,1-.1-.5,2.2,2.2,0,0,1,.1-.8c.1-.2.4-.2.6-.2l.8-.3a5.9,5.9,0,0,1-.8,3.4Z" style="fill:#c44517;fill-rule:evenodd"/><path d="M39.5,54.3c.2-.3.4-.7.9-.8h.2c.3-.5.6-.8.8-1.2a.8.8,0,0,0,.3-.8,1.4,1.4,0,0,1,.2-.6.3.3,0,0,1,.3-.3,1.6,1.6,0,0,0,.9-.7.1.1,0,0,0,0-.2c-.5-.1-.7-.5-.9-.8s.4-.3.5-.2a1.1,1.1,0,0,0,1.2.2c.2,0,.1-.2.1-.3v-.2a.9.9,0,0,1,1,.3,1.8,1.8,0,0,1,.4.9,2.9,2.9,0,0,1-1.2.7h0a.8.8,0,0,0-.1.4.3.3,0,0,1-.3.3h-.6c-.2,0-.3.2-.2.3s.1.4-.1.5-.2.4-.1.5.2.2.2.3.2.3,0,.3-.5.5-.7.8a1.1,1.1,0,0,1-.8.3h-.4a.2.2,0,0,0-.2.2c0,.1-.1.2-.2.3l-1.2.2Z" style="fill:#f1a46d;fill-rule:evenodd"/><path d="M56.7,50.6v-.5l.2.2c.1.3.1.7.3.9l.7.5a.5.5,0,0,1,.3.5l.3.9a.6.6,0,0,0,.5.5l-.3.2h-.1a1.8,1.8,0,0,1-1.6-.5h0C56.5,52.5,55.9,51.6,56.7,50.6Z" style="fill:#f3b98f;fill-rule:evenodd"/><path d="M59,58.5l.7.6a.6.6,0,0,1-.1.7h-.2l-.4-.3a1.1,1.1,0,0,0-.8-.3A2.7,2.7,0,0,0,59,58.5Z" style="fill:#ef995c;fill-rule:evenodd"/><path d="M46.4,48.2c0,.2.2.4.5.5s1.3-.2,2-.5a1.1,1.1,0,0,1,1.2,0c.3.2.4.4.3.7s-.7.6-1.2.7-.4-.1-.4,0,1.2-.4,1.7.3.1.8-.4,1l-.6-.2h-.6a.6.6,0,0,1-.7.1l-.5-.2h-.9a.9.9,0,0,1-.9-.8A3.4,3.4,0,0,1,46.4,48.2Z" style="fill:#df7c39;fill-rule:evenodd"/><path d="M50.1,50.9a1.8,1.8,0,0,0,.2-1c-.1-.3-.1-.5.3-.5a.4.4,0,0,0,.4.4h.6l1,.4h.2a1.2,1.2,0,0,1-1,1l-.9.2-.8.2Z" style="fill:#d16a3e;fill-rule:evenodd"/><path d="M51.8,51.4a1.7,1.7,0,0,1,1-1c.7.4,1,.3,1.5-.3s.9-1,1.7-.8l.3-.2a1.2,1.2,0,0,1,.2.8,1.4,1.4,0,0,0,.2.7,2.5,2.5,0,0,1,.1.8,6.5,6.5,0,0,1,.2,1.9c-.3-.1-.6-.3-.9-.1a.7.7,0,0,1-.6-.3c-.3-.3-.6-.2-.7.2h0l-.3.2h-.1l-.7-.2c-.2-.1-.1-.5-.1-.8h-.3A11.9,11.9,0,0,1,51.8,51.4Z" style="fill:#d98755;fill-rule:evenodd"/><path d="M56.3,49.1v.3c-.3.1-.3,0-.3-.2v-.6Z" style="fill:#cd6046;fill-rule:evenodd"/><path d="M50.6,49.4c-.2.1-.2.3-.3.5a4.7,4.7,0,0,1-1.7-.3.1.1,0,1,1,0-.2,3.1,3.1,0,0,0,1.3-.3c.1-.1.3-.2.2-.4s-.3-.4-.5-.4l-.3.2a4.4,4.4,0,0,1-1.5.5.7.7,0,0,1-.9-.3,15.3,15.3,0,0,1,2.7-1.1l1.1-.3a.5.5,0,0,1,.3.3,6.4,6.4,0,0,1-.2.7A4.3,4.3,0,0,0,50.6,49.4Z" style="fill:#dc7432;fill-rule:evenodd"/><path d="M56,49.2l.3.2c0,.1-.1.1-.1.2s-.1.2-.3.2l-.6-.3a.2.2,0,0,0-.4.1l-.6.5h-.6a.5.5,0,0,1-.4-.2l-.5-.5c-.5-.4-.4-.7.1-.9l.2-.2a.5.5,0,0,1,.5,0,1.2,1.2,0,0,0,.9.5h.3l.2-.3h0a.2.2,0,0,1,.3,0l.2.3.3.2Z" style="fill:#c54224;fill-rule:evenodd"/><path d="M55.3,48.4H55c-.1-.4-.1-.4.3-.5Z" style="fill:#c9502d;fill-rule:evenodd"/><path d="M55,48.4l-.2.3Z" style="fill:#c9502d;fill-rule:evenodd"/><path d="M54.8,48.7h0Z" style="fill:#c9502d;fill-rule:evenodd"/><path d="M55.8,48.9l-.3-.2Z" style="fill:#c9502d;fill-rule:evenodd"/><path d="M54.8,53.1a.3.3,0,0,0-.1-.2c0-.2,0-.3.1-.3a.3.3,0,0,1,.4,0l.3.3Z" style="fill:#d88450;fill-rule:evenodd"/><path d="M54.5,53.3l.3-.2Z" style="fill:#d88450;fill-rule:evenodd"/><path d="M53.7,51.7a.6.6,0,0,1,.5.6c0,.1-.1.1-.2.1s-.6-.1-.6-.5S53.6,51.7,53.7,51.7Z" style="fill:#d88450;fill-rule:evenodd"/></g></g></svg>