<svg xmlns="http://www.w3.org/2000/svg" xmlns:xlink="http://www.w3.org/1999/xlink" viewBox="0 0 100 94"><defs><radialGradient id="radial-gradient" cx="-22.06" cy="8372.82" r="8.08" gradientTransform="matrix(-0.42, 0.91, -0.91, -0.43, 7665.25, 3634.65)" gradientUnits="userSpaceOnUse"><stop offset="0" stop-color="#fff"/><stop offset="0.77" stop-color="#fce6da"/><stop offset="1" stop-color="#fae4d7"/></radialGradient><radialGradient id="radial-gradient-2" cx="-14.75" cy="8376.07" r="7.43" xlink:href="#radial-gradient"/><radialGradient id="radial-gradient-3" cx="-29.43" cy="8376.06" r="7.43" xlink:href="#radial-gradient"/><radialGradient id="radial-gradient-4" cx="32.52" cy="24.96" r="19.39" gradientTransform="translate(0 -0.4) scale(1 1.01)" xlink:href="#radial-gradient"/><radialGradient id="radial-gradient-5" cx="50.54" cy="43.78" r="19.39" gradientTransform="translate(0 -0.4) scale(1 1.01)" gradientUnits="userSpaceOnUse"><stop offset="0.06" stop-color="#fff"/><stop offset="0.29" stop-color="#f6fbfa"/><stop offset="0.65" stop-color="#def0eb"/><stop offset="1" stop-color="#c1e3da"/></radialGradient><linearGradient id="linear-gradient" x1="-283.9" y1="212.08" x2="-304.85" y2="205.05" gradientTransform="matrix(1, 0.08, -0.08, 1, 359.15, -161.04)" gradientUnits="userSpaceOnUse"><stop offset="0" stop-color="#fea7a9"/><stop offset="1" stop-color="#e83f44"/></linearGradient><linearGradient id="linear-gradient-2" x1="-73.13" y1="62.91" x2="-53.12" y2="55.64" gradientTransform="matrix(1, 0.03, -0.03, 1, 134.34, -34.4)" xlink:href="#linear-gradient"/><linearGradient id="linear-gradient-3" x1="-281.74" y1="213.04" x2="-269.38" y2="229.26" xlink:href="#linear-gradient"/><linearGradient id="linear-gradient-4" x1="-283.35" y1="211.98" x2="-294.73" y2="230.58" xlink:href="#linear-gradient"/><linearGradient id="linear-gradient-5" x1="9.87" y1="6.81" x2="9.79" y2="-14.42" gradientTransform="translate(48.5 18.3) rotate(0.6)" xlink:href="#linear-gradient"/><linearGradient id="linear-gradient-6" x1="6339.23" y1="8497.67" x2="6321.8" y2="8491.83" gradientTransform="translate(6145.9 8704.8) rotate(-178.3)" gradientUnits="userSpaceOnUse"><stop offset="0" stop-color="#e83f44"/><stop offset="0.74" stop-color="#fea7a9"/></linearGradient><linearGradient id="linear-gradient-7" x1="6339.89" y1="8497.46" x2="6356.54" y2="8491.42" xlink:href="#linear-gradient-6"/><linearGradient id="linear-gradient-8" x1="6341.02" y1="8498.47" x2="6351.3" y2="8511.95" xlink:href="#linear-gradient-6"/><linearGradient id="linear-gradient-9" x1="6339.68" y1="8497.59" x2="6330.21" y2="8513.06" xlink:href="#linear-gradient-6"/><linearGradient id="linear-gradient-10" x1="6339.04" y1="8496.71" x2="6338.97" y2="8479.05" xlink:href="#linear-gradient-6"/><linearGradient id="linear-gradient-11" x1="19.44" y1="67.95" x2="26.38" y2="67.95" gradientTransform="matrix(1, 0, 0, 1, 0, 0)" xlink:href="#linear-gradient"/><radialGradient id="radial-gradient-6" cx="22.29" cy="44.98" r="2.35" gradientTransform="translate(0 -0.4) scale(1 1.01)" xlink:href="#radial-gradient"/></defs><title>hehun_bg03</title><g id="图层_2" data-name="图层 2"><g id="图层_1-2" data-name="图层 1"><g id="plant"><path d="M40.6,82.2s-4.7,3.4-5.2,7.9A14.1,14.1,0,0,0,40.6,82.2Z" style="fill:#108d85"/><path d="M40.8,82.4a15.1,15.1,0,0,0,7.8,6.5S46.8,85,40.8,82.4Z" style="fill:#108d85"/><path d="M31.9,75A13.5,13.5,0,0,0,40,70.1S34.4,71.1,31.9,75Z" style="fill:#108d85"/><path d="M39.7,70a14.3,14.3,0,0,0,9,4.6S46.1,71.2,39.7,70Z" style="fill:#81b9a8"/><path d="M32.4,70.5a14,14,0,0,0,8.2-4.8S35,66.6,32.4,70.5Z" style="fill:#108d85"/><path d="M40.2,65.7a15.1,15.1,0,0,0,9,4.7S46.6,66.9,40.2,65.7Z" style="fill:#108d85"/><path d="M33.4,84.8a14,14,0,0,0,6.8-6.6S34.9,80.5,33.4,84.8Z" style="fill:#108d85"/><path d="M40.1,78.3a15.3,15.3,0,0,0,9.1,4.5S46.5,79.4,40.1,78.3Z" style="fill:#81b9a8"/><path d="M33,80.2a13.9,13.9,0,0,0,7.1-6.3S34.7,76,33,80.2Z" style="fill:#81b9a8"/><path d="M40,74.1A14.5,14.5,0,0,0,48.9,79S46.4,75.5,40,74.1Z" style="fill:#108d85"/><path d="M32.9,65.9a12.6,12.6,0,0,0,7.6-4.4S35.2,62.4,32.9,65.9Z" style="fill:#81b9a8"/><path d="M40.6,61.4a14.3,14.3,0,0,0,8.2,4.7S46.5,62.8,40.6,61.4Z" style="fill:#81b9a8"/><path d="M41.1,84.9S40.3,90.1,43,94A13.9,13.9,0,0,0,41.1,84.9Z" style="fill:#81b9a8"/><path d="M49.6,37.7l-.3.5-.8,1.4-1.1,2.1c-.4.9-.8,1.8-1.2,2.9s-.9,2.2-1.4,3.4l-.6,2a11.8,11.8,0,0,0-.7,2l-.6,2.1-.6,2.1a14.2,14.2,0,0,1-.5,2.2,18.5,18.5,0,0,1-.4,2.3c-.3,1.5-.4,3-.7,4.5s-.1,1.5-.2,2.2-.1,1.5-.1,2.2a14.8,14.8,0,0,0-.1,2.1v2a21.9,21.9,0,0,0,.1,3.7,9.1,9.1,0,0,0,.1,1.7,7.6,7.6,0,0,0,.1,1.5q.1,1.4.3,2.4c.1,1.3.2,2.1.2,2.1s-.1-.8-.4-2.1-.3-1.5-.4-2.4a26.1,26.1,0,0,1-.4-3.1c-.1-1.2-.2-2.4-.2-3.7a14.8,14.8,0,0,0-.1-2.1,14.8,14.8,0,0,1,.1-2.1c0-.7.1-1.5.1-2.2a17.9,17.9,0,0,1,.2-2.3c.2-1.5.3-3,.6-4.5s.3-1.6.5-2.3a18.9,18.9,0,0,1,.5-2.3l.6-2.1.6-2.1c.4-1.4,1-2.7,1.4-4s1-2.3,1.6-3.4a10.1,10.1,0,0,1,.7-1.5l.7-1.3a19.6,19.6,0,0,1,1.2-2.1Z" style="fill:#108d85"/></g><path id="leaf" d="M29.8,43.8c-1.7-1.2-4.9-1.8-6.9-.2a3.6,3.6,0,0,1,1,1.4c-1.8-.7-5.3.1-6.1,2.1.7,0,.8.2,1.4.6-1.9.3-3.5,2.4-3.8,4.1a2.6,2.6,0,0,1,1.5,0c-2.2,2-2.9,5.3-3.8,7.6h0a.1.1,0,0,1,.1-.1c2.4.6,5.4,1.9,8.3,1.2a2.2,2.2,0,0,1-.8,1.3,5.3,5.3,0,0,0,5.5-.8,2,2,0,0,1-.4,1.5c2.1.5,4.8-1.9,5.3-3.8a2.8,2.8,0,0,1,.5,1.6c2.5-.7,3.8-3.8,3.9-5.8.3.4.2,1,.5,1.5,2.8-2.5,2.4-6.7,1-9.2s-4.4-5.5-8.1-4.5C29.1,43,29.7,43.3,29.8,43.8Z" style="fill:#81b9a8"/><path id="leaf-2" data-name="leaf" d="M24.8,38.6c-.8-1.5-2.7-3.2-4.8-2.8.3.4.2.8.2,1.3-1-1.2-3.7-2-5-.9a2,2,0,0,1,.7.9,4.2,4.2,0,0,0-4.2,1.4,1.7,1.7,0,0,1,1,.6c-2.3.5-4,2.5-5.5,3.8h0c1.4,1.3,3,3.4,5.2,4.1a1.2,1.2,0,0,1-1,.5,4.4,4.4,0,0,0,4.1,1.7c-.3.4-.3.6-.8.9,1.3,1.1,4,.5,5.1-.6a2.1,2.1,0,0,1-.3,1.3c2.1.5,4.1-1.1,5-2.5,0,.4-.2.8-.2,1.2,2.9-.6,4.2-3.7,4.2-6s-1-5.5-3.8-6.3C24.6,37.8,24.9,38.2,24.8,38.6Z" style="fill:#c1e3da"/><g id="flower"><path d="M92.3,44.1a19,19,0,0,0,6.9-.8s-2.4-6.1-7.6-8.6-11.5-.4-11.5-.4l.8,1.6a16,16,0,0,0,6.8,7A13.6,13.6,0,0,0,92.3,44.1Z" style="fill-rule:evenodd;fill:url(#radial-gradient)"/><path d="M88.6,46.6a15.3,15.3,0,0,0-.7-4.1c-1.6-4.2-5.4-6.9-7-7.9l-.9-.5s-2.6,6-.6,11.5,7.8,8.5,7.8,8.5A19.5,19.5,0,0,0,88.6,46.6Z" style="fill-rule:evenodd;fill:url(#radial-gradient-2)"/><path d="M88.3,26.4c-5.5,2-8.3,7.9-8.3,7.9s5.9,2.6,11.4.7,8.3-7.9,8.3-7.9S93.8,24.4,88.3,26.4Z" style="fill-rule:evenodd;fill:url(#radial-gradient-3)"/><path d="M80,34.2l-.9-.2-2.4-.9c-2-.7-4.7-1.7-7.3-2.8l-7.1-3.1L60,26l-.9-.4,1,.3,2.4.8,7.3,2.8,7.1,3.1,2.3,1.2Z" style="fill:#81b9a8"/></g><g id="flower-2" data-name="flower"><path d="M46.9,18.7a6.2,6.2,0,0,0-.7-7.8,6.1,6.1,0,0,0-7.8-.7,6,6,0,0,0-11.9.1,5.9,5.9,0,0,0-7.7.7,6.1,6.1,0,0,0-.7,7.9,6,6,0,0,0-5,5.9,6.1,6.1,0,0,0,5.1,6.1,6.1,6.1,0,0,0,.7,7.8,5.9,5.9,0,0,0,7.7.6,6.1,6.1,0,0,0,12,0,6,6,0,0,0,7.7-.8,6.2,6.2,0,0,0,.7-7.8,6,6,0,0,0,4.9-6A6.1,6.1,0,0,0,46.9,18.7Z" style="fill:url(#radial-gradient-4)"/><path d="M18.5,19a6.8,6.8,0,0,0,4.6,4.9h7.3v-.2l-5.9-6C22.9,16.7,20.4,17.7,18.5,19Z" style="fill:#fff"/><path d="M30.4,25.6H23.1a6.8,6.8,0,0,0-4.6,5.1,6.7,6.7,0,0,0,6.8.3l5.1-5.2Z" style="fill:#fff"/><path d="M26.5,32a6.8,6.8,0,0,0,.2,6.8c2.2-.5,4.7-1.5,5.1-3.4V26.9h-.2Z" style="fill:#fff"/><path d="M33.6,26.8h-.2v8.5c.4,1.8,2.8,2.8,5,3.3,1.2-1.9,2.2-4.3,1.1-5.9Z" style="fill:#fff"/><path d="M34.7,25.6l6,6c1.6,1.1,4,0,6-1.2-1.2-3.9-4.1-4.8-4.6-4.9H34.7Z" style="fill:#fff"/><path d="M34.6,23.9H42a6.9,6.9,0,0,0,4.7-5.2,6.6,6.6,0,0,0-6.8-.2l-5.3,5.3Z" style="fill:#fff"/><path d="M38.7,17.4a6.9,6.9,0,0,0-.2-6.8c-2.3.5-4.8,1.5-5.1,3.4v8.5h.2Z" style="fill:#fff"/><path d="M31.6,22.6h.1V14c-.3-1.8-2.7-2.9-4.9-3.4-1.2,2-2.2,4.4-1.1,6Z" style="fill:#fff"/><path d="M35.2,24.9a2.5,2.5,0,1,1-4.9,0,2.5,2.5,0,0,1,4.9,0Z" style="fill:#fef054"/></g><g id="flower-3" data-name="flower"><path d="M64.9,37.7a6.2,6.2,0,0,0-.7-7.8,6,6,0,0,0-7.8-.7,6,6,0,0,0-5.9-5,6.1,6.1,0,0,0-6,5.1,5.9,5.9,0,0,0-7.7.7,5.8,5.8,0,0,0-.6,7.8,6.1,6.1,0,0,0-5.1,6,6,6,0,0,0,5.1,6,6.1,6.1,0,0,0,.7,7.8,6,6,0,0,0,7.8.7,5.9,5.9,0,0,0,5.9,5,6.1,6.1,0,0,0,6-5.1,5.8,5.8,0,0,0,7.7-.7,6.1,6.1,0,0,0,.7-7.8,6.1,6.1,0,0,0-.1-12Z" style="fill:url(#radial-gradient-5)"/><path d="M36.5,38c1.2,3.9,4.1,4.7,4.6,4.8h7.3l-5.9-6C40.9,35.6,38.4,36.7,36.5,38Z" style="fill:#fff"/><path d="M48.4,44.6H41.2a6.7,6.7,0,0,0-4.7,5.1,6.7,6.7,0,0,0,6.8.3l5.2-5.2Z" style="fill:#fff"/><path d="M44.5,51a6.8,6.8,0,0,0,.2,6.8c2.2-.5,4.8-1.6,5.1-3.4V45.9h-.2Z" style="fill:#fff"/><path d="M51.6,45.8c-.1,0-.1,0-.1.1v8.5c.3,1.8,2.7,2.8,4.9,3.3,1.2-1.9,2.2-4.4,1.1-5.9Z" style="fill:#fff"/><path d="M52.7,44.6l6,6c1.6,1.1,4.1,0,6-1.2a6.6,6.6,0,0,0-4.6-4.9H52.7Z" style="fill:#fff"/><path d="M52.7,42.8H60c.5-.1,3.6-.9,4.7-5.1a6.6,6.6,0,0,0-6.8-.2l-5.3,5.3Z" style="fill:#fff"/><path d="M56.7,36.4a6.7,6.7,0,0,0-.2-6.8c-2.2.5-4.7,1.5-5.1,3.4v8.5h.1Z" style="fill:#fff"/><path d="M49.6,41.6a.1.1,0,0,1,.1-.1V33c-.4-1.9-2.8-2.9-5-3.4-1.2,1.9-2.2,4.4-1.1,6Z" style="fill:#fff"/><path d="M53.2,43.9a2.5,2.5,0,1,1-2.4-2.5A2.5,2.5,0,0,1,53.2,43.9Z" style="fill:#fef054"/></g><path id="small_flower" data-name="small flower" d="M95.7,4.7l-.6,1.2c-.5,1-1.2.8-1.5.5s-.5-1,.6-1.5l1.1-.6a.4.4,0,0,1-.1-.3L94,4.4c-1.1.4-1.4-.3-1.4-.7s.3-1,1.4-.6l1.2.4a.6.6,0,0,1,.1-.4l-1.1-.5c-1.1-.6-.8-1.3-.6-1.5s1-.5,1.5.5l.6,1.2.3-.2-.4-1.2c-.4-1.1.3-1.4.7-1.4s1,.3.7,1.4l-.4,1.2.3.2.5-1.2c.6-1,1.2-.8,1.5-.5s.5,1-.5,1.5l-1.1.5c0,.1.1.3.1.4l1.2-.4c1.1-.4,1.4.3,1.4.6s-.3,1.1-1.4.7L97.4,4v.3l1.1.6c1,.5.8,1.2.5,1.5s-.9.5-1.5-.5l-.5-1.2-.3.2L97,6.1c.3,1.1-.3,1.4-.7,1.4s-1.1-.3-.7-1.4L96,4.9l-.3-.2Z" style="fill:#fff;fill-rule:evenodd"/><path id="small_flower-2" data-name="small flower" d="M22.5,87.8,22,88.9c-.5,1.1-1.2.8-1.5.5s-.5-.9.5-1.4l1.2-.6-.2-.3-1.2.4c-1.1.3-1.4-.3-1.4-.7s.3-1.1,1.4-.7l1.2.4.2-.3L21,85.6c-1-.5-.8-1.2-.5-1.5s1-.5,1.5.5l.5,1.2h.4l-.4-1.2c-.4-1.1.3-1.5.6-1.5s1.1.4.7,1.5l-.4,1.2h.3l.6-1.2c.5-1,1.2-.7,1.5-.5s.5,1-.5,1.5l-1.2.6.2.3,1.2-.4c1-.4,1.4.3,1.4.7s-.4,1-1.4.7l-1.2-.4-.2.3,1.2.6c1,.5.7,1.2.5,1.4s-1,.6-1.5-.5l-.6-1.1h-.3l.4,1.2c.4,1.1-.3,1.4-.7,1.4s-1-.3-.6-1.4l.4-1.2Z" style="fill:#fff;fill-rule:evenodd"/><path id="small_flower-3" data-name="small flower" d="M5,18.8l-.9,1.8c-.8,1.7-1.9,1.3-2.4.9s-.8-1.6.8-2.4l1.9-.9a1.4,1.4,0,0,1-.2-.6l-2,.7C.5,18.9,0,17.8,0,17.2s.5-1.7,2.2-1.1l2,.7a1.4,1.4,0,0,1,.2-.6l-1.9-.9c-1.6-.8-1.2-1.9-.8-2.4s1.6-.8,2.4.9L5,15.6l.5-.2-.6-1.9c-.6-1.8.4-2.3,1.1-2.3s1.6.5,1,2.3l-.6,1.9.5.2.9-1.8c.9-1.7,2-1.3,2.4-.9s.8,1.6-.8,2.4l-1.9.9.3.6,1.9-.7c1.7-.6,2.2.5,2.2,1.1s-.5,1.7-2.2,1.1l-1.9-.7-.3.6,1.9.9c1.6.8,1.2,1.9.8,2.4s-1.5.8-2.4-.9l-.9-1.8-.5.2L7,21c.6,1.7-.4,2.2-1,2.2S4.3,22.7,4.9,21l.6-2L5,18.8Z" style="fill:#fff;fill-rule:evenodd"/><g id="plant-2" data-name="plant"><path d="M82,10.2a3.1,3.1,0,0,0,3.5-.7c-.3-.1-.4-.3-.6-.5s2.6-.7,2.8-1.8a1.1,1.1,0,0,1-.8-.1,2.9,2.9,0,0,0,1.5-2.5c-.3.2-.5.1-.8.1s.9-2.9,1.1-4.2h-.1c-1.2,0-2.9-.4-4.2.3a.8.8,0,0,1,.2-.7,2.5,2.5,0,0,0-2.6,1c-.1-.4-.2-.5,0-.8s-2.2,1.5-2.2,2.5-.4-.4-.5-.8A3.3,3.3,0,0,0,78,5.4c-.2-.2-.2-.5-.4-.7-1.2,1.5-.5,3.6.5,4.7a3.8,3.8,0,0,0,4.5,1.4C82.5,10.5,82.1,10.5,82,10.2Z" style="fill:#81b9a8"/><path d="M72.5,10.9A2.5,2.5,0,0,0,74,8.6h-.6a2.1,2.1,0,0,0,.5-2.5l-.4.4a2.5,2.5,0,0,0-.6-2.2.6.6,0,0,1-.3.5,7.3,7.3,0,0,0-1.7-2.8h0a6.7,6.7,0,0,0-2.2,2.5,1.1,1.1,0,0,1-.2-.6,2,2,0,0,0-.9,2l-.5-.4a2.3,2.3,0,0,0,.2,2.5h-.6a2.6,2.6,0,0,0,1,2.5l-.6-.2a3,3,0,0,0,2.8,2.3,3,3,0,0,0,3.2-1.7Z" style="fill:#81b9a8"/><path d="M75.2,13.6a2.3,2.3,0,0,1,2.3-1.5,1.3,1.3,0,0,0-.1.6,2.2,2.2,0,0,1,2.5-.6.9.9,0,0,0-.4.5,2,2,0,0,1,2.1.5.8.8,0,0,0-.4.4c1.1.1,2,1.1,2.8,1.6h0c-.7.7-1.4,1.8-2.5,2.2a1.1,1.1,0,0,0,.6.2,2,2,0,0,1-2,.9.8.8,0,0,0,.4.4,2.1,2.1,0,0,1-2.5-.1c0,.3,0,.4.2.6a2.3,2.3,0,0,1-2.5-1c0,.2.1.4.1.6a2.9,2.9,0,0,1-2.2-2.8A3,3,0,0,1,75.2,13C75.3,13.2,75.2,13.4,75.2,13.6Z" style="fill:#81b9a8"/><path d="M56.9,30.6,58,29.1l2.8-3.6L65,20.6c1.6-1.8,3.4-3.6,5.2-5.4l2.7-2.6,2.8-2.5L78.4,8l2.4-1.9L83,4.7l1.7-1,1.5-.9-1.4,1L83.2,5,81.1,6.6,78.8,8.5l-2.6,2.3-2.7,2.4-2.7,2.7a31.9,31.9,0,0,0-2.6,2.6l-2.6,2.6-4.4,4.8Z" style="fill:#108d85"/></g><g id="flower-4" data-name="flower"><path d="M58.6,26.2c-.7.2-7.3,1.9-12.7-.7s-7.1-7.5-7.2-8,6.3-1.3,10.3.6A22.1,22.1,0,0,1,58.6,26.2Z" style="fill:url(#linear-gradient)"/><path d="M79.3,19a.8.8,0,0,1-.1.4c-.4,1.1-2,4.8-7.8,7s-12.1-.1-12.7-.4,3.5-4.7,10.2-7.2C73.1,17.2,78.8,18.9,79.3,19Z" style="fill:url(#linear-gradient-2)"/><path d="M71.4,43.4c-.1.5-.3.9-.3,1s-6.1-2.3-8.5-6.1a23.1,23.1,0,0,1-3.9-12c.7.2,7.2,2.3,10.5,7.4A13.8,13.8,0,0,1,71.4,43.4Z" style="fill:url(#linear-gradient-3)"/><path d="M58,32.3a15.7,15.7,0,0,1-2.9,6.4c-4.3,5.4-8.8,5.3-9.3,5.3a21.4,21.4,0,0,1,.6-4.9,13.9,13.9,0,0,1,2.3-5.2,22.7,22.7,0,0,1,9.9-7.6A20.2,20.2,0,0,1,58,32.3Z" style="fill:url(#linear-gradient-4)"/><path d="M62.6,13.3a24.2,24.2,0,0,1-.7,5.4,20.2,20.2,0,0,1-3.2,7.2c-.5-.6-4.7-6-4.5-12a13.6,13.6,0,0,1,.5-3.6A11.9,11.9,0,0,1,58.5,4C59,4.5,62.7,8.9,62.6,13.3Z" style="fill:url(#linear-gradient-5)"/><path d="M58.7,25.9c.6-.2,6-1.9,10.6,0s6.3,6,6.4,6.4-5.2,1.3-8.6-.1A19.3,19.3,0,0,1,58.7,25.9Z" style="fill:url(#linear-gradient-6)"/><path d="M41.5,31.8a.4.4,0,0,1,.1-.3c.3-.9,1.7-4,6.4-5.9s10.1.1,10.6.3A19.5,19.5,0,0,1,50.1,32C46.6,33.3,41.9,31.9,41.5,31.8Z" style="fill:url(#linear-gradient-7)"/><path d="M47.4,12.2c.1-.4.1-.7.2-.8S52.7,13,54.9,16a18.8,18.8,0,0,1,3.7,9.8c-.5-.1-6-1.5-9-5.6A11,11,0,0,1,47.4,12.2Z" style="fill:url(#linear-gradient-8)"/><path d="M59,20.8a11.8,11.8,0,0,1,2.1-5.4c3.3-4.7,7.1-4.8,7.5-4.8a18,18,0,0,1-.3,4A11.9,11.9,0,0,1,66.7,19c-3.5,5-7.5,6.7-8,6.8A20.3,20.3,0,0,1,59,20.8Z" style="fill:url(#linear-gradient-9)"/><path d="M55.2,36.4a23.4,23.4,0,0,1,.7-4.5A16,16,0,0,1,58.7,26c.4.5,3.8,5,3.5,10a13.6,13.6,0,0,1-.4,3,9.4,9.4,0,0,1-3.3,5.2C58.1,43.8,55,40,55.2,36.4Z" style="fill:url(#linear-gradient-10)"/></g><g id="berry"><path d="M26.4,68a3.5,3.5,0,1,1-3.5-3.5A3.5,3.5,0,0,1,26.4,68Z" style="fill:url(#linear-gradient-11)"/><ellipse cx="21.2" cy="68" rx="0.8" ry="0.8" style="fill:#fff"/></g><g id="berry-2" data-name="berry"><path d="M24.6,45a2.3,2.3,0,0,1-2.3,2.3A2.3,2.3,0,0,1,19.9,45a2.4,2.4,0,0,1,2.4-2.4A2.3,2.3,0,0,1,24.6,45Z" style="fill:url(#radial-gradient-6)"/><path d="M21.7,45a.6.6,0,0,1-.6.5.5.5,0,0,1-.5-.5.6.6,0,0,1,.5-.6A.6.6,0,0,1,21.7,45Z" style="fill:#fff"/></g></g></g></svg>