<svg xmlns="http://www.w3.org/2000/svg" xmlns:xlink="http://www.w3.org/1999/xlink" viewBox="0 0 100 100"><defs><radialGradient id="radial-gradient" cx="5134.13" cy="-733.3" r="8.67" gradientTransform="matrix(0.43, -0.91, 0.91, 0.42, -1508.22, 5020.29)" gradientUnits="userSpaceOnUse"><stop offset="0.06" stop-color="#fff"/><stop offset="0.29" stop-color="#f6fbfa"/><stop offset="0.65" stop-color="#def0eb"/><stop offset="1" stop-color="#c1e3da"/></radialGradient><radialGradient id="radial-gradient-2" cx="5141.98" cy="-729.82" r="7.97" xlink:href="#radial-gradient"/><radialGradient id="radial-gradient-3" cx="5126.22" cy="-729.82" r="7.97" xlink:href="#radial-gradient"/><radialGradient id="radial-gradient-4" cx="5871.22" cy="8713.79" r="20.81" gradientTransform="translate(5981.1 8787.5) rotate(180) scale(1.01 1)" gradientUnits="userSpaceOnUse"><stop offset="0" stop-color="#fff"/><stop offset="0.77" stop-color="#fce6da"/><stop offset="1" stop-color="#fae4d7"/></radialGradient><radialGradient id="radial-gradient-5" cx="5892.63" cy="8733.99" r="20.81" gradientTransform="translate(5981.1 8787.5) rotate(180) scale(1.01 1)" gradientUnits="userSpaceOnUse"><stop offset="0.26" stop-color="#fea7a9"/><stop offset="1" stop-color="#e83f44"/></radialGradient><linearGradient id="linear-gradient" x1="6262.63" y1="8368.96" x2="6240.06" y2="8361.39" gradientTransform="matrix(-1, -0.08, 0.08, -1, 5586.18, 8934.91)" gradientUnits="userSpaceOnUse"><stop offset="0" stop-color="#fff"/><stop offset="0.21" stop-color="#e9f5f2"/><stop offset="0.49" stop-color="#d3ebe5"/><stop offset="0.76" stop-color="#c6e5dd"/><stop offset="1" stop-color="#c1e3da"/></linearGradient><linearGradient id="linear-gradient-2" x1="6038.6" y1="8559.31" x2="6060.17" y2="8551.48" gradientTransform="matrix(-1, -0.03, 0.03, -1, 5811.09, 8816.76)" xlink:href="#linear-gradient"/><linearGradient id="linear-gradient-3" x1="6265.03" y1="8369.86" x2="6278.24" y2="8387.2" xlink:href="#linear-gradient"/><linearGradient id="linear-gradient-4" x1="6263.16" y1="8368.74" x2="6250.99" y2="8388.63" xlink:href="#linear-gradient"/><linearGradient id="linear-gradient-5" x1="5945.8" y1="8629.39" x2="5945.71" y2="8606.8" gradientTransform="translate(5897 8767.4) rotate(-179.4)" xlink:href="#linear-gradient"/><linearGradient id="linear-gradient-6" x1="-79.04" y1="9.71" x2="-97.81" y2="3.41" gradientTransform="translate(124.1 65.4) rotate(1.7)" gradientUnits="userSpaceOnUse"><stop offset="0" stop-color="#81b9a8"/><stop offset="0.1" stop-color="#8fc2b3"/><stop offset="0.35" stop-color="#aad4c8"/><stop offset="0.57" stop-color="#bbdfd5"/><stop offset="0.74" stop-color="#c1e3da"/></linearGradient><linearGradient id="linear-gradient-7" x1="-78.3" y1="9.47" x2="-60.35" y2="2.96" xlink:href="#linear-gradient-6"/><linearGradient id="linear-gradient-8" x1="-77.04" y1="10.46" x2="-66.05" y2="24.88" xlink:href="#linear-gradient-6"/><linearGradient id="linear-gradient-9" x1="-78.6" y1="9.53" x2="-88.71" y2="26.07" xlink:href="#linear-gradient-6"/><linearGradient id="linear-gradient-10" x1="-79.22" y1="8.63" x2="-79.29" y2="-10.16" xlink:href="#linear-gradient-6"/><linearGradient id="linear-gradient-11" x1="5859.58" y1="8735.28" x2="5864.66" y2="8735.28" gradientTransform="translate(5945.7 8787.5) rotate(180)" gradientUnits="userSpaceOnUse"><stop offset="0" stop-color="#fea7a9"/><stop offset="1" stop-color="#e83f44"/></linearGradient></defs><title>hehun_bg04</title><g style="isolation:isolate"><g id="图层_2" data-name="图层 2"><g id="图层_1-2" data-name="图层 1"><g id="plant"><path d="M63.8,12.6S68.9,9,69.4,4.1A15.2,15.2,0,0,0,63.8,12.6Z" style="fill:#108d85"/><path d="M63.6,12.3a16.1,16.1,0,0,0-8.4-6.9S57.2,9.6,63.6,12.3Z" style="fill:#108d85"/><path d="M73.2,20.2a15.2,15.2,0,0,0-8.8,5.2S70.5,24.3,73.2,20.2Z" style="fill:#108d85"/><path d="M64.8,25.5a16,16,0,0,0-9.7-4.9S57.9,24.2,64.8,25.5Z" style="fill:#81b9a8"/><path d="M72.6,25a15,15,0,0,0-8.8,5.1S69.9,29.1,72.6,25Z" style="fill:#108d85"/><path d="M64.2,30.2a16.2,16.2,0,0,0-9.7-5.1S57.3,28.8,64.2,30.2Z" style="fill:#108d85"/><path d="M71.5,9.8a14.6,14.6,0,0,0-7.2,7.1S70,14.4,71.5,9.8Z" style="fill:#108d85"/><path d="M64.3,16.7a16,16,0,0,0-9.8-4.8S57.4,15.5,64.3,16.7Z" style="fill:#81b9a8"/><path d="M72,14.7a14.4,14.4,0,0,0-7.6,6.7S70.2,19.2,72,14.7Z" style="fill:#81b9a8"/><path d="M64.5,21.2a17.1,17.1,0,0,0-9.6-5.3S57.6,19.7,64.5,21.2Z" style="fill:#108d85"/><path d="M72.1,29.9a13.7,13.7,0,0,0-8.2,4.6S69.6,33.7,72.1,29.9Z" style="fill:#81b9a8"/><path d="M63.8,34.7a14.9,14.9,0,0,0-8.9-5S57.4,33.2,63.8,34.7Z" style="fill:#81b9a8"/><path d="M63.3,9.7s.8-5.5-2.1-9.7A15.1,15.1,0,0,0,63.3,9.7Z" style="fill:#81b9a8"/><path d="M54.1,59.9l.3-.6.9-1.4,1.1-2.3,1.4-3,1.5-3.7a11.8,11.8,0,0,1,.7-2c.2-.7.5-1.4.7-2.2l.6-2.2a19.5,19.5,0,0,0,.6-2.3l.6-2.4c.1-.8.3-1.6.4-2.4s.5-3.2.8-4.8.1-1.5.2-2.3.1-1.6.1-2.4a16.2,16.2,0,0,0,.1-2.2,14.8,14.8,0,0,1,.1-2.1c0-1.4-.1-2.8-.2-4a9.1,9.1,0,0,0-.1-1.7,8.1,8.1,0,0,0-.1-1.6c-.1-1-.2-1.9-.3-2.6s-.2-2.2-.2-2.2.1.8.4,2.2.3,1.6.5,2.5a33.1,33.1,0,0,1,.3,3.4c.1,1.2.3,2.5.3,3.9v2.2a8.9,8.9,0,0,1,0,2.3c0,.8-.1,1.5-.1,2.3s-.1,1.6-.2,2.4-.4,3.3-.7,4.9-.3,1.6-.5,2.4l-.6,2.4-.6,2.3c-.2.8-.5,1.5-.7,2.2a41.1,41.1,0,0,1-1.5,4.2l-1.6,3.7a10.9,10.9,0,0,0-.8,1.5l-.8,1.4c-.5.9-.9,1.7-1.3,2.3Z" style="fill:#108d85"/></g><path id="leaf" d="M75.4,53.5c1.9,1.2,5.3,1.9,7.5.1a4.5,4.5,0,0,1-1-1.4c1.9.7,5.7-.2,6.5-2.3a2.2,2.2,0,0,1-1.5-.6A5.9,5.9,0,0,0,91,44.9a2.2,2.2,0,0,1-1.6-.1c2.4-2,3.1-5.5,4.1-8h0a.1.1,0,0,1-.1.1c-2.6-.6-5.9-2.1-8.9-1.3a2.3,2.3,0,0,1,.8-1.4c-1.7-.7-4.5-.5-5.9.9,0-.7-.1-1,.3-1.6-2.2-.5-5.1,2-5.6,4a2.3,2.3,0,0,1-.5-1.7c-2.8.8-4.2,4-4.3,6.2-.3-.4-.2-1.1-.5-1.6-3.1,2.7-2.6,7.2-1.1,9.9s4.8,5.7,8.7,4.7C76.2,54.3,75.6,54,75.4,53.5Z" style="fill:#108d85"/><path id="leaf-2" data-name="leaf" d="M80.9,59c.8,1.5,2.9,3.3,5.1,2.9a2.7,2.7,0,0,1-.2-1.3c1.1,1.2,4.1,2.1,5.5.9a1.6,1.6,0,0,1-.8-1A4.7,4.7,0,0,0,95,59.1c-.5-.1-.7-.4-1.1-.7,2.5-.5,4.4-2.7,6-4h0c-1.6-1.4-3.3-3.7-5.7-4.4a2.4,2.4,0,0,1,1.1-.6,4.7,4.7,0,0,0-4.4-1.7c.3-.5.3-.7.9-1-1.4-1.2-4.4-.5-5.5.7a2.4,2.4,0,0,1,.3-1.4,5.4,5.4,0,0,0-5.4,2.6c-.1-.4.3-.8.2-1.3-3.1.7-4.5,4-4.5,6.4s1,5.8,4.1,6.7C81.1,59.8,80.8,59.4,80.9,59Z" style="fill:#81b9a8"/><g id="flower"><path d="M8,53.1A20.2,20.2,0,0,0,.6,54s2.5,6.5,8.2,9.1,12.3.4,12.3.4a6.4,6.4,0,0,0-.8-1.6c-1.1-2.2-3.5-5.8-7.4-7.5A12.8,12.8,0,0,0,8,53.1Z" style="fill-rule:evenodd;fill:url(#radial-gradient)"/><path d="M12,50.4a16.3,16.3,0,0,0,.8,4.3c1.6,4.5,5.8,7.4,7.6,8.5l.8.5s2.9-6.4.7-12.2-8.4-9-8.4-9A20.5,20.5,0,0,0,12,50.4Z" style="fill-rule:evenodd;fill:url(#radial-gradient-2)"/><path d="M12.3,71.9c5.9-2.1,9-8.4,9-8.4S14.9,60.7,9,62.8s-9,8.4-9,8.4S6.4,74,12.3,71.9Z" style="fill-rule:evenodd;fill:url(#radial-gradient-3)"/><path d="M21.3,63.6l1,.3,2.6.9,7.8,2.9,7.7,3.4,2.5,1.2.9.5-1-.3-2.6-.9c-2.2-.7-5-1.8-7.9-3s-5.6-2.3-7.6-3.3l-2.5-1.2Z" style="fill:#81b9a8"/></g><g id="flower-2" data-name="flower"><path d="M59.1,80.1a6.4,6.4,0,0,0,.8,8.3,6.5,6.5,0,0,0,8.4.7,6.5,6.5,0,0,0,6.4,5.4,6.5,6.5,0,0,0,6.4-5.4,6.7,6.7,0,0,0,8.4-.8,6.4,6.4,0,0,0,.6-8.4,6.4,6.4,0,0,0,5.5-6.3,6.5,6.5,0,0,0-5.5-6.4,6.5,6.5,0,0,0-9.1-9,6.6,6.6,0,0,0-6.5-5.3,6.5,6.5,0,0,0-6.4,5.4,6.4,6.4,0,0,0-8.3.7,6.5,6.5,0,0,0-.8,8.4,6.4,6.4,0,0,0,.1,12.7Z" style="fill:url(#radial-gradient-4)"/><path d="M89.8,79.8a7.2,7.2,0,0,0-5-5.2H77v.2l6.4,6.3C85,82.3,87.7,81.2,89.8,79.8Z" style="fill:#fff"/><path d="M76.9,72.8h7.8a7.2,7.2,0,0,0,5.1-5.5,7.2,7.2,0,0,0-7.4-.2l-5.5,5.5Z" style="fill:#fff"/><path d="M81.1,66a6.8,6.8,0,0,0-.2-7.2c-2.4.5-5.1,1.6-5.5,3.6v9h.2Z" style="fill:#fff"/><path d="M73.5,71.5h.1v-9c-.3-2-2.9-3.1-5.3-3.6-1.3,2.1-2.4,4.7-1.2,6.3Z" style="fill:#fff"/><path d="M72.3,72.8l-6.5-6.4c-1.7-1.2-4.4-.1-6.5,1.3a7.2,7.2,0,0,0,5,5.2h8Z" style="fill:#fff"/><path d="M72.3,74.6H64.4a7.4,7.4,0,0,0-5.1,5.5c4,2.2,6.9.5,7.4.2l5.7-5.6A.1.1,0,0,1,72.3,74.6Z" style="fill:#fff"/><path d="M68,81.5a7.1,7.1,0,0,0,.2,7.2c2.4-.5,5.1-1.6,5.5-3.6V76h-.1Z" style="fill:#fff"/><path d="M75.6,76h-.1v9c.4,2,2.9,3.1,5.3,3.6,1.3-2.1,2.4-4.7,1.2-6.3Z" style="fill:#fff"/><path d="M71.7,73.5a2.7,2.7,0,1,1,2.7,2.6A2.7,2.7,0,0,1,71.7,73.5Z" style="fill:#fef054"/></g><g id="flower-3" data-name="flower"><path d="M37.6,59.9a6.5,6.5,0,0,0,9.1,9,6.6,6.6,0,0,0,12.9,0,6.5,6.5,0,0,0,8.3-.8,6.4,6.4,0,0,0,.7-8.4A6.4,6.4,0,0,0,74,53.4,6.5,6.5,0,0,0,68.6,47a6.5,6.5,0,0,0-9.2-9A6.4,6.4,0,0,0,53,32.7a6.5,6.5,0,0,0-6.4,5.4,6.5,6.5,0,0,0-9.1,9.1,6.4,6.4,0,0,0,.1,12.7Z" style="fill:url(#radial-gradient-5)"/><g style="mix-blend-mode:multiply"><path d="M68.2,59.6a7.2,7.2,0,0,0-4.9-5.2H55.4v.2l6.3,6.3C63.5,62.1,66.1,61,68.2,59.6Z" style="fill:#fea7a9"/><path d="M55.4,52.6h7.8c.9-.2,3.9-1.3,5-5.5-3.9-2.2-6.9-.5-7.3-.2l-5.6,5.5A.1.1,0,0,1,55.4,52.6Z" style="fill:#fea7a9"/><path d="M59.6,45.8a7.3,7.3,0,0,0-.2-7.2c-2.4.5-5.1,1.6-5.5,3.6v9h.2Z" style="fill:#fea7a9"/><path d="M51.9,51.3h.2v-9c-.4-2-3-3.1-5.3-3.6-1.3,2.1-2.4,4.7-1.3,6.3Z" style="fill:#fea7a9"/><path d="M50.8,52.6l-6.5-6.4c-1.7-1.2-4.4,0-6.5,1.3,1.2,4.2,4.4,5.1,5,5.2h7.9A.1.1,0,0,0,50.8,52.6Z" style="fill:#fea7a9"/><path d="M50.8,54.4h-8a7.5,7.5,0,0,0-5,5.5c3.9,2.2,6.9.5,7.3.2l5.7-5.6Z" style="fill:#fea7a9"/><path d="M46.4,61.3a7.1,7.1,0,0,0,.2,7.2c2.5-.5,5.2-1.6,5.6-3.6V55.8H52Z" style="fill:#fea7a9"/><path d="M54.1,55.8a.1.1,0,0,0-.1.1v9c.4,2,3,3.1,5.4,3.6,1.2-2,2.3-4.6,1.2-6.3Z" style="fill:#fea7a9"/></g><path d="M50.2,53.3a2.7,2.7,0,1,1,2.6,2.6A2.6,2.6,0,0,1,50.2,53.3Z" style="fill:#fff"/></g><g id="plant-2" data-name="plant"><path d="M19.1,89.1a3.6,3.6,0,0,0-3.8.8c.4.1.5.3.7.6s-2.8.7-3,1.8a1.9,1.9,0,0,1,.8.2,3,3,0,0,0-1.6,2.6c.3-.2.5-.1.8-.1s-.9,3.1-1.1,4.4h0c1.4,0,3.2.4,4.7-.3a2.6,2.6,0,0,1-.3.8,3.3,3.3,0,0,0,2.9-1.1,2.2,2.2,0,0,1,0,.8,2.9,2.9,0,0,0,2.3-2.6,1.1,1.1,0,0,1,.5.8,3.5,3.5,0,0,0,1.4-3.6c.3.2.3.5.5.8a4.2,4.2,0,0,0-.6-5.1c-.9-1.2-3-2.4-4.8-1.4C18.6,88.8,19,88.9,19.1,89.1Z" style="fill:#81b9a8"/><path d="M29.4,88.4c-.8.4-1.8,1.3-1.6,2.4h.7a2.2,2.2,0,0,0-.7,2.6l.5-.4a2.4,2.4,0,0,0,.6,2.3c.1-.3.2-.3.4-.5a7.5,7.5,0,0,0,1.8,3h0c.8-.7,2-1.5,2.4-2.6s.2.3.2.5a2.2,2.2,0,0,0,1-2.1l.5.5a2.3,2.3,0,0,0-.2-2.7,1,1,0,0,1,.7.2,2.7,2.7,0,0,0-1.2-2.7h.7a3.4,3.4,0,0,0-3.1-2.4c-1.2-.1-2.9.4-3.4,1.8S29.2,88.3,29.4,88.4Z" style="fill:#81b9a8"/><path d="M26.4,85.6A2.7,2.7,0,0,1,24,87.2a2,2,0,0,0,.1-.7,2.3,2.3,0,0,1-2.7.6c.3-.1.3-.2.4-.5a2.3,2.3,0,0,1-2.3-.5.7.7,0,0,0,.5-.4,7.5,7.5,0,0,1-3-1.8h0c.7-.8,1.5-2,2.6-2.4l-.5-.2a2.1,2.1,0,0,1,2.1-1c-.2-.2-.2-.3-.5-.4a2.1,2.1,0,0,1,2.7.1.8.8,0,0,0-.2-.7,2.6,2.6,0,0,1,2.7,1.2c.1-.3-.1-.5-.1-.7a3,3,0,0,1,2.4,3,3,3,0,0,1-1.8,3.4C26.4,86,26.5,85.8,26.4,85.6Z" style="fill:#81b9a8"/><path d="M46.2,67.5,45.1,69c-.8.9-1.8,2.3-3.1,3.9s-2.8,3.3-4.6,5.2-3.6,3.8-5.5,5.7l-3,2.8-3,2.6-2.8,2.3-2.7,2L18.1,95l-1.9,1.1-1.6.9,1.5-1,1.8-1.3L20.1,93l2.5-2,2.8-2.4,2.9-2.7,2.9-2.7L34,80.3c1-.9,1.9-1.9,2.8-2.8l4.8-5Z" style="fill:#108d85"/></g><g id="flower-4" data-name="flower"><path d="M45,72.1c.7-.2,7.9-2,13.7.8s7.7,8,7.8,8.5-6.8,1.4-11.2-.6C48.3,77.4,45.3,72.7,45,72.1Z" style="fill:url(#linear-gradient)"/><path d="M22.6,79.7c.1,0,.1-.1.1-.3s2.3-5.2,8.5-7.5,13,.2,13.7.4A24.2,24.2,0,0,1,33.8,80C29.4,81.7,23.2,79.9,22.6,79.7Z" style="fill:url(#linear-gradient-2)"/><path d="M31.2,53.9a6.2,6.2,0,0,0,.3-1.1c.6.2,6.6,2.4,9.2,6.4,4.2,6.6,4.2,12.2,4.2,12.8s-7.8-2.4-11.3-7.8S30.8,55.7,31.2,53.9Z" style="fill:url(#linear-gradient-3)"/><path d="M45.6,65.6a17.4,17.4,0,0,1,3.2-6.7c4.6-5.8,9.5-5.7,10.1-5.7a27.4,27.4,0,0,1-.7,5.2,14.8,14.8,0,0,1-2.5,5.5A24.1,24.1,0,0,1,45,72,28.2,28.2,0,0,1,45.6,65.6Z" style="fill:url(#linear-gradient-4)"/><path d="M40.7,85.8a27.8,27.8,0,0,1,.7-5.7,26.6,26.6,0,0,1,3.5-7.7c.6.7,5.1,6.4,4.8,12.8a16,16,0,0,1-.5,3.9,11.1,11.1,0,0,1-4.1,6.6C44.6,95.3,40.5,90.5,40.7,85.8Z" style="fill:url(#linear-gradient-5)"/><path d="M44.9,72.5c-.6.2-6.5,2-11.5-.1s-6.7-6.3-6.8-6.7,5.6-1.5,9.3,0C41.9,68.2,44.6,72,44.9,72.5Z" style="fill:url(#linear-gradient-6)"/><path d="M63.5,66.2a.4.4,0,0,1-.1.3c-.3,1-1.8,4.3-7,6.3s-10.8-.1-11.4-.4A20.7,20.7,0,0,1,54.2,66C57.9,64.6,63,66.1,63.5,66.2Z" style="fill:url(#linear-gradient-7)"/><path d="M57.1,87c-.1.5-.2.8-.2.9S51.4,86.2,49,83c-3.8-5.3-4-9.9-4-10.5s6.5,1.7,9.7,6.1S57.4,85.5,57.1,87Z" style="fill:url(#linear-gradient-8)"/><path d="M44.6,77.9a14,14,0,0,1-2.3,5.7c-3.5,5-7.7,5.2-8.1,5.2a20.4,20.4,0,0,1,.3-4.3,12.8,12.8,0,0,1,1.8-4.7,20.4,20.4,0,0,1,8.6-7.3A23.6,23.6,0,0,1,44.6,77.9Z" style="fill:url(#linear-gradient-9)"/><path d="M48.7,61.3a24.3,24.3,0,0,1-.8,4.7,19.3,19.3,0,0,1-3,6.4c-.4-.6-4.1-5.4-3.8-10.7a16.4,16.4,0,0,1,.5-3.2A9.1,9.1,0,0,1,45.2,53C45.5,53.4,48.8,57.4,48.7,61.3Z" style="fill:url(#linear-gradient-10)"/></g><g id="berry"><ellipse cx="83.6" cy="52.2" rx="2.5" ry="2.5" style="fill:url(#linear-gradient-11)"/><path d="M84.2,52.2a.6.6,0,0,1,1.2,0,.6.6,0,0,1-1.2,0Z" style="fill:#fff"/></g></g></g></g></svg>