<svg id="图层_1" data-name="图层 1" xmlns="http://www.w3.org/2000/svg" viewBox="0 0 100 100"><title>male</title><circle cx="50" cy="50" r="50" style="fill:#2ec4b6"/><path d="M49.9,67.1c-2.3,0-4.8-1.4-7.1-3.2l-1.5,7.5,6.2,5.7a3.7,3.7,0,0,0,5,0l6.2-5.7-1.6-7.7C54.8,65.6,52.2,67.1,49.9,67.1Z" style="fill:#efca9e"/><path d="M63.5,52.8c0-2.7.2-6.2.2-6.4a10.2,10.2,0,0,0-1.3-5,2.4,2.4,0,0,1-.2-.8c0-1.6-.2-4.2-1-5s-2.1-3.7-4.3-3.2a17.9,17.9,0,0,1-5.3.6s-5.7-.3-7.5-.7-6,.2-6.3,4-.2,1.9,0,3.4a20.7,20.7,0,0,1-1.7,6.6,4.5,4.5,0,0,0-.3,1.6l.3,4.2a.4.4,0,0,1-.1.3,17.6,17.6,0,0,0,1,5.5c1.9,2.9,8.1,9.1,12.9,9.2s10.9-6.3,12.8-9.2a13.2,13.2,0,0,0,1-4.7A.5.5,0,0,1,63.5,52.8Z" style="fill:#ffddb0"/><path d="M36,52.4a.4.4,0,0,0,.1-.3l-.3-4.2a3.7,3.7,0,0,1,.1-1.1,5.8,5.8,0,0,0-.5-1.4S32,44,32.1,46.9s3,7.3,4.1,7.5A12.3,12.3,0,0,1,36,52.4Z" style="fill:#efca9e"/><path d="M64.3,45.4a3.5,3.5,0,0,0-.6,1.4c-.1,1.1-.2,3.8-.2,6a.5.5,0,0,0,.2.4c0,.4-.1.8-.1,1.2s3.9-3.8,4-7.5S64.3,45.4,64.3,45.4Z" style="fill:#efca9e"/><path d="M51.6,33s-5.7-.3-7.5-.7-6,.2-6.3,4-.2,1.9,0,3.4a20.7,20.7,0,0,1-1.7,6.6,4.5,4.5,0,0,0-.3,1.6l.3,4.2c.1.5-.7.6-.8.1a45.2,45.2,0,0,1-1.2-7.5S32.5,27.5,39,26.2c0,0,4.9-9.2,17.4-5.2,0,0,9.6,3.4,9.6,15.2,0,0,0,9.6-1.7,16.7a.4.4,0,0,1-.8-.1c0-2.7.2-6.2.2-6.4a10.2,10.2,0,0,0-1.3-5,2.4,2.4,0,0,1-.2-.8c0-1.6-.2-4.2-1-5s-2.1-3.7-4.3-3.2A17.9,17.9,0,0,1,51.6,33Z" style="fill:#221f1e"/><path d="M57.6,66.4s-.9,4.4-6,8.1a1,1,0,0,0,.1,1.7L54.2,78l1.5,1.1a1.1,1.1,0,0,0,1.6-.3c1.2-1.9,3.4-5.8,3.2-7.2S57.6,66.4,57.6,66.4Z" style="fill:#e2a833"/><path d="M42.3,66.4s.8,4.2,5.6,7.8a1.3,1.3,0,0,1,0,2.2L45.6,78l-1.5,1.1a1.2,1.2,0,0,1-1.7-.3c-1.1-2-3.4-5.9-3.2-7.3S42.3,66.4,42.3,66.4Z" style="fill:#e2a833"/><path d="M79.5,74.7c-1.3-1.4-12.8-3.3-19.3-4.8-1.7,4.4-4.8,6.2-10.2,6.2s-8.5-1.8-10.2-6.2c-6.5,1.5-18,3.4-19.3,4.8s-3,6.6-4.5,12a50.1,50.1,0,0,0,68,0C82.5,81.3,80.7,76.1,79.5,74.7Z" style="fill:#fcc03c"/></svg>