<svg xmlns="http://www.w3.org/2000/svg" viewBox="0 0 67.1 49"><title>rigan02</title><g id="图层_2" data-name="图层 2"><g id="图层_1-2" data-name="图层 1"><path d="M24.8,4.6c0,.2-.1.6-.1,1.2s-.1,1.3-.2,2.1v2.5a22.5,22.5,0,0,0,0,2.6,17.3,17.3,0,0,1-.2,3.6,4.4,4.4,0,0,1-.5,1.8l-.6.7-.8.2h-.8l-.7-.4c-.2-.2-.3-.3-.5-.3h-9l-.2.2a2.7,2.7,0,0,1-1,.6,2.1,2.1,0,0,1-1.1-.1,1.8,1.8,0,0,1-.8-.7A2.8,2.8,0,0,1,8,17.2c-.1-1.8-.1-3.7-.1-5.6s-.2-4.1-.4-6.5S7.8,1.4,9,1.2h1.5a2.7,2.7,0,0,1,.8.7l.3.2L17,1.9a15.2,15.2,0,0,1,3.3.2h.5l.3-.2a2.2,2.2,0,0,1,1.4-.5A3.4,3.4,0,0,1,24,2a1.9,1.9,0,0,1,.8,1A2.2,2.2,0,0,1,24.8,4.6ZM21,8.5V6.2a5.3,5.3,0,0,0-.1-1.5.9.9,0,0,0-.7-.9H11.4l-.4.3a13.4,13.4,0,0,1-.1,1.9V8.5a.3.3,0,0,0,.3.3h9.5A.3.3,0,0,0,21,8.5ZM21,11c0-.2-.1-.3-.4-.3h-5a30.4,30.4,0,0,0-4.4.3.3.3,0,0,0-.3.3c0,.7.1,1.4.1,2.2s.1,1.6.1,2.3.1.4.4.4h7.7a3.3,3.3,0,0,0,1.2-.2,1.5,1.5,0,0,0,.4-.8v-.5c0-.3.1-.7.1-1V12.5C20.9,12,21,11.5,21,11Z" style="fill:#c5c5c5"/><path d="M66.7,8a3.6,3.6,0,0,1-.8,1.2l-1.2.8a3.4,3.4,0,0,1-2,.4,4.2,4.2,0,0,1-2.2-.5A14.9,14.9,0,0,0,58,9.2a19.5,19.5,0,0,0-3.9-.4H52.5c-.3,0-.4.1-.4.3v4.2c0,1.1.1,2,.1,2.8a14.2,14.2,0,0,1,.1,1.9,2.8,2.8,0,0,1-.1,1,.6.6,0,0,1-.3.6,1,1,0,0,1-.5.4c-.1.2-.4.3-.8.4l-.8.2h-.9l-.5-.5a2.5,2.5,0,0,1-.2-1V17.1c0-1.5.1-3,.1-4.4s.1-2.6.1-3.7a.3.3,0,0,0-.3-.3H42.8l-2.4.2-1.6.2-1,.2-.9.3a4.1,4.1,0,0,1-2,.3c-.3-.2-.4-.6-.3-1.3a2.2,2.2,0,0,1,.6-1,5.2,5.2,0,0,1,1.1-1,2.8,2.8,0,0,1,1.2-.5h1l1.4.3h8.2a.3.3,0,0,0,.3-.3,8.6,8.6,0,0,0,.1-1.6V3a.4.4,0,0,0-.4-.4H41.4a3.5,3.5,0,0,1-1.8.3.7.7,0,0,1-.6-.7,2,2,0,0,1,.7-1.1l1.6-1A9.3,9.3,0,0,1,43.2,0a2.3,2.3,0,0,1,1.2.2l1.4.3H58.4l1.4.2,1,.2a1.4,1.4,0,0,1,.2.7.8.8,0,0,1-.5.5l-1.4.3-1.9.2H52.5c-.2,0-.3.2-.3.4a9.1,9.1,0,0,0-.1,1.7V6.2c0,.2.1.3.4.3H65.2l.6.2h.8c.2-.1.3,0,.3.1S66.9,7.7,66.7,8Z" style="fill:#c5c5c5"/><path d="M12.7,41.1a4.2,4.2,0,0,1-1.2,2.3,17.4,17.4,0,0,1-3.9,3.3,3.5,3.5,0,0,1-.9.6l-.8.2-.7-.2a2.4,2.4,0,0,1-.9-.6.9.9,0,0,1-.3-1,1.8,1.8,0,0,1,.6-1.3,6.8,6.8,0,0,0,.6-2,22.4,22.4,0,0,0,.1-3.8,1.9,1.9,0,0,0-.2-1c-.1-.2-.3-.2-.7-.3H2.9l-.8.2-.6.3a1.5,1.5,0,0,1-.9.2.5.5,0,0,1-.5-.3,2.4,2.4,0,0,1,0-1.2,3.2,3.2,0,0,1,1.2-1.6,2,2,0,0,1,2.1,0,3.1,3.1,0,0,0,1.5.3,1.2,1.2,0,0,0,.9-.3l.4-.2a2.2,2.2,0,0,1,.8,0h.7c.3.2.5.3.6.5a1.3,1.3,0,0,1,.3.8,1.3,1.3,0,0,1-.2,1A4.8,4.8,0,0,0,8,39.1,14,14,0,0,0,8,42c0,.8.4.9,1.2.4l1.3-.9L12,40.3C12.6,39.8,12.9,40,12.7,41.1Zm-3-9.3q.9.7.6,1.2a1.9,1.9,0,0,1-1.3.3H7.5a4.2,4.2,0,0,1-1.2-.3l-1-.4-1-.7a1.6,1.6,0,0,1-.6-1.2,2.4,2.4,0,0,1,.6-1.5,3.4,3.4,0,0,1,1.2-.6,2.9,2.9,0,0,1,1.5.7l1.4,1.4Zm22.9,2.3a5.6,5.6,0,0,1-1.2,2,3.7,3.7,0,0,1-1.6.9,3,3,0,0,1-1.6.1,4.8,4.8,0,0,1-1.6-.8l-.4-.4-.8-.5-.7-.6-.6-.4a41.9,41.9,0,0,0-4.5-2.6,1.1,1.1,0,0,0-1.3.3l-1.7,1.8a8.3,8.3,0,0,1-1.4,1.3,4.7,4.7,0,0,1-1.2.9l-1.2.7a4.9,4.9,0,0,1-2.4.7,2.2,2.2,0,0,1-1.5-1c-.1-.2-.2-.4-.1-.5s.2-.3.6-.4l2-1,1.9-1.3,1.8-1.5,1.4-1.6.5-.8.5-.8c.4-.9,1.1-1.2,2.2-.7a1,1,0,0,1,.8.6.7.7,0,0,1,0,.9c-.2.4,0,.7.5.9l2.4.8,2.8.8,3.1.8,2.8.7c.3,0,.5.1.5.2ZM28,45.6a2.4,2.4,0,0,1-1,1l-1.6.7a12.8,12.8,0,0,1-3,.4,13.2,13.2,0,0,1-3.4-.4,4.6,4.6,0,0,1-2.4-1.4,3.7,3.7,0,0,1-.9-1.9,13.4,13.4,0,0,1-.1-2V40c.1-.6.1-1.2.2-1.7s.1-1,.1-1.3.6-1.3,1.1-1.5a1.7,1.7,0,0,1,1.5.2,1.3,1.3,0,0,1,.4.7,2.8,2.8,0,0,1-.1.9c-.1.4-.1,1-.2,1.8s.2.6.7.4l1.9-1a7.6,7.6,0,0,0,1.2-1c.3-.3.5-.6.6-.6a1.5,1.5,0,0,1,.8-.2l.7.2a1.2,1.2,0,0,1,.6.8,2.9,2.9,0,0,1,.2.9c0,.2-.2.4-.4.7l-.7.4-1.2.5-2.1.7-1.5.4-.7.2c-.1,0-.1.2-.1.4v.8a1.4,1.4,0,0,0,.5.8,1.6,1.6,0,0,0,.8.6l1.1.2h1.7l1.9-.3,1.5-.4a.8.8,0,0,1,.8-.1,1.9,1.9,0,0,1,.8.3,1.4,1.4,0,0,1,.5.8A1.5,1.5,0,0,1,28,45.6Z" style="fill:#c5c5c5"/><path d="M67,33.7a3.4,3.4,0,0,1-1,1.6,3.9,3.9,0,0,1-2,1.1H62.4l-.8-.3-1-.5-2.3-1.3-1.8-1-1.9-.9-2.4-1.1-.8-.4-.6-.2-.5-.2-.6.3-4,2.1a40.7,40.7,0,0,1-3.8,1.7l-3,1a5.9,5.9,0,0,1-2.1.4,2.7,2.7,0,0,1-1.6-.2,2.4,2.4,0,0,1-1.2-.7,1.2,1.2,0,0,1-.4-.9q.1-.4.9-.6l1.5-.3,2-.4,2-.5,1.1-.4L43.9,31a7.5,7.5,0,0,0,1.8-.8l1.6-.9,2-1.3a4.1,4.1,0,0,1,1.5-.7.9.9,0,0,1,.9.3,1.4,1.4,0,0,1,.6,1.1c-.1.1-.1.3,0,.3s0,.2.2.2l2.6,1,2.7.8,3.4.8,5.1.9.7.3C67.2,33.1,67.2,33.3,67,33.7ZM49.2,39v.7a1.5,1.5,0,0,0-.1.7,1.9,1.9,0,0,0-.1.8c-.1.3-.1.7-.2,1.2a3.9,3.9,0,0,1-.3,1.1,1.2,1.2,0,0,1-.5.5l-.6.2-.9-.2a3.7,3.7,0,0,0-1.4-.2H41.7l-.5.3-.6.4H40a1.3,1.3,0,0,1-.6-.5,8.6,8.6,0,0,1-.3-1.3,9.3,9.3,0,0,0-.9-3.9,1.6,1.6,0,0,1,0-.7,1.9,1.9,0,0,1,.2-.7l.5-.7.6-.4a1.2,1.2,0,0,1,1,.2l.5.4h.5a12.3,12.3,0,0,1,2.8,0l1,.2h1c.1,0,.2,0,.2-.1l1-.3h.7a1.7,1.7,0,0,1,.9.6A2.5,2.5,0,0,1,49.2,39Zm-2.6.9c.1-.4,0-.6-.2-.7l-.9-.2a17.3,17.3,0,0,0-3.3,0h-.4c0,.1-.1.2-.1.4a4.5,4.5,0,0,1,.1,1.1,3.4,3.4,0,0,0,.1,1v.4h3.3a1.4,1.4,0,0,0,1.2-1,1.1,1.1,0,0,0,.1-.5A1.3,1.3,0,0,0,46.6,39.9ZM56,34a1,1,0,0,1-.4.7,1.8,1.8,0,0,1-1.1.3H51.8l-3.7.2H46.6l-1.4.2h-.4a.5.5,0,0,1-.4-.2l-.3-.3v-.4a1.6,1.6,0,0,1,.6-.8,1.4,1.4,0,0,1,.9-.5h9.1C55.6,33.3,56.1,33.5,56,34Zm5.9,7.4a5.5,5.5,0,0,1-2.3,2.5,8.8,8.8,0,0,1-4.3,1.2l-.7.2a1.4,1.4,0,0,0-.2.9c0,.5-.1.9-.1,1.2a1.9,1.9,0,0,1-.2.8,1,1,0,0,1-.5.4l-1,.3c-1,.3-1.5-.3-1.5-1.9a12.7,12.7,0,0,1,.1-2V43.1a11.5,11.5,0,0,0,.1-1.9c0-.6.1-1.3.1-2.1s-.2-.5-.6-.3-.6-.1-.8-.4a1.1,1.1,0,0,1,0-1.1c.2-.2.3-.5.6-.7l.9-.5.9-.2h.8a4.2,4.2,0,0,0,1.4.3h1.2l1.5-.2h.8l1,.2,1.1.4.8.5a3.1,3.1,0,0,1,1.2,1.9A4.4,4.4,0,0,1,61.9,41.4Zm-3.4-2.3a2,2,0,0,0-1.3-.8,6.2,6.2,0,0,0-2.1-.2h-.7c-.1.1-.1.2-.1.4v4.1a.5.5,0,0,0,.3.5h.6a5.2,5.2,0,0,0,2-.7,3.6,3.6,0,0,0,1.3-1.1,2.4,2.4,0,0,0,.4-1.3A1.5,1.5,0,0,0,58.5,39.1Z" style="fill:#c5c5c5"/></g></g></svg>