<svg id="图层_1" data-name="图层 1" xmlns="http://www.w3.org/2000/svg" viewBox="0 0 220 220"><title>suanming_bg_personality</title><rect width="220" height="220" style="fill:#fff;opacity:0"/><path d="M135.7,220c-3.1-11.8-7.3-27-10-34.2-4.8-12.6-47.8-29.5-47.8-29.5l-10,1.1-10.1-1.1s-43,16.9-47.7,29.5C7.4,193,3.1,208.2,0,220Z" style="fill:#2ec4b6"/><path id="_路径_" data-name="&lt;路径&gt;" d="M78.6,156.3V145.1H57.8v11.2h0c1.4,6.5,10.3,13.7,10.3,13.7s9.8-8.8,10.4-13.6Z" style="fill:#ffddb0"/><path d="M57.8,152.2a17.6,17.6,0,0,0,9.9,3.4,18.2,18.2,0,0,0,10.9-4.1v-6.4H57.8Z" style="fill:#efca9e"/><path d="M43.3,95.3c-4,9.6-1,30.6-1,30.6l50.5.4c1.3-14.6.6-24.4-1.5-31Z" style="fill:#523219"/><path id="_路径_2" data-name="&lt;路径&gt;" d="M96.1,124.4a6.4,6.4,0,0,0-6.4-6.3,6.3,6.3,0,0,0-6.3,6.3,6.4,6.4,0,0,0,6.3,6.4A6.4,6.4,0,0,0,96.1,124.4Z" style="fill:#ffddb0"/><path id="_路径_3" data-name="&lt;路径&gt;" d="M51.4,124.4a6.4,6.4,0,0,0-6.4-6.3,6.3,6.3,0,0,0-6.3,6.3,6.4,6.4,0,0,0,6.3,6.4A6.4,6.4,0,0,0,51.4,124.4Z" style="fill:#ffddb0"/><path id="_路径_4" data-name="&lt;路径&gt;" d="M90.8,103.1h0Z" style="fill:#383838"/><path id="_路径_5" data-name="&lt;路径&gt;" d="M90.7,103h0Z" style="fill:#383838"/><path id="_路径_6" data-name="&lt;路径&gt;" d="M46.6,119.7Z" style="fill:none"/><path d="M88.9,123.1a35.4,35.4,0,0,1-3.6,15.3c-3.8,7.8-10.3,13.8-17.6,13.8s-13.7-6-17.5-13.8h0a35.5,35.5,0,0,1-3.7-15.3v-9.9h.1c3.8-2.4,8.2-11.3,8.2-11.3a39.1,39.1,0,0,0,12.9,1.9,39.1,39.1,0,0,0,12.9-1.9s4.4,8.9,8.2,11.3Z" style="fill:#523219"/><path d="M87.1,119.3a42.6,42.6,0,0,1-3.3,16.2c-3.5,8.3-9.4,14.6-16.1,14.6s-12.6-6.3-16.1-14.6h0a42.6,42.6,0,0,1-3.3-16.2V108.7h.2c3.4-2.4,7.5-11.9,7.5-11.9a31.2,31.2,0,0,0,11.8,2,31.2,31.2,0,0,0,11.8-2s4.1,9.5,7.5,11.9Z" style="fill:#ffddb0"/><ellipse cx="67.3" cy="95.5" rx="24" ry="2.9" style="fill:#523219"/><path id="_复合路径_" data-name="&lt;复合路径&gt;" d="M82.1,142.1c.2-3,0-5.8-.6-6.7s-4.4-3.5-13.6-3.5-12.5,1.8-13.6,3.9-.8,3.9-.5,7a30.1,30.1,0,0,1-3.6-4.4c3.8,7.8,10.2,13.8,17.5,13.8s13.8-6,17.6-13.8Zm-3.8-1.4c-.6,2.8-5.5,7.3-10.4,7.3s-9.7-4.5-10.3-7.3c-1.2-5.2,10.3-4.9,10.3-4.9S79.4,135.5,78.3,140.7Z" style="fill:#523219"/><polygon points="73.8 187.8 77.3 179.5 68.2 170 68.1 170.1 68.1 170 59 179.5 62.5 187.8 73.8 187.8" style="fill:#383533"/><polygon points="82.4 220 73.9 187.8 71 185.6 71 181.1 68.2 183.3 65.3 181.1 65.3 185.6 62.5 187.8 53.9 220 82.4 220" style="fill:#383533"/><path d="M59.8,53a7.4,7.4,0,0,0-4.7,1.8c0,.1-.1.2-.2.3a8,8,0,0,1,4.5,6.4A5.9,5.9,0,0,1,63.9,64l-.9.7a4.9,4.9,0,0,0-4.5-2.1,5.1,5.1,0,0,0-4.3,3.5l-1.1-.4a6.3,6.3,0,0,1,5.2-4.2,6.9,6.9,0,0,0-6.9-6.1,6.8,6.8,0,0,0-6.8,6.8,7.2,7.2,0,0,0,.6,2.9h0a8.6,8.6,0,0,1,2.8-.4h1.3l-.2,1.1H48a8,8,0,0,0-5.3,14,8,8,0,0,1,2.8-3.5.6.6,0,0,1-.1-.4A5.1,5.1,0,0,1,48,71.4l.6.9a4.1,4.1,0,0,0-2,3.6,4.3,4.3,0,0,0,2.5,3.9l-.4,1a5.2,5.2,0,0,1-3-3.3,7.8,7.8,0,0,0-2.6,5.7,7.6,7.6,0,0,0,4.2,6.9,6.2,6.2,0,0,1,4.8-4.3v1.1a5.2,5.2,0,0,0-3.9,3.9,5.8,5.8,0,0,0,5.8,4.8,6.3,6.3,0,0,0,2.7-.6,7.3,7.3,0,0,1-.9-3.5,4.5,4.5,0,0,1,.1-1.1,7.4,7.4,0,0,1,1.2-3.1l.9.7a6.4,6.4,0,0,0-1,2.6,2.8,2.8,0,0,0-.1.9,5.6,5.6,0,0,0,1,3.3,2.7,2.7,0,0,0,.7.8,5.6,5.6,0,0,0,4.2,1.8h2.5a.1.1,0,0,0,.1-.1h1.2V84.8h-.6a9,9,0,0,1-7.9-4.7,8.8,8.8,0,0,1-1.1-4.2h1.2a7.7,7.7,0,0,0,7.8,7.8h.6V59.9h0A6.9,6.9,0,0,0,59.8,53Z" style="fill:#ff715b"/><path d="M88.1,65.8H87l-.2-1.1h1.3a8.6,8.6,0,0,1,2.8.4h0a7.2,7.2,0,0,0,.6-2.9,6.8,6.8,0,0,0-6.8-6.8,6.9,6.9,0,0,0-6.9,6.1A6.3,6.3,0,0,1,83,65.7l-1.1.4a5.1,5.1,0,0,0-4.3-3.5,4.9,4.9,0,0,0-4.5,2.1l-.9-.7a5.9,5.9,0,0,1,4.5-2.5,8,8,0,0,1,4.5-6.4c-.1-.1-.2-.2-.2-.3A7.4,7.4,0,0,0,76.3,53a6.9,6.9,0,0,0-6.9,6.9h0V83.7H70a7.7,7.7,0,0,0,7.8-7.8H79a8.8,8.8,0,0,1-1.1,4.2A9,9,0,0,1,70,84.8h-.6V96.1h1.2a.1.1,0,0,0,.1.1h2.5a5.6,5.6,0,0,0,4.2-1.8,2.7,2.7,0,0,0,.7-.8,5.6,5.6,0,0,0,1-3.3,2.8,2.8,0,0,0-.1-.9A6.4,6.4,0,0,0,78,88l.9-.7a7.4,7.4,0,0,1,1.2,3.1,4.5,4.5,0,0,1,.1,1.1,7.3,7.3,0,0,1-.9,3.5,6.3,6.3,0,0,0,2.7.6,5.8,5.8,0,0,0,5.8-4.8,5.2,5.2,0,0,0-3.9-3.9V85.8a6.2,6.2,0,0,1,4.8,4.3A7.6,7.6,0,0,0,93,83.2a7.8,7.8,0,0,0-2.6-5.7,5.2,5.2,0,0,1-3,3.3l-.4-1a4.3,4.3,0,0,0,2.5-3.9,4.1,4.1,0,0,0-2-3.6l.6-.9a5.1,5.1,0,0,1,2.6,4.5.6.6,0,0,1-.1.4,8,8,0,0,1,2.8,3.5,8,8,0,0,0-5.3-14Z" style="fill:#ff715b"/><path d="M93,29.3v-3H89.7l-.3-2.5,3.2-.9-.8-2.8-3.2.8a24.4,24.4,0,0,0-1-2.4l2.9-1.6L89,14.3,86.1,16c-.5-.8-1-1.4-1.5-2.1l2.3-2.3L84.8,9.5l-2.4,2.3a15.6,15.6,0,0,0-2-1.6l1.7-2.8L79.5,5.9,77.8,8.7a15.7,15.7,0,0,0-2.3-.9l.8-3.2-2.9-.8L72.6,7A11.5,11.5,0,0,0,70,6.7V3.4H67V6.7a10.7,10.7,0,0,0-2.5.3l-.9-3.2-2.9.8.9,3.2a23.4,23.4,0,0,0-2.4.9L57.6,5.9,55,7.4l1.6,2.8-2,1.6L52.3,9.5l-2.2,2.1,2.4,2.3A16.6,16.6,0,0,0,50.9,16l-2.8-1.7-1.5,2.6,2.8,1.6-1,2.4-3.1-.8-.8,2.8,3.2.9a21.7,21.7,0,0,0-.4,2.5H44v3h3.3a23.4,23.4,0,0,0,.4,2.6l-3.2.8.8,2.9,3.1-.8c.3.8.7,1.6,1,2.3l-2.8,1.7,1.5,2.6,2.8-1.7,1.6,2.1-2.4,2.3,2.2,2.1,2.3-2.3,2,1.5L55,48.3l2.6,1.5,1.6-2.9,2.4,1-.9,3.2,2.9.8.9-3.2L67,49v3.3h3V49a23,23,0,0,0,2.6-.3l.8,3.2,2.9-.8-.8-3.2,2.3-1,1.7,2.9,2.6-1.5-1.7-2.9,2-1.5,2.4,2.3,2.1-2.1-2.3-2.3,1.5-2.1L89,41.4l1.5-2.6-2.9-1.7a16,16,0,0,0,1-2.3l3.2.8.8-2.9-3.2-.8.3-2.6ZM68.5,14.8a13,13,0,0,1,4.9.9l-4,7.1H67.7l-4.1-7.1A13.3,13.3,0,0,1,68.5,14.8Zm2.4,12.9a2.5,2.5,0,1,1-2.5-2.5A2.5,2.5,0,0,1,70.9,27.7ZM60.5,17.6l4,7a6.4,6.4,0,0,0-.8,1.4H55.6A13,13,0,0,1,60.5,17.6Zm0,20.5a13,13,0,0,1-4.9-8.5h8.1a5.3,5.3,0,0,0,.8,1.5Zm8,2.8a13.4,13.4,0,0,1-4.9-1l4.1-7h1.7l4,7A13,13,0,0,1,68.5,40.9Zm8-2.8-4-7a5.4,5.4,0,0,0,.9-1.5h8A12.2,12.2,0,0,1,76.5,38.1ZM73.4,26a6.7,6.7,0,0,0-.9-1.4l4-7A12.2,12.2,0,0,1,81.4,26Z" style="fill:#fcc03c"/><path d="M104.8,74.7l10.6,10.7a50.8,50.8,0,0,1,13.5-2.7l2.3-.2h0a20.5,20.5,0,0,0,12.4-6,21.2,21.2,0,1,0-36.1-15.1A57.9,57.9,0,0,1,104.8,74.7Z" style="fill:#2ec4b6"/><path d="M143.6,46.5a22.2,22.2,0,0,0-10.5-5.7,27.5,27.5,0,0,1,2.6,2.2,21.1,21.1,0,0,1-12.4,36h0l-2.3.2a60.4,60.4,0,0,0-10.1,1.6l4.5,4.6a50.8,50.8,0,0,1,13.5-2.7l2.3-.2h0a20.5,20.5,0,0,0,12.4-6A21.2,21.2,0,0,0,143.6,46.5Z" style="fill:#24b2a1"/><path d="M115.8,85.7,104.4,74.4a1.9,1.9,0,0,0-2.8,0h0a1.9,1.9,0,0,0,0,2.8L113,88.6a1.9,1.9,0,0,0,2.8,0h0A2.1,2.1,0,0,0,115.8,85.7Z" style="fill:#efebe8"/><path d="M113,88.5,101.7,77.2a2.1,2.1,0,0,0-2.9,0h0a1.9,1.9,0,0,0,0,2.8l11.4,11.4a1.9,1.9,0,0,0,2.8,0h0A2.1,2.1,0,0,0,113,88.5Z" style="fill:#d8d0ca"/><polygon points="101.5 93.2 96.9 88.7 100.7 81.7 108.4 89.5 101.5 93.2" style="fill:#c6b9b0"/><circle cx="121.2" cy="50.4" r="4.7" style="fill:#fff"/><path d="M102.5,129.7a15.2,15.2,0,0,0,2,4.7l-3,4,5.4,5.4,4-3.1a15.4,15.4,0,0,0,4.6,1.9l.7,5h7.7l.7-5.1a18.9,18.9,0,0,0,4.4-1.9l4.2,3.2,5.4-5.4-3.2-4.2a18.5,18.5,0,0,0,1.8-4.4l5.2-.7v-7.7l-5.1-.7a17.9,17.9,0,0,0-1.9-4.5l3.2-4.1-5.4-5.4-4.1,3.1a17.3,17.3,0,0,0-4.6-2l-.6-5h-7.7l-.7,5a17.2,17.2,0,0,0-4.7,1.9l-3.9-3-5.4,5.4,2.9,3.9a20,20,0,0,0-1.9,4.8l-4.9.6v7.7Zm9.4-4.5a8,8,0,0,1,16,0,8,8,0,1,1-16,0Z" style="fill:#70d6ff"/><path id="_复合路径_2" data-name="&lt;复合路径&gt;" d="M175.1,145.7v.4a.4.4,0,0,0,.4.4h1.9a4.9,4.9,0,0,1,.1,1.2l-1.9.4c-.2,0-.4.2-.3.4v.5c0,.2.2.3.5.3l1.9-.2c.1.4.1.8.2,1.2l-1.8.6a.5.5,0,0,0-.3.5v.4c.1.2.3.4.5.3l1.9-.4a5.6,5.6,0,0,0,.4,1.2l-1.8.8a.4.4,0,0,0-.2.5l.2.4a.4.4,0,0,0,.5.2l1.8-.6.6,1.1-1.7,1c-.2.1-.2.4-.1.6l.2.3a.5.5,0,0,0,.6.2l1.7-.9a6.1,6.1,0,0,0,.7,1l-1.5,1.3c-.2.1-.2.3-.1.5l.3.3c.1.2.3.3.5.1l1.6-1.1.8.9-1.3,1.5a.5.5,0,0,0,0,.5l.3.3a.5.5,0,0,0,.6.1l1.4-1.4.9.8-1.1,1.6c-.1.2-.1.5.1.6l.4.3a.3.3,0,0,0,.5-.1l1.3-1.5,1,.7-.9,1.7a.4.4,0,0,0,.1.5l.4.3c.2.1.4,0,.6-.2l1-1.6,1.1.5-.7,1.9a.5.5,0,0,0,.3.5h.4a.4.4,0,0,0,.5-.2l.8-1.7,1.2.4-.5,1.9c0,.2.1.4.3.4l.4.2c.3,0,.5-.1.5-.3l.6-1.9,1.2.3v1.9c-.1.2.1.4.3.4h.4a.5.5,0,0,0,.5-.3l.3-1.9h1.2v2a.4.4,0,0,0,.4.4h.5a.4.4,0,0,0,.4-.4v-2h1.2l.3,1.9a.5.5,0,0,0,.5.3h.4c.2,0,.4-.2.3-.4v-1.9l1.2-.3.6,1.9c0,.2.2.3.5.3l.4-.2c.2,0,.3-.2.3-.4l-.5-1.9,1.2-.4.8,1.7a.4.4,0,0,0,.5.2h.4a.5.5,0,0,0,.3-.5l-.7-1.9,1.1-.5,1,1.6c.2.2.4.3.6.2l.4-.3a.4.4,0,0,0,.1-.5l-.9-1.7,1-.7,1.3,1.5a.3.3,0,0,0,.5.1l.4-.3c.2-.1.2-.4.1-.6l-1.1-1.6.9-.8,1.4,1.4a.5.5,0,0,0,.6-.1l.3-.3a.5.5,0,0,0,0-.5l-1.3-1.5.8-.9,1.6,1.1c.2.2.4.1.5-.1l.3-.3c.1-.2.1-.4-.1-.5l-1.5-1.3a6.1,6.1,0,0,0,.7-1l1.7.9a.5.5,0,0,0,.6-.2l.2-.3a.6.6,0,0,0-.1-.6l-1.7-1,.6-1.1,1.8.6a.4.4,0,0,0,.5-.2l.2-.4a.4.4,0,0,0-.2-.5l-1.8-.8a5.6,5.6,0,0,0,.4-1.2l1.9.4c.2.1.4-.1.5-.3v-.4a.5.5,0,0,0-.3-.5l-1.8-.6c.1-.4.1-.8.2-1.2l1.9.2c.3,0,.5-.1.5-.3v-.5c.1-.2-.1-.4-.3-.4l-1.9-.4a4.9,4.9,0,0,1,.1-1.2h1.9a.4.4,0,0,0,.4-.4v-.4a.4.4,0,0,0-.4-.4h-1.9a4.9,4.9,0,0,1-.1-1.2l1.9-.4c.2,0,.4-.2.3-.4v-.4a.5.5,0,0,0-.5-.4l-1.9.2c-.1-.4-.1-.8-.2-1.2l1.8-.6a.5.5,0,0,0,.3-.5v-.4a.5.5,0,0,0-.5-.3l-1.9.4a3.6,3.6,0,0,0-.4-1.1l1.8-.9a.4.4,0,0,0,.2-.5l-.2-.4a.4.4,0,0,0-.5-.2l-1.8.7-.6-1.1,1.7-1.1a.4.4,0,0,0,.1-.5l-.2-.4a.5.5,0,0,0-.6-.2l-1.7.9-.7-1,1.5-1.2a.5.5,0,0,0,.1-.6l-.3-.3c-.1-.2-.3-.2-.5-.1l-1.6,1.1-.8-.9,1.3-1.5a.5.5,0,0,0,0-.5l-.3-.3a.4.4,0,0,0-.6,0l-1.4,1.3-.9-.8,1.1-1.6a.5.5,0,0,0-.1-.6l-.4-.2c-.1-.2-.4-.1-.5,0l-1.3,1.5-1-.7.9-1.7a.4.4,0,0,0-.1-.5l-.4-.2a.5.5,0,0,0-.6.1l-1,1.6-1.1-.5.7-1.8c0-.2-.1-.5-.3-.5l-.4-.2a.4.4,0,0,0-.5.2l-.8,1.8-1.2-.4.5-1.9c0-.2-.1-.5-.3-.5h-.4c-.3-.1-.5,0-.5.2l-.6,1.9-1.2-.2v-2c.1-.2-.1-.4-.3-.4h-.4a.5.5,0,0,0-.5.4l-.3,1.9h-1.2v-1.9a.4.4,0,0,0-.4-.4h-.5a.4.4,0,0,0-.4.4v1.9h-1.2l-.3-1.9a.5.5,0,0,0-.5-.4h-.4c-.2,0-.4.2-.3.4v2l-1.2.2-.6-1.9c0-.2-.2-.3-.5-.2h-.4c-.2,0-.3.3-.3.5l.5,1.9-1.2.4-.8-1.8a.4.4,0,0,0-.5-.2l-.4.2c-.2,0-.3.3-.3.5l.7,1.8-1.1.5-1-1.6a.5.5,0,0,0-.6-.1l-.4.2a.4.4,0,0,0-.1.5l.9,1.7-1,.7-1.3-1.5c-.1-.1-.4-.2-.5,0l-.4.2a.5.5,0,0,0-.1.6l1.1,1.6-.9.8-1.4-1.3a.4.4,0,0,0-.6,0l-.3.3a.5.5,0,0,0,0,.5l1.3,1.5-.8.9-1.6-1.1c-.2-.1-.4-.1-.5.1l-.3.3a.5.5,0,0,0,.1.6l1.5,1.2-.7,1-1.7-.9a.5.5,0,0,0-.6.2l-.2.4c-.1.2-.1.4.1.5l1.7,1.1-.6,1.1-1.8-.7a.4.4,0,0,0-.5.2l-.2.4a.4.4,0,0,0,.2.5l1.8.9a3.6,3.6,0,0,0-.4,1.1l-1.9-.4a.5.5,0,0,0-.5.3v.4a.5.5,0,0,0,.3.5l1.8.6c-.1.4-.1.8-.2,1.2l-1.9-.2a.5.5,0,0,0-.5.4v.4c-.1.2.1.4.3.4l1.9.4a4.9,4.9,0,0,1-.1,1.2h-1.9A.4.4,0,0,0,175.1,145.7Zm17.1.2a5.4,5.4,0,1,1,5.3,5.4A5.3,5.3,0,0,1,192.2,145.9Z" style="fill:#70d6ff"/><circle cx="167.9" cy="98.7" r="5" transform="translate(39.2 244.8) rotate(-79.1)" style="fill:#ff715b"/><path d="M142.9,101.6a23.4,23.4,0,0,0,1.9,7l-2.8,2.2,2.4,4.2,3.3-1.3a30.8,30.8,0,0,0,5.1,5.1l-1.2,3.3,4.1,2.4,2.3-2.7a25,25,0,0,0,6.9,1.8l.6,3.5h4.8l.5-3.5a26.7,26.7,0,0,0,7-1.8l2.2,2.7,4.2-2.4-1.3-3.3a30.8,30.8,0,0,0,5.1-5.1l3.3,1.3,2.4-4.2-2.7-2.2a26.7,26.7,0,0,0,1.8-7l3.5-.5V96.3l-3.5-.6a25,25,0,0,0-1.8-6.9l2.7-2.3-2.4-4.2L188,83.6a30.8,30.8,0,0,0-5.1-5.1l1.3-3.3L180,72.8l-2.2,2.8a23.4,23.4,0,0,0-7-1.9l-.5-3.5h-4.8l-.6,3.5a22,22,0,0,0-6.9,1.9l-2.3-2.8-4.1,2.4,1.2,3.3a30.8,30.8,0,0,0-5.1,5.1l-3.3-1.3L142,86.5l2.8,2.3a22,22,0,0,0-1.9,6.9l-3.5.6v4.8Zm6.5-5a16.7,16.7,0,0,1,1.5-5.4l3.7,2.2a16.8,16.8,0,0,0-.9,3.2Zm18.4,9.4c-3.8,0-7.4-3.3-7.3-7.2a7.4,7.4,0,0,1,7.3-7.3c3.8,0,7.5,3.3,7.3,7.3A7.4,7.4,0,0,1,167.8,106Zm-5.2-20.6-2.2-3.7a16.7,16.7,0,0,1,5.4-1.5v4.3A16.8,16.8,0,0,0,162.6,85.4Zm12.7-3.7-2.2,3.7a15,15,0,0,0-3.2-.9V80.2A16.7,16.7,0,0,1,175.3,81.7Zm-22.4,5.9a24,24,0,0,1,3.9-3.9l2.2,3.8a8.4,8.4,0,0,0-2.3,2.3Zm29.9,0-3.7,2.2a10.4,10.4,0,0,0-2.4-2.3l2.2-3.8A20.6,20.6,0,0,1,182.8,87.6Zm2.1,3.6a19.5,19.5,0,0,1,1.4,5.4H182a16.7,16.7,0,0,0-.8-3.2Zm1-.5h0a22.3,22.3,0,0,1,1.6,5.9h0A22.3,22.3,0,0,0,185.9,90.7Zm-1,15.4-3.7-2.2a15,15,0,0,0,.8-3.2h4.3A19.5,19.5,0,0,1,184.9,106.1Zm2-2.2c-.3.9-.6,1.9-1,2.8h0C186.3,105.8,186.6,104.8,186.9,103.9Zm.5-3a18.7,18.7,0,0,1-.4,2.5A18.7,18.7,0,0,0,187.4,100.9Zm-4.6,8.8a18,18,0,0,1-3.9,3.9l-2.2-3.7a13.6,13.6,0,0,0,2.4-2.4Zm-7.5,6a19.5,19.5,0,0,1-5.4,1.4v-4.3a15,15,0,0,0,3.2-.8Zm-9.5,1.4a19.5,19.5,0,0,1-5.4-1.4l2.2-3.7a16.7,16.7,0,0,0,3.2.8Zm-9-3.5a20.6,20.6,0,0,1-3.9-3.9l3.8-2.2a10.4,10.4,0,0,0,2.3,2.4Zm-5.9-7.5a16.7,16.7,0,0,1-1.5-5.4h4.3a15,15,0,0,0,.9,3.2Zm-2.6-9.5a17.9,17.9,0,0,1,1-4.7,6.1,6.1,0,0,0,.5-1.2h0a6.1,6.1,0,0,1-.5,1.2,17.9,17.9,0,0,0-1,4.7Zm34.8-10.5a8.6,8.6,0,0,1,.7,1h0a8.6,8.6,0,0,0-.7-1l-1.3-1.4Zm-3.6,28.5h0a21.9,21.9,0,0,0,4.3-4.3h0A21.9,21.9,0,0,1,179.5,114.6Zm-9.6,3.7h0a24.1,24.1,0,0,0,6-1.6h0A24.1,24.1,0,0,1,169.9,118.3Zm-10-1.6h0a22.3,22.3,0,0,0,5.9,1.6h0A22.3,22.3,0,0,1,159.9,116.7Zm-8-6.4h0a20,20,0,0,0,4.4,4.3h0A20,20,0,0,1,151.9,110.3Z" style="fill:#ff715b"/><path d="M131,166.9a19.5,19.5,0,0,0,1.7,6.4l-2.6,2.1,1.7,3,3.1-1.3a21,21,0,0,0,4.7,4.7l-1.2,3.1,2.9,1.7,2.1-2.6a20.2,20.2,0,0,0,6.4,1.7l.5,3.3h3.4l.5-3.3a20.1,20.1,0,0,0,6.5-1.7l2,2.6,3-1.7-1.2-3.1a21,21,0,0,0,4.7-4.7l3.1,1.3,1.7-3-2.6-2.1a22.4,22.4,0,0,0,1.7-6.4l3.3-.5V163l-3.3-.5a22.4,22.4,0,0,0-1.7-6.4L174,154l-1.7-3-3.1,1.3a21,21,0,0,0-4.7-4.7l1.2-3.1-3-1.8-2,2.7a23.2,23.2,0,0,0-6.5-1.8l-.5-3.3h-3.4l-.5,3.3a23.4,23.4,0,0,0-6.4,1.8l-2.1-2.7-2.9,1.8,1.2,3.1a21,21,0,0,0-4.7,4.7l-3.1-1.3-1.7,3,2.6,2.1a19.5,19.5,0,0,0-1.7,6.4l-3.3.5v3.4Zm21-9.6a7.4,7.4,0,1,1-7.3,7.4A7.4,7.4,0,0,1,152,157.3Zm-6.1,1.3a.8.8,0,1,1,0-1.1A.8.8,0,0,1,145.9,158.6Zm-1.1,12.3a.8.8,0,0,1,1.1,0,.7.7,0,0,1,0,1,.8.8,0,0,1-1.1,0A.9.9,0,0,1,144.8,170.9Zm7.3,2.5a.7.7,0,0,1,.7.7.8.8,0,0,1-.7.8.9.9,0,0,1-.8-.8A.8.8,0,0,1,152.1,173.4Zm6.1-2.6a.8.8,0,1,1,0,1.1A.8.8,0,0,1,158.2,170.8Zm1-12.3a.8.8,0,1,1,0-1.1A.8.8,0,0,1,159.2,158.5Zm-7.2-4a.8.8,0,0,1,.8.8.8.8,0,0,1-1.6,0A.8.8,0,0,1,152,154.5Zm16.9,10.2a17.9,17.9,0,0,1-1.5,7l-4.7-2.7a10.4,10.4,0,0,0,.9-4.3,11.5,11.5,0,0,0-10-11.4v-5.4A16.9,16.9,0,0,1,168.9,164.7Zm-7.4.7a.7.7,0,0,1-.8-.8.7.7,0,0,1,.8-.7.7.7,0,0,1,.7.7A.7.7,0,0,1,161.5,165.4Zm-23.2,9.1,4.7-2.7a11.4,11.4,0,0,0,9,4.4,11.7,11.7,0,0,0,9.1-4.3l4.6,2.6a16.9,16.9,0,0,1-27.4,0Zm4.3-9a.8.8,0,0,1-.8-.8.8.8,0,0,1,1.6,0A.8.8,0,0,1,142.6,165.5Zm-7.4-.8a16.8,16.8,0,0,1,15.2-16.8v5.4a11.5,11.5,0,0,0-9.9,11.4,12.2,12.2,0,0,0,.8,4.3l-4.6,2.7A16.6,16.6,0,0,1,135.2,164.7Z" style="fill:#fcc03c"/><circle cx="152" cy="164.7" r="4" style="fill:#fcc03c"/><circle cx="118.6" cy="96.2" r="3.5" style="fill:#ff715b"/><circle cx="97.6" cy="51.3" r="3.5" style="fill:#fcc03c"/><circle cx="139.4" cy="35.8" r="3.2" style="fill:#fcc03c"/><path d="M202.9,107.9h0a8.8,8.8,0,0,1-4.6,4.5h0a9.4,9.4,0,0,1,4.6,4.6h0a9.8,9.8,0,0,1,4.6-4.6h0a9.2,9.2,0,0,1-4.6-4.5Z" style="fill:#2ec4b6"/><path d="M109.6,2.3h0a9.2,9.2,0,0,1-4.5,4.6h0a8.8,8.8,0,0,1,4.5,4.6h0a9.4,9.4,0,0,1,4.6-4.6h0a9.8,9.8,0,0,1-4.6-4.6Z" style="fill:#2ec4b6"/><path d="M156.3,192.7h0a9.6,9.6,0,0,1-4.6,4.5h0a10.2,10.2,0,0,1,4.6,4.6h0a9.6,9.6,0,0,1,4.5-4.6h0a9,9,0,0,1-4.5-4.5Z" style="fill:#fcc03c"/><path d="M116.3,156.1h0a9.8,9.8,0,0,1-4.6,4.6h0a9.2,9.2,0,0,1,4.6,4.5h0a8.8,8.8,0,0,1,4.6-4.5h0a9.4,9.4,0,0,1-4.6-4.6Z" style="fill:#ff715b"/><path d="M128.8,8.2l50.8,20.6-10.2,12,37.5,32.6L149.7,51s8.9-24.3,8-24.3S128.8,8.2,128.8,8.2Z" style="fill:#fcc03c"/></svg>