<svg id="图层_1" data-name="图层 1" xmlns="http://www.w3.org/2000/svg" viewBox="0 0 220 220"><title>suanming_bg_love</title><rect width="220" height="220" style="fill:#fff;opacity:0"/><path d="M194.2,16.6h0a56.7,56.7,0,0,0-80.1,0L110,20.7l-4.1-4.1a56.7,56.7,0,0,0-80.1,0h0a56.5,56.5,0,0,0,0,80.1l4.1,4.1L110,181l80.1-80.2,4.1-4.1A56.5,56.5,0,0,0,194.2,16.6Z" style="fill:#fed4e7"/><ellipse cx="92.4" cy="200" rx="53.3" ry="5.3" style="fill:#bebb9b"/><path d="M78.7,160.5S52.6,166.3,59.3,181s48.2,17.4,55.2,11.7,12.3-14.5,8.8-25S78.7,160.5,78.7,160.5Z" style="fill:#366c86"/><polygon points="93 127.3 72.1 155.9 78.7 160.5 101.4 133 93 127.3" style="fill:#ffddb0"/><path d="M108.9,128.2l-7.4,6.2L91.4,127s9.5-11.9,15.6-18.6c0,0,4.2-5,7.5-4.7" style="fill:#f55652"/><path d="M108.8,98.7,78,106l3.8,11.7s24.7-3.7,27.9-6.5S115.1,97.7,108.8,98.7Z" style="fill:#bb3d52"/><path d="M101.6,117.8,96.2,138,80.5,149.6s4,6.5,20.3,13.5,22.5,4.6,22.5,4.6-.5-18.2.5-19.3,13.4-21.5,13.4-21.5l2.4-18.6s-2.9-2.7-5.9-2.9c0,0-6.4,2.5-12.9-4.7,0,0-3.1-4.4-11.5-1.3C109.3,99.4,102.4,111.4,101.6,117.8Z" style="fill:#ff715b"/><polyline points="55.6 132.6 45.1 159.7 49.8 163.5 62.5 137.6 55.6 132.6" style="fill:#ffddb0"/><path d="M125.4,90.3s.5,9.3-4.6,10.4c0,0-1.6,3.1,4.6,5.8s8.3-1.1,8.3-1.1-2.7-3.5,3.2-10Z" style="fill:#ffddb0"/><path d="M181.4,47.1s11.2,13.2.4,35-27.3,25.8-27.3,25.8S152,102.4,133.4,92,151.8,42.5,181.4,47.1Z" style="fill:#523219"/><path d="M126.4,22.8s-17.4.6-26.3,23.3-.5,37.5-.5,37.5,5.7-1.8,26,4.9S149.7,41.6,126.4,22.8Z" style="fill:#523219"/><path d="M166.4,81.3a33.4,33.4,0,1,0-53.6-37.7A32.3,32.3,0,0,0,110,58.1c-1.5,4.5-4.8,16-1.8,23s7.7,9.3,13.7,12.3h0l2.9,1.3,1.9.8,1.9.8,2.9,1.3h.1c6.2,2.4,12.3,3.9,18.3,1.8C158.1,96.6,165.2,83.6,166.4,81.3Z" style="fill:#ffddb0"/><path d="M151.4,88.6c-.4.8-2,.8-3.4,0s-2.3-2.2-1.8-3,2-.8,3.5,0S151.9,87.8,151.4,88.6Z" style="fill:#f9a57a"/><path d="M111.1,58.8s.9-2.3-3.1-3.1-11,11-.2,17C107.8,72.7,111.3,65,111.1,58.8Z" style="fill:#ffddb0"/><path d="M175.8,58.1s-52.3,6.5-67.5.2S106,16.2,135.9,14.9s45.7,3.5,54.4,19S175.8,58.1,175.8,58.1Z" style="fill:#523219"/><path d="M127.9,71.8c-.8,1.8-2.4,2.9-3.5,2.4s-1.4-2.4-.6-4.2,2.4-3,3.5-2.4S128.7,70,127.9,71.8Z" style="fill:#523219"/><path d="M147.8,80.6c-.8,1.8-2.4,2.9-3.5,2.4s-1.4-2.4-.6-4.2,2.4-3,3.5-2.5S148.7,78.7,147.8,80.6Z" style="fill:#523219"/><path d="M139.7,87.2c-5.4,4.5-13.9.7-14.3-6.3,0-1,.5-1.8,1-1.7h.5c.5.1.7.8.8,1.5a6.5,6.5,0,0,0,10.6,4.6c.5-.4,1.2-.7,1.6-.4l.4.3C140.7,85.6,140.5,86.6,139.7,87.2Z" style="fill:#523219"/><path d="M166.4,81.3s1.1-2.3,4.4.1S170,97,158.3,93.1C158.3,93.1,161.7,85.3,166.4,81.3Z" style="fill:#ffddb0"/><path d="M163.6,59.4s-11.2,18.3,2.8,21.9a26.6,26.6,0,0,0,14-25.5Z" style="fill:#523219"/><path d="M79.2,185.2c-.5.9-40.6-35.4-44.8-29,0,0-5.9,11.3,7.6,22.3,5,4.1,27.7,26.3,44.6,27.6s5.9-32.8,5.9-32.8Z" style="fill:#333"/><path d="M97.9,185.2c1.1,1.2,40.2-31.6,44-32.4s10.9,12.4-8.1,28c-4.7,3.8-28.7,24-41.5,25.3s-4.4-32.8-4.4-32.8Z" style="fill:#333"/><polygon points="66.4 180.8 63 186.8 86.6 192.7 111.8 190 118.3 185.2 111.8 170.1 83.9 167.5 66.4 180.8" style="fill:#333"/><path d="M47.2,47s-5.5,6.7-1.1,23.4S68,84.4,68,84.4V43.6Z" style="fill:#221f1e"/><path d="M116.3,180.8c-4.1-5.3-9.5-56.8-9.5-56.8l-5.4-18s-3.7-1.3-6.5-.3c0,0-4.8,4.8-13.6.9,0,0-4.7-2.8-11.2,3.5,0,0-1.4,13.8.5,19.9l-5.3,50.8s4.3,6.8,22.8,6.8,28.2-6.8,28.2-6.8" style="fill:#2ec4b6"/><path d="M103.4,132.1l5,7.5,11.5-4.8s-5.7-13.6-9.9-21.5c0,0-2.6-7.4-8.6-7.3" style="fill:#2ec4b6"/><path d="M70.6,130l-6.7,9.7-9.5-8.1s9.2-15.3,15.7-21.5c0,0,4.7-4.7,7.9-4.1" style="fill:#2ec4b6"/><path d="M81.3,95.2s4.1,8.4,0,11.4c0,0-.3,3.5,6.4,3.5s7.2-4.4,7.2-4.4-3.9-2.1-1.1-10.5Z" style="fill:#ffddb0"/><path d="M115.1,70.5a34.9,34.9,0,0,0,2.6-12.9A33.4,33.4,0,1,0,54.1,72c.5,4.7,2.1,16.6,7.7,21.8s10.7,5.4,17.5,5.7H89.8c6.8-.3,12.9-1.4,17.5-5.7C113.7,87.8,114.9,73,115.1,70.5Z" style="fill:#ffddb0"/><path d="M71.1,84.4c0,1-1.4,1.7-3.1,1.7s-3-.7-3-1.7,1.4-1.7,3-1.7S71.1,83.5,71.1,84.4Z" style="fill:#f9a57a"/><path d="M104.5,84.4c0,1-1.4,1.7-3.1,1.7s-3-.7-3-1.7,1.3-1.7,3-1.7S104.5,83.5,104.5,84.4Z" style="fill:#f9a57a"/><path d="M56.6,66.3a97.8,97.8,0,0,0,2.5,14.6H56.2L52,66.3l4.2-7.5Z" style="fill:#221f1e"/><path d="M106.5,31.4A16.5,16.5,0,0,1,124,32.8s-5.5.4-2.4,5.9,8.6,36.1-11.6,41.9c0,0-6.3-20.9-3.6-39.3S106.5,31.4,106.5,31.4Z" style="fill:#221f1e"/><path d="M55.4,72.2s-.1-2.5-4.1-1.6S45.7,85.1,58,86.3C58,86.3,58.1,77.8,55.4,72.2Z" style="fill:#ffddb0"/><ellipse cx="73.8" cy="77.3" rx="2.3" ry="3.6" style="fill:#523219"/><ellipse cx="95.6" cy="77.3" rx="2.3" ry="3.6" style="fill:#523219"/><path d="M93,86.6a8.7,8.7,0,0,1-15.5,0c-.5-.9-.3-1.8.2-1.9h.4c.5-.1,1,.4,1.4,1a6.5,6.5,0,0,0,11.5,0c.4-.6.9-1.1,1.4-1h.4C93.3,84.8,93.5,85.7,93,86.6Z" style="fill:#523219"/><path d="M115.1,70.5s.1-2.5,4.1-1.7,5.6,14.6-6.7,15.7C112.5,84.5,112.4,76.1,115.1,70.5Z" style="fill:#ffddb0"/><path d="M107.6,49.3s-6.9,12.6-32,9.8L78,51.9S64,67.8,49.9,67.2l-.2-8.4s-12.3-3.1-9-19.7c0,0,5.2,2.7,10.9-3S63.3,15.5,89.8,16.3,117.9,39.8,107.6,49.3Z" style="fill:#221f1e"/><path d="M85.3,200.3S75.2,214.6,86.7,220C86.7,220,93.2,198.2,85.3,200.3Z" style="fill:#24b2a1"/><path d="M91.9,200s12.2,12.9.8,18.3C92.7,218.3,84.9,202.8,91.9,200Z" style="fill:#24b2a1"/><path d="M139.6,108.3l-29.6,5,2.5,14s24.7-3.7,28-6.5S145.8,107.2,139.6,108.3Z" style="fill:#bb3d52"/><path d="M111,115.3l-40.9-5.2-4.5,4.4s40.1,9.2,46.6,10.9C114,125.9,111,115.3,111,115.3Z" style="fill:#ffddb0"/><path d="M65.6,114.5s-3.5-4.1,0-6.3a7.7,7.7,0,0,1,7.2-.3Z" style="fill:#ffddb0"/><polyline points="117.3 135.6 125.8 164.3 119.2 169.5 108.4 139.6 117.3 135.6" style="fill:#ffddb0"/></svg>