<svg xmlns="http://www.w3.org/2000/svg" viewBox="0 0 220 220"><title>suanming_bg_career</title><g style="isolation:isolate"><g id="图层_1" data-name="图层 1"><rect width="220" height="220" style="fill:#fff;opacity:0"/><g id="_编组_" data-name="&lt;编组&gt;"><path id="_路径_" data-name="&lt;路径&gt;" d="M202.6,158.1,44.7,185.5c-4.8.9-9.5-2.4-10-5.3L21,101.6a11.1,11.1,0,0,1,9.1-12.9L183.7,61.9A11.3,11.3,0,0,1,196.6,71l13.6,78.6C210.8,152.6,207.5,157.2,202.6,158.1Z" style="fill:#bfbfbf;mix-blend-mode:multiply"/><path id="_路径_2" data-name="&lt;路径&gt;" d="M181.4.1,7.1,30.4a8,8,0,0,0-6.5,9h0l.6,4h.1a7.9,7.9,0,0,1,6.5-9L182.1,4.1a8,8,0,0,1,9.2,6.2h0l-.7-3.9h0A8.1,8.1,0,0,0,181.4.1Z" style="fill:#f1f2f2"/><path id="_路径_3" data-name="&lt;路径&gt;" d="M200.2,156.8,42.3,184.3c-4.9.8-9.5-2.4-10-5.4L18.6,100.3a11.1,11.1,0,0,1,9.1-12.9L181.3,60.7a11.2,11.2,0,0,1,12.9,9.1l13.6,78.6C208.3,151.3,205.1,156,200.2,156.8Z" style="fill:#f1f2f2"/><rect id="_路径_4" data-name="&lt;路径&gt;" x="41.1" y="143.1" width="9.6" height="6.98" rx="1.2" ry="1.2" transform="translate(-24.4 10) rotate(-9.9)" style="fill:#6a6b6b"/><rect id="_路径_5" data-name="&lt;路径&gt;" x="54.9" y="140.7" width="9.6" height="6.98" rx="1.2" ry="1.2" transform="matrix(0.99, -0.17, 0.17, 0.99, -23.83, 12.36)" style="fill:#6a6b6b"/><rect id="_路径_6" data-name="&lt;路径&gt;" x="137.4" y="126.4" width="9.6" height="6.98" rx="1.2" ry="1.2" transform="translate(-20.2 26.3) rotate(-9.9)" style="fill:#6a6b6b"/><rect id="_路径_7" data-name="&lt;路径&gt;" x="151.1" y="124" width="9.6" height="6.98" rx="1.2" ry="1.2" transform="translate(-19.5 28.6) rotate(-9.9)" style="fill:#6a6b6b"/><rect id="_路径_8" data-name="&lt;路径&gt;" x="164.9" y="121.6" width="9.6" height="6.98" rx="1.2" ry="1.2" transform="translate(-18.9 30.9) rotate(-9.9)" style="fill:#6a6b6b"/><rect id="_路径_9" data-name="&lt;路径&gt;" x="39.5" y="134.1" width="9.6" height="6.98" rx="1.2" ry="1.2" transform="translate(-22.9 9.6) rotate(-9.9)" style="fill:#6a6b6b"/><rect id="_路径_10" data-name="&lt;路径&gt;" x="53.3" y="131.8" width="9.6" height="6.98" rx="1.2" ry="1.2" transform="translate(-22.3 12) rotate(-9.9)" style="fill:#6a6b6b"/><rect id="_路径_11" data-name="&lt;路径&gt;" x="67.1" y="129.4" width="9.6" height="6.98" rx="1.2" ry="1.2" transform="translate(-21.7 14.3) rotate(-9.9)" style="fill:#6a6b6b"/><rect id="_路径_12" data-name="&lt;路径&gt;" x="80.8" y="127" width="9.6" height="6.98" rx="1.2" ry="1.2" transform="translate(-21.1 16.6) rotate(-9.9)" style="fill:#6a6b6b"/><rect id="_路径_13" data-name="&lt;路径&gt;" x="94.6" y="124.6" width="9.6" height="6.98" rx="1.2" ry="1.2" transform="translate(-20.5 18.9) rotate(-9.9)" style="fill:#6a6b6b"/><rect id="_路径_14" data-name="&lt;路径&gt;" x="108.3" y="122.2" width="9.6" height="6.98" rx="1.2" ry="1.2" transform="translate(-19.9 21.2) rotate(-9.9)" style="fill:#6a6b6b"/><rect id="_路径_15" data-name="&lt;路径&gt;" x="149.6" y="115" width="9.6" height="6.98" rx="1.2" ry="1.2" transform="translate(-18 28.2) rotate(-9.9)" style="fill:#6a6b6b"/><rect id="_路径_16" data-name="&lt;路径&gt;" x="163.3" y="112.6" width="9.6" height="6.98" rx="1.2" ry="1.2" transform="matrix(0.99, -0.17, 0.17, 0.99, -17.41, 30.54)" style="fill:#6a6b6b"/><rect id="_路径_17" data-name="&lt;路径&gt;" x="65.5" y="120.4" width="9.6" height="6.98" rx="1.2" ry="1.2" transform="translate(-20.2 13.9) rotate(-9.9)" style="fill:#6a6b6b"/><rect id="_路径_18" data-name="&lt;路径&gt;" x="79.2" y="118" width="9.6" height="6.98" rx="1.2" ry="1.2" transform="translate(-19.6 16.2) rotate(-9.9)" style="fill:#6a6b6b"/><rect id="_路径_19" data-name="&lt;路径&gt;" x="93" y="115.6" width="9.6" height="6.98" rx="1.2" ry="1.2" transform="translate(-19 18.5) rotate(-9.9)" style="fill:#6a6b6b"/><rect id="_路径_20" data-name="&lt;路径&gt;" x="106.7" y="113.2" width="9.6" height="6.98" rx="1.2" ry="1.2" transform="translate(-18.3 20.8) rotate(-9.9)" style="fill:#6a6b6b"/><rect id="_路径_21" data-name="&lt;路径&gt;" x="148" y="106" width="9.6" height="6.98" rx="1.2" ry="1.2" transform="translate(-16.5 27.8) rotate(-9.9)" style="fill:#6a6b6b"/><rect id="_路径_22" data-name="&lt;路径&gt;" x="161.8" y="103.6" width="9.6" height="6.98" rx="1.2" ry="1.2" transform="translate(-15.9 30.1) rotate(-9.9)" style="fill:#6a6b6b"/><rect id="_路径_23" data-name="&lt;路径&gt;" x="175.5" y="101.2" width="9.6" height="6.98" rx="1.2" ry="1.2" transform="translate(-15.3 32.5) rotate(-9.9)" style="fill:#6a6b6b"/><rect id="_路径_24" data-name="&lt;路径&gt;" x="36.4" y="116.2" width="9.6" height="6.98" rx="1.2" ry="1.2" transform="matrix(0.99, -0.17, 0.17, 0.99, -19.9, 8.84)" style="fill:#6a6b6b"/><rect id="_路径_25" data-name="&lt;路径&gt;" x="50.2" y="113.8" width="9.6" height="6.98" rx="1.2" ry="1.2" transform="translate(-19.3 11.2) rotate(-9.9)" style="fill:#6a6b6b"/><rect id="_路径_26" data-name="&lt;路径&gt;" x="63.9" y="111.4" width="9.6" height="6.98" rx="1.2" ry="1.2" transform="translate(-18.7 13.5) rotate(-9.9)" style="fill:#6a6b6b"/><rect id="_路径_27" data-name="&lt;路径&gt;" x="77.7" y="109" width="9.6" height="6.98" rx="1.2" ry="1.2" transform="translate(-18.1 15.8) rotate(-9.9)" style="fill:#6a6b6b"/><rect id="_路径_28" data-name="&lt;路径&gt;" x="91.4" y="106.6" width="9.6" height="6.98" rx="1.2" ry="1.2" transform="translate(-17.4 18.1) rotate(-9.9)" style="fill:#6a6b6b"/><rect id="_路径_29" data-name="&lt;路径&gt;" x="105.2" y="104.2" width="9.6" height="6.98" rx="1.2" ry="1.2" transform="translate(-16.8 20.4) rotate(-9.9)" style="fill:#6a6b6b"/><rect id="_路径_30" data-name="&lt;路径&gt;" x="118.9" y="101.8" width="9.6" height="6.98" rx="1.2" ry="1.2" transform="translate(-16.2 22.8) rotate(-9.9)" style="fill:#6a6b6b"/><rect id="_路径_31" data-name="&lt;路径&gt;" x="146.4" y="97.1" width="9.6" height="6.98" rx="1.2" ry="1.2" transform="translate(-15 27.4) rotate(-9.9)" style="fill:#6a6b6b"/><rect id="_路径_32" data-name="&lt;路径&gt;" x="160.2" y="94.7" width="9.6" height="6.98" rx="1.2" ry="1.2" transform="translate(-14.4 29.7) rotate(-9.9)" style="fill:#6a6b6b"/><rect id="_路径_33" data-name="&lt;路径&gt;" x="174" y="92.3" width="9.6" height="6.98" rx="1.2" ry="1.2" transform="translate(-13.8 32.1) rotate(-9.9)" style="fill:#6a6b6b"/><rect id="_路径_34" data-name="&lt;路径&gt;" x="34.9" y="107.2" width="9.6" height="6.98" rx="1.2" ry="1.2" transform="translate(-18.4 8.4) rotate(-9.9)" style="fill:#6a6b6b"/><rect id="_路径_35" data-name="&lt;路径&gt;" x="48.6" y="104.8" width="9.6" height="6.98" rx="1.2" ry="1.2" transform="translate(-17.8 10.8) rotate(-9.9)" style="fill:#6a6b6b"/><rect id="_路径_36" data-name="&lt;路径&gt;" x="62.4" y="102.4" width="9.6" height="6.98" rx="1.2" ry="1.2" transform="translate(-17.2 13.1) rotate(-9.9)" style="fill:#6a6b6b"/><rect id="_路径_37" data-name="&lt;路径&gt;" x="76.1" y="100" width="9.6" height="6.98" rx="1.2" ry="1.2" transform="translate(-16.5 15.4) rotate(-9.9)" style="fill:#6a6b6b"/><rect id="_路径_38" data-name="&lt;路径&gt;" x="89.9" y="97.7" width="9.6" height="6.98" rx="1.2" ry="1.2" transform="translate(-15.9 17.7) rotate(-9.9)" style="fill:#6a6b6b"/><rect id="_路径_39" data-name="&lt;路径&gt;" x="103.6" y="95.3" width="9.6" height="6.98" rx="1.2" ry="1.2" transform="translate(-15.3 20) rotate(-9.9)" style="fill:#6a6b6b"/><rect id="_路径_40" data-name="&lt;路径&gt;" x="117.4" y="92.9" width="9.6" height="6.98" rx="1.2" ry="1.2" transform="translate(-14.7 22.4) rotate(-9.9)" style="fill:#6a6b6b"/><rect id="_路径_41" data-name="&lt;路径&gt;" x="131.1" y="90.5" width="9.6" height="6.98" rx="1.2" ry="1.2" transform="translate(-14.1 24.7) rotate(-9.9)" style="fill:#6a6b6b"/><rect id="_路径_42" data-name="&lt;路径&gt;" x="144.9" y="88.1" width="9.6" height="6.98" rx="1.2" ry="1.2" transform="translate(-13.5 27) rotate(-9.9)" style="fill:#6a6b6b"/><rect id="_路径_43" data-name="&lt;路径&gt;" x="158.6" y="85.7" width="9.6" height="6.98" rx="1.2" ry="1.2" transform="translate(-12.9 29.3) rotate(-9.9)" style="fill:#6a6b6b"/><rect id="_路径_44" data-name="&lt;路径&gt;" x="172.4" y="83.3" width="9.6" height="6.98" rx="1.2" ry="1.2" transform="translate(-12.3 31.7) rotate(-9.9)" style="fill:#6a6b6b"/><rect id="_路径_45" data-name="&lt;路径&gt;" x="33.3" y="98.2" width="9.6" height="6.98" rx="1.2" ry="1.2" transform="translate(-16.9 8) rotate(-9.9)" style="fill:#6a6b6b"/><rect id="_路径_46" data-name="&lt;路径&gt;" x="47.1" y="95.9" width="9.6" height="6.98" rx="1.2" ry="1.2" transform="translate(-16.3 10.4) rotate(-9.9)" style="fill:#6a6b6b"/><rect id="_路径_47" data-name="&lt;路径&gt;" x="60.8" y="93.5" width="9.6" height="6.98" rx="1.2" ry="1.2" transform="translate(-15.6 12.7) rotate(-9.9)" style="fill:#6a6b6b"/><rect id="_路径_48" data-name="&lt;路径&gt;" x="74.6" y="91.1" width="9.6" height="6.98" rx="1.2" ry="1.2" transform="translate(-15 15) rotate(-9.9)" style="fill:#6a6b6b"/><rect id="_路径_49" data-name="&lt;路径&gt;" x="88.3" y="88.7" width="9.6" height="6.98" rx="1.2" ry="1.2" transform="translate(-14.4 17.3) rotate(-9.9)" style="fill:#6a6b6b"/><rect id="_路径_50" data-name="&lt;路径&gt;" x="102.1" y="86.3" width="9.6" height="6.98" rx="1.2" ry="1.2" transform="translate(-13.8 19.6) rotate(-9.9)" style="fill:#6a6b6b"/><rect id="_路径_51" data-name="&lt;路径&gt;" x="115.8" y="83.9" width="9.6" height="6.98" rx="1.2" ry="1.2" transform="translate(-13.2 22) rotate(-9.9)" style="fill:#6a6b6b"/><rect id="_路径_52" data-name="&lt;路径&gt;" x="129.6" y="81.5" width="9.6" height="6.98" rx="1.2" ry="1.2" transform="translate(-12.6 24.3) rotate(-9.9)" style="fill:#6a6b6b"/><rect id="_路径_53" data-name="&lt;路径&gt;" x="143.3" y="79.1" width="9.6" height="6.98" rx="1.2" ry="1.2" transform="translate(-12 26.6) rotate(-9.9)" style="fill:#6a6b6b"/><rect id="_路径_54" data-name="&lt;路径&gt;" x="157.1" y="76.7" width="9.6" height="6.98" rx="1.2" ry="1.2" transform="translate(-11.4 28.9) rotate(-9.9)" style="fill:#6a6b6b"/><rect id="_路径_55" data-name="&lt;路径&gt;" x="170.8" y="74.3" width="9.6" height="6.98" rx="1.2" ry="1.2" transform="translate(-10.7 31.3) rotate(-9.9)" style="fill:#6a6b6b"/><path id="_路径_56" data-name="&lt;路径&gt;" d="M131.4,128.2l-3.5.6-3.6.6-47.9,8.4-5.2.9-1.9.3a1.2,1.2,0,0,0-1,1.4l.8,4.5a1.2,1.2,0,0,0,1.4,1l1.9-.4,5.2-.9,47.9-8.3,3.5-.6,3.6-.6a1.2,1.2,0,0,0,1-1.4l-.8-4.5A1.2,1.2,0,0,0,131.4,128.2Z" style="fill:#6a6b6b"/><path id="_路径_57" data-name="&lt;路径&gt;" d="M140.5,98.9l-7.1,1.2a1.2,1.2,0,0,0-1,1.4v.9l.7,3.6.5,3.3-5.4,1-3.6.6-3.5.6a1.2,1.2,0,0,0-1,1.4l.8,4.5a1.2,1.2,0,0,0,1.4,1l3.5-.7,3.6-.6,6.6-1.1,4.3-.8,2.8-.5a1.2,1.2,0,0,0,1-1.4l-.3-1.5-.5-2.9-.7-4.6-.7-3.6v-.8A1.2,1.2,0,0,0,140.5,98.9Z" style="fill:#6a6b6b"/><path id="_路径_58" data-name="&lt;路径&gt;" d="M184.8,109.7l-7,1.2a1.1,1.1,0,0,0-1,1.4l.3,1.9.4,2.6.8,4.5.6,3.2.2,1.2a1.2,1.2,0,0,0,1.4,1l7.1-1.2a1.2,1.2,0,0,0,1-1.4l-.2-1.3-.6-3.2-.8-4.5-.4-2.5-.3-1.9A1.2,1.2,0,0,0,184.8,109.7Z" style="fill:#6a6b6b"/><path id="_路径_59" data-name="&lt;路径&gt;" d="M143.6,116.8l-2.4.4-4.7.9-6.7,1.1-4.4.8-2.6.5a1.2,1.2,0,0,0-1.1,1.4l.8,4.4a1.2,1.2,0,0,0,1.4,1l2.7-.4,4.4-.8,6.7-1.2,4.7-.8,2.4-.4a1.2,1.2,0,0,0,1-1.4l-.8-4.5A1.3,1.3,0,0,0,143.6,116.8Z" style="fill:#6a6b6b"/><path id="_路径_60" data-name="&lt;路径&gt;" d="M59.5,122.2l-3.5.6-3.6.6-6.6,1.2-3.6.6-3.5.6a1.3,1.3,0,0,0-1,1.5l.7,4.4a1.3,1.3,0,0,0,1.5,1l3.5-.6,3.5-.6,6.7-1.2,3.6-.6,3.5-.6a1.2,1.2,0,0,0,1-1.4l-.8-4.5A1.2,1.2,0,0,0,59.5,122.2Z" style="fill:#6a6b6b"/><rect id="_矩形_" data-name="&lt;矩形&gt;" x="98.8" y="146.2" width="39.6" height="18.89" rx="3.2" ry="3.2" transform="translate(-24.9 22.6) rotate(-9.9)" style="fill:#d2d4d6"/><g id="_编组_2" data-name="&lt;编组&gt;"><g id="_编组_3" data-name="&lt;编组&gt;"><path id="_路径_61" data-name="&lt;路径&gt;" d="M103.6,166a1.5,1.5,0,0,1-1.6-1.1l-.4-2.5,16.3-2.8.7,3.8Z" style="fill:#f1f2f2"/></g><g id="_编组_4" data-name="&lt;编组&gt;"><path id="_路径_62" data-name="&lt;路径&gt;" d="M121.3,162.9l-.6-3.8,16.3-2.8.4,2.4a1.3,1.3,0,0,1-1.1,1.6Z" style="fill:#f1f2f2"/></g></g><circle id="_路径_63" data-name="&lt;路径&gt;" cx="100.8" cy="151.9" r="1" style="fill:#f1f2f2"/><path id="_路径_64" data-name="&lt;路径&gt;" d="M182,3.8,7.7,34.1A8.1,8.1,0,0,0,1.8,45.3L13.5,79.9a7.9,7.9,0,0,0,8.7,4.6L185.5,56.1a8,8,0,0,0,6.6-7.2l-.7-36.6A8,8,0,0,0,182,3.8Z" style="fill:#f1f2f2"/><path id="_路径_65" data-name="&lt;路径&gt;" d="M182,3.8,7.7,34.1A8.1,8.1,0,0,0,1.8,45.3L13.5,79.9a7.9,7.9,0,0,0,8.7,4.6L185.5,56.1a8,8,0,0,0,6.6-7.2l-.7-36.6A8,8,0,0,0,182,3.8Z" style="fill:#f1f2f2"/><path id="_路径_66" data-name="&lt;路径&gt;" d="M182,3.8,7.7,34.1A8.1,8.1,0,0,0,1.8,45.3L13.5,79.9a7.9,7.9,0,0,0,8.7,4.6L185.5,56.1a8,8,0,0,0,6.6-7.2l-.7-36.6A8,8,0,0,0,182,3.8Z" style="fill:#d8d8d8"/><path id="_路径_67" data-name="&lt;路径&gt;" d="M21.5,80.7a4,4,0,0,1-4.4-2.4L5.4,43.6a3.9,3.9,0,0,1,.1-3.5,4.3,4.3,0,0,1,2.9-2.2L182.7,7.6a4.2,4.2,0,0,1,3.4,1,3.7,3.7,0,0,1,1.3,3.4l.8,36.6a4.1,4.1,0,0,1-3.4,3.6Z" style="fill:#24b2a1"/><rect id="_矩形_2" data-name="&lt;矩形&gt;" x="44.4" y="70.4" width="120.3" height="8.43" transform="translate(-11.2 19) rotate(-9.9)" style="fill:#6a6b6b"/><rect id="_矩形_3" data-name="&lt;矩形&gt;" x="44.9" y="75.9" width="120.3" height="2.94" transform="translate(-11.7 19.1) rotate(-9.9)" style="fill:#bfbfbf;mix-blend-mode:multiply"/><path id="_路径_68" data-name="&lt;路径&gt;" d="M8.4,37.9a4.3,4.3,0,0,0-2.9,2.2,3.9,3.9,0,0,0-.1,3.5L17.1,78.3a4,4,0,0,0,4.4,2.4L83.6,69.9l19.8-48.5Z" style="fill:#2ec4b6"/><path id="_路径_69" data-name="&lt;路径&gt;" d="M7.2,45.8a4.1,4.1,0,0,1,.1-3.6,4,4,0,0,1,2.9-2.1L184.5,9.8a3.7,3.7,0,0,1,2.7.5,4.5,4.5,0,0,0-1.1-1.7,4.2,4.2,0,0,0-3.4-1L8.4,37.9a4.3,4.3,0,0,0-2.9,2.2,3.9,3.9,0,0,0-.1,3.5L17.1,78.3a4.2,4.2,0,0,0,1.6,1.9Z" style="fill:#bfbfbf;mix-blend-mode:multiply"/></g><g id="_编组_5" data-name="&lt;编组&gt;"><circle id="_路径_70" data-name="&lt;路径&gt;" cx="191.3" cy="191.7" r="27.2" style="fill:#d3d3d3;mix-blend-mode:multiply"/><circle id="_路径_71" data-name="&lt;路径&gt;" cx="189.4" cy="189.9" r="27.2" style="fill:#dbdbdb"/><circle id="_路径_72" data-name="&lt;路径&gt;" cx="190.5" cy="190.6" r="20.8" style="fill:#d3d3d3;mix-blend-mode:multiply"/><path id="_路径_73" data-name="&lt;路径&gt;" d="M208.6,192.8h7.8a28.3,28.3,0,0,0,.2-2.9v-.8h-8Z" style="fill:#d3d3d3;mix-blend-mode:multiply"/><path id="_矩形_4" data-name="&lt;矩形&gt;" d="M208.6,188h9a1.9,1.9,0,0,1,1.9,1.9v0a1.9,1.9,0,0,1-1.9,1.9h-9a0,0,0,0,1,0,0V188A0,0,0,0,1,208.6,188Z" style="fill:#f1f2f2"/><circle id="_路径_74" data-name="&lt;路径&gt;" cx="189.4" cy="189.9" r="19.7" style="fill:#f1f2f2"/><circle id="_路径_75" data-name="&lt;路径&gt;" cx="189.4" cy="189.9" r="17" style="fill:#726658"/><path id="_路径_76" data-name="&lt;路径&gt;" d="M174.7,192.2a17.1,17.1,0,0,1,17.1-17,16.4,16.4,0,0,1,10.8,3.9,16.8,16.8,0,0,0-13.2-6.3,17,17,0,0,0-17,17.1,16.8,16.8,0,0,0,6.2,13.1A17,17,0,0,1,174.7,192.2Z" style="fill:#d3d3d3;mix-blend-mode:multiply"/><circle id="_路径_77" data-name="&lt;路径&gt;" cx="189.4" cy="189.9" r="11.3" style="fill:#9b8579"/><circle id="_路径_78" data-name="&lt;路径&gt;" cx="192.6" cy="198.7" r="0.9" style="fill:#726658"/><circle id="_路径_79" data-name="&lt;路径&gt;" cx="181.1" cy="191.7" r="0.9" style="fill:#726658"/><circle id="_路径_80" data-name="&lt;路径&gt;" cx="196.6" cy="183.8" r="0.9" style="fill:#726658"/></g><g id="_编组_6" data-name="&lt;编组&gt;"><g id="_编组_7" data-name="&lt;编组&gt;"><path id="_矩形_5" data-name="&lt;矩形&gt;" d="M67.3,146.6h.1a4.8,4.8,0,0,1,4.8,4.8v27.4a0,0,0,0,1,0,0H62.5a0,0,0,0,1,0,0V151.5A4.8,4.8,0,0,1,67.3,146.6Z" transform="translate(-0.7 0.3) rotate(-0.3)" style="fill:#dbab9e"/><path id="_路径_81" data-name="&lt;路径&gt;" d="M39.6,137l11.6,20a1.1,1.1,0,0,1-.3,1.4h0a1,1,0,0,1-1.4-.4l-4.1-7a4.1,4.1,0,0,0-5.5-1.5h0a4.1,4.1,0,0,0-1.5,5.5l4.1,7a1.1,1.1,0,0,1-.3,1.4h0a1.1,1.1,0,0,1-1.4-.3l-3.1-5.3a4,4,0,0,0-5.5-1.5h0a4,4,0,0,0-1.4,5.5l3,5.3a1,1,0,0,1-.3,1.4h0a1.1,1.1,0,0,1-1.4-.4l-.6-1a4,4,0,0,0-5.5-1.5h0a4,4,0,0,0-1.4,5.5l1.1,1.9,2,3.5L39,195.9a7.7,7.7,0,0,0,10.5,2.8l19.7-11.4A7.9,7.9,0,0,0,72,176.7L60.7,157.4l-2-3.6L46.5,132.9a3.9,3.9,0,0,0-5.4-1.4h0A4,4,0,0,0,39.6,137Z" style="fill:#ffcab9"/><rect id="_矩形_6" data-name="&lt;矩形&gt;" x="50.7" y="192.4" width="21.5" height="8.51" transform="translate(-90.4 57.4) rotate(-30.1)" style="fill:#ffcab9"/></g><path id="_路径_82" data-name="&lt;路径&gt;" d="M41.1,137.9l-.7-1.2a3.2,3.2,0,0,1,5.6-3.2l.7,1.2Z" style="fill:#ffddd4"/></g><polygon points="98.3 220 79.9 188.2 45.9 207.9 52.9 220 98.3 220" style="fill:#ff715b"/></g></g></svg>