<svg xmlns="http://www.w3.org/2000/svg" viewBox="0 0 158.3 25.6"><title>suanming02</title><g id="图层_2" data-name="图层 2"><g id="图层_1-2" data-name="图层 1"><path d="M15.5,9.3A9.1,9.1,0,0,1,14,12a19.5,19.5,0,0,1-2.4,2.6,22.6,22.6,0,0,1-3.1,2.3A18.7,18.7,0,0,1,5,18.6a5.3,5.3,0,0,1-3.2.3A2.4,2.4,0,0,1,.1,17a2.4,2.4,0,0,1,0-1.2,1.3,1.3,0,0,1,.9-.5l4-1.6,3.3-1.8,2.8-2.1a18.8,18.8,0,0,0,2.4-2.5,3.1,3.1,0,0,1,1.2-1,.9.9,0,0,1,.8.2c.4.3.6.6.5,1A6.2,6.2,0,0,1,15.5,9.3Zm22.1,8.3a3.9,3.9,0,0,1-1,1.6,7.4,7.4,0,0,1-1.8,1.7c-1.3.8-2.4,1.1-3.3.6a7.2,7.2,0,0,1-3-3.2l-1.4-2.1-2.2-2.6L22.6,11,20.7,9.2a5.3,5.3,0,0,1-1-1.2,3.4,3.4,0,0,1-.5-1.1,1.4,1.4,0,0,1,0-.9c0-.3.1-.5.3-.5a2,2,0,0,1,2,0,8.3,8.3,0,0,1,2.4,2.3,24,24,0,0,0,5.2,4.6,35.3,35.3,0,0,0,7.8,3.7c.5.2.8.3.9.5S37.8,17.1,37.6,17.6Z" style="fill:#c5c5c5"/><path d="M77.7,14.8a3.3,3.3,0,0,1-1,1.7A6.5,6.5,0,0,1,74.9,18l-.7.3H72.6l-1.4-.5-4.1-1.1L63,15.7h-.8c-.1.1-.1.3,0,.7a15.1,15.1,0,0,1-.3,4.5,5.5,5.5,0,0,1-2,2.7,5.9,5.9,0,0,1-2.8,1.1,10.9,10.9,0,0,1-3.6.1,10.2,10.2,0,0,1-3.4-1,5.4,5.4,0,0,1-2.5-2.2q-.5-.7-.3-.9c.1-.1.5,0,1.1.3a6.1,6.1,0,0,0,3.2.8,8.1,8.1,0,0,0,4-.7,3.1,3.1,0,0,0,1.9-1.8,8.2,8.2,0,0,0,.7-3.1,1.3,1.3,0,0,0-.2-.8c-.1-.1-.3-.2-.8-.2a61.2,61.2,0,0,0-6.2.2,45.8,45.8,0,0,0-5.5.7,18,18,0,0,0-2.2.6l-2.1.7c-1.2.5-1.8,0-1.8-1.3a1.7,1.7,0,0,1,.3-1,5.3,5.3,0,0,1,1.1-1.1,4,4,0,0,1,1.8-.7,2.8,2.8,0,0,1,1.4.2l1.3.3h1.1l3.4-.4,7-.2a1,1,0,0,0,.7-.2c.1-.1,0-.4-.3-.8l-.3-.5-.5-.4a.5.5,0,0,1-.3-.5.6.6,0,0,1-.1-.4c.1-.2.2-.3.4-.3h.8l.5.2h.5a1.8,1.8,0,0,0,.9.2c.1.1.4,0,.7-.1l.7-.3.6-.3c.6-.4.5-.8-.2-1.1l-1.1-.2H58.2L56,9.2l-3.1,1.1a5.8,5.8,0,0,1-1.9.4,1.1,1.1,0,0,1-.9-.7,1,1,0,0,1-.1-.9,2.1,2.1,0,0,1,.5-.9l.9-.7.7-.2h.7l.8-.2a16.5,16.5,0,0,1,4.3-.6,15.4,15.4,0,0,1,3.5.5l1.3.2h1.5a2,2,0,0,1,2.2,1.3,4.4,4.4,0,0,1,.2,1,1.2,1.2,0,0,1-.4.8l-1,.6-1.9.2-1.7.3c-.4.1-.6.3-.6.4s0,.3.2.5a1.4,1.4,0,0,0,.6.7c.1.2.4.2.8.3H77.1c.4,0,.6,0,.7.2S77.8,14.3,77.7,14.8ZM72.7,5c.1.3.1.8.2,1.2V7.8a7.7,7.7,0,0,0-.2,1.5c-.1.5-.3.9-.4,1.3a1,1,0,0,1-.5.7l-.7.2a.9.9,0,0,1-.8-.1c-.2-.1-.2-.5-.2-1a2.5,2.5,0,0,0-.1-.8V8.7a2.8,2.8,0,0,1-.1-.9,2,2,0,0,1-.1-.7,1.6,1.6,0,0,0-.3-.6,1,1,0,0,0-.8-.3L66.4,6H50.8l-2.1.2a4.6,4.6,0,0,0-1.7.7,2.3,2.3,0,0,0-.5,1.6,9.2,9.2,0,0,1-.1,1.9c0,.4-.1.6-.1.8s-.4.6-.8.6-.7-.1-.9-.5a15.7,15.7,0,0,1-.9-3.2,8.7,8.7,0,0,1,.1-2.8,3.2,3.2,0,0,1,.9-1.5,1.7,1.7,0,0,1,1.7-.2l.9.3.7.2h1.4l2.8-.2h3.2c.4,0,.7,0,.8-.2a1.6,1.6,0,0,0,0-1,2.7,2.7,0,0,1,0-.9,1,1,0,0,1,.4-.7,1.9,1.9,0,0,1,.9-.3,5.9,5.9,0,0,1,1.7.2,2.1,2.1,0,0,1,1.4.7,3.7,3.7,0,0,1,.7,1.4c.1.4.1.6.3.7s.3.2.6.3h3.4l2.2.3h1.1a2,2,0,0,0,.9-.5.6.6,0,0,1,.6-.3h.9a2,2,0,0,1,.9.5A1.9,1.9,0,0,1,72.7,5Z" style="fill:#c5c5c5"/><path d="M117.9,17.3a6.2,6.2,0,0,1-1.2,1.7,9.1,9.1,0,0,1-1.6,1.1l-1.1.4a1.7,1.7,0,0,1-1,0,2.7,2.7,0,0,1-1.4-.4l-2.3-.9-.7-.3-1.1-.3-1.4-.4-1.3-.3c-.3-.1-.5,0-.4.4a14.1,14.1,0,0,0,.1,2,20.9,20.9,0,0,0,.1,2.4v1.1a1.5,1.5,0,0,1-.2.8,1.8,1.8,0,0,1-.7.5l-1.2.2h-1.2a.9.9,0,0,1-.7-.3,3.4,3.4,0,0,1-.3-.8V22.7a23.6,23.6,0,0,0,.1-2.5c0-.7.1-1.5.1-2.4s-.1-.4-.4-.4H96.8c-.2,0-.3.1-.4.4a7,7,0,0,1-.6,1.7,8.6,8.6,0,0,1-1,1.6,5.3,5.3,0,0,1-1.2,1.4,5.1,5.1,0,0,1-1.3.9,8.8,8.8,0,0,1-2.3.7l-2.2.3-1.9-.2a2.3,2.3,0,0,1-1.3-.6,1.4,1.4,0,0,1-.5-1.4.9.9,0,0,1,1.1-.5,8.8,8.8,0,0,0,3.3-.1,7.3,7.3,0,0,0,2.7-1.5l.8-.8a5.3,5.3,0,0,0,.6-1.3c.1-.3,0-.5-.4-.5a49.3,49.3,0,0,0-6.9.7,14.7,14.7,0,0,0-4,1.2,1,1,0,0,1-.7.2.8.8,0,0,1-.7-.2,1.2,1.2,0,0,1-.5-.5,2.2,2.2,0,0,1-.1-.9,3.3,3.3,0,0,1,.5-1.2l1-.8,1.1-.4h5.4l2-.2,3.3-.2c.2,0,.3-.1.3-.2s.1-.3.1-.7l-.2-.3H91.3l-.6.2-1,.4a1.1,1.1,0,0,1-.6,0,.5.5,0,0,1-.3-.5,3.1,3.1,0,0,1-.2-1.1c0-.3-.1-.7-.1-1.1s-.1-.9-.1-1.3-.1-.9-.2-1.3-.1-.6-.1-.9a2.9,2.9,0,0,1,.2-1.6,1.9,1.9,0,0,1,.9-.9h1.1a2.5,2.5,0,0,0,1.2.1l3-.2h6.3l2.3.2a3.9,3.9,0,0,0,1.4.2l.7-.2a1.9,1.9,0,0,1,2.4.1,4.6,4.6,0,0,1,.7.7,5.3,5.3,0,0,1,.1,1.4,16.2,16.2,0,0,0-.1,2.3,14.1,14.1,0,0,1-.1,2.2,1.9,1.9,0,0,1-.2.8l-.7.5-1,.2h-1.1c-.6-.2-.8-.1-.8.3s-.1.5,0,.6.1.1.3.1l4.5.4,3.9.3,2.8.2h1.4a1.3,1.3,0,0,1,.8.2C118.2,16.7,118.1,16.9,117.9,17.3ZM113.4,5.4c-.2.5-.7.7-1.6.5l-2.9-.8a12.5,12.5,0,0,1-2.5-.9c-.3-.1-.4-.1-.5,0s-.1.3-.2.5a2,2,0,0,1-.6,1.4,2.8,2.8,0,0,1-1.4.2.7.7,0,0,1-.5-.4,1.1,1.1,0,0,1-.2-.8c.1-.6.1-.9,0-1h-.5l-1.6.8-1.7.7a3.7,3.7,0,0,1-1.8.2c-.5-.1-.9-.3-1-.6L96.2,5h0c.2-.3.2-.4,0-.5l-.8-.2a2,2,0,0,1-.8-.4h-.5c-.1.1-.1.3-.1.7a.8.8,0,0,1-.4.9,2.5,2.5,0,0,1-1.5.5c-.4.1-.7,0-.7-.1a1.4,1.4,0,0,1,0-.9c.1-.8-.1-1.1-.6-.8L89,5a14.5,14.5,0,0,1-2.2.9l-1.6.4a2,2,0,0,1-1.1,0,1.4,1.4,0,0,1-.8-.5l-.7-.9c-.2-.5-.3-.8-.2-1l1.1-.3,2.1-.4,2.5-.7a23.4,23.4,0,0,0,2.4-.9A7.9,7.9,0,0,0,92.1.8l1-.4a1.6,1.6,0,0,1,1,.1.8.8,0,0,1,.5.9c-.1.2-.1.4.1.5l.8.4.7.3.5.3.7.2c.2.1.3.1.4.3v.3a.2.2,0,0,0,0,.3h.4a20.1,20.1,0,0,0,2.3-1,18.8,18.8,0,0,0,2.3-1.6c.8-.6,1.6-.8,2.2-.4a1,1,0,0,1,.6.7.3.3,0,0,0,.3.3l2,.7,1.5.6,1.4.4,1.6.5c.6.2,1,.3,1.1.5A.8.8,0,0,1,113.4,5.4Zm-8.7,2.9c0-.2,0-.4-.1-.4a1.5,1.5,0,0,0-.8-.2H92.3c-.3,0-.4.1-.4.4a.4.4,0,0,0,.4.4h12.4Zm0,1.8c0-.3-.1-.4-.3-.4H92.5a.4.4,0,0,0-.4.4c0,.3.1.5.4.5h12.1A.4.4,0,0,0,104.7,10.1Zm-.1,1.8c0-.3-.1-.4-.4-.4H98.9l-5.9.3h-.6c-.2,0-.2.1-.2.2s.1.4.4.4l6-.2,4.7.2h1Zm-4,2.4c0-.3-.1-.4-.4-.4H97c-.3,0-.4.1-.4.4V15l.4.2h3.5C100.6,14.9,100.6,14.7,100.6,14.3Z" style="fill:#c5c5c5"/><path d="M158.2,7.5a3.7,3.7,0,0,1-1.2,2,3.9,3.9,0,0,1-2.4,1.2l-.9.2h-.9l-1-.3-1.2-.7L148,8.4l-2.2-1.2-2.2-1.1-2.9-1.3-.8-.3-.7-.4h-.6l-.7.3-4.8,2.5a28.8,28.8,0,0,1-4.5,1.9,31.9,31.9,0,0,1-3.4,1.3,13.8,13.8,0,0,1-2.6.4,3.5,3.5,0,0,1-1.8-.2,3.8,3.8,0,0,1-1.5-.9,1.2,1.2,0,0,1-.4-1.1c.1-.3.5-.5,1.1-.6l1.7-.3,2.4-.6,2.3-.6,1.4-.4L131,4.5l2.2-1,1.9-1.1L137.4.9a3.6,3.6,0,0,1,1.8-.9,1.6,1.6,0,0,1,1,.4,1.3,1.3,0,0,1,.6,1.3v.4c.1.1.1.2.3.2l3.1,1.2,3.1.9,4.1.9,5.9,1.2a1.3,1.3,0,0,1,.9.3C158.4,6.9,158.4,7.2,158.2,7.5Zm-20.9,6.3a2.5,2.5,0,0,0-.1.8c0,.3-.1.5-.1.8s-.1.6-.1,1a5.2,5.2,0,0,0-.2,1.4l-.4,1.4a1,1,0,0,1-.6.5l-.7.2a2.4,2.4,0,0,1-1-.2,5.4,5.4,0,0,0-1.7-.2,22.2,22.2,0,0,0-3.5.1h-.5l-.5.4-.8.4a.8.8,0,0,1-.7,0,.7.7,0,0,1-.6-.6,2.6,2.6,0,0,1-.4-1.4,15.1,15.1,0,0,0-1-4.7c-.2-.2-.2-.4-.1-.8a1.6,1.6,0,0,1,.3-.9l.5-.7a1.5,1.5,0,0,1,.7-.5,1.7,1.7,0,0,1,1.2.2l.6.4h3.9l1.2.2h1.4l1.1-.4h.9c.5.2.9.4,1,.7A3.2,3.2,0,0,1,137.3,13.8Zm-3.1,1.1c0-.5,0-.8-.2-.9l-1.1-.2h-4.3c-.1.1-.1.2-.1.5v1.3c0,.4.1.8.1,1.2a2,2,0,0,0,.1.5h3.8a1.5,1.5,0,0,0,1.5-1.1c0-.2.1-.5.1-.6S134.2,15.2,134.2,14.9Zm11.1-7a1.8,1.8,0,0,1-.6.9,2.1,2.1,0,0,1-1.2.3h-3.2l-4.3.3h-1.8l-1.6.2H132c-.2,0-.3-.1-.4-.3l-.3-.3c-.1-.2-.1-.3,0-.4a1.7,1.7,0,0,1,.7-1,1.8,1.8,0,0,1,1-.6h7.7l3,.2C144.8,7.1,145.4,7.4,145.3,7.9Zm6.9,8.8a7.5,7.5,0,0,1-2.7,2.9,11.9,11.9,0,0,1-5.1,1.4l-.8.2c-.2.1-.3.5-.3,1.1v1.4l-.3.9a1,1,0,0,1-.6.5l-1.1.4c-1.3.3-1.9-.4-1.8-2.2a20.1,20.1,0,0,1,.1-2.5V18.7a17,17,0,0,0,.1-2.2c0-.8.1-1.6.1-2.6s-.2-.6-.7-.4a.7.7,0,0,1-.9-.3,1.7,1.7,0,0,1,0-1.4l.7-.8,1-.6,1.1-.2a1.3,1.3,0,0,1,.9.1,6.1,6.1,0,0,0,1.7.4H145a4.7,4.7,0,0,0,1.7-.3h1l1.2.2,1.3.5,1,.6a4.2,4.2,0,0,1,1.3,2.3A4.1,4.1,0,0,1,152.2,16.7Zm-4-2.8a3.2,3.2,0,0,0-1.5-.9,6.5,6.5,0,0,0-2.5-.2h-.8a.5.5,0,0,0-.2.4,21.7,21.7,0,0,0,.1,2.6v2.3a.6.6,0,0,0,.3.6h.7a6.1,6.1,0,0,0,2.4-.7,6.7,6.7,0,0,0,1.5-1.4,3,3,0,0,0,.5-1.5A1.7,1.7,0,0,0,148.2,13.9Z" style="fill:#c5c5c5"/></g></g></svg>