<svg id="图层_1" data-name="图层 1" xmlns="http://www.w3.org/2000/svg" viewBox="0 0 220 220"><title>suanming_bg_wealth</title><rect width="220" height="220" style="fill:#fff;opacity:0"/><path id="_路径_" data-name="&lt;路径&gt;" d="M140.3,19.4c-1.3-12.3-8.4-8.4-16.2-4.5s-12.1-3.7-15-4.8H108c-2.9,1.1-8,8.3-15,4.8S78.1,7.1,76.8,19.4s11,23.4,11,23.4l19,6.6a10.9,10.9,0,0,1,.1,1.2l1.6-.6,1.7.6a10.9,10.9,0,0,1,.1-1.2l19-6.6S141.6,31.8,140.3,19.4Z" style="fill:#2ec4b6"/><path id="_路径_2" data-name="&lt;路径&gt;" d="M167.1,81.7c-7.8-30.2-49.4-32.4-58.4-35h0a3.1,3.1,0,0,0-1.9,0h0c-9.1,2.6-50,4.8-57.8,35-8.9,33.9-36.1,93.6-25.9,98.7,5.6,2.9,49.6,13.3,86.5,13s77.8-10.1,83.4-13C203.2,175.3,176,115.6,167.1,81.7Z" style="fill:#2ec4b6"/><rect id="_矩形_" data-name="&lt;矩形&gt;" x="83.5" y="42.4" width="50.7" height="15.47" rx="7.3" ry="7.3" style="fill:#ff715b"/><path id="_路径_3" data-name="&lt;路径&gt;" d="M148.2,58.4c11.5,29.8,18.3,65.6-7.9,102.1-19.9,27.6-85,20.7-119.4,14.7.1,2.7.8,4.5,2.2,5.2,5.6,2.9,49.6,13.3,86.5,13s77.8-10.1,83.4-13c10.2-5.1-17-64.8-25.9-98.7C164.3,70.6,156.9,63.3,148.2,58.4Z" style="fill:#24b2a1"/><g id="_编组_" data-name="&lt;编组&gt;"><path id="_复合路径_" data-name="&lt;复合路径&gt;" d="M110,151.6h-3.7v-7.7c-5-.5-8.8-1.6-11.3-3.3-4.3-2.9-6.5-7.9-6.4-15H98.9a21.2,21.2,0,0,0,1.5,6.5c1,1.7,3,2.8,5.9,3.3V119.1l-3.1-1c-4.9-1.4-8.3-3.4-10.3-5.9a14.8,14.8,0,0,1-3-9.3A16.6,16.6,0,0,1,91,96.5a16,16,0,0,1,3.3-5.1,14.4,14.4,0,0,1,6.1-3.7,28.2,28.2,0,0,1,5.9-1V81.6H110v5.2a18.9,18.9,0,0,1,9.8,3.1c4.3,2.7,6.5,7.1,6.6,13.3h-10a12.5,12.5,0,0,0-1.2-5c-.9-1.8-2.7-2.8-5.2-3v14.6c6.1,2.1,10.1,3.9,12.2,5.6s5.2,6.4,5.2,11.3-2.4,11.1-7.1,14a23.6,23.6,0,0,1-10.3,3.2Zm-3.7-56.3a5.9,5.9,0,0,0-6.6,6.4,5.8,5.8,0,0,0,2.5,5.1,12.1,12.1,0,0,0,4.1,1.9Zm3.7,40a8.7,8.7,0,0,0,4.4-1.4c1.6-1.1,2.4-3.2,2.4-6.1a6.5,6.5,0,0,0-2.3-5.2,18.2,18.2,0,0,0-4.5-2.3Z" style="fill:#fff"/></g><g id="_编组_2" data-name="&lt;编组&gt;"><path id="_复合路径_2" data-name="&lt;复合路径&gt;" d="M170.5,173.2c-14.5.3-26.4,6.5-26.5,13.8s11.5,13,26,12.7,26.4-6.6,26.6-13.9-11.6-13-26.1-12.6" style="fill:#c67d26"/><path id="_路径_4" data-name="&lt;路径&gt;" d="M144,187v-4.2l52.5-1.9v5.5l-15.4,10.3-15.7.5s-7.1-1.6-12.3-3.4-6.5-3.9-6.5-3.9l-1.7-1.5A4.5,4.5,0,0,1,144,187Z" style="fill:#c67d26"/><path id="_复合路径_3" data-name="&lt;复合路径&gt;" d="M170.1,192.4c-11.1.3-20.1-4.1-20-9.7s9.2-10.4,20.4-10.7,20,4.1,19.9,9.8-9.2,10.3-20.3,10.6m.4-23.4c-14.5.3-26.4,6.5-26.5,13.8s11.5,13,26,12.7,26.4-6.6,26.6-13.9-11.6-13-26.1-12.6" style="fill:#fcc03c"/><path id="_路径_5" data-name="&lt;路径&gt;" d="M171,182.9v2.8a3.2,3.2,0,0,0,1.6-.3,1.1,1.1,0,0,0,.1-2.1l-1.7-.4" style="fill:#e59b39"/><path id="_路径_6" data-name="&lt;路径&gt;" d="M169.7,178.2a6,6,0,0,0-1.8.4,1,1,0,0,0-.6.9c0,.4.3.7.8.9l1.6.4v-2.6" style="fill:#e59b39"/><path id="_路径_7" data-name="&lt;路径&gt;" d="M169.6,185.8v-3.1h-1.1a10.2,10.2,0,0,1-3.8-1.1,1.8,1.8,0,0,1-1.1-1.7,1.9,1.9,0,0,1,.4-1.2,3.4,3.4,0,0,1,1.3-1,8.1,8.1,0,0,1,2.2-.7l2.3-.3v-.9h1.4v1a11.8,11.8,0,0,1,3.7.5q2.4.8,2.4,2.4h-3.7a1.3,1.3,0,0,0-.5-.9,2.7,2.7,0,0,0-1.9-.5v2.7a32.7,32.7,0,0,1,4.5,1c1.3.4,1.9,1.1,1.9,2.1s-.9,2.1-2.7,2.7a20,20,0,0,1-3.9.6v1.5h-1.4v-1.4a26.6,26.6,0,0,1-4.2-.5c-1.6-.6-2.4-1.5-2.4-2.8h3.9a2.3,2.3,0,0,0,.5,1.2,4.5,4.5,0,0,0,2.2.6" style="fill:#e59b39"/><path id="_路径_8" data-name="&lt;路径&gt;" d="M170.5,172c-11.2.3-20.3,5.1-20.4,10.7s8.9,10,20,9.7,20.2-5,20.3-10.6-8.8-10-19.9-9.8" style="fill:#e59b39"/><path id="_路径_9" data-name="&lt;路径&gt;" d="M170.5,173.5c10.6-.2,19.2,3.7,19.9,8.9v-.6c.1-5.7-8.8-10-19.9-9.8s-20.3,5.1-20.4,10.7a2.2,2.2,0,0,0,.1.8C150.9,178.2,159.8,173.7,170.5,173.5Z" style="fill:#c67d26"/><path id="_复合路径_4" data-name="&lt;复合路径&gt;" d="M171,185.7v-2.8l1.7.4a1.1,1.1,0,0,1-.1,2.1,3.2,3.2,0,0,1-1.6.3m-1.3-4.9-1.6-.4c-.5-.2-.8-.5-.8-.9a1,1,0,0,1,.6-.9,6,6,0,0,1,1.8-.4v2.6m1.5-5.2h-1.4v.9l-2.3.3a8.1,8.1,0,0,0-2.2.7,3.4,3.4,0,0,0-1.3,1,1.9,1.9,0,0,0-.4,1.2,1.8,1.8,0,0,0,1.1,1.7,10.2,10.2,0,0,0,3.8,1.1h1.1v3.1a4.5,4.5,0,0,1-2.2-.6,2.3,2.3,0,0,1-.5-1.2H163c0,1.3.8,2.2,2.4,2.8a26.6,26.6,0,0,0,4.2.5v1.4h1.4v-1.5a20,20,0,0,0,3.9-.6c1.8-.6,2.6-1.5,2.7-2.7s-.6-1.7-1.9-2.1a32.7,32.7,0,0,0-4.5-1v-2.7a2.7,2.7,0,0,1,1.9.5,1.3,1.3,0,0,1,.5.9h3.7q0-1.6-2.4-2.4a11.8,11.8,0,0,0-3.7-.5v-1" style="fill:#fcc03c"/></g><g id="_编组_3" data-name="&lt;编组&gt;"><path id="_复合路径_5" data-name="&lt;复合路径&gt;" d="M171.5,162c-14.5.3-26.3,6.5-26.5,13.8s11.6,13,26.1,12.7,26.3-6.6,26.5-13.9-11.6-13-26.1-12.6" style="fill:#c67d26"/><path id="_路径_10" data-name="&lt;路径&gt;" d="M145,175.8v-4.2l52.5-1.9v5.5l-15.4,10.3-15.6.5s-7.2-1.6-12.3-3.4-6.6-3.9-6.6-3.9l-1.7-1.4A5.8,5.8,0,0,1,145,175.8Z" style="fill:#c67d26"/><path id="_复合路径_6" data-name="&lt;复合路径&gt;" d="M171.1,181.2c-11.1.3-20.1-4.1-20-9.7s9.3-10.4,20.4-10.6,20.1,4.1,20,9.7-9.3,10.4-20.4,10.6m.4-23.4c-14.5.3-26.3,6.5-26.5,13.8s11.6,13,26.1,12.7,26.3-6.5,26.5-13.9-11.6-13-26.1-12.6" style="fill:#fcc03c"/><path id="_路径_11" data-name="&lt;路径&gt;" d="M172,171.7v2.8a3.2,3.2,0,0,0,1.6-.3,1.1,1.1,0,0,0,.9-1.1,1,1,0,0,0-.8-1l-1.7-.4" style="fill:#e59b39"/><path id="_路径_12" data-name="&lt;路径&gt;" d="M170.7,167a6,6,0,0,0-1.8.4,1,1,0,0,0-.6.9q0,.6.9.9a3.9,3.9,0,0,0,1.5.4V167" style="fill:#e59b39"/><path id="_路径_13" data-name="&lt;路径&gt;" d="M170.6,174.6v-3.1h-1.2a10.2,10.2,0,0,1-3.8-1.1,1.8,1.8,0,0,1-1.1-1.7,2.1,2.1,0,0,1,.5-1.2,4,4,0,0,1,1.2-1,7.8,7.8,0,0,1,2.3-.7l2.2-.3v-.9h1.4v1a11.5,11.5,0,0,1,3.6.5c1.6.5,2.4,1.3,2.4,2.5h-3.7a1.9,1.9,0,0,0-.4-.9,3.2,3.2,0,0,0-2-.5v2.7a32.7,32.7,0,0,1,4.5,1c1.3.5,1.9,1.2,1.9,2.1s-.9,2.1-2.7,2.7a14.4,14.4,0,0,1-3.8.6v1.5h-1.3v-1.4a18.3,18.3,0,0,1-4.2-.5,2.9,2.9,0,0,1-2.4-2.8h3.9a2.3,2.3,0,0,0,.5,1.2,4.5,4.5,0,0,0,2.2.6" style="fill:#e59b39"/><path id="_路径_14" data-name="&lt;路径&gt;" d="M171.5,160.9c-11.1.2-20.3,5-20.4,10.6s8.9,10,20,9.7,20.3-5,20.4-10.6-8.9-10-20-9.7" style="fill:#e59b39"/><path id="_路径_15" data-name="&lt;路径&gt;" d="M171.5,162.3c10.6-.2,19.2,3.7,19.9,8.9,0-.2.1-.4.1-.6.1-5.6-8.9-10-20-9.7s-20.3,5-20.4,10.6c0,.3.1.6.1.8C151.9,167,160.8,162.6,171.5,162.3Z" style="fill:#c67d26"/><path id="_复合路径_7" data-name="&lt;复合路径&gt;" d="M172,174.5v-2.8l1.7.4a1,1,0,0,1,.8,1,1.1,1.1,0,0,1-.9,1.1,3.2,3.2,0,0,1-1.6.3m-1.3-4.9a3.9,3.9,0,0,1-1.5-.4q-.9-.3-.9-.9a1,1,0,0,1,.6-.9,6,6,0,0,1,1.8-.4v2.6m1.5-5.2h-1.4v.9l-2.2.3a7.8,7.8,0,0,0-2.3.7,4,4,0,0,0-1.2,1,2.1,2.1,0,0,0-.5,1.2,1.8,1.8,0,0,0,1.1,1.7,10.2,10.2,0,0,0,3.8,1.1h1.2v3.1a4.5,4.5,0,0,1-2.2-.6,2.3,2.3,0,0,1-.5-1.2H164a2.9,2.9,0,0,0,2.4,2.8,18.3,18.3,0,0,0,4.2.5v1.4h1.3v-1.5a14.4,14.4,0,0,0,3.8-.6q2.7-.9,2.7-2.7c0-.9-.6-1.6-1.9-2.1a32.7,32.7,0,0,0-4.5-1V167a3.2,3.2,0,0,1,2,.5,1.9,1.9,0,0,1,.4.9h3.7c0-1.2-.8-2-2.4-2.5a11.5,11.5,0,0,0-3.6-.5v-1" style="fill:#fcc03c"/></g><g id="_编组_4" data-name="&lt;编组&gt;"><path id="_复合路径_8" data-name="&lt;复合路径&gt;" d="M115.7,181.8c-14.5.3-26.4,6.5-26.5,13.8s11.5,13,26,12.7,26.4-6.6,26.5-13.9-11.5-13-26-12.6" style="fill:#c67d26"/><path id="_路径_16" data-name="&lt;路径&gt;" d="M89.2,195.6v-4.2l52.5-1.9V195l-15.4,10.3-15.7.5s-7.1-1.6-12.3-3.4-6.5-3.9-6.5-3.9l-1.7-1.4A5.8,5.8,0,0,1,89.2,195.6Z" style="fill:#c67d26"/><path id="_复合路径_9" data-name="&lt;复合路径&gt;" d="M115.3,201c-11.1.3-20.1-4.1-20-9.7s9.2-10.4,20.4-10.6,20,4,19.9,9.7-9.2,10.4-20.3,10.6m.4-23.4c-14.5.3-26.4,6.5-26.5,13.8s11.5,13,26,12.7,26.4-6.5,26.5-13.9-11.5-13-26-12.6" style="fill:#fcc03c"/><path id="_路径_17" data-name="&lt;路径&gt;" d="M116.2,191.5v2.8a3.2,3.2,0,0,0,1.6-.3,1.1,1.1,0,0,0,.1-2.1l-1.7-.4" style="fill:#e59b39"/><path id="_路径_18" data-name="&lt;路径&gt;" d="M114.9,186.8a6,6,0,0,0-1.8.4,1,1,0,0,0-.6.9c0,.4.2.7.8.9l1.6.4v-2.6" style="fill:#e59b39"/><path id="_路径_19" data-name="&lt;路径&gt;" d="M114.8,194.4v-3.1h-1.1a10.2,10.2,0,0,1-3.8-1.1,1.8,1.8,0,0,1-1.1-1.7,1.9,1.9,0,0,1,.4-1.2,3.4,3.4,0,0,1,1.3-1,8.1,8.1,0,0,1,2.2-.7l2.3-.3v-.9h1.4v1a11.8,11.8,0,0,1,3.7.5c1.6.5,2.4,1.3,2.4,2.5h-3.7a1.9,1.9,0,0,0-.5-.9,2.9,2.9,0,0,0-1.9-.5v2.7a32.7,32.7,0,0,1,4.5,1c1.3.5,1.9,1.1,1.9,2.1s-1,2.1-2.7,2.7a14.5,14.5,0,0,1-3.9.6v1.5h-1.4V196a18.3,18.3,0,0,1-4.2-.5,2.9,2.9,0,0,1-2.4-2.8h3.9a2.3,2.3,0,0,0,.5,1.2,4.5,4.5,0,0,0,2.2.6" style="fill:#e59b39"/><path id="_路径_20" data-name="&lt;路径&gt;" d="M115.7,180.7c-11.2.2-20.3,5-20.4,10.6s8.9,10,20,9.7,20.2-5,20.3-10.6-8.8-10-19.9-9.7" style="fill:#e59b39"/><path id="_路径_21" data-name="&lt;路径&gt;" d="M115.7,182.1c10.5-.2,19.2,3.7,19.9,8.9v-.6c.1-5.7-8.8-10-19.9-9.7s-20.3,5-20.4,10.6a1.9,1.9,0,0,0,.1.8C96.1,186.8,105,182.4,115.7,182.1Z" style="fill:#c67d26"/><path id="_复合路径_10" data-name="&lt;复合路径&gt;" d="M116.2,194.3v-2.8l1.7.4a1.1,1.1,0,0,1-.1,2.1,3.2,3.2,0,0,1-1.6.3m-1.3-4.9-1.6-.4c-.6-.2-.8-.5-.8-.9a1,1,0,0,1,.6-.9,6,6,0,0,1,1.8-.4v2.6m1.5-5.2H115v.9l-2.3.3a8.1,8.1,0,0,0-2.2.7,3.4,3.4,0,0,0-1.3,1,1.9,1.9,0,0,0-.4,1.2,1.8,1.8,0,0,0,1.1,1.7,10.2,10.2,0,0,0,3.8,1.1h1.1v3.1a4.5,4.5,0,0,1-2.2-.6,2.3,2.3,0,0,1-.5-1.2h-3.9a2.9,2.9,0,0,0,2.4,2.8,18.3,18.3,0,0,0,4.2.5v1.4h1.4v-1.5a14.5,14.5,0,0,0,3.9-.6q2.6-.9,2.7-2.7c0-1-.6-1.6-1.9-2.1a32.7,32.7,0,0,0-4.5-1v-2.7a2.9,2.9,0,0,1,1.9.5,1.9,1.9,0,0,1,.5.9h3.7c0-1.2-.8-2-2.4-2.5a11.8,11.8,0,0,0-3.7-.5v-1" style="fill:#fab857"/></g><g id="_编组_5" data-name="&lt;编组&gt;"><path id="_复合路径_11" data-name="&lt;复合路径&gt;" d="M118.3,173.1c-14.5.3-26.4,6.5-26.5,13.8s11.5,13,26,12.7,26.4-6.5,26.5-13.9-11.5-13-26-12.6" style="fill:#c67d26"/><path id="_路径_22" data-name="&lt;路径&gt;" d="M91.8,186.9v-4.1l52.5-2v5.5L129,196.6l-15.7.5a116.7,116.7,0,0,1-12.3-3.3c-5.1-1.8-6.5-4-6.5-4l-1.7-1.4A4.5,4.5,0,0,1,91.8,186.9Z" style="fill:#c67d26"/><path id="_复合路径_12" data-name="&lt;复合路径&gt;" d="M117.9,192.3c-11.2.3-20.1-4.1-20-9.7s9.2-10.4,20.3-10.6,20.1,4.1,20,9.7-9.2,10.4-20.3,10.6m.4-23.4c-14.5.3-26.4,6.5-26.5,13.9s11.5,12.9,26,12.6,26.4-6.5,26.5-13.9-11.5-12.9-26-12.6" style="fill:#fcc03c"/><path id="_路径_23" data-name="&lt;路径&gt;" d="M118.8,182.8v2.9l1.7-.3a1.4,1.4,0,0,0,.9-1.2c0-.4-.3-.7-.8-1l-1.7-.4" style="fill:#e59b39"/><path id="_路径_24" data-name="&lt;路径&gt;" d="M117.5,178.2a4.2,4.2,0,0,0-1.8.3c-.5.3-.7.6-.7.9s.3.7.9,1l1.6.3v-2.5" style="fill:#e59b39"/><path id="_路径_25" data-name="&lt;路径&gt;" d="M117.4,185.7v-3.1h-1.1a9.6,9.6,0,0,1-3.9-1.1,2,2,0,0,1-1.1-1.7,3.1,3.1,0,0,1,.5-1.2,4,4,0,0,1,1.2-1,8.8,8.8,0,0,1,2.3-.7l2.2-.3v-.9h1.4v.9a14,14,0,0,1,3.6.5c1.6.5,2.4,1.3,2.5,2.5h-3.8a1.3,1.3,0,0,0-.4-1,2.9,2.9,0,0,0-1.9-.5v2.8a24.1,24.1,0,0,1,4.6.9c1.2.5,1.9,1.2,1.8,2.1s-.9,2.1-2.6,2.7a19.5,19.5,0,0,1-3.9.7v1.4h-1.4v-1.4a20,20,0,0,1-4.2-.5c-1.6-.5-2.4-1.5-2.3-2.8h3.9a2.3,2.3,0,0,0,.5,1.2,4.5,4.5,0,0,0,2.2.6" style="fill:#e59b39"/><path id="_路径_26" data-name="&lt;路径&gt;" d="M118.2,172c-11.1.2-20.2,5-20.3,10.6s8.8,10,20,9.7,20.2-5,20.3-10.6-8.8-10-20-9.7" style="fill:#e59b39"/><path id="_路径_27" data-name="&lt;路径&gt;" d="M118.2,173.4c10.6-.2,19.2,3.7,20,8.9v-.6c.1-5.6-8.8-10-20-9.7S98,177,97.9,182.6v.8C98.7,178.1,107.5,173.7,118.2,173.4Z" style="fill:#c67d26"/><path id="_复合路径_13" data-name="&lt;复合路径&gt;" d="M118.7,185.7v-2.9l1.7.4c.5.3.8.6.8,1a1.4,1.4,0,0,1-.9,1.2l-1.7.3m-1.2-5-1.6-.3c-.6-.3-.9-.6-.9-1s.2-.6.7-.9a4.2,4.2,0,0,1,1.8-.3v2.5m1.4-5.1h-1.4v.9l-2.2.3a8.8,8.8,0,0,0-2.3.7,4,4,0,0,0-1.2,1,3.1,3.1,0,0,0-.5,1.2,2,2,0,0,0,1.1,1.7,9.6,9.6,0,0,0,3.9,1.1h1.1v3.1a4.5,4.5,0,0,1-2.2-.6,2.3,2.3,0,0,1-.5-1.2h-3.9c-.1,1.3.7,2.3,2.3,2.8a20,20,0,0,0,4.2.5v1.4h1.4v-1.4a19.5,19.5,0,0,0,3.9-.7c1.7-.6,2.6-1.5,2.6-2.7s-.6-1.6-1.8-2.1a24.1,24.1,0,0,0-4.6-.9v-2.8a2.9,2.9,0,0,1,1.9.5,1.3,1.3,0,0,1,.4,1H125c-.1-1.2-.9-2-2.5-2.5a14,14,0,0,0-3.6-.5v-.9" style="fill:#fab857"/></g><g id="_编组_6" data-name="&lt;编组&gt;"><path id="_复合路径_14" data-name="&lt;复合路径&gt;" d="M118.3,164.6c-14.5.4-26.4,6.6-26.5,13.9s11.5,13,26,12.7,26.4-6.6,26.5-13.9-11.5-13-26-12.7" style="fill:#c67d26"/><path id="_路径_28" data-name="&lt;路径&gt;" d="M91.8,178.5v-4.2l52.5-1.9v5.5L129,188.1l-15.7.6s-7.2-1.6-12.3-3.4-6.5-4-6.5-4l-1.7-1.4A4.5,4.5,0,0,1,91.8,178.5Z" style="fill:#c67d26"/><path id="_复合路径_15" data-name="&lt;复合路径&gt;" d="M117.9,183.9c-11.2.2-20.1-4.1-20-9.7s9.2-10.4,20.3-10.7,20.1,4.1,20,9.7-9.2,10.4-20.3,10.7m.4-23.4c-14.5.3-26.4,6.5-26.5,13.8s11.5,13,26,12.7,26.4-6.6,26.5-13.9-11.5-13-26-12.6" style="fill:#fcc03c"/><path id="_路径_29" data-name="&lt;路径&gt;" d="M118.8,174.4v2.8l1.7-.3a1.1,1.1,0,0,0,.9-1.1,1.1,1.1,0,0,0-.8-1l-1.7-.4" style="fill:#e59b39"/><path id="_路径_30" data-name="&lt;路径&gt;" d="M117.5,169.7a4,4,0,0,0-1.8.4.9.9,0,0,0-.7.9q0,.6.9.9a5,5,0,0,0,1.6.3v-2.5" style="fill:#e59b39"/><path id="_路径_31" data-name="&lt;路径&gt;" d="M117.4,177.3v-3.1l-1.1-.2a9.9,9.9,0,0,1-3.9-1,2.1,2.1,0,0,1-1.1-1.7,2.6,2.6,0,0,1,.5-1.2,4,4,0,0,1,1.2-1,9,9,0,0,1,2.3-.8l2.2-.2v-.9h1.4v1a10.6,10.6,0,0,1,3.6.5c1.6.5,2.4,1.3,2.5,2.4h-3.8a1.3,1.3,0,0,0-.4-.9,2.9,2.9,0,0,0-1.9-.5v2.7a31.6,31.6,0,0,1,4.6,1c1.2.4,1.9,1.1,1.8,2s-.9,2.2-2.6,2.7a14.3,14.3,0,0,1-3.9.7v1.5h-1.4v-1.4a19,19,0,0,1-4.2-.6c-1.6-.5-2.4-1.4-2.3-2.7h3.9a2.3,2.3,0,0,0,.5,1.2,4.5,4.5,0,0,0,2.2.6" style="fill:#e59b39"/><path id="_路径_32" data-name="&lt;路径&gt;" d="M118.2,163.5c-11.1.3-20.2,5.1-20.3,10.7s8.8,9.9,20,9.7,20.2-5,20.3-10.7-8.8-9.9-20-9.7" style="fill:#e59b39"/><path id="_路径_33" data-name="&lt;路径&gt;" d="M118.2,165c10.6-.3,19.2,3.7,20,8.9v-.7c.1-5.6-8.8-9.9-20-9.7S98,168.6,97.9,174.2v.8C98.7,169.7,107.5,165.2,118.2,165Z" style="fill:#c67d26"/><path id="_复合路径_16" data-name="&lt;复合路径&gt;" d="M118.7,177.2v-2.8l1.7.4a1.1,1.1,0,0,1,.8,1,1.1,1.1,0,0,1-.9,1.1l-1.7.3m-1.2-5a5,5,0,0,1-1.6-.3q-.9-.3-.9-.9a.9.9,0,0,1,.7-.9,4,4,0,0,1,1.8-.4v2.5m1.4-5.1h-1.4v.9l-2.2.2a9,9,0,0,0-2.3.8,4,4,0,0,0-1.2,1,2.6,2.6,0,0,0-.5,1.2,2.1,2.1,0,0,0,1.1,1.7,9.9,9.9,0,0,0,3.9,1l1.1.2v3.1a4.5,4.5,0,0,1-2.2-.6,2.3,2.3,0,0,1-.5-1.2h-3.9c-.1,1.3.7,2.2,2.3,2.7a19,19,0,0,0,4.2.6v1.4h1.4v-1.5a14.3,14.3,0,0,0,3.9-.7c1.7-.5,2.6-1.4,2.6-2.7s-.6-1.6-1.8-2a31.6,31.6,0,0,0-4.6-1v-2.7a2.9,2.9,0,0,1,1.9.5,1.3,1.3,0,0,1,.4.9H125c-.1-1.1-.9-1.9-2.5-2.4a10.6,10.6,0,0,0-3.6-.5v-1" style="fill:#fcc03c"/></g><g id="_编组_7" data-name="&lt;编组&gt;"><path id="_复合路径_17" data-name="&lt;复合路径&gt;" d="M57.6,183.5c-14.5.3-26.4,6.5-26.5,13.8s11.5,13,26,12.7,26.4-6.6,26.5-13.9-11.5-13-26-12.6" style="fill:#c67d26"/><path id="_路径_34" data-name="&lt;路径&gt;" d="M31.1,197.3v-4.2l52.5-1.9v5.5L68.3,207l-15.7.5s-7.2-1.6-12.3-3.4-6.5-3.9-6.5-3.9l-1.7-1.4A5.8,5.8,0,0,1,31.1,197.3Z" style="fill:#c67d26"/><path id="_复合路径_18" data-name="&lt;复合路径&gt;" d="M57.2,202.7c-11.2.3-20.1-4.1-20-9.7s9.2-10.4,20.4-10.6,20,4,19.9,9.7-9.2,10.4-20.3,10.6m.4-23.4c-14.5.3-26.4,6.5-26.5,13.8s11.5,13,26,12.7,26.4-6.5,26.5-13.9-11.5-13-26-12.6" style="fill:#fcc03c"/><path id="_路径_35" data-name="&lt;路径&gt;" d="M58.1,193.2V196a3.5,3.5,0,0,0,1.6-.3,1.1,1.1,0,0,0,.1-2.1l-1.7-.4" style="fill:#e59b39"/><path id="_路径_36" data-name="&lt;路径&gt;" d="M56.8,188.5a6,6,0,0,0-1.8.4,1.3,1.3,0,0,0-.7.9q0,.6.9.9a5.3,5.3,0,0,0,1.6.4v-2.6" style="fill:#e59b39"/><path id="_路径_37" data-name="&lt;路径&gt;" d="M56.7,196.1V193H55.6a11.6,11.6,0,0,1-3.9-1.1,1.7,1.7,0,0,1-1-1.7,1.9,1.9,0,0,1,.4-1.2,3.4,3.4,0,0,1,1.3-1,7.1,7.1,0,0,1,2.2-.7l2.2-.3V186h1.3v1a10.6,10.6,0,0,1,3.6.5c1.6.5,2.5,1.3,2.5,2.5H60.5a1.3,1.3,0,0,0-.4-.9,2.9,2.9,0,0,0-1.9-.5v2.7a31.6,31.6,0,0,1,4.6,1c1.2.5,1.9,1.1,1.9,2.1s-1,2.1-2.7,2.7a14.5,14.5,0,0,1-3.9.6v1.5H56.6v-1.4a18.1,18.1,0,0,1-4.1-.5c-1.7-.5-2.4-1.5-2.4-2.8H54a2.3,2.3,0,0,0,.5,1.2,4.5,4.5,0,0,0,2.2.6" style="fill:#e59b39"/><path id="_路径_38" data-name="&lt;路径&gt;" d="M57.6,182.4c-11.2.2-20.3,5-20.4,10.6s8.8,10,20,9.7,20.2-5,20.3-10.6-8.8-10-19.9-9.7" style="fill:#e59b39"/><path id="_路径_39" data-name="&lt;路径&gt;" d="M57.6,183.8c10.5-.2,19.1,3.7,19.9,8.9v-.6c.1-5.7-8.8-10-19.9-9.7s-20.3,5-20.4,10.6a1.9,1.9,0,0,0,.1.8C38,188.5,46.8,184.1,57.6,183.8Z" style="fill:#c67d26"/><path id="_复合路径_19" data-name="&lt;复合路径&gt;" d="M58.1,196v-2.8l1.7.4a1.1,1.1,0,0,1-.1,2.1,3.5,3.5,0,0,1-1.6.3m-1.3-4.9a5.3,5.3,0,0,1-1.6-.4q-.9-.3-.9-.9a1.3,1.3,0,0,1,.7-.9,6,6,0,0,1,1.8-.4v2.6m1.4-5.2H56.9v.9l-2.2.3a7.1,7.1,0,0,0-2.2.7,3.4,3.4,0,0,0-1.3,1,1.9,1.9,0,0,0-.4,1.2,1.7,1.7,0,0,0,1,1.7,11.6,11.6,0,0,0,3.9,1.1h1.1v3.1a4.5,4.5,0,0,1-2.2-.6,2.3,2.3,0,0,1-.5-1.2H50.1c0,1.3.7,2.3,2.4,2.8a18.1,18.1,0,0,0,4.1.5v1.4H58v-1.5a14.5,14.5,0,0,0,3.9-.6q2.6-.9,2.7-2.7c0-1-.7-1.6-1.9-2.1a31.6,31.6,0,0,0-4.6-1v-2.7a2.9,2.9,0,0,1,1.9.5,1.3,1.3,0,0,1,.4.9h3.8c0-1.2-.9-2-2.5-2.5a10.6,10.6,0,0,0-3.6-.5v-1" style="fill:#fcc03c"/></g><g id="_编组_8" data-name="&lt;编组&gt;"><path id="_复合路径_20" data-name="&lt;复合路径&gt;" d="M165.9,148.2c-14.5.4-26.3,6.6-26.5,13.9s11.6,13,26.1,12.7,26.3-6.6,26.5-13.9-11.5-13-26.1-12.7" style="fill:#c67d26"/><path id="_路径_40" data-name="&lt;路径&gt;" d="M139.4,162.1v-4.2l52.5-1.9v5.5l-15.4,10.2-15.6.6s-7.2-1.6-12.3-3.4-6.6-4-6.6-4l-1.7-1.4A4.5,4.5,0,0,1,139.4,162.1Z" style="fill:#c67d26"/><path id="_复合路径_21" data-name="&lt;复合路径&gt;" d="M165.5,167.5c-11.1.2-20.1-4.1-20-9.7s9.3-10.4,20.4-10.7,20.1,4.1,20,9.7-9.2,10.4-20.4,10.7m.4-23.4c-14.5.3-26.3,6.5-26.5,13.8s11.6,13,26.1,12.7,26.3-6.6,26.5-13.9-11.5-13-26.1-12.6" style="fill:#fcc03c"/><path id="_路径_41" data-name="&lt;路径&gt;" d="M166.5,158v2.8l1.6-.3a1.2,1.2,0,0,0,.9-1.2c0-.4-.2-.7-.8-.9l-1.6-.4" style="fill:#e59b39"/><path id="_路径_42" data-name="&lt;路径&gt;" d="M165.2,153.3a4.1,4.1,0,0,0-1.9.4,1,1,0,0,0-.6.9q0,.6.9.9a4.3,4.3,0,0,0,1.5.3v-2.5" style="fill:#e59b39"/><path id="_路径_43" data-name="&lt;路径&gt;" d="M165,160.9v-3.1l-1.2-.2a8.8,8.8,0,0,1-3.8-1,2.1,2.1,0,0,1-1.1-1.7,1.8,1.8,0,0,1,.5-1.2,4,4,0,0,1,1.2-1,7.8,7.8,0,0,1,2.3-.8l2.2-.2v-.9h1.4v1a11.5,11.5,0,0,1,3.6.5q2.4.8,2.4,2.4h-3.7a1.9,1.9,0,0,0-.4-.9,3.2,3.2,0,0,0-2-.5V156a32.7,32.7,0,0,1,4.5,1c1.3.4,1.9,1.1,1.9,2s-.9,2.2-2.7,2.7a14.3,14.3,0,0,1-3.8.7v1.5H165v-1.4a17.2,17.2,0,0,1-4.2-.6c-1.6-.5-2.4-1.4-2.3-2.7h3.8a2.3,2.3,0,0,0,.5,1.2,4.5,4.5,0,0,0,2.2.6" style="fill:#e59b39"/><path id="_路径_44" data-name="&lt;路径&gt;" d="M165.9,147.1c-11.1.3-20.2,5.1-20.4,10.7s8.9,9.9,20,9.7,20.3-5,20.4-10.7-8.9-9.9-20-9.7" style="fill:#e59b39"/><path id="_路径_45" data-name="&lt;路径&gt;" d="M165.9,148.6c10.6-.3,19.2,3.7,19.9,8.9,0-.2.1-.4.1-.7.1-5.6-8.9-9.9-20-9.7s-20.2,5.1-20.4,10.7c0,.3.1.5.1.8C146.3,153.3,155.2,148.8,165.9,148.6Z" style="fill:#c67d26"/><path id="_复合路径_22" data-name="&lt;复合路径&gt;" d="M166.4,160.8V158l1.6.4c.6.2.8.5.8.9a1.2,1.2,0,0,1-.9,1.2l-1.6.3m-1.3-5a4.3,4.3,0,0,1-1.5-.3q-.9-.3-.9-.9a1,1,0,0,1,.6-.9,4.1,4.1,0,0,1,1.9-.4v2.5m1.5-5.1h-1.4v.9l-2.2.2a7.8,7.8,0,0,0-2.3.8,4,4,0,0,0-1.2,1,1.8,1.8,0,0,0-.5,1.2,2.1,2.1,0,0,0,1.1,1.7,8.8,8.8,0,0,0,3.8,1l1.2.2v3.1a4.5,4.5,0,0,1-2.2-.6,2.3,2.3,0,0,1-.5-1.2h-3.8c-.1,1.3.7,2.2,2.3,2.7a17.2,17.2,0,0,0,4.2.6v1.4h1.3v-1.5a14.3,14.3,0,0,0,3.8-.7q2.7-.7,2.7-2.7c0-.9-.6-1.6-1.9-2a32.7,32.7,0,0,0-4.5-1v-2.7a3.2,3.2,0,0,1,2,.5,1.9,1.9,0,0,1,.4.9h3.7q0-1.7-2.4-2.4a11.5,11.5,0,0,0-3.6-.5v-1" style="fill:#fab857"/></g><g id="_编组_9" data-name="&lt;编组&gt;"><path id="_复合路径_23" data-name="&lt;复合路径&gt;" d="M173.1,139.1c-14.5.3-26.4,6.5-26.5,13.9s11.5,12.9,26,12.6,26.4-6.5,26.5-13.9-11.5-12.9-26-12.6" style="fill:#c67d26"/><path id="_路径_46" data-name="&lt;路径&gt;" d="M146.6,153v-4.2l52.5-2v5.5l-15.4,10.3-15.6.5a116.7,116.7,0,0,1-12.3-3.3c-5.2-1.8-6.6-4-6.6-4l-1.6-1.4A3.2,3.2,0,0,1,146.6,153Z" style="fill:#c67d26"/><path id="_复合路径_24" data-name="&lt;复合路径&gt;" d="M172.6,158.3c-11.1.3-20-4.1-19.9-9.7s9.2-10.4,20.3-10.6,20.1,4.1,20,9.7-9.2,10.4-20.4,10.6m.5-23.4c-14.5.3-26.4,6.5-26.5,13.9s11.5,13,26,12.6,26.4-6.5,26.5-13.8-11.5-13-26-12.7" style="fill:#fcc03c"/><path id="_路径_47" data-name="&lt;路径&gt;" d="M173.6,148.8v2.9l1.6-.3a1.7,1.7,0,0,0,1-1.2c0-.4-.3-.7-.9-1l-1.6-.4" style="fill:#e59b39"/><path id="_路径_48" data-name="&lt;路径&gt;" d="M172.3,144.2a4.4,4.4,0,0,0-1.9.3,1.2,1.2,0,0,0-.6.9c0,.4.3.7.9,1l1.5.3v-2.5" style="fill:#e59b39"/><path id="_路径_49" data-name="&lt;路径&gt;" d="M172.1,151.7v-3.1H171a10.6,10.6,0,0,1-3.8-1,2.2,2.2,0,0,1-1.1-1.8,2.1,2.1,0,0,1,.5-1.2,4,4,0,0,1,1.2-1,8.8,8.8,0,0,1,2.3-.7l2.2-.2v-1h1.4v.9a15.5,15.5,0,0,1,3.6.5c1.6.5,2.4,1.3,2.5,2.5H176a1.9,1.9,0,0,0-.4-1,3.1,3.1,0,0,0-1.9-.5v2.8a21,21,0,0,1,4.5.9c1.3.5,1.9,1.2,1.9,2.1s-.9,2.1-2.7,2.7a18.5,18.5,0,0,1-3.8.7v1.4h-1.4v-1.4a14,14,0,0,1-4.2-.5c-1.6-.5-2.4-1.4-2.3-2.8h3.8a1.7,1.7,0,0,0,.6,1.2c.3.4,1.1.5,2.1.6" style="fill:#e59b39"/><path id="_路径_50" data-name="&lt;路径&gt;" d="M173,138c-11.1.2-20.2,5-20.3,10.6s8.8,10,19.9,9.7,20.3-5,20.4-10.6-8.9-10-20-9.7" style="fill:#e59b39"/><path id="_路径_51" data-name="&lt;路径&gt;" d="M173,139.4c10.6-.2,19.2,3.7,19.9,8.9a1.3,1.3,0,0,0,.1-.6c.1-5.6-8.9-10-20-9.7s-20.2,5-20.3,10.6v.8C153.5,144.1,162.3,139.7,173,139.4Z" style="fill:#c67d26"/><path id="_复合路径_25" data-name="&lt;复合路径&gt;" d="M173.5,151.7v-2.9l1.6.4c.6.3.9.6.9,1a1.7,1.7,0,0,1-1,1.2l-1.6.3m-1.3-5-1.5-.3c-.6-.3-.9-.6-.9-1a1.2,1.2,0,0,1,.6-.9,4.4,4.4,0,0,1,1.9-.3v2.5m1.5-5.1h-1.4v1l-2.2.2a8.8,8.8,0,0,0-2.3.7,4,4,0,0,0-1.2,1,2.1,2.1,0,0,0-.5,1.2,2.2,2.2,0,0,0,1.1,1.8,10.6,10.6,0,0,0,3.8,1h1.2v3.1c-1-.1-1.8-.2-2.1-.6a1.7,1.7,0,0,1-.6-1.2h-3.8c-.1,1.4.7,2.3,2.3,2.8a14,14,0,0,0,4.2.5v1.4h1.4v-1.4a18.5,18.5,0,0,0,3.8-.7q2.7-.9,2.7-2.7c0-.9-.6-1.6-1.9-2.1a21,21,0,0,0-4.5-.9v-2.8a3.1,3.1,0,0,1,1.9.5,1.9,1.9,0,0,1,.4,1h3.8c-.1-1.2-.9-2-2.5-2.5a15.5,15.5,0,0,0-3.6-.5v-.9" style="fill:#fab857"/></g><g id="_编组_10" data-name="&lt;编组&gt;"><path id="_复合路径_26" data-name="&lt;复合路径&gt;" d="M171.1,128.8c-14.5.4-26.4,6.6-26.5,13.9s11.5,13,26,12.7,26.4-6.6,26.5-13.9-11.5-13-26-12.7" style="fill:#c67d26"/><path id="_路径_52" data-name="&lt;路径&gt;" d="M144.6,142.7v-4.2l52.5-1.9v5.5l-15.4,10.2-15.7.6s-7.1-1.6-12.3-3.4-6.5-4-6.5-4l-1.7-1.4A4.5,4.5,0,0,1,144.6,142.7Z" style="fill:#c67d26"/><path id="_复合路径_27" data-name="&lt;复合路径&gt;" d="M170.7,148.1c-11.1.2-20.1-4.1-20-9.7s9.2-10.4,20.4-10.7,20,4.1,19.9,9.7-9.2,10.4-20.3,10.7m.4-23.4c-14.5.3-26.4,6.5-26.5,13.8s11.5,13,26,12.7,26.4-6.6,26.5-13.9-11.5-13-26-12.6" style="fill:#fcc03c"/><path id="_路径_53" data-name="&lt;路径&gt;" d="M171.6,138.6v2.8a5.7,5.7,0,0,0,1.6-.3,1.1,1.1,0,0,0,.9-1.1,1.1,1.1,0,0,0-.8-1l-1.7-.4" style="fill:#e59b39"/><path id="_路径_54" data-name="&lt;路径&gt;" d="M170.3,133.9a4,4,0,0,0-1.8.4,1,1,0,0,0-.6.9c-.1.4.2.7.8.9a5.7,5.7,0,0,0,1.6.3v-2.5" style="fill:#e59b39"/><path id="_路径_55" data-name="&lt;路径&gt;" d="M170.2,141.5v-3.1l-1.1-.2a8.8,8.8,0,0,1-3.8-1,1.9,1.9,0,0,1-1.1-1.7,1.7,1.7,0,0,1,.4-1.2,3.4,3.4,0,0,1,1.3-1,7.2,7.2,0,0,1,2.2-.8l2.2-.2v-.9h1.3v1a11.8,11.8,0,0,1,3.7.5c1.5.5,2.4,1.3,2.4,2.4H174a1.3,1.3,0,0,0-.4-.9,2.9,2.9,0,0,0-1.9-.5v2.7a32.7,32.7,0,0,1,4.5,1c1.2.4,1.9,1.1,1.9,2s-1,2.2-2.7,2.7a14.3,14.3,0,0,1-3.9.7v1.5h-1.4v-1.4a17.1,17.1,0,0,1-4.1-.6c-1.7-.5-2.4-1.4-2.4-2.7h3.9a2.3,2.3,0,0,0,.5,1.2,4.5,4.5,0,0,0,2.2.6" style="fill:#e59b39"/><path id="_路径_56" data-name="&lt;路径&gt;" d="M171.1,127.7c-11.2.3-20.3,5.1-20.4,10.7s8.9,9.9,20,9.7,20.2-5,20.3-10.7-8.8-9.9-19.9-9.7" style="fill:#e59b39"/><path id="_路径_57" data-name="&lt;路径&gt;" d="M171.1,129.2c10.5-.3,19.1,3.7,19.9,8.9v-.7c.1-5.6-8.8-9.9-19.9-9.7s-20.3,5.1-20.4,10.7a2.2,2.2,0,0,0,.1.8C151.5,133.9,160.3,129.4,171.1,129.2Z" style="fill:#c67d26"/><path id="_复合路径_28" data-name="&lt;复合路径&gt;" d="M171.6,141.4v-2.8l1.7.4a1.1,1.1,0,0,1,.8,1,1.1,1.1,0,0,1-.9,1.1,5.7,5.7,0,0,1-1.6.3m-1.3-5a5.7,5.7,0,0,1-1.6-.3c-.6-.2-.9-.5-.8-.9a1,1,0,0,1,.6-.9,4,4,0,0,1,1.8-.4v2.5m1.4-5.1h-1.3v.9l-2.2.2a7.2,7.2,0,0,0-2.2.8,3.4,3.4,0,0,0-1.3,1,1.7,1.7,0,0,0-.4,1.2,1.9,1.9,0,0,0,1.1,1.7,8.8,8.8,0,0,0,3.8,1l1.1.2v3.1a4.5,4.5,0,0,1-2.2-.6,2.3,2.3,0,0,1-.5-1.2h-3.9c0,1.3.7,2.2,2.4,2.7a17.1,17.1,0,0,0,4.1.6v1.4h1.4V143a14.3,14.3,0,0,0,3.9-.7q2.5-.7,2.7-2.7c0-.9-.7-1.6-1.9-2a32.7,32.7,0,0,0-4.5-1v-2.7a2.9,2.9,0,0,1,1.9.5,1.3,1.3,0,0,1,.4.9h3.8c0-1.1-.9-1.9-2.4-2.4a11.8,11.8,0,0,0-3.7-.5v-1" style="fill:#fcc03c"/></g></svg>