<svg xmlns="http://www.w3.org/2000/svg" viewBox="0 0 120 160"><title>xingming_bg01</title><g id="图层_2" data-name="图层 2"><g id="图层_1-2" data-name="图层 1"><path d="M84,134.8c-.5-.2-.1-.3,0-.6s.8-.3.5-.4-.1-.4.6-.6a3.4,3.4,0,0,1,1.6-.5c0,.2.8.1.9-.1h1.6l.8.2c.2-.1.1-.3.7-.3a2.4,2.4,0,0,1,1.1.3h0c.5-.1.3-.1.5.1s.9,0,.9.2-.2.4-.3.4h.5c.4,0,.2.1.4.2l.2.3h.5c-.1,0-.4.1-.2.2a.2.2,0,0,1,.3-.1.8.8,0,0,1-.1.8c-.1.1-1.3.4-1.2.5s.1.2.2.3H92c-.2.1.4.3-.4.1s-.3.2-.8.2a2.4,2.4,0,0,1-2,.2c-.4,0-.6,0-.8.2s-.2-.1,0-.2-1.9-.1-1.4-.2a4.2,4.2,0,0,1-2.3-.9c0-.1-.6-.1-.4-.3S83.9,134.7,84,134.8Z" style="fill:#2f2f2f"/><path d="M89.2,131.1h0" style="fill:#2f2f2f"/><path d="M94.8,133.3h0Z" style="fill:#2f2f2f"/><path d="M95.9,133.8h0" style="fill:#2f2f2f"/><path d="M96.3,134h0" style="fill:#2f2f2f"/><path d="M85.1,134.5h0" style="fill:#2f2f2f"/><path d="M84.6,134.5c-.1.2.1,0,0,0" style="fill:#2f2f2f"/><path d="M84.6,135h0" style="fill:#2f2f2f"/><path d="M96.7,135.6h0" style="fill:#2f2f2f"/><path d="M97.3,135.6h0" style="fill:#2f2f2f"/><path d="M85.9,135.7h0" style="fill:#2f2f2f"/><path d="M86.7,136.2c.1.1.3-.1,0,0" style="fill:#2f2f2f"/><path d="M82.9,127.9l.3.3c-.1-.1.9-.2-.3-.3" style="fill:#2f2f2f"/><path d="M79,129h0" style="fill:#2f2f2f"/><path d="M96.1,129.4s-.6.1-.4.3,1.1-.2.4-.3" style="fill:#2f2f2f"/><path d="M87.4,129.1c0,.2.2.4.5.5s-.3-.8-.5-.5" style="fill:#2f2f2f"/><path d="M88.7,129.2c0,.1.1.3.3.2s.2-.2-.3-.2" style="fill:#2f2f2f"/><path d="M72.6,129.4c.1.2.6.2,1,.2s-.9-.3-1-.2" style="fill:#2f2f2f"/><path d="M98,129.9c0,.1-.6.1-.4.2s.4-.1.4-.2" style="fill:#2f2f2f"/><path d="M86.5,129.5s-.1.1.1.2.1-.2-.1-.2" style="fill:#2f2f2f"/><path d="M88,130l.5.2s-.1-.6-.5-.5v.3" style="fill:#2f2f2f"/><path d="M94.7,130.4c0,.1,0,.3.3.1s0-.1-.3-.1" style="fill:#2f2f2f"/><path d="M75.6,130.5c.1,0,.1.3.5.1s-.4-.1-.5-.1" style="fill:#2f2f2f"/><path d="M92.1,130.6s-.3.1-.3.2h.3" style="fill:#2f2f2f"/><path d="M93.4,131.4l-.2.4c1.1.2.3-.8.2-.4" style="fill:#2f2f2f"/><path d="M83.2,130.9c-.1-.1-.7.5-.6.6a2.5,2.5,0,0,0,1.9.1c.3,0,.7-1-1.3-.7" style="fill:#2f2f2f"/><path d="M79.5,131.2a3.9,3.9,0,0,0,1.7.4,2.9,2.9,0,0,0-1.7-.4" style="fill:#2f2f2f"/><path d="M96.2,132.1a.2.2,0,0,0,0,.3c.7.1,0-.5,0-.3" style="fill:#2f2f2f"/><path d="M82.3,132h0" style="fill:#2f2f2f"/><path d="M72,132.2c-.2.2.6.3.9.2s-.6-.1-.9-.2" style="fill:#2f2f2f"/><path d="M97.1,132.9h.6c0-.2-.8,0-.6,0" style="fill:#2f2f2f"/><path d="M96.8,133.1c-.1-.1-.3.1-.3.2s.1-.5.3-.2" style="fill:#2f2f2f"/><path d="M100.5,135.9c-.1.2-.5,0-.3.3s-.6,0-.7.2,1.8-.4,1-.5" style="fill:#2f2f2f"/><path d="M103.1,133.1l-1,.5c.3.1,2.3-.3,1-.5" style="fill:#2f2f2f"/><path d="M66.1,134.2c-.1,0,1.9.4,1.8.2H66.1" style="fill:#2f2f2f"/><path d="M83.3,133.6h.4c-.1-.1-.2-.2-.4-.1" style="fill:#2f2f2f"/><path d="M101.6,134.5c0,.1-1,.3,0,.3s.3-.2,0-.3" style="fill:#2f2f2f"/><path d="M98,135h0" style="fill:#2f2f2f"/><path d="M103.1,137.8c-.1.1-.4,0-.2.2s.6-.2.2-.2" style="fill:#2f2f2f"/><path d="M67.1,135.7a5.8,5.8,0,0,0,2.3,0H67.1" style="fill:#2f2f2f"/><path d="M81.3,135.6h-.7c0,.1.7-.1.7-.1" style="fill:#2f2f2f"/><path d="M96.9,137.1c-.2.4.7,0,0,0" style="fill:#2f2f2f"/><path d="M95.1,137.5c-1.1.2,1.3.6,0,0" style="fill:#2f2f2f"/><path d="M84.1,137.1c.1,0-.4.2.2.1s.3-.2-.2-.1" style="fill:#2f2f2f"/><path d="M84.6,137.7c.1.1-.6.8.7.2s0-.5-.7-.2" style="fill:#2f2f2f"/><path d="M86.7,137.5c-.2-.1-.3.7.4.2l-.4-.2" style="fill:#2f2f2f"/><path d="M80.9,138.3h.6c-.1,0-.5-.2-.6,0" style="fill:#2f2f2f"/><path d="M92.1,138.7s.5.3.5.1h-.5" style="fill:#2f2f2f"/><path d="M79.3,138.7c.3.2.1.2,0,0" style="fill:#2f2f2f"/><path d="M76.5,136.6s-.7.1-.7.2h1.1c0-.1-.1-.2-.4-.1" style="fill:#2f2f2f"/><path d="M86.5,138.8h.3q0-.2-.3,0" style="fill:#2f2f2f"/><path d="M72.8,137.4l-1.1.2c.7.1,1.5-.3,1.1-.2" style="fill:#2f2f2f"/><path d="M75.4,139.7c.5.4.4.1,0,0" style="fill:#2f2f2f"/><path d="M98.1,140.5c.4.3.8.3,0,0" style="fill:#2f2f2f"/><path d="M77.1,140.6l-.4.2c-.2.2,1.7-.1.4-.2" style="fill:#2f2f2f"/><path d="M65.7,138.7c0,.1,0,.1.3.1h-.3" style="fill:#2f2f2f"/><path d="M74.4,141.2c.5.4.5,0,0,0" style="fill:#2f2f2f"/><path d="M96.1,133.8h0" style="fill:#2f2f2f"/><path d="M89,129.4c-.1.4.1.2.1.4s0-.3-.1-.4" style="fill:#2f2f2f"/><path d="M81.3,134.1c.3,0,.7.1.8.3s-.8.3-1.2.4a6.1,6.1,0,0,1-2.7-.1l-.4-.3a1.1,1.1,0,0,1,.7-.3,7.5,7.5,0,0,1,2.2-.2Z" style="fill:#2f2f2f"/><path d="M56.7,125.3a6,6,0,0,0,0,1.9h-.1a22.3,22.3,0,0,0,.9,3.9h.1l1.2,5h0a27.5,27.5,0,0,0,1,3.4c.1.4.4,1.1.5,1.6l.7,2.5h.1c.5,1.2.7,2.5,1.3,3.7s.2.5.3.8.9,3.4,1.8,5a4.4,4.4,0,0,1,.8,1.7,19.2,19.2,0,0,1,1.2,2.5c.2,0,.3.3.5.3a1.3,1.3,0,0,1-.2.9.8.8,0,0,1-.5.8h0c-.3-.1-.4.2-.5.3s-.3-.4-.6-.3l-.8-2.3h.1c.2,0,0-.2,0-.3a3.2,3.2,0,0,1-.3-.9,9.5,9.5,0,0,0-.9-2.1h.2c-1-1.5-1.2-3.5-1.9-5.2-1.3-3.3-2.2-6.8-3.3-10.1-.3-1.6-.9-3-1.2-4.5s0-.6-.2-.8a34.5,34.5,0,0,0-1.2-4.3h.1c-.2-.4-.1-.9-.5-1.3s.1-.5-.2-.6h0a2.9,2.9,0,0,1,.1,1.3c0-.3-.2-.7-.1-1s0-.4-.3-.3.1.7.1,1h-.1c-.1-.7-.3-1.4-.4-2.1a4.9,4.9,0,0,1,.1-1.2c.3-.2-.1-.5.2-.8s.8.2,1.2-.1A1.4,1.4,0,0,1,56.7,125.3Z" style="fill:#2f2f2f"/><path d="M55.1,128.6H55v-.2Z" style="fill:#2f2f2f"/><polygon points="55.2 129.4 55.1 129.2 55.2 129.4 55.2 129.4" style="fill:#2f2f2f"/><path d="M55.3,129.9v0Z" style="fill:#2f2f2f"/><path d="M55.8,131.5v-.3C55.9,131.2,55.8,131.4,55.8,131.5Z" style="fill:#2f2f2f"/><polygon points="56 132.3 56 132.1 56.1 132.2 56 132.3" style="fill:#2f2f2f"/><path d="M56.1,132.5h0c-.1,0-.1-.1,0-.2Z" style="fill:#2f2f2f"/><path d="M56.3,133.2h0v-.1Z" style="fill:#2f2f2f"/><path d="M56.5,134.2c0,.2.1.3.1.5a3.1,3.1,0,0,1-.2-.8C56.6,133.9,56.4,134.1,56.5,134.2Z" style="fill:#2f2f2f"/><path d="M56.8,135.9l.2.4Z" style="fill:#2f2f2f"/><path d="M57.1,136.7c-.1,0-.1-.1-.1-.2Z" style="fill:#2f2f2f"/><polygon points="58.1 140 58 139.6 58.1 140 58.1 140" style="fill:#2f2f2f"/><path d="M66.6,7.2c-.1.3-.4.1-.6.2a1.3,1.3,0,0,0-.7.6c.2.1.2-.2.4-.1s.5-.3.8-.4a.5.5,0,0,1-.4.6l-.5.2a30.9,30.9,0,0,1-3.3,3.9h-.1a15.8,15.8,0,0,1,1.2-1.5h0l.9-1h-.1l-1.5,1.7h0l-1,1h0c-1.1,1.6-2.1,3.4-3.2,5.1h.1c.4-.3.5-.8.8-1.1a6,6,0,0,1,.9-1.3c-1.5,2.8-3.5,5.3-5.1,8.1s-1.3,3-1.9,4.5-.7,1.6-1.1,2.3,0,.3-.2.4-.8.2-1-.2h-.2a.2.2,0,0,1,.2-.2c-.1-.3-.7-.1-.4-.5s1.4-1.9,2.1-3a39.6,39.6,0,0,1,3.8-7c2.2-3.1,4.1-6.3,6.6-9.3l2.1-2.7c0-.5.6-.5.8-.8l.3-.2c.3,0,.5,0,.6.2S66.8,7.2,66.6,7.2Z" style="fill:#2f2f2f"/><path d="M60.6,14.6h0l.3-.4C60.9,14.3,60.7,14.4,60.6,14.6Z" style="fill:#2f2f2f"/><path d="M50.9,28.9c-.1,0-.2.2-.2.1a18.6,18.6,0,0,0,1-2c.3.1,0,.3,0,.5S51.2,28.5,50.9,28.9Z" style="fill:#2f2f2f"/><path d="M55.4,123c0,.2-.2.2-.3.2s-.5.6-.8.7-.6-.2-.9-.1.2-.9.2-1.5-.4-2.3-.5-3.5,0-.5-.1-.7a21.4,21.4,0,0,1-.6-3.5,5.6,5.6,0,0,1-.4-1.2c.1-.2-.1-.3,0-.4a3,3,0,0,1-.2-1.3,32.3,32.3,0,0,1-.6-3.3,66.8,66.8,0,0,1-1.3-7.8c-.3-1.3-.4-2.6-.6-3.8s0-1.2-.6-.6c-.3-1,.7-1.2,1.1-2s.5,0,.7-.2.1.2.2.3a2.5,2.5,0,0,1,.2,1.5c.2.4-.3.5-.4.7s.2,1.4.1,2.1.1,1.2.3,1.7a1.2,1.2,0,0,0,.1.8,33.5,33.5,0,0,0,.7,4.4c0,.3.2.6.2.9a6.6,6.6,0,0,1,.3,2.4,6.5,6.5,0,0,1,.4,1.3c0,.2.1.5.1.8s.1.5.2.7.2.5.3.8.4,1.6.5,2.6a41.5,41.5,0,0,0,1.1,4.8,6.1,6.1,0,0,1,.5,1.2c.3.3.2.8.5,1.1S55.6,122.7,55.4,123Z" style="fill:#2f2f2f"/><path d="M51.6,32.4c.3.6-.6.7-.5,1.2s-.3.8-.5,1.1a15.9,15.9,0,0,0-.7,2h0c0,.2-.3.2-.1.4h0v.3a.1.1,0,0,0-.1-.1c-.2.2.2.5-.2.6a11.7,11.7,0,0,1-.5,2.7,2.4,2.4,0,0,1-.2.8c-.1-.2-.3.1-.3.1s-.1.6-.2.9h0c0-.3-.1-.8.2-.9s.1-.3.1-.5,0-.6.2-.9h-.1a15.1,15.1,0,0,0-1,3.8c-.3,1.1-.9,2-.8,3.2s-.7,3.3-.6,5c.2-1.3.5-2.6.7-4h.1a3.8,3.8,0,0,1,0,1.5c-.1,1.6-.7,3-.6,4.6a.1.1,0,0,0,0,.2c-.3,1.2-.3,2.5-.5,3.7s-.1,2-.1,3.1-.8.1-1.1.3-.2,0-.2-.1h-.4a9.2,9.2,0,0,0,.5-3.7,4.9,4.9,0,0,1,.1-1.2L45,55c.4-.1.2-.5.3-.7s.3-2.2.5-3.2.5-4.8,1.3-6.9,1.1-5,1.7-7.4.6-2,1-3,.1-1.1,0-1.6h-.2c-.1-.1.1-.2,0-.4a.4.4,0,0,1,.6-.2h.1a1,1,0,0,1,.4-.5,1,1,0,0,1,1,.3C51.9,32,51,32.3,51.6,32.4Z" style="fill:#2f2f2f"/><path d="M48.1,44H48c-.2.1.1.3-.1.4s-.1.2-.2.3a1.4,1.4,0,0,1-.2.6c0,.2-.1.2-.1.4h-.1c.2-.3,0-.8.4-1.1h-.1a7,7,0,0,0,.3-1.4l.2-.2c.1.2-.2.5,0,.7S48.1,43.9,48.1,44Z" style="fill:#2f2f2f"/><path d="M47.5,46.2v-.3A.4.4,0,0,1,47.5,46.2Z" style="fill:#2f2f2f"/><polygon points="47.3 46 47.3 45.8 47.3 46 47.3 46" style="fill:#2f2f2f"/><path d="M49.6,93.6c-.2.1-.4.4-.7.2s-.3-.1-.4-.1a4.1,4.1,0,0,0-.4-2.2c-.5-2.7-1.1-5.4-1.4-8.3h0c.2-.3,0-.5,0-.9s-.4-3.2-.4-4.8h0c-.1-4-1.2-7.7-1.1-11.6V64.2c-.1-.2-.1-.4-.2-.5s.1-.3-.1-.4l-.2.2-.3-.3c.2-.4.8-.6.9-1.1s.4-.2.5-.1.7.6.6,1.1.1.9-.2,1.3v1.9h0a16.4,16.4,0,0,0-.2-2.3c-.2.2.1.3-.1.4s-.1,1.9.1,2.7h-.1a15,15,0,0,0,.3,3.7c.2,1.2.3,2.4.5,3.5h0a.4.4,0,0,0,.1.3h-.1v1.2h.1V76a.2.2,0,0,1,.2.2h-.1v.2c.2.6,0,1.3.3,1.8s.1.5,0,.9-.1.5.3.8-.1.1,0,.2h0c.3-.3,0-.7.1-1-.4-2.1-.3-4.4-.7-6.4h.1c.4,2.2.5,4.5.8,6.7a125.3,125.3,0,0,0,2.1,12.5c.1.2.2.5.4.6s.1.3.2.4S49.9,93.4,49.6,93.6Z" style="fill:#2f2f2f"/><path d="M46.7,72.4c-.1,0,0-.1-.1-.2S46.7,72.3,46.7,72.4Z" style="fill:#2f2f2f"/><path d="M46.4,70.6c-.1-.2,0-.4,0-.5S46.5,70.4,46.4,70.6Z" style="fill:#2f2f2f"/><path d="M46.1,67.1c0-.2-.1-.3,0-.4Z" style="fill:#2f2f2f"/><path d="M43.5,64.2a.4.4,0,0,1-.5-.1c-.1.1-.1.3-.3.3s-.2,0-.1-.2a.1.1,0,0,1,.1-.1c-.3-2.8-1.9-5.1-3.1-7.5L39,55.1c-.9-2-1.8-4.1-2.8-6.1s-.8-1.5-1-2.3-.4-.8-.8-1.1a6.1,6.1,0,0,1-.5-1.2c-.6-.6-.7-1.6-1.4-2.2a.5.5,0,0,1-.5-.3,1.7,1.7,0,0,0-.6-.8c.1,0,.1-.1.1-.2s.1-.1.2-.2-.1-.6-.1-.8a1.1,1.1,0,0,1,.7.6c.2.1.1-.1.2-.1a.6.6,0,0,1,.6.4c-.1.5.3.9.4,1.4,1,2.4,2.6,4.6,3.5,7,.4.6.6,1.3,1,1.9a34.5,34.5,0,0,1,1.4,3.4,5.1,5.1,0,0,1,.9,1.8,25.1,25.1,0,0,1,2.4,4.6c.4.8.4,1.9,1.2,2.3A.8.8,0,0,1,43.5,64.2Z" style="fill:#2f2f2f"/><path d="M57.4,7.2c1.4-.6,2.9-.7,4.3-1.6s2.4-1.2,3.6-1.5A7,7,0,0,0,68,2.7c-.1-.2.3-.3.1-.6l.2-.2c-1.2-.6-2.2.1-3.3.2s-1.8,1.1-2.7,1.5-.9.7-1.3.9a36.2,36.2,0,0,1-3.3,2,3.1,3.1,0,0,1-1.1.9c0,.2-.1.3-.2.3S57.1,7.5,57.4,7.2Z" style="fill:#2f2f2f"/><path d="M63.6,14.6l.9-1.4h.1l1.7-3.1c.9-1.4,1.5-2.8,2.4-4.1s1.1-1.6.6-2.6-.2-.4-.4-.4-.6.5-1,.6l-.5.5c-.4.8-1.1,1.6-1.4,2.4a1.8,1.8,0,0,0-.4.9A4.7,4.7,0,0,0,65,8.9c-.4.9-.6,1.8-.9,2.7S63.7,13.6,63.6,14.6Z" style="fill:#2f2f2f"/><path d="M60.7,20.9l3.8-3.4A13.1,13.1,0,0,1,67,15.3c1.6-1.5,3.3-2.9,4.8-4.5s.4-.5.3-.8l-1.8.3-.3.2h-.1a14.3,14.3,0,0,0-2.1,1.2,8.1,8.1,0,0,0-1.6,1.6,35,35,0,0,0-2.4,3,13.7,13.7,0,0,0-1.3,2h.1c-.3.3-.8.5-.9,1h-.1c0,.3-.3.5-.5.8l-.4.7Z" style="fill:#2f2f2f"/><path d="M92,17.2c-1.6-.5-3.2-1.1-4.9-1.5a18.1,18.1,0,0,0-3.1-.9c-2.1-.7-4.3-1.2-6.3-2-.2-.2-.6-.3-.6-.6a8.5,8.5,0,0,1,1.7-.6h.5a8.6,8.6,0,0,1,2.3.2,5.8,5.8,0,0,1,2.2.8l3.4,1.6a8.6,8.6,0,0,1,2,1.3h0c.4.3.9.3,1.3.6h0l.7.5.8.5Z" style="fill:#2f2f2f"/><path d="M75.4,7.7c.4.1.5.6,1,.7l2.9,3,1.5,1.3-.3-.7c-2.3-2.7-3.6-6-6.2-8.5-.2-.4-.7-.4-1-.8a1.3,1.3,0,0,0-.9.2,1.5,1.5,0,0,1-.3.7C72.6,5.3,74.1,6.5,75.4,7.7Z" style="fill:#2f2f2f"/><path d="M68.1,20.1l-.2.5-.5,1.8h0c-.2.7-.1,1.3-.3,2s-.2.4.1.5v.3c.1.2,0,.4,0,.6s-.1.3-.1.5a18.7,18.7,0,0,1,1.6-3.5l1.8-3.7h0a37.7,37.7,0,0,0,2.2-5.9c.5-.9.7-2,1.1-2.9s-.1-.5-.2-.8a1.7,1.7,0,0,0-1.6,1,8.3,8.3,0,0,0-.9,1.6,7,7,0,0,0-1.2,2.8A38.2,38.2,0,0,0,68,20Z" style="fill:#2f2f2f"/><path d="M73.3,14.4a29,29,0,0,0-.1,5.1c0,1-.2,2-.1,3s0,.2.1.3-.1,1.3.1,1.9h.1c.5-2.1.9-4.3,1.3-6.4,0,0,.1,0,0-.1h.1c.5-2.7,1.1-5.5.6-8.1-.1-.1-.1-.3-.2-.3a.4.4,0,0,1-.4.2,3.8,3.8,0,0,0-1.1,2.3A8.5,8.5,0,0,0,73.3,14.4Z" style="fill:#2f2f2f"/><path d="M30.4,39.1a38.1,38.1,0,0,1,4.4,1.5,12.2,12.2,0,0,0,2.4,1,25.3,25.3,0,0,0,2.3,1.2l1.1.7c0-.1-.1-.1-.1-.2s-.1-.1-.2-.1-.1-.2-.2-.2H40a.2.2,0,0,1-.2-.2h-.2c-.1,0-.1-.2-.2-.2h-.1l-.2-.2c-.1.1-.1-.2-.2-.2l-.4-.2h-.1c-.1,0-.1-.2-.2-.2l-.2-.2c-.1,0-.1-.3-.3-.2s-.4-.4-.6-.6-2.5-1.4-3.8-2.1-2.2-.7-3.3-1.1-.6-.1-.8.1-.2,0-.2.1-.1.1,0,.2S29.6,39.1,30.4,39.1Z" style="fill:#2f2f2f"/><path d="M76.2,11.2c0,.4.1.7.1,1.1s.5,1,.5,1.6.7,1.4.9,2.1l.6,1c-.1.4.4.7.3,1s.4,1.3.7,1.8.6.9.6,1.4H80c-.3-1.7-.5-3.3-.7-5a22.9,22.9,0,0,1-.2-2.5,13.5,13.5,0,0,0-1.7-5h-.1l-.4-.2c-.4.7-1,1.3-.9,2A1.1,1.1,0,0,0,76.2,11.2Z" style="fill:#2f2f2f"/><path d="M71.1,21.8c.6-.1,1.1-.5,1.7-.6a22.5,22.5,0,0,1,2.2-.5,15.3,15.3,0,0,1,3.6-.7,10.5,10.5,0,0,0,2.9-1.7l.2-.2c.1-.1,0-.2-.1-.3s-.9-.2-1.4-.4a17.3,17.3,0,0,0-5.7,2.2,11.7,11.7,0,0,0-2.7,1.5C71.6,21.3,71.2,21.5,71.1,21.8Z" style="fill:#2f2f2f"/><path d="M78.3,35.8c.4.1.6-.3.9-.4l4-2.5c.3,0,.5-.4.8-.4s1.8-.6,2.6-1.2a9.4,9.4,0,0,0,2.2-1.2c.2-.1.2-.3.3-.5s-.4-.3-.7-.4a9.2,9.2,0,0,0-5.3,2.1,33.9,33.9,0,0,0-4.5,4C78.6,35.5,78.4,35.6,78.3,35.8Z" style="fill:#2f2f2f"/><path d="M49.8,55.7l.3,1c0,1.1.5,1.9.4,3a6.8,6.8,0,0,1,.2,1.4c0-.2.3-.3.2-.5h0c.3-1.6.1-3.3.3-5s.3-4,.4-6.1a4.1,4.1,0,0,1,0-1.1,27.2,27.2,0,0,0-.4-3c-.2-.2-.2-.6-.6-.7s-.4.4-.5.6-.4,2.6-.8,3.9S49.6,53.5,49.8,55.7Z" style="fill:#2f2f2f"/><path d="M51.9,45c.1.8.4,1.4.5,2.2s.9,1.3,1,2.1a6.9,6.9,0,0,1,.5,1.3c.4,1.1,1.1,2.1,1.6,3.2s.2.5.4.8,1.2,2.8,1.9,4.1.8,1.4,1.1,2-.3-.9-.3-1.5l-.9-3c-.3-1.2-.7-2.4-.9-3.6s-.2-.9-.4-1.3A26.6,26.6,0,0,0,54.3,46a8.3,8.3,0,0,0-1.5-2.3c-.2-.2-.4-.6-.8-.5s-.1.3-.3.3v1Z" style="fill:#2f2f2f"/><path d="M56.1,47.1c.2.2.4.5.7.5a19.4,19.4,0,0,0,2.4,1.5c1.5.6,2.8,1.5,4.2,2.2h.4c-1.1-1.3-2.3-2.2-3.4-3.4a17.4,17.4,0,0,0-2.5-2.3,6.2,6.2,0,0,0-1.7-1.1c-.3-.1-.5-.4-.8-.3l-.2-.3c0,.1-.1.1-.1.3s-.4,0-.5.2A2.5,2.5,0,0,0,56.1,47.1Z" style="fill:#2f2f2f"/><path d="M48.8,48.2a6.7,6.7,0,0,1-.9,1.4c-.2,1-1.1,1.5-1.5,2.5s-.4.9-.9,1.3-.8,1.6-1.2,2.3-.8.9-1,1.4a4.5,4.5,0,0,1-1,1.4,4,4,0,0,0,.4-1.3c1.7-3.9,2.7-8.1,5.1-11.7.7-.5.6-1.5,1.4-1.6h.2c.3.9.7,2.2,0,3.1Z" style="fill:#2f2f2f"/><path d="M70.5,62l1.5.7c.7.7,1.7.6,2.5,1.3s.9.5,1.5.6,1.5.9,2.3,1.2,1.1.4,1.6.7a6.7,6.7,0,0,0,1.5.6,3.5,3.5,0,0,1-1-.8c-3.5-2.4-6.6-5.5-10.5-7.1-.8-.1-1.3-.9-2.1-.6h-.1c.2,1,.6,2.3,1.7,2.7Z" style="fill:#2f2f2f"/><path d="M52,58.3a34,34,0,0,0-3,1.8c-.6.2-1.1.9-1.8,1a4.3,4.3,0,0,1-2.1.9c-.5.3-1.1.3-1.4.8a1.4,1.4,0,0,0-1,.5c-.9,0-1.5,1-2.5,1,1.1-.7,2-1.6,3.1-2.3s2.5-1.8,3.6-2.9,3.8-2.9,6-3.5c.4,0,.6-.1.9.1a2.2,2.2,0,0,1-.8,1.9c-.2.1-.3.3-.6.4Z" style="fill:#2f2f2f"/><path d="M53.6,67.7c1.7-1.4,3.8-2.3,5.5-3.8s2.3-1.9,3.5-2.8.6-1.1,1-1.5.1-.3-.1-.4h.1c-.9-.6-2,.4-2.8.8L58.3,62a10,10,0,0,1-1.4,1.5,14,14,0,0,0-3,3.8C53.8,67.5,53.6,67.6,53.6,67.7Z" style="fill:#2f2f2f"/><path d="M67.3,63a19,19,0,0,0,2.8,2.9,13.6,13.6,0,0,0,3,3.3,2.4,2.4,0,0,0,.6.8c-1.1-1.7-1.2-3.9-2.5-5.6s-.8-.9-.9-1.6a34.4,34.4,0,0,0-2.7-2.7,1.4,1.4,0,0,0-1.5-.6c-.3.1-.4.5-.5.8A3.7,3.7,0,0,0,67.3,63Z" style="fill:#2f2f2f"/><path d="M64.3,63.3c.4,1.6.5,3.3.9,4.9s.3,2.1.4,3.2.1.6.2.9.1.5.2.7a.2.2,0,0,0,.2-.2,31.4,31.4,0,0,0,.2-8.1h.1c-.1-.2,0-.4,0-.7a13.9,13.9,0,0,1-.4-3.5c-.2-.8-.1-1.6-.7-2.1H65a3.5,3.5,0,0,0-.8,1.6C64.3,61,64.3,62.2,64.3,63.3Z" style="fill:#2f2f2f"/><path d="M49.3,67.2c.9-1.5,1.7-3,2.7-4.4A22,22,0,0,1,53.8,60a52.8,52.8,0,0,0,3.5-5.6c0-.3.3-.6,0-.9l-1.7.8c0,.1,0,.2-.1.2h-.2a12.5,12.5,0,0,0-1.6,1.7,9.9,9.9,0,0,0-1.1,2A39.2,39.2,0,0,0,51,61.9a14.2,14.2,0,0,0-.7,2.2h.1c-.1.4-.6.8-.6,1.3h-.1c.1.2-.1.5-.2.8a2.9,2.9,0,0,0-.2.9Z" style="fill:#2f2f2f"/><path d="M54,66a.6.6,0,0,1,0,.6l-.3,1.9h.1c-.1.7.1,1.3,0,2s-.1.4.1.5v.3c.1.1.1.4.1.6s-.1.3,0,.5a23.6,23.6,0,0,1,1-3.8l1.2-3.9h-.1a31,31,0,0,0,1.3-6.2c.3-.9.3-2,.6-3s-.2-.5-.3-.8A2.2,2.2,0,0,0,56.2,56a8.5,8.5,0,0,0-.6,1.7,10.1,10.1,0,0,0-.7,3c-.6,1.6-.6,3.6-.9,5.3Z" style="fill:#2f2f2f"/><path d="M59.1,58a28,28,0,0,0,1.2,5c.3.9.4,1.9.7,2.8s.1.3.3.4.2,1.2.5,1.8h.1c0-2.3-.3-4.4-.5-6.6.1,0,.1,0,.1-.1h0a23.3,23.3,0,0,0-1.6-8l-.3-.2c0,.2-.2.2-.4.3a4.3,4.3,0,0,0-.3,2.5A7.8,7.8,0,0,0,59.1,58Z" style="fill:#2f2f2f"/><path d="M45.3,44l-.9.5c-.6.1-.9.7-1.5.9s-1.1,1-1.7,1.5a3,3,0,0,1-.8.8c-.4,0-.5.6-.9.6s-1,.7-1.5,1.2-.6.8-1.1,1h0c1.5-.7,3.1-1.3,4.6-2.1s1.5-.7,2.3-.9a13.4,13.4,0,0,0,4.3-3s-.1-.1,0-.1v-.5c-.7-.2-1.4-.6-2.1-.3S45.5,43.9,45.3,44Z" style="fill:#2f2f2f"/><path d="M62.5,56l.9.5c.4.3,1.1.2,1.5.6l2.3.6h1.1c.2.3.7.1.9.4a18,18,0,0,0,1.9.5c.5.2,1,.1,1.5.4h0l-4.4-2.5c-.6-.6-1.4-.8-2-1.4s-3-1.7-5-1.8a.1.1,0,0,1-.1.1l-.4.2a4.7,4.7,0,0,0,1,2C61.9,55.9,62.2,55.9,62.5,56Z" style="fill:#2f2f2f"/><path d="M108.2,17.6c1,.4,2,1.2,3,1.7s1.1,1,1.8,1.1a7.8,7.8,0,0,0,2.1.9c.5.3,1.1.3,1.4.7a3.1,3.1,0,0,1,1,.5c.9.1,1.5,1.1,2.5,1.1-1.1-.7-2-1.6-3.1-2.3s-2.4-1.8-3.6-2.9-3.8-2.9-6-3.6c-.3.1-.6-.1-.9.1a2.3,2.3,0,0,0,.8,2c.2.1.3.3.6.3Z" style="fill:#2f2f2f"/><path d="M110.9,26.4c-.9-1.4-1.7-2.9-2.7-4.3a16.7,16.7,0,0,0-1.8-2.8c-1.2-1.9-2.5-3.7-3.5-5.6,0-.3-.2-.6,0-.9a6.5,6.5,0,0,1,1.7.8v.2h.2a12.5,12.5,0,0,1,1.6,1.7,7.8,7.8,0,0,1,1.1,2c.5,1.2,1.2,2.3,1.6,3.5a20.2,20.2,0,0,1,.7,2.3h-.1c.2.5.6.8.6,1.3h.1c-.1.3.1.6.2.9l.3.8Z" style="fill:#2f2f2f"/><path d="M106.2,25.3a.6.6,0,0,0,0,.6l.3,1.9h-.1c.2.7-.1,1.2,0,1.9s.1.4-.1.5v.4a.4.4,0,0,0,0,.5c-.2.1,0,.4-.1.5a25.4,25.4,0,0,0-1-3.7L104,24h.1a30,30,0,0,1-1.3-6.1c-.3-.9-.3-2.1-.6-3s.2-.5.3-.8a1.7,1.7,0,0,1,1.5,1.2,9.5,9.5,0,0,1,.6,1.8,9.5,9.5,0,0,1,.7,2.9,32,32,0,0,1,.9,5.4Z" style="fill:#2f2f2f"/><path d="M101.1,17.2a24.4,24.4,0,0,1-1.2,5c-.3,1-.4,2-.7,2.9s-.1.2-.2.3-.3,1.3-.6,1.8h-.1c.1-2.2.3-4.4.5-6.5h-.1c.3-2.8.5-5.6,1.6-8l.3-.3c0,.2.2.3.4.3a4.6,4.6,0,0,1,.3,2.6A4.9,4.9,0,0,1,101.1,17.2Z" style="fill:#2f2f2f"/><path d="M97.7,15.2l-.9.6c-.4.3-1,.2-1.5.6a15.5,15.5,0,0,1-2.3.5l-1.1.2c-.2.3-.7.1-.9.4a18,18,0,0,1-1.9.5c-.5.2-1,.1-1.4.4h-.1L92,15.8a22.6,22.6,0,0,1,2-1.3c1.6-.8,3-1.7,5-1.8h.1l.4.3c-.3.7-.4,1.5-1,1.9S98,15.1,97.7,15.2Z" style="fill:#2f2f2f"/><path d="M86.2,41.8c0-.3.2-.4.3-.6a4.4,4.4,0,0,1,.8-2c.1-.6.5-1.1.6-1.7s1.3-2.6,1.9-3.9a11.4,11.4,0,0,1,2.1-2.8,8.1,8.1,0,0,1,1.2-1.4V29a.2.2,0,0,0-.3,0c-.3-.1-.5-.3-.8-.2h-.5a6.2,6.2,0,0,0-1.8,1.8c-.3.3-.6.4-.6.7a5,5,0,0,0-1.3,2.2,5.2,5.2,0,0,1-.6,1.6c0,.9-.5,1.7-.5,2.6a11.3,11.3,0,0,0-.5,3.2A2.1,2.1,0,0,0,86.2,41.8Z" style="fill:#2f2f2f"/><path d="M77.3,30.7c.2-1.1,1-1.9,1.3-3a2,2,0,0,0,.4-.8c1.1-1.9,1.5-4.2,2.7-6.1s.5-.8.6-1.3-.4-.5-.1-.9-.4-.1-.6-.1a9.9,9.9,0,0,0-2.5,2.9c-.5,1.2-.8,2.4-1.2,3.6s-.2,2-.2,3.1S77.5,29.8,77.3,30.7Z" style="fill:#2f2f2f"/><path d="M0,38.6c.1.1.3,0,.4,0H.8c1.2-.7,2.6-1.1,3.7-1.8s2.4-.7,3.3-1.3a6.6,6.6,0,0,0,2.1-.8c0-.3.4-.4.5-.7s-.3-.4-.3-.7H10c-.7.1-1.5-.1-2.1.2l-2.2.8a33,33,0,0,0-3,2.2c-.1.2-.3.1-.5.3a4.3,4.3,0,0,1-1,.9l-1,.9C.1,38.5,0,38.5,0,38.6Z" style="fill:#2f2f2f"/><path d="M81.7,31.5h0v.6l.2-.9.2-.2a22.9,22.9,0,0,1,1.1-5.2c.2-2.3.9-4.4.8-6.8.1-.7.4-1.6-.2-2.1s-.3-.1-.3-.3a17,17,0,0,1-1,1.4c-.1.7-.6,1.3-.5,2s-.3,2.3-.2,3.4.2,2.6,0,3.8S81.7,30.1,81.7,31.5Z" style="fill:#2f2f2f"/><path d="M91.4,42.8c.2-.3.1-.7.2-1s.8-2.9,1.1-4.4a20.2,20.2,0,0,0,1.2-4.2c.1-1.4.4-2.6.4-4.1s-.3-.6-.2-.9-.3-.1-.4-.3-.9.2-.9.8l-.3,2c-.2.5-.1,1.1-.3,1.6a11,11,0,0,0-.2,1.8,31.9,31.9,0,0,0-.5,5.4,6.1,6.1,0,0,0-.1,1.4h0Z" style="fill:#2f2f2f"/><path d="M84.9,19.2c.2,1.4,1.4,2.3,1.8,3.7a2.9,2.9,0,0,0,.7,1.2,4.5,4.5,0,0,0,.6,1.2A5.7,5.7,0,0,1,89.3,28c.3.2.2.6.4.8s.1.4.3.5a22.8,22.8,0,0,0-.2-2.6h.1a19.5,19.5,0,0,0-1.6-5.2c-.1-.6-.5-1.2-.6-1.9a16.3,16.3,0,0,0-1.1-2.3c-.5-.3-.7-1-1.3-.9l-.2.2a8.8,8.8,0,0,0-.5,1.5C84.6,18.5,84.9,18.8,84.9,19.2Z" style="fill:#2f2f2f"/><path d="M95.8,33.3a8,8,0,0,0,1.1,2.5l1.2,3.6c.4.6.5,1.4.9,1.9a28.8,28.8,0,0,0,1.3,3.1c-.1-.8-.4-1.6-.5-2.4s-.8-3.2-.9-4.8-.4-2.7-.8-4-.1-.2,0-.3a12.7,12.7,0,0,0-2-5.1c-.3-.2-.4-.7-.8-.5s-.5.2-.5.6a1.5,1.5,0,0,0-.2,1.3c.3.9.5,1.8.8,2.7A5.7,5.7,0,0,0,95.8,33.3Z" style="fill:#2f2f2f"/><path d="M97.4,29a.8.8,0,0,1,.4.4h0c.2,0,.1.3.2.3s.1.3.2.4.2.2.3.3h.2v.2c.1-.1.1-.1.2,0h0c.1,0,.2.3.4.2s.2.1.3.3c1.9,1.4,4.3,2.1,6.3,3.5s1.5.8,2,1.4,1.2,1.1,2.1,1.2-1.2-1.5-1.8-2.3-.9-1-1.5-1.4-1.4-1.2-1.8-2-3.3-2.2-4.9-3.4a7.8,7.8,0,0,0-2.4-.9c-.3.1,0,.5-.3.5S97.4,28.6,97.4,29Z" style="fill:#2f2f2f"/><path d="M43.5,31.3a13.8,13.8,0,0,0,3,1.4c1,.6,2.3,1,3.3,1.6s.1.1.2.1.6,0,.8.3.4.1.5.3l.5.2c.2.1.4-.2.5.1l.4.2a23.5,23.5,0,0,0-3.3-3c-.9-.7-1.9-1.2-2.9-1.9l-.5-.3c-1.7-.6-3.3-1.7-5.1-1.5-.1,0,0,.1-.1.2A4.7,4.7,0,0,0,43.5,31.3Z" style="fill:#2f2f2f"/><path d="M88.7,19.1c.5.1.9.7,1.5.7s1,.4,1.4.7.6.3.9.4,1.3,1,2.1,1.2a7.6,7.6,0,0,1,2.2,1.8,1.8,1.8,0,0,0-.6-.9A13.4,13.4,0,0,0,92,19.3c-.9-.9-2.1-.9-3.1-1.4s-.8-.3-1.1.1S88.2,18.8,88.7,19.1Z" style="fill:#2f2f2f"/><path d="M35.1,47.7A12.5,12.5,0,0,1,33.9,46a2.6,2.6,0,0,1-.7-1c-.6-1.1-1.7-1.8-2.4-2.9A27,27,0,0,0,28,39a12.4,12.4,0,0,1-1.4-1.8.4.4,0,0,0-.1-.3,2,2,0,0,1,1.3-.2l1.6,1c.5.2.6.7.9,1a7.6,7.6,0,0,1,.8,1.1,21.3,21.3,0,0,1,1.6,2.5,14,14,0,0,0,.9,1.7c.4.6.5,1.4.9,1.9S35.1,47,35.1,47.7Z" style="fill:#2f2f2f"/><path d="M58.9,32.4c.5-.4,1.3-.6,1.8-1.2l1-.6c1-.7,2.3-1,3.3-1.8a21.9,21.9,0,0,1,3.8-1.7A11.8,11.8,0,0,0,70.7,26c.1-.1.1-.3.2-.3s-.8-.5-1.1-.7l-1.8.4a2.9,2.9,0,0,0-1.3.5l-1.1.7a20.7,20.7,0,0,0-2.4,1.7c-.4.5-1,.8-1.5,1.3s-.9,1-1.5,1.4S59.2,31.7,58.9,32.4Z" style="fill:#2f2f2f"/><path d="M30.6,53.4l-1.2-2.5c-.3-1.1-1.1-2-1.4-3.1s-2-5-2.4-7.8a5.3,5.3,0,0,1,.2-2.2.2.2,0,0,1,.4-.1c.5.5,1.3.7,1.3,1.5s.7,2,1,3,.3,1,.3,1.5.1,1.2.4,1.7.3,1,.3,1.6.1,1.1.4,1.5.4,1.9.5,2.8-.1.8.1,1.1S30.7,53.1,30.6,53.4Z" style="fill:#2f2f2f"/><path d="M72.6,16.6a24.3,24.3,0,0,1,0-2.7c-.2-1.1.2-2.3.1-3.4-.3-2.7-.2-5.4-1-8.1a6.3,6.3,0,0,0-1-2,.4.4,0,0,0-.5.1c-.2.6-.9,1.2-.5,1.9a30.3,30.3,0,0,0,.2,3.1,12.4,12.4,0,0,1,.4,1.6c0,.5.3,1.1.3,1.6s.1,1.1.3,1.6.4,1.1.3,1.6.4,1.8.7,2.8.3.6.4,1S72.3,16.4,72.6,16.6Z" style="fill:#2f2f2f"/><path d="M20.9,46.1c-.4-.5-.4-1.2-.8-1.8a20.5,20.5,0,0,0-1.3-3.1c-.2-.3-.3-.7-.5-1a54.5,54.5,0,0,0-2.9-5.3,2.7,2.7,0,0,1-.2-1.2c.8-.4,1.4.4,2,.8A5.3,5.3,0,0,1,19,37.3a10.6,10.6,0,0,1,.9,3.6,8.6,8.6,0,0,1,.3,1.7,11.7,11.7,0,0,1,.5,2.7C20.8,45.6,20.8,45.8,20.9,46.1Z" style="fill:#2f2f2f"/><path d="M24.7,41.7a18.5,18.5,0,0,1-.4,2.3,18.9,18.9,0,0,0-.5,2.3,9,9,0,0,0-.3,1.6c0,1.3-.7,2.2-.8,3.4s-.4,1.8-.7,2.6a1.2,1.2,0,0,1-.3.9c-.1-2.5,0-5,.1-7.6s.1-3.5.4-5.2a23.6,23.6,0,0,1,.3-2.9,6.7,6.7,0,0,1,1-3.2c.3,0,.5-.4.8-.5a.4.4,0,0,1,.1-.3c.4.2.8.5.8.9a2.4,2.4,0,0,0,.1,1.2A22.2,22.2,0,0,1,24.7,41.7Z" style="fill:#2f2f2f"/><path d="M21.9,37.1c-.5.5-.7,1.1-1.2,1.5s-.7.7-.8,1.1-2.1,2.4-3.3,3.7a2.2,2.2,0,0,0-.6.7c-.8.5-.9,1.4-1.7,2a8.1,8.1,0,0,1-1.6,1.6c.9-1.3,1.3-2.6,2.2-3.8A50.8,50.8,0,0,1,18.4,38h0a7.7,7.7,0,0,1,3.1-2.6c.3-.1.2.3.3.4S22,36.7,21.9,37.1Z" style="fill:#2f2f2f"/><path d="M65.3,37.3c.2-.6.8-1.2,1-1.9a3.1,3.1,0,0,0,.5-1c.5-1.2,1.5-2.1,2-3.2a28,28,0,0,1,2.5-3.5,11.8,11.8,0,0,0,1.1-1.9.4.4,0,0,1,.1-.3c-.4-.3-1-.1-1.4-.1a16.6,16.6,0,0,0-1.4,1.3c-.4.2-.5.7-.8,1.1l-.6,1.1A16.6,16.6,0,0,0,67,31.6c-.1.7-.5,1.2-.6,1.8s-.4,1.4-.7,2S65.2,36.6,65.3,37.3Z" style="fill:#2f2f2f"/><path d="M68.5,42.8a18.9,18.9,0,0,1,1.1-2.5c.3-1.1,1.1-2,1.4-3.1.9-2.6,2.1-5.1,2.4-7.8a5.8,5.8,0,0,0-.2-2.3c-.1-.2-.3-.1-.4,0s-1.3.7-1.3,1.5a24.7,24.7,0,0,0-1,2.9c0,.6-.3,1-.3,1.6s-.1,1.1-.4,1.6-.3,1.1-.3,1.6-.1,1.1-.4,1.6a23.6,23.6,0,0,0-.4,2.8c-.2.3,0,.7-.1,1.1S68.3,42.4,68.5,42.8Z" style="fill:#2f2f2f"/><path d="M74.3,31.1a9.5,9.5,0,0,0,.5,2.3c.1.7.3,1.4.4,2.2s.2,1.1.4,1.7.6,2.2.7,3.4.4,1.7.7,2.5a1.7,1.7,0,0,0,.3,1c.1-2.6,0-5.1-.1-7.6s-.1-3.5-.3-5.3,0-2-.4-2.9a9,9,0,0,0-.9-3.2c-.4,0-.6-.4-.8-.5l-.2-.2c-.3.2-.8.5-.8.9a2.1,2.1,0,0,1-.1,1.1A22.2,22.2,0,0,0,74.3,31.1Z" style="fill:#2f2f2f"/><path d="M77.2,26.5c.4.5.6,1.1,1.1,1.4s.7.7.8,1.2,2.1,2.4,3.3,3.6l.6.7c.8.6,1,1.5,1.7,2.1A5.7,5.7,0,0,0,86.3,37c-.9-1.2-1.3-2.5-2.2-3.7a43.6,43.6,0,0,0-3.5-5.9h0a8.6,8.6,0,0,0-3.1-2.6c-.3,0-.1.3-.3.5S77,26.1,77.2,26.5Z" style="fill:#2f2f2f"/><path d="M20.4,31.3c.5-.4,1.3-.5,1.9-.9l1.1-.5c1.1-.6,2.4-.7,3.5-1.3a26.2,26.2,0,0,1,4-1.1,13.1,13.1,0,0,0,2.1-.8c.1-.1.1-.3.3-.3s-.8-.6-1.1-.8H30.4a5,5,0,0,0-1.3.4l-1.2.5a13.4,13.4,0,0,0-2.7,1.3c-.4.5-1.1.7-1.6,1.1s-1.1.9-1.8,1.1S20.8,30.6,20.4,31.3Z" style="fill:#2f2f2f"/><path d="M25.3,38.1c.3-.6,1-1,1.2-1.7a4.4,4.4,0,0,0,.8-1c.6-1,1.7-1.8,2.4-2.8a28.1,28.1,0,0,1,2.9-3.1A11.5,11.5,0,0,0,34,27.8c0-.1,0-.3.1-.3s-.9-.2-1.3-.3l-1.6,1c-.5.2-.6.7-.9,1a7.6,7.6,0,0,0-.8,1.1,13.1,13.1,0,0,0-1.7,2.4,9.1,9.1,0,0,1-.9,1.7c-.4.6-.5,1.4-.9,1.9S25.4,37.4,25.3,38.1Z" style="fill:#2f2f2f"/><path d="M28.4,41.7l1.5-2.3c.4-1,1.4-1.8,1.9-2.8s2.7-4.7,3.5-7.4a5.5,5.5,0,0,0,.1-2.2c0-.2-.3-.2-.4-.2s-1.4.6-1.5,1.3-1,1.9-1.4,2.8-.5.9-.6,1.5-.2,1.1-.6,1.5-.4,1-.5,1.6-.3,1.1-.6,1.5a21.4,21.4,0,0,0-.9,2.7c-.2.2-.1.7-.2,1S28.3,41.3,28.4,41.7Z" style="fill:#2f2f2f"/><path d="M36.1,31.6a10.8,10.8,0,0,0,.3,1.9c.1.6.3,1.2.4,1.8a3,3,0,0,1,.2,1.3c0,1,.6,1.8.6,2.7s.4,1.4.6,2.1a1.4,1.4,0,0,0,.2.7c.1-2,0-4,0-6s-.1-2.8-.3-4.3a18.1,18.1,0,0,0-.3-2.3A5.3,5.3,0,0,0,37,27c-.2,0-.4-.3-.6-.4s0-.2-.1-.2a.9.9,0,0,0-.6.7c-.1.3,0,.6-.1.9A10.5,10.5,0,0,0,36.1,31.6Z" style="fill:#2f2f2f"/><path d="M38.2,30.3c.4.4.6,1.1,1.1,1.4s.7.7.8,1.1,2.1,2.5,3.3,3.7a2.2,2.2,0,0,1,.6.7c.8.6,1,1.5,1.7,2a4.9,4.9,0,0,0,1.6,1.6c-.9-1.3-1.3-2.5-2.2-3.8a50.8,50.8,0,0,0-3.5-5.9h0a7.7,7.7,0,0,0-3.1-2.6c-.3-.1-.1.3-.3.4S38,29.8,38.2,30.3Z" style="fill:#2f2f2f"/><path d="M13.9,38.5a10.2,10.2,0,0,1-.9,3.1,16.8,16.8,0,0,1-.7,2.4,8.3,8.3,0,0,1-.8,2.2h0c-.1-.1,0-.2,0-.3a7.6,7.6,0,0,0,.1-1.5h0c.4-2.2-.1-4.4.5-6.4a28,28,0,0,1,1.2-5c0-.2.2-.4.3-.6s.5,0,.5.3.3.6.3,1S13.9,36.8,13.9,38.5Z" style="fill:#2f2f2f"/><path d="M12.7,35.2a3.5,3.5,0,0,1-.3,1.1c-.4.1-.1.8-.5.8h-.1c0,.2-.2.3-.2.4l-.4.5h-.1c-.1,0-.1.2-.2.3l-.5.4h0c-.1,0-.1.1-.1.2s-.1.1-.2.2h0c-.1.4-.6.6-.7.9s-.4.1-.3.3-.1.4-.3.3A5,5,0,0,0,8,42.3c-.6.3-.8,1.1-1.4,1.6s-.3.5-.5.7S4.7,46.4,4,47.5c.1-.7.6-1.2.7-1.8s1.9-3.6,2.6-5.5S8.2,38,9,37.1a21.4,21.4,0,0,1,1.3-1.9.3.3,0,0,0,.1-.2,4.3,4.3,0,0,1,1.9-1.4c.3.1.5.2.5.5S12.6,34.8,12.7,35.2Z" style="fill:#2f2f2f"/><path d="M72.9,1c.1.1.4.2.3.4a.9.9,0,0,1,.6.4c.4-.1.3.5.7.4s.3.2.4.3.2.2.3.2.4.3.6.3.6.3.9.6.5,0,.6.4h.2A6,6,0,0,1,80,5.3c.5.1.8.5,1.3.6a3.1,3.1,0,0,0,1.3.6c-1.3-.9-2.5-2.2-3.7-3.2S75.4.2,73,0c.1.2-.1.2-.2.2s-.2.6.1.6Z" style="fill:#2f2f2f"/><path d="M64.8,98.6a.5.5,0,0,1,.1-.3C64.9,98.4,64.8,98.5,64.8,98.6Z" style="fill:#2f2f2f"/><path d="M64.7,99.3V99C64.8,99.1,64.7,99.2,64.7,99.3Z" style="fill:#2f2f2f"/><path d="M64.6,107.3v0Z" style="fill:#2f2f2f"/><path d="M68.4,92.1a1,1,0,0,0-.4.7h.1l-.3.4c0-.1,0-.1.1-.1h-.1c-.4.6-.3,1.3-.6,1.9a1.4,1.4,0,0,1-.2.6c-.1.6-.3,1.2-.4,1.8s0,.4-.1.6-.3.5-.2.7-.3,1.4-.6,2.1,0,.5-.2.6,0,.3-.1.4h0c.1.4-.1.7-.1,1s-.2,1.6-.5,2.4a16.2,16.2,0,0,1-.3,2c.1.2-.2.4-.1.7h0v-.2a18,18,0,0,0-.2,2.2c-.1.3,0,.7-.1,1l-.6.2c-.1.2.3.7-.2.7s-.2.1-.4.1h-.1c-.2-.1-.4,0-.5-.2v-.3c-.2-.1-.5.1-.6-.1h-.5c-.1-.1.1-.2.1-.3a.1.1,0,0,0,.1-.1c-.1-.2-.4,0-.4-.2s.5-.6.8-.9a.9.9,0,0,0,.1-.5,2.8,2.8,0,0,0,.1-.9h.2c.1-.2,0-.4.2-.6a.2.2,0,0,0,.2.2V108a14.2,14.2,0,0,0,.4-2h.1c.1,0,.1-.1.1-.2s.2-.3.1-.4a3.8,3.8,0,0,0,.3-1c.1-.2,0-.4.2-.6a1.9,1.9,0,0,1,.2-.7h.2a4.1,4.1,0,0,1,.2-1.9.7.7,0,0,0,.1-.5c.2.1.1.4.1.6h0a1.4,1.4,0,0,0,.2-.6,4.3,4.3,0,0,1,.1-.5,8.9,8.9,0,0,0,.3-1.4h0a6.1,6.1,0,0,0-.3,1.1c-.1.3-.1.6-.2.8s0-.2-.1-.4a5.3,5.3,0,0,0,.3-1.2l.3-1.1c-.1-.2.1-.3.1-.5s.1-.3,0-.5.1-.1.2-.2.1-.2,0-.3,0-.7.3-1,.1-.4.1-.6.1-.1.1-.2,0-.1,0-.2-.1-.3.1-.3,0-.7.2-1v-.4c0-.1-.2,0-.3-.1h-.4v-.2c.3-.5.4-.9.7-1.3s.1-.2.2-.1,0,.3.2.4H67c.1.1,0,.1,0,.1h.3c.1-.2.4-.2.6-.3s.3-.2.5-.2h.1c0,.2-.2.2-.3.3S68.9,92,68.4,92.1Z" style="fill:#2f2f2f"/><path d="M65.9,94.5h-.1a.6.6,0,0,1,.1-.4C65.9,94.2,65.8,94.3,65.9,94.5Z" style="fill:#2f2f2f"/><path d="M65.7,93.5c-.1-.1,0-.1,0-.2Z" style="fill:#2f2f2f"/><path d="M65.6,94a.3.3,0,0,1,0-.4C65.7,93.7,65.6,93.9,65.6,94Z" style="fill:#2f2f2f"/><path d="M65.3,96.4a4.2,4.2,0,0,1,.4-1.5h0C65.5,95.4,65.5,96,65.3,96.4Z" style="fill:#2f2f2f"/><polygon points="65.2 97.1 65.2 96.9 65.2 97.1 65.2 97.1" style="fill:#2f2f2f"/><path d="M65,97.7a1.1,1.1,0,0,0,.1-.5A.9.9,0,0,1,65,97.7Z" style="fill:#2f2f2f"/><path d="M64.9,98.1c.1-.1,0-.3.1-.3A.4.4,0,0,1,64.9,98.1Z" style="fill:#2f2f2f"/><path d="M63.9,102.8c-.1-.2.1-.4,0-.6S63.9,102.6,63.9,102.8Z" style="fill:#2f2f2f"/><path d="M63.5,102.3v-.2C63.5,102.2,63.6,102.3,63.5,102.3Z" style="fill:#2f2f2f"/><path d="M64.7,107.1v0Z" style="fill:#2f2f2f"/><path d="M63.3,103.6h-.1v-.2C63.2,103.5,63.3,103.5,63.3,103.6Z" style="fill:#2f2f2f"/><path d="M62.9,104.9c0-.1.1-.2.1-.3Z" style="fill:#2f2f2f"/><polygon points="62.8 105.3 62.9 105.1 62.9 105.2 62.8 105.3" style="fill:#2f2f2f"/><path d="M62.6,106.3c.1-.2,0-.4.1-.5S62.7,106.1,62.6,106.3Z" style="fill:#2f2f2f"/><path d="M62.5,107.1a.9.9,0,0,1,.1-.7C62.6,106.6,62.5,106.9,62.5,107.1Z" style="fill:#2f2f2f"/><path d="M62.4,107.5v-.2C62.5,107.3,62.4,107.4,62.4,107.5Z" style="fill:#2f2f2f"/><path d="M76,71.2a10.4,10.4,0,0,0-1.2,1.7h0c.1-.4.3-.7.4-1.1h0c-.4.2-.6.8-.8,1.2s-.1.4-.3.4a4.5,4.5,0,0,1-.3,1.1c0,.2-.2.3-.2.5s-.2.2-.1.4-.2.2-.2.4h-.1c0-.3.2-.5.2-.7s.1-.3.2-.4h0c.2-.3.2-.8.4-1.1s.3-.4.3-.7,0-.4.2-.6l.6-.9h-.2A9.3,9.3,0,0,0,73.7,74l-.2.2a5.6,5.6,0,0,1-.4,1.2c-.1.5-.5,1-.6,1.6a9.4,9.4,0,0,0-1,2.3,11.5,11.5,0,0,0-.6,1.7c-.2.1-.1.3-.2.4s-.2,1-.4,1.5a2.9,2.9,0,0,1-.2.9c0,.1-.1.1,0,.2s.1-.3.2-.4.3-.6.2-1a.5.5,0,0,0,.2-.4c0-.4.3-.6.3-1s.1-.6.3-.8.1-.4.3-.4a1.4,1.4,0,0,1-.2.6c-.4.9-.7,1.9-1,2.8s-.1.4-.2.6-.1.7-.2,1.1-.3,1-.4,1.6-.1.1-.1.2h0l.6-1.5a26.7,26.7,0,0,0,.9-2.6c.1-.2.1-.4.2-.6a6.5,6.5,0,0,1-.4,1.3l-.6,2-.3.9a11.3,11.3,0,0,1-.8,2.4c0,.1,0,.2.1.2h0c.3.2,0,.5.1.7h-.5c-.1.1,0,.1-.1.2h-.1c-.1,0-.1.2-.2.3s-.2.5-.4.4h-.4c-.1-.2.3-.1.1-.3s-.5,0-.8,0h-.1v-.5H67s0,.3.1.2a19.2,19.2,0,0,0,1.4-3.3V86s0,.2.1.1a1.4,1.4,0,0,1,.2-.6c-.1-.3.2-.6.2-.9s.2-.4.4-.6.1-.3.1-.5.1-.3.2-.5l.4-1.2c.1,0,0-.2.2-.3s0-.3,0-.4,0-.5.3-.6v-.2h0v-.4l.2-.5h0v.2h0c.1,0,0,.1,0,.1h0a2.1,2.1,0,0,0,.4-1,6.1,6.1,0,0,0,.5-1.2h-.1c.1.2-.3.2-.1.4h-.1c-.1-.1,0-.3,0-.4L72,77c.1.1.1-.1.1-.2s.2-.5.2-.7h.1c.2-.1.1-.2.1-.4h.1c0-.1.1-.2.1-.4a.6.6,0,0,1,.2-.5c-.1,0,0-.1,0-.1v-.5h.1c.2-.1,0-.3.1-.5h.1c.1-.1.1-.2.1-.4s0-.2.1-.2h.1a.1.1,0,0,0,0-.2V73c.1-.1.2.1.2-.1s-.1-.1,0-.1h0a.4.4,0,0,0-.1-.3h0c0-.4.2-.6.4-1a1.1,1.1,0,0,1,.3-.7c.1-.3-.3-.4-.1-.6s.1-.2.2-.3h.1c.1,0,0-.1,0-.1h.1c.1-.1,0-.2,0-.3s.3.3.4,0,.4-.1.4.2h.1s-.1.1,0,.1h.2c-.1.3.3.1.2.4s.4.5,0,.8h.2C76.5,71.1,76.1,71.2,76,71.2Z" style="fill:#2f2f2f"/><path d="M73.6,72a.4.4,0,0,1,.1-.3Z" style="fill:#2f2f2f"/><path d="M73.6,72.8h0Z" style="fill:#2f2f2f"/><path d="M73.6,76.1h-.1v0Z" style="fill:#2f2f2f"/><polygon points="73.4 76.5 73.4 76.3 73.4 76.5 73.4 76.5" style="fill:#2f2f2f"/><path d="M72.7,77.3v.2a3.9,3.9,0,0,1-.6,1.3c.1,0,0-.2,0-.3a11.9,11.9,0,0,1,.8-1.6l.3-.8v0C73.1,76.6,72.8,76.9,72.7,77.3Z" style="fill:#2f2f2f"/><polygon points="73.1 77.3 73.2 77.1 73.1 77.3 73.1 77.3" style="fill:#2f2f2f"/><path d="M71.7,76.8v0Z" style="fill:#2f2f2f"/><path d="M71.6,79.9h0a.8.8,0,0,1,.3-.8c-.1-.1,0-.1,0-.2s.1.1,0,.2l-.3.7Z" style="fill:#2f2f2f"/><path d="M71.5,78.5h0v.2a.3.3,0,0,1,0-.4c.1-.1,0,0,.1,0Z" style="fill:#2f2f2f"/><path d="M63.5,113.8c-.3,0-.4.4-.5.7h-.1v.3c.1.3-.3.5-.1.8s-.1.7-.2,1-.1.1,0,.2h-.1c-.1.1,0,.1.1.2s-.1.5-.1.8-.1.3-.2.5-.1.2-.1.4,0,.3,0,.4,0,.5-.2.7h0a2,2,0,0,0-.1.7h-.1c0,.2.1.4-.1.6s0,.4,0,.6-.1.3,0,.5-.2.5-.2.7,0,.1,0,.2a.1.1,0,0,0-.1.1c0,.5-.1,1-.1,1.4a1.3,1.3,0,0,1-.1.6v.7a14.1,14.1,0,0,1,.1,2.9c0,1.3-.2,2.6-.2,3.9h.1s-.1-.1,0-.1-.1.5.1.7-.2.7.2.8h.2c0,.3-.3.4-.2.6h-.4c0,.1-.1.2-.2.1h-.2a1.3,1.3,0,0,1-.1.6l-.6.2h.1c0,.2-.2.1-.3.2l-.2-.2v-.2h-.4c0,.2,0,.3-.2.4l.2-.4h-.4c-.1.1-.3,0-.4,0h-.7a3.1,3.1,0,0,0,.6-1.6c.2-1.1.3-2.2.5-3.3h-.1c.2-.1.2-.4.2-.6s-.1-.3,0-.4.1-.5,0-.8,0-.3.1-.4,0,.2,0,.3a.7.7,0,0,0,.1.5c0,.3.1.6-.1.8s-.2.6.1.7v.2l-.3.4v.7h.2c-.1-.1.1,0,.1-.2s.1-.3,0-.4a.8.8,0,0,1,.2-.7c0-.7.3-1.4.3-2.1s.1-1.7.1-2.5a1.3,1.3,0,0,1,.1-.6h0a15.1,15.1,0,0,1-.2,3v.6h.1c.1-.4.1-.8.2-1.2a7.6,7.6,0,0,0,.1-1.5c.1-.5.1-1,.2-1.5a14.3,14.3,0,0,1,.3-2.9l.3-2.4c-.1-.3.2-.4.2-.7s-.1-.4.1-.6.4-1.3.2-1.9a7,7,0,0,0,.3-1.4c0-.1.1-.1.1-.2s.1-.7.1-1h0c-.1.1-.1.3-.3.3a4.2,4.2,0,0,0-.3,1.9l-.3,1a2.6,2.6,0,0,1-.2,1.5c0,.2-.2.4-.1.7s-.1.8-.2,1.3a20.6,20.6,0,0,0-.3,2.6c-.1,0-.1.1-.1.2s.2-2.2.4-3.3.4-1.6.4-2.4,0-.2.1-.4a30.6,30.6,0,0,1,.5-3.2c-.2-.2.3-.4,0-.5s0-.2.1-.2h0c0-.1-.1,0-.1,0s-.1.4-.3.4-.1-.2-.2-.1-.1.3-.2.5,0,.3-.1.4a2.5,2.5,0,0,1,.2-1.2c.2,0,.1-.6.4-.3s.3-.2.4,0,0,.3.2.3.1-.1.2,0l.6-.6H63c.2.3.5.3.7.5S63.6,113.6,63.5,113.8Z" style="fill:#2f2f2f"/><path d="M62.3,112.9h.1A.1.1,0,0,1,62.3,112.9Z" style="fill:#2f2f2f"/><rect x="61.9" y="113" width="0.1" height="0.05" transform="translate(-25.5 18.4) rotate(-14)" style="fill:#2f2f2f"/><path d="M61.4,112.8h-.2c0-.1,0-.2.1-.2s.2,0,.2.1Z" style="fill:#2f2f2f"/><path d="M60.5,115.3h0a.1.1,0,0,0,.1-.1c0-.1-.1-.1,0-.1S60.7,115.2,60.5,115.3Z" style="fill:#2f2f2f"/><path d="M60.5,115.5c.1,0-.1-.1,0-.1Z" style="fill:#2f2f2f"/><path d="M60.5,116h0Z" style="fill:#2f2f2f"/><path d="M60.4,116.3Z" style="fill:#2f2f2f"/><path d="M60.3,116.9h.1c-.1-.1-.1-.1-.1-.2h.1C60.5,116.7,60.4,116.8,60.3,116.9Z" style="fill:#2f2f2f"/><path d="M60.3,117.4c-.1-.1,0-.2,0-.3Z" style="fill:#2f2f2f"/><path d="M60.2,118.1c-.1-.1.1-.3,0-.5h.1C60.2,117.7,60.3,117.9,60.2,118.1Z" style="fill:#2f2f2f"/><path d="M60,119h0v-.3C60.2,118.8,60.1,118.9,60,119Z" style="fill:#2f2f2f"/><path d="M59.9,119.7c0-.2,0-.3.1-.4S59.9,119.6,59.9,119.7Z" style="fill:#2f2f2f"/><path d="M59.8,120.2V120C59.9,120.1,59.8,120.1,59.8,120.2Z" style="fill:#2f2f2f"/><path d="M59.7,120.8a.4.4,0,0,1,.1-.3A.4.4,0,0,1,59.7,120.8Z" style="fill:#2f2f2f"/><path d="M59.6,121.6c0-.1.1-.2,0-.4S59.6,121.5,59.6,121.6Z" style="fill:#2f2f2f"/><path d="M59.6,121.8h0Z" style="fill:#2f2f2f"/><path d="M60,125.6v0Z" style="fill:#2f2f2f"/><path d="M59.2,127.3h0v-.2C59.2,127.2,59.3,127.3,59.2,127.3Z" style="fill:#2f2f2f"/><path d="M59.2,127.9c0-.1-.1-.3,0-.5s0,.3,0,.4S59.3,127.9,59.2,127.9Z" style="fill:#2f2f2f"/><path d="M87.9,54.5c-.9.3-1.3,1.2-2,1.7s-2.1,2.3-3.1,3.5l-.6.7-.3.4a16.7,16.7,0,0,0-2.4,3.5,16.4,16.4,0,0,0-1.4,2.2,16.7,16.7,0,0,0-1.2,2.3.5.5,0,0,1-.5.3h-.8v-.2h-.1c-.1-.1,0-.3.1-.4s.1-.1.2-.2H76c.6-.7.9-1.7,1.5-2.4a.8.8,0,0,1,.2-.4c0-.2.2-.4.4-.6s-.2.1-.2.3.2-.2.4-.3a57.5,57.5,0,0,1,7.1-9,9.4,9.4,0,0,1,1-1c.2-.2.3-.5.5-.6s.4-.3.1-.4h-.1c-.8.9-1.8,1.7-2.6,2.6L87,53.5c.1,0,.2-.2.4-.2h.3c.2,0,.3-.2.5,0s.2.1.2.3-.1.5-.4.6Z" style="fill:#2f2f2f"/><polygon points="84.1 56.7 84.2 56.5 84.1 56.7 84.1 56.7" style="fill:#2f2f2f"/><path d="M84,56.8l-.2.2Z" style="fill:#2f2f2f"/><path d="M83.5,57.4l.2-.4A.8.8,0,0,1,83.5,57.4Z" style="fill:#2f2f2f"/><path d="M82.4,58.6l1-1.2Z" style="fill:#2f2f2f"/><path d="M79.7,62.2h0Z" style="fill:#2f2f2f"/><path d="M79.2,62.9c0-.1.1-.2.2-.3S79.2,62.8,79.2,62.9Z" style="fill:#2f2f2f"/><path d="M79.1,63h0Z" style="fill:#2f2f2f"/><path d="M78.8,63.6a.5.5,0,0,1,.2-.4Z" style="fill:#2f2f2f"/><path d="M74.2,63.4A6.7,6.7,0,0,1,76,62.3l1.5-.8c.3-.1.3-.4.6-.4s-.4-.1-.6-.1-1.8.7-2.7,1.1a27.3,27.3,0,0,0-2.5,2.3c-.1.3-.5.5-.6.7S73.3,63.9,74.2,63.4Z" style="fill:#2f2f2f"/><path d="M91.5,63.6c.2,0,.2.2.4.2l-1.6-.5L89,62.7,87.1,62a13.1,13.1,0,0,1-4-2.2h0c-.3-.4-.7-.6-.8-1s.5-.1.8-.2.7.4,1.1.4a7.5,7.5,0,0,1,2,1c.5.4,1.2.6,1.6,1l1.5,1c.1.2.3.2.5.3a6.4,6.4,0,0,0,1.6,1.1C91.4,63.5,91.5,63.5,91.5,63.6Z" style="fill:#2f2f2f"/><path d="M91.4,48.8l1.6.8,1.7,1.3,2.2,1.8.2.3a12.2,12.2,0,0,1-1.7-.7,14.2,14.2,0,0,0-1.8-.8,17.6,17.6,0,0,1-2-.9,8.6,8.6,0,0,1-2.6-2h0C89.8,48.1,90.6,48.6,91.4,48.8Z" style="fill:#2f2f2f"/><path d="M89.6,50.3c.2,0,.1.1.2.1s.6,1.7.8,2.6a19.8,19.8,0,0,1,.6,2.6h0c0,.1.2.3.1.4s.2.9.4,1.4.1.3.1.4l-.5-.7c-.6-1.2-1.3-2.4-1.8-3.6a16,16,0,0,0-1-2.3,5.8,5.8,0,0,1-.4-1.8c0-.2-.1-.4.1-.5s.2-.1.1-.2S89.3,49.7,89.6,50.3Z" style="fill:#2f2f2f"/><path d="M88,50.7l-.3,3.1c0,.6-.1,1.2-.1,1.9a8,8,0,0,0-.3,1.5,8,8,0,0,1-.3,1.5c-.1-.3,0-.5-.2-.8a3.4,3.4,0,0,0-.1-1.4,30.8,30.8,0,0,1-.3-5.3,3.6,3.6,0,0,1,.6-2c.1-.2.2-.2.3-.2h.3C88.3,49.3,88,50.1,88,50.7Z" style="fill:#2f2f2f"/><path d="M86.7,51.7c-1.1,1.5-2.4,2.8-3.6,4.3a5.1,5.1,0,0,0-1.4,1.5l-.4.4a7.5,7.5,0,0,1,1.2-2.1,16.8,16.8,0,0,1,2-3.4h0a13.9,13.9,0,0,1,2.1-2.1c.2-.1.1.2.2.3s0,.2.1.3A2.4,2.4,0,0,1,86.7,51.7Z" style="fill:#2f2f2f"/><path d="M78.7,63.1c-.4.8-1.1,1.3-1.6,2.1s-.5.6-.8.8A2.2,2.2,0,0,1,75,67l-1.2,1.2a4.6,4.6,0,0,1-.7.7c.4-.6.6-1.2,1-1.8l1.5-2.5a14.4,14.4,0,0,1,3.2-3.3h.1c.2.3.1.8.2,1.1S78.8,62.9,78.7,63.1Z" style="fill:#2f2f2f"/><path d="M111.4,71.8l-.5-.2a12.6,12.6,0,0,1-2.6-1.3c-1.5-.8-2.7-1.7-4.1-2.5h0a3.7,3.7,0,0,1-1.3-1.2c-.1-.2-.6-.4-.3-.7a7.7,7.7,0,0,1,1.5.2,15.5,15.5,0,0,1,3.9,2.8l2.2,1.9a3.5,3.5,0,0,1,1.3,1.1Z" style="fill:#2f2f2f"/><path d="M110.8,64.8c-.2.1-.4-.2-.6-.1a4.8,4.8,0,0,1-1.7-.5,5,5,0,0,1-1.3-.3l-1.6-.5a12.3,12.3,0,0,1-2.6-1.2c0-.1,0-.2.1-.2a1.5,1.5,0,0,1,.7-.3,6.2,6.2,0,0,1,2.3.7c.3,0,.5.3.8.4l1.5.7,2.3,1.2Z" style="fill:#2f2f2f"/><path d="M107.7,66.4l-.8-.2-1.6-.9A38.8,38.8,0,0,1,102,63a3.9,3.9,0,0,1-.8-1v-.2a2.8,2.8,0,0,1,1.3.1l1,.6,3.5,2.8,1.5,1.4C108.2,66.7,108,66.4,107.7,66.4Z" style="fill:#2f2f2f"/><path d="M100.6,54.8l-1.7-.7-.9-.4-.7-.3L95,52.5l-.3-.5h0a3,3,0,0,1,2.1.4c.4,0,.6.3,1,.4a3.9,3.9,0,0,0,1.1.6,1.9,1.9,0,0,0,.7.6l1.3.7.6.4Z" style="fill:#2f2f2f"/><path d="M104,68.9a3.6,3.6,0,0,1-.7-1c-.4-.3-.6-.7-1-1l-.4-.5a8.8,8.8,0,0,1-1.7-2.8,4.7,4.7,0,0,1-.6-1.9h.2c.6.1.8.6,1.2.9s.8,1.3,1.1,2,.3,1,.6,1.4.1.3.2.5v.2c.2.8.8,1.4,1.1,2.3Z" style="fill:#2f2f2f"/><path d="M104.3,75.5a.5.5,0,0,1,0,.5c.1,1,.2,2.1.4,3.2h0c-.2-.1-.1-.4-.3-.5a5.9,5.9,0,0,0-.6-1.4c-.1-.6-.5-1-.6-1.6a18.5,18.5,0,0,1-1.2-3.3,29.4,29.4,0,0,1-1.4-5.3c0-.3.2-.6.2-.9h.1a.7.7,0,0,1,.5.4,6.7,6.7,0,0,1,1.4,2.8c.5.8.4,1.8.8,2.7A20.5,20.5,0,0,1,104.3,75.5Z" style="fill:#2f2f2f"/><path d="M99.5,62.2c0,.8-.6,1.4-.9,2.2a3.4,3.4,0,0,0-.6,1.2,25.9,25.9,0,0,0-1.4,2.9.9.9,0,0,0-.3.5h-.1l.3-.9c.2-.4.1-.9.3-1.2l.7-2.6a7.5,7.5,0,0,1,.5-1.6,6.2,6.2,0,0,1,1.2-1.9c.2-.1.3.2.4.3S99.7,61.9,99.5,62.2Z" style="fill:#2f2f2f"/><path d="M98.8,58.8l-.7-.6c0-.1-.1-.1-.1-.2a46.4,46.4,0,0,1-3.8-3.9c-.3-.5-.8-.9-.8-1.5a.3.3,0,0,1-.1-.2c.6-.3.9.3,1.4.5a7.3,7.3,0,0,1,.8.9l1.1,1.6h.1a29,29,0,0,1,1.9,2.9A.5.5,0,0,1,98.8,58.8Z" style="fill:#2f2f2f"/><path d="M100.3,68.7c-.2,1.1-.6,2.3-.8,3.5s-.6,1.9-1,2.8a20,20,0,0,1-1,2.1h0a5.2,5.2,0,0,1-.6,1.3c-.2-.1,0-.3,0-.5a5,5,0,0,1,.2-1.2,30.1,30.1,0,0,1,1-6,17.6,17.6,0,0,1,1-3,2.9,2.9,0,0,1,.9-1.5c.1-.1.1-.3.3-.3s.3,1.1.3,1.7Z" style="fill:#2f2f2f"/><path d="M100.6,67.4c.1.5-.3.8-.5,1.2a4.3,4.3,0,0,1-.9,1l-.5.6a37.5,37.5,0,0,1-4.4,3.5l-2,1.7h-.1l1.3-2c.6-.6.8-1.3,1.4-1.8a13.7,13.7,0,0,1,1.6-1.8c1.3-1.2,2.3-2.7,4.1-3.3h.2C100.6,66.9,100.8,67.2,100.6,67.4Z" style="fill:#2f2f2f"/><path d="M96.1,66.5l-.3.5c-.4.8-.8,1.4-1.2,2.1a10.9,10.9,0,0,1-1,1.1l-.9,1.5-.4.4.3-.5c.2-.6.3-1.1.5-1.6s.3-1.3.6-1.8a11.2,11.2,0,0,1,2.6-3.7l.2.2c-.1.1,0,.2.1.3A3.3,3.3,0,0,1,96.1,66.5Z" style="fill:#2f2f2f"/><path d="M94.3,56.6c.1.7.1,1.4.2,2s.1,2.1.1,3.1,0,.3,0,.5-.1-.7-.3-1-.2-.9-.4-1.3h0l-1-3.2a7.4,7.4,0,0,1-.3-2.5l.2-.5c.2,0,.2-.2.4-.2s.8,1.2,1,1.8A5.7,5.7,0,0,1,94.3,56.6Z" style="fill:#2f2f2f"/><path d="M91.9,54.8l-.5.7c-.5.6-.9,1.2-1.4,1.7s-.3.5-.6.6L88.6,59h-.1l-.3.6a18.7,18.7,0,0,0,.7-2.2l.3-.7a7.5,7.5,0,0,1,2.1-3.5c.1-.3.5-.2.7-.4s.2.3.3.4S92,54.3,91.9,54.8Z" style="fill:#2f2f2f"/><path d="M93.2,62.4a4.9,4.9,0,0,1-.1,1.7c-.2.4,0,.8-.2,1.2s-.2.8-.2,1.2a8,8,0,0,0-.3,1.5v-.7l-.3-2.7a17.7,17.7,0,0,0,0-2.3,11,11,0,0,1,.2-1.8c0-.2.2-.3.1-.5l.4-.2c.4.1.3.6.6.8s.1.3,0,.4S93.4,61.9,93.2,62.4Z" style="fill:#2f2f2f"/><path d="M89.3,54.3l-2.1,1.3c-1.2.3-2,1.4-3.2,1.6l-.5.3c.3-.4.8-.6,1.1-.9l1-.9c.4-.4.9-.6,1.2-1a6,6,0,0,1,1.1-.6,5.1,5.1,0,0,1,2.4-1c.1-.1.2,0,.4,0S89.8,54,89.3,54.3Z" style="fill:#2f2f2f"/><path d="M91.4,60.9c0,.5-.4,1-.4,1.4s-.2.7-.4,1a1.4,1.4,0,0,1-.2.6c-.1.6-.5,1.1-.6,1.7s0,.1-.1.2-.1.4-.3.6,0-.7.1-1,.1-.3,0-.6.3-1.9.5-2.8a6.1,6.1,0,0,1,1.4-3.4s.2,0,.2-.1.2.4.2.5a2.2,2.2,0,0,1-.1.8Z" style="fill:#2f2f2f"/><path d="M89.2,62.3h0A20.9,20.9,0,0,0,87.8,64c-.6.3-.9,1-1.4,1.4s-.6.8-.9,1.4h-.1c.6-.9.8-2,1.4-2.9a8.9,8.9,0,0,1,1.4-2.5c.4-.3.7-.8,1.2-1s.2.6.3.9-.1.3-.2.4Z" style="fill:#2f2f2f"/><path d="M90.9,70.4h-.1c-.1.1-.2,0-.2-.1a20.4,20.4,0,0,0-2.2-.9,5.6,5.6,0,0,0-1.2-.4L86,68.4c0-.1.1-.2.1-.3l.4-.2A6.1,6.1,0,0,1,89.6,69c.3.3.7.5.9.9s.4.4.6.6h-.2Z" style="fill:#2f2f2f"/><path d="M93.7,73.9c-.3-.4-.8-.6-1.1-1a40.9,40.9,0,0,1-3.8-3.3c-.2-.2-.2-.5-.4-.6l-.2-.4h.1v-.2h.4A7.3,7.3,0,0,1,91.1,70a14.3,14.3,0,0,1,2.3,2.6c.1.3.4.4.5.7a7.6,7.6,0,0,1,.8,1.1h0l.5.6Z" style="fill:#2f2f2f"/><path d="M89.9,72.6l-1.2-.5c-.4-.1-.8-.4-1.1-.4l-1.4-.5a8.1,8.1,0,0,1-2.8-1.7c-.1-.2-.3-.5-.1-.7s.3-.2.5-.1a19.5,19.5,0,0,1,3.5,1.9l1.3,1,.5.4A2.4,2.4,0,0,1,89.9,72.6Z" style="fill:#2f2f2f"/><path d="M90.7,75.9h.1a17.4,17.4,0,0,0,.5,2.2c-.1.2.1.4.1.6a10,10,0,0,0,.4,2.4v.5a3.3,3.3,0,0,1-.6-1l-.8-2.1h-.1c-.4-1.1-1-2.1-1.4-3.2a23.1,23.1,0,0,1-1.2-4.7v-.7c-.2-.1,0-.2,0-.4h.4c.2.2.5.4.6.7a9.8,9.8,0,0,1,.8,1.8c.1.5.4.9.5,1.4a8.4,8.4,0,0,0,.5,1.7A2.5,2.5,0,0,1,90.7,75.9Z" style="fill:#2f2f2f"/><path d="M84.2,66.6h0c-.2,0-.2-.2-.3-.3a3.5,3.5,0,0,0-.5-1.3l-1.5-2.7a8.2,8.2,0,0,1-1-3c-.1-.2,0-.4-.1-.6h.4c.7.1.9.7,1.2,1.2s.3.7.5,1,.8,2.7,1.1,4.1-.1.4.1.5S84.2,66.3,84.2,66.6Z" style="fill:#2f2f2f"/><path d="M81.7,70.9l-.9,1.5h0c-.4.7-.7,1.4-1.1,2h-.2s0-.3.1-.4.1-.1,0-.2v-.2h0c-.1-.1.1-.1,0-.2a8.5,8.5,0,0,0,.6-1.7c.6-1.5.9-3.4,2.3-4.5s.1-.2.2-.1l.2.2C83.3,68.7,82.4,69.8,81.7,70.9Z" style="fill:#2f2f2f"/><path d="M86.7,74.2a26.8,26.8,0,0,1-.7,2.7c.1.3-.1.6-.2.9a3.8,3.8,0,0,1-.5,1.5c0-.3-.2-.5-.1-.7h0V76.7c.2-1.9.5-3.7.7-5.6.2-.3.2-.7.5-1a2.7,2.7,0,0,1,.6-1.2c.2-.2.2.2.4.2V70l-.3,1.8C87,72.6,86.8,73.4,86.7,74.2Z" style="fill:#2f2f2f"/><path d="M80.9,61.7c-.1.4,0,.8-.1,1.2l-.3,1.9a5.7,5.7,0,0,1-.3,1.8,1.9,1.9,0,0,1-.2.7.1.1,0,0,0-.1.1,4.3,4.3,0,0,1-.1-.5c.1-.3-.1-.6-.2-.9a17,17,0,0,1,0-4.5l.3-1.2h.2c.1.2.4.2.5.5A2.9,2.9,0,0,1,80.9,61.7Z" style="fill:#2f2f2f"/><path d="M85.3,71.6A8,8,0,0,1,83,73.8l-.3.2a3.1,3.1,0,0,1-1.1.8A6.9,6.9,0,0,1,80,76.6l1.1-1.9h0c.2-.3.3-.7.6-.9a12.2,12.2,0,0,1,2.6-2.9,2.9,2.9,0,0,1,1.2-.7c.1.1.3.1.2.3A1.4,1.4,0,0,1,85.3,71.6Z" style="fill:#2f2f2f"/><path d="M80.9,69.1a2.5,2.5,0,0,0-.4.7c-.3.4-.5.9-.9,1.1s-.4.7-.7.8a3,3,0,0,1-.8.8,4.8,4.8,0,0,1-1.1.9l-.4.6a14.2,14.2,0,0,0-1.3,1.2c-.1.5-.6.5-.9.8s1.1-2,1.9-2.8,1.5-2,2.1-3.1a4.9,4.9,0,0,1,2.5-2C81.2,68.4,81,68.8,80.9,69.1Z" style="fill:#2f2f2f"/><path d="M77,71.1c-.1.3-.5.3-.6.6s-.3.2-.4.3a5.2,5.2,0,0,0-1.3.6l-1,.7c-.5.2-.8.7-1.4.9a1.5,1.5,0,0,1-.7.3c-.1.2-.2.3-.4.3s.2-.2.3-.3l.7-.7a10,10,0,0,1,1.4-1.5l1.1-.9a7.4,7.4,0,0,1,2.2-1c.1.2.3-.1.4.2S77.1,70.9,77,71.1Z" style="fill:#2f2f2f"/><path d="M98.2,65.2a20.8,20.8,0,0,1-2.1-2.1c-.6-.6-1.2-1.4-1.8-1.9s-1-.9-1.2-1.5-.1-.3.1-.4v-.2c.9,0,1.3.7,1.9,1a10.1,10.1,0,0,0,1.3,1.6l.5.9,1.4,2.1a3,3,0,0,0,.4.8c0,.1,0,.2.1.2S98.3,65.4,98.2,65.2Z" style="fill:#2f2f2f"/><path d="M68.7,112.9h0Z" style="fill:#2f2f2f"/><path d="M68.7,112.9h0Z" style="fill:#2f2f2f"/><path d="M71,111Z" style="fill:#2f2f2f"/><path d="M77.1,108c-.1.1.1.1.1.1h.3c0-.2-.1,0-.2,0s0-.1,0-.2h-.2A.1.1,0,0,1,77.1,108Z" style="fill:#2f2f2f"/><path d="M67.5,113.4l.4-.2c.1,0,.1-.1.2,0l-.6.5h-.1l-.3.3.3-.3h.2c-.1-.1,0-.1,0-.2s.2-.3.4-.2h0l.5-.3h.1s-.1-.1,0-.1h.1c0-.1,0-.2.1-.2h0c0-.1.2-.1.2-.2h.6c-.1-.1,0-.1,0-.1h.1c0-.1.1,0,.1-.1h.4s0,.1-.1,0h.2c0,.1,0,0,.1,0s-.1-.1,0-.1h.2c.1-.2.2-.3.4-.3a.1.1,0,0,1,.1.1h-.4l-.3.2h-.2c0,.2-.2.3-.4.5s-.2.4-.4.5h0l-.8,1h0l-.3.4h-.1c-.1.1-.2.1-.2.3l.4-.2-.3.3h.1c.5-.5,1.2-.7,1.6-1.2h0L68.3,115l.8-.5h0l-.2.2,1-.8c0,.1-.2.1-.1.2l.4-.3-.7.6c0,.1-.2.1-.1.2s-.2.1-.2,0h-.1c0-.1-.1.1-.1.1h0c.1,0,0-.3.2-.1l-.4.3a8.7,8.7,0,0,0,1-.8h.1c.1-.2.4-.4.6-.6h.3c.2.1.2-.1.3-.1s.2-.1.2-.2l.3-.2h-.1a.1.1,0,0,1,.1-.1l.2-.2.3-.4h.1s0-.2.1-.2v.2h0c.2-.2.2-.4.4-.5h-.1c-.1-.1,0-.1.1-.2l.2-.3c0-.1,0-.1-.1-.1h.2c.2-.2.1-.4.4-.6s0-.1,0,0h.2c.1.1.1,0,.1-.1h0a.3.3,0,0,0-.1.2.1.1,0,0,1,0-.2l-.2.3h0c-.1,0,0,.1-.1.1h-.6a.2.2,0,0,1-.2.2c0,.1-.1.2-.2.3H72a.1.1,0,0,1-.1.1h-.1l-.3.4h-.3c.2-.1.4-.3.4-.4h-.2a.3.3,0,0,0-.1.2h-.1c.1.1,0,.1,0,.1s0-.1.1-.2a.1.1,0,0,0-.2,0c0-.1.2-.1.2-.2h-.1v-.2h.1v-.2h.1v-.2H72c0-.1,0-.1.1-.2s.3-.1.1-.2h.1v-.2h0a.2.2,0,0,1,0,.3c.1,0,.1-.2.2-.1h.1c.1,0-.1-.2.1-.1h0c0-.1,0-.2.1-.2h0c0,.1-.1.1,0,.1h.1v-.2h.4c.1-.1.2-.1.2-.2s0,.1.1.1,0-.1,0-.2h.1c.1-.1,0-.1,0-.1h-.4l.8-.5.2.2c0,.1-.1.1,0,.2h0c.1,0,0-.1.1-.1h0c.3,0,.6.2.9.1h.7V108c.1-.2.3,0,.5-.1h.1c.1,0,0,.1,0,.2H77c-.1-.2,0-.3,0-.4a.2.2,0,0,1,.2-.2h-.1c.1.1.1,0,.1,0h0c.2-.1.2,0,.4,0h.1c0,.1-.1,0-.1,0h-.5s-.1-.1,0-.1h.1a.1.1,0,0,1-.1.1h0c.1-.1.1-.1.2,0h0c.1-.1.2.1.3.1v-.2h-.2a.1.1,0,0,1,.1-.1h.1c0,.1.2,0,.3.1h.3c.1-.1-.1,0-.2-.1h-.1c.2-.2.2,0,.4,0h.1s-.1-.1,0-.1h.1l-.7-.3h-.5c.1-.1.3,0,.4,0H76.1c-.2-.1-.5,0-.6,0s-.4.1-.6.2-.4.3-.6.5l-.2.2a.4.4,0,0,0-.1.3h.1c0,.1-.1.1,0,.2l-.2.2s.1-.2.2-.1-.1,0-.1.1l-.3.2h-.2l-.2.2h0c-.4.3-1,.4-1.5.7h0c-.2.2-.5.2-.8.3s0,.2-.1.2v.2h.1c.1,0,.1.2.3.2H71a.2.2,0,0,1-.2-.2h-.1v-.2l-.4.2v-.2c-.1.1-.2.3-.4.3v.2c-.2.2-.4.2-.5.5h-.2l.2-.3-.4.4h.1c-.1,0-.2-.1-.2.1h.1v.2h-.1c-.1-.1.1-.1,0-.2l-.3.5h-.1l-.3.3h0c0-.1,0,.1-.1.1h0l-.2.3h0l-.5,1s.1-.1.1,0Zm1.8.9.3-.3h.1Zm.4-.4a.1.1,0,0,1,.1-.1h0A.1.1,0,0,1,69.7,113.9Zm3.7-3.7h0Zm-2.1,1.2Zm-.3-.1Zm0,.1h0Zm0,.2a.1.1,0,0,1-.1.1C71,111.7,70.9,111.6,71,111.6Zm-.2-.1h0Zm0,.2Zm0,.1h0Zm-.1-.2s-.1.1-.1,0Zm-.2.1Zm0,.2h.1c0,.1-.1.2-.1.3h0Zm0,.5h0Zm-.1-.6h0Zm-.5,2.1Zm0-.2h0Zm.1-.1Zm0,0v-.2h.1Zm.2-.3h0Zm.2-.1h0Zm.6.1h-.1c.1.1.1-.1.2-.1S71,113.2,71,113.3Zm0-.8Zm.3.4h0Zm-.1-.6Zm.1.2h0Zm.1.3h.2C71.5,112.7,71.5,112.8,71.4,112.8Zm.4-.5h-.1s.1,0,0-.1Zm.1-.1c0-.1-.1-.2,0-.2v.2H72C71.9,112.3,71.9,112.1,71.9,112.2Zm.7-.5v.2h-.1c-.1,0,0-.1,0-.1h-.1l.2-.2h.1Zm.1-.7h0Zm-.1-.2Zm-.2.4Zm-.8.5h0l.3-.4v.2c0-.1.1-.1.1-.2h.1l-.3.2h0c0,.2-.1.2-.1.3s-.2.2-.4.3S71.5,111.8,71.6,111.7Zm-.1.4h.1c-.1-.1.1-.1.1-.2h0c.1,0,.1-.2.3-.2s.2-.2.2-.4h.1c0-.1,0-.1.1-.1h0c-.1.1.1.2.1.2h0a.1.1,0,0,1,0-.2c.1.1,0,.2.1.2h.1v.2c-.2,0,0,.2-.2.3h0c-.1.1-.1.1-.1.2h-.2c.1,0,0,.1,0,.1H72c0-.2.2-.2.2-.4s0-.2.1-.2h-.1c0,.2-.2.3-.3.5l-.3.3h0l-.2.2v-.2h-.1a.3.3,0,0,0-.1.2C71.3,112.3,71.4,112.2,71.5,112.1Zm-.2-.2-.4.5h0c0,.1-.2,0-.1.1h-.1v-.2h0l-.6.5h0l.9-.9h0C71.2,112.1,71.1,111.9,71.3,111.9Zm-.1-.5c-.1,0-.1.3-.2.2v-.2Zm-.1-.2Zm2.6-2.8h0Zm3.8-.8Zm-.1,0h0Zm-.1,0Zm-.1,0h0Zm.2-.3h0Zm.5-.4Zm-.7.1Zm-.4.4h.1c-.1-.1,0,.1-.1,0Zm-3.2.7h0Zm-.1-.1h0Zm-.2.5h0Zm0,.3h0Zm-.1.1s-.1-.2-.1,0S73.2,108.9,73.2,108.9Zm-.6.3h0Zm-.1.3Zm0-.2Zm-.1.1Zm-.6.8h0c0-.1,0-.1.1-.1Zm.2-.2h0Zm.1-.5h-.2c-.1,0-.1-.1-.2-.2A.5.5,0,0,1,72.1,109.5Zm-.3.3h0c-.1,0,0,.1-.1.1h.1Zm-.1.2h-.1C71.8,110.2,71.7,110.1,71.7,110Zm-.2.5h0Zm-.1.1h0Zm-.1,0h0Zm-.1.1h-.1C71,110.7,71.2,110.8,71.2,110.7Zm-.7-.4h.1c.1,0,.1.1.1.2a.4.4,0,0,1,.1.3l-.3-.2h0Zm-.8.1h.1v.2c.1.1,0,.2.1.3h.2c-.2.1-.2-.1-.4,0l-.2-.2s.1-.1,0-.1,0-.1,0-.2Zm-.9.6h0Zm-.4,2.1Z" style="fill:#2f2f2f"/><path d="M72.1,110.8h.2c.1,0,0,0,0-.1h.1c0-.1.1-.1.2-.2h.2c0-.1,0-.1.1-.2h-.1a.1.1,0,0,0,.1-.1h-.1v-.2h0c-.1,0-.1,0-.1-.1h.1c0-.1.2-.1.1-.2s0-.1,0-.1h-.1s-.1,0,0,.1h-.3c0-.1.1,0,.1,0s.1-.1.1-.2h-.3s0,.2.1.1h-.1s.1,0,0,.1h-.1s-.1.1,0,.1h0c0,.1-.2.1-.1.2H72c.1-.1,0-.1.1-.2H72c.1.1,0,.1,0,.1v.2H72c0,.1-.1,0-.1,0h0C72,110.9,72.1,110.9,72.1,110.8Zm.6-1Zm0,.3h0c0,.1.1.1,0,0Zm0,0h0Zm-.1-.2Zm-.2.8h0Z" style="fill:#2f2f2f"/><path d="M77.8,108h.1v-.2s0,.1-.1,0h-.1Z" style="fill:#2f2f2f"/><path d="M69,112.6Z" style="fill:#2f2f2f"/><path d="M71.5,110.8h0Z" style="fill:#2f2f2f"/><path d="M77.2,106.4Z" style="fill:#2f2f2f"/><path d="M77.1,107.4Z" style="fill:#2f2f2f"/><path d="M72.2,109.7Z" style="fill:#2f2f2f"/><polygon points="71.8 108.8 71.8 108.8 71.8 108.8 71.8 108.8" style="fill:#2f2f2f"/><path d="M67.8,115.6v-.2h0Z" style="fill:#2f2f2f"/><path d="M72.8,109.9Z" style="fill:#2f2f2f"/><path d="M70.6,109.4h0Z" style="fill:#2f2f2f"/><path d="M70,109.8h0Z" style="fill:#2f2f2f"/><path d="M72.9,110.1Z" style="fill:#2f2f2f"/><path d="M73.1,110.6Z" style="fill:#2f2f2f"/><path d="M71.9,112.6c0-.1-.1.1-.1,0h.1Z" style="fill:#2f2f2f"/><path d="M72.9,110.5h0Z" style="fill:#2f2f2f"/><path d="M72.9,110.2Z" style="fill:#2f2f2f"/><path d="M73,110.1h-.1c.1-.1.1,0,.1-.1h0Z" style="fill:#2f2f2f"/><path d="M71.6,112.8Z" style="fill:#2f2f2f"/><path d="M77.4,106.4Z" style="fill:#2f2f2f"/><path d="M77.4,106.4Z" style="fill:#2f2f2f"/><path d="M78,107.7Z" style="fill:#2f2f2f"/><path d="M78,107.8h0Z" style="fill:#2f2f2f"/><polygon points="78.1 107.8 78 107.7 78 107.8 78.1 107.8" style="fill:#2f2f2f"/><path d="M73.3,108h0Z" style="fill:#2f2f2f"/><path d="M73.3,108h0Z" style="fill:#2f2f2f"/><path d="M73.2,108.1Z" style="fill:#2f2f2f"/><polygon points="74.3 108.1 74.3 108.1 74.3 108.1 74.3 108.1 74.3 108.1 74.3 108.1" style="fill:#2f2f2f"/><path d="M74.1,108.2Z" style="fill:#2f2f2f"/><path d="M74,108.4h.1c-.1-.1,0-.1-.1-.1h0l-.2.2a.1.1,0,0,0,.1-.1Zm0,0h0Z" style="fill:#2f2f2f"/><path d="M74.2,108.5v-.2h-.1Z" style="fill:#2f2f2f"/><path d="M74.1,108.5h0Z" style="fill:#2f2f2f"/><path d="M73.9,108.5h0Z" style="fill:#2f2f2f"/><polygon points="74 108.6 74 108.6 74 108.6 74 108.6 74 108.6" style="fill:#2f2f2f"/><path d="M73.8,108.8h.1c-.1-.1.1-.1.1-.1s-.1,0-.1-.1h0c-.1,0,0,.1-.1,0h0C73.7,108.6,73.8,108.7,73.8,108.8Z" style="fill:#2f2f2f"/><path d="M73.5,108.8h0Z" style="fill:#2f2f2f"/><path d="M73.5,108.9h0Z" style="fill:#2f2f2f"/><path d="M73.6,108.9h0Z" style="fill:#2f2f2f"/><path d="M73.6,109.1h.1C73.7,109,73.5,108.9,73.6,109.1Z" style="fill:#2f2f2f"/><path d="M73.3,109.4h.1a.1.1,0,0,1,.1-.1h-.2l-.2.2h.2Z" style="fill:#2f2f2f"/><path d="M73.4,109.3a.1.1,0,0,1-.1.1h.1Z" style="fill:#2f2f2f"/><path d="M73.3,109Z" style="fill:#2f2f2f"/><path d="M73.5,109.3c0-.1-.1-.1,0-.1h0Z" style="fill:#2f2f2f"/><path d="M73.3,109.4Z" style="fill:#2f2f2f"/><path d="M73.6,109.1Z" style="fill:#2f2f2f"/><polygon points="73.6 109.1 73.6 109.1 73.5 109.1 73.6 109.1" style="fill:#2f2f2f"/><polygon points="75.4 109.1 75.4 109.1 75.4 109 75.4 109.1" style="fill:#2f2f2f"/><path d="M74.1,110.6Z" style="fill:#2f2f2f"/><polygon points="73.3 111 73.3 111 73.3 111 73.3 111" style="fill:#2f2f2f"/><path d="M71.6,113h0Z" style="fill:#2f2f2f"/><path d="M75,109.5h0c0-.1-.1-.2,0-.2l-.6,1.3c-.1,0,0-.1,0-.1h-.1l-.2.3H74v-.2h.1c-.1,0-.2.4-.4.4s.2-.1.2-.3.1-.3.3-.3h-.1a.3.3,0,0,1,.1-.2h.1s.1-.1,0-.1h.1c0-.1.1-.1.1-.2s-.1-.1,0-.1h0a.8.8,0,0,0-.2.4l-.3.3h-.3l-.3.2h0c-.1,0,0,.1-.1.1s-.1-.1-.1-.2.1.1,0,.2h.1c-.1.2-.1.1-.2.1H73v.2h0c0,.1,0,0-.1,0h-.1a.2.2,0,0,1-.2.2v.2h.1c0-.2.1-.1.2-.2h0l.2-.2h0l-.2.2c0,.1-.2.1-.2.2s0,.1-.1.1h-.1c-.1,0,0,0-.1-.1s-.1.1-.1.2-.2.3-.3.3h0l-.4.5h-.2l.6-.5h.1c.2,0,.1-.2.3-.2l.3-.3h.1l.6-.5h-.1a.3.3,0,0,1-.1.2h.2c-.1,0-.1-.1,0-.1s-.1-.2,0-.3h.1c0-.1-.1-.1-.1-.2h.2c0,.1.1.1,0,.2h.1v.2h0l.3-.3h0v.2h-.1v-.2a.1.1,0,0,0,.1.1h0c.1-.1.1,0,.1-.1s-.2.2-.2,0h.1c.1,0,0,0,0-.1h.1c.1,0,0-.3.2-.2s-.2.2-.1.3h0s0,.2-.1.2l.2-.2h0c.1,0,0-.1,0-.1s.1-.2.2-.2h0s0-.2.1-.2h0a.5.5,0,0,1,.2-.4h0l.3-.5h0c0-.1-.1,0-.1-.1h.2v-.2h-.1c.1,0,0-.2.2,0Zm-2.2,2.4Zm0-.1h0Zm-.8,1.1Zm0-.2Zm1.1-1.6Zm-.2.8H73A.1.1,0,0,0,72.9,111.9Zm.2-.1c-.1,0,0,.1,0,.1h0Zm.2-.2h0Zm.2.1Zm-.2-.7h0Zm.1.4c.1,0-.1,0,0-.1s-.1,0-.1.1h.1c.1,0,0,.1.1.1Zm.1-.2c-.1,0,0,0,0-.1Zm.2-.2h0l-.2.3v-.2c.2,0,.1-.2.2-.3S73.7,110.9,73.7,111Zm.1-.1Zm.2,0h0s0,.1.1,0A.1.1,0,0,0,74,110.9Zm.2-.1Zm0,0h0Zm.1-.1h0Z" style="fill:#2f2f2f"/><path d="M71.8,112.9Z" style="fill:#2f2f2f"/><path d="M74.4,110h0Z" style="fill:#2f2f2f"/><polygon points="72.8 111.5 72.8 111.5 72.8 111.5 72.8 111.5" style="fill:#2f2f2f"/><path d="M72.8,111.5Z" style="fill:#2f2f2f"/><polygon points="72.8 111.4 72.8 111.3 72.8 111.3 72.8 111.4" style="fill:#2f2f2f"/><path d="M73.2,111h0Z" style="fill:#2f2f2f"/><path d="M73.2,112.5h0v.2l.3-.3h-.3c0-.2.3-.1.2-.2h-.1l-.2.3Z" style="fill:#2f2f2f"/><path d="M73.9,109.2Z" style="fill:#2f2f2f"/><path d="M73.8,109.3h0Z" style="fill:#2f2f2f"/><path d="M75.4,109.2Z" style="fill:#2f2f2f"/><path d="M74.8,109.2h0Z" style="fill:#2f2f2f"/><path d="M73.6,109.7h0c0-.1,0-.1.1-.1h0c-.1,0,0-.1,0-.1v-.2h0c.1,0-.1.1,0,.1h-.3c-.1,0,0,.3-.1.1s-.1.1,0,.2h.1c.1-.1.1,0,.2,0s-.1-.1,0-.1h0Z" style="fill:#2f2f2f"/><polygon points="73.8 109.3 73.8 109.3 73.8 109.3 73.8 109.3" style="fill:#2f2f2f"/><path d="M73.9,109.5h0Z" style="fill:#2f2f2f"/><path d="M73.9,109.5Z" style="fill:#2f2f2f"/><polygon points="73.3 109.4 73.3 109.5 73.3 109.5 73.3 109.4" style="fill:#2f2f2f"/><path d="M74.8,109.4s-.1.1,0,.1h0Z" style="fill:#2f2f2f"/><path d="M73.1,109.5h0Z" style="fill:#2f2f2f"/><polygon points="74.7 109.5 74.7 109.6 74.7 109.5 74.7 109.5" style="fill:#2f2f2f"/><polygon points="73.2 109.6 73.2 109.6 73.1 109.6 73.2 109.6" style="fill:#2f2f2f"/><polygon points="73.1 109.7 73.1 109.7 73.1 109.6 73.1 109.6 73.1 109.7" style="fill:#2f2f2f"/><path d="M74.4,110c.1,0,.1-.2.2-.2h-.1C74.5,110,74.4,110,74.4,110Z" style="fill:#2f2f2f"/><path d="M74.1,109.7Z" style="fill:#2f2f2f"/><path d="M73.9,110h0l.2-.2H74c0,.1-.1.1-.1.2Z" style="fill:#2f2f2f"/><path d="M74,109.8Z" style="fill:#2f2f2f"/><path d="M75.4,109.7h0Z" style="fill:#2f2f2f"/><path d="M75.3,109.7h0Z" style="fill:#2f2f2f"/><path d="M75.2,109.7c0,.1.1.1.1.2h-.1Z" style="fill:#2f2f2f"/><polygon points="72.5 109.8 72.6 109.8 72.6 109.8 72.5 109.8" style="fill:#2f2f2f"/><polygon points="75.4 109.8 75.4 109.8 75.4 109.8 75.4 109.8" style="fill:#2f2f2f"/><path d="M73.9,109.8c-.1,0-.1.1,0,.1Z" style="fill:#2f2f2f"/><path d="M73.2,110.1h0Z" style="fill:#2f2f2f"/><path d="M72.3,110.1Z" style="fill:#2f2f2f"/><path d="M72.4,110.1h0Z" style="fill:#2f2f2f"/><path d="M72.3,110h-.1s.1,0,0,.1Z" style="fill:#2f2f2f"/><polygon points="75 110 74.9 110 75 110 75 110" style="fill:#2f2f2f"/><path d="M72.5,110.1h0Z" style="fill:#2f2f2f"/><polygon points="69.6 110.2 69.5 110.2 69.6 110.2 69.6 110.2" style="fill:#2f2f2f"/><path d="M72.2,110.2c.1,0,0,0,.1-.1a.1.1,0,0,0-.1.1Z" style="fill:#2f2f2f"/><path d="M74.8,110.3c0-.1.2-.2.1-.2h0Z" style="fill:#2f2f2f"/><polygon points="72.4 110.1 72.4 110.2 72.4 110.2 72.4 110.1" style="fill:#2f2f2f"/><path d="M75.1,110.2H75c0,.1.1.1,0,.2S75.1,110.2,75.1,110.2Z" style="fill:#2f2f2f"/><path d="M72.2,110.3h-.1C72.1,110.2,72.1,110.4,72.2,110.3Z" style="fill:#2f2f2f"/><path d="M72.1,110.3h0Z" style="fill:#2f2f2f"/><polygon points="74.2 110.4 74.3 110.2 74.2 110.3 74.2 110.4" style="fill:#2f2f2f"/><path d="M73.7,110.2Z" style="fill:#2f2f2f"/><path d="M73.2,110.2h-.1C73.2,110.4,73.2,110.2,73.2,110.2Z" style="fill:#2f2f2f"/><polygon points="72.9 110.2 72.9 110.2 72.9 110.3 72.9 110.2" style="fill:#2f2f2f"/><path d="M72,110.4h-.2c.1.1,0,.1,0,.1H72Z" style="fill:#2f2f2f"/><path d="M71.8,110.4h0Z" style="fill:#2f2f2f"/><path d="M72.1,110.4h0Z" style="fill:#2f2f2f"/><polygon points="73 110.4 73 110.4 73 110.5 73 110.4" style="fill:#2f2f2f"/><polygon points="77.3 110.3 77.3 110.4 77.3 110.4 77.3 110.3" style="fill:#2f2f2f"/><polygon points="71.9 110.5 71.9 110.5 71.9 110.5 71.9 110.5" style="fill:#2f2f2f"/><polygon points="74.9 110.5 74.9 110.5 74.9 110.6 75 110.4 74.9 110.5" style="fill:#2f2f2f"/><polygon points="71.8 110.5 71.8 110.6 71.9 110.5 71.8 110.5" style="fill:#2f2f2f"/><path d="M71.8,110.6h0Z" style="fill:#2f2f2f"/><polygon points="74.1 110.5 74.1 110.5 74.1 110.5 74.1 110.5" style="fill:#2f2f2f"/><path d="M77.1,111.2h0c.1,0,.1,0,.1-.1v-.2h-.1a.4.4,0,0,1,.1-.3v-.2l-.2.3-.3.8h.3Zm0-.1h0Z" style="fill:#2f2f2f"/><path d="M76.7,110.7h0S76.8,110.8,76.7,110.7Z" style="fill:#2f2f2f"/><path d="M76.6,111.5c0-.2.2-.3.3-.6h-.1c-.1,0,.1-.1,0-.1h0l-.3.3c.1-.1.1,0,.1,0s-.2.2-.2.4Zm.1-.4Zm-.1.1h0Z" style="fill:#2f2f2f"/><polygon points="74.3 111.1 74.3 111 74.3 111.1 74.3 111.1" style="fill:#2f2f2f"/><path d="M74.2,111.2s.1-.1,0-.1Z" style="fill:#2f2f2f"/><path d="M75.8,111.4H76c0-.1.2-.2,0-.2l-.2.2h0c-.1.1-.1.1-.1.2S75.8,111.2,75.8,111.4Z" style="fill:#2f2f2f"/><path d="M75.5,111.2Z" style="fill:#2f2f2f"/><path d="M75.6,111.2h0Z" style="fill:#2f2f2f"/><path d="M75.6,111.1h0Z" style="fill:#2f2f2f"/><path d="M75.6,111.2h0Z" style="fill:#2f2f2f"/><path d="M75.9,111.4h.2v-.2Z" style="fill:#2f2f2f"/><path d="M74.1,111.4h0l-.2.3Z" style="fill:#2f2f2f"/><path d="M76.2,111.3h-.1A.1.1,0,0,0,76.2,111.3Z" style="fill:#2f2f2f"/><path d="M72.7,111.5h0Z" style="fill:#2f2f2f"/><path d="M72.6,111.7h.1C72.6,111.6,72.7,111.7,72.6,111.7Z" style="fill:#2f2f2f"/><polygon points="73.3 111.7 73.3 111.8 73.3 111.7 73.3 111.7" style="fill:#2f2f2f"/><path d="M73.3,111.8h0Z" style="fill:#2f2f2f"/><path d="M73.2,112h0Z" style="fill:#2f2f2f"/><path d="M73.4,112h0Z" style="fill:#2f2f2f"/><polygon points="72.4 112.2 72.4 112.2 72.4 112.2 72.4 112.2" style="fill:#2f2f2f"/><polygon points="72.3 112.3 72.3 112.3 72.3 112.2 72.3 112.3" style="fill:#2f2f2f"/><path d="M73.5,112.3Z" style="fill:#2f2f2f"/><path d="M72.1,112.3Z" style="fill:#2f2f2f"/><path d="M72.9,112.6h0c0-.1.1-.1,0-.1h0Z" style="fill:#2f2f2f"/><path d="M73,112.4Z" style="fill:#2f2f2f"/><path d="M72,112.4h-.1C72,112.6,72.1,112.5,72,112.4Z" style="fill:#2f2f2f"/><path d="M72.5,112.9h-.2l-.2.2.7-.6h0Z" style="fill:#2f2f2f"/><path d="M72.8,112.7Z" style="fill:#2f2f2f"/><path d="M73,112.7l-.2.2Z" style="fill:#2f2f2f"/><path d="M73,112.7h0Z" style="fill:#2f2f2f"/><path d="M71.9,113.2l.5-.5Z" style="fill:#2f2f2f"/><polygon points="72.5 113 72.6 113 72.6 113 72.5 113" style="fill:#2f2f2f"/><polygon points="71.6 113.2 71.7 113.2 71.7 113.2 71.6 113.2" style="fill:#2f2f2f"/><polygon points="71.8 113.2 71.5 113.6 71.9 113.2 71.8 113.2" style="fill:#2f2f2f"/><path d="M71.1,113.5h0Z" style="fill:#2f2f2f"/><polygon points="71 113.6 71 113.6 71 113.6 71 113.6" style="fill:#2f2f2f"/><polygon points="70.6 113.7 70.5 113.8 70.7 113.7 70.6 113.7" style="fill:#2f2f2f"/><polygon points="70.2 114 70.5 113.8 70.3 113.9 70.2 114" style="fill:#2f2f2f"/><path d="M69.6,114.3c0-.1.1-.1.1-.2S69.6,114.2,69.6,114.3Z" style="fill:#2f2f2f"/><polygon points="66.2 114.6 66.1 114.7 66.4 114.5 66.2 114.6" style="fill:#2f2f2f"/><path d="M69.4,114.5h0Z" style="fill:#2f2f2f"/><path d="M63.2,117.4c.1-.1.2,0,.2-.2h0c.1,0,.4-.1.4-.2s.1,0,.1.1H64l-.3.2c.1.1.1-.1.2-.1l.6-.2h.1l.2-.2h.1c.1-.1.2-.1.2-.2h1.3c0-.1.2-.1.3-.2H66l.9-.3H67c-.5.1-1,.5-1.5.6l.3-.2.6-.3a2.9,2.9,0,0,1-1,.3c.2,0,.2-.1.3-.2h0l.3-.2h-.2c.1-.2.2-.2.4-.3l.6-.4-1.2.6c.1-.1,0-.1.1-.2s0,.1.1,0h-.3l.7-.8h0l.3-.2h0l-.6.5h-.2s-.1.1-.1,0h.1l.2-.2h0l.5-.4-.7.5c0-.1.2-.1.1-.2s-.1.2-.2.2h0l-.3.2h-.1l-.4.4h-.1c0,.1,0,.2-.1.2s-.1,0-.1.1-.1,0-.1,0h0c.1.1-.1,0-.1.2l-.2.2h-.3c.1,0-.1.1-.1.2h-.2c0,.1-.2.1-.3.3h0Zm2.8-1.1c0,.1.1.1,0,.1h-.1A.1.1,0,0,0,66,116.3Zm-.3-1.1h0Zm-.1.8h0Zm-.1.1h0Zm-.1-.6h0C65.3,115.6,65.4,115.6,65.4,115.5Zm-.1,1.1c-.1,0-.1.1-.1,0Zm-.1-1.1h0Zm-.1.1h0Zm-.3,1.2Z" style="fill:#2f2f2f"/><polygon points="63.6 116.9 63.6 116.9 63.6 116.8 63.6 116.9" style="fill:#2f2f2f"/><path d="M66.7,116.2h0Z" style="fill:#2f2f2f"/><path d="M65.7,116.6Z" style="fill:#2f2f2f"/><path d="M67,116.1h0Z" style="fill:#2f2f2f"/><polygon points="65.1 116.8 65.1 116.8 65.1 116.8 65.1 116.8" style="fill:#2f2f2f"/><path d="M65.2,116.9c-.1,0,.1,0,.1-.1s-.1.1-.2,0A.1.1,0,0,1,65.2,116.9Z" style="fill:#2f2f2f"/><path d="M66,114.7h0Z" style="fill:#2f2f2f"/><path d="M65.8,114.9h0c-.1.1-.1.2-.2.1h.2Z" style="fill:#2f2f2f"/><path d="M65.6,115.1h0C65.5,115.1,65.6,115,65.6,115.1Z" style="fill:#2f2f2f"/><path d="M65.5,115.1h0Z" style="fill:#2f2f2f"/><path d="M65.5,115.1h0Z" style="fill:#2f2f2f"/><path d="M65.4,115.2c0-.1,0,0-.1-.1h.1Z" style="fill:#2f2f2f"/><path d="M68.8,115h0Z" style="fill:#2f2f2f"/><polygon points="65.8 115.7 65.7 115.7 66.5 115.2 65.8 115.7" style="fill:#2f2f2f"/><polygon points="66.1 115.5 66 115.6 66 115.6 66.1 115.5" style="fill:#2f2f2f"/><path d="M67.2,116h0Z" style="fill:#2f2f2f"/><path d="M75.6,116.7h.1a.1.1,0,0,0,.1.1h-.2c-.1.1,0,.2-.1.3l.2-.2h-.1c0-.1.2-.1.2-.1s0-.2.1-.2h-.2A.1.1,0,0,0,75.6,116.7Z" style="fill:#2f2f2f"/><path d="M76,116.1c0,.1-.1.1-.1.2h0Z" style="fill:#2f2f2f"/><path d="M65.5,116.7Z" style="fill:#2f2f2f"/><path d="M65.4,116.7h0Z" style="fill:#2f2f2f"/><path d="M65.3,116.8h0Z" style="fill:#2f2f2f"/><path d="M64.5,117.1h0Z" style="fill:#2f2f2f"/><path d="M75.3,116.9h.1v-.2C75.2,116.7,75.3,116.8,75.3,116.9Z" style="fill:#2f2f2f"/><path d="M75.2,117a.9.9,0,0,0,.1.5h0v-.5S75.1,117,75.2,117Z" style="fill:#2f2f2f"/><polygon points="75.5 116.9 75.5 116.9 75.5 117 75.5 117 75.5 116.9" style="fill:#2f2f2f"/><polygon points="63.3 117.4 63.3 117.4 63.4 117.4 63.3 117.4" style="fill:#2f2f2f"/><path d="M63.3,117.4h0Z" style="fill:#2f2f2f"/><path d="M75.3,117.1v.2h.1S75.3,117.2,75.3,117.1Z" style="fill:#2f2f2f"/><path d="M68,117.6h0c-.1,0,0,0,0,.1s-.1.1-.1.2h-.1c.1.1,0,.1,0,.2h-.1c-.1,0,0,.3-.2.3s.1-.1.1-.2-.2.2-.1.2,0,.1-.1.1v.2h0c0,.1-.1.1-.1.2h-.1c0,.1-.1.2-.1.4h-.1c-.1.1-.1.3-.2.3s-.1.1-.1.2h0c-.1-.1,0-.2,0-.3v.2c0,.1-.1.2,0,.3l-.2.2h.1c-.1-.1,0-.1,0-.2h0c.1.1-.1.1,0,.2h.1v.2h.2c0-.1.1-.1.1-.2h0a.3.3,0,0,1,.1-.2h.1v-.2H67c0-.1-.1-.1-.1-.2h.2s-.1,0,0-.1h.2a.4.4,0,0,0,.1-.3h.1c.1,0,0,0,0-.1h.1c-.1,0,0-.1,0-.2h.1v-.2h.1a.5.5,0,0,1,.2-.4c-.1,0,0-.1,0-.1h0v-.3Zm-1.4,2.5h0Zm.5-.4Zm.2-.4h0Zm.3-.9h.1Z" style="fill:#2f2f2f"/><path d="M66.7,122.7h0Z" style="fill:#2f2f2f"/><path d="M66.9,121.8c-.1,0-.1,0-.1.1A.1.1,0,0,1,66.9,121.8Z" style="fill:#2f2f2f"/><path d="M67,121.4h.1v-.2h0Z" style="fill:#2f2f2f"/><path d="M68.1,117.5h0Z" style="fill:#2f2f2f"/><path d="M66.2,120.7Z" style="fill:#2f2f2f"/><path d="M66.9,120.8h-.1a1.9,1.9,0,0,0-.2.8h-.1c.1.1,0,.2.1.4s.1-.3.1-.5h.1l.2-.4h0v-.3h0c0-.1.2-.3.1-.4s.1-.1.1-.2h0a.1.1,0,0,0-.1.1h0c-.1,0-.1.2-.2.1s.1.1,0,.2h0c.1.1-.1.2-.1.3h-.1v.2Zm.2-.5v0Zm-.1.2h0Zm-.1.3h0Zm0-.2h0Z" style="fill:#2f2f2f"/><path d="M66.2,120.8h0Z" style="fill:#2f2f2f"/><path d="M66.9,120.5Z" style="fill:#2f2f2f"/><path d="M67.3,120.6h-.1A.1.1,0,0,0,67.3,120.6Z" style="fill:#2f2f2f"/><path d="M67.8,118.3Z" style="fill:#2f2f2f"/><path d="M67.1,121.2c0-.1.1-.1,0-.2h0c.1,0,.1-.2.1-.2h0a.8.8,0,0,1-.2.4Z" style="fill:#2f2f2f"/><path d="M67.8,118.3h0Z" style="fill:#2f2f2f"/><path d="M66.8,120.5h0Z" style="fill:#2f2f2f"/><path d="M66.9,121.6h0Z" style="fill:#2f2f2f"/><path d="M74.9,117.4h0l.2.2Z" style="fill:#2f2f2f"/><path d="M67.9,117.7Z" style="fill:#2f2f2f"/><path d="M74.9,117.5c0,.1.2.1.2.2A.2.2,0,0,0,74.9,117.5Z" style="fill:#2f2f2f"/><path d="M67.8,118.9h0Z" style="fill:#2f2f2f"/><path d="M67.7,119a.6.6,0,0,1-.1.4c0-.1,0-.1.1-.1v-.2Z" style="fill:#2f2f2f"/><polygon points="67.6 119.5 67.6 119.5 67.6 119.5 67.6 119.5" style="fill:#2f2f2f"/><path d="M67.6,119.5h-.1c.1,0,.1.1,0,.1Z" style="fill:#2f2f2f"/><path d="M67.6,119.4Z" style="fill:#2f2f2f"/><path d="M67.3,120.1Z" style="fill:#2f2f2f"/><path d="M67.5,119.7h0c-.1,0-.1.1-.1.2h0Z" style="fill:#2f2f2f"/><path d="M67.3,120.2h0Z" style="fill:#2f2f2f"/><path d="M67.4,120.4h0Z" style="fill:#2f2f2f"/><path d="M78.3,108c.1,0,.3-.2.3-.1h1.1c-.2-.1-.3-.4-.5-.4a.7.7,0,0,0-.5-.4c0,.1-.2,0-.2.2A.8.8,0,0,0,78.3,108Z" style="fill:#2f2f2f"/><path d="M77.7,107.8h0Z" style="fill:#2f2f2f"/><path d="M77.1,107.8h0S77,107.7,77.1,107.8Z" style="fill:#2f2f2f"/><path d="M77.2,108.2H77l.2.2a.7.7,0,0,0,.5-.4h-.5Z" style="fill:#2f2f2f"/><path d="M77.1,107.6h.1a.2.2,0,0,0-.2.2c0,.1-.1.2,0,.4h.2s-.2,0-.1-.1a.1.1,0,0,0,0-.2h0c-.1-.1,0-.1,0-.1h.1S77.2,107.7,77.1,107.6Z" style="fill:#2f2f2f"/><path d="M77.5,107.9h-.2c0,.1-.1.1,0,.2s.2-.2.2,0h.3v-.2h-.2Z" style="fill:#2f2f2f"/><path d="M75.8,108.5h.1l.6-.3h-.6C75.9,108.4,75.9,108.5,75.8,108.5Z" style="fill:#2f2f2f"/><path d="M76.7,108h-.1c-.2.1-.4-.1-.5.1v.2h.6C76.7,108.1,76.8,108,76.7,108Z" style="fill:#2f2f2f"/><path d="M78.6,108.3l.6-.2h-.1C79,108.2,78.7,108,78.6,108.3Z" style="fill:#2f2f2f"/><path d="M76.8,114.3l-.3.8A1.1,1.1,0,0,0,76.8,114.3Z" style="fill:#2f2f2f"/><path d="M76.9,114.3h0Z" style="fill:#2f2f2f"/><path d="M78.3,108.6h.1a1.3,1.3,0,0,0-.6,1,2.3,2.3,0,0,0-.3,1.1c-.2.1-.2.3-.3.4s0,.1-.1.2a.1.1,0,0,1,.1.1,11.5,11.5,0,0,1-.3,2.6v.3a7.6,7.6,0,0,1,.3-1.6,5.6,5.6,0,0,0,0-1.3,10.9,10.9,0,0,0,.9-2.3h0l.3-.4Z" style="fill:#2f2f2f"/><path d="M77.1,111.2h0c.1-.1.1-.1.1-.2S77.2,111.2,77.1,111.2Z" style="fill:#2f2f2f"/><path d="M77.2,111.1h0Z" style="fill:#2f2f2f"/><path d="M73,109.4c-.1,0-.1,0-.1-.1H73Z" style="fill:#2f2f2f"/><path d="M72.8,109.2c-.1,0,0,0,0-.1h0c-.1,0-.1.1-.1.2h.1Z" style="fill:#2f2f2f"/><path d="M72.8,109.1Z" style="fill:#2f2f2f"/><path d="M70.9,109.3h-.1c0-.1,0-.1.1-.1Z" style="fill:#2f2f2f"/><path d="M70.9,109.3Z" style="fill:#2f2f2f"/><path d="M70.6,109.7h.2a.2.2,0,0,0,.2.2h.4c-.2,0-.2-.2-.3-.2H71v-.2h0c-.1,0-.1,0-.1.1v.2Z" style="fill:#2f2f2f"/><path d="M70.8,109.3Z" style="fill:#2f2f2f"/><polygon points="70.9 109.3 70.9 109.3 70.9 109.3 70.9 109.3" style="fill:#2f2f2f"/><path d="M71.9,109.5h.2a.5.5,0,0,0-.4-.2C71.8,109.4,71.8,109.5,71.9,109.5Z" style="fill:#2f2f2f"/><path d="M72,109.5h0Z" style="fill:#2f2f2f"/><path d="M70.5,110.7l.3.2a.4.4,0,0,0-.1-.3c0-.1,0-.2-.1-.2h-.1v.3Z" style="fill:#2f2f2f"/><path d="M69.5,110.8c.1,0,0,.1,0,.1l.2.2c.2-.1.2.1.4,0h-.2c-.1-.1,0-.2-.1-.3v-.2h-.1l-.2.2C69.5,110.7,69.7,110.7,69.5,110.8Z" style="fill:#2f2f2f"/><path d="M72.6,110.4h0v.2h.2c-.1.1-.2,0-.2-.1h-.1Z" style="fill:#2f2f2f"/><path d="M72.9,110.7h0S72.8,110.7,72.9,110.7Z" style="fill:#2f2f2f"/><path d="M72.8,110.6h-.1v-.2h0s.1.1,0,.1h.3c-.1,0,0-.1,0-.1h-.1Z" style="fill:#2f2f2f"/><path d="M72.9,110.8Z" style="fill:#2f2f2f"/><polygon points="73 110.7 73 110.7 73 110.7 73 110.7" style="fill:#2f2f2f"/><path d="M72.7,110.4Z" style="fill:#2f2f2f"/><path d="M72.6,110.6c.1,0,0-.1,0-.1h0Z" style="fill:#2f2f2f"/><path d="M71.5,111.1c.1,0-.1.1.1.1s.1-.1,0-.2h.2a.1.1,0,0,0,.1-.1h0a.3.3,0,0,1-.1-.2h-.2c.1.2-.4.3-.2.6A.1.1,0,0,0,71.5,111.1Z" style="fill:#2f2f2f"/><path d="M71.4,111.2h.5a.1.1,0,0,0,.1-.1h-.1a.1.1,0,0,0-.1.1h0a.1.1,0,0,0,.1-.1h-.3c.1-.1.1,0,.1-.1h0c.1,0,0-.2.1-.1h.1a.1.1,0,0,1-.1.1h-.2c.1.1-.1.1,0,.2s0-.1-.1-.1a.1.1,0,0,1-.1.1Z" style="fill:#2f2f2f"/><polygon points="72 111.1 72 111.1 72 111.1 72 111.1" style="fill:#2f2f2f"/><path d="M71.8,110.6h0Z" style="fill:#2f2f2f"/><path d="M71.9,111.1a.1.1,0,0,1-.1.1h.1Z" style="fill:#2f2f2f"/><polygon points="71.8 111.2 71.8 111.2 71.8 111.2 71.8 111.2" style="fill:#2f2f2f"/><path d="M71.9,110.9h-.1c-.1-.1,0,.1-.1.1h0c0,.1,0,0-.1.1h.2a.1.1,0,0,1,.1-.1h0Zm-.1.2h0Z" style="fill:#2f2f2f"/><polygon points="71.8 111.1 71.8 111.1 71.8 111.1 71.8 111.1" style="fill:#2f2f2f"/><polygon points="72 111.1 72 111.1 72 111.1 72 111.1" style="fill:#2f2f2f"/><path d="M72,111.1Z" style="fill:#2f2f2f"/><path d="M71.4,111.2Z" style="fill:#2f2f2f"/><path d="M71.7,111.3h0Z" style="fill:#2f2f2f"/><path d="M66.7,114.3h.2l.2-.2H67l.4-.6h-.2l.5-.9a1,1,0,0,0,.1-.3h0a5.7,5.7,0,0,0-1.2,1.8Z" style="fill:#2f2f2f"/><path d="M67,114h.1l.3-.3h.1l.6-.5c-.1-.1-.1,0-.2,0l-.4.2h0c0-.1-.1,0-.1,0h0Z" style="fill:#2f2f2f"/><path d="M68.3,115h-.1c0,.2-.3.1-.3.3a.1.1,0,0,0-.1.1l.4-.2c0-.1.1-.1.1-.2h0Z" style="fill:#2f2f2f"/><path d="M67.4,115h0Z" style="fill:#2f2f2f"/><path d="M67.8,115h-.1c0-.1.1-.1.1-.2h0c.2,0,.1-.1.2-.2l.2-.3h.1l.3-.4v-.3c-.1-.1-.2.1-.2.1h-.1a.1.1,0,0,1-.1.1h0a10.1,10.1,0,0,1-.9,1.3h.1a1.1,1.1,0,0,1-.1.5h.3C67.7,115.3,67.9,115.1,67.8,115Zm-.1.1Z" style="fill:#2f2f2f"/><path d="M67.8,114.8Z" style="fill:#2f2f2f"/><path d="M68.6,113.8h0l-.3.4Z" style="fill:#2f2f2f"/><path d="M69.8,113.7h0c-.4.5-1.1.7-1.6,1.2h-.1l.3-.3-.4.2c0-.2.1-.2.2-.3h0l-.2.3c-.1.1,0,.2-.2.2s-.1.1-.1.2h.1c.1.1-.1.3-.1.5h.1a.1.1,0,0,1,.1-.1c0-.2.3-.1.3-.3h.1Zm-1.5,1.2h0s.1-.1,0-.1h0Z" style="fill:#2f2f2f"/><polygon points="67.6 115.1 67.7 115.1 67.7 115.1 67.6 115.1" style="fill:#2f2f2f"/><polygon points="67.7 115.1 67.7 115.1 67.7 115.1 67.7 115.1" style="fill:#2f2f2f"/><polygon points="68.3 114.9 68.3 114.9 68.3 114.9 68.3 114.9" style="fill:#2f2f2f"/><path d="M68.2,114.9Z" style="fill:#2f2f2f"/><path d="M68.3,114.9h0C68.4,114.8,68.3,114.9,68.3,114.9Z" style="fill:#2f2f2f"/><path d="M73.1,114.3h.2c-.1-.2,0-.5-.2-.6S72.9,114.2,73.1,114.3Z" style="fill:#2f2f2f"/><path d="M68.8,115.1l-.4.5h.1c0,.1,0,0,.1,0h.1a17.4,17.4,0,0,0,1.2-1.4h-.1A3.9,3.9,0,0,1,68.8,115.1Z" style="fill:#2f2f2f"/><path d="M69.8,114.3h0Z" style="fill:#2f2f2f"/><path d="M72.4,114.3c.1.2,0,.6.2.7h.1a2.9,2.9,0,0,0-.2-.9S72.6,114.3,72.4,114.3Z" style="fill:#2f2f2f"/><path d="M70,115.3a2.3,2.3,0,0,0,.7-1,2.3,2.3,0,0,1-.8.9h-.1C69.9,115.2,69.9,115.4,70,115.3Z" style="fill:#2f2f2f"/><path d="M69.1,115.5l.2.2a9.4,9.4,0,0,0,.9-1.2v-.2Z" style="fill:#2f2f2f"/><polygon points="65.9 114.7 65.6 114.9 65.6 114.9 65.9 114.7" style="fill:#2f2f2f"/><path d="M72.2,115.1v-.4h0c-.1-.1,0-.2-.1-.2s-.2.3-.1.4v.3c.1-.1,0-.1.1-.2Z" style="fill:#2f2f2f"/><path d="M72.2,114.6h0Z" style="fill:#2f2f2f"/><path d="M71.3,114.9l.3.2c.1-.1.1-.2.2-.4s-.2,0-.2-.1-.2.2-.4.1h.1Z" style="fill:#2f2f2f"/><path d="M70.7,115.1h0Z" style="fill:#2f2f2f"/><path d="M70.7,115.1Z" style="fill:#2f2f2f"/><path d="M70.4,115.1c0,.1.1,0,.1.1h-.1c.1.1.2,0,.2-.1h0l.3-.3C70.7,114.9,70.6,115.1,70.4,115.1Z" style="fill:#2f2f2f"/><path d="M64.1,116.3l1.4-1.3-.4.3c-.1,0,0-.1.1-.2l-.3.3h0c-.1.3-.5.4-.8.7h.1l.2-.2h0c-.2.2-.4.5-.7.6h.1Zm.4-.5h0Zm-.1.2h0Z" style="fill:#2f2f2f"/><path d="M64.5,115.9h0Z" style="fill:#2f2f2f"/><path d="M64.5,115.9h0Z" style="fill:#2f2f2f"/><path d="M64.4,116h0Z" style="fill:#2f2f2f"/><polygon points="65.3 115.1 65.2 115.1 65.3 115.1 65.3 115.1" style="fill:#2f2f2f"/><polygon points="76.4 115.4 76.4 115.5 76.5 115.2 76.4 115.4" style="fill:#2f2f2f"/><polygon points="76.4 115.6 76.4 115.5 76.4 115.6 76.4 115.6" style="fill:#2f2f2f"/><path d="M77,115.7h-.1v.2h.3C77.3,115.7,77.1,115.7,77,115.7Z" style="fill:#2f2f2f"/><path d="M69.6,116.5h-.5a.6.6,0,0,1,.1.4h0c-.1.2-.2,0-.3-.1h-1c-.3.1-.7,0-1,.2h-.4a10.9,10.9,0,0,1,1.8-.1h1.2a.1.1,0,0,1,.1-.1Z" style="fill:#2f2f2f"/><path d="M65,117.2h0Z" style="fill:#2f2f2f"/><path d="M65,117.2h.4l.8-.3a.1.1,0,0,0,.1-.1c0,.1-.1.1-.2.1H65c-.1.2-.3.1-.5.2Zm.7-.3h0Zm-.2,0h0Zm-.2.1h0Z" style="fill:#2f2f2f"/><polygon points="65.7 116.9 65.6 116.9 65.6 116.9 65.7 116.9" style="fill:#2f2f2f"/><polygon points="77.2 115.9 77.1 116 77.2 116 77.2 115.9" style="fill:#2f2f2f"/><path d="M77.4,116.8h-.3l-.6.4c0,.3-.3.4-.4.6l-.5.4c-.2,0-.3-.2-.4-.3h-.1v.2l.4.6c.1-.1.1.1.2,0h0l.3-.3c-.1-.2.2-.1.1-.3a3.8,3.8,0,0,1,1-1.2c0,.1,0,.2.1.2s.1.3.3.3a.9.9,0,0,1,.5-.3h.3C78,116.9,77.6,117,77.4,116.8Z" style="fill:#2f2f2f"/><path d="M77.7,116.6h.2c.2.2.7-.1.7.3h.1a.9.9,0,0,0-.1-.5h-.7l.4-.2c0-.1.2.1.3,0h.1c-.1-.1,0-.1-.1-.2H78c-.1.2-.2.2-.3.2l-.4.3h.4Z" style="fill:#2f2f2f"/><path d="M67.8,117.2c-.4,0-.4.6-.6.9h.2C67.7,118,67.7,117.5,67.8,117.2Z" style="fill:#2f2f2f"/><path d="M69.1,117.7l-.4.4v.4c.2-.1.3-.4.4-.5H69C68.9,117.9,69.1,117.8,69.1,117.7Z" style="fill:#2f2f2f"/><polygon points="75 118 75 118.1 75 118.1 75 118 75 118" style="fill:#2f2f2f"/><polygon points="74.1 118.2 74.3 118 74.1 118.1 74.1 118.2" style="fill:#2f2f2f"/><path d="M74.4,118.2h.2A.2.2,0,0,1,74.4,118.2Z" style="fill:#2f2f2f"/><path d="M69.2,118.4h-.1c-.2.1-.3.4-.5.5h0c.3.1.4-.2.7-.3Z" style="fill:#2f2f2f"/><path d="M66.8,118.8H67v-.2Z" style="fill:#2f2f2f"/><path d="M74,118.3h-.2a12.5,12.5,0,0,1-1.2.8l-.8.2h0a3.1,3.1,0,0,0,1.6-.6l.7-.5S74,118.4,74,118.3Z" style="fill:#2f2f2f"/><path d="M69.7,118.5c-.2.1-.5,0-.5.3h.2l.5-.2Z" style="fill:#2f2f2f"/><path d="M67.2,120.5h.1c0-.1,0-.2.1-.2h-.1a.1.1,0,0,0,.1-.1l.5-1.4.2-.2-.4.4h.1a.1.1,0,0,1-.1.1h-.1v.2c0,.1-.1.1,0,.1h.1c-.1,0,0,.1-.1.1h0c-.1.1,0,.2-.1.3h-.1c0,.1.1.1,0,.1h0v.2Zm.1-.1Z" style="fill:#2f2f2f"/><path d="M67,121.2Z" style="fill:#2f2f2f"/><path d="M66.3,120.6Z" style="fill:#2f2f2f"/><path d="M66.7,122.1h.1c-.1.1,0,.1-.1.2h-.1c0,.2-.1.3-.1.5h.2c0-.2.1-.5.1-.7Zm0,.2h0Z" style="fill:#2f2f2f"/><path d="M66.9,121.8h0Z" style="fill:#2f2f2f"/><path d="M66.2,120.7Z" style="fill:#2f2f2f"/><path d="M66.3,122.8H66c0-.1,0-.3.1-.3h-.2c.1,0,.1-.2.2-.3H66a.1.1,0,0,1-.1.1H66v-.6h0c-.1,0-.1.2-.2.2s0-.2.1-.2h0a1.4,1.4,0,0,0,.2-.6h-.1a2.5,2.5,0,0,1,.2-.7h.1v-.2a4.1,4.1,0,0,1,.3-.8c.1,0,.1-.2.1-.3l-.2.5-.3.5c-.4.7-.6,1.5-1,2.3v.2c0,.3-.2.8,0,1.1h.3a.4.4,0,0,0,.1.3h.4c.1,0,.2-.2.4-.1s0-.3.1-.4v-.2a.6.6,0,0,1,.1-.4h-.4Zm-.1-2h-.1A.1.1,0,0,0,66.2,120.8Zm-.2.4h0Zm0,.2h0Z" style="fill:#2f2f2f"/><path d="M66.8,120.5h0v-.3h-.1Z" style="fill:#2f2f2f"/><path d="M67.4,120.1v0Z" style="fill:#2f2f2f"/><path d="M66.9,121.5H67c-.1,0,0-.1-.1-.1h-.2c0,.1.1.1,0,.1s.1-.2.2-.2h0Z" style="fill:#2f2f2f"/><path d="M67.2,120.7h0Z" style="fill:#2f2f2f"/><polygon points="66.8 120.5 66.8 120.5 66.8 120.5 66.8 120.5" style="fill:#2f2f2f"/><path d="M66.8,121.4Z" style="fill:#2f2f2f"/><path d="M66.8,121.5h0Z" style="fill:#2f2f2f"/><path d="M66,122h0Z" style="fill:#2f2f2f"/><path d="M66.8,120.5a.3.3,0,0,0-.1.2h0c0,.1-.1.1-.1.2h-.2v-.2h-.3a1.4,1.4,0,0,1-.2.6h0c-.1,0-.1.1-.1.2s.1-.2.2-.2h0v.6h.1c-.1.1-.1.3-.2.3h.2c-.1,0-.1.2-.1.3h.5c0-.2.1-.3.1-.5h.1c.1-.1,0-.1.1-.2h-.1v-.2c0-.1,0-.1.1-.1h0c-.1,0,0,.3-.2.2s0,0,0-.1-.1.3-.1.5,0-.3-.1-.4h.1a1.9,1.9,0,0,1,.2-.8h0v-.2Zm-.5,1.3Zm0,.2Zm.4,0Z" style="fill:#2f2f2f"/><path d="M66.9,120.3h0Z" style="fill:#2f2f2f"/><path d="M66,122.1h-.1A.1.1,0,0,0,66,122.1Z" style="fill:#2f2f2f"/><path d="M67.1,120.6h0v.3h0l-.2.4h.1c.1,0,0,.1.1.1h0a.8.8,0,0,0,.2-.4h-.1Zm-.1.7h0Z" style="fill:#2f2f2f"/><path d="M66.9,121.5Z" style="fill:#2f2f2f"/><path d="M67.8,119.1h-.1v.2h0A.1.1,0,0,0,67.8,119.1Z" style="fill:#2f2f2f"/><path d="M67.7,119.2Z" style="fill:#2f2f2f"/><path d="M67.6,119.4Z" style="fill:#2f2f2f"/><path d="M67.6,119.5Z" style="fill:#2f2f2f"/><polygon points="67.5 119.8 67.5 119.8 67.5 119.9 67.5 119.8" style="fill:#2f2f2f"/><path d="M67.4,120.1c.1-.1,0-.2.1-.3s0,0,0-.1v.2h0v.2h0Z" style="fill:#2f2f2f"/><path d="M67.5,119.9c.1,0,0-.1.1-.1h-.1Z" style="fill:#2f2f2f"/><path d="M67.3,120.2h0C67.4,120.3,67.3,120.3,67.3,120.2Z" style="fill:#2f2f2f"/><path d="M67.3,120.4h.1A.1.1,0,0,1,67.3,120.4Z" style="fill:#2f2f2f"/><polygon points="67.3 120.4 67.3 120.4 67.3 120.4 67.3 120.4" style="fill:#2f2f2f"/><path d="M66.2,120.9h0a.1.1,0,0,1-.1.1Z" style="fill:#2f2f2f"/><path d="M66,121.2h0Z" style="fill:#2f2f2f"/><path d="M66,121.4h0Z" style="fill:#2f2f2f"/><polygon points="66.4 120.6 66.4 120.6 66.4 120.6 66.4 120.6" style="fill:#2f2f2f"/><path d="M67.2,120.6h0Z" style="fill:#2f2f2f"/><polygon points="66.3 120.7 66.4 120.7 66.4 120.7 66.3 120.7 66.3 120.7" style="fill:#2f2f2f"/><path d="M67.1,120.8h0Z" style="fill:#2f2f2f"/><path d="M66.7,120.7h0Z" style="fill:#2f2f2f"/><path d="M67.1,121.1Z" style="fill:#2f2f2f"/><polygon points="67 121.3 67 121.1 67 121.2 67 121.3" style="fill:#2f2f2f"/><path d="M66.7,122h0Z" style="fill:#2f2f2f"/><path d="M70.9,118.8h-.6c-.1,0,0,.1,0,.1a1.1,1.1,0,0,0,.8-.1C71,118.9,71,118.7,70.9,118.8Z" style="fill:#2f2f2f"/><polygon points="73 118.8 73.1 118.7 73 118.8 73 118.8" style="fill:#2f2f2f"/><path d="M72.4,118.8s-.1.1-.1,0-.4.2-.6.1h-.8l1.3-.2-.5.2C71.9,119,72.2,119,72.4,118.8Z" style="fill:#2f2f2f"/><path d="M85.8,120.7a2.7,2.7,0,0,0-.7-.8.1.1,0,0,1,.1-.1c-.3,0-.3-.5-.6-.5s-.3-.2-.5-.4-.9-.6-1.5-.8.2.2.2.3l.7.6c0,.6.7.7,1,1.1s1.4,1.2,2,1.9l1,1.1c-.1-.2-.3-.4-.3-.6S86.5,121.2,85.8,120.7Z" style="fill:#2f2f2f"/><path d="M87.9,120.7c-.1-.3-.5-.5-.6-.9a5,5,0,0,0-1.9-1h.3l-1.4-.3h.2c0,.1-.1,0-.1,0h0a11.9,11.9,0,0,1,2.5,1.3,8.1,8.1,0,0,1,1,.9c.1-.1.1.1.2.1Z" style="fill:#2f2f2f"/><path d="M85.7,118.8h0Z" style="fill:#2f2f2f"/><path d="M82.6,117.8h0c-.1,0-.2-.2-.3-.1l-1.1-.2c-.6-.3-1.4-.3-2-.6h-.6l-.9-.2-.3.2.9.2h.1l1,.3a3.4,3.4,0,0,1,1.9.7c.2.1-.2.3.1.4a1.3,1.3,0,0,0,.9-.1c.2-.2.4-.3.4-.5Z" style="fill:#2f2f2f"/><path d="M75.7,116.5h.1a.1.1,0,0,0,.1-.1l-3.3-.5H71.3c-.1.1-.2,0-.3,0h.1a.6.6,0,0,1-.6,0h-.4c-.1.1-.3,0-.3.2h.4c-.1.2-.3.2-.6.4h.2v.2c.1-.1.1,0,.1,0s.2-.1.2,0l.3-.4c.1.1.1-.1.2-.1a10.9,10.9,0,0,1,1.8.1,5.9,5.9,0,0,1,2.3.1l1.1.2Z" style="fill:#2f2f2f"/><path d="M77.3,116.5l-1.4-.2h0v.3h1.2A.2.2,0,0,0,77.3,116.5Z" style="fill:#2f2f2f"/><path d="M75.9,116.3h0a.1.1,0,0,1-.1.1h.1v-.3Z" style="fill:#2f2f2f"/><path d="M70.4,116.1h-.8c.3-.2.5-.2.6-.4Z" style="fill:#2f2f2f"/><path d="M78.6,116.8h0Z" style="fill:#2f2f2f"/><path d="M77.7,116.6h-.4a.2.2,0,0,1-.2.2h.3Z" style="fill:#2f2f2f"/><path d="M78.3,117h0Z" style="fill:#2f2f2f"/><path d="M70.7,115.8Z" style="fill:#2f2f2f"/><path d="M70.8,115.8h-.1C70.8,115.8,70.8,115.9,70.8,115.8Z" style="fill:#2f2f2f"/><path d="M68.6,116.3h.5c0-.1,0-.1.1-.2h0c-.3.2-.3-.3-.6-.1s-.1.3-.2.3h-.8l-1.3.4h.5A9.9,9.9,0,0,1,68.6,116.3Zm-2.1.3h0Z" style="fill:#2f2f2f"/><path d="M65.7,117h-.5a5.1,5.1,0,0,0-2,1.2c-.4.2-.6.6-.9.8s-.2.2-.2.3h.1a15.7,15.7,0,0,1,2.6-1.9l1.5-.7C66.1,117,65.9,116.8,65.7,117Z" style="fill:#2f2f2f"/><path d="M67.9,116.6h1c.1.1.2.3.3.1h0a.6.6,0,0,0-.1-.4h-.5a9.9,9.9,0,0,0-1.8.2h-.5a.1.1,0,0,1-.1.1l-.8.3h.3c.2-.2.4,0,.6-.1h.6C67.2,116.6,67.6,116.7,67.9,116.6Zm-2,.2h0Zm.3-.1h0Zm.2,0h0Z" style="fill:#2f2f2f"/><path d="M65.2,117.1h0Z" style="fill:#2f2f2f"/><path d="M66.2,116.7Z" style="fill:#2f2f2f"/><polygon points="66.2 116.8 66.2 116.7 66.1 116.8 66.2 116.8" style="fill:#2f2f2f"/><polygon points="65.9 116.8 66.1 116.8 66 116.8 65.9 116.8" style="fill:#2f2f2f"/></g></g></svg>