<svg xmlns="http://www.w3.org/2000/svg" viewBox="0 0 158.8 25.4"><title>xingming01</title><g id="图层_2" data-name="图层 2"><g id="图层_1-2" data-name="图层 1"><path d="M39,21.8a8.3,8.3,0,0,1-1.3,1.8,3.9,3.9,0,0,1-1.6,1,5.8,5.8,0,0,1-1.9.3l-1.8-.4a13.2,13.2,0,0,0-3-1l-3-.6H23.7l-3,.2a13.6,13.6,0,0,0-2.9.3l-2.1.4H14.5a1,1,0,0,1-.6-.5.8.8,0,0,1,0-.9,2,2,0,0,1,.9-1c.2-.2.3-.3.2-.4s-.2-.2-.5-.2l-1.9-.6c-.3-.1-.5-.2-.6-.1s-.4.2-.8.5a12.9,12.9,0,0,1-5.2,3L4.4,24H3l-1.1-.4a1.6,1.6,0,0,1-.7-.7c-.3-.5-.2-.9.4-1A25.3,25.3,0,0,0,8.7,19a2.3,2.3,0,0,0,.5-.5c0-.2-.2-.4-.5-.7a14.3,14.3,0,0,1-2.3-2.6A2.6,2.6,0,0,1,6,13.8a8.6,8.6,0,0,1-.1-1.6c.1-.4.1-.6,0-.7H5.3L2.6,12q-1.8.3-2.4-.3c-.3-.4-.3-1,.3-1.7A4,4,0,0,1,1.9,8.7,2.3,2.3,0,0,1,3,8.5H6.9l.5-.7A26,26,0,0,1,8.9,5c.6-1,1.4-2,2.2-3.1S12.2.8,12.7.8a2,2,0,0,1,1.7.6,1.9,1.9,0,0,1,.7,1.8,2.9,2.9,0,0,1-1.2,2.1,4.9,4.9,0,0,0-1.3,1.2,7.1,7.1,0,0,0-1,1.4.6.6,0,0,0-.2.5h1.5l.6-.2a2.3,2.3,0,0,1,1.2-.1,1.3,1.3,0,0,1,1,.7,3.1,3.1,0,0,1,.5,1.1,4.4,4.4,0,0,1-.2,1,4.7,4.7,0,0,0-.5,1,3.7,3.7,0,0,0-.2,1.2,13.3,13.3,0,0,1-1.3,4l-.3.6a.5.5,0,0,0,.3.4l.8.4.9.5a1.3,1.3,0,0,1,.9.9,1.5,1.5,0,0,0,.6.4,4.1,4.1,0,0,0,1.6.3h4.4q.8,0,.9-.3c.2-.2.2-.7.3-1.6s-.1-1.3-.4-1.5a2.8,2.8,0,0,0-1.5-.3l-1.9.2-1.4.2a1.8,1.8,0,0,1-1,.1,1.5,1.5,0,0,1-.8-.4,1.4,1.4,0,0,1-.2-.7c0-.3.2-.5.4-.8a3.8,3.8,0,0,1,1.3-.9,2.3,2.3,0,0,1,1.4-.1h3.1a1.9,1.9,0,0,0,.9-.4,2.7,2.7,0,0,0,.2-1.1c0-.6,0-1-.2-1.2s-.3-.4-.7-.4H20.5l-.8.2-.5.4-.7.6-.6.4-.9.2a1.4,1.4,0,0,1-.9-.1c-.2-.1-.3-.2-.3-.4s.1-.5.4-.8a12,12,0,0,0,1.9-2.7,9.5,9.5,0,0,0,.7-3.5,2.1,2.1,0,0,1,.7-1.4A2.1,2.1,0,0,1,20.9,4c1.2.3,1.6,1.1,1.4,2.6A7.4,7.4,0,0,1,21.9,8a1.4,1.4,0,0,0,0,.9H23a3.1,3.1,0,0,0,1.3-.2q.3-.2.3-.9c0-1.9-.1-3.6-.2-5.2s.1-1.8.5-2.2.9-.3,1.8.1l1.3.8a1.8,1.8,0,0,1,.7.9,2.2,2.2,0,0,1,.2,1.2,11.6,11.6,0,0,1-.1,1.7,6.2,6.2,0,0,1-.1,1.3,9.2,9.2,0,0,1-.1,1.6c0,.4,0,.6.1.7s.4.2.8.3h2.6l2.7.2c.8.1,1.2.5,1.1,1.1a1.3,1.3,0,0,1-.5.7H29.6q-.7,0-.9.3c-.2.2-.2.6-.3,1.2s0,1.1.2,1.3a2.5,2.5,0,0,0,1.2.2h4.1a2.3,2.3,0,0,1,1.3.3c.3.1.4.3.4.7a1.3,1.3,0,0,1-.5.9,2.4,2.4,0,0,1-1.5.3H29.3q-.7,0-.9.3a3,3,0,0,0-.2,1.4v1.1a.8.8,0,0,0,.2.6l.5.3h9.5C39.2,20.4,39.4,20.9,39,21.8ZM12.6,11.7c0-.7-.3-1-1-1l-1.1.2-.6.2q-.2,0-.3.3l-.2.5a6,6,0,0,0,0,1.9,4.1,4.1,0,0,0,1.3,2.1c.2.2.4.3.5.2s.3-.2.4-.4a8.4,8.4,0,0,0,.7-1.9Z" style="fill:#fcc03c"/><path d="M75.9,16.7c-.1.4-.1,1-.2,1.6s-.1,1.6-.2,2.9a7.8,7.8,0,0,1-.4,1.9,1.6,1.6,0,0,1-.7.9,2.1,2.1,0,0,1-1.2.3l-1.5-.4-1-.3H69.6l-2.7-.2h-9a1.4,1.4,0,0,0-1,.5,1.1,1.1,0,0,1-.6.2l-.7.2a2.1,2.1,0,0,1-1.6-.6,3.8,3.8,0,0,1-.6-2.4,12.1,12.1,0,0,1-.1-1.8c0-.5-.1-1-.1-1.4V15.9a.8.8,0,0,0-.2-.6c-.1-.1-.5,0-1.1.2l-2.6.9-2.5.7-2,.4-1.3.2a4,4,0,0,1-2.6-.7,3.8,3.8,0,0,1-1.2-1.7.8.8,0,0,1-.1-.8.8.8,0,0,1,.6-.2L43,14l3.3-.6,3.7-.8,4.6-1.3,3.3-1.1,3-1.2,2.5-1.3,1.8-1.1a.9.9,0,0,0,.4-.7.5.5,0,0,0-.4-.5H61.5a6,6,0,0,0-1.9,0l-1.3.2-.5.2-.4.2a.1.1,0,0,0-.1.1.4.4,0,0,0,.1.3,1.9,1.9,0,0,0,.8.4l1.2.5,1.3.3.8.2c.4,0,.6.1.6.2s-.1.3-.5.6l-1.4.7-1.6.3H57l-1.6-.4a1,1,0,0,1-.8-.6,3.8,3.8,0,0,1,.1-1q.3-.9-.3-.6l-4,.9L48.2,8a3.7,3.7,0,0,1-1.9-.2,1.9,1.9,0,0,1-1.2-1.4.6.6,0,0,1,0-.6q.3-.5.6-.3h1.5l2-.2,2.2-.3,1.8-.4a16,16,0,0,0,3.5-1.4A16,16,0,0,0,59.8.9,4.4,4.4,0,0,1,61.4,0a2,2,0,0,1,1.4.5,1.6,1.6,0,0,1,.6.8,3.6,3.6,0,0,1-.2,1c-.2.3,0,.5.4.5l1.7.3,1.7.3h2.9a3.5,3.5,0,0,1,1.8.2,3.5,3.5,0,0,1,1.1.9,1.9,1.9,0,0,1,.1,1.9,3.6,3.6,0,0,1-2.1,1.5,12,12,0,0,0-1.7.6L65.9,9.8,62,11.4l-3.7,1.5-.7.4a.2.2,0,0,0,0,.3l.5.2h.8l3.8-.4h4.5l1.9.3,2,.3,1.8-.4.9-.2,1,.3a2.1,2.1,0,0,1,1,1.1A3.6,3.6,0,0,1,75.9,16.7Zm-4,.2a.8.8,0,0,0-.2-.5,1.2,1.2,0,0,0-.9-.3H61.1l-3.3.3-.6.2a.6.6,0,0,0-.2.5,5.3,5.3,0,0,0-.1,1.3,6.5,6.5,0,0,0,0,1.4c.1.4.1.6.2.7l.7.2H70.4c.7-.1,1.2-.4,1.3-.8s.1-.7.1-1.2A9.7,9.7,0,0,0,71.9,16.9Z" style="fill:#fcc03c"/><path d="M90.5,13.3l-1,.2-1.2.2H86.7l-2-.2a5.6,5.6,0,0,1-3.1-1,1.5,1.5,0,0,1-.6-1.9c.2-.6.5-1,.9-1.1a3.1,3.1,0,0,1,1.8-.1l.7.2a2.1,2.1,0,0,1,1.1.5l3,1.4a7.8,7.8,0,0,0,1.9.6,1,1,0,0,1,.8.5C91.2,12.9,91,13.1,90.5,13.3Zm1.3,4.1-.3.8-.7.8-1.1.9L88,21.1l-1.1.6a1.3,1.3,0,0,1-.8.3H84.7l-1.1-.6a1.8,1.8,0,0,1-.4-1,1.6,1.6,0,0,1,.6-1.4,3.6,3.6,0,0,1,1.6-1.1l2.8-.7,2.8-.8q.8-.3.9,0C92.1,16.5,92,16.9,91.8,17.4ZM90.9,6.1c.7.5,1,.9.8,1.1s-.5.5-1.1.5H89.1l-1.8-.3-1.7-.5-1.2-.7a2.8,2.8,0,0,1-.7-.9.8.8,0,0,1-.1-.8,1.4,1.4,0,0,1,.6-1.2,1.3,1.3,0,0,1,1.1-.5H86l.8.3a2.4,2.4,0,0,1,.9.6l1.2.8,1.1.8Zm9.4,2.6a21.9,21.9,0,0,1-.4,5.9,12.8,12.8,0,0,1-1.7,4.5,9.7,9.7,0,0,1-1,1.5L96,21.7l-1.3,1-1.6.9a6.6,6.6,0,0,1-2.7.6c-.8,0-1.4-.1-1.7-.5a.6.6,0,0,1-.3-.7c0-.3.3-.5.7-.6l1.5-.5,1.8-.9L94,19.9l1.4-1.4a8.6,8.6,0,0,0,2-4.3,15.7,15.7,0,0,0,0-5.3,2.4,2.4,0,0,1,.2-1.5.8.8,0,0,1,.9-.5,1.7,1.7,0,0,1,1.3.5A1.7,1.7,0,0,1,100.3,8.7ZM105.2,6c0,.3-.1.7-.1,1.1a5.3,5.3,0,0,0-.1,1.4v6.8a5.4,5.4,0,0,1-.4,2,1.3,1.3,0,0,1-1.3.8,1.7,1.7,0,0,1-1.1-.1,1.2,1.2,0,0,1-.3-.9V13.2c.1-1.8.1-3.9.1-6.2a1.7,1.7,0,0,0-.4-1.3,1.6,1.6,0,0,0-1.1-.4H96.8l-.6.2a.6.6,0,0,0-.3.6c-.1,1.8-.2,3.3-.2,4.6s0,2.6.1,3.8a5.4,5.4,0,0,1-.3,2.2,2,2,0,0,1-1.2.8h-.6l-.4-.4a1.9,1.9,0,0,1-.1-.8V14.9a15.5,15.5,0,0,0,.1-2.3,22.5,22.5,0,0,0,0-2.6c0-.9-.1-1.8-.1-2.6s-.2-1.6-.3-2.2a4.2,4.2,0,0,1-.1-1.9,1.5,1.5,0,0,1,.7-1.2,1.1,1.1,0,0,1,1.2-.2,1.6,1.6,0,0,1,1,.5l.6.6h4.3a2.4,2.4,0,0,0,1.5-.4,2,2,0,0,1,1.5-.6,2.3,2.3,0,0,1,1.2.6,5.3,5.3,0,0,1,.6,1.4A7.2,7.2,0,0,1,105.2,6Zm0,17.4a1.3,1.3,0,0,1-1.2,0,2.9,2.9,0,0,1-1.4-.8l-1-1-.8-.6-1-.7a1.6,1.6,0,0,1,0-2.2,1,1,0,0,1,1.3-.3,2.1,2.1,0,0,1,1.4,1.1l.6.8a1.8,1.8,0,0,0,.5.7l.5.6.7.7a1.8,1.8,0,0,1,.6,1A.6.6,0,0,1,105.2,23.4Zm10.8-4a6.5,6.5,0,0,1-.8,3.8,4.6,4.6,0,0,1-2.6,1.9,3.7,3.7,0,0,1-1.8.2,5.8,5.8,0,0,1-1.8-.4l-1.5-1.1a9.5,9.5,0,0,1-1-1.7,2.6,2.6,0,0,1-.1-.7c.1-.1.3-.1.6.1a4,4,0,0,0,1.8.7,2.7,2.7,0,0,0,1.8-.3,4.1,4.1,0,0,0,1.4-1.2,4.8,4.8,0,0,0,.5-2.2V11.3c0-1.8,0-3.2-.1-4.2a14.2,14.2,0,0,0-.1-2.3c-.1-.5-.1-.9-.2-1.3s-.1-2.1.3-2.5a1.6,1.6,0,0,1,1.8-.2l1,.5a2.7,2.7,0,0,1,.7.8,4.4,4.4,0,0,1,.2,1.3,14.2,14.2,0,0,1-.1,1.9,13.8,13.8,0,0,0-.2,2.5c-.1,1.1-.1,2.4-.1,3.7v4.1C115.8,17,115.9,18.3,116,19.4ZM110.1,7.7a18.4,18.4,0,0,0-.2,2.6,31.9,31.9,0,0,0,.1,4.2,3.4,3.4,0,0,1-.3,2.2,1.7,1.7,0,0,1-1.3.8,1.4,1.4,0,0,1-1.2-.2,4.2,4.2,0,0,1-.1-1.4,31,31,0,0,0,.2-4.3q-.1-2.2-.3-3.9a13.6,13.6,0,0,1-.1-1.8,2.2,2.2,0,0,1,.5-1.1l.4-.3H109l.4.2a3.4,3.4,0,0,1,.7,1.5A3.8,3.8,0,0,1,110.1,7.7Z" style="fill:#fcc03c"/><path d="M158.6,17.4a8.4,8.4,0,0,1-1.3,1.7,6.2,6.2,0,0,1-1.6,1l-1,.5h-1a5.6,5.6,0,0,1-1.5-.4l-2.3-.9-.7-.3-1.1-.3-1.3-.4-1.3-.4c-.4,0-.6.1-.5.5a12.1,12.1,0,0,1,.1,2c0,.7.1,1.5.1,2.4a2,2,0,0,1,0,1.1,1.9,1.9,0,0,1-.2.8c-.1.2-.4.3-.7.4l-1.2.3H142a1,1,0,0,1-1-1.1,3.8,3.8,0,0,1,0-1.5,18.5,18.5,0,0,1,.1-2.5,19.3,19.3,0,0,1,.1-2.4.4.4,0,0,0-.4-.4h-3.3c-.3,0-.4.1-.4.4l-.6,1.7a14,14,0,0,1-1,1.6l-1.2,1.3-1.4,1a9.4,9.4,0,0,1-2.2.7l-2.3.3-1.9-.2-1.2-.6c-.5-.5-.7-1-.5-1.4s.5-.6,1.1-.5a11.6,11.6,0,0,0,3.3-.1,8.7,8.7,0,0,0,2.6-1.5l.8-.8a2.3,2.3,0,0,0,.6-1.3c.1-.4,0-.5-.3-.5a37.7,37.7,0,0,0-6.9.7,13.7,13.7,0,0,0-4,1.2l-.8.2-.7-.2a1.2,1.2,0,0,1-.5-.5,1.4,1.4,0,0,1,0-.9,2.1,2.1,0,0,1,.4-1.2l1.1-.8a3,3,0,0,1,1.1-.4h1l2.3.2H128l1.9-.3,3.3-.2h.4v-.7a.4.4,0,0,0-.1-.3h-1.6l-.6.2-1,.4h-.6c-.1,0-.2-.2-.3-.5a5.8,5.8,0,0,0-.2-1,4.5,4.5,0,0,0-.1-1.1,5.3,5.3,0,0,0-.1-1.3,6.2,6.2,0,0,1-.1-1.3,3.4,3.4,0,0,1-.1-.9,3.2,3.2,0,0,1,.2-1.7c.2-.5.5-.8.9-.8a1.1,1.1,0,0,1,1.1,0h1.2l2.9-.2h6.4l2.2.2,1.4.2.8-.2a1.9,1.9,0,0,1,2.3,0c.3.3.6.5.7.8a2.9,2.9,0,0,1,.1,1.4,15.5,15.5,0,0,0-.1,2.3v2.1a1.4,1.4,0,0,1-.3.9,1.8,1.8,0,0,1-.7.5l-1,.2h-1q-.9-.3-.9.3v.6h.3l4.5.4,3.9.3,2.9.2h1.3c.5,0,.7.1.8.2S158.8,17,158.6,17.4ZM154,5.5c-.2.5-.7.6-1.5.4l-2.9-.7a13.4,13.4,0,0,1-2.6-.9h-.4c-.1,0-.2.2-.2.5a1.8,1.8,0,0,1-.7,1.3,1.7,1.7,0,0,1-1.3.2.6.6,0,0,1-.6-.3,2.2,2.2,0,0,1-.1-.9c0-.5,0-.9-.1-.9s-.2-.1-.5,0l-1.6.8-1.7.7a3.5,3.5,0,0,1-1.7.2,2.7,2.7,0,0,1-1.1-.6c0-.1-.1-.1-.1-.2s-.1-.1,0-.1.1-.5-.1-.5l-.8-.3-.8-.3c-.2-.1-.4-.1-.4,0s-.1.3-.1.7a1.4,1.4,0,0,1-.5.9,2.1,2.1,0,0,1-1.5.5c-.4,0-.6,0-.7-.2s-.1-.4,0-.9,0-1-.5-.7l-1.9.9-2.2.8-1.6.5h-1.1a1.8,1.8,0,0,1-.7-.5,2.6,2.6,0,0,1-.7-1,.8.8,0,0,1-.2-.9,1.5,1.5,0,0,1,1.1-.3l2-.4,2.5-.7,2.4-.9,1.7-.8a1.5,1.5,0,0,1,1-.4c.4-.1.7-.1.9.1a.8.8,0,0,1,.5.9.4.4,0,0,0,.2.5l.8.4.6.3.6.2.6.3c.2,0,.4.1.4.2s.1.3,0,.3,0,.3.1.3h.4a22.4,22.4,0,0,0,2.2-1.1,11.4,11.4,0,0,0,2.3-1.5c.9-.7,1.6-.8,2.2-.5s.7.5.7.8.1.2.3.3l1.9.7,1.5.6,1.5.4,1.5.4c.7.2,1,.4,1.1.6S154.2,5.1,154,5.5Zm-8.6,2.9a.8.8,0,0,0-.2-.5l-.7-.2H133c-.4,0-.5.2-.4.5s.1.3.4.3h12.3Zm0,1.7a.4.4,0,0,0-.4-.4H133.2c-.3,0-.4.1-.4.4s.1.5.4.5H145l.3-.2Zm-.2,1.9c.1-.3-.1-.4-.4-.4h-5.3l-5.9.3H133l-.2.2a.5.5,0,0,0,.5.4c2.2-.2,4.2-.2,5.9-.2H145A.8.8,0,0,0,145.2,12Zm-4,2.3a.4.4,0,0,0-.4-.4h-3.2c-.3,0-.4.1-.4.4s0,.6.1.7l.3.2h3.6Z" style="fill:#fcc03c"/></g></g></svg>