<svg xmlns="http://www.w3.org/2000/svg" viewBox="0 0 100 56"><title>xingming_bg02</title><g id="图层_2" data-name="图层 2"><g id="图层_1-2" data-name="图层 1"><path d="M62.6,16a54.3,54.3,0,0,0-5.3,1.7,19.4,19.4,0,0,1-3,1.3c-1,.4-1.8,1-2.8,1.4l-1.4.7h.2c.1,0,.1-.1.2-.2l.3-.2h.1c.1,0,.2-.2.2-.3s.2-.1.2-.1.2-.2.3-.3h.1c.2.1.2-.1.3-.2s.1-.2.2-.2l.5-.3h.1l.3-.2.2-.3c.2.1.2-.4.4-.2s.5-.4.8-.6A30.1,30.1,0,0,1,59.2,15l4-1.3c.3.1.7-.1,1,.2h.2c0,.2.1.2,0,.4S63.6,16,62.6,16Z" style="fill:#2f2f2f"/><path d="M38.8,35.6l-.4,1.2c.1,1.3-.5,2.3-.4,3.5a10.1,10.1,0,0,0-.3,1.7c.1-.3-.3-.4-.3-.6h.1a58.5,58.5,0,0,1-.4-5.9c-.1-2.5-.4-4.8-.5-7.2a6.6,6.6,0,0,0,.1-1.4,19.7,19.7,0,0,1,.4-3.5c.3-.3.3-.7.8-.8s.5.4.6.6.4,3.2.9,4.7S39.1,33,38.8,35.6Z" style="fill:#2f2f2f"/><path d="M36.3,22.9c-.1.9-.5,1.7-.7,2.7s-1,1.5-1.1,2.5a5.2,5.2,0,0,0-.7,1.5c-.5,1.3-1.4,2.4-1.9,3.7s-.4.7-.6,1-1.5,3.2-2.3,4.8-1,1.6-1.4,2.5a12.9,12.9,0,0,0,.4-1.9c.4-1.2.8-2.3,1.1-3.6a25.8,25.8,0,0,0,1.2-4.2c.3-.4.2-1,.5-1.5a29.8,29.8,0,0,1,2.5-6.2,7.7,7.7,0,0,1,1.9-2.8c.3-.2.4-.7.9-.5s.2.3.4.2v1.3Z" style="fill:#2f2f2f"/><path d="M31.1,25.4c-.2.2-.5.6-.8.6a31.4,31.4,0,0,1-3.1,1.8,49.2,49.2,0,0,0-5.1,2.6h-.4c1.2-1.6,2.8-2.6,4.1-4.1s2-2,3.1-2.7A14.8,14.8,0,0,1,31,22.4c.3,0,.5-.4.9-.3l.4-.3c-.1.1.1.1,0,.3s.5,0,.6.3A2.7,2.7,0,0,1,31.1,25.4Z" style="fill:#2f2f2f"/><path d="M40.1,26.7a9.5,9.5,0,0,0,1,1.7c.4,1.2,1.5,1.8,1.9,3s.5,1.1,1.1,1.5.9,1.8,1.5,2.7,1,1.1,1.2,1.7.6,1.1,1.2,1.6a13.1,13.1,0,0,1-.5-1.5c-2.1-4.6-3.2-9.7-6.2-13.9-.8-.5-.7-1.7-1.8-1.8h-.1c-.5,1.1-.9,2.7-.1,3.7Z" style="fill:#2f2f2f"/><path d="M13.4,43l-1.8.9c-.9.8-2.2.7-3.2,1.5s-1.1.6-1.8.7-1.8,1-2.8,1.5a10.8,10.8,0,0,0-1.9.8,14.6,14.6,0,0,1-1.9.7c.4-.2.8-.7,1.3-1,4.3-2.8,8-6.4,12.9-8.4,1,0,1.6-1.1,2.5-.6h.1c-.2,1.1-.7,2.7-2,3.1Z" style="fill:#2f2f2f"/><path d="M36.1,38.7c1.3.5,2.4,1.4,3.7,2S41.1,41.9,42,42a6.8,6.8,0,0,0,2.7,1c.5.4,1.2.4,1.7.9a2.6,2.6,0,0,1,1.1.7c1.2,0,1.9,1.1,3.1,1.1-1.3-.8-2.5-1.8-3.7-2.6s-3.1-2.2-4.5-3.4-4.7-3.5-7.4-4.3c-.4.1-.7-.1-1.1.2a2.6,2.6,0,0,0,1,2.3c.2,0,.4.3.7.3Z" style="fill:#2f2f2f"/><path d="M34.2,49.8c-2.1-1.7-4.7-2.8-6.8-4.5s-2.8-2.3-4.3-3.4-.7-1.3-1.2-1.7-.1-.4.1-.5h-.2c1.2-.7,2.5.4,3.5.9s2,1.8,3.1,2.5,1,1.4,1.7,1.8a20.2,20.2,0,0,1,3.7,4.5C33.9,49.5,34.2,49.6,34.2,49.8Z" style="fill:#2f2f2f"/><path d="M17.4,44.2c-1.2,1.1-2,2.5-3.4,3.5a27.5,27.5,0,0,1-3.7,3.9c-.1.3-.6.6-.9.9,1.5-2.1,1.5-4.7,3.1-6.6s1.1-1.1,1.2-1.9A25.7,25.7,0,0,1,17,40.7a1.9,1.9,0,0,1,1.8-.6c.4.1.5.6.7.9S18.4,43.4,17.4,44.2Z" style="fill:#2f2f2f"/><path d="M21,44.6c-.4,1.9-.6,3.9-1,5.8s-.4,2.4-.5,3.7-.2.8-.3,1.1-.1.6-.2.8-.3-.1-.3-.2a44.1,44.1,0,0,1-.3-9.6h0v-.8a30.1,30.1,0,0,0,.5-4.2c.2-.9,0-1.8.8-2.5s.3,0,.5,0a3.1,3.1,0,0,1,.9,1.9C21.1,41.8,21,43.3,21,44.6Z" style="fill:#2f2f2f"/><path d="M39.5,49.1,36.1,44a17.2,17.2,0,0,0-2.2-3.3c-1.4-2.2-3-4.3-4.3-6.6.1-.4-.3-.7,0-1.1l2.1.9c0,.1,0,.2.2.3h.2l2,2a8,8,0,0,1,1.3,2.4,22.6,22.6,0,0,1,1.9,4.2,12.2,12.2,0,0,1,.9,2.7h-.1c.2.5.7.9.7,1.5h.1c-.1.3.2.7.3,1l.3,1Z" style="fill:#2f2f2f"/><path d="M33.6,47.8a1.7,1.7,0,0,0,.1.7l.3,2.2h0A17.7,17.7,0,0,0,34,53c-.3.1.1.5-.2.6V54a1.5,1.5,0,0,0-.1.7c-.2.1,0,.4-.1.6a31.5,31.5,0,0,0-1.1-4.4L31,46.3h.1a33.8,33.8,0,0,1-1.6-7.3c-.4-1.1-.4-2.4-.7-3.5s.2-.6.3-.9a2.1,2.1,0,0,1,1.8,1.4,7.6,7.6,0,0,1,.8,2.1,10,10,0,0,1,.9,3.5c.7,1.9.7,4.2,1.1,6.3Z" style="fill:#2f2f2f"/><path d="M44.3,21.8c.5.1.8.4,1.2.5s1.1.9,1.8,1.1,1.3,1.2,2.1,1.8l1,1c.4,0,.6.6,1,.6s1.4.9,1.9,1.5.8.9,1.4,1.1h0L49.1,27c-1-.2-1.9-.9-2.9-1.1s-3.7-1.8-5.2-3.5c0-.1,0-.2-.1-.2v-.6c.8-.2,1.8-.7,2.6-.3S44.1,21.6,44.3,21.8Z" style="fill:#2f2f2f"/><path d="M23.3,35.9l-1.1.6c-.6.4-1.4.3-1.9.8s-1.9.3-2.8.6l-1.4.2c-.2.4-.9.1-1.1.5s-1.6.5-2.4.6-1.2.1-1.7.4h-.1c1.9-1,3.6-2.1,5.4-3s1.8-.9,2.5-1.6,3.7-2,6.1-2.1c0,0,.1.1.1,0l.6.4c-.4.7-.5,1.8-1.3,2.2A1.8,1.8,0,0,1,23.3,35.9Z" style="fill:#2f2f2f"/><path d="M100,15.4H99c-1.4-.9-3.1-1.3-4.5-2.2s-2.9-.8-4.1-1.5a9.3,9.3,0,0,1-2.5-1c0-.3-.5-.4-.7-.7s.4-.6.4-.9h.1c.9.2,1.8-.1,2.6.2l2.7,1,3.7,2.6c.2.3.4.2.6.3a4.3,4.3,0,0,0,1.2,1.1l1.3,1C99.8,15.3,99.9,15.3,100,15.4Z" style="fill:#2f2f2f"/><path d="M46.6,6.8a20.6,20.6,0,0,1-3.7,1.6c-1.3.7-2.9,1.2-4.1,1.9s-.1.1-.2.1-.8.1-1,.4l-.6.3-.6.2c-.2.2-.6-.1-.7.2l-.5.2a27.1,27.1,0,0,1,4.1-3.5c1.2-.9,2.4-1.5,3.6-2.3l.6-.3c2.1-.8,4.1-2,6.2-1.8.2,0,.1.1.2.2A5.7,5.7,0,0,1,46.6,6.8Z" style="fill:#2f2f2f"/><path d="M56.9,26.2a15.3,15.3,0,0,0,1.4-2.1,4.8,4.8,0,0,0,.9-1.1c.8-1.3,2.1-2.2,2.9-3.5a40.4,40.4,0,0,1,3.5-3.7,10.6,10.6,0,0,0,1.7-2c0-.2,0-.3.1-.4s-1.1-.2-1.6-.3l-1.9,1.3c-.6.2-.8.7-1.2,1.1l-.9,1.3a18.7,18.7,0,0,0-2,2.9,13.6,13.6,0,0,1-1,2.1c-.5.7-.6,1.6-1.1,2.2S56.9,25.3,56.9,26.2Z" style="fill:#2f2f2f"/><path d="M62.5,32.9l1.3-3c.4-1.3,1.4-2.3,1.8-3.6,1.1-3.1,2.5-6,3-9.3a11.5,11.5,0,0,0-.3-2.6.3.3,0,0,0-.5-.1c-.5.6-1.6.9-1.6,1.8A24.2,24.2,0,0,0,65,19.6c0,.7-.4,1.2-.4,1.9s-.2,1.3-.5,1.9a12.9,12.9,0,0,1-.4,1.9c-.3.5-.1,1.3-.4,1.8s-.5,2.2-.6,3.3,0,.9-.1,1.3S62.3,32.5,62.5,32.9Z" style="fill:#2f2f2f"/><path d="M74.4,24.3c.4-.6.5-1.5.9-2.1s1.1-2.5,1.5-3.8a2.6,2.6,0,0,0,.7-1.1c1.2-2.1,2.3-4.3,3.6-6.3a3.4,3.4,0,0,0,.2-1.4c-1-.4-1.7.4-2.4.9a6.4,6.4,0,0,0-2.2,3.3,12.5,12.5,0,0,0-1.2,4.3l-.3,2c-.5.9-.4,2.2-.7,3.2S74.4,23.9,74.4,24.3Z" style="fill:#2f2f2f"/><path d="M69.7,19a27.4,27.4,0,0,0,.5,2.8,24.4,24.4,0,0,1,.6,2.6,11.8,11.8,0,0,1,.4,2c0,1.5.8,2.6.9,4s.5,2.1.9,3a1.8,1.8,0,0,0,.3,1.1c.1-3,0-5.9-.1-8.9s-.1-4.2-.4-6.3,0-2.4-.5-3.4a8,8,0,0,0-1.1-3.7c-.4,0-.7-.5-1-.6l-.2-.3c-.4.2-.9.5-.9,1s.1.9-.1,1.4A15.1,15.1,0,0,0,69.7,19Z" style="fill:#2f2f2f"/><path d="M73.2,13.7c.5.5.7,1.3,1.4,1.7s.8.8,1,1.3,2.6,2.9,4,4.3a5,5,0,0,1,.7.8c1,.7,1.2,1.8,2.1,2.5a7,7,0,0,0,2,1.8c-1.1-1.5-1.7-3-2.7-4.4a62.5,62.5,0,0,0-4.3-7h0a9.9,9.9,0,0,0-3.8-3c-.3-.1-.2.3-.4.5A4.3,4.3,0,0,0,73.2,13.7Z" style="fill:#2f2f2f"/><path d="M74.9,6.7c-.6-.4-1.6-.5-2.3-1l-1.3-.6c-1.4-.7-3-.8-4.3-1.5a28.5,28.5,0,0,0-5-1.4,10.6,10.6,0,0,1-2.5-.9L59.2,1c.1-.5.8-.7,1.2-1h2.3c.6-.1,1.1.3,1.6.4l1.5.6A19.1,19.1,0,0,1,69,2.7c.6.5,1.4.7,2,1.2s1.4,1,2.2,1.3S74.5,6,74.9,6.7Z" style="fill:#2f2f2f"/><path d="M68.9,14.8c-.4-.7-1.1-1.2-1.5-2l-.9-1.1c-.8-1.3-2.1-2.2-2.9-3.4A30.6,30.6,0,0,0,60,4.7a11.2,11.2,0,0,1-1.7-2.1c-.1-.1-.1-.3-.2-.4s1.2-.2,1.6-.3l2,1.2c.5.2.8.8,1.1,1.2l1,1.2a18.7,18.7,0,0,1,2,2.9c.2.8.8,1.3,1.1,2.1s.7,1.5,1.2,2.2S68.9,14,68.9,14.8Z" style="fill:#2f2f2f"/><path d="M65.1,19c-.5-.9-1.2-1.8-1.8-2.7S61.6,14.2,61,13c-1.5-2.9-3.4-5.5-4.3-8.7a6.3,6.3,0,0,1-.2-2.7.3.3,0,0,1,.5-.1c.6.5,1.7.6,1.8,1.5a26.8,26.8,0,0,1,1.8,3.3,13.4,13.4,0,0,0,.7,1.8c.3.5.3,1.3.7,1.8s.5,1.2.7,1.8.3,1.3.7,1.8a23.9,23.9,0,0,1,1.1,3.2c.2.3.1.8.3,1.2S65.2,18.6,65.1,19Z" style="fill:#2f2f2f"/><path d="M55.7,7.2a15.5,15.5,0,0,1-.4,2.1,17.4,17.4,0,0,0-.5,2.2,6.6,6.6,0,0,0-.3,1.5c0,1.2-.7,2.1-.7,3.3s-.5,1.6-.7,2.4a1.6,1.6,0,0,1-.3.9c-.1-2.5,0-4.8.1-7.2s.1-3.3.3-5,0-1.9.4-2.7a8.5,8.5,0,0,1,.9-3.1c.3.1.5-.3.8-.4V1c.4.1.8.4.8.8a2.1,2.1,0,0,0,.1,1.1A20.3,20.3,0,0,1,55.7,7.2Z" style="fill:#2f2f2f"/><path d="M53.1,5.5c-.5.6-.7,1.3-1.4,1.7s-.8.8-1,1.3-2.6,2.9-4,4.4-.5.5-.8.8-1.1,1.7-2,2.4a6.1,6.1,0,0,1-2,1.9c1.1-1.5,1.6-3,2.7-4.5a56.2,56.2,0,0,1,4.3-6.9h0a11.3,11.3,0,0,1,3.8-3.1c.3,0,.2.4.4.6A3.8,3.8,0,0,1,53.1,5.5Z" style="fill:#2f2f2f"/><path d="M82.9,15.3c.4,1.2.4,2.6,1.2,3.7a12.9,12.9,0,0,0,.8,2.8,11.7,11.7,0,0,0,1,2.6h0c.1-.2-.1-.3,0-.4s-.1-1.2-.2-1.7h.1c-.5-2.5.1-5.1-.6-7.5a40.5,40.5,0,0,0-1.5-6l-.4-.6c-.2.1-.6,0-.6.3s-.4.7-.4,1.2C82.1,11.7,82.9,13.3,82.9,15.3Z" style="fill:#2f2f2f"/><path d="M84.4,11.3a3.3,3.3,0,0,0,.4,1.4c.5.1.1.9.6.9h0a.1.1,0,0,1,.1.1c0,.2.3.3.3.5l.4.6h.2c.1.1.1.3.3.4a.8.8,0,0,0,.5.5h0c.2,0,.1.2.2.2s0,.2.1.2.1,0,.1.1.7.6.9,1,.4.2.3.4.1.4.4.3a3.8,3.8,0,0,1,.9,1.5c.8.4,1.1,1.2,1.7,1.9s.5.5.7.8,1.8,2.2,2.6,3.4c-.1-.8-.8-1.4-.8-2.2s-2.4-4.2-3.3-6.4-1.1-2.6-2-3.7-1-1.5-1.6-2.2a.4.4,0,0,1-.1-.3,6.6,6.6,0,0,0-2.4-1.7c-.4.2-.6.3-.7.7S84.5,10.9,84.4,11.3Z" style="fill:#2f2f2f"/></g></g></svg>