<svg xmlns="http://www.w3.org/2000/svg" viewBox="0 0 66.9 49.2"><title>yunshi02</title><g id="图层_2" data-name="图层 2"><g id="图层_1-2" data-name="图层 1"><path d="M31.6,9.4a11.2,11.2,0,0,0-.5,1.3l-.5.8-.7.5-.9.5a4.8,4.8,0,0,1-2.2.4,7.9,7.9,0,0,1-2.9-.6L22.7,12l-2-.3-2.4-.2-2.2-.2H12l-2.2.2-2,.2-1.3.2-1.1.2-1,.3-1.2.4A3,3,0,0,1,2,13l-.7-.3-.4-.6a3.4,3.4,0,0,1,.1-.9l.6-1,1-1,.6-.4.6-.2h.9l.9.3H7.1c3.4-.3,6.7-.5,9.9-.5s5.9,0,8.4.1h6.3A1.8,1.8,0,0,1,31.6,9.4Z" style="fill:#c5c5c5"/><path d="M66.3,12.6l-.4.6-.7.6a2,2,0,0,1-.7.6l-.6.4-1.4.3H61.3l-5-1.3L53,13.3c-.3,0-.4.1-.4.3s.1,1.1.1,1.6v1.4a3.8,3.8,0,0,1,.1,1v.5a3.3,3.3,0,0,1-.3,2.2,2.9,2.9,0,0,1-1.3.8H50.1a.5.5,0,0,1-.6-.4,1,1,0,0,1-.3-.8V18.4a12.2,12.2,0,0,0,.1-2.1c0-.9.1-1.8.1-2.8a.3.3,0,0,0-.3-.3,38.6,38.6,0,0,0-4.7.2l-5,.5a7.2,7.2,0,0,0-1.9.4l-2,.5c-1.2.5-1.9.4-2-.3a1.4,1.4,0,0,1,.2-1,4.5,4.5,0,0,1,1.2-1.2l1-.6a1.9,1.9,0,0,1,1,.1h4.3l.3-.2a5.5,5.5,0,0,0,.1-.9V9.4c-.1-.1-.1-.2-.2-.2l-1.2.3a.5.5,0,0,1-.5-.3c-.2-.5.1-1.1.8-1.7a2.2,2.2,0,0,1,2.4-.7h6.2c.2,0,.2,0,.3-.2a5.5,5.5,0,0,0,.1-.9,10.4,10.4,0,0,0-.1-1.1l-.3-.2H43.7l-.3-.3H43a6.7,6.7,0,0,1-1.7.8,5.8,5.8,0,0,1-1.7.6,3.9,3.9,0,0,1-1.5.2,1.3,1.3,0,0,1-.9-.5c-.3-.3-.4-.5-.2-.7s.4-.3.9-.5l1.6-.6,2-1.1a8.3,8.3,0,0,0,1.8-1.3l1.3-1A2.5,2.5,0,0,1,45.8,0,2.4,2.4,0,0,1,47,.3a2.2,2.2,0,0,1,.9,1.1,1.1,1.1,0,0,1-.3,1c-.3.2-.4.4-.3.4s.2.1.6.1h12a1.7,1.7,0,0,1,.9.2.8.8,0,0,1,.2.6c0,.3,0,.4-.2.6l-1.1.2-2.9.2H52.9c-.1,0-.2.1-.2.3a2.2,2.2,0,0,0-.1.9,1.6,1.6,0,0,0,0,1,.3.3,0,0,0,.3.3h5.9a1.9,1.9,0,0,1,1,.2c.2.2.3.3.3.5a.6.6,0,0,1-.2.7c-.1.2-.4.3-.8.3l-2.7.2H52.9c-.2,0-.3.1-.3.2a1.6,1.6,0,0,0,0,1c0,.5,0,.8.1.9H65.5c.6,0,.9,0,1,.2S66.5,12.2,66.3,12.6ZM49.4,10.2V9.1q-.1-.3-.3-.3H44.2l-.3.3c0,.2-.1.6-.1,1.2a1.9,1.9,0,0,0,.2,1l.2.2h2.4l2.5-.2c.1,0,.2,0,.2-.2S49.4,10.7,49.4,10.2Z" style="fill:#c5c5c5"/><path d="M32,45.4a9.4,9.4,0,0,1-1.2,1.8L29,48.6a4.1,4.1,0,0,1-2.6.5A9.1,9.1,0,0,1,23.1,48l-2.5-.9L17,45.9l-4.3-1-4.8-.8h-1l-1.5.2-1.6.5-1.6.7-.9.3-.8-.2a1,1,0,0,1-.4-.5,2.2,2.2,0,0,1-.1-.9,1.8,1.8,0,0,1,1.1-1.2,6.7,6.7,0,0,1,2.4-.8l2-.2h.6l.3-.2.9-.8.5-.5a1.3,1.3,0,0,0,.1-.6.9.9,0,0,0-.7-.6.6.6,0,0,1-.5-.6A1.3,1.3,0,0,1,7,37.7l.3-.4.3-.4c.1-.2.2-.3.1-.5s-.2-.3-.4-.4H5l-.7.2a2,2,0,0,1-1.3.1.7.7,0,0,1-.5-.7,1.7,1.7,0,0,1,.1-.7,2.4,2.4,0,0,1,.6-.9,1.6,1.6,0,0,1,1.7-.4h4c.3-.2.7-.1,1.2.2a.8.8,0,0,1,.4.7,1.2,1.2,0,0,1-.2,1l-.8,1.1c-.1.2-.2.3-.2.4a.4.4,0,0,0,0,.5.4.4,0,0,0,.1.3,3.1,3.1,0,0,1,1.1,1.5,1.7,1.7,0,0,1-.4,1.2l-.6.4-.7.6a.1.1,0,0,0-.1.1c0,.1,0,.1.1.1l6.1.7,7.9,1.2,4.5.3,3.9-.2c.5,0,.8,0,.9.2A1.2,1.2,0,0,1,32,45.4ZM9.9,30.9c.3.1.6.2.7.4a.4.4,0,0,1,.1.5c0,.1-.1.3-.4.4a1.9,1.9,0,0,1-.9.4H7l-1.3-.3a5,5,0,0,1-1.4-.8,1.1,1.1,0,0,1-.6-.7,1.4,1.4,0,0,1,0-.9,1.8,1.8,0,0,1,.5-.7l1-.3h.7l1.2.7,1.2.7A5.8,5.8,0,0,0,9.9,30.9Zm19.1,4a1.6,1.6,0,0,1-.4.7l-1.2.3H21a.5.5,0,0,0-.5.3c-.1.2-.2.4-.4.4a6.5,6.5,0,0,0-1.2,1.1,8.3,8.3,0,0,0-.8,1.2,1.4,1.4,0,0,0-.1.9c0,.3.3.5.9.7a5,5,0,0,0,2.1.2,3.7,3.7,0,0,0,1.9-.9c.2-.2.2-.3,0-.5a4.7,4.7,0,0,0-1.2-.9l-.6-.5c-.4-.3-.3-.7.3-1.1l.5-.3h.4l.7.2.9.4a14.9,14.9,0,0,1,3.8,3,2.4,2.4,0,0,1,.6.9,1.8,1.8,0,0,1-.2.9c-.1.2-.3.3-.7.3l-.8-.3-.5-.3-.8-.7a.6.6,0,0,0-.7.1l-1.3,1.2-1.3.8-.9.2a1.7,1.7,0,0,1-1,0h-1l-.8-.3a6.5,6.5,0,0,0-2-.9H14.8l-1.2.2-.7-.4a1.6,1.6,0,0,1-.4-.7v-.8a2.1,2.1,0,0,1,.4-.6.9.9,0,0,1,.6-.4l.6-.3.7-.4a5.6,5.6,0,0,0,1.5-1,2.7,2.7,0,0,0,.9-1.2c.2-.3.1-.4-.2-.4H13.4l-.4.2-1,.2-.7-.6a.8.8,0,0,1-.1-.7,2.4,2.4,0,0,1,1-1.1l1.2-.6a1.2,1.2,0,0,1,1,.1h14C28.8,34,29,34.3,29,34.9Zm-2.7-4.5a1.6,1.6,0,0,1-.4.7l-1.2.3H14.3a1.8,1.8,0,0,1-.9.2,1,1,0,0,1-.7-.5c-.2-.1-.2-.4-.1-.7a2.4,2.4,0,0,1,1-1.1l1.1-.6a2.2,2.2,0,0,1,1.1.1h6.5l2.2.2h1.2l.5.2A1.5,1.5,0,0,1,26.3,30.4Z" style="fill:#c5c5c5"/><path d="M48.8,34.4a.5.5,0,0,1-.3.5,4.2,4.2,0,0,1-1.4.5c-.2,0-.3.2-.4.4a7,7,0,0,1-.2,1.6,3.6,3.6,0,0,1-.4,1.1l-.7.8-.9.7a10.8,10.8,0,0,1-6.2,1.4L37,41.1l-1.4-.6-1.1-.8-.8-.9a.4.4,0,1,1,.5-.7l1.5.5,1.7.2h1.7l1.5-.2a6.4,6.4,0,0,0,2-.8,2.1,2.1,0,0,0,.7-1.4q.2-.4-.3-.3l-1.9.4-1.1.2h-.7l-.7-.3a.5.5,0,0,1-.3-.5,1.2,1.2,0,0,1,.2-.8,1.4,1.4,0,0,1,.6-.7,2.3,2.3,0,0,1,1.1-.2h1.1l1.7-.2.3-.2c.1-.1.1-.3.1-.6s0-.5-.1-.6h-.2l-1.9.2-1.2.2a3.1,3.1,0,0,1-1.6.1,1.1,1.1,0,0,1-.9-.6.8.8,0,0,1,0-.7c0-.3.2-.5.6-.8a1.7,1.7,0,0,1,1.7-.4L41,31h2.2c.1-.1.1-.2.1-.4a3.5,3.5,0,0,1,.1-1.8.9.9,0,0,1,.9-.7l1,.2a1.9,1.9,0,0,1,.9.4,1.2,1.2,0,0,1,.7.7,2.7,2.7,0,0,1,0,1.3c0,.3.1.5.3.5H48l.6.3a.8.8,0,0,1,.2.4c-.1.6-.6.9-1.7,1h-.2c-.1.1-.1.3-.1.6s0,.4.1.4.1.1.2.1h1.3C48.7,34,48.8,34.1,48.8,34.4Zm9.5,9.7A11.8,11.8,0,0,1,57.2,46a6.7,6.7,0,0,1-1.4,1.5,5.1,5.1,0,0,1-1.6.9,4.7,4.7,0,0,1-1.6.4,6,6,0,0,1-2.9-.6,4.4,4.4,0,0,1-1.8-2c-.1-.3-.1-.4,0-.5s.2-.1.4.1l.9.3h2.2a2,2,0,0,0,1.1-.3l.8-.5.9-.7.7-.8a2.1,2.1,0,0,0,.4-.6,1.6,1.6,0,0,0,.1-1.5,2.1,2.1,0,0,0-1.8-.9h-.5l-.3.2L51,42.3l-2.2,1.4-2.2,1.4-2.2,1.2-2,1-1.7.6-1.4.2a6.6,6.6,0,0,1-1.4,0,2.2,2.2,0,0,1-1.4-.6,2.7,2.7,0,0,1-.9-1.2c-.2-.4-.1-.6.4-.7l1.5-.2,2.2-.4,2.3-.7,2.2-.8a12.3,12.3,0,0,0,2.6-1.2L48.9,41c.1-.1.1-.1.1-.2H47.3l-.9.3-1.1.2a.6.6,0,0,1-.5-.3c-.1-.3-.2-.5-.1-.7l.7-.8A1.7,1.7,0,0,1,47,39a2.3,2.3,0,0,0,1.2.1h2.5a.6.6,0,0,0,.6-.3c.2-.1.3-.3.4-.4a.8.8,0,0,0,.4-.4,1.9,1.9,0,0,1,.7-.8,1,1,0,0,1,.9.1,2,2,0,0,1,.8.4l.5.6c.1.2.1.4-.2.7s-.1.2,0,.2h1.5a3.9,3.9,0,0,1,2.1,1.6A3.5,3.5,0,0,1,58.3,44.1ZM66.7,37a5.7,5.7,0,0,1-1.9,2.9,3.9,3.9,0,0,1-2.9.8,7.1,7.1,0,0,1-2.6-.7,5.6,5.6,0,0,1-2-1.4,5.3,5.3,0,0,1-1.1-2.1,7.8,7.8,0,0,1-.2-2.7,2.9,2.9,0,0,0,0-1c-.1-.2-.3-.2-.5-.2H54.3l-.2.2a1.6,1.6,0,0,0-.3.6,4.9,4.9,0,0,0-.3,1.2c0,.2.1.3.2.3a4.2,4.2,0,0,1,1.3.8c.2.2.2.4,0,.7a1.5,1.5,0,0,1-.7.7h-.8l-.6-.2-.4-.3c-.3-.2-.5-.3-.7-.1a9.3,9.3,0,0,1-1.5,1.3,4.8,4.8,0,0,1-1.6.8c-.4.1-.6.2-.9.1l-.6-.2c-.4-.3-.6-.5-.6-.7a.8.8,0,0,1,.5-.5l1.1-.6.9-.6.4-.3.3-.4c.2-.1.1-.3-.2-.4s-.3-.2-.3-.4a.7.7,0,0,1,.1-.5c.3-.3.5-.4.8-.2H51c.2-.4.3-.6.2-.8s-.1-.2-.2-.2h-.8q-1.4.4-1.5,0c-.1-.3.1-.9.7-1.7l.7-.6h1.4v-.5a5.8,5.8,0,0,1,.1-1.5,1.7,1.7,0,0,1,.6-.6.8.8,0,0,1,.7,0,2.1,2.1,0,0,1,.9.5,1.8,1.8,0,0,1,.5.7v1a.6.6,0,0,0,.1.6c0,.1.2.1.3.1l1-.2h.5a1.8,1.8,0,0,1,1-.6l.9.3a1.9,1.9,0,0,1,.9.9,1.6,1.6,0,0,1-.3,1,2,2,0,0,0-.1.5c0,.2-.1.4-.1.7v.8a3.5,3.5,0,0,0,.1.6,1.8,1.8,0,0,0,.7.9l1.1.6a5.8,5.8,0,0,0,1.4.3h2l1-.3.9-.2.6-.2c.3-.1.4-.1.5,0S66.9,36.5,66.7,37Z" style="fill:#c5c5c5"/></g></g></svg>