<svg id="图层_1" data-name="图层 1" xmlns="http://www.w3.org/2000/svg" viewBox="0 0 40 40"><title>画板 17</title><path d="M30.6,0H9.4A9.4,9.4,0,0,0,0,9.4V30.6A9.4,9.4,0,0,0,9.4,40H30.6A9.4,9.4,0,0,0,40,30.6V9.4A9.4,9.4,0,0,0,30.6,0ZM20,30.7a15.4,15.4,0,0,1-4.3-.6l-1.1.3L12,32.1c-.8.5-1.1.3-.8-.6l.6-2.1a4.9,4.9,0,0,0-.1-1.2,10.9,10.9,0,0,1-5.2-9c0-6.4,6-11.6,13.5-11.6a14.4,14.4,0,0,1,11,4.9l-12.6,6a2,2,0,0,1-2.6-.2l-2-1.8c-.9-.2-1.2,0-1,.9L15,22.7c.5.8,1.2,1.1,2.4.2L32.1,14a10.1,10.1,0,0,1,1.4,5.2c0,6.3-6,11.5-13.5,11.5Z" style="fill:#59b64c"/></svg>